<?xml version="1.0" encoding="utf-8"?>
<!-- Generator: Adobe Illustrator 22.0.1, SVG Export Plug-In . SVG Version: 6.00 Build 0)  -->
<svg version="1.1" id="Layer_1" xmlns="http://www.w3.org/2000/svg" xmlns:xlink="http://www.w3.org/1999/xlink" x="0px" y="0px"
	 viewBox="0 0 612 792" style="enable-background:new 0 0 612 792;" xml:space="preserve">
<style type="text/css">
	.st0{fill:#285471;}
	.st1{fill:#81C241;}
</style>
<path class="st0" d="M280,437h-4.7c-17.7,0-26.6-9.3-26.6-27.9V300c0-18.6,8.9-27.9,26.6-27.9H308c17.9,0,26.9,9.3,26.9,27.9v77.4
	l23.4,28.5V299c0-14.7-4.2-26.3-12.7-34.7c-8.4-8.4-20-12.7-34.7-12.7h-38.1c-14.7,0-26.3,4.2-34.7,12.5c-8.4,8.3-12.7,20-12.7,34.9
	v111.1c0,14.9,4.2,26.6,12.7,34.9c8.4,8.3,20,12.5,34.7,12.5h23.2L280,437z"/>
<polygon class="st1" points="373.9,540.9 293.1,437 335.2,437 305.8,358.2 387.3,457.6 342.8,457.6 "/>
</svg>
