<?xml version="1.0" encoding="utf-8"?>
<!-- Generator: Adobe Illustrator 22.0.1, SVG Export Plug-In . SVG Version: 6.00 Build 0)  -->
<svg version="1.1" id="Layer_1" xmlns="http://www.w3.org/2000/svg" xmlns:xlink="http://www.w3.org/1999/xlink" x="0px" y="0px"
	 viewBox="0 0 612 792" style="enable-background:new 0 0 612 792;" xml:space="preserve">
<style type="text/css">
	.st0{fill:#81C241;}
	.st1{fill:#285471;}
</style>
<path class="st0" d="M395.2,393.5c-1.6-2.8-4.6-5.1-9.1-6.8l-15.2-6.8c-4.9-1.9-7.3-4.6-7.3-8.2v-2.2c0-1.7,0.8-3.2,2.4-4.5
	c1.6-1.3,3.9-1.9,7-1.9h15.5c1.2,0,1.8-0.6,1.8-1.7v-4.5c0-1.2-0.6-1.8-1.8-1.8h-17.2c-11.6,0-17.4,5.3-17.4,15.8
	c0,4,0.9,7.3,2.8,9.7c1.9,2.4,5,4.6,9.4,6.4l15.2,6.4c4.4,1.7,6.6,4.9,6.6,9.4v2.4c0,5-3.3,7.3-10,7.3l-60.4,0
	c-7.2,0-10.8-3.7-10.8-11.2v-7.9c0-0.8,0.4-1.2,1.3-1.2h36.5c1.2,0,1.8-0.6,1.8-1.9V374c0-6-1.7-10.7-5-14s-8-5-13.9-5h-10.8
	c-5.9,0-10.6,1.7-14,5c-3.4,3.3-5.1,8-5.1,14v27.6c0,6,1.7,10.7,5.1,14c3.4,3.3,8.1,5,14,5h62.7c12.3,0,18.4-5.2,18.4-15.5
	C397.6,400.2,396.8,396.3,395.2,393.5z M306.6,374.3c0-7.4,3.6-11.1,10.8-11.1h8.8c7.2,0,10.8,3.7,10.8,11.1v9.9
	c0,0.9-0.4,1.3-1.3,1.3h-27.8c-0.9,0-1.3-0.4-1.3-1.3V374.3z"/>
<path class="st1" d="M265.5,420.7h-7.2c-5.8,0-10.4-1.7-13.7-5c-3.3-3.3-4.9-8-4.9-14v-44.8c0-1.2,0.6-1.8,1.8-1.8h5.8
	c1.2,0,1.8,0.6,1.8,1.8v44.4c0,7.5,3.6,11.2,10.7,11.2h7.3c3.9,0,6.8-1,8.9-3.1c2.1-2.1,3.1-5,3.1-8.8v-43.8c0-1.2,0.6-1.8,1.8-1.8
	h5.8c1.2,0,1.8,0.6,1.8,1.8v62.1c0,1.2-0.6,1.8-1.8,1.8H281c-1.2,0-1.8-0.6-1.8-1.8v-5h-0.5C276.5,418.4,272.1,420.7,265.5,420.7z"
	/>
<path class="st1" d="M407.3,363.2h-7.1c-1.2,0-1.8-0.6-1.8-1.7v-4.8c0-1.2,0.6-1.8,1.8-1.8h7.1c0.9,0,1.3-0.4,1.3-1.2v-11.1
	c0-1.2,0.6-1.8,1.8-1.8h5.8c1.1,0,1.7,0.6,1.7,1.8v11.1c0,0.8,0.5,1.2,1.4,1.2H433c1.3,0,1.9,0.6,1.9,1.8v4.8c0,1.1-0.6,1.7-1.9,1.7
	h-13.7c-0.9,0-1.4,0.4-1.4,1.2v37.1c0,7.3,3.8,11,11.3,11h5c1.3,0,1.9,0.6,1.9,1.8v4.8c0,1.1-0.6,1.7-1.9,1.7h-6.2
	c-5.9,0-10.7-1.7-14.2-5c-3.5-3.3-5.3-7.9-5.3-13.8v-37.5C408.6,363.6,408.2,363.2,407.3,363.2z"/>
<path class="st1" d="M198.9,412.4H197c-7.1,0-10.7-3.7-10.7-11.2v-43.9c0-7.5,3.6-11.2,10.7-11.2h13.1c7.2,0,10.8,3.7,10.8,11.2
	v31.1l9.4,11.5v-43c0-5.9-1.7-10.6-5.1-14c-3.4-3.4-8.1-5.1-14-5.1h-15.3c-5.9,0-10.6,1.7-14,5c-3.4,3.3-5.1,8-5.1,14v44.7
	c0,6,1.7,10.7,5.1,14c3.4,3.3,8.1,5,14,5h9.3L198.9,412.4z"/>
<polygon class="st0" points="236.6,454.2 204.1,412.4 221.1,412.4 209.2,380.7 242,420.7 224.1,420.7 "/>
</svg>
