<?xml version="1.0" encoding="utf-8"?>
<!-- Generator: Adobe Illustrator 22.0.1, SVG Export Plug-In . SVG Version: 6.00 Build 0)  -->
<svg version="1.1" id="Layer_1" xmlns="http://www.w3.org/2000/svg" xmlns:xlink="http://www.w3.org/1999/xlink" x="0px" y="0px"
	 viewBox="0 0 512 512" style="enable-background:new 0 0 512 512;" xml:space="preserve">
<style type="text/css">
	.st0{fill:#285471;}
	.st1{fill:#FFFFFF;}
	.st2{fill:#81C241;}
</style>
<rect class="st0" width="512" height="512"/>
<g>
	<path class="st1" d="M235.3,353.7h-7.1c-27,0-40.5-14.2-40.5-42.5V144.7c0-28.3,13.5-42.5,40.5-42.5H278c27.3,0,41,14.2,41,42.5
		v118l35.7,43.5V143.2c0-22.5-6.4-40.1-19.3-53c-12.9-12.9-30.5-19.3-53-19.3h-58.1c-22.5,0-40.1,6.3-53,19
		c-12.9,12.7-19.3,30.4-19.3,53.2v169.5c0,22.8,6.4,40.5,19.3,53.2c12.9,12.7,30.5,19,53,19h35.3L235.3,353.7z"/>
	<polygon class="st2" points="378.5,512 255.3,353.7 319.5,353.7 274.7,233.5 398.9,385 331.1,385 	"/>
</g>
</svg>
