<svg xmlns:dc="http://purl.org/dc/elements/1.1/" xmlns:cc="http://creativecommons.org/ns#" xmlns:rdf="http://www.w3.org/1999/02/22-rdf-syntax-ns#" xmlns:svg="http://www.w3.org/2000/svg" xmlns="http://www.w3.org/2000/svg" xmlns:sodipodi="http://sodipodi.sourceforge.net/DTD/sodipodi-0.dtd" xmlns:inkscape="http://www.inkscape.org/namespaces/inkscape" width="70.21185000000014" height="113.53600000000012" version="1.0" id="svg2" inkscape:version="0.91 r13725" sodipodi:docname="USA counties.svg">
  <defs id="defs9439"/>
  <sodipodi:namedview pagecolor="#ffffff" bordercolor="#666666" borderopacity="1" objecttolerance="10" gridtolerance="10" guidetolerance="10" inkscape:pageopacity="0" inkscape:pageshadow="2" inkscape:window-width="798" inkscape:window-height="828" id="namedview9437" showgrid="false" showguides="true" inkscape:zoom="0.64950808" inkscape:cx="494.98999" inkscape:cy="313.535" inkscape:window-x="-7" inkscape:window-y="0" inkscape:window-maximized="0" inkscape:current-layer="svg2"/>
  <metadata id="metadata4">
    <rdf:RDF>
      <cc:Work>
        <dc:format>image/svg+xml</dc:format>
        <dc:type rdf:resource="http://purl.org/dc/dcmitype/StillImage"/>
        <dc:title/>
        <cc:license rdf:resource="http://creativecommons.org/publicdomain/zero/1.0/"/>
        <dc:date>2019-10-06</dc:date>
        <dc:creator>
          <cc:Agent>
            <dc:title>U.S. Census Bureau, Abe.suleiman, Lokal_Profil</dc:title>
          </cc:Agent>
        </dc:creator>
        <dc:source>https://commons.wikimedia.org/wiki/File:Usa_counties_large.svg</dc:source>
      </cc:Work>
      <cc:License rdf:about="http://creativecommons.org/publicdomain/zero/1.0/">
        <cc:permits rdf:resource="http://creativecommons.org/ns#Reproduction"/>
        <cc:permits rdf:resource="http://creativecommons.org/ns#Distribution"/>
        <cc:permits rdf:resource="http://creativecommons.org/ns#DerivativeWorks"/>
      </cc:License>
    </rdf:RDF>
  </metadata>
  <style id="style6">
  /*
   * Below are Cascading Style Sheet (CSS) definitions in use in this file,
   * which allow easily changing how counties are displayed.
   *
   *
   * For the U.S. Census county codes (FIPS codes) used in this file to identify individual counties, see this link:
   * https://www2.census.gov/geo/docs/reference/codes/files/national_county.txt
   *
   * The county codes used in this file combine the 2-digit state code, which is in the second column of the file
   * linked above, and the 3-digit county code, which is in the third column of the file linked above. Each value
   * for the "id" attribute for each county is in the following form: "c[state_code][county-code]". For example,
   * for Loving Country in Texas, the state code is "48" and the county code is "301", so the id name for the
   * county is "c48301".
   *
   * County codes used in this file can also be found on Wikimedia Commons at this link:
   * https://commons.wikimedia.org/wiki/File_talk:Usa_counties_large.svg/county_codes
   *
   * Examples:
   *
   * To color two counties red (in this case Loving County and Dallas County in Texas) simply
   * go to the CSS insertion point and add:
   *
   * #c48301, #c48113 {fill:red}
   *
   * To color an entire state's counties (in the case New Mexico, with "35" being the state code) a green,
   * go to the CSS insertion point and add:
   *
   * path[id*='c35'] {fill:#34A853}
   *
   */
  #counties {fill:#d0d0d0;stroke:#000;stroke-width:.17829;} 
  #borders {fill:none;stroke:#221e1f;stroke-width:.89143;} 
  #separator {fill:none;stroke:#a9a9a9;stroke-width:2.3177309;}
 </style>
  <g id="counties" transform="translate(-669.1078600000001,-371.5069999999999)" style="fill:#d0d0d0;stroke:#ffffff;stroke-width:0.17828999">
    <path id="c01069" d="m 730.4,455.3 6.4433,-0.587 -0.20859,0.61 -0.1355,0.595 0.27278,1.632 0.19968,0.465 0.16937,0.1 0.16938,0 0.14619,0.04 0.92888,1.022 0.14619,0.262 0.21216,0.458 0.57587,1.665 -9.4974,1.156 -0.15333,-1.822 -0.31556,-2.814 -1.9362,0.33 -2.4425,0.257 0.69353,-1.744 0.11054,-0.1 0.4582,-0.152 0.32983,-0.02 0.312,0.02 0.6668,0.159 0.50811,0.137 0.88431,0.08 0.29774,-0.03 -0.10533,-0.92153 1.3498,-0.14547 -0.0802,-0.658" inkscape:connector-curvature="0" style="stroke:#ffffff">
      <title id="title103">Houston, AL</title>
    </path>
    <path id="c01067" d="m 729.63,448.33 -0.21751,-2.002 3.8884,-0.337 0.10341,-0.176 0.29774,-0.892 0.51525,-0.651 0.0981,-0.06 0.11053,0 0.32983,0.104 0.18542,0.162 2.1377,5.329 -0.24247,4.901 -6.4433,0.587 -0.76307,-6.968" inkscape:connector-curvature="0" style="stroke:#ffffff">
      <title id="title106">Henry, AL</title>
    </path>
    <path id="c01061" d="m 723.4,458.81 1.5743,-0.144 2.4425,-0.257 1.9362,-0.33 0.31556,2.813 0.15333,1.823 -0.19611,0.03 -10.499,1.215 -2.9827,0.296 -0.58478,-4.525 7.8411,-0.924" inkscape:connector-curvature="0" style="stroke:#ffffff">
      <title id="title109">Geneva, AL</title>
    </path>
    <path id="c01045" d="m 723.2,449.07 6.4379,-0.74 0.76307,6.968 0.0802,0.658 -1.3498,0.14547 0.10533,0.92153 -0.29774,0.03 -0.88431,-0.08 -0.50811,-0.137 -0.6668,-0.159 -0.312,-0.02 -0.32983,0.02 -0.4582,0.152 -0.11054,0.1 -0.69353,1.744 -1.5743,0.144 -0.99484,-9.651 0.79338,-0.09" inkscape:connector-curvature="0" style="stroke:#ffffff">
      <title id="title112">Dale, AL</title>
    </path>
    <path id="c01031" d="m 722.4,449.16 0.99484,9.651 -7.8411,0.924 -0.60261,-5.672 -0.22642,-2.059 0.73989,-0.08 0.23177,-0.193 -0.23177,-1.833 6.9354,-0.74" inkscape:connector-curvature="0" style="stroke:#ffffff">
      <title id="title115">Coffee, AL</title>
    </path>
    <path id="c01039" d="m 708.81,452.72 1.9291,-0.243 0.20274,1.6791 1.7548,-1.9101 0.36193,-0.03 0.082,0.335 0.15333,1.325 0.32983,0.3 1.3264,-0.113 0.60261,5.672 0.58478,4.525 -3.9455,0.401 -5.8995,0.565 -0.65075,-4.493 -0.76842,-7.586 3.9366,-0.426" inkscape:connector-curvature="0" style="stroke:#ffffff">
      <title id="title118">Covington, AL</title>
    </path>
    <path id="c01097" d="m 680.81,463.69 0.16046,0.321 0.42788,1.817 0.58657,3.121 -0.83795,1.548 -0.55447,2.168 -0.0374,0.49 0.33518,0.811 0.42789,0.822 -0.28348,-0.1 -0.0731,0.05 -0.9057,0.963 -0.54734,3.368 -1.7276,3.334 -1.1482,-0.367 -1.6082,-0.03 -0.44036,0.07 -0.2086,0.07 -0.37084,0.392 -1.0198,-8.363 -0.73811,-5.996 -0.34053,-2.655 2.0004,-0.158 1.9701,-0.617 3.9936,-0.564 0.93958,-0.506" inkscape:connector-curvature="0" style="stroke:#ffffff">
      <title id="title121">Mobile, AL</title>
    </path>
    <path id="c01003" d="m 684.61,460.25 3.0237,0.957 0.83439,5.632 -0.44394,3.078 0.25852,0.438 2.0004,2.181 0.62935,0.433 0.11054,0.04 0.32983,0.06 0.66679,0.344 0.88431,0.547 0.24068,0.394 0.0713,0.273 0.0321,0.378 -0.19968,5.023 -0.26565,2.513 -1.2694,0.573 -2.6761,0.946 -2.8044,0.708 -0.74703,0.12 -2.4586,0.155 -0.0963,-0.129 1.0198,-0.37 2.6672,-1.705 -3.5354,-7.176 -0.25674,-0.36 -0.11945,-0.1 -0.9164,-0.33 -0.27277,-0.09 -0.42789,-0.822 -0.33518,-0.811 0.0374,-0.49 0.55447,-2.168 0.83795,-1.548 -0.58657,-3.121 -0.42788,-1.817 -0.16046,-0.321 0.45998,-0.74 3.3411,-2.699" inkscape:connector-curvature="0" style="stroke:#ffffff">
      <title id="title124">Baldwin, AL</title>
    </path>
    <path id="c01053" d="m 705.65,460.73 0.65075,4.493 -1.8863,0.142 -7.3936,0.66 -8.5489,0.811 -0.83439,-5.632 1.1464,0.296 0.19433,-0.08 1.0911,-0.77 1.2213,-0.141 12.961,-1.234 -0.0321,0.152 -0.0214,1.004 0.0214,0.208 0.066,0.09 0.15868,0.136 0.89143,0.02 0.31379,-0.161" inkscape:connector-curvature="0" style="stroke:#ffffff">
      <title id="title127">Escambia, AL</title>
    </path>
    <path id="c01035" d="m 704.88,453.15 0.76842,7.586 -0.31379,0.16 -0.89143,-0.02 -0.15868,-0.135 -0.066,-0.09 -0.0214,-0.208 0.0214,-1.004 0.0321,-0.152 -12.961,1.234 0.009,-0.132 0.13015,-0.314 2.1198,-3.007 1.1892,-1.334 1.3906,-4.074 0.0571,-0.417 2.0004,-1.808 1.6456,-0.907 0.44394,-0.218 0.11945,-0.02 0.25139,2.749 1.0358,1.951 0.51347,0.387 2.685,-0.225" inkscape:connector-curvature="0" style="stroke:#ffffff">
      <title id="title130">Conecuh, AL</title>
    </path>
    <path id="c01129" d="m 670.21,452.2 7.3133,-0.627 0.0232,0.973 0.34765,1.261 1.0038,0.861 0.26565,0.16 0.8112,0.282 0.72385,0.182 0.76307,0.701 0.55269,2.234 0.025,0.144 -0.0553,0.749 -0.1872,0.706 -0.39223,0.41 -0.34588,0.465 -0.27278,0.925 0.48316,1.325 -0.45998,0.74 -0.93958,0.506 -3.9936,0.564 -1.9701,0.617 -2.0004,0.158 -1.6955,-13.336" inkscape:connector-curvature="0" style="stroke:#ffffff">
      <title id="title133">Washington, AL</title>
    </path>
    <path id="c01023" d="m 669.92,438.11 9.476,-0.829 -0.90034,0.128 -0.50099,0.314 -0.26387,0.289 -1.4691,5.48 0.0891,0.845 0.0963,0.232 0.14263,0.159 0.16046,0.09 0.4992,0.06 0.27278,6.7 -7.3133,0.627 -0.46533,-4.507 0.13015,-7.707 0.0464,-1.879" inkscape:connector-curvature="0" style="stroke:#ffffff">
      <title id="title136">Choctaw, AL</title>
    </path>
    <path id="c01025" d="m 685.11,444.17 3.5675,3.432 -0.30487,0.369 0.30281,2.6192 -1.0035,0.15178 0.28883,3.081 0.25138,2.248 -0.14441,0.699 -0.41184,0.547 -0.23356,0.137 -0.25673,-0.04 -0.41006,-0.315 -0.23891,0.02 -0.21751,0.08 -1.7971,1.526 -0.3334,0.834 0,0.105 0.0499,0.241 0.0713,0.135 0.32092,0.211 -3.3411,2.699 -0.48316,-1.325 0.27278,-0.925 0.34588,-0.465 0.39223,-0.41 0.1872,-0.706 0.0553,-0.749 -0.025,-0.144 -0.55269,-2.234 -0.76307,-0.701 -0.72385,-0.182 -0.8112,-0.282 -0.26565,-0.16 -1.0038,-0.861 -0.34765,-1.261 -0.0232,-0.973 -0.27278,-6.7 7.8589,-0.701" inkscape:connector-curvature="0" style="stroke:#ffffff">
      <title id="title139">Clarke, AL</title>
    </path>
    <path id="c01099" d="m 700.2,446.5 0.19255,1.783 -0.11945,0.02 -0.44394,0.218 -1.6456,0.907 -2.0004,1.808 -0.0571,0.417 -1.3906,4.074 -1.1892,1.334 -2.1198,3.007 -0.13015,0.314 -0.009,0.132 -1.2213,0.141 -1.0911,0.77 -0.19433,0.08 -1.1464,-0.296 -3.0237,-0.957 -0.32092,-0.21 -0.0713,-0.136 -0.0499,-0.241 0,-0.105 0.3334,-0.834 1.7971,-1.526 0.21751,-0.08 0.23891,-0.02 0.41006,0.315 0.25673,0.04 0.23356,-0.137 0.41184,-0.547 0.14441,-0.699 -0.25138,-2.248 -0.28883,-3.081 1.0035,-0.15178 -0.30281,-2.6192 0.30487,-0.369 5.2006,-0.529 2.8276,-0.209 3.4944,-0.362" inkscape:connector-curvature="0" style="stroke:#ffffff">
      <title id="title142">Monroe, AL</title>
    </path>
    <path id="c01131" d="m 688.34,437.55 0.5206,-0.139 0.12123,0.07 2.4015,1.68 3.0951,2.852 5.247,-0.506 0.92303,-0.11706 0.218,1.9981 -0.99696,0.14541 0.33017,2.9656 -3.4944,0.362 -2.8276,0.209 -5.2006,0.529 -3.5675,-3.432 0.80407,-0.403 -0.24247,-2.906 1.9272,-0.2218 -0.23168,-2.7662 0.16224,-0.276 0.17473,-0.06 0.33696,-0.02 0.29952,0.04" inkscape:connector-curvature="0" style="stroke:#ffffff">
      <title id="title145">Wilcox, AL</title>
    </path>
    <path id="c01013" d="m 700.87,443.39 7.9249,-0.836 0.61866,5.659 0.0874,1.421 -0.98771,0.103 0.30487,2.983 -3.9366,0.426 -2.685,0.225 -0.51347,-0.387 -1.0358,-1.951 -0.25139,-2.749 -0.19255,-1.783 -0.33017,-2.9656 0.99696,-0.14541" inkscape:connector-curvature="0" style="stroke:#ffffff">
      <title id="title148">Butler, AL</title>
    </path>
    <path id="c01041" d="m 713.76,442 0.37075,3.2224 0.91292,-0.13489 0.37374,3.798 -0.59632,1.0819 0.65047,-0.0674 0.23177,1.833 -0.23177,0.193 -0.73989,0.08 0.22642,2.059 -1.3264,0.113 -0.32983,-0.3 -0.15333,-1.325 -0.082,-0.335 -0.36193,0.03 -1.7548,1.9101 -0.20274,-1.6791 -1.9291,0.243 -0.30487,-2.983 0.98771,-0.103 -0.0874,-1.421 -0.61866,-5.659 0.60974,-2.058 1.9843,-0.224 0.23534,1.986 2.1359,-0.259" inkscape:connector-curvature="0" style="stroke:#ffffff">
      <title id="title151">Crenshaw, AL</title>
    </path>
    <path id="c01109" d="m 717.31,439.67 0.79516,-0.332 0.84508,0.07 0.36014,0.129 0.93244,1.76 1.2022,-0.18217 0.25979,2.0392 2.5887,-0.283 -1.1018,6.197 -0.79338,0.09 -6.9354,0.74 -0.65047,0.0674 0.59632,-1.0819 -0.37374,-3.798 -0.91292,0.13489 -0.37075,-3.2224 3.7987,-0.52452 -0.2401,-1.8035" inkscape:connector-curvature="0" style="stroke:#ffffff">
      <title id="title154">Pike, AL</title>
    </path>
    <path id="c01011" d="m 727.73,434.28 0.6757,1.972 -0.312,0.2 0.16759,2.009 0.12837,0.843 -1.5832,0.53 -1.5244,0.572 -0.8843,1.735 -0.1141,0.556 0.016,0.182 -2.5887,0.283 -0.25979,-2.0392 -1.2022,0.18217 -0.93244,-1.76 -0.36014,-0.129 -0.84508,-0.07 -0.79516,0.332 -0.66652,-5.0638 1.6221,-0.21722 1.1838,0.779 0.15867,0.06 8.1156,-0.95" inkscape:connector-curvature="0" style="stroke:#ffffff">
      <title id="title157">Bullock, AL</title>
    </path>
    <path id="c01087" d="m 721.77,426.56 0.041,0.323 4.1701,1.51 0.97345,-0.112 0.31378,1.993 0.45642,4.008 -8.1156,0.95 -0.15867,-0.06 -1.1838,-0.779 -2.3552,-3.125 2.4604,-1.953 1.7044,-0.21 -0.17158,-2.2839 1.8653,-0.26408" inkscape:connector-curvature="0" style="stroke:#ffffff">
      <title id="title160">Macon, AL</title>
    </path>
    <path id="c01085" d="m 700.85,434.63 0.52594,-1.197 0.0606,-0.107 0.85043,-0.151 2.307,-0.273 2.3783,1.038 2.4283,6.562 -0.60974,2.058 -7.9249,0.836 -0.218,-1.9981 -0.92303,0.11706 1.125,-6.885" inkscape:connector-curvature="0" style="stroke:#ffffff">
      <title id="title163">Lowndes, AL</title>
    </path>
    <path id="c01101" d="m 708.48,432.27 2.6493,-2.404 0.21751,0.03 0.28348,0.1 0.15154,0.102 0.9164,0.989 -0.0892,0.154 1.5261,0.289 1.3354,0.112 0.4475,-0.369 2.3552,3.125 -1.6221,0.21722 0.66652,5.0638 0.2401,1.8035 -3.7987,0.52452 -2.1359,0.259 -0.23534,-1.986 -1.9843,0.225 -2.4283,-6.563 1.5048,-1.665" inkscape:connector-curvature="0" style="stroke:#ffffff">
      <title id="title166">Montgomery, AL</title>
    </path>
    <path id="c01051" d="m 715.41,423.55 2.3712,-0.24 0.0553,0.02 0.041,0.306 -0.17829,0.674 0.54913,4.75 0.0624,0.184 0.0642,0.07 -2.4604,1.952 -0.4475,0.369 -1.3354,-0.112 -1.5261,-0.289 0.0892,-0.154 -0.9164,-0.989 -0.15154,-0.102 -0.28348,-0.1 -0.21751,-0.03 -2.6493,2.403 -0.73276,-6.821 0.57943,-1.15 7.0869,-0.747" inkscape:connector-curvature="0" style="stroke:#ffffff">
      <title id="title169">Elmore, AL</title>
    </path>
    <path id="c01001" d="m 707.74,425.45 0.73276,6.822 -1.5048,1.665 -2.3783,-1.038 -2.307,0.273 -0.85043,0.151 -0.0606,0.107 -0.52594,1.197 -2.6743,-7.232 1.9344,-0.1 1.9772,-0.224 -0.10876,-1.011 5.7658,-0.612" inkscape:connector-curvature="0" style="stroke:#ffffff">
      <title id="title172">Autauga, AL</title>
    </path>
    <path id="c01047" d="m 696.09,426.08 0.15862,1.4405 1.9238,-0.12851 2.6743,7.232 -1.125,6.885 -5.247,0.506 -3.0951,-2.852 -2.4015,-1.68 -0.12123,-0.07 -0.5206,0.139 -0.10341,-0.982 0.98593,-0.09 -0.39223,-4.012 3.334,-0.335 2.6262,-0.348 0.15511,-0.328 0.52238,-1.815 0.29596,-1.394 0.32983,-2.161" inkscape:connector-curvature="0" style="stroke:#ffffff">
      <title id="title175">Dallas, AL</title>
    </path>
    <path id="c01091" d="m 681.25,432.17 1.5903,-0.137 0.10341,1.005 3.9384,-0.378 0.37852,3.9938 0.97289,-0.0818 0.10341,0.982 -0.29952,-0.04 -0.33696,0.02 -0.17473,0.06 -0.16224,0.276 0.23168,2.7662 -1.9272,0.2218 0.24247,2.906 -0.80407,0.403 -7.8589,0.701 -0.4992,-0.06 -0.16046,-0.09 -0.14263,-0.159 -0.0963,-0.232 -0.0891,-0.845 1.4691,-5.48 0.26387,-0.289 0.50099,-0.314 0.90034,-0.128 -0.84686,-0.708 -1.4762,-0.563 -0.041,-0.136 0.0339,-0.923 0.10341,-0.289 2.1448,-2.179 0.16046,-0.112 0.97166,-0.305 0.80586,0.105" inkscape:connector-curvature="0" style="stroke:#ffffff">
      <title id="title178">Marengo, AL</title>
    </path>
    <path id="c01119" d="m 670.22,422.29 3.2199,-0.376 -0.2086,1.959 0.3851,1.68 2.316,4.862 0.4582,0.563 0.0624,0.02 0.8219,-0.241 0.64005,-0.297 0.14619,-0.145 0.37084,-0.258 0.32805,-0.161 0.16937,0 0.19968,0.121 1.3175,2.042 -0.97166,0.305 -0.16046,0.112 -2.1448,2.179 -0.10341,0.288 -0.0339,0.924 0.041,0.135 1.4762,0.564 0.84686,0.708 -9.476,0.829 0.13728,-6.246 0.1355,-8.131 0.0267,-1.439" inkscape:connector-curvature="0" style="stroke:#ffffff">
      <title id="title181">Sumter, AL</title>
    </path>
    <path id="c01105" d="m 688.05,423.46 1.9505,-0.194 0.0963,1.005 1.3282,-0.128 4.4108,-0.537 0.25673,2.471 -0.32983,2.161 -0.29596,1.394 -0.52238,1.815 -0.15511,0.328 -2.6262,0.348 -3.334,0.335 0.39223,4.012 -0.98593,0.09 -0.97291,0.0857 -0.3785,-3.9977 -0.37619,-3.984 0.96992,-0.12311 -0.20685,-2.8689 0.97794,-0.12737 -0.19883,-2.0886" inkscape:connector-curvature="0" style="stroke:#ffffff">
      <title id="title184">Perry, AL</title>
    </path>
    <path id="c01021" d="m 705.03,418.46 1.1089,3.6565 2.1876,2.1855 -0.57943,1.15 -5.7658,0.612 0.10876,1.011 -1.9772,0.224 -1.9344,0.1 -1.9238,0.12851 -0.15862,-1.4405 -0.25673,-2.471 2.7403,-0.242 -0.32983,-3.391 -0.24247,-1.51 -0.0553,-0.509 3.0844,-0.235 2.1074,-0.11 0.32804,0.442 0.61866,0.385 0.93957,0.02" inkscape:connector-curvature="0" style="stroke:#ffffff">
      <title id="title187">Chilton, AL</title>
    </path>
    <path id="c01037" d="m 711.38,416.1 3.1398,-0.3628 0.89488,7.817 -7.0869,0.747 -2.1876,-2.1855 -1.1089,-3.6565 0.30487,-1.945 6.0439,-0.41421" inkscape:connector-curvature="0" style="stroke:#ffffff">
      <title id="title190">Coosa, AL</title>
    </path>
    <path id="c01123" d="m 721.3,414.75 1.1517,-0.137 0.95562,8.687 -1.9594,0.25458 0.32629,2.9974 -1.8653,0.26408 0.17158,2.2839 -1.7044,0.211 -0.0642,-0.07 -0.0624,-0.184 -0.54913,-4.75 0.17829,-0.674 -0.041,-0.306 -0.0553,-0.02 -2.3712,0.24 -0.89488,-7.817 6.7837,-0.98099" inkscape:connector-curvature="0" style="stroke:#ffffff">
      <title id="title193">Tallapoosa, AL</title>
    </path>
    <path id="c01027" d="m 716.56,406.16 -0.62757,0.579 0.0143,0.168 1.995,-0.209 0.29061,-0.363 -0.0339,-0.344 2.3213,-0.195 0.77912,8.954 -6.7837,0.98099 -3.1398,0.3707 -0.18377,-2.3397 1.6746,-0.20833 -0.10734,-2.2677 2.067,-0.20406 -0.0826,-2.0069 0.74875,-0.32771 0.0553,-2.4773 1.0127,-0.11" inkscape:connector-curvature="0" style="stroke:#ffffff">
      <title id="title196">Clay, AL</title>
    </path>
    <path id="c01121" d="m 710.55,402.61 1.8096,-0.09 0.54378,0.601 0.17829,0.861 0.54734,0.451 3.8011,-0.378 0.0463,0.674 -0.91461,1.432 -1.0127,0.11 -0.0553,2.4773 -0.74875,0.32771 0.0826,2.0069 -2.067,0.20406 0.10737,2.2686 -1.6746,0.20925 0.18371,2.3378 -6.0439,0.40631 -0.0802,-1.469 2.1787,-3.206 0.17829,-1.391 -0.26743,-0.385 -0.52951,-0.379 2.0342,-2.498 0.79338,-1.712 -0.0874,-0.112 -0.19255,-0.426 -0.009,-0.12 0.88431,-2.027 0.31378,-0.176" inkscape:connector-curvature="0" style="stroke:#ffffff">
      <title id="title199">Talladega, AL</title>
    </path>
    <path id="c01117" d="m 703.83,406.39 2.981,3.293 0.52951,0.379 0.26743,0.385 -0.17829,1.391 -2.1787,3.206 0.0802,1.469 -0.30487,1.945 -0.93957,-0.02 -0.61866,-0.385 -0.32804,-0.442 -2.1074,0.11 -3.0844,0.235 0.0553,0.509 -1.6755,-0.6542 -0.59683,-1.929 -0.85043,-0.18068 -0.0828,-1.4891 0.90035,-0.315 0.55447,-0.303 0.39401,-0.291 0.71672,-1.253 3.6531,-3.543 1.3282,-0.146 1.5261,-1.476 -0.041,-0.499" inkscape:connector-curvature="0" style="stroke:#ffffff">
      <title id="title202">Shelby, AL</title>
    </path>
    <path id="c01007" d="m 694.05,414.28 0.74702,-0.07 0.0828,1.4891 0.85043,0.18068 0.59683,1.929 1.6755,0.6542 0.24247,1.51 0.32983,3.391 -2.7403,0.242 -4.4108,0.537 -1.3282,0.128 -0.0963,-1.005 -1.9505,0.194 -0.28347,-2.965 1.9772,-0.242 -0.0553,-2.033 0.48138,-0.948 1.5084,-0.16609 -0.0607,-1.4409 0.81833,-0.909 0.16046,-0.1 1.2534,-0.369 0.20147,-0.02" inkscape:connector-curvature="0" style="stroke:#ffffff">
      <title id="title205">Bibb, AL</title>
    </path>
    <path id="c01065" d="m 682.14,420.92 5.6232,-0.424 0.28347,2.965 0.19883,2.0886 -0.97794,0.12737 0.20685,2.8689 -0.96992,0.12311 0.37619,3.984 -3.9384,0.378 -0.10341,-1.005 -1.5903,0.137 1.0216,-2.154 -0.95027,-1.134 -0.75416,-2.242 -0.34944,-1.751 -0.0303,-0.49 1.954,-3.472" inkscape:connector-curvature="0" style="stroke:#ffffff">
      <title id="title208">Hale, AL</title>
    </path>
    <path id="c01063" d="m 679.52,417.75 0.28074,3.3516 2.3401,-0.17864 -1.954,3.472 0.0303,0.49 0.34944,1.751 0.75416,2.242 0.95027,1.134 -1.0216,2.154 -0.80586,-0.105 -1.3175,-2.041 -0.19968,-0.122 -0.16937,0 -0.32805,0.161 -0.37084,0.258 -0.14619,0.145 -0.64005,0.297 -0.8219,0.241 -0.0624,-0.02 -0.4582,-0.563 -2.316,-4.862 -0.3851,-1.68 0.2086,-1.959 -0.0232,-0.103 1.6563,-1.118 1.453,-0.811 0.64362,-0.227 2.3534,-1.904" inkscape:connector-curvature="0" style="stroke:#ffffff">
      <title id="title211">Greene, AL</title>
    </path>
    <path id="c01107" d="m 678.73,409.22 0.79516,8.535 -2.3534,1.904 -0.64362,0.226 -1.453,0.812 -1.6563,1.117 0.0232,0.104 -3.2199,0.376 0.1355,-6.896 0.10519,-5.704 6.2579,-0.288 2.0093,-0.186" inkscape:connector-curvature="0" style="stroke:#ffffff">
      <title id="title214">Pickens, AL</title>
    </path>
    <path id="c01125" d="m 686.49,406.73 0.34231,-0.02 1.6812,0.177 0.16046,1.679 0.98058,-0.06 -0.66679,0.589 0.33696,1.116 1.2872,1.405 0.76842,0.666 1.7615,1.054 0.90749,0.933 -0.20147,0.02 -1.2534,0.369 -0.16046,0.1 -0.81833,0.909 0.0607,1.4409 -1.5084,0.16609 -0.48138,0.948 0.0553,2.033 -1.9772,0.242 -5.6232,0.424 -2.3401,0.17864 -0.28074,-3.3516 -0.79516,-8.535 1.9059,-0.06 1.4049,-0.16 -0.0981,-1.181 0.64988,-0.047 -0.0615,-0.86002 3.9633,-0.177" inkscape:connector-curvature="0" style="stroke:#ffffff">
      <title id="title217">Tuscaloosa, AL</title>
    </path>
    <path id="c01073" d="m 694.94,401 1.2516,-0.772 2.3712,-0.167 2.1608,1.26 1.4388,0.139 0.66679,-0.06 0.43502,0.972 0.14442,1.501 -0.12124,0.513 -0.16046,0.02 -0.12836,0.344 0.11945,1.336 0.18542,0.167 0.52238,0.138 0.041,0.499 -1.5261,1.476 -1.3282,0.146 -3.6531,3.543 -0.71672,1.253 -0.39401,0.291 -0.55447,0.303 -0.90035,0.315 -0.74702,0.07 -0.90749,-0.933 -1.7615,-1.054 -0.76842,-0.666 -1.2872,-1.405 -0.33696,-1.116 0.66679,-0.589 0.42611,-0.24 0.54555,-0.402 2.0895,-2.305 0.40293,-0.709 0.34409,-0.697 1.2141,-2.468 0.26564,-0.692" inkscape:connector-curvature="0" style="stroke:#ffffff">
      <title id="title220">Jefferson, AL</title>
    </path>
    <path id="c01127" d="m 690.83,397.26 0.65899,2.2488 3.1742,0.52415 0.28169,0.971 -0.26564,0.692 -1.2141,2.468 -0.34409,0.697 -0.40293,0.709 -2.0895,2.306 -0.54555,0.401 -0.42611,0.24 -0.98058,0.06 -0.16046,-1.679 -1.6812,-0.177 -0.34231,0.02 -0.18542,-2.002 -1.9861,0.113 -0.42254,-4.031 -1.9879,0.07 -0.082,-0.997 -0.18364,-2.002 9.1854,-0.626" inkscape:connector-curvature="0" style="stroke:#ffffff">
      <title id="title223">Walker, AL</title>
    </path>
    <path id="c01075" d="m 670.75,397.52 4.1719,-0.209 0.057,0.69861 0.66681,-0.0636 0.32092,3.753 0.57052,5.584 0.18363,2.122 -6.2579,0.288 0.10162,-4.894 0.18542,-7.279" inkscape:connector-curvature="0" style="stroke:#ffffff">
      <title id="title226">Lamar, AL</title>
    </path>
    <path id="c01057" d="m 675.84,400.3 5.9851,-0.41 0.082,0.997 1.9879,-0.07 0.42254,4.031 1.9861,-0.113 0.18542,2.002 -3.9633,0.177 0.0615,0.86002 -0.64988,0.047 0.0981,1.181 -1.4049,0.16 -1.9059,0.06 -2.0093,0.186 -0.18363,-2.122 -0.57052,-5.584 -0.12124,-1.398" inkscape:connector-curvature="0" style="stroke:#ffffff">
      <title id="title229">Fayette, AL</title>
    </path>
    <path id="c01059" d="m 671.02,385.35 11.475,-0.651 0.53842,6.049 -1.9861,0.119 -1.5885,0.07 -4.163,0.291 -4.4126,0.18 0.0731,-3.298 0.0642,-2.756" inkscape:connector-curvature="0" style="stroke:#ffffff">
      <title id="title232">Franklin, AL</title>
    </path>
    <path id="c01093" d="m 670.88,391.41 4.4126,-0.18 4.163,-0.291 1.5885,-0.07 0.59548,7.016 0.18364,2.002 -5.9851,0.41 -0.19968,-2.355 -0.66681,0.0636 -0.057,-0.69861 -4.1719,0.209 0.0178,-0.658 0.11945,-5.452" inkscape:connector-curvature="0" style="stroke:#ffffff">
      <title id="title235">Marion, AL</title>
    </path>
    <path id="c01133" d="m 683.04,390.75 7.907,-0.603 -0.11232,7.112 -9.1854,0.626 -0.59548,-7.016 1.9861,-0.119" inkscape:connector-curvature="0" style="stroke:#ffffff">
      <title id="title238">Winston, AL</title>
    </path>
    <path id="c01043" d="m 690.91,389.81 9.9466,-0.747 2.5317,0.803 -0.5937,0.04 -0.55804,0.187 -0.0784,0.06 -1.0608,2.659 -0.10341,0.178 -2.5245,3.231 -1.7026,1.501 -1.3996,1.385 -0.70602,0.931 -3.1742,-0.52415 -0.65899,-2.2488 0.11232,-7.112 -0.0303,-0.337" inkscape:connector-curvature="0" style="stroke:#ffffff">
      <title id="title241">Cullman, AL</title>
    </path>
    <path id="c01009" d="m 703.39,389.87 3.1806,3.4 -0.29774,0.65 -0.58478,3.135 0.84329,-0.09 -0.67749,1.77 -0.4885,0.633 -0.5313,0.572 -0.15154,0 -0.16937,-0.1 -2.4265,0.779 0.0802,0.845 -1.4388,-0.139 -2.1608,-1.26 -2.3712,0.167 -1.2516,0.772 -0.28169,-0.971 0.70602,-0.931 1.3996,-1.385 1.7026,-1.501 2.5245,-3.231 0.10341,-0.178 1.0608,-2.659 0.0784,-0.06 0.55804,-0.187 0.5937,-0.04" inkscape:connector-curvature="0" style="stroke:#ffffff">
      <title id="title244">Blount, AL</title>
    </path>
    <path id="c01115" d="m 706.53,396.96 -0.016,-0.08 0.11945,-0.249 0.42611,-0.699 0.25851,-0.193 1.4869,-0.144 0.18363,0.103 0.14263,0.25 0.41898,0.973 0.4992,0.475 0.24069,0.151 0.39401,-0.159 0.99484,1.316 0.23534,0.216 0.0642,0.146 0.025,1.471 -1.4495,1.309 -0.0713,0.235 0.0642,0.528 -0.31378,0.176 -0.88431,2.027 0.009,0.12 0.19255,0.426 0.0874,0.112 -0.79338,1.712 -2.0342,2.498 -2.981,-3.293 -0.52238,-0.138 -0.18542,-0.167 -0.11945,-1.336 0.12836,-0.344 0.16046,-0.02 0.12124,-0.513 -0.14442,-1.501 -0.43502,-0.972 -0.66679,0.06 -0.0802,-0.845 2.4265,-0.779 0.16937,0.1 0.15154,0 0.5313,-0.572 0.4885,-0.633 0.67749,-1.77" inkscape:connector-curvature="0" style="stroke:#ffffff">
      <title id="title247">St. Clair, AL</title>
    </path>
    <path id="c01015" d="m 717.53,395.15 4.0008,0.185 -0.003,1.6982 -1.844,0.0298 0.24069,2.362 0.30487,2.871 -0.27278,0.522 -1.5012,1.815 -0.98236,0.103 -0.0463,-0.674 -3.8011,0.378 -0.54734,-0.451 -0.17829,-0.861 -0.54378,-0.601 -1.8096,0.09 -0.0642,-0.528 0.0713,-0.235 1.4495,-1.309 -0.025,-1.471 -0.0642,-0.146 -0.23534,-0.216 0.30666,-0.03 0.49742,-0.28 0.46711,-0.363 1.0448,-1.077 0.56161,-0.906 0.32091,-0.201 1.1339,-0.113 1.5582,0.168 -0.0392,-0.763" inkscape:connector-curvature="0" style="stroke:#ffffff">
      <title id="title250">Calhoun, AL</title>
    </path>
    <path id="c01055" d="m 710.05,390.54 4.9332,-0.508 0.26565,2.049 0.83616,0.07 1.4299,2.513 0.016,0.482 0.0392,0.763 -1.5582,-0.168 -1.1339,0.113 -0.32091,0.201 -0.56161,0.906 -1.0448,1.077 -0.46711,0.363 -0.49742,0.28 -0.30666,0.03 -0.99484,-1.315 -0.39401,0.158 -0.24069,-0.151 -0.4992,-0.475 -0.41898,-0.973 -0.14263,-0.25 -0.18363,-0.103 -1.4869,0.144 -0.25851,0.193 -0.42611,0.699 -0.11945,0.249 0.016,0.08 -0.84329,0.09 0.58478,-3.134 0.29774,-0.651 3.4802,-2.723" inkscape:connector-curvature="0" style="stroke:#ffffff">
      <title id="title253">Etowah, AL</title>
    </path>
    <path id="c01095" d="m 704.96,381.79 3.3429,-0.33 0.23177,1.327 1.7615,1.324 -0.24069,6.431 -3.4802,2.723 -3.1806,-3.4 -2.5317,-0.803 0.0392,-5.61 0.41184,0.957 0.65075,0.401 0.62578,0.107 0.65075,-0.217 1.8631,-0.951 0.26565,-0.682 0.14619,-0.876 -0.10697,-0.297 -0.24782,-0.12 -0.20146,0.02" inkscape:connector-curvature="0" style="stroke:#ffffff">
      <title id="title256">Marshall, AL</title>
    </path>
    <path id="c01103" d="m 696.39,383.78 4.5071,-0.331 -0.0392,5.61 -9.9466,0.747 -0.71671,-8.575 6.1955,2.549" inkscape:connector-curvature="0" style="stroke:#ffffff">
      <title id="title259">Morgan, AL</title>
    </path>
    <path id="c01079" d="m 683.94,379.16 3.1896,0.665 3.063,1.407 0.71671,8.575 0.0303,0.337 -7.907,0.603 -0.53842,-6.049 1.3327,-2.0576 0.11318,-3.4804" inkscape:connector-curvature="0" style="stroke:#ffffff">
      <title id="title262">Lawrence, AL</title>
    </path>
    <path id="c01033" d="m 671.21,378.13 0.71494,-0.336 0.32269,-0.08 1.3086,0.439 0.41719,0.308 0.28348,0.383 0.12837,0.241 0.15154,0.515 0.22464,0.339 1.4869,1.166 0.15155,0.09 0.56339,0.169 0.85221,-0.153 0.49029,-0.275 0.0963,-0.103 0.32092,-0.555 2.1769,-1.292 0.73989,-0.314 0.40293,-0.09 0.14441,0.02 1.7508,0.57 -0.11318,3.4804 -1.3327,2.0576 -11.475,0.651 0.19255,-7.226" inkscape:connector-curvature="0" style="stroke:#ffffff">
      <title id="title265">Colbert, AL</title>
    </path>
    <path id="c01077" d="m 687.32,374.22 0.23177,-0.02 -0.41897,5.623 -3.1896,-0.665 -1.7508,-0.57 -0.14441,-0.02 -0.40293,0.09 -0.73989,0.314 -2.1769,1.292 -0.32092,0.555 -0.0963,0.103 -0.49029,0.275 -0.85221,0.153 -0.56339,-0.169 -0.15155,-0.09 -1.4869,-1.166 -0.22464,-0.339 -0.15154,-0.515 -0.12837,-0.241 -0.28348,-0.383 -0.41719,-0.308 -1.3086,-0.439 -0.32269,0.08 -0.71494,0.335 -2.1074,-2.225 3.9954,-0.577 7.0709,-0.548 7.1457,-0.552" inkscape:connector-curvature="0" style="stroke:#ffffff">
      <title id="title268">Lauderdale, AL</title>
    </path>
    <path id="c01083" d="m 694.54,373.72 0.97701,-0.09 0.87004,10.164 -6.1955,-2.549 -3.063,-1.407 0.41897,-5.623 6.9924,-0.49" inkscape:connector-curvature="0" style="stroke:#ffffff">
      <title id="title271">Limestone, AL</title>
    </path>
    <path id="c01089" d="m 704.33,372.76 0.39579,1.034 -0.49207,2.589 -0.17472,2.355 0.21751,2.364 0.68106,0.69 0.20146,-0.02 0.24782,0.12 0.10697,0.297 -0.14619,0.876 -0.26565,0.683 -1.8631,0.95 -0.65075,0.217 -0.62578,-0.107 -0.65075,-0.401 -0.41184,-0.957 -4.5071,0.331 -0.87004,-10.164 8.6665,-0.854 0.14085,0" inkscape:connector-curvature="0" style="stroke:#ffffff">
      <title id="title274">Madison, AL</title>
    </path>
    <path id="c01071" d="m 717.49,371.51 0.72384,2.811 -1.1713,2.58 -2.02,3.256 -3.2145,3.407 -0.52951,0.353 -0.42611,0.169 -0.5616,0.02 -1.7615,-1.324 -0.23177,-1.327 -3.3429,0.33 -0.68106,-0.69 -0.21751,-2.364 0.17472,-2.355 0.49207,-2.589 -0.39579,-1.034 8.3349,-0.811 4.828,-0.435" inkscape:connector-curvature="0" style="stroke:#ffffff">
      <title id="title277">Jackson, AL</title>
    </path>
    <path id="c01049" d="m 718.21,374.32 1.5119,5.344 0.22465,0.79 0.40827,1.454 -0.11232,-0.04 -0.0695,0.05 -0.89322,1.036 -0.11232,1.334 -0.58656,1.262 -2.4443,2.983 -0.65074,0.08 -0.45464,0.432 -0.13015,0.251 0.0784,0.738 -4.9332,0.508 0.24069,-6.431 0.5616,-0.02 0.42611,-0.169 0.52951,-0.353 3.2145,-3.407 2.02,-3.256 1.1713,-2.58" inkscape:connector-curvature="0" style="stroke:#ffffff">
      <title id="title280">DeKalb, AL</title>
    </path>
    <path id="c01019" d="m 720.36,381.91 1.5761,5.351 1.2854,4.644 0.73098,2.628 -2.4194,0.795 -4.0008,-0.185 -0.016,-0.482 -1.4299,-2.513 -0.83616,-0.07 -0.26565,-2.049 -0.0784,-0.738 0.13015,-0.251 0.45464,-0.432 0.65074,-0.08 2.4443,-2.983 0.58656,-1.262 0.11232,-1.334 0.89322,-1.036 0.0695,-0.05 0.11232,0.04" inkscape:connector-curvature="0" style="stroke:#ffffff">
      <title id="title283">Cherokee, AL</title>
    </path>
    <path id="c01029" d="m 723.95,394.54 0.39401,1.405 1.5582,5.611 1.0768,3.831 -6.4611,0.417 -2.3213,0.195 0.0339,0.344 -0.29061,0.363 -1.995,0.209 -0.0143,-0.168 0.62757,-0.579 0.91461,-1.432 0.98236,-0.103 1.5012,-1.815 0.27278,-0.522 -0.30487,-2.871 -0.24069,-2.362 1.844,-0.0298 0.003,-1.6982 2.4194,-0.795" inkscape:connector-curvature="0" style="stroke:#ffffff">
      <title id="title286">Cleburne, AL</title>
    </path>
    <path id="c01111" d="m 720.52,405.8 6.4611,-0.417 0.34588,1.239 1.8631,6.725 0.13728,0.482 -6.8765,0.788 -1.1517,0.137 -0.77912,-8.954" inkscape:connector-curvature="0" style="stroke:#ffffff">
      <title id="title289">Randolph, AL</title>
    </path>
    <path id="c01017" d="m 729.33,413.83 1.544,5.343 1.2284,2.735 -2.1287,0.28 -0.6668,0.408 -5.8977,0.709 -0.95562,-8.687 6.8765,-0.788" inkscape:connector-curvature="0" style="stroke:#ffffff">
      <title id="title292">Chambers, AL</title>
    </path>
    <path id="c01081" d="m 723.41,423.3 5.8977,-0.709 0.6668,-0.408 2.1287,-0.28 1.3889,3.059 1.8435,2.05 -1.1647,0.28176 0.27198,1.0001 -3.5608,0.62312 -1.7219,0.35408 0.10664,0.74592 -1.9915,0.249 -0.31378,-1.993 -0.97345,0.112 -4.1701,-1.51 -0.041,-0.323 -0.32629,-2.9974 1.9594,-0.25458" inkscape:connector-curvature="0" style="stroke:#ffffff">
      <title id="title295">Lee, AL</title>
    </path>
    <path id="c01113" d="m 735.87,430.19 -0.21573,0.82 0.041,0.194 0.12123,0.136 1.2765,0.344 0.47424,0.396 0.19255,0.383 -0.16046,0.724 -0.0464,0.07 -2.0895,4.127 -2.4942,0.323 -0.13372,-0.06 -0.79694,-0.838 -0.0731,-0.209 -0.61865,-0.722 -2.94,0.371 -0.6757,-1.972 -0.45642,-4.008 1.9915,-0.249 -0.10664,-0.74592 1.7219,-0.35408 3.5608,-0.62312 -0.27198,-1.0001 1.1647,-0.28176 0.53486,3.174" inkscape:connector-curvature="0" style="stroke:#ffffff">
      <title id="title298">Russell, AL</title>
    </path>
    <path id="c01005" d="m 735.46,437.38 0.0535,1.719 -0.90748,4.937 0.33874,0.449 -0.18542,-0.162 -0.32983,-0.104 -0.11053,0 -0.0981,0.06 -0.51525,0.651 -0.29774,0.892 -0.10341,0.176 -3.8884,0.337 0.21751,2.002 -6.4379,0.74 1.1018,-6.197 -0.016,-0.182 0.1141,-0.556 0.8843,-1.735 1.5244,-0.572 1.5832,-0.53 -0.12837,-0.843 -0.16759,-2.009 0.312,-0.2 2.94,-0.371 0.61865,0.722 0.0731,0.209 0.79694,0.838 0.13372,0.06 2.4942,-0.323" inkscape:connector-curvature="0" style="stroke:#ffffff">
      <title id="title301">Barbour, AL</title>
    </path>
    </g>
  </svg>
