<svg xmlns:dc="http://purl.org/dc/elements/1.1/" xmlns:cc="http://creativecommons.org/ns#" xmlns:rdf="http://www.w3.org/1999/02/22-rdf-syntax-ns#" xmlns:svg="http://www.w3.org/2000/svg" xmlns="http://www.w3.org/2000/svg" xmlns:sodipodi="http://sodipodi.sourceforge.net/DTD/sodipodi-0.dtd" xmlns:inkscape="http://www.inkscape.org/namespaces/inkscape" width="256.87578" height="167.7229999999998" version="1.0" id="svg2" inkscape:version="0.91 r13725" sodipodi:docname="USA counties.svg">
  <defs id="defs9439"/>
  <sodipodi:namedview pagecolor="#ffffff" bordercolor="#666666" borderopacity="1" objecttolerance="10" gridtolerance="10" guidetolerance="10" inkscape:pageopacity="0" inkscape:pageshadow="2" inkscape:window-width="798" inkscape:window-height="828" id="namedview9437" showgrid="false" showguides="true" inkscape:zoom="0.64950808" inkscape:cx="494.98999" inkscape:cy="313.535" inkscape:window-x="-7" inkscape:window-y="0" inkscape:window-maximized="0" inkscape:current-layer="svg2"/>
  <metadata id="metadata4">
    <rdf:RDF>
      <cc:Work>
        <dc:format>image/svg+xml</dc:format>
        <dc:type rdf:resource="http://purl.org/dc/dcmitype/StillImage"/>
        <dc:title/>
        <cc:license rdf:resource="http://creativecommons.org/publicdomain/zero/1.0/"/>
        <dc:date>2019-10-06</dc:date>
        <dc:creator>
          <cc:Agent>
            <dc:title>U.S. Census Bureau, Abe.suleiman, Lokal_Profil</dc:title>
          </cc:Agent>
        </dc:creator>
        <dc:source>https://commons.wikimedia.org/wiki/File:Usa_counties_large.svg</dc:source>
      </cc:Work>
      <cc:License rdf:about="http://creativecommons.org/publicdomain/zero/1.0/">
        <cc:permits rdf:resource="http://creativecommons.org/ns#Reproduction"/>
        <cc:permits rdf:resource="http://creativecommons.org/ns#Distribution"/>
        <cc:permits rdf:resource="http://creativecommons.org/ns#DerivativeWorks"/>
      </cc:License>
    </rdf:RDF>
  </metadata>
  <style id="style6">
  /*
   * Below are Cascading Style Sheet (CSS) definitions in use in this file,
   * which allow easily changing how counties are displayed.
   *
   *
   * For the U.S. Census county codes (FIPS codes) used in this file to identify individual counties, see this link:
   * https://www2.census.gov/geo/docs/reference/codes/files/national_county.txt
   *
   * The county codes used in this file combine the 2-digit state code, which is in the second column of the file
   * linked above, and the 3-digit county code, which is in the third column of the file linked above. Each value
   * for the "id" attribute for each county is in the following form: "c[state_code][county-code]". For example,
   * for Loving Country in Texas, the state code is "48" and the county code is "301", so the id name for the
   * county is "c48301".
   *
   * County codes used in this file can also be found on Wikimedia Commons at this link:
   * https://commons.wikimedia.org/wiki/File_talk:Usa_counties_large.svg/county_codes
   *
   * Examples:
   *
   * To color two counties red (in this case Loving County and Dallas County in Texas) simply
   * go to the CSS insertion point and add:
   *
   * #c48301, #c48113 {fill:red}
   *
   * To color an entire state's counties (in the case New Mexico, with "35" being the state code) a green,
   * go to the CSS insertion point and add:
   *
   * path[id*='c35'] {fill:#34A853}
   *
   */
  #counties {fill:#d0d0d0;stroke:#000;stroke-width:.17829;} 
  #borders {fill:none;stroke:#221e1f;stroke-width:.89143;} 
  #separator {fill:none;stroke:#a9a9a9;stroke-width:2.3177309;}
 </style>
  <g id="counties" transform="translate(-4.123289999999999,-455.73099999999994)" style="fill:#d0d0d0;stroke:#ffffff;stroke-width:0.17828999">
    <path id="c02185" d="m 111.75,462.41 1.5725,-1.571 1.1767,-0.784 0.39045,0.784 -0.78268,0.393 0.78268,0 3.9294,-1.177 3.5354,-4.324 3.1414,1.573 0,0.788 -1.1785,1.175 0,1.182 1.1785,-0.394 0.78624,-1.963 0.78447,-0.788 1.1785,1.177 0.39223,1.574 1.1785,0.394 0.39045,-0.786 1.9629,-0.396 3.1432,0 0.39045,0.396 -0.78447,1.176 0,0.393 2.3587,0.394 -0.3958,1.176 1.5725,0 1.9629,-1.176 4.3199,-0.394 2.7492,0.786 1.1838,0 1.1731,0.392 0.39758,0.392 1.5707,0 1.9629,-0.392 2.3587,0 2.7492,0.788 0.78446,-0.396 1.5725,-1.176 0.39045,-0.394 0.78625,-0.783 2.751,0.39 6.2828,1.963 1.9629,6.287 1.1785,3.927 -16.103,3.928 0.78625,4.318 -3.1414,0.786 -8.2493,1.576 -0.39758,0 -18.454,1.962 -4.3217,0 0,-0.787 -3.1396,0 0,-0.786 -3.1432,0 -3.1414,0.392 -2.3587,0 0,-0.781 -1.1767,0 0,0.389 -3.5336,0 -0.78624,-0.389 -0.39402,0 0,0.389 -1.5689,0 -0.3958,-0.784 -1.9629,0 0,0.784 -0.78803,0 -5.5002,-0.389 0,1.566 -2.7492,0 -2.3552,-1.177 -1.1785,-1.572 0.78446,-2.354 0.39401,-2.752 2.7492,0.395 3.5372,-0.395 1.1749,-0.391 2.3569,-2.751 1.182,-3.534 2.3552,-3.533 1.5725,-1.574 1.1767,0.397 1.5725,-0.788 2.357,-2.751" inkscape:connector-curvature="0" style="stroke:#ffffff">
      <title id="title16">North Slope, AK</title>
    </path>
    <path id="c02188" d="m 132.56,496.98 -0.78268,0 -1.5707,0.784 0.39401,0.786 -2.3552,0 0,2.355 -1.5725,0.395 0,-0.785 -0.78446,-0.783 -1.5707,0 0,1.568 -1.5725,0 0,-1.568 -3.1396,0 0,3.534 -3.9277,0 0,1.569 -2.3552,0 0,3.928 -0.78624,0 0,0.788 -0.78625,0 -13.748,-0.394 0,-1.573 -0.3958,0 -0.39045,-0.392 0,-1.177 -0.78625,-0.394 0,-3.141 -0.3958,-3.93 1.5725,0 0.78625,0.393 -0.78625,2.749 0.3958,1.574 7.0691,0.781 1.9647,-1.961 1.1803,0 -0.3958,-0.786 -1.1767,-0.785 -1.1767,-0.783 -1.5778,-1.968 -0.7809,-0.39 -0.39223,-1.179 0.39223,-0.394 0.7809,0 1.182,2.749 1.5725,1.571 0.78625,-0.389 -0.78625,-0.394 -1.1767,-1.574 0.78446,-2.355 0.39223,0.392 0,-0.392 -1.1767,-0.785 -1.9647,0.391 -1.5743,0 -2.751,-1.177 -1.1749,-4.32 -3.9312,-4.323 2.7492,0 0,-1.566 5.5002,0.389 0.78803,0 0,-0.784 1.9629,0 0.3958,0.784 1.5689,0 0,-0.389 0.39402,0 0.78624,0.389 3.5336,0 0,-0.389 1.1767,0 0,0.781 2.3587,0 3.1414,-0.392 3.1432,0 0,0.786 3.1396,0 0,0.787 3.1432,0 0,1.963 0.78446,0 0,0.786 1.5689,1.572 0,2.354 1.5707,0 0.78268,0.786 0.39579,2.357 -0.39579,1.571" inkscape:connector-curvature="0" style="stroke:#ffffff">
      <title id="title19">Northwest Arctic, AK</title>
    </path>
    <path id="c02198" d="m 236.25,561 -0.39063,0.78516 1.1797,0.78515 0.39258,0.39258 0.78125,0.39258 0.39648,0.39258 1.1777,2.3574 0.7871,-0.39063 0,-0.39453 -1.4355,-2.5781 1.1348,-1.0566 -1.2734,-0.68555 -2.75,0 z m 1.9629,2.3555 -1.1738,0 -1.1797,-0.78516 -0.78711,0.39258 -0.39062,1.1816 0.78711,1.1758 1.9629,1.1777 0.78125,0.78515 -0.78125,0 0,1.1816 0.78125,1.9629 0.78711,0.39063 -0.39063,-1.9648 0.7832,0.78906 0,-2.3594 -0.7832,0 -0.39648,-1.1777 0,-0.78516 0.78711,-0.39062 -0.78711,-1.5742 z m 18.854,-1.9609 -0.38867,0.78516 0.0488,1.4883 1.5234,0.86914 0,-2.3574 -1.1836,-0.78516 z m -14.926,4.7109 -1.959,0.78515 0,0.39258 0.78515,1.9648 -0.39258,1.1797 0.39258,0.39063 0.78516,-0.39063 0.38867,-1.1797 1.1836,1.5703 -0.39648,0.39453 -0.78711,0 -0.38867,0.39258 1.9648,0.78515 1.1777,0 1.1777,1.1777 -1.5703,1.5723 0.39258,0.78516 4.7129,3.1426 1.1797,0 -0.78711,-1.9629 -0.78321,-0.39453 -0.78906,0.78711 -1.9629,-2.75 3.5352,1.1777 2.3555,1.9629 1.1797,-0.39062 0,-1.1816 -1.9648,-3.5352 -1.5703,-0.7832 -2.3574,-2.75 -5.502,-3.1426 z m -6.6719,3.1426 0.39062,0.7832 0,-0.7832 -0.39062,0 z m 5.1055,1.5703 -0.39257,0.39453 0.39257,0.39258 0,-0.78711 z m -1.9648,0.78711 -0.39648,0.39258 0.78711,0.39257 0.39257,-0.78515 -0.7832,0 z m 14.926,0 0.39258,1.5723 0.39258,0.78516 1.1797,-0.78516 -0.39258,-1.1797 -1.5723,-0.39258 z m -9.4277,1.1758 -1.5742,0.78711 0,1.1797 1.5742,0.39257 0.78711,-1.9629 -0.78711,-0.39648 z" inkscape:connector-curvature="0" style="stroke:#ffffff">
      <title id="title22">Prince of Wales-Hyder, AK</title>
    </path>
    <path id="c02130" d="m 256.29,573.18 -0.78515,1.1758 1.1777,0 0,-0.78516 z m 0.39258,-10.998 -1.1777,0 -2.3574,-1.1797 -1.5723,0.39453 1.1797,0.78516 -0.39453,0.7832 -1.1758,1.5742 -1.1797,0.7832 -0.39258,0.78516 0,1.5723 0.39258,0.39258 0,1.5723 -1.1777,-0.39453 -0.39453,0 1.1797,1.1797 1.1797,0 0,-2.75 -0.78711,-0.39453 0.78711,-0.39258 1.1777,2.3574 -0.39453,0.7832 0,0.78711 0.43555,0.125 0.34961,1.0547 1.1797,1.1797 -0.39258,-1.5723 -0.88281,-0.58985 2.0606,0.58985 1.5703,-0.39258 0.39453,-1.1816 -0.78515,-2.3535 -3.1445,-2.748 2.752,1.9609 1.5703,2.752 -0.39258,1.5703 1.9648,2.75 0.78125,0.39063 1.1777,-0.39063 0.78516,-2.75 0,-3.1426 -2.7441,-3.5332 -1.5228,-0.86855 z" inkscape:connector-curvature="0" style="stroke:#ffffff">
      <title id="title25">Ketchikan Gateway, AK</title>
    </path>
    <path id="c02275" d="m 245.11,559.57 -0.30078,1.5547 -0.85742,0.34766 0.95117,0.31641 0.78515,2.752 -0.78515,1.5684 0,0.78515 1.1777,0.78711 1.9648,0.39258 0.39062,-0.78711 -0.39062,-0.78515 0.39062,-1.5684 0.78906,3.1406 -0.39453,1.1777 1.1777,0.39453 0,-1.5723 -0.39258,-0.39258 0,-1.5723 0.39258,-0.78516 1.1797,-0.7832 1.1758,-1.5742 0.39453,-0.7832 -1.1797,-0.78516 -3.1426,-0.78711 -0.78516,0.39258 -1.1777,-1.1777 -1.3633,-0.25586 z m -0.99414,4.5781 -1.1797,0.78516 0,1.1758 1.1797,0 0.78711,-0.39063 -0.78711,-1.5703 z" inkscape:connector-curvature="0" style="stroke:#ffffff">
      <title id="title28">Wrangell, AK</title>
    </path>
    <path id="c02195" d="m 239.21,554 -3.4082,0.33789 -0.33007,0.76758 0,0.78515 1.3144,2.3809 0.1875,1.4004 0.85351,0.14649 1.1758,0 1.9668,-0.39454 0.38868,0.78516 1.1777,0.78711 1.4102,0.46875 0.85742,-0.34766 0.30078,-1.5547 -0.16016,-1.3379 -1.6172,0.0234 0,-1.1797 -1.1836,-1.1777 -1.5527,-1.2617 -0.75196,0.23828 -0.59179,-0.15625 -0.0371,-0.71093 z m 0.97461,6.209 -1.1816,0.78711 1.2734,0.68555 -1.1348,1.0566 1.4355,2.5781 1.1777,0 0.38867,-0.7832 -0.38867,-0.78906 -1.5703,-0.78516 0,-0.7832 1.959,1.1758 0,0.78906 1.1836,0 1.1777,-1.5742 -4.3203,-2.3574 z" inkscape:connector-curvature="0" style="stroke:#ffffff">
      <title id="title31">Petersburg, AK</title>
    </path>
    <path id="c02220" d="m 226.04,557.46 1.9629,0.788 1.5725,-0.788 1.1767,1.965 0,0.394 -1.1767,0.39 -2.751,-1.176 -0.394,0.392 1.1802,1.572 -0.39401,1.179 -0.78623,0 -3.5336,-3.143 1.5707,-0.391 0,-1.572 1.5725,0.39 m 9.8201,12.569 0,0.396 -0.78625,-0.396 -1.9647,-1.962 0,-1.179 -0.78444,0.786 -0.39403,-0.786 -1.1785,-0.394 -0.78446,-2.353 -0.78803,-0.788 0,-0.785 -0.78447,0.391 -1.1785,-0.783 0.78624,-2.357 1.5725,0.786 1.5707,-0.396 0.39221,0.788 -0.78624,0.394 0.78624,0 2.7528,4.32 1.5689,3.534 -0.39045,0 0.39045,0.784 m -9.0356,-7.461 0.39223,-0.392 1.5707,1.569 0,1.182 -0.78447,0.39 -1.1785,-2.749" inkscape:connector-curvature="0" style="stroke:#ffffff">
      <title id="title34">Sitka, AK</title>
    </path>
    <path id="c02100" d="m 224.86,547.25 -0.39223,0.392 -1.1785,-1.963 -1.1767,-0.786 0,0.394 1.9647,3.141 1.5689,2.357 1.9647,3.142 -1.5707,0 -1.1802,-1.177 -0.39223,-0.392 0.78623,-0.787 -0.78623,-0.786 -1.963,-0.394 0.39225,-1.963 -1.5707,-1.178 -3.5354,0 0,-3.143 1.5707,-1.963 3.1432,2.358 1.1767,-0.395 0.39578,0.395 1.5689,0 0.78448,0.785 0.394,-0.394 0.78624,1.178 0.39223,0 -3.1432,1.179" inkscape:connector-curvature="0" style="stroke:#ffffff">
      <title id="title37">Haines, AK</title>
    </path>
    <path id="c02110" d="m 235.08,553.93 0,0.786 -0.78268,0 -2.7528,-2.355 -1.9629,0.781 -3.145,-1.96 -1.9629,-3.537 0.39223,-0.392 3.1432,-1.179 0.78447,0.785 1.1803,0.394 3.9277,1.572 0,0.785 1.9647,1.178 -0.78625,2.748 0,0.394 m -5.1062,0.394 -0.78803,0 -0.39223,-1.182 0.39223,0.394 0.39581,-0.394 1.9629,-0.389 -1.1785,0.783 -0.39223,0.394 0,0.394" inkscape:connector-curvature="0" style="stroke:#ffffff">
      <title id="title40">Juneau, AK</title>
    </path>
    <path id="c02230" d="m 222.51,544.51 -3.1432,-2.358 0.78801,-1.177 1.5689,0.39 1.1785,0.787 0.78446,1.963 -1.1767,0.395" inkscape:connector-curvature="0" style="stroke:#ffffff">
      <title id="title43">Skagway, AK</title>
    </path>
    <path id="c02105" d="m 217.79,547.25 0,0.78516 -1.1777,0.39257 -2.3555,3.53522 -1.5703,1.57031 3.9258,1.57233 1.1777,0.39258 0.78711,0 1.5723,0.78516 2.3555,-2.35743 -1.5723,-2.35553 -2.3555,-0.78515 -1.57229,0 0,-0.39453 3.5352,0.78711 0.39258,0 0,-0.78711 1.1797,1.17968 0.7832,2.35553 1.96291,-1.17578 -0.39063,-0.39258 0.78516,-0.78711 -0.78516,-0.78515 -1.9629,-0.39453 0.39062,-1.96289 -1.57029,-1.17768 -3.53521,0 z m 9.4258,4.71289 0,0.39453 1.5703,1.96289 1.5742,3.13867 1.96291,1.57422 0,2.35743 1.1777,1.56842 1.1816,-1.9629 0,-1.17767 0.7871,-1.17767 -0.39648,-0.78711 -2.75,-2.748 0.39258,-0.39258 1.1797,1.57032 0.78711,0 -3.14452,-3.14444 0,-0.38867 -1.1777,0.7832 -0.39258,0.39258 0,0.39453 -0.78906,0 -0.39258,-1.18158 -1.1758,-1.17578 -0.39453,0 z m -3.1387,2.35742 -0.78907,0.78516 -1.57029,0.39258 -0.39258,1.96087 0.39258,1.18158 1.1777,0.39258 1.5723,-0.39258 0,-1.57232 1.57229,0.39062 1.96291,0.39453 0.7832,-0.39453 0.39258,-0.39062 -0.39258,-1.17768 -0.39062,-0.78515 -4.31841,-0.78516 z m 16.5129,0.30969 -4.7282,-3.84307 -0.78711,2.748 0,0.39258 0.39649,1.17969 0.32931,-0.76837 3.4099,-0.33783 0.036,0.71191 0.59229,0.15564 z" inkscape:connector-curvature="0" style="stroke:#ffffff">
      <title id="title46">Hoonah-Angoon, AK</title>
    </path>
    <path id="c02282" d="m 195.41,544.51 1.9612,0 0.39582,-0.788 2.357,0.393 0.78625,-1.568 2.3552,-0.788 0.39401,2.356 0.78447,0.395 1.9647,0.391 0.78446,1.178 5.8924,3.142 1.1785,2.751 -1.5707,1.569 0,-0.783 -1.1803,-0.786 -8.638,-1.965 -0.39401,-0.392 0,-0.785 0.78446,0 0,-0.786 -1.1767,-1.965 -0.39401,1.179 -1.5707,1.572 -3.539,0.391 -2.3534,-1.177 -5.1044,0.392 -5.4984,1.963 1.9665,-5.104 5.1026,-1.573 0.78446,0 0,0.788 2.7492,-0.788 0.78626,0 0.39222,0.788" inkscape:connector-curvature="0" style="stroke:#ffffff">
      <title id="title49">Yakutat, AK</title>
    </path>
    <path id="c02016" d="m 62.259,580.25 -0.78446,0.786 -0.39401,-0.396 0,-0.39 1.1785,0 m 1.9647,6.284 0.39223,0 -0.39223,0.392 -0.78625,-0.786 0.78625,0.394 m 13.348,25.137 1.5725,1.571 -0.39401,0.786 -3.1414,2.355 -1.1785,0.394 -1.1767,0 -3.1432,1.178 -1.1785,-0.786 4.3217,-1.572 0.39045,-3.142 0.39402,-0.392 2.3552,-0.392 0,0.784 0.39401,0.394 0.39401,-0.394 0.39045,-0.784 m -13.742,6.284 2.3587,-1.572 0.38688,-0.786 0.78625,-0.392 1.1785,-0.391 1.1785,0.391 -0.78625,1.572 -1.5707,0.392 -1.9612,1.963 -2.357,1.18 -1.1767,0.393 1.9629,-1.965 0,-0.785 m -56.565,0 0.39758,0.393 -0.39758,0.392 -0.39223,-0.392 0.39223,-0.393 m 3.9312,0.393 0.78446,0 0.78625,1.572 -1.1767,0.785 -0.78625,-0.393 -0.39401,-1.964 0.78625,0 m 47.53,0 0,0.784 -0.39401,-0.392 0.39401,-0.392 m -1.9647,0.784 0.38867,0 -0.38867,0.394 -0.39758,-0.394 0.39758,0 m -24.356,1.18 -0.39223,-0.392 1.5725,-0.788 0.78268,1.18 -1.1767,1.571 -2.357,0 -4.3199,-0.788 3.9277,0.396 1.9629,-0.786 0.39401,-0.393 -0.39401,0 m -10.212,-0.786 0.78446,0 0,0.786 -0.39045,0.393 -0.78624,-0.393 0,-0.786 0.39223,0 m -5.8924,0 0.78625,0.394 -1.1785,1.571 -0.78446,0 -1.1785,-0.786 1.9629,-0.393 0.39223,-0.786 m 42.031,0 0.39401,0.394 -0.39401,0.392 -1.5707,-0.392 0.38867,-0.394 1.182,0 m -38.494,1.569 1.1767,0.396 -0.39223,0.784 -3.9277,0.391 1.9647,-2.746 1.1785,0 0,0.392 -0.39401,0 -0.39401,0.783 0.78803,0 m 36.133,-0.783 0.39223,0 0,0.393 -0.39223,0 0,-0.393 z m -2.7492,0 0.3958,0.393 -0.3958,0.786 -1.1749,0 0,-0.786 1.1749,-0.393 m -29.066,0.783 0.39401,0.396 -0.39401,0 0,-0.396 m -2.7474,0.396 1.1785,0 0.39045,0.392 -1.1767,0.392 -0.78625,-0.392 0.39401,-0.392 m -16.103,0 0,0.392 -0.39758,0.392 0.39758,-0.784 m 44.381,0 0.39402,0.392 -0.39402,0.392 -0.39223,-0.392 0.39223,-0.392 m -6.6768,0 0.39402,0.392 0,0.392 -1.5725,0 0.39402,-0.392 0.78446,-0.392 m -7.0709,0.784 0.78803,0.391 2.7492,0.788 -3.1432,0 -1.5689,-0.394 -1.1785,-1.177 1.1785,0.392 1.1749,0 m -31.421,-0.392 0,0.783 -0.39401,0 0.39401,-0.783" inkscape:connector-curvature="0" style="stroke:#ffffff">
      <title id="title52">Aleutians West, AK</title>
    </path>
    <path id="c02013" d="m 113.71,597.92 0,0.782 -0.39045,-0.782 0,-0.788 -0.78624,-0.394 -0.39402,0.786 -0.78446,0 -0.3958,0.786 -1.9629,1.573 -3.5319,1.176 -1.5778,-0.392 0.78981,-1.965 -1.1767,0 -1.9683,4.713 -1.5689,0.786 -1.182,-0.392 0,-1.963 -0.7809,-0.394 -0.3958,0.784 0.3958,0.786 0.39045,1.573 -1.5725,0.392 -0.78625,-1.965 -1.1785,0.393 0.78803,1.572 0,2.355 -1.1785,-0.392 -1.5725,0.392 -2.7492,0 -0.78625,0.396 -1.1767,1.177 -1.9647,0 -0.39223,-1.177 0,-0.788 1.1785,-0.394 0.78446,-1.177 4.3199,-1.964 1.1785,0 0.39401,1.964 0.78625,0 0,-2.357 2.3552,-0.786 3.5408,-3.926 2.3552,-1.965 2.3552,-0.786 1.1803,0.392 1.1785,0.394 -0.39402,0 0,0.787 0.39402,0.788 0.78624,-0.396 0.39223,-0.786 0,-1.179 1.1767,-2.749 2.357,-1.961 4.7121,-3.145 0.39401,0.396 0,0.388 -0.78446,0.788 -1.1785,0 0,0.787 -1.5725,0 0,0.786 -1.5707,0 0,1.567 0.39402,0 0,3.143 -0.39402,0.786 1.5707,0 0,1.575 m -3.5336,2.351 0.78268,0 0,0.788 -0.78268,0 -0.39401,-0.392 0.39401,-0.396 m -1.1803,1.181 0.78625,0 0,0.784 -0.78625,1.179 -1.5689,-0.393 -0.39402,-1.57 0.39402,-0.393 0.78624,0 0.78268,0.393 m 3.1432,0.394 0.39402,1.569 -1.9647,2.356 0,-2.356 0.39045,-0.393 0.78803,0.393 0.39223,-1.569 m 1.9647,0.39 0,1.965 -0.78446,0 0.78446,-1.965 m -10.999,1.179 0.39401,0.394 -0.78624,0 -0.78803,-0.787 0.39223,-0.392 0.78803,0.785 m 11.781,0.394 0.3958,0.786 -0.78625,0.392 0,-1.178 0.39045,0 m -14.924,0.786 0,0.784 -0.39045,0.392 -0.79159,-0.784 1.182,-0.392 m 15.32,0.392 0.39223,0.392 -0.39223,0.392 0,-0.784 m -18.465,3.928 1.182,0.39 0,0.396 -1.182,0 -0.39045,-0.396 0.39045,-0.39 m -14.532,0.786 0.39223,0 0,0.784 -0.78446,0.787 -0.39402,-1.179 0.39402,-0.392 0.39223,0 m -1.1767,1.178 -0.39401,0.785 -1.1785,0 -0.39223,-0.785 0.78625,-0.786 1.1785,0.786 m 3.9259,0.393 0.39402,0 0,0.392 -1.5707,0 1.1767,-0.392 m -1.5707,0.392 0.39401,0.392 -1.1803,-0.392 0.78625,0" inkscape:connector-curvature="0" style="stroke:#ffffff">
      <title id="title55">Aleutians East, AK</title>
    </path>
    <path id="c02150" d="m 128.64,582.6 0.78268,-1.175 1.1803,-0.788 0.39045,-0.39 0.39402,0.39 0.39223,-0.39 0.78268,-1.179 1.5725,-1.18 -0.39223,-3.14 1.5725,-0.786 1.9647,-0.785 1.1767,-0.786 0,-1.963 1.1803,0 1.1749,-0.396 -0.39223,-0.784 1.9629,0 -0.39223,-1.178 0.78981,0 -0.39758,1.178 -0.78446,0.784 -0.78624,0.396 -0.78447,1.177 -0.39044,2.749 -0.78803,1.179 -1.1785,0.784 -0.78625,-0.392 -1.1785,0.392 -0.78447,0.788 -0.78624,1.963 -0.78268,0 -1.1803,1.569 -0.78446,0.396 -0.39402,-0.396 0,0.788 -2.3534,1.571 0,0.39 0.78268,-0.39 0,1.572 -1.9576,0 0,-0.788 0.78268,-0.394 0.39223,-0.786 m 16.886,-7.067 -0.39223,0.392 -1.9629,-0.785 1.5689,-2.358 1.5761,-2.75 1.1731,-0.39 -0.38688,1.571 0,0.784 1.5707,-0.392 0.78446,0.392 0.38867,1.18 -0.38867,0.785 -3.1414,1.178 -1.182,-0.786 -0.39401,0.394 0.78624,0.785 m -4.7139,4.714 0.39401,1.178 0.78446,0.392 -0.78446,-0.784 -0.39401,-3.145 0.78624,-0.783 2.357,-0.394 0.78446,-0.394 1.1838,0 -0.39758,1.18 0.39758,0.391 1.5654,-1.571 0.78803,-0.392 -0.39045,1.572 0.78625,1.179 0.78446,0 -0.78446,1.571 -1.9701,1.964 -1.9629,2.357 -0.39223,0.392 -0.39223,-0.786 0.39223,-0.788 -0.39223,0 -1.1749,2.751 -1.182,1.18 -1.1785,0.391 -0.78268,-1.177 -1.1803,-1.963 -0.39402,-1.182 -0.78268,-0.786 0.39045,-1.963 1.1785,-1.177 1.9629,-0.392 0,1.179 m -0.39223,8.641 1.5707,0.392 -0.39223,0.391 -1.5707,0 -0.39044,-0.391 0.78268,-0.392 m -1.5707,0 0.78803,0.392 -1.9665,1.573 0,-0.786 1.1785,-1.179 m -5.1061,6.675 0.78624,0.392 0,1.573 -1.5707,-0.392 0,-0.787 0.78447,-0.786" inkscape:connector-curvature="0" style="stroke:#ffffff">
      <title id="title58">Kodiak Island, AK</title>
    </path>
    <path id="c02060" d="m 125.89,568.85 3.1432,0 0,2.359 -4.3217,0.392 0.78625,-1.177 0.39223,-1.574" inkscape:connector-curvature="0" style="stroke:#ffffff">
      <title id="title61">Bristol Bay, AK</title>
    </path>
    <path id="c02070" d="m 125.1,568.85 0,0.394 -4.7121,2.357 -0.78625,-0.392 -1.5707,-2.359 -0.39402,0.394 -0.39223,1.571 0.78625,1.963 -1.1803,0.786 -0.78268,0 -2.3587,-4.32 -0.78625,-0.394 -0.39044,1.178 -0.39402,0 -1.9629,-1.567 0.39223,-0.395 -0.39223,-0.393 -3.1432,1.965 0,-1.572 0.78446,0 0.78803,-2.356 0.78447,-0.784 0.39223,-2.359 0.78624,-1.571 1.1785,0 0,-1.572 1.1767,-2.355 0.78625,-1.571 0.78624,0 1.9647,-4.714 4.7121,0 0,0.786 0.78625,0 0.78268,-0.786 0,-1.178 1.5725,0 0,0.784 5.1026,0 0,0.788 0.3958,2.748 0.39045,7.464 -0.78625,0 0,1.177 -1.5671,0 -0.78624,0.785 -0.39402,1.574 -1.1767,0 -1.1785,0.784 0.78625,3.14 m -19.637,1.574 0,-0.786 1.1767,0 -1.1767,0.786" inkscape:connector-curvature="0" style="stroke:#ffffff">
      <title id="title64">Dillingham, AK</title>
    </path>
    <path id="c02164" d="m 128.64,582.6 -0.39223,0.786 -0.78268,0.394 0,0.788 1.9576,0 -4.3163,3.14 -0.78625,-0.391 -0.39223,1.571 -2.3552,0.783 0,0.396 0.39223,0 0.39223,0.786 -2.357,0 -0.78447,1.178 1.5689,1.569 -1.5689,1.963 -5.1061,1.179 0,1.182 -0.39401,0.782 0,-2.357 -1.5707,0 0.39402,-0.786 0,-3.143 -0.39402,0 0,-1.567 1.5707,0 0,-0.786 1.5725,0 0,-0.787 1.1785,0 0.78446,-0.788 0,-0.388 1.1785,0 -0.39223,-1.573 0.78446,-1.571 3.9259,-3.927 0.78803,-7.465 1.1767,-1.963 4.3217,-0.392 0,-2.359 -3.1432,0 -0.39223,-0.389 -0.39223,0.783 0,-0.394 -0.78625,-3.14 1.1785,-0.784 1.1767,0 0.39402,-1.574 0.78624,-0.785 1.5671,0 0,-1.177 0.78625,0 -0.39045,-7.464 -0.3958,-2.748 0,-0.788 6.2828,-0.392 2.357,-0.392 2.357,0 0.78624,3.926 -0.78624,0 0.39223,3.143 -0.78447,0 0.39224,0.784 0,2.359 -0.39224,0 0,0.786 -0.78446,0 0,0.786 -0.39401,0.785 -0.39223,0.392 -0.78625,0.785 -0.39045,1.574 -1.1803,0 0,1.567 0.39223,0.394 0,0.786 0.39223,2.751 1.5725,0 0,1.963 -1.1767,0.786 -1.9647,0.785 -1.5725,0.786 0.39223,3.14 -1.5725,1.18 -0.78268,1.179 -0.39223,0.39 -0.39402,-0.39 -0.39045,0.39 -1.1803,0.788 -0.78268,1.175 m -2.7492,7.467 0.78446,0.39 -1.5689,0 0.39223,-0.39 0.39223,0" inkscape:connector-curvature="0" style="stroke:#ffffff">
      <title id="title67">Lake and Peninsula, AK</title>
    </path>
    <path id="c02122" d="m 137.28,564.93 0.39045,-1.574 0.78625,-0.785 0.39223,-0.392 0.39401,-0.785 0,-0.786 0.78446,0 0,-0.786 0.39224,0 0,-2.359 -0.39224,-0.784 0.78447,0 -0.39223,-3.143 0.78624,0 -0.78624,-3.926 0,-0.394 -0.39224,-3.534 0,-0.786 0.39224,0 1.5707,-0.391 1.5707,0 0.78625,-0.395 4.7192,-0.393 0,1.573 1.1767,0 0.78803,0.392 -0.78803,0.786 -1.9665,1.571 -1.5743,2.749 -1.5689,4.322 0,1.963 -1.9629,3.139 -1.9647,1.182 -1.1785,1.568 -1.1785,0.786 -0.39223,2.357 0.39223,0.786 0.39401,-0.394 1.5689,-0.392 1.9683,1.572 0,0.393 -0.78981,0 0.39223,1.178 -1.9629,0 0.39223,0.784 -1.1749,0.396 -2.7528,0 -0.39223,-2.751 0,-0.786 -0.39223,-0.394 0,-1.567 1.1803,0 m 11.393,-2.359 2.7438,-1.963 0.79159,-1.572 -0.79159,0 -1.1731,1.176 -0.78625,-0.39 -0.78446,-0.786 0.39401,-2.357 0.77912,-1.963 0.39758,-1.574 0,-1.568 -0.78625,-1.572 1.5743,-0.786 2.3534,-2.357 0.78802,0.786 1.1767,0 1.1767,-0.786 1.1785,0.394 1.5725,0 0.39223,0.392 1.1803,0.786 0.78268,0 0,0.394 0.39402,1.569 0,0.394 0.39223,0.394 0.39401,3.534 0,0.394 -3.1432,0.392 -1.5689,0.785 0,2.358 -2.751,2.355 -0.39223,-0.392 -0.78447,0.786 -0.78802,1.962 -3.539,1.18 -1.1731,-0.788 0,-1.177" inkscape:connector-curvature="0" style="stroke:#ffffff">
      <title id="title70">Kenai Peninsula, AK</title>
    </path>
    <path id="c02020" d="m 156.52,546.86 -1.9629,-1.569 0.39402,-0.394 0,-0.391 0.39223,0 0.78624,-1.572 0.39045,-0.391 0.3958,0 0.39045,-0.395 0.39223,0 0.3958,0.395 3.1414,-0.788 0,1.179 0.39045,1.177 0,1.18 0.39402,0.392 0,1.571 -1.1767,0 0,0.786 0.39223,0.392 -0.39223,0 -1.1803,-0.786 -0.39223,-0.392 -1.5725,0 -1.1785,-0.394" inkscape:connector-curvature="0" style="stroke:#ffffff">
      <title id="title73">Anchorage, AK</title>
    </path>
    <path id="c02261" d="m 162.02,546.47 0,-0.786 -0.39402,-0.392 0,-1.18 -0.39045,-1.177 0,-1.179 3.1396,-0.394 2.3587,-0.39 -0.39401,-0.396 0.39401,0 0.78268,-0.39 -0.78268,-4.32 0,-0.394 -0.78624,-1.965 1.9647,-0.392 0.39045,-0.391 -0.39045,-1.18 0,-0.392 -1.1785,-5.106 -0.39401,-1.179 1.5725,-0.786 1.1767,-0.394 0.39224,0 0.78446,-0.39 1.1803,0 1.1785,0.39 0.39223,0 6.6786,-1.569 0.78446,1.179 0.39223,1.963 0,1.178 1.1785,0 0.39399,-1.178 1.569,0 1.9647,1.178 0.78448,2.751 0.78801,0.392 0,0.392 0.39224,1.571 3.1414,-1.18 3.9277,13.355 -0.78626,0 -2.7492,0.788 0,-0.788 -0.78446,0 -5.1026,1.573 -1.9665,5.104 -5.1079,-1.569 0,-1.18 -1.5707,0.786 0.78625,0.785 -3.1432,-1.177 -3.5336,3.143 -0.78803,-1.18 0.3958,-1.177 0.78446,0 1.5707,-0.786 0.78624,-0.786 0,-0.785 -1.9647,0.785 -1.5725,0 -0.39045,-0.394 1.5707,-1.177 0.39223,-0.392 -1.5725,0.784 -0.39045,-0.784 -0.39401,0.392 0,-1.965 -2.3552,1.179 -0.39224,1.178 -2.7492,1.179 -0.3958,0 0.3958,-2.357 -0.78625,0.394 -0.39223,1.963 1.1785,0.392 1.1785,2.749 -0.39402,1.573 1.5707,1.569 -0.78625,1.18 -2.7474,0.394 0,-0.394 -0.39401,-3.534 -0.39223,-0.394 0,-0.394 -0.39402,-1.569 0,-0.394 -0.39045,0 -0.39223,-0.392 0,-0.786 1.1767,0 0,-0.785 m 5.8924,-0.786 0,0.392 -0.78624,0 0.78624,-0.392 m -1.1785,1.963 0.78268,0.394 -0.78268,0.392 0,-0.786 m -2.3587,0 0.78803,0.394 -0.39402,0.392 -0.39401,-0.392 0,-0.394 m 1.9647,1.18 0,3.928 -1.1767,-0.786 0.39044,-1.965 0.78625,-1.177 m 2.7492,3.142 -0.78624,1.175 -0.39045,2.36 -1.5725,0.785 0,-1.571 1.9629,-3.142 0,-0.786 0.39401,-0.394 1.1785,0.394 -0.78625,1.179" inkscape:connector-curvature="0" style="stroke:#ffffff">
      <title id="title76">Valdez-Cordova, AK</title>
    </path>
    <path id="c02170" d="m 157.7,542.15 -0.39223,0 -0.39045,0.395 -0.3958,0 -0.39045,0.391 -0.78624,1.572 -0.39223,0 0,0.391 -3.1432,0 -0.78268,0.786 -0.78803,-0.392 -1.1767,0 0,-1.573 -4.7192,0.393 -0.78625,0.395 -1.5707,0 0,-0.788 -0.39223,-0.394 0,-3.533 -0.39223,-0.393 0,-2.749 -0.39401,-3.926 4.3217,-0.395 0,-0.785 9.4296,-6.284 5.5002,-0.789 0,-0.39 -0.39402,-0.784 4.3217,-0.787 1.9629,-0.392 0.39223,2.749 0.39401,1.179 1.1785,5.106 0,0.392 0.39045,1.18 -0.39045,0.391 -1.9647,0.392 0.78624,1.965 0,0.394 0.78268,4.32 -0.78268,0.39 -0.39401,0 0.39401,0.396 -2.3587,0.39 -3.1396,0.394 -3.1414,0.788 -0.3958,-0.395" inkscape:connector-curvature="0" style="stroke:#ffffff">
      <title id="title79">Matanuska-Susitna, AK</title>
    </path>
    <path id="c02240" d="m 169.09,523.69 -1.1767,0.394 -1.5725,0.786 -0.39223,-2.749 -1.9629,0.392 -1.5725,-7.071 2.357,-0.788 0.78446,-1.173 1.1803,-0.788 1.1785,0 4.7121,-3.533 1.5707,0 0,-0.394 0.78625,-1.179 -0.78625,-1.178 0.39224,-0.785 0.39401,-0.786 1.1767,-0.788 0.39402,-2.355 0.39223,0 1.1785,-1.177 1.1785,-0.394 1.1785,-1.571 0,-1.176 0.78623,-1.179 9.8183,34.169 -3.1414,1.18 -0.39224,-1.571 0,-0.392 -0.78801,-0.392 -0.78448,-2.751 -1.9647,-1.178 -1.569,0 -0.39399,1.178 -1.1785,0 0,-1.178 -0.39223,-1.963 -0.78446,-1.179 -6.6786,1.569 -0.39223,0 -1.1785,-0.39 -1.1803,0 -0.78446,0.39 -0.39224,0" inkscape:connector-curvature="0" style="stroke:#ffffff">
      <title id="title82">Southeast Fairbanks, AK</title>
    </path>
    <path id="c02090" d="m 155.74,513.48 0,-0.392 -1.1785,-5.108 0.39402,0 3.9277,-0.786 0.39223,-0.786 1.5725,0 0.78268,-0.785 0.78625,-1.178 0.78624,-0.396 0.78625,0.396 0,0.788 0.78446,0.784 0.39402,0 0.78446,1.177 0.39223,0.392 4.3217,-1.569 1.9629,-0.394 -0.39224,0.785 0.39224,2.751 -4.7121,3.533 -1.1785,0 -1.1803,0.788 -0.78446,1.173 -2.357,0.788 -2.7492,0.396 -1.1785,-0.396 -0.39044,0 -1.5743,-1.961 -0.78446,0" inkscape:connector-curvature="0" style="stroke:#ffffff">
      <title id="title85">Fairbanks North Star, AK</title>
    </path>
    <path id="c02068" d="m 154.56,525.26 -9.4296,6.284 0,0.785 -4.3217,0.395 1.5707,-4.323 0,-1.179 -1.5707,-0.39 -0.39223,-2.361 2.3605,-0.39 0.7809,-1.571 -0.39045,-1.572 1.1767,-1.177 0.78624,0 1.182,0.392 1.5707,-3.141 5.8906,-0.786 4.7139,-0.787 1.1785,0.396 2.7492,-0.396 1.5725,7.071 -4.3217,0.787 0.39402,0.784 0,0.39 -5.5002,0.789" inkscape:connector-curvature="0" style="stroke:#ffffff">
      <title id="title88">Denali, AK</title>
    </path>
    <path id="c02050" d="m 140.02,545.68 0.39224,3.534 0,0.394 -2.357,0 -2.357,0.392 -6.2828,0.392 -5.1026,0 0,-0.784 -1.5725,0 0,1.178 -0.78268,0.786 -0.78625,0 0,-0.786 -4.7121,0 -1.9647,4.714 -0.78624,0 -0.78625,1.571 -1.1767,2.355 0,1.572 -1.1785,0 -0.78624,1.571 -0.39223,2.359 -0.78447,0.784 -0.78803,2.356 -0.78446,0 0,1.572 -1.5689,0 0,1.571 -1.1785,0.392 -2.7545,-0.392 0.78625,-0.394 0.78803,0.394 0.39401,-1.571 -0.39401,-2.359 -0.78803,-1.569 1.5689,-1.966 -0.7809,-2.354 0,-0.394 -1.9647,-3.927 -0.78268,1.572 -2.7545,1.567 -2.751,0.396 -1.5707,-0.786 -0.39223,-1.177 -1.5707,-2.358 -3.5354,-3.145 2.357,-1.568 -0.39223,-1.18 -0.78624,0 0,-0.392 0.39223,-0.392 2.3587,0 1.9629,-0.394 1.9647,-3.142 3.9312,-0.784 0.39045,-0.394 1.1785,-0.391 2.3587,0.785 3.5336,-0.785 1.1803,-1.182 1.9629,-1.176 -0.39401,-0.787 5.1044,0 0,-0.786 3.145,0 0,-0.784 6.2828,-0.393 0,0.787 5.8888,0 1.9629,-0.394 3.5336,0 1.5743,-0.393 0.78268,0 0,-0.786 1.5743,-0.39 0,-0.396 0.39044,-0.39 0.78447,0 0.39401,-0.787 0,2.749 0.39223,0.393 0,3.533 0.39223,0.394 0,0.788 -1.5707,0.391 -0.39224,0 0,0.786 m -85.23,1.963 0.3958,1.18 0.38867,0.785 1.5725,0.784 0.3958,0.394 -1.5743,0 -0.39401,-0.786 -1.1713,-1.571 0.38688,-0.786 m 28.672,6.679 1.1767,-0.394 1.9647,1.572 -0.39223,2.355 -0.39223,0.788 -1.9629,0.783 -3.9277,-1.965 -1.1803,-1.176 0,-0.785 0.39401,-0.392 2.3552,0 1.5725,-1.18 0.39223,0.394" inkscape:connector-curvature="0" style="stroke:#ffffff">
      <title id="title91">Bethel, AK</title>
    </path>
    <path id="c02158" d="m 109.78,541.36 0.39401,0.787 -1.9629,1.176 -1.1803,1.182 -3.5336,0.785 -2.3587,-0.785 -1.1785,0.391 -0.39045,0.394 -3.9312,0.784 -1.9647,3.142 -1.9629,0.394 -2.3587,0 0,-0.394 0.78625,-0.391 0.39401,-0.786 -1.5725,-0.786 -0.39223,0.786 -1.1785,-0.394 -1.9629,-3.928 0.39223,-2.357 4.3199,-5.496 1.9629,-1.574 -0.39045,-1.177 0.78446,-1.963 1.5707,-1.963 1.5725,-0.394 2.7492,2.357 1.182,-0.394 1.9594,-1.963 0.78625,0.394 1.5689,2.355 4.7192,0 -0.39223,0 -0.3958,1.18 -0.39044,3.142 0,3.143 0.78624,0 -0.3958,1.177 0,0.786 0.3958,0.39 1.5689,0" inkscape:connector-curvature="0" style="stroke:#ffffff">
      <title id="title94">Kusilvak, AK</title>
    </path>
    <path id="c02180" d="m 112.92,522.9 0,1.567 -0.78446,0 0,0.789 -0.78446,0.786 -1.5725,0 -0.78625,0.786 0,2.357 -0.39045,0 0,2.355 -4.7192,0 -1.5689,-2.355 -0.78625,-0.394 1.182,-1.573 1.1731,0.394 1.5778,0 1.9629,-0.394 1.1785,-2.355 0.39045,-1.18 -1.1785,-3.534 -0.78446,-1.178 0,-1.179 0.78446,0 1.1785,-0.784 0,-1.177 -1.5689,-1.574 -0.78625,1.178 -3.1414,0.787 -1.5743,1.176 -6.2846,-0.39 -3.1432,0.784 -4.3199,-1.57 -0.78625,-0.787 -0.39223,-0.788 0.39223,-1.173 -0.39223,-2.358 0.39223,-0.394 0.39223,-1.175 -3.5354,-1.573 -2.3552,-1.572 0,-1.175 7.0691,-3.931 0.78624,0.786 1.9647,0.394 0,-0.394 -1.1785,-0.786 0,-0.785 5.4966,-1.965 0.3958,3.93 0,3.141 0.78625,0.394 0,1.177 0.39045,0.392 0.3958,0 0,1.573 13.748,0.394 0.78625,0 0,-0.788 1.5707,0 0,2.357 -0.39401,0 0,3.141 -0.78625,0 0,1.574 -0.78446,0 0,6.283 0.78446,0 0,0.786 m -22.783,-21.999 -0.39223,0.395 0,-0.395 0.39223,0 m -9.426,10.607 0.78446,-0.392 0.39402,0.784 -0.78446,0.396 -0.39401,-0.788 m -15.315,9.426 0.38867,-0.785 0,1.179 2.357,1.572 1.9647,-1.18 0.78446,0.394 0.78625,0.786 0,1.177 1.9629,1.573 3.1432,0.784 -0.78625,1.571 -1.5707,-0.787 -1.1767,0.787 -1.1803,-0.393 -2.3552,-2.749 -1.5725,-0.786 -0.78446,0 -1.5725,0.786 -1.1731,-0.786 0,-0.784 0.78446,-2.359 m 36.918,4.716 0,0.784 -1.1767,0 0.39044,-0.784 0.78625,0" inkscape:connector-curvature="0" style="stroke:#ffffff">
      <title id="title97">Nome, AK</title>
    </path>
    <path id="c02290" d="m 140.41,537.44 -0.39224,0 -0.39044,0.39 0,0.396 -1.5743,0.39 0,0.786 -0.78268,0 -1.5743,0.393 -3.5336,0 -1.9629,0.394 -5.8888,0 0,-0.787 -6.2828,0.393 0,0.784 -3.145,0 0,0.786 -6.6733,0 -0.3958,-0.39 0,-0.786 0.3958,-1.177 -0.78624,0 0,-3.143 0.39044,-3.142 0.3958,-1.18 0.39223,0 0,-2.355 0.39045,0 0,-2.357 0.78625,-0.786 1.5725,0 0.78446,-0.786 0,-0.789 0.78446,0 0,-2.353 -0.78446,0 0,-6.283 0.78446,0 0,-1.574 0.78625,0 0,-3.141 0.39401,0 0,-2.357 -0.78446,0 0,-3.928 2.3552,0 0,-1.569 3.9277,0 0,-3.534 3.1396,0 0,1.568 1.5725,0 0,-1.568 1.5707,0 0.78446,0.783 0,0.785 1.5725,-0.395 0,-2.355 2.3552,0 -0.39401,-0.786 1.5707,-0.784 0.78268,0 0.39579,-1.571 -0.39579,-2.357 -0.78268,-0.786 -1.5707,0 0,-2.354 -1.5689,-1.572 0,-0.786 -0.78446,0 0,-1.963 1.1785,0 18.454,-1.962 0.39758,0 8.2493,-1.576 3.1414,-0.786 -0.78625,-4.318 16.103,-3.928 6.6786,23.174 -0.78623,1.179 0,1.176 -1.1785,1.571 -1.1785,0.394 -1.1785,1.177 -0.39223,0 -0.39402,2.355 -1.1767,0.788 -0.39401,0.786 -0.39224,0.785 0.78625,1.178 -0.78625,1.179 0,0.394 -1.5707,0 -0.39224,-2.751 0.39224,-0.785 -1.9629,0.394 -4.3217,1.569 -0.39223,-0.392 -0.78446,-1.177 -0.39402,0 -0.78446,-0.784 0,-0.788 -0.78625,-0.396 -0.78624,0.396 -0.78625,1.178 -0.78268,0.785 -1.5725,0 -0.39223,0.786 -3.9277,0.786 -0.39402,0 1.1785,5.108 0,0.392 0.78446,0 1.5743,1.961 0.39044,0 -4.7139,0.787 -5.8906,0.786 -1.5707,3.141 -1.182,-0.392 -0.78624,0 -1.1767,1.177 0.39045,1.572 -0.7809,1.571 -2.3605,0.39 0.39223,2.361 1.5707,0.39 0,1.179 -1.5707,4.323 0.39401,3.926 -0.39401,0.787 -0.39223,0" inkscape:connector-curvature="0" style="stroke:#ffffff">
      <title id="title100">Yukon-Koyukuk, AK</title>
    </path>
    </g>
  </svg>
