<svg xmlns:dc="http://purl.org/dc/elements/1.1/" xmlns:cc="http://creativecommons.org/ns#" xmlns:rdf="http://www.w3.org/1999/02/22-rdf-syntax-ns#" xmlns:svg="http://www.w3.org/2000/svg" xmlns="http://www.w3.org/2000/svg" xmlns:sodipodi="http://sodipodi.sourceforge.net/DTD/sodipodi-0.dtd" xmlns:inkscape="http://www.inkscape.org/namespaces/inkscape" width="99.30043999999987" height="103.46299999999991" version="1.0" id="svg2" inkscape:version="0.91 r13725" sodipodi:docname="USA counties.svg">
  <defs id="defs9439"/>
  <sodipodi:namedview pagecolor="#ffffff" bordercolor="#666666" borderopacity="1" objecttolerance="10" gridtolerance="10" guidetolerance="10" inkscape:pageopacity="0" inkscape:pageshadow="2" inkscape:window-width="798" inkscape:window-height="828" id="namedview9437" showgrid="false" showguides="true" inkscape:zoom="0.64950808" inkscape:cx="494.98999" inkscape:cy="313.535" inkscape:window-x="-7" inkscape:window-y="0" inkscape:window-maximized="0" inkscape:current-layer="svg2"/>
  <metadata id="metadata4">
    <rdf:RDF>
      <cc:Work>
        <dc:format>image/svg+xml</dc:format>
        <dc:type rdf:resource="http://purl.org/dc/dcmitype/StillImage"/>
        <dc:title/>
        <cc:license rdf:resource="http://creativecommons.org/publicdomain/zero/1.0/"/>
        <dc:date>2019-10-06</dc:date>
        <dc:creator>
          <cc:Agent>
            <dc:title>U.S. Census Bureau, Abe.suleiman, Lokal_Profil</dc:title>
          </cc:Agent>
        </dc:creator>
        <dc:source>https://commons.wikimedia.org/wiki/File:Usa_counties_large.svg</dc:source>
      </cc:Work>
      <cc:License rdf:about="http://creativecommons.org/publicdomain/zero/1.0/">
        <cc:permits rdf:resource="http://creativecommons.org/ns#Reproduction"/>
        <cc:permits rdf:resource="http://creativecommons.org/ns#Distribution"/>
        <cc:permits rdf:resource="http://creativecommons.org/ns#DerivativeWorks"/>
      </cc:License>
    </rdf:RDF>
  </metadata>
  <style id="style6">
  /*
   * Below are Cascading Style Sheet (CSS) definitions in use in this file,
   * which allow easily changing how counties are displayed.
   *
   *
   * For the U.S. Census county codes (FIPS codes) used in this file to identify individual counties, see this link:
   * https://www2.census.gov/geo/docs/reference/codes/files/national_county.txt
   *
   * The county codes used in this file combine the 2-digit state code, which is in the second column of the file
   * linked above, and the 3-digit county code, which is in the third column of the file linked above. Each value
   * for the "id" attribute for each county is in the following form: "c[state_code][county-code]". For example,
   * for Loving Country in Texas, the state code is "48" and the county code is "301", so the id name for the
   * county is "c48301".
   *
   * County codes used in this file can also be found on Wikimedia Commons at this link:
   * https://commons.wikimedia.org/wiki/File_talk:Usa_counties_large.svg/county_codes
   *
   * Examples:
   *
   * To color two counties red (in this case Loving County and Dallas County in Texas) simply
   * go to the CSS insertion point and add:
   *
   * #c48301, #c48113 {fill:red}
   *
   * To color an entire state's counties (in the case New Mexico, with "35" being the state code) a green,
   * go to the CSS insertion point and add:
   *
   * path[id*='c35'] {fill:#34A853}
   *
   */
  #counties {fill:#d0d0d0;stroke:#000;stroke-width:.17829;} 
  #borders {fill:none;stroke:#221e1f;stroke-width:.89143;} 
  #separator {fill:none;stroke:#a9a9a9;stroke-width:2.3177309;}
 </style>
  <g id="counties" transform="translate(-717.4871400000001,-365.43)" style="fill:#d0d0d0;stroke:#ffffff;stroke-width:0.17828999">
    <path id="c13241" d="m 763.82,365.43 -0.40293,1.831 -1.7044,1.324 -1.2355,2.243 -0.30666,1.737 -1.0976,-0.68276 -0.737,0.47111 -1.2937,-0.0674 -1.2937,-1.7261 -1.474,0.29318 1.396,-4.138 1.2159,-0.194 6.9336,-1.091" inkscape:connector-curvature="0" style="stroke:#ffffff">
      <title id="title1174">Rabun, GA</title>
    </path>
    <path id="c13281" d="m 748.5,367.76 7.1725,-1.045 -1.396,4.138 -0.48315,0.585 -1.815,0.41 -0.0802,-0.578 -0.68284,-1.599 -0.54913,-0.314 -0.54377,0.04 -1.1393,-0.643 -0.59548,-0.571 0.11233,-0.424" inkscape:connector-curvature="0" style="stroke:#ffffff">
      <title id="title1177">Towns, GA</title>
    </path>
    <path id="c13205" d="m 757.67,449.06 0.94671,8.383 -2.209,0.255 -5.0723,0.622 -2.5673,0.318 0.0161,-0.963 0.29417,-0.788 0.10697,-0.168 2.3445,-3.36 2.3641,-1.838 1.0109,-2.026 2.7652,-0.435" inkscape:connector-curvature="0" style="stroke:#ffffff">
      <title id="title1180">Mitchell, GA</title>
    </path>
    <path id="c13007" d="m 749.29,450.27 5.616,-0.778 -1.0109,2.026 -2.3641,1.838 -2.3445,3.36 -0.10697,0.168 -0.29417,0.788 -0.0161,0.963 -0.67749,0.06 -0.80563,-4.0958 -1.6208,0.22484 -0.40115,-4.011 4.0257,-0.547" inkscape:connector-curvature="0" style="stroke:#ffffff">
      <title id="title1183">Baker, GA</title>
    </path>
    <path id="c13201" d="m 745.66,454.83 1.6208,-0.22484 0.80563,4.0958 -3.6478,0.669 -3.7547,0.369 -0.40115,-4.203 4.1559,-0.403 1.2213,-0.247 0,-0.06" inkscape:connector-curvature="0" style="stroke:#ffffff">
      <title id="title1186">Miller, GA</title>
    </path>
    <path id="c13099" d="m 741.53,449.7 0.23354,1.2907 3.4944,-0.1767 0.40115,4.011 0,0.06 -1.2213,0.248 -4.1559,0.402 0.40115,4.203 -1.9469,0.16 -0.21216,-0.458 -0.14619,-0.262 -0.92888,-1.022 -0.14619,-0.04 -0.16938,0 -0.16937,-0.1 -0.19968,-0.465 -0.27278,-1.632 0.1355,-0.595 0.20859,-0.61 0.24247,-4.901 0.42433,0.715 0.44215,-0.05 0.37797,-0.121 0.53842,-0.213 2.669,-0.445" inkscape:connector-curvature="0" style="stroke:#ffffff">
      <title id="title1189">Early, GA</title>
    </path>
    <path id="c13253" d="m 740.69,459.74 3.7547,-0.369 -0.34409,0.843 0.35301,3.423 -0.15155,1.166 -0.61331,1.132 -0.77198,0.499 -0.28169,0.594 -0.0303,0.362 0.20859,0.458 -0.025,0 -3.4695,-6.283 -0.57587,-1.665 1.9469,-0.16" inkscape:connector-curvature="0" style="stroke:#ffffff">
      <title id="title1192">Seminole, GA</title>
    </path>
    <path id="c13087" d="m 751.34,458.32 1.0055,8.886 -9.5294,0.642 -0.20859,-0.458 0.0303,-0.362 0.28169,-0.594 0.77198,-0.499 0.61331,-1.132 0.15155,-1.166 -0.35301,-3.423 0.34409,-0.843 3.6478,-0.669 0.67749,-0.06 2.5673,-0.318" inkscape:connector-curvature="0" style="stroke:#ffffff">
      <title id="title1195">Decatur, GA</title>
    </path>
    <path id="c13131" d="m 756.41,457.69 0.24247,2.259 0.29061,0.628 0.26386,0.33 0.39224,0.378 0.6133,5.501 -3.8991,0.275 -1.9701,0.137 -1.0055,-8.886 5.0723,-0.622" inkscape:connector-curvature="0" style="stroke:#ffffff">
      <title id="title1198">Grady, GA</title>
    </path>
    <path id="c13275" d="m 758.62,457.44 0.0477,0.70829 5.2795,-0.47629 0.98236,8.663 -5.2078,0.355 -1.5083,0.101 -0.6133,-5.501 -0.39224,-0.378 -0.26386,-0.33 -0.29061,-0.628 -0.24247,-2.259 2.209,-0.255" inkscape:connector-curvature="0" style="stroke:#ffffff">
      <title id="title1201">Thomas, GA</title>
    </path>
    <path id="c13027" d="m 769.06,457.13 1.765,4.541 -0.51168,0.561 -0.5723,1.207 -0.0143,0.08 0.74702,1.096 0.31913,0.239 1.7757,0.958 -5.0277,0.346 -2.6119,0.169 -0.98236,-8.663 3.1196,-0.37086 -0.0887,-0.96314 2.0824,0.796" inkscape:connector-curvature="0" style="stroke:#ffffff">
      <title id="title1204">Brooks, GA</title>
    </path>
    <path id="c13071" d="m 767.44,450.49 0.22818,2.7325 -0.69351,3.1165 0.0887,0.96314 -3.1196,0.37086 -5.2795,0.47629 -0.0477,-0.70829 -0.66501,-5.89 6.7268,-0.772 2.7617,-0.289" inkscape:connector-curvature="0" style="stroke:#ffffff">
      <title id="title1207">Colquitt, GA</title>
    </path>
    <path id="c13075" d="m 768.9,449.77 0,0.724 0.12659,0.36 0.12658,0.184 1.0644,0.747 0.312,0.114 1.0985,1.614 0.5079,1.825 0.4582,1.43 -3.5336,0.362 -2.0824,-0.796 0.69351,-3.1165 -0.22818,-2.7325 1.4566,-0.715" inkscape:connector-curvature="0" style="stroke:#ffffff">
      <title id="title1210">Cook, GA</title>
    </path>
    <path id="c13173" d="m 776.94,452.54 1.4726,-0.217 0.98771,7.181 -0.87539,0.581 -0.2496,-1.237 -0.51525,-0.923 -2.6743,0.296 -0.58656,-1.671 -0.11019,-0.80255 0.46822,-0.0585 -0.10126,-1.9989 2.4764,-0.331 0.0143,-0.09 -0.11945,-0.402 -0.1872,-0.328" inkscape:connector-curvature="0" style="stroke:#ffffff">
      <title id="title1213">Lanier, GA</title>
    </path>
    <path id="c13185" d="m 772.59,456.77 1.9059,-0.216 0.58656,1.671 2.6743,-0.296 0.51525,0.923 0.2496,1.237 -2.0267,0.80795 0.4364,4.63 -3.416,0.236 -0.95027,0.06 -1.7757,-0.958 -0.31913,-0.238 -0.74702,-1.097 0.0143,-0.08 0.5723,-1.207 0.51168,-0.561 -1.765,-4.541 3.5336,-0.362" inkscape:connector-curvature="0" style="stroke:#ffffff">
      <title id="title1216">Lowndes, GA</title>
    </path>
    <path id="c13101" d="m 779.4,459.51 2.5477,0.469 0.22464,0.36 0.28883,0.804 0.56338,0.628 0.2817,0.15 0.52238,0.148 0.73811,-0.03 0.39401,-0.06 0.77911,-0.02 1.2944,0.08 0.34587,0.141 0.19969,0.199 0.0713,0.12 0.21751,2.266 -2.0895,0.153 -8.8448,0.608 -0.4364,-4.63 2.0267,-0.80795 0.87539,-0.581" inkscape:connector-curvature="0" style="stroke:#ffffff">
      <title id="title1219">Echols, GA</title>
    </path>
    <path id="c13065" d="m 778.41,452.33 5.8318,-0.794 1.7597,3.003 0.67571,0.683 1.2302,0.916 0.56276,3.1007 1.541,-0.0787 0.40293,2.653 0.37797,2.039 0.33696,0.683 -0.80407,0.06 -2.4586,0.177 -0.21751,-2.266 -0.0713,-0.12 -0.19969,-0.199 -0.34587,-0.141 -1.2944,-0.08 -0.77911,0.02 -0.39401,0.06 -0.73811,0.03 -0.52238,-0.148 -0.2817,-0.15 -0.56338,-0.628 -0.28883,-0.804 -0.22464,-0.36 -2.5477,-0.469 -0.98771,-7.181" inkscape:connector-curvature="0" style="stroke:#ffffff">
      <title id="title1222">Clinch, GA</title>
    </path>
    <path id="c13003" d="m 784.49,447.31 -0.0442,1.9062 -1.3264,-0.0252 1.1192,2.339 -5.8318,0.794 -1.4726,0.217 -0.18364,-0.964 -0.48316,-2.09 -0.89321,-0.69 -0.91283,-0.964 -0.0321,-0.06 -0.041,-0.383 3.5354,-0.412 1.9102,-0.14111 0.6874,0.67411 0.30309,0.296 3.6656,-0.498" inkscape:connector-curvature="0" style="stroke:#ffffff">
      <title id="title1225">Atkinson, GA</title>
    </path>
    <path id="c13019" d="m 774.12,446.24 0.27456,1.159 0.041,0.383 0.0321,0.06 0.91283,0.964 0.89321,0.69 0.48316,2.09 0.18364,0.964 0.1872,0.328 0.11945,0.401 -0.0143,0.09 -2.4764,0.331 0.10126,1.9989 -0.46822,0.0585 0.11019,0.80255 -1.9059,0.216 -0.4582,-1.43 -0.5079,-1.825 -1.0985,-1.614 -0.312,-0.114 -1.0644,-0.748 -0.12658,-0.183 -0.12659,-0.36 0,-0.724 1.478,-3.127 3.7422,-0.41" inkscape:connector-curvature="0" style="stroke:#ffffff">
      <title id="title1228">Berrien, GA</title>
    </path>
    <path id="c13155" d="m 776.34,441.25 -2.2268,4.982 -3.7422,0.41 -3.5033,-2.264 0.42433,-3.866 1.601,-0.192 0.9037,-0.046 0.19634,1.668 1.1438,-0.034 0.0828,0.48296 1.7294,-0.169 -0.0577,-0.49575 1.1666,-0.0741 2.2821,-0.40219" inkscape:connector-curvature="0" style="stroke:#ffffff">
      <title id="title1231">Irwin, GA</title>
    </path>
    <path id="c13277" d="m 764.06,445.34 -0.11687,-0.69865 2.9302,-0.26335 3.5033,2.264 -1.478,3.127 -1.4566,0.715 -2.7617,0.289 -0.62043,-5.433" inkscape:connector-curvature="0" style="stroke:#ffffff">
      <title id="title1234">Tift, GA</title>
    </path>
    <path id="c13321" d="m 757.62,439.68 2.7724,0.674 0.0874,0.06 0.14441,0.908 0.41898,3.15 1.5261,-0.178 0.16937,0.06 0.58479,0.386 0.31197,0.68539 0.42079,-0.0764 0.62043,5.433 -6.7268,0.772 -0.2817,-2.493 -0.9984,-4.667 -0.21639,-2.5027 1.1667,-2.2063" inkscape:connector-curvature="0" style="stroke:#ffffff">
      <title id="title1237">Worth, GA</title>
    </path>
    <path id="c13095" d="m 751.34,445.71 4.7986,-0.73185 0.5375,-0.59215 0.9984,4.667 -2.7652,0.435 -5.616,0.778 -0.9057,-4.185 2.9524,-0.371" inkscape:connector-curvature="0" style="stroke:#ffffff">
      <title id="title1240">Dougherty, GA</title>
    </path>
    <path id="c13037" d="m 746.51,446.32 1.8738,-0.241 0.9057,4.185 -4.0257,0.547 -3.4944,0.1767 -0.23354,-1.2907 -0.28169,-2.719 5.2559,-0.658" inkscape:connector-curvature="0" style="stroke:#ffffff">
      <title id="title1243">Calhoun, GA</title>
    </path>
    <path id="c13061" d="m 734.61,444.04 3.4962,-0.348 0.58421,3.493 2.5661,-0.198 0.28169,2.719 -2.669,0.445 -0.53842,0.213 -0.37797,0.121 -0.44215,0.05 -0.42433,-0.715 -2.1377,-5.329 -0.33874,-0.449" inkscape:connector-curvature="0" style="stroke:#ffffff">
      <title id="title1246">Clay, GA</title>
    </path>
    <path id="c13239" d="m 735.51,439.1 3.1913,1.118 0.22969,3.3655 -0.8323,0.10548 -3.4962,0.348 0.90748,-4.937" inkscape:connector-curvature="0" style="stroke:#ffffff">
      <title id="title1249">Quitman, GA</title>
    </path>
    <path id="c13243" d="m 743.58,439.74 1.084,-0.13 0.33696,3.393 0.68284,0.273 0.87717,1.631 0.0642,0.786 -0.0642,0.451 -0.0481,0.177 -5.2559,0.658 -2.5661,0.186 -0.58421,-3.481 0.8323,-0.10548 -0.22969,-3.3655 4.8708,-0.473" inkscape:connector-curvature="0" style="stroke:#ffffff">
      <title id="title1252">Randolph, GA</title>
    </path>
    <path id="c13273" d="m 751,444.15 0.3334,1.558 -2.9524,0.371 -1.8738,0.241 0.0481,-0.177 0.0642,-0.451 -0.0642,-0.786 -0.87717,-1.631 -0.68284,-0.273 -0.33696,-3.393 2.8699,-0.37723 0.006,-1.0758 2.3052,1.904 1.1284,0.39381 0.49972,1.1971 -0.40838,0.60337 -0.0591,1.8957 -8e-5,0 z" inkscape:connector-curvature="0" style="stroke:#ffffff">
      <title id="title1255">Terrell, GA</title>
    </path>
    <path id="c13177" d="m 757.77,438.19 -0.14441,1.494 -1.1667,2.2063 0.21639,2.5027 -0.5375,0.59215 -4.7986,0.73185 -0.3334,-1.558 0.0591,-1.8957 0.40838,-0.60337 -0.49972,-1.1971 -1.1284,-0.39381 -0.11767,-0.982 8.0425,-0.897" inkscape:connector-curvature="0" style="stroke:#ffffff">
      <title id="title1258">Lee, GA</title>
    </path>
    <path id="c13081" d="m 756.67,435.56 6.7927,-0.82 0.46533,3.985 0.14109,1.2199 -3.6765,0.41109 -2.7724,-0.674 0.14441,-1.494 -1.0947,-2.628" inkscape:connector-curvature="0" style="stroke:#ffffff">
      <title id="title1261">Crisp, GA</title>
    </path>
    <path id="c13287" d="m 763.93,438.72 2.5709,-0.184 0.79516,1.977 -0.42433,3.866 -2.9302,0.26335 0.11687,0.69865 -0.42079,0.0764 -0.31197,-0.68539 -0.58479,-0.386 -0.16937,-0.06 -1.5261,0.178 -0.41898,-3.15 -0.14441,-0.908 -0.0874,-0.06 3.6765,-0.41109 -0.14109,-1.2199" inkscape:connector-curvature="0" style="stroke:#ffffff">
      <title id="title1264">Turner, GA</title>
    </path>
    <path id="c13017" d="m 766.5,438.54 5.8407,-0.797 3.7208,1.061 0.28169,2.451 -2.2821,0.40219 -1.1666,0.0741 0.0577,0.49575 -1.7294,0.169 -0.0828,-0.48296 -1.1438,0.034 -0.19634,-1.668 -0.9037,0.046 -1.601,0.192 -0.79516,-1.977" inkscape:connector-curvature="0" style="stroke:#ffffff">
      <title id="title1267">Ben Hill, GA</title>
    </path>
    <path id="c13069" d="m 776.06,438.8 2.9649,-1.244 0.45107,3.303 4.0489,-0.595 0.34765,2.61 0.62579,-0.08 0.26565,2.025 -0.66629,0.0639 0.39351,2.4281 -3.6656,0.498 -0.30309,-0.296 -0.6874,-0.67411 -1.9102,0.14111 -3.5354,0.412 -0.27456,-1.159 2.2268,-4.982 -0.28169,-2.451" inkscape:connector-curvature="0" style="stroke:#ffffff">
      <title id="title1270">Coffee, GA</title>
    </path>
    <path id="c13005" d="m 785.45,439.11 1.494,0.827 0.91462,0.474 1.2944,0.337 2.2268,1.102 0.19434,0.208 0.16759,0.33 -0.2496,0.04 -1.0519,1.021 0.0802,0.578 -0.73276,0.98 -1.4263,0.523 -1.5304,0.0268 -0.38905,-0.86994 -1.6748,0.13513 -0.26565,-2.025 -0.62579,0.08 -0.34765,-2.61 2.0768,-0.23222 -0.15483,-0.92478" inkscape:connector-curvature="0" style="stroke:#ffffff">
      <title id="title1273">Bacon, GA</title>
    </path>
    <path id="c13305" d="m 794.19,435.13 1.6616,0.635 6.7589,4.813 1.0537,1.831 -1.6456,3.119 -0.69532,-0.305 -0.77734,-0.259 -0.91639,0.36 -1.3906,0.403 -2.1608,-0.151 -0.20859,-0.137 -0.97572,-2.0035 -1.1388,0.0345 -1.0198,-6.878 0.73098,-1.205 0.72384,-0.257" inkscape:connector-curvature="0" style="stroke:#ffffff">
      <title id="title1276">Wayne, GA</title>
    </path>
    <path id="c13229" d="m 791.74,442.39 2.0164,1.084 1.1388,-0.0345 0.97572,2.0035 1.1553,1.351 -0.0464,0.497 -0.25851,0.289 -3.2216,2.179 -0.0571,0 -1.8078,-0.243 -2.2082,-1.0545 -1.0669,-2.9295 1.4263,-0.523 0.73276,-0.98 -0.0802,-0.578 1.0519,-1.021 0.2496,-0.04" inkscape:connector-curvature="0" style="stroke:#ffffff">
      <title id="title1279">Pierce, GA</title>
    </path>
    <path id="c13025" d="m 802.02,445.53 -0.13015,3.753 -1.0751,1.583 -1.248,0.394 -0.34588,0.16 -0.12124,0.195 -0.0945,0.93 -2.5245,-0.274 -0.16937,1.542 -0.99485,0.137 -2.1025,-1.7612 -0.22746,-1.5574 -1.4503,-0.3753 0.0986,-0.74215 1.8078,0.243 0.0571,0 3.2216,-2.179 0.25851,-0.289 0.0464,-0.497 -1.1553,-1.351 0.20859,0.137 2.1608,0.151 1.3906,-0.403 0.91639,-0.36 0.77734,0.259 0.69532,0.305" inkscape:connector-curvature="0" style="stroke:#ffffff">
      <title id="title1282">Brantley, GA</title>
    </path>
    <path id="c13299" d="m 784.77,444.82 1.6748,-0.13513 0.38905,0.86994 1.5304,-0.0268 1.0669,2.9295 2.2082,1.0545 -0.0986,0.74215 1.4503,0.3753 0.22746,1.5574 2.1025,1.7612 -5.5447,0.749 0.62579,4.981 4.7496,-0.586 0.57052,0.06 -0.55447,5.128 -4.0346,0.247 -0.33696,-0.682 -0.37797,-2.04 -0.40293,-2.653 -1.541,0.0787 -0.56276,-3.1007 -1.2302,-0.916 -0.67571,-0.683 -1.7597,-3.003 -1.1192,-2.339 1.3264,0.0252 0.0442,-1.9062 -0.39351,-2.4281 0.66629,-0.0639" inkscape:connector-curvature="0" style="stroke:#ffffff">
      <title id="title1285">Ware, GA</title>
    </path>
    <path id="c13049" d="m 799.01,452.54 1.3478,5.046 -2.1501,1.253 -0.17116,2.484 0.0874,0.474 0.30665,0.465 0.60261,0.788 0.25852,0.706 0.0143,1.537 -0.10519,1.573 -0.10341,1.592 -2.25,0.435 -0.13015,-0.03 -0.40828,-0.321 -0.36905,-0.529 -0.19433,-0.514 -0.57765,-3.221 0.55447,-5.128 -0.57052,-0.06 -4.7496,0.586 -0.62579,-4.981 5.5447,-0.749 0.99485,-0.137 0.16937,-1.542 2.5245,0.274" inkscape:connector-curvature="0" style="stroke:#ffffff">
      <title id="title1288">Charlton, GA</title>
    </path>
    <path id="c13039" d="m 808.6,451.84 1.1642,6.94 -0.30309,0.03 -1.6723,0.202 -1.223,0.06 -2.3124,-0.257 -3.063,-0.658 -0.83617,-0.563 -1.3478,-5.046 0.0945,-0.93 0.12124,-0.195 0.34588,-0.16 1.248,-0.394 1.0751,-1.583 0.0731,0.272 0.0624,0.09 1.5814,0.485 0.92531,0.04 4.0667,1.673" inkscape:connector-curvature="0" style="stroke:#ffffff">
      <title id="title1291">Camden, GA</title>
    </path>
    <path id="c13127" d="m 811.07,444.98 -2.4746,6.854 -4.0667,-1.673 -0.92531,-0.04 -1.5814,-0.485 -0.0624,-0.09 -0.0731,-0.272 0.13015,-3.753 1.6456,-3.119 0.0143,0.07 1.0519,0.994 1.3425,0.812 2.7331,0.524 1.9433,0.24 0.3227,-0.07" inkscape:connector-curvature="0" style="stroke:#ffffff">
      <title id="title1294">Glynn, GA</title>
    </path>
    <path id="c13191" d="m 805.37,436.42 0.63471,0.184 0.95561,0.669 0.49921,0.119 1.4067,-0.595 1.059,0.04 0.56338,0.184 0.35301,0.169 0.64184,0.53 0.0802,0.16 0.0267,0.635 -0.51525,6.47 -0.3227,0.07 -1.9433,-0.24 -2.7331,-0.524 -1.3425,-0.812 -1.0519,-0.994 -0.0143,-0.07 -1.0537,-1.831 1.582,-1.3886 1.1744,-2.7744" inkscape:connector-curvature="0" style="stroke:#ffffff">
      <title id="title1297">McIntosh, GA</title>
    </path>
    <path id="c13149" d="m 732.61,406.07 1.9932,4.436 -5.4164,2.836 -1.8631,-6.725 5.2862,-0.547" inkscape:connector-curvature="0" style="stroke:#ffffff">
      <title id="title1300">Heard, GA</title>
    </path>
    <path id="c13143" d="m 724.35,395.94 2.2108,-0.207 1.059,-0.265 3.0719,-0.314 0.47246,2.098 -0.0292,2.2619 -1.4006,0.5181 -2.9096,1.438 -0.91639,0.08 -1.5582,-5.611" inkscape:connector-curvature="0" style="stroke:#ffffff">
      <title id="title1303">Haralson, GA</title>
    </path>
    <path id="c13233" d="m 730.24,390.74 2.3694,0.05 -0.69532,3.133 -1.3461,0.13 0.12302,1.1 -3.0719,0.313 -1.059,0.266 -2.2108,0.207 -0.39401,-1.405 -0.73098,-2.628 3.0862,-0.314 -0.0339,-0.385 3.9633,-0.465" inkscape:connector-curvature="0" style="stroke:#ffffff">
      <title id="title1306">Polk, GA</title>
    </path>
    <path id="c13115" d="m 728.52,379.52 -0.21287,4.0544 1.9173,0.28562 0.12836,1.044 0.007,3.112 -0.3851,0.04 0.26564,2.692 -3.9633,0.465 0.0339,0.385 -3.0862,0.314 -1.2854,-4.644 1.4067,-0.145 0.99484,-2.2 0.98771,-0.565 1.503,-1.118 0.15332,-0.465 0.81121,-3.174 0.72384,-0.08" inkscape:connector-curvature="0" style="stroke:#ffffff">
      <title id="title1309">Floyd, GA</title>
    </path>
    <path id="c13055" d="m 727.79,379.6 -0.81121,3.174 -0.15332,0.465 -1.503,1.118 -0.98771,0.565 -0.99484,2.2 -1.4067,0.145 -1.5761,-5.351 -0.40827,-1.454 7.8411,-0.862" inkscape:connector-curvature="0" style="stroke:#ffffff">
      <title id="title1312">Chattooga, GA</title>
    </path>
    <path id="c13313" d="m 729.17,370.12 3.0933,-0.362 -0.37975,1.478 0.0662,4.3664 -1.2447,0.76155 -0.0588,0.765 0.6454,0.978 -2.5174,0.564 -0.26565,-2.234 -2.209,0.24 0.025,-0.192 0.30487,-0.941 0.2086,-1.238 1.1749,-0.353 0.44037,-0.909 0.7078,-2.571 -0.0481,-0.344 0.0571,0" inkscape:connector-curvature="0" style="stroke:#ffffff">
      <title id="title1315">Whitfield, GA</title>
    </path>
    <path id="c13047" d="m 723.81,370.79 5.2969,-0.665 0.0481,0.344 -0.7078,2.571 -0.44037,0.909 -1.1749,0.353 -0.2086,1.238 -1.072,0.17183 -0.33466,-1.8839 -1.072,0.16434 -0.33466,-3.2023" inkscape:connector-curvature="0" style="stroke:#ffffff">
      <title id="title1318">Catoosa, GA</title>
    </path>
    <path id="c13295" d="m 723.81,370.79 0.33466,3.2023 1.072,-0.16434 0.33466,1.8839 1.072,-0.17183 -0.30487,0.941 -0.025,0.192 2.209,-0.24 0.26565,2.234 -0.25674,0.85 -0.72384,0.08 -7.8411,0.862 -0.22465,-0.79 0.69711,-1.147 0.52238,-2.146 -0.10163,-0.869 0.42433,-2.626 0.71493,-1.841 1.831,-0.25" inkscape:connector-curvature="0" style="stroke:#ffffff">
      <title id="title1321">Walker, GA</title>
    </path>
    <path id="c13083" d="m 721.98,371.04 -0.71493,1.841 -0.42433,2.627 0.10163,0.868 -0.52238,2.146 -0.69711,1.147 -1.5119,-5.344 -0.72384,-2.811 2.4746,-0.257 2.0182,-0.217" inkscape:connector-curvature="0" style="stroke:#ffffff">
      <title id="title1324">Dade, GA</title>
    </path>
    <path id="c13183" d="m 797.87,430.21 0.49029,0.595 1.1498,0.27778 -0.073,1.9082 0.0553,0.248 2.7492,2.123 2.9649,1.067 0.16045,0 -1.1744,2.7744 -1.582,1.3886 -6.7589,-4.814 2.0182,-5.561" inkscape:connector-curvature="0" style="stroke:#ffffff">
      <title id="title1327">Long, GA</title>
    </path>
    <path id="c13001" d="m 790.5,433.67 3.6888,1.464 -0.72384,0.257 -0.73098,1.205 1.0198,6.878 -2.0164,-1.084 -0.16759,-0.33 -0.19434,-0.208 -2.2268,-1.102 -1.2944,-0.337 -0.91462,-0.474 -1.494,-0.827 -0.39402,-2.919 1.7187,-0.232 -0.31378,-2.3 -0.10876,-0.624 4.1523,0.633" inkscape:connector-curvature="0" style="stroke:#ffffff">
      <title id="title1330">Appling, GA</title>
    </path>
    <path id="c13161" d="m 786.35,433.03 0.10876,0.624 0.31378,2.3 -1.7187,0.232 0.39402,2.919 0.15483,0.92478 -2.0768,0.23222 -4.0489,0.595 -0.45107,-3.303 3.3518,-2.853 1.8399,-1.198 1.166,-0.442 0.96631,-0.03" inkscape:connector-curvature="0" style="stroke:#ffffff">
      <title id="title1333">Jeff Davis, GA</title>
    </path>
    <path id="c13259" d="m 742.66,432.6 0.18364,-0.03 0.19255,0.162 0.15332,1.307 0.12837,1.551 -0.007,1.673 0.26565,2.483 -4.8708,0.473 -3.1913,-1.118 -0.0535,-1.719 2.0895,-4.127 5.1097,-0.651" inkscape:connector-curvature="0" style="stroke:#ffffff">
      <title id="title1336">Stewart, GA</title>
    </path>
    <path id="c13307" d="m 742.84,432.57 0.54734,-0.06 1.6064,1.152 0.41719,0.504 0.88431,0.28 1.0127,-0.114 0.22464,3.835 -0.006,1.0758 -2.8699,0.37723 -1.084,0.13 -0.26565,-2.483 0.007,-1.673 -0.12837,-1.551 -0.15332,-1.307 -0.19255,-0.162" inkscape:connector-curvature="0" style="stroke:#ffffff">
      <title id="title1339">Webster, GA</title>
    </path>
    <path id="c13261" d="m 751.8,431.33 0.75686,-0.003 0.10953,0.77856 2.0994,0.32142 1.9088,3.1277 1.0947,2.628 -8.0425,0.897 0.11767,0.982 -2.3052,-1.904 -0.22464,-3.835 -0.0642,-0.738 4.6411,-0.7511 -0.0915,-1.504" inkscape:connector-curvature="0" style="stroke:#ffffff">
      <title id="title1342">Sumter, GA</title>
    </path>
    <path id="c13315" d="m 768.47,432.27 3.1664,4.348 0.70602,1.123 -5.8407,0.797 -2.5709,0.184 -0.46533,-3.985 -0.25138,-2.056 2.2767,-0.299 1.0269,-0.303 0.34766,-0.234 0.80408,-0.08 0.21394,0.05 0.58657,0.458" inkscape:connector-curvature="0" style="stroke:#ffffff">
      <title id="title1345">Wilcox, GA</title>
    </path>
    <path id="c13271" d="m 776.26,430.53 6.1224,4.177 -3.3518,2.853 -2.9649,1.244 -3.7208,-1.061 -0.70602,-1.123 4.6212,-6.09" inkscape:connector-curvature="0" style="stroke:#ffffff">
      <title id="title1348">Telfair, GA</title>
    </path>
    <path id="c13309" d="m 779.66,426 1.3068,0.08 0.17829,0.03 0.16045,0.456 0.68284,2.298 0.14798,1.224 0.57587,1.814 0.19968,0.352 0.0874,0.146 1.223,1.109 -1.8399,1.198 -6.1224,-4.177 0.6347,-1.505 2.7652,-3.02" inkscape:connector-curvature="0" style="stroke:#ffffff">
      <title id="title1351">Wheeler, GA</title>
    </path>
    <path id="c13091" d="m 767.78,428.49 0.91887,-1.3438 -0.46702,-0.36553 2.1638,-2.8506 0.9037,0.57596 3.7048,5.905 1.8881,-1.391 -0.6347,1.505 -4.6212,6.09 -3.1664,-4.348 0.48137,-0.53 0.0571,-0.185 0.12124,-1.077 -1.8096,-1.398 0.45999,-0.587" inkscape:connector-curvature="0" style="stroke:#ffffff">
      <title id="title1354">Dodge, GA</title>
    </path>
    <path id="c13235" d="m 767.78,428.49 -0.45999,0.587 1.8096,1.398 -0.12124,1.077 -0.0571,0.185 -0.48137,0.53 -0.58657,-0.459 -0.21394,-0.05 -0.80408,0.08 -0.34766,0.234 -1.0269,0.303 -2.2767,0.299 -0.64897,-3.874 1.1976,-2.9748 0.71361,0.0908 3.3037,2.57" inkscape:connector-curvature="0" style="stroke:#ffffff">
      <title id="title1357">Pulaski, GA</title>
    </path>
    <path id="c13093" d="m 762.56,428.81 0.64897,3.874 0.25138,2.056 -6.7927,0.82 -1.9088,-3.1277 1.0662,-2.1776 2.2494,-0.91374 4.4857,-0.531" inkscape:connector-curvature="0" style="stroke:#ffffff">
      <title id="title1360">Dooly, GA</title>
    </path>
    <path id="c13193" d="m 754.19,424.82 1.7026,-0.14746 1.7026,0.60546 0.48137,4.059 -2.2494,0.91374 -1.0662,2.1776 -2.0994,-0.32142 -0.10953,-0.77856 -0.75686,0.003 -0.85487,0.008 -0.29017,-1.4169 -0.63974,0.0621 0.0325,-1.5244 -0.1292,-0.78492 0.97331,-0.19333 0.62374,-1.6185 0.48928,-0.86559 1.4731,-0.45064 0.71671,0.273" inkscape:connector-curvature="0" style="stroke:#ffffff">
      <title id="title1363">Macon, GA</title>
    </path>
    <path id="c13249" d="m 747.88,428.13 2.1626,0.33 -0.0325,1.5244 0.63974,-0.0621 0.29017,1.4169 0.85487,-0.008 0.0915,1.504 -4.6411,0.7511 -0.16938,-1.508 -0.0282,-1.4625 0.60051,-0.12954 -0.37083,-2.66 z" inkscape:connector-curvature="0" style="stroke:#ffffff">
      <title id="title1366">Schley, GA</title>
    </path>
    <path id="c13197" d="m 742.24,425.63 3.6228,-1.068 1.4138,3.263 0.37083,2.66 -0.60051,0.12954 0.0282,1.4625 0.16938,1.508 0.0642,0.738 -1.0127,0.114 -0.88431,-0.28 -0.41719,-0.504 -1.6064,-1.152 -0.54734,0.06 -0.18364,0.03 -0.85396,-6.2004 0.43351,-0.0347 0.003,-0.73386" inkscape:connector-curvature="0" style="stroke:#ffffff">
      <title id="title1369">Marion, GA</title>
    </path>
    <path id="c13053" d="m 742.24,425.63 -0.003,0.73386 -0.43351,0.0347 0.85396,6.2004 -5.1097,0.651 0.0464,-0.07 0.16046,-0.724 -0.19255,-0.383 -0.47424,-0.396 -1.2765,-0.344 -0.12123,-0.136 -0.041,-0.194 0.21573,-0.82 1.9879,-1.054 2.1127,-0.602 0.58374,-2.0077 0.63752,-0.39429 1.0537,-0.499" inkscape:connector-curvature="0" style="stroke:#ffffff">
      <title id="title1372">Chattahoochee, GA</title>
    </path>
    <path id="c13215" d="m 733.49,424.97 3.3678,-0.385 0.0642,0.554 4.0828,-0.499 0.18542,1.496 -0.63752,0.39429 -0.58374,2.0077 -2.1127,0.602 -1.9879,1.054 -0.53486,-3.174 -1.8435,-2.05" inkscape:connector-curvature="0" style="stroke:#ffffff">
      <title id="title1375">Muscogee, GA</title>
    </path>
    <path id="c13269" d="m 748.36,419.95 1.765,1.116 2.3008,0.35405 0.63948,1.8173 1.3386,1.0106 -0.93422,0.305 -1.4731,0.45064 -0.48928,0.86559 -0.62373,1.6185 -0.97332,0.19333 0.1292,0.78492 -2.1626,-0.33 -0.60261,-0.304 -1.4138,-3.263 2.4996,-4.619" inkscape:connector-curvature="0" style="stroke:#ffffff">
      <title id="title1378">Taylor, GA</title>
    </path>
    <path id="c13263" d="m 743.78,417.39 0.17115,-0.07 0.41541,0.1 1.3015,0.836 0.30665,0.392 0.2389,0.468 0.0481,0.169 0.17651,0.137 0.9574,0.36 0.97344,0.163 -2.4996,4.619 -3.6228,1.068 -1.0537,0.499 -0.18542,-1.496 -0.82012,-5.953 2.3878,-0.35221 1.2047,-0.94379" inkscape:connector-curvature="0" style="stroke:#ffffff">
      <title id="title1381">Talbot, GA</title>
    </path>
    <path id="c13145" d="m 737.03,418.41 1.7401,-0.26635 1.4174,0.54035 0.82012,5.953 -4.0828,0.499 -0.0642,-0.554 -3.3678,0.385 -1.3889,-3.059 -1.2284,-2.735 6.1545,-0.763" inkscape:connector-curvature="0" style="stroke:#ffffff">
      <title id="title1384">Harris, GA</title>
    </path>
    <path id="c13285" d="m 734.61,410.51 1.544,-0.15813 0.87539,8.0561 -6.1545,0.763 -1.544,-5.343 -0.13728,-0.482 5.4164,-2.836" inkscape:connector-curvature="0" style="stroke:#ffffff">
      <title id="title1387">Troup, GA</title>
    </path>
    <path id="c13045" d="m 731.16,397.25 2.66,0.417 0.51982,4.3271 1.7944,0.21388 -0.33613,1.0615 -3.185,2.8025 -5.2862,0.547 -0.34588,-1.239 -1.0768,-3.831 0.91639,-0.08 2.9096,-1.438 1.4006,-0.5181 0.0292,-2.2619" inkscape:connector-curvature="0" style="stroke:#ffffff">
      <title id="title1390">Carroll, GA</title>
    </path>
    <path id="c13223" d="m 732.61,390.79 3.4873,-0.339 0.32983,3.029 0.30844,-0.04 0.35122,3.254 -3.2626,0.973 -2.66,-0.417 -0.47246,-2.098 -0.12302,-1.1 1.3461,-0.13 0.69532,-3.133" inkscape:connector-curvature="0" style="stroke:#ffffff">
      <title id="title1393">Paulding, GA</title>
    </path>
    <path id="c13213" d="m 735.77,369.32 0.4172,3.043 0.72384,0.555 0.0481,0.07 -0.007,0.07 -0.40293,0.692 -0.49742,0.545 -0.22464,1.061 0.44928,3.336 -4.9885,-0.596 -0.6454,-0.978 0.0588,-0.765 1.2447,-0.76155 -0.0662,-4.3664 0.37975,-1.478 0.64005,-0.08 2.8704,-0.351" inkscape:connector-curvature="0" style="stroke:#ffffff">
      <title id="title1396">Murray, GA</title>
    </path>
    <path id="c13129" d="m 731.29,378.1 4.9885,0.596 0.0963,0.786 0.39402,3.127 -6.5485,1.245 -1.9173,-0.28562 0.21287,-4.0544 0.25674,-0.85 2.5174,-0.564" inkscape:connector-curvature="0" style="stroke:#ffffff">
      <title id="title1399">Gordon, GA</title>
    </path>
    <path id="c13015" d="m 736.77,382.61 0.8112,7.697 -4.9742,0.483 -2.3694,-0.05 -0.26564,-2.692 0.3851,-0.04 -0.007,-3.111 -0.12836,-1.045 6.5485,-1.245" inkscape:connector-curvature="0" style="stroke:#ffffff">
      <title id="title1402">Bartow, GA</title>
    </path>
    <path id="c13067" d="m 737.58,390.31 4.5321,-0.442 0.76485,1.727 -0.67749,2.798 -0.21573,0.898 -0.11232,0.332 -1.1874,1.492 -0.65253,0.685 -1.0979,-1.3621 -1.851,0.26006 -0.35122,-3.254 -0.30844,0.04 -0.32983,-3.029 1.4869,-0.144" inkscape:connector-curvature="0" style="stroke:#ffffff">
      <title id="title1405">Cobb, GA</title>
    </path>
    <path id="c13097" d="m 733.82,397.67 3.2626,-0.973 1.851,-0.26006 1.0979,1.3621 -1.191,1.906 -1.7989,1.139 -0.73098,0.843 -0.15333,0.227 -0.0232,0.297 -1.7944,-0.21388 -0.51982,-4.3271" inkscape:connector-curvature="0" style="stroke:#ffffff">
      <title id="title1408">Douglas, GA</title>
    </path>
    <path id="c13077" d="m 735.8,403.27 3.8325,-0.28337 0.47234,0.41183 0.27456,2.378 1.2284,1.171 0.86113,1.061 0.44215,0.747 0.0143,0.843 -6.7731,0.75187 -1.544,0.15813 -1.9932,-4.436 3.185,-2.8025" inkscape:connector-curvature="0" style="stroke:#ffffff">
      <title id="title1411">Coweta, GA</title>
    </path>
    <path id="c13199" d="m 743.13,410.45 0.0232,4.939 0.62757,1.993 -1.2047,0.94379 -2.3878,0.35221 -1.4174,-0.54035 -1.7401,0.26635 -0.87539,-8.0561 6.7731,-0.75187 0.20146,0.854" inkscape:connector-curvature="0" style="stroke:#ffffff">
      <title id="title1414">Meriwether, GA</title>
    </path>
    <path id="c13231" d="m 743.13,410.45 0.79516,-0.693 1.1,-0.118 0.43502,0.376 2.3837,-0.272 0.14798,4.581 -4.3017,0.37116 -0.53704,0.69384 -0.0232,-4.939" inkscape:connector-curvature="0" style="stroke:#ffffff">
      <title id="title1417">Pike, GA</title>
    </path>
    <path id="c13293" d="m 747.99,414.33 2.7463,-0.3361 0.21861,1.3311 0.21573,1.897 -0.0174,1.0409 -0.39386,0.0998 -0.62638,2.7003 -1.765,-1.116 -0.97344,-0.163 -0.9574,-0.36 -0.17651,-0.137 -0.0481,-0.17 -0.2389,-0.467 -0.30665,-0.392 -1.3015,-0.836 -0.41541,-0.1 -0.17115,0.07 -0.62757,-1.993 0.53704,-0.69384 4.3017,-0.37116" inkscape:connector-curvature="0" style="stroke:#ffffff">
      <title id="title1420">Upson, GA</title>
    </path>
    <path id="c13079" d="m 751.17,417.22 4.4358,-0.531 1.6272,2.1157 1.7004,1.066 -0.692,0.0701 -3.8301,4.2952 -1.3386,-1.0109 -0.63948,-1.8176 -2.3008,-0.35455 0.62638,-2.6998 0.39386,-0.0995 0.0174,-1.0407" inkscape:connector-curvature="0" style="stroke:#ffffff">
      <title id="title1423">Crawford, GA</title>
    </path>
    <path id="c13225" d="m 754.41,424.24 3.8301,-4.3024 1.4793,-0.14255 0.11589,3.698 -0.0285,0.255 -1.4127,0.33084 0.20032,1.5502 -0.35301,0.225 -0.19255,0.04 -0.45106,-0.62 -1.7026,-0.60546 -1.7026,0.14746 -0.71733,-0.273 0.93484,-0.305" inkscape:connector-curvature="0" style="stroke:#ffffff">
      <title id="title1426">Peach, GA</title>
    </path>
    <path id="c13153" d="m 759.72,419.8 2.0628,0.378 0.61004,-0.007 0.82516,2.8971 0.95962,0.79967 0.1529,0.90724 0.1462,1.157 -0.71361,-0.0907 -1.1976,2.9748 -4.4857,0.532 -0.48137,-4.06 0.45106,0.62 0.19255,-0.04 0.35301,-0.225 -0.20029,-1.559 1.4126,-0.32202 0.0285,-0.255 -0.11589,-3.698" inkscape:connector-curvature="0" style="stroke:#ffffff">
      <title id="title1429">Houston, GA</title>
    </path>
    <path id="c13023" d="m 771.3,424.51 -0.9037,-0.57596 -2.1638,2.8506 0.46702,0.36553 -0.91887,1.3438 -3.3037,-2.571 -0.1462,-1.157 4.7906,-3.713 2.1787,3.457" inkscape:connector-curvature="0" style="stroke:#ffffff">
      <title id="title1432">Bleckley, GA</title>
    </path>
    <path id="c13175" d="m 769.12,421.05 4.7656,-3.536 1.7775,-0.426 1.5582,0.458 -0.10424,0.81878 2.586,0.57422 0.16937,2.03 0.55447,0.188 -0.21293,0.98681 -1.1097,2.9434 0.55241,0.91384 -2.7652,3.02 -1.8881,1.391 -3.7048,-5.905 -2.1787,-3.457" inkscape:connector-curvature="0" style="stroke:#ffffff">
      <title id="title1435">Laurens, GA</title>
    </path>
    <path id="c13319" d="m 765.57,413.57 3.4695,-2.195 0.28883,-0.239 0.28882,0.02 1.2962,1.22 1.0341,1.697 0.8629,0.298 0.32092,0.199 0.51347,0.806 0.27278,0.945 -0.0321,1.198 -4.7656,3.536 -4.4108,-6.716 0.86113,-0.765" inkscape:connector-curvature="0" style="stroke:#ffffff">
      <title id="title1438">Wilkinson, GA</title>
    </path>
    <path id="c13289" d="m 762.85,415.83 1.8631,-1.492 4.4108,6.716 -4.7906,3.713 -0.1529,-0.90699 -0.95962,-0.79942 -0.82516,-2.8969 -0.61004,0.007 -0.33382,-1.5672 0.47288,-0.16885 1.2373,-1.6 0.19968,-0.586 -0.51169,-0.419" inkscape:connector-curvature="0" style="stroke:#ffffff">
      <title id="title1441">Twiggs, GA</title>
    </path>
    <path id="c13021" d="m 758.76,413.85 0.38688,0.787 0.8023,0.565 1.1464,-0.145 0.66858,0.152 1.0786,0.617 0.51169,0.419 -0.19968,0.586 -1.2373,1.6 -0.47288,0.16885 0.33382,1.5672 -2.0628,-0.378 -0.78728,0.0798 -1.7004,-1.0661 -1.6272,-2.1157 3.1592,-2.837" inkscape:connector-curvature="0" style="stroke:#ffffff">
      <title id="title1444">Bibb, GA</title>
    </path>
    <path id="c13009" d="m 766.36,407.38 0.39402,-0.04 3.0683,0.407 0.0606,0.09 0.0125,0.136 -0.0232,0.185 -0.10519,0.07 -0.0713,0.193 -0.0749,0.852 0.0588,0.191 0.40293,0.604 0.47781,-0.403 0.34766,-0.424 0.009,3.124 -1.2962,-1.22 -0.28882,-0.02 -0.28883,0.239 -3.4695,2.195 -2.1537,-5.754 2.94,-0.433" inkscape:connector-curvature="0" style="stroke:#ffffff">
      <title id="title1447">Baldwin, GA</title>
    </path>
    <path id="c13169" d="m 763.42,407.82 2.1537,5.754 -0.86113,0.765 -1.8631,1.492 -1.0786,-0.617 -0.66858,-0.152 -1.1464,0.145 -0.8023,-0.565 -0.38688,-0.787 -2.5388,-3.84 5.0223,-1.583 2.1698,-0.612" inkscape:connector-curvature="0" style="stroke:#ffffff">
      <title id="title1450">Jones, GA</title>
    </path>
    <path id="c13207" d="m 751.73,408.93 4.2343,-0.02 0.25674,1.094 2.5388,3.841 -3.1592,2.836 -4.4358,0.531 -0.21573,-1.897 1.3229,-0.144 0.14619,-0.403 -0.68818,-5.842" inkscape:connector-curvature="0" style="stroke:#ffffff">
      <title id="title1453">Monroe, GA</title>
    </path>
    <path id="c13171" d="m 751.73,408.93 0.68818,5.842 -0.14619,0.403 -1.3229,0.144 -0.21861,-1.3311 -2.7463,0.3361 -0.14798,-4.581 2.32,0.005 0.005,-0.62391 1.5689,-0.194" inkscape:connector-curvature="0" style="stroke:#ffffff">
      <title id="title1456">Lamar, GA</title>
    </path>
    <path id="c13255" d="m 744.72,406.32 0.63471,-0.08 1.9545,-0.26996 0.18759,0.48728 1.5578,-0.34207 0.25606,0.64029 0.97724,0.13546 -0.12837,2.234 -0.005,0.62341 -2.32,-0.005 -2.3837,0.273 -0.43502,-0.376 -1.1,0.118 -0.79516,0.693 -0.20146,-0.854 -0.0143,-0.843 1.196,-0.35209 0.61901,-2.0829" inkscape:connector-curvature="0" style="stroke:#ffffff">
      <title id="title1459">Spalding, GA</title>
    </path>
    <path id="c13113" d="m 740.1,403.4 0.26227,-0.9068 2.4637,-0.5592 1.6138,1.325 0.28137,3.063 -0.61901,2.0829 -1.196,0.35209 -0.44215,-0.747 -0.86113,-1.061 -1.2284,-1.171 -0.27456,-2.378" inkscape:connector-curvature="0" style="stroke:#ffffff">
      <title id="title1462">Fayette, GA</title>
    </path>
    <path id="c13063" d="m 745.91,399.32 0.40114,0.321 0.18542,1.118 0.0214,0.763 -0.24782,2.676 -0.16046,0.208 -0.90748,0.412 0.16046,1.421 -0.63471,0.08 -0.28137,-3.063 -1.6138,-1.325 -0.15581,-2.2793 1.9298,-0.19371 1.3033,-0.137" inkscape:connector-curvature="0" style="stroke:#ffffff">
      <title id="title1465">Clayton, GA</title>
    </path>
    <path id="c13035" d="m 753.24,402.96 1.3906,1.751 1.3354,4.209 -4.2343,0.02 -1.5689,0.195 0.12837,-2.234 2.9489,-3.937" inkscape:connector-curvature="0" style="stroke:#ffffff">
      <title id="title1468">Butts, GA</title>
    </path>
    <path id="c13151" d="m 745.91,399.32 1.8381,-0.202 1.0667,1.7429 1.9321,0.66112 0.37678,0.79695 1.4585,0.0758 0.66248,0.55828 -2.9489,3.937 -0.97724,-0.13546 -0.25606,-0.64029 -1.5578,0.34207 -0.18759,-0.48728 -1.9545,0.26996 -0.16046,-1.421 0.90748,-0.412 0.16046,-0.208 0.24782,-2.676 -0.0214,-0.763 -0.18542,-1.118 -0.40114,-0.321" inkscape:connector-curvature="0" style="stroke:#ffffff">
      <title id="title1471">Henry, GA</title>
    </path>
    <path id="c13089" d="m 745.11,392.19 1.5979,1.8697 3.7614,2.2303 -0.54556,0.681 -0.71634,2.4931 -0.73116,-0.4139 -0.73116,0.0728 -1.8381,0.202 -1.3033,0.137 -0.19255,-1.695 -0.15333,-1.391 -0.0214,-0.218 -0.46711,-3.879 0.73358,0.12521 0.60713,-0.21521" inkscape:connector-curvature="0" style="stroke:#ffffff">
      <title id="title1474">DeKalb, GA</title>
    </path>
    <path id="c13121" d="m 744.8,386.91 0.32116,1.5937 3.102,1.1303 -1.2118,0.43598 -0.34284,0.84152 -1.067,0.0594 -0.48767,1.2181 -0.60713,0.21521 -0.73358,-0.12521 0.46711,3.879 0.0214,0.218 0.15333,1.391 0.19255,1.695 -1.9298,0.19371 0.15581,2.2793 -2.4637,0.5587 -0.26227,0.9063 -0.47234,-0.41133 -3.8325,0.28387 0.33613,-1.0615 0.0232,-0.297 0.15333,-0.227 0.73098,-0.843 1.7989,-1.139 1.191,-1.906 0.65253,-0.685 1.1874,-1.492 0.11232,-0.332 0.21573,-0.898 0.67749,-2.798 -0.76485,-1.727 0.005,-0.97073 0.90253,-0.62314 0.26528,-1.2604 1.5108,-0.10174" inkscape:connector-curvature="0" style="stroke:#ffffff">
      <title id="title1477">Fulton, GA</title>
    </path>
    <path id="c13057" d="m 744.27,382.43 0.10519,1.054 0.41719,3.423 -1.5108,0.10174 -0.26528,1.2604 -0.90253,0.62314 -0.005,0.97073 -4.5321,0.442 -0.8112,-7.697 7.5041,-0.178" inkscape:connector-curvature="0" style="stroke:#ffffff">
      <title id="title1480">Cherokee, GA</title>
    </path>
    <path id="c13227" d="m 736.38,379.48 1.7508,-0.25 3.5354,-0.385 0.44216,-0.387 0.041,0.332 0.71493,1.792 1.1803,-0.136 0.23356,1.983 -7.5041,0.178 -0.39402,-3.127" inkscape:connector-curvature="0" style="stroke:#ffffff">
      <title id="title1483">Pickens, GA</title>
    </path>
    <path id="c13085" d="m 744.72,376.86 0.19969,0.33 0.42868,1.4534 1.5873,1.3943 2.4216,0.88033 0.66679,1.897 -5.6499,0.676 -0.10519,-1.054 -0.23356,-1.983 -1.1803,0.136 -0.71493,-1.792 -0.041,-0.332 1.5989,-0.29818 1.0219,-1.3078" inkscape:connector-curvature="0" style="stroke:#ffffff">
      <title id="title1486">Dawson, GA</title>
    </path>
    <path id="c13117" d="m 744.38,383.49 5.6499,-0.676 0.60905,1.999 -0.73237,1.4251 -1.3814,0.63184 -0.67383,2.0497 0.36896,0.71727 -3.102,-1.1303 -0.32116,-1.5937 -0.41719,-3.423" inkscape:connector-curvature="0" style="stroke:#ffffff">
      <title id="title1489">Forsyth, GA</title>
    </path>
    <path id="c13135" d="m 753.25,387.21 -0.39743,2.646 1.3406,1.835 -3.0309,3.739 -0.69175,0.862 -3.7614,-2.2303 -1.5979,-1.8697 0.48767,-1.2181 1.067,-0.0594 0.34284,-0.84152 1.2118,-0.43598 -0.36896,-0.71727 0.67383,-2.0497 3.9265,0.98106 0.79812,-0.64106" inkscape:connector-curvature="0" style="stroke:#ffffff">
      <title id="title1492">Gwinnett, GA</title>
    </path>
    <path id="c13247" d="m 752.55,396.22 0.052,2.1016 -1.8598,3.2024 -1.9321,-0.66112 -1.0667,-1.7429 0.73116,-0.0728 0.73116,0.4139 0.71634,-2.4931 0.54556,-0.681 0.69175,-0.862 1.3906,0.795" inkscape:connector-curvature="0" style="stroke:#ffffff">
      <title id="title1495">Rockdale, GA</title>
    </path>
    <path id="c13159" d="m 760.67,402.39 0.5723,6.044 -5.0223,1.583 -0.25674,-1.095 -1.3354,-4.209 0.48703,-1.4472 0.99186,-0.58179 1.3524,-1.1587 0.12645,-0.87026 3.0844,1.735" inkscape:connector-curvature="0" style="stroke:#ffffff">
      <title id="title1498">Jasper, GA</title>
    </path>
    <path id="c13217" d="m 752.55,396.22 4.853,2.806 0.18541,1.622 -0.12645,0.87026 -1.3524,1.1587 -0.99186,0.58179 -0.48703,1.4472 -1.3906,-1.751 -0.66248,-0.55828 -1.4585,-0.0758 -0.37678,-0.79695 1.8598,-3.2024 -0.052,-2.1016" inkscape:connector-curvature="0" style="stroke:#ffffff">
      <title id="title1501">Newton, GA</title>
    </path>
    <path id="c13297" d="m 754.19,391.69 0.95557,0.69744 1.9755,-0.52644 2.9257,1.679 -2.644,5.49 -4.853,-2.806 -1.3906,-0.795 3.0309,-3.739" inkscape:connector-curvature="0" style="stroke:#ffffff">
      <title id="title1504">Walton, GA</title>
    </path>
    <path id="c13013" d="m 753.25,387.21 0.74167,0.931 0.32092,0.202 1.7757,0.354 0.45642,-0.06 1.5582,0 0.21929,0.13 0.68284,1.446 -1.8809,1.639 -1.9755,0.52644 -0.95557,-0.69744 -1.3406,-1.835 0.39743,-2.646" inkscape:connector-curvature="0" style="stroke:#ffffff">
      <title id="title1507">Barrow, GA</title>
    </path>
    <path id="c13157" d="m 760.83,384.58 1.1491,1.3865 0.12921,2.1005 -3.1004,2.156 -0.68284,-1.446 -0.21929,-0.131 -1.5582,0 -0.45642,0.06 -1.7757,-0.355 -0.32092,-0.202 -0.74167,-0.93 3.2074,-4.333 0.58656,0.475 0.38689,0.249 0.22464,0.08 0.81833,-0.16 0.69889,-0.227 1.1749,0.878 0.47959,0.408" inkscape:connector-curvature="0" style="stroke:#ffffff">
      <title id="title1510">Jackson, GA</title>
    </path>
    <path id="c13059" d="m 762.1,388.07 2.0432,0.694 -0.15333,0 -0.10519,1.068 0.016,0.07 0.0891,0.199 0.77912,0.786 -0.48138,1.377 -5.288,-2.042 3.1004,-2.155" inkscape:connector-curvature="0" style="stroke:#ffffff">
      <title id="title1513">Clarke, GA</title>
    </path>
    <path id="c13219" d="m 757.12,391.86 1.8809,-1.638 5.288,2.041 0.16759,1.991 -0.39976,0.95562 -1.77,0.81138 -2.2411,-2.482 -2.9257,-1.679" inkscape:connector-curvature="0" style="stroke:#ffffff">
      <title id="title1516">Oconee, GA</title>
    </path>
    <path id="c13211" d="m 762.29,396.02 3.0398,4.605 -4.6551,1.76 -3.0844,-1.735 -0.18541,-1.622 2.644,-5.49 2.2411,2.482" inkscape:connector-curvature="0" style="stroke:#ffffff">
      <title id="title1519">Morgan, GA</title>
    </path>
    <path id="c13237" d="m 760.67,402.39 4.6551,-1.76 2.5852,2.637 0.27457,0.154 0.14084,0.126 0.0357,0.07 -0.16046,0.756 -0.76485,0.61 -0.52238,0.273 -0.39402,0.435 -0.20859,1.373 0.007,0.233 0.0339,0.09 -2.94,0.433 -2.1698,0.612 -0.5723,-6.044" inkscape:connector-curvature="0" style="stroke:#ffffff">
      <title id="title1522">Putnam, GA</title>
    </path>
    <path id="c13141" d="m 773.55,400.43 0.61152,0.314 1.0127,2.554 0.80408,1.215 0.19077,0.328 -0.56161,0.08 -1.3068,1.148 -0.19434,0.387 -0.15332,0.658 -0.13015,0.379 -0.1979,0.262 -1.8827,1.368 -0.83438,0.121 -0.34766,0.424 -0.47781,0.403 -0.40293,-0.604 -0.0588,-0.191 0.0749,-0.852 0.0713,-0.193 0.10519,-0.07 0.0232,-0.185 -0.0125,-0.136 -0.0606,-0.09 -3.0683,-0.407 -0.39402,0.04 -0.0339,-0.09 -0.007,-0.233 0.20859,-1.373 0.39402,-0.435 0.52238,-0.273 0.76485,-0.61 0.16046,-0.756 -0.0357,-0.07 -0.14084,-0.126 -0.27457,-0.154 2.5067,-2.997 1.6348,0.37247 1.4906,-0.20447" inkscape:connector-curvature="0" style="stroke:#ffffff">
      <title id="title1525">Hancock, GA</title>
    </path>
    <path id="c13265" d="m 770.8,394.05 1.3889,2.103 0.27277,0.291 0.041,0 0.98482,-0.84618 1.3454,0.59618 1.462,0.193 -0.61865,0.956 -0.31093,1.1371 -1.4648,0.41591 -0.62579,0.978 -0.025,0.1 0.29596,0.458 -1.4906,0.20447 -1.6348,-0.37247 0.6988,-0.75487 -0.88778,-1.8366 0.80697,-1.7285 -0.99596,-0.86304 0.75772,-1.028" inkscape:connector-curvature="0" style="stroke:#ffffff">
      <title id="title1528">Taliaferro, GA</title>
    </path>
    <path id="c13133" d="m 770.04,395.08 0.99596,0.86304 -0.80698,1.7285 0.88779,1.8366 -0.69879,0.75487 -2.5067,2.997 -2.5852,-2.637 -3.0398,-4.605 1.77,-0.81138 0.39976,-0.95562 3.2607,1.0275 2.3232,-0.1985" inkscape:connector-curvature="0" style="stroke:#ffffff">
      <title id="title1531">Greene, GA</title>
    </path>
    <path id="c13221" d="m 769.3,387.02 3.9277,1.15 -1.1874,0.891 -0.3851,0.466 -1.0127,1.841 -0.71671,1.582 -0.007,0.112 0.87717,0.99 -0.75772,1.028 -2.3232,0.1985 -3.2607,-1.0275 -0.16759,-1.991 0.48138,-1.376 -0.77912,-0.787 -0.0891,-0.199 -0.016,-0.07 0.10519,-1.068 0.15333,0 2.1912,-1.4 0.13728,-0.02 0.27456,0.161 1.0287,0.299 0.25673,0.03 1.2694,-0.811" inkscape:connector-curvature="0" style="stroke:#ffffff">
      <title id="title1534">Oglethorpe, GA</title>
    </path>
    <path id="c13317" d="m 773.23,388.17 2.4604,-0.669 1.6609,3.9769 2.5984,3.4721 -3.1093,1.157 -0.54735,0.282 -1.462,-0.193 -1.3454,-0.59618 -0.98481,0.84618 -0.041,0 -0.27277,-0.291 -1.3889,-2.103 -0.87717,-0.99 0.007,-0.112 0.71671,-1.582 1.0127,-1.841 0.3851,-0.466 1.1874,-0.891" inkscape:connector-curvature="0" style="stroke:#ffffff">
      <title id="title1537">Wilkes, GA</title>
    </path>
    <path id="c13301" d="m 776.84,396.11 1.1571,2.298 1.7365,3.231 0.84152,0.257 2.2589,0.281 -0.78802,0.981 -1.3817,-0.474 -1.2124,-0.376 -0.56339,0.208 -2.9168,2.001 -0.80408,-1.215 -1.0127,-2.554 -0.61152,-0.314 -0.29596,-0.458 0.025,-0.1 0.62579,-0.978 1.4648,-0.41591 0.31093,-1.1371 0.61865,-0.956 0.54735,-0.282" inkscape:connector-curvature="0" style="stroke:#ffffff">
      <title id="title1540">Warren, GA</title>
    </path>
    <path id="c13189" d="m 780.94,394.55 -0.16937,0.234 -0.016,0.305 0.31378,1.806 1.2623,1.763 1.7187,2.072 0.34409,0.224 -0.98771,1.132 -0.57052,0.09 -2.2589,-0.282 -0.84152,-0.257 -1.7365,-3.23 -1.1571,-2.299 3.1093,-1.157 0.98949,-0.401" inkscape:connector-curvature="0" style="stroke:#ffffff">
      <title id="title1543">McDuffie, GA</title>
    </path>
    <path id="c13125" d="m 775.97,404.52 2.9168,-2.001 0.56339,-0.208 1.2124,0.376 1.3817,0.474 -0.65788,0.676 -1.9059,2.105 0.0642,0.216 0.15333,0.973 -1.535,0.05 -1.4277,-0.80334 -0.57442,-1.5287 -0.19077,-0.328" inkscape:connector-curvature="0" style="stroke:#ffffff">
      <title id="title1546">Glascock, GA</title>
    </path>
    <path id="c13163" d="m 782.84,402.18 0.57052,-0.09 1.774,0.79 0.10697,0.02 0.16046,0.129 0.52238,0.579 -0.39401,1.881 -0.12837,1.011 -0.0321,1.118 0.14441,0.568 0.21573,0.653 0.41006,1.581 -0.23891,1.398 -0.25673,1.045 -1.7348,0.96374 -0.26738,1.0453 -1.856,-1.132 -0.42611,-2.517 -0.85934,-1.774 -0.0571,0 -0.69889,-0.36 -0.77911,-0.596 -0.31379,-0.419 -0.53129,-0.906 1.535,-0.05 -0.15333,-0.973 -0.0642,-0.216 1.9059,-2.105 0.65788,-0.676 0.78802,-0.981" inkscape:connector-curvature="0" style="stroke:#ffffff">
      <title id="title1549">Jefferson, GA</title>
    </path>
    <path id="c13303" d="m 778.17,407.18 0.53129,0.905 0.31379,0.419 0.77911,0.596 0.69889,0.36 0.0571,0 0.85934,1.774 0.42611,2.517 -1.6082,0.804 -1.0465,0.489 -1.9478,0.62642 -0.15426,-0.59642 -0.56339,-0.275 -2.5958,1.533 -0.27278,-0.945 -0.51347,-0.806 -0.32092,-0.199 -0.8629,-0.298 -1.0341,-1.697 -0.009,-3.124 0.83438,-0.121 1.8827,-1.368 0.1979,-0.262 0.13015,-0.379 0.15332,-0.658 0.19434,-0.387 1.3068,-1.148 0.56161,-0.08 0.57442,1.5287 1.4277,0.80334" inkscape:connector-curvature="0" style="stroke:#ffffff">
      <title id="title1552">Washington, GA</title>
    </path>
    <path id="c13167" d="m 783.69,414.87 -0.6123,2.6951 -2.6504,3.5919 -0.55447,-0.188 -0.16937,-2.03 -2.586,-0.57422 0.10424,-0.81878 -1.5582,-0.458 -1.7775,0.426 0.0321,-1.198 2.5958,-1.533 0.56339,0.274 0.15426,0.59642 1.9478,-0.62642 1.0465,-0.489 1.6082,-0.804 1.856,1.132" inkscape:connector-curvature="0" style="stroke:#ffffff">
      <title id="title1555">Johnson, GA</title>
    </path>
    <path id="c13283" d="m 780.43,421.16 2.8936,-0.07 0.50634,0.144 1.6937,0.706 0.18542,0.16 -0.041,1.133 -0.16046,0.902 -4.541,1.95 -1.3068,-0.08 -0.55241,-0.91384 1.1097,-2.9434 0.21293,-0.98681" inkscape:connector-curvature="0" style="stroke:#ffffff">
      <title id="title1558">Treutlen, GA</title>
    </path>
    <path id="c13209" d="m 785.5,424.13 -0.11945,8.934 -1.166,0.442 -1.223,-1.109 -0.0874,-0.146 -0.19968,-0.352 -0.57587,-1.815 -0.14798,-1.223 -0.68284,-2.298 -0.16045,-0.456 -0.17829,-0.03 4.541,-1.95" inkscape:connector-curvature="0" style="stroke:#ffffff">
      <title id="title1561">Montgomery, GA</title>
    </path>
    <path id="c13279" d="m 785.5,424.13 1.3812,1.175 2.115,-0.86303 1.3175,3.945 0.18542,5.279 -4.1523,-0.633 -0.96631,0.03 0.11945,-8.934" inkscape:connector-curvature="0" style="stroke:#ffffff">
      <title id="title1564">Toombs, GA</title>
    </path>
    <path id="c13179" d="m 798.96,429.27 0.68284,-1.068 1.6545,0.754 1.545,1.6338 1.871,-0.48579 1.4138,0.485 0.16046,0.271 0.62044,1.48 0.0374,0.16 -0.005,0.06 0.20681,0.186 1.4548,1.068 2.2036,1.069 0.11946,0.04 -0.0695,0.171 0.39045,0.353 0.52238,0.151 0.12124,-0.07 0.0303,-0.11 0.0499,-0.03 0.19255,-0.04 0.16937,0.06 0.1355,0.948 0.0802,0.708 -0.32983,1.284 -0.19255,0.369 -0.11232,0.03 -0.32805,-0.234 -0.0267,-0.635 -0.0802,-0.16 -0.64184,-0.53 -0.35301,-0.169 -0.56338,-0.184 -1.059,-0.04 -1.4067,0.595 -0.49921,-0.119 -0.95561,-0.669 -0.63471,-0.184 -0.16045,0 -2.9649,-1.066 -2.7492,-2.123 -0.0553,-0.248 0.073,-1.9082 -1.1498,-0.27778 -0.49029,-0.595 1.0929,-0.933" inkscape:connector-curvature="0" style="stroke:#ffffff">
      <title id="title1567">Liberty, GA</title>
    </path>
    <path id="c13109" d="m 793.12,424.77 1.1161,0.07 1.3635,-0.32698 1.445,0.65128 1.178,1.7917 1.4299,1.254 -0.68284,1.067 -2.4604,0.314 -1.856,-0.451 -1.5333,-4.37" inkscape:connector-curvature="0" style="stroke:#ffffff">
      <title id="title1570">Evans, GA</title>
    </path>
    <path id="c13267" d="m 789,424.44 4.1149,0.322 1.5333,4.37 1.856,0.451 2.4604,-0.313 -1.0929,0.932 -2.0182,5.561 -1.6616,-0.635 -3.6888,-1.464 -0.18542,-5.279 -1.3175,-3.945" inkscape:connector-curvature="0" style="stroke:#ffffff">
      <title id="title1573">Tattnall, GA</title>
    </path>
    <path id="c13043" d="m 792.14,418.85 1.2213,0.419 0.25918,1.2483 1.0744,0.84069 -0.30309,2.924 -0.16224,0.553 -1.1161,-0.07 -4.1149,-0.322 -0.38689,-0.947 0.86113,-2.74 0.46533,-1.159 1.182,-1.093 1.0198,0.346" inkscape:connector-curvature="0" style="stroke:#ffffff">
      <title id="title1576">Candler, GA</title>
    </path>
    <path id="c13107" d="m 789.03,412.92 1.592,3.2903 1.8365,1.0077 -0.32092,1.63 -1.0198,-0.346 -1.182,1.093 -0.46533,1.159 -0.86113,2.74 0.38689,0.947 -2.115,0.86303 -1.3812,-1.175 0.16046,-0.902 0.041,-1.133 -0.18542,-0.16 -1.6937,-0.706 -0.50634,-0.144 -2.8936,0.07 2.6504,-3.5919 0.6123,-2.6951 0.26738,-1.0453 1.7348,-0.96374 3.3429,0.06" inkscape:connector-curvature="0" style="stroke:#ffffff">
      <title id="title1579">Emanuel, GA</title>
    </path>
    <path id="c13051" d="m 810.56,423.41 0.0998,0.449 0.18185,0.918 0.2496,0.997 0.0892,0.09 1.0858,0.419 3.5746,0.674 0.66679,0.07 0.18364,0.03 0.0963,0.279 0,0.202 -0.0713,0.353 -0.20147,0.474 -3.2216,5.192 -0.14441,0.201 -0.90214,1.034 -0.13549,0.06 -0.44037,-0.1 -0.64362,-1.952 -0.11697,-1.6053 -1.8267,-0.2136 -1.1746,-2.0071 -1.5992,-1.425 -0.41185,-0.47 3.1463,-3.8791 1.5159,0.19706" inkscape:connector-curvature="0" style="stroke:#ffffff">
      <title id="title1582">Chatham, GA</title>
    </path>
    <path id="c13029" d="m 798.22,426.95 6.3238,-3.038 1.355,3.183 0.41185,0.47 1.5992,1.425 1.1746,2.0071 1.8267,0.2136 0.11697,1.6053 0.64362,1.952 -0.73989,0.159 -0.11946,-0.04 -2.2036,-1.069 -1.4548,-1.068 -0.20681,-0.186 0.005,-0.06 -0.0374,-0.16 -0.62044,-1.48 -0.16046,-0.271 -1.4138,-0.485 -1.871,0.48579 -1.545,-1.6338 -1.6545,-0.754 -1.4299,-1.254" inkscape:connector-curvature="0" style="stroke:#ffffff">
      <title id="title1585">Bryan, GA</title>
    </path>
    <path id="c13031" d="m 795.38,415.8 6.1545,2.79 3.0077,5.327 -6.3238,3.038 -1.178,-1.7917 -1.445,-0.65128 -1.3635,0.32698 0.16224,-0.553 0.30309,-2.924 -1.0744,-0.84069 -0.25918,-1.2483 -1.2213,-0.419 0.32092,-1.63 2.9168,-1.424" inkscape:connector-curvature="0" style="stroke:#ffffff">
      <title id="title1588">Bulloch, GA</title>
    </path>
    <path id="c13165" d="m 789.03,412.92 -0.082,-0.154 0.24782,-1.527 0.69353,-0.878 2.3032,-0.42128 1.8402,-1.0387 0.6454,0.1 0.82547,0.267 0.20147,0.143 0.1765,0.242 -0.98687,5.804 0.48053,0.342 -2.9168,1.424 -1.8365,-1.0077 -1.592,-3.2903" inkscape:connector-curvature="0" style="stroke:#ffffff">
      <title id="title1591">Jenkins, GA</title>
    </path>
    <path id="c13103" d="m 804.18,415.7 2.0093,0.804 0.36906,0.137 1.7116,1.414 2.0396,4.138 0.2496,1.221 -1.5159,-0.19706 -3.1463,3.8791 -1.355,-3.183 -3.0077,-5.327 2.6458,-2.886" inkscape:connector-curvature="0" style="stroke:#ffffff">
      <title id="title1594">Effingham, GA</title>
    </path>
    <path id="c13251" d="m 795.89,409.65 3.81,-3.762 3.6549,6.453 0.82903,3.359 -2.6458,2.886 -6.1545,-2.79 -0.48053,-0.342 0.98687,-5.804" inkscape:connector-curvature="0" style="stroke:#ffffff">
      <title id="title1597">Screven, GA</title>
    </path>
    <path id="c13033" d="m 785.18,402.88 1.7365,-0.943 0.12837,0 0.62757,0.364 0.1355,0.271 0.6184,0.83493 0.5155,-0.39993 1.8488,-0.02 1.5743,-1.013 0.75772,0.184 1.7882,1.351 3.2074,1.503 1.576,0.867 -3.81,3.761 -0.1765,-0.242 -0.20147,-0.143 -0.82547,-0.267 -0.6454,-0.1 -1.8402,1.0392 -2.3032,0.42178 -0.69353,0.877 -0.24782,1.528 0.082,0.153 -3.3429,-0.06 0.25673,-1.045 0.23891,-1.397 -0.41006,-1.582 -0.21573,-0.652 -0.14441,-0.569 0.0321,-1.118 0.12837,-1.011 0.39401,-1.881 -0.52238,-0.579 -0.16046,-0.129 -0.10697,-0.02" inkscape:connector-curvature="0" style="stroke:#ffffff">
      <title id="title1600">Burke, GA</title>
    </path>
    <path id="c13245" d="m 788.78,395.88 0.31201,0.29 0.16224,0.154 0.90035,0.852 1.2748,1.487 0.45107,1.742 1.248,1.767 -0.75772,-0.184 -1.5743,1.013 -1.8488,0.02 -0.5155,0.39993 -0.6184,-0.83493 -0.1355,-0.271 -0.62757,-0.364 -0.12837,0 -1.7365,0.943 -1.774,-0.79 0.98771,-1.132 4.3805,-5.079" inkscape:connector-curvature="0" style="stroke:#ffffff">
      <title id="title1603">Richmond, GA</title>
    </path>
    <path id="c13073" d="m 784.72,393.17 2.2001,1.921 1.8578,0.786 -4.3805,5.079 -0.34409,-0.224 -1.7187,-2.072 -1.2623,-1.763 -0.31378,-1.806 0.016,-0.305 0.16937,-0.234 3.7761,-1.382" inkscape:connector-curvature="0" style="stroke:#ffffff">
      <title id="title1606">Columbia, GA</title>
    </path>
    <path id="c13181" d="m 775.69,387.5 1.6242,0.444 2.8437,1.694 0.11945,0.03 0.26743,-0.103 0.0874,0 1.6402,0.827 0.49742,0.355 1.182,0.971 0.76307,1.439 -3.7761,1.382 -0.98949,0.401 -2.5984,-3.4721 -1.6609,-3.9769" inkscape:connector-curvature="0" style="stroke:#ffffff">
      <title id="title1609">Lincoln, GA</title>
    </path>
    <path id="c13105" d="m 772.48,380.79 0.7078,1.841 3.3429,4.122 0.78803,1.198 -1.6242,-0.444 -2.4604,0.669 -3.9277,-1.15 -2.2109,-1.969 -0.26372,-1.969 2.6077,0.14912 3.0404,-2.4471" inkscape:connector-curvature="0" style="stroke:#ffffff">
      <title id="title1612">Elbert, GA</title>
    </path>
    <path id="c13195" d="m 766.02,382.11 0.81299,0.979 0.26372,1.969 2.2109,1.969 -1.2694,0.811 -0.25673,-0.03 -1.0287,-0.3 -0.27456,-0.16 -0.13728,0.02 -2.1912,1.4 -2.0432,-0.694 -0.12921,-2.1005 -1.1491,-1.3865 0.65534,-0.16268 0.51111,-0.52326 3.6353,-0.69521 0.38999,-1.0918" inkscape:connector-curvature="0" style="stroke:#ffffff">
      <title id="title1615">Madison, GA</title>
    </path>
    <path id="c13011" d="m 760.11,378.53 0.59789,0.97142 0.0931,2.1974 1.0667,1.0075 0.12912,1.1878 -0.51111,0.52326 -0.65534,0.16268 -0.47959,-0.409 -1.1749,-0.877 -0.69889,0.227 -0.81833,0.16 -0.22464,-0.08 -0.38689,-0.25 -0.58656,-0.474 -0.80149,-1.5996 0.49662,-1.5274 1.4414,-1.5202 1.2971,-0.006 1.2159,0.306" inkscape:connector-curvature="0" style="stroke:#ffffff">
      <title id="title1618">Banks, GA</title>
    </path>
    <path id="c13139" d="m 754.96,378.22 1.1892,1.533 -0.49662,1.5274 0.80149,1.5996 -3.2074,4.332 -0.79812,0.64106 -3.9265,-0.98106 1.3814,-0.63184 0.73237,-1.4251 -0.60905,-1.999 -0.66679,-1.897 2.2892,-2.312 3.3108,-0.387" inkscape:connector-curvature="0" style="stroke:#ffffff">
      <title id="title1621">Hall, GA</title>
    </path>
    <path id="c13187" d="m 750.77,373.66 0.8843,4.944 -2.2892,2.312 -2.4216,-0.88033 -1.5873,-1.3943 -0.42868,-1.4534 0.44393,-1.132 2.4173,0.0402 1.4308,-2.5883 1.5504,0.15206" inkscape:connector-curvature="0" style="stroke:#ffffff">
      <title id="title1624">Lumpkin, GA</title>
    </path>
    <path id="c13123" d="m 736.19,372.37 3.5693,-0.417 1.0679,0.121 0.82012,0.515 0.43502,0.327 1.3247,1.775 1.1161,1.623 0.20146,0.547 -1.0219,1.3078 -1.5989,0.29818 -0.44216,0.387 -3.5354,0.385 -1.7508,0.25 -0.0963,-0.786 -0.44928,-3.336 0.22464,-1.061 0.49742,-0.545 0.40293,-0.692 0.007,-0.07 -0.0481,-0.07 -0.72384,-0.555" inkscape:connector-curvature="0" style="stroke:#ffffff">
      <title id="title1627">Gilmer, GA</title>
    </path>
    <path id="c13111" d="m 741.34,368.64 3.5782,-0.419 -0.74703,0.797 -0.0677,0.128 0.0178,0.12 1.697,0.89556 -0.54429,1.0213 -0.0527,1.1852 0.3548,0.232 0.72168,-0.43872 0.28402,1.3933 -0.53528,1.1476 -0.67906,1.3548 -0.44393,1.132 -0.19969,-0.33 -0.20146,-0.547 -1.1161,-1.623 -1.3247,-1.775 -0.43502,-0.327 -0.82012,-0.515 -1.0679,-0.121 -3.5693,0.417 -0.4172,-3.043 5.5679,-0.685" inkscape:connector-curvature="0" style="stroke:#ffffff">
      <title id="title1630">Fannin, GA</title>
    </path>
    <path id="c13291" d="m 747.22,367.93 1.2801,-0.167 -0.11233,0.424 0.59548,0.571 1.1393,0.643 0.54377,-0.04 0.54913,0.314 0.68284,1.599 0.0802,0.578 -1.2141,1.808 -1.5504,-0.15206 -1.4308,2.5883 -2.4173,-0.0402 0.67906,-1.3548 0.53528,-1.1476 -0.28402,-1.3933 -0.72168,0.43872 -0.3548,-0.232 0.0527,-1.1852 0.54429,-1.0213 -1.697,-0.89556 -0.0178,-0.12 0.0677,-0.128 0.74703,-0.797 2.3035,-0.289" inkscape:connector-curvature="0" style="stroke:#ffffff">
      <title id="title1633">Union, GA</title>
    </path>
    <path id="c13311" d="m 751.98,371.85 1.815,-0.41 0.98949,0.57 0.12837,0.218 0.12836,0.579 0.72206,4.379 -0.80229,1.029 -3.3108,0.387 -0.8843,-4.944 1.2141,-1.808" inkscape:connector-curvature="0" style="stroke:#ffffff">
      <title id="title1636">White, GA</title>
    </path>
    <path id="c13137" d="m 754.28,370.86 1.474,-0.29318 1.2937,1.7261 1.2937,0.0674 0.737,-0.47111 1.0976,0.68276 0.37084,0.618 -1.6563,5.037 -1.2971,0.006 -1.4414,1.5202 -1.1892,-1.533 0.80229,-1.029 -0.72206,-4.379 -0.12836,-0.579 -0.12837,-0.218 -0.98949,-0.57 0.48315,-0.585" inkscape:connector-curvature="0" style="stroke:#ffffff">
      <title id="title1639">Habersham, GA</title>
    </path>
    <path id="c13147" d="m 766.47,376.92 1.166,0.163 0.2086,-0.106 0.016,0 0.74881,-0.185 0.67392,-0.09 0.39402,0.112 0.19255,0.146 -0.007,0.06 0.62578,0.966 1.9915,2.803 -3.0404,2.4471 -2.6077,-0.14912 -0.81299,-0.979 0.45107,-5.185" inkscape:connector-curvature="0" style="stroke:#ffffff">
      <title id="title1642">Hart, GA</title>
    </path>
    <path id="c13119" d="m 765.32,376.12 1.1517,0.802 -0.45107,5.185 -0.38999,1.0918 -3.6353,0.69521 -0.12913,-1.1878 -1.0666,-1.0075 -0.0931,-2.1974 -0.59789,-0.97142 0.37619,-0.231 0.14441,-0.05 3.5444,-0.642 1.1464,-1.487" inkscape:connector-curvature="0" style="stroke:#ffffff">
      <title id="title1645">Franklin, GA</title>
    </path>
    <path id="c13257" d="m 760.55,373.19 4.771,2.933 -1.1464,1.487 -3.5444,0.642 -0.14441,0.05 -0.37619,0.231 -1.2159,-0.306 1.6563,-5.037" inkscape:connector-curvature="0" style="stroke:#ffffff">
      <title id="title1648">Stephens, GA</title>
    </path>
    </g>
  </svg>
