<svg xmlns:dc="http://purl.org/dc/elements/1.1/" xmlns:cc="http://creativecommons.org/ns#" xmlns:rdf="http://www.w3.org/1999/02/22-rdf-syntax-ns#" xmlns:svg="http://www.w3.org/2000/svg" xmlns="http://www.w3.org/2000/svg" xmlns:sodipodi="http://sodipodi.sourceforge.net/DTD/sodipodi-0.dtd" xmlns:inkscape="http://www.inkscape.org/namespaces/inkscape" width="132.72478999999993" height="104.79599999999999" version="1.0" id="svg2" inkscape:version="0.91 r13725" sodipodi:docname="USA counties.svg">
  <defs id="defs9439"/>
  <sodipodi:namedview pagecolor="#ffffff" bordercolor="#666666" borderopacity="1" objecttolerance="10" gridtolerance="10" guidetolerance="10" inkscape:pageopacity="0" inkscape:pageshadow="2" inkscape:window-width="798" inkscape:window-height="828" id="namedview9437" showgrid="false" showguides="true" inkscape:zoom="0.64950808" inkscape:cx="494.98999" inkscape:cy="313.535" inkscape:window-x="-7" inkscape:window-y="0" inkscape:window-maximized="0" inkscape:current-layer="svg2"/>
  <metadata id="metadata4">
    <rdf:RDF>
      <cc:Work>
        <dc:format>image/svg+xml</dc:format>
        <dc:type rdf:resource="http://purl.org/dc/dcmitype/StillImage"/>
        <dc:title/>
        <cc:license rdf:resource="http://creativecommons.org/publicdomain/zero/1.0/"/>
        <dc:date>2019-10-06</dc:date>
        <dc:creator>
          <cc:Agent>
            <dc:title>U.S. Census Bureau, Abe.suleiman, Lokal_Profil</dc:title>
          </cc:Agent>
        </dc:creator>
        <dc:source>https://commons.wikimedia.org/wiki/File:Usa_counties_large.svg</dc:source>
      </cc:Work>
      <cc:License rdf:about="http://creativecommons.org/publicdomain/zero/1.0/">
        <cc:permits rdf:resource="http://creativecommons.org/ns#Reproduction"/>
        <cc:permits rdf:resource="http://creativecommons.org/ns#Distribution"/>
        <cc:permits rdf:resource="http://creativecommons.org/ns#DerivativeWorks"/>
      </cc:License>
    </rdf:RDF>
  </metadata>
  <style id="style6">
  /*
   * Below are Cascading Style Sheet (CSS) definitions in use in this file,
   * which allow easily changing how counties are displayed.
   *
   *
   * For the U.S. Census county codes (FIPS codes) used in this file to identify individual counties, see this link:
   * https://www2.census.gov/geo/docs/reference/codes/files/national_county.txt
   *
   * The county codes used in this file combine the 2-digit state code, which is in the second column of the file
   * linked above, and the 3-digit county code, which is in the third column of the file linked above. Each value
   * for the "id" attribute for each county is in the following form: "c[state_code][county-code]". For example,
   * for Loving Country in Texas, the state code is "48" and the county code is "301", so the id name for the
   * county is "c48301".
   *
   * County codes used in this file can also be found on Wikimedia Commons at this link:
   * https://commons.wikimedia.org/wiki/File_talk:Usa_counties_large.svg/county_codes
   *
   * Examples:
   *
   * To color two counties red (in this case Loving County and Dallas County in Texas) simply
   * go to the CSS insertion point and add:
   *
   * #c48301, #c48113 {fill:red}
   *
   * To color an entire state's counties (in the case New Mexico, with "35" being the state code) a green,
   * go to the CSS insertion point and add:
   *
   * path[id*='c35'] {fill:#34A853}
   *
   */
  #counties {fill:#d0d0d0;stroke:#000;stroke-width:.17829;} 
  #borders {fill:none;stroke:#221e1f;stroke-width:.89143;} 
  #separator {fill:none;stroke:#a9a9a9;stroke-width:2.3177309;}
 </style>
  <g id="counties" transform="translate(-286.17741000000007,-227.33300000000003)" style="fill:#d0d0d0;stroke:#ffffff;stroke-width:0.17828999">
    <path id="c08083" d="m 307.44,307.04 -0.78802,0.692 -1.2855,3.3379 -2.8205,1.9871 -0.13728,0.193 -1.5351,2.525 -2.4265,4.371 -0.24069,0.66 -12.029,-1.608 1.5743,-11.154 2.7242,-3.059 10.897,1.444 2.0574,0.226 1.5671,0.09 2.4425,0.297" inkscape:connector-curvature="0" style="stroke:#ffffff">
      <title id="title748">Montezuma, CO</title>
    </path>
    <path id="c08067" d="m 307.44,307.04 8.7824,1.084 -1.7757,14.714 -16.24,-2.032 0.24069,-0.66 2.4265,-4.371 1.5351,-2.525 0.13728,-0.193 2.8205,-1.9871 1.2855,-3.3379 0.78802,-0.692" inkscape:connector-curvature="0" style="stroke:#ffffff">
      <title id="title751">La Plata, CO</title>
    </path>
    <path id="c08099" d="m 402.52,301.83 12.48,0.796 -0.009,0.144 -0.72385,12.125 -0.12836,2.177 -12.735,-0.843 0.28882,-4.145 0.12837,0 0.0321,-0.33 0.66679,-9.924" inkscape:connector-curvature="0" style="stroke:#ffffff">
      <title id="title754">Prowers, CO</title>
    </path>
    <path id="c08011" d="m 402.52,301.83 -0.66679,9.924 -0.0321,0.33 -0.12837,0 -0.28882,4.145 -5.9227,-0.426 -5.9138,-0.45 1.1963,-14.368 11.756,0.845" inkscape:connector-curvature="0" style="stroke:#ffffff">
      <title id="title757">Bent, CO</title>
    </path>
    <path id="c08061" d="m 395.44,293.28 1.9683,0.09 8.0194,0.622 4.3948,0.248 5.682,0.376 -0.49742,8.013 -12.48,-0.796 -11.756,-0.845 -1.8168,-0.128 0.40293,-5.818 0.76307,-0.103 3.7761,0.289 1.3906,0.07 0.15333,-2.016" inkscape:connector-curvature="0" style="stroke:#ffffff">
      <title id="title760">Kiowa, CO</title>
    </path>
    <path id="c08017" d="m 416.12,284.63 -0.49029,8.084 -0.12837,1.902 -5.682,-0.376 -4.3948,-0.248 -8.0194,-0.622 -1.9683,-0.09 0.91639,-9.811 1.9754,0.1 5.9298,0.449 3.8171,0.2 2.6048,0.08 5.4395,0.331" inkscape:connector-curvature="0" style="stroke:#ffffff">
      <title id="title763">Cheyenne, CO</title>
    </path>
    <path id="c08063" d="m 397.42,271.27 6.1794,0.403 13.234,0.758 -0.007,0.134 -0.59548,10.069 -0.11232,1.995 -5.4395,-0.331 -2.6048,-0.08 -3.8171,-0.2 -5.9298,-0.449 -1.9754,-0.1 0.15154,-2.042 0.41898,-3.689 0.49742,-6.47" inkscape:connector-curvature="0" style="stroke:#ffffff">
      <title id="title766">Kit Carson, CO</title>
    </path>
    <path id="c08125" d="m 407.43,251.72 10.647,0.683 -0.13728,2.097 -0.50634,8.001 -0.60261,9.927 -13.234,-0.758 0.52238,-6.899 0.18363,-3.136 0.74881,-8.059 0.3851,-1.995 1.9932,0.139" inkscape:connector-curvature="0" style="stroke:#ffffff">
      <title id="title769">Yuma, CO</title>
    </path>
    <path id="c08121" d="m 388.56,260.45 4.0739,0.323 0.27456,-3.819 0.37619,-4.225 0.25673,-1.994 11.894,0.842 -0.3851,1.995 -0.74881,8.059 -0.18363,3.136 -0.52238,6.899 -6.1794,-0.403 -9.6988,-0.768 0.84329,-10.045" inkscape:connector-curvature="0" style="stroke:#ffffff">
      <title id="title772">Washington, CO</title>
    </path>
    <path id="c08095" d="m 418.54,245.24 -0.0802,1.207 -0.3851,5.955 -10.647,-0.683 0.74702,-7.162 10.366,0.683" inkscape:connector-curvature="0" style="stroke:#ffffff">
      <title id="title775">Phillips, CO</title>
    </path>
    <path id="c08115" d="m 409.1,238.74 9.8022,0.656 -0.36192,5.842 -10.366,-0.683 0.36905,-5.848 0.55626,0.03" inkscape:connector-curvature="0" style="stroke:#ffffff">
      <title id="title778">Sedgwick, CO</title>
    </path>
    <path id="c08075" d="m 392.69,237.54 3.3019,0.255 12.551,0.918 -0.36905,5.848 -0.74702,7.162 -1.9932,-0.139 -11.894,-0.842 0.1722,-1.9761 -2.0282,-0.19488 0.35479,-4.12 0.1034,0 0.5313,-6.379 0.016,-0.539" inkscape:connector-curvature="0" style="stroke:#ffffff">
      <title id="title781">Logan, CO</title>
    </path>
    <path id="c08087" d="m 388.56,260.45 -7.7537,-0.643 1.084,-12.077 5.625,0.483 2.1858,0.223 1.9843,0.128 2.0282,0.19488 -0.1722,1.9761 -0.25673,1.994 -0.37619,4.225 -0.27456,3.819 -4.0739,-0.323" inkscape:connector-curvature="0" style="stroke:#ffffff">
      <title id="title784">Morgan, CO</title>
    </path>
    <path id="c08009" d="m 395.48,315.8 5.9227,0.426 12.735,0.843 -0.3851,5.898 -0.58657,9.162 -5.6963,-0.401 -9.451,-0.779 -2.307,-0.178 -1.5261,-0.113 0.20146,-2.892 0.52238,-5.921 0.14442,0 0.4261,-6.053" inkscape:connector-curvature="0" style="stroke:#ffffff">
      <title id="title787">Baca, CO</title>
    </path>
    <path id="c08089" d="m 390.77,300.98 -1.1963,14.368 -11.781,-0.971 0.12837,-2.099 0.85934,-9.506 0.43502,0.169 1.6955,0.507 1.8399,0.433 3.8171,0.307 0.16257,-1.3168 1.9109,0.10377 0.312,-2.123 1.8168,0.128" inkscape:connector-curvature="0" style="stroke:#ffffff">
      <title id="title790">Otero, CO</title>
    </path>
    <path id="c08025" d="m 379.59,294.1 9.763,0.939 -0.40293,5.818 -0.312,2.123 -1.9109,-0.10377 -0.16257,1.3168 -3.8171,-0.307 -1.8399,-0.433 -1.6955,-0.507 -0.43502,-0.169 0.81299,-8.677" inkscape:connector-curvature="0" style="stroke:#ffffff">
      <title id="title793">Crowley, CO</title>
    </path>
    <path id="c08073" d="m 397.42,271.27 -0.49742,6.47 -0.41898,3.689 -0.15154,2.042 -0.91639,9.811 -0.15333,2.016 -1.3906,-0.07 -3.7761,-0.289 -0.76307,0.103 -9.763,-0.939 0.65075,-8.003 5.9459,0.538 0.57051,-6.01 0.83617,-10.141 0.12837,0.02 9.6988,0.768" inkscape:connector-curvature="0" style="stroke:#ffffff">
      <title id="title796">Lincoln, CO</title>
    </path>
    <path id="c08039" d="m 380.24,286.1 0.57764,-5.989 -10.783,-0.979 0.96453,-10.062 16.593,1.417 -0.83617,10.141 -0.57051,6.01 -5.9459,-0.538" inkscape:connector-curvature="0" style="stroke:#ffffff">
      <title id="title799">Elbert, CO</title>
    </path>
    <path id="c08005" d="m 367.43,264.66 1.4828,0.149 1.1571,0.114 4.6123,0.474 9.6507,0.762 3.728,0.331 -0.33696,4.01 -0.12837,-0.02 -16.593,-1.417 -6.807,-0.64 0.041,-1.288 0.0232,-0.199 0,-0.03 0.0178,0 2.9471,0.02 0.3227,-0.715 -0.12837,-1.197 0.0182,-0.199" inkscape:connector-curvature="0" style="stroke:#ffffff">
      <title id="title802">Arapahoe, CO</title>
    </path>
    <path id="c08123" d="m 384.47,236.86 8.2279,0.674 -0.016,0.539 -0.5313,6.379 -0.1034,0 -0.35479,4.12 -1.9843,-0.128 -2.1858,-0.223 -5.625,-0.483 -1.084,12.077 -14.427,-1.305 0.0705,-0.565 -0.73478,-0.07 -0.101,0.569 -0.5327,-0.04 0.52951,-6.051 0.16938,-2.01 1.9202,0.179 0.21572,-2.026 1.2391,-12.931 15.308,1.296" inkscape:connector-curvature="0" style="stroke:#ffffff">
      <title id="title805">Weld, CO</title>
    </path>
    <path id="c08001" d="m 365.98,258.49 14.834,1.323 7.7537,0.643 -0.50633,6.035 -3.728,-0.331 -9.6507,-0.762 -4.6123,-0.474 -1.1571,-0.114 -1.4806,-0.164 0.62854,-0.77599 1.931,0.15431 0.3733,-1.2264 2.03,0.14629 0.41642,-1.7589 -2.1383,-0.15652 -1.5796,1.9419 -1.7191,0.36035 -2.762,-0.11 0.27457,-2.837 0.53719,-0.255 0.16977,-1.21 0.31674,0.04" inkscape:connector-curvature="0" style="stroke:#ffffff">
      <title id="title808">Adams, CO</title>
    </path>
    <path id="c08031" d="m 364.61,263.22 2.7541,0.128 1.7291,-0.36585 1.5896,-1.9474 2.1244,0.16652 -0.43771,1.7299 -2.0083,-0.14629 -0.37018,1.2244 -1.9294,-0.15531 -0.62698,0.77499 -0.0184,0.386 0.12837,1.197 -0.3227,0.715 -2.9471,-0.02 0.0713,-0.844 0.0321,-0.331 0.23177,-2.514" inkscape:connector-curvature="0" style="stroke:#ffffff">
      <title id="title811">Denver, CO</title>
    </path>
    <path id="c08035" d="m 364.19,268.43 6.807,0.64 -0.96453,10.062 -6.5324,-0.619 -5.2078,-0.497 5.8977,-9.586" inkscape:connector-curvature="0" style="stroke:#ffffff">
      <title id="title814">Douglas, CO</title>
    </path>
    <path id="c08041" d="m 380.24,286.1 -0.65075,8.003 -15.798,-1.352 0.27278,-3.004 0.19255,-1.397 0.18541,-1.4115 -2.0633,-0.28508 0.017,-1.3252 0.72426,0.0478 -0.10783,-0.82594 0.3851,-3.713 0.10519,-2.324 6.5324,0.619 10.783,0.979 -0.57764,5.989" inkscape:connector-curvature="0" style="stroke:#ffffff">
      <title id="title817">El Paso, CO</title>
    </path>
    <path id="c08119" d="m 358.27,278.01 0.0232,0 5.2078,0.497 -0.10519,2.324 -0.3851,3.713 0.10784,0.82594 -0.72427,-0.0478 -0.017,1.3252 2.0633,0.28508 -0.18541,1.4115 -0.19255,1.397 -2.981,-0.231 -2.3142,-0.227 0.0553,-0.554 -0.74702,-0.66 -0.7702,-0.09 0.96453,-9.972" inkscape:connector-curvature="0" style="stroke:#ffffff">
      <title id="title820">Teller, CO</title>
    </path>
    <path id="c08101" d="m 363.79,292.75 15.798,1.352 -0.81299,8.677 -0.85934,9.506 -5.0455,-2.362 -5.1347,-2.394 -6.1562,-0.161 -0.73811,-0.57 -0.30665,-0.291 0.76485,-7.898 1.9433,0.176 0.54734,-6.035" inkscape:connector-curvature="0" style="stroke:#ffffff">
      <title id="title823">Pueblo, CO</title>
    </path>
    <path id="c08071" d="m 372.87,309.92 5.0455,2.362 -0.12837,2.099 11.781,0.971 5.9138,0.45 -0.4261,6.053 -0.14442,0 -0.52238,5.921 -0.20146,2.892 -16.754,-1.246 -13.161,-1.1 -4.8708,-0.448 -2.8044,-0.315 0.68284,-6.871 0.69888,0 6.8712,-1.936 0.77912,-0.619 3.2626,-3.719 2.1698,-3.208 1.8078,-1.278" inkscape:connector-curvature="0" style="stroke:#ffffff">
      <title id="title826">Las Animas, CO</title>
    </path>
    <path id="c08055" d="m 352.9,306.22 0.96453,0.243 0.0963,-0.02 2.0966,-0.548 2.8045,-1.333 1.6706,1.943 0.30665,0.291 0.73811,0.57 6.1562,0.161 5.1347,2.394 -1.8078,1.278 -2.1698,3.208 -3.2626,3.719 -0.77912,0.618 -6.8712,1.937 -0.69888,0 0.61865,-2.707 -0.66679,-4.646 -1.6866,-1.205 -0.11232,-0.02 -1.2783,0.232 -1.3514,0.49 -0.85934,0.708 0.90926,-3.955 0.0481,-3.359" inkscape:connector-curvature="0" style="stroke:#ffffff">
      <title id="title829">Huerfano, CO</title>
    </path>
    <path id="c08023" d="m 346.79,318.15 5.1578,-4.619 0.85934,-0.708 1.3514,-0.49 1.2783,-0.232 0.11232,0.02 1.6866,1.205 0.66679,4.646 -0.61865,2.707 -0.68284,6.871 -1.1892,-0.114 -9.032,-0.915 -0.7078,-0.788 -0.10341,-0.248 -0.025,-0.21 0.1141,-0.465 0.50456,-0.869 0.36192,-1.139 0.4261,-2.772 -0.16045,-1.883" inkscape:connector-curvature="0" style="stroke:#ffffff">
      <title id="title832">Costilla, CO</title>
    </path>
    <path id="c08021" d="m 341.55,316.58 -0.11567,1.0024 5.3555,0.56465 0.16045,1.883 -0.4261,2.772 -0.36192,1.139 -0.50456,0.869 -0.1141,0.465 0.025,0.21 0.10341,0.248 0.7078,0.788 -5.2238,-0.538 -8.5168,-0.876 -0.17651,-0.522 -2.3712,-4.951 -0.50634,-0.353 0.4582,-4.026 11.507,1.325" inkscape:connector-curvature="0" style="stroke:#ffffff">
      <title id="title835">Conejos, CO</title>
    </path>
    <path id="c08003" d="m 352.85,309.57 -0.90926,3.955 -5.1578,4.619 -5.3555,-0.56465 0.11567,-1.0024 0.85935,-8.012 10.448,1.005" inkscape:connector-curvature="0" style="stroke:#ffffff">
      <title id="title838">Alamosa, CO</title>
    </path>
    <path id="c08105" d="m 330.88,305.29 1.9041,0.23 -0.20859,1.994 9.8272,1.059 -0.85935,8.012 -11.507,-1.325 -0.58656,-0.08 0.30487,-2.717 0.64361,-3.245 0.48138,-3.928" inkscape:connector-curvature="0" style="stroke:#ffffff">
      <title id="title841">Rio Grande, CO</title>
    </path>
    <path id="c08027" d="m 347.98,297.11 4.4518,0.472 3.6656,0.492 5.1988,0.53 -0.76485,7.898 -1.6706,-1.943 -2.8045,1.333 -2.0966,0.548 -0.0963,0.02 -0.96453,-0.243 -0.46711,-0.699 -1.6456,-2.699 -0.93244,-2.724 -0.24247,-0.506 -1.6313,-2.475" inkscape:connector-curvature="0" style="stroke:#ffffff">
      <title id="title844">Custer, CO</title>
    </path>
    <path id="c08043" d="m 357.31,287.98 0.7702,0.09 0.74702,0.66 -0.0553,0.554 2.3142,0.227 2.981,0.231 -0.82012,9.039 -1.9433,-0.176 -5.1988,-0.53 -3.6656,-0.492 -4.4518,-0.472 -3.3661,-4.58 1.9915,-1.382 0.52416,-1.052 0.2086,-0.87 0.007,-0.112 -0.0874,-0.328 -0.52238,-1.407 -0.0571,-0.07 -0.32092,-0.225 -0.41897,-0.169 4.1309,0.401 5.1186,0.449 2.1145,0.218" inkscape:connector-curvature="0" style="stroke:#ffffff">
      <title id="title847">Fremont, CO</title>
    </path>
    <path id="c08109" d="m 340.36,292.63 4.2593,-0.1 3.3661,4.58 1.6313,2.475 0.24247,0.506 0.93244,2.724 1.6456,2.699 0.46711,0.699 -0.0481,3.359 -10.448,-1.005 -9.8272,-1.059 0.20859,-1.994 -1.9041,-0.23 -0.11946,-0.943 -2.9328,-2.353 -0.19255,-0.153 -1.2944,-0.337 -0.55447,0.281 -0.0802,0.09 0.50633,-4.396 0.75594,-6.413 13.386,1.569" inkscape:connector-curvature="0" style="stroke:#ffffff">
      <title id="title850">Saguache, CO</title>
    </path>
    <path id="c08015" d="m 336.11,277.35 6.8141,0.788 0.0963,0.443 1.0038,2.351 0.72384,0.291 0.0891,0 0.0945,-0.104 0.0499,-0.105 0.11945,-0.03 0.41897,0.06 0.97167,0.923 0.29774,0.603 0.2496,2.209 -0.61866,1.63 -0.47602,0.492 0.41897,0.169 0.32092,0.225 0.0571,0.07 0.52238,1.407 0.0874,0.328 -0.007,0.112 -0.2086,0.87 -0.52416,1.052 -1.9915,1.382 -4.2593,0.1 -1.2944,-1.796 -1.3728,-3.822 -0.0963,-0.843 0.61687,-2.774 0.16224,-0.345 0.1604,-0.1 1.5168,-1.5702 -2.4639,-0.376 -2.0108,-2.3198 0.5313,-1.336" inkscape:connector-curvature="0" style="stroke:#ffffff">
      <title id="title853">Chaffee, CO</title>
    </path>
    <path id="c08051" d="m 322.28,271.12 0.15333,1.358 0.33696,0.644 1.0929,1.4 3.5675,0.415 0.24248,0.03 1.084,1.276 -0.0161,0.443 0.31379,0.538 1.0608,0.972 1.3888,0.506 0.45107,0.04 0.33696,-0.169 0.69175,-0.837 0.0945,-0.37 0.83616,-0.207 0.12124,0.02 1.5422,1.512 2.0108,2.3198 2.4639,0.376 -1.5168,1.5702 -0.16046,0.1 -0.16224,0.345 -0.61687,2.774 0.0963,0.843 1.3728,3.822 1.2944,1.796 -13.386,-1.569 -0.75594,6.413 -10.118,-1.214 -0.74703,-3.705 2.4033,0.298 1.0127,-8.439 1.5333,-12.637 1.9772,-0.661" inkscape:connector-curvature="0" style="stroke:#ffffff">
      <title id="title856">Gunnison, CO</title>
    </path>
    <path id="c08097" d="m 327.51,269.18 12.038,1.462 -3.4392,6.709 -0.5313,1.336 -1.5422,-1.512 -0.12124,-0.02 -0.83616,0.207 -0.0945,0.37 -0.69175,0.837 -0.33696,0.169 -0.45107,-0.04 -1.3888,-0.506 -1.0608,-0.972 -0.31379,-0.538 0.0161,-0.443 -1.084,-1.276 -0.24248,-0.03 -3.5675,-0.415 -1.0929,-1.4 -0.33696,-0.644 -0.15333,-1.358 -0.33696,-2.601 5.5679,0.666" inkscape:connector-curvature="0" style="stroke:#ffffff">
      <title id="title859">Pitkin, CO</title>
    </path>
    <path id="c08065" d="m 343.44,270.66 1.2534,0.138 -0.34587,0.36 -0.67393,1.164 -0.12837,0.692 -0.0891,1.599 -0.016,1.656 -0.2817,1.405 -0.24069,0.467 -6.8141,-0.788 3.4392,-6.709 3.8974,0.02" inkscape:connector-curvature="0" style="stroke:#ffffff">
      <title id="title862">Lake, CO</title>
    </path>
    <path id="c08093" d="m 358.06,267.82 -0.98058,10.068 1.191,0.121 -0.96453,9.972 -2.1145,-0.218 -5.1186,-0.449 -4.1309,-0.401 0.47602,-0.492 0.61866,-1.63 -0.2496,-2.209 -0.29774,-0.603 -0.97167,-0.923 -0.41897,-0.06 -0.11945,0.03 -0.0499,0.105 -0.0945,0.104 -0.0891,0 -0.72384,-0.291 -1.0038,-2.351 -0.0963,-0.443 0.24069,-0.467 0.2817,-1.405 0.016,-1.656 0.0891,-1.599 0.12837,-0.692 0.67393,-1.164 0.34587,-0.36 2.0414,0.529 3.0772,-3.109 0.69176,-1.134 7.5522,0.74" inkscape:connector-curvature="0" style="stroke:#ffffff">
      <title id="title865">Park, CO</title>
    </path>
    <path id="c08059" d="m 364.88,260.38 -0.13728,1.419 -0.13729,1.418 -0.23177,2.514 -0.0321,0.331 -0.0713,0.844 -0.0178,0 0,0.03 -0.0232,0.199 -0.041,1.288 -5.8977,9.586 -0.0232,0 -1.191,-0.121 0.98058,-10.068 0.42611,-4.17 0.38688,-3.828 4.9652,0.481 -0.0573,0.211 0.67182,0.07" inkscape:connector-curvature="0" style="stroke:#ffffff">
      <title id="title868">Jefferson, CO</title>
    </path>
    <path id="c08047" d="m 354.07,258.89 3.0541,0.316 1.109,0 0.68283,0.112 -0.0392,0.505 -0.38688,3.828 -2.5388,-1.045 -0.46711,-0.62 -0.85043,-0.883 -1.0055,-0.387 0.44215,-1.833" inkscape:connector-curvature="0" style="stroke:#ffffff">
      <title id="title871">Gilpin, CO</title>
    </path>
    <path id="c08019" d="m 353.63,260.72 1.0055,0.387 0.85043,0.883 0.46711,0.62 2.5388,1.045 -0.42611,4.17 -7.5522,-0.74 1.0358,-0.829 0.0161,-0.127 -0.0802,-0.46 -0.16759,-0.167 -0.41897,0.03 -1.5672,-0.829 -0.24782,-0.287 0.0945,-0.589 0.34587,-0.593 1.6402,-1.214 1.0519,-0.113 0.39401,-0.167 0.8843,-0.724 0.1355,-0.291" inkscape:connector-curvature="0" style="stroke:#ffffff">
      <title id="title874">Clear Creek, CO</title>
    </path>
    <path id="c08117" d="m 340.83,257.66 0.68284,0.09 2.8294,1.031 1.6795,1.382 0.62579,0.891 0.18541,1.013 0.0571,0.925 0.47424,0.866 0.51347,0.177 0.90035,-0.02 0.39223,-0.193 -0.0945,0.589 0.24782,0.287 1.5672,0.829 0.41897,-0.03 0.16759,0.167 0.0802,0.46 -0.0161,0.127 -1.0358,0.829 -0.69176,1.134 -3.0772,3.109 -2.0414,-0.529 -1.2534,-0.138 -0.50634,-3.351 1.7918,-1.2894 -3.4138,-3.8302 -0.52281,-2.6524 -0.0892,-0.681 0.12837,-1.198" inkscape:connector-curvature="0" style="stroke:#ffffff">
      <title id="title877">Summit, CO</title>
    </path>
    <path id="c08037" d="m 337.49,257.29 3.3429,0.369 -0.12837,1.198 0.0892,0.681 0.52281,2.6524 3.4138,3.8302 -1.7918,1.2894 0.50634,3.351 -3.8974,-0.02 -12.038,-1.462 1.4869,-12.736 1.4316,0.178 7.062,0.665" inkscape:connector-curvature="0" style="stroke:#ffffff">
      <title id="title880">Eagle, CO</title>
    </path>
    <path id="c08013" d="m 354.07,258.89 1.166,-7.513 1.7668,0.156 2.5798,0.344 6.035,0.483 -0.52951,6.051 -0.14855,1.298 -0.61468,-0.06 -0.45916,0.654 -4.9891,-0.469 0.0392,-0.505 -0.68283,-0.112 -1.109,0 -3.0541,-0.316" inkscape:connector-curvature="0" style="stroke:#ffffff">
      <title id="title883">Boulder, CO</title>
    </path>
    <path id="c08049" d="m 337.49,257.29 0.20146,-1.728 0.77912,-7.875 -0.0731,-2.426 0.54021,1.501 0.1355,0.186 2.6832,0.989 3.6246,0.915 0.72385,0.02 3.8171,-0.186 1.2854,-0.964 1.0679,-1.92 2.9578,5.567 -1.166,7.513 -0.44215,1.833 -0.1355,0.291 -0.8843,0.724 -0.39401,0.167 -1.0519,0.113 -1.6402,1.214 -0.34587,0.593 -0.39223,0.193 -0.90035,0.02 -0.51347,-0.177 -0.47424,-0.866 -0.0571,-0.925 -0.18541,-1.013 -0.62579,-0.891 -1.6795,-1.382 -2.8294,-1.031 -0.68284,-0.09 -3.3429,-0.369" inkscape:connector-curvature="0" style="stroke:#ffffff">
      <title id="title886">Grand, CO</title>
    </path>
    <path id="c08069" d="m 347.74,233.41 15.686,1.607 5.7302,0.554 -1.2391,12.931 -0.21572,2.026 -1.9202,-0.179 -0.16938,2.01 -6.035,-0.483 -2.5798,-0.344 -1.7668,-0.156 -2.9578,-5.567 -0.86647,-2.051 -0.65967,-2.979 -0.79516,-2.106 -0.20146,-0.392 -1.6723,-2.797 -0.33697,-2.074" inkscape:connector-curvature="0" style="stroke:#ffffff">
      <title id="title889">Larimer, CO</title>
    </path>
    <path id="c08057" d="m 336.33,232.03 9.1836,1.115 2.2339,0.265 0.33697,2.074 1.6723,2.797 0.20146,0.392 0.79516,2.106 0.65967,2.979 0.86647,2.051 -1.0679,1.92 -1.2854,0.964 -3.8171,0.186 -0.72385,-0.02 -3.6246,-0.915 -2.6832,-0.989 -0.1355,-0.186 -0.54021,-1.501 -0.1765,-0.738 -0.32092,-2.45 0.007,-0.838 1.182,-3.494 0.16046,-0.08 0.29774,-0.289 0.057,-0.305 -0.016,-0.33 -0.36192,-1.003 -0.21038,-0.307 -0.31201,-0.323 -1.1981,-0.665 -0.12837,-0.06 -0.0963,0.07 -0.26564,0.143 -0.81121,-0.769 -0.21751,-0.78 -0.0143,-0.362 0.27278,-0.587 0.0802,-0.07" inkscape:connector-curvature="0" style="stroke:#ffffff">
      <title id="title892">Jackson, CO</title>
    </path>
    <path id="c08107" d="m 328.43,231.1 7.8928,0.928 -0.0802,0.07 -0.27278,0.587 0.0143,0.361 0.21751,0.781 0.81121,0.769 0.26564,-0.143 0.0963,-0.07 0.12837,0.06 1.1981,0.665 0.31201,0.323 0.21038,0.306 0.36192,1.004 0.016,0.33 -0.057,0.305 -0.29774,0.289 -0.16046,0.08 -1.182,3.494 -0.007,0.838 0.32092,2.45 0.1765,0.738 0.0731,2.426 -0.77912,7.875 -0.20146,1.728 -7.062,-0.665 0.36014,-3.988 0.35479,-3.078 -6.9603,-0.788 0.2496,-2.562 0.82012,-4.74 1.1321,-1.127 0.57052,-0.02 0.43502,0.05 0.26387,-2.156 0.77911,-7.111" inkscape:connector-curvature="0" style="stroke:#ffffff">
      <title id="title895">Routt, CO</title>
    </path>
    <path id="c08081" d="m 318.14,229.86 10.293,1.243 -0.77911,7.111 -0.26387,2.156 -0.43502,-0.05 -0.57052,0.02 -1.1321,1.127 -0.82012,4.74 -0.2496,2.562 -0.007,0.07 -0.13728,-0.01 -4.7086,-0.652 -7.0316,-0.842 -15.998,-2.155 1.4067,-9.883 1.0768,-7.964 13.667,1.84 5.6891,0.685" inkscape:connector-curvature="0" style="stroke:#ffffff">
      <title id="title898">Moffat, CO</title>
    </path>
    <path id="c08103" d="m 324.18,248.77 6.9603,0.788 -0.35479,3.078 -4.853,-0.553 -0.28882,2.081 -0.22465,1.959 -1.7345,-0.28447 -0.47625,2.0385 -5.1507,-0.629 -3.6798,-0.387 -0.37797,3.008 -4.869,-0.644 -3.9615,-0.151 -1.8918,-0.17966 -0.14959,0.59466 -5.9459,-0.802 -0.0642,-0.25 -2.6119,-0.353 1.7918,-12.906 15.998,2.155 7.0316,0.842 4.7086,0.652 0.13728,0.01 0.007,-0.07" inkscape:connector-curvature="0" style="stroke:#ffffff">
      <title id="title901">Rio Blanco, CO</title>
    </path>
    <path id="c08045" d="m 330.79,252.64 -0.36014,3.988 -1.4316,-0.178 -1.4869,12.736 -5.5679,-0.666 -28.365,-3.691 0.41898,-3.004 0.51346,-3.737 2.6119,0.353 0.0642,0.25 5.9459,0.802 0.14959,-0.59466 1.8918,0.17966 3.9615,0.151 4.869,0.644 0.37797,-3.008 3.6798,0.387 5.1507,0.629 0.47625,-2.0385 1.7345,0.28447 0.22465,-1.959 0.28882,-2.081 4.853,0.553" inkscape:connector-curvature="0" style="stroke:#ffffff">
      <title id="title904">Garfield, CO</title>
    </path>
    <path id="c08029" d="m 320.3,271.78 -1.5333,12.637 -15.525,-1.95 0.48138,-3.705 4.0035,-1.1798 3.6628,-3.2242 2.1056,-0.119 1.6634,0.3519 1.6634,-0.4999 0.85935,-0.865 0.58656,-0.378 2.0325,-1.068" inkscape:connector-curvature="0" style="stroke:#ffffff">
      <title id="title907">Delta, CO</title>
    </path>
    <path id="c08077" d="m 293.58,264.82 28.365,3.691 0.33696,2.601 -1.9772,0.661 -2.0325,1.068 -0.58656,0.378 -0.85935,0.865 -1.6634,0.4999 -1.6634,-0.3519 -2.1056,0.119 -3.6628,3.2242 -4.0035,1.1798 -0.48138,3.705 -0.51347,3.865 -12.054,-1.622 0.69889,-5.048 0.69175,-4.227 0.12837,-0.884 0.60974,-4.172 0.77198,-5.552" inkscape:connector-curvature="0" style="stroke:#ffffff">
      <title id="title910">Mesa, CO</title>
    </path>
    <path id="c08085" d="m 303.24,282.46 15.525,1.95 -1.0127,8.439 -2.4033,-0.298 0.14442,-0.539 -0.0713,-0.151 -8.8234,-1.104 -0.0232,0.252 0.60974,1.617 1.3336,0.167 0.47424,0.218 0.58657,0.586 0.15332,0.193 -0.14441,1.036 -0.21751,0.474 -0.33696,-0.04 -19.15,-2.544 0.78803,-8.01 12.054,1.622 0.51347,-3.865" inkscape:connector-curvature="0" style="stroke:#ffffff">
      <title id="title913">Montrose, CO</title>
    </path>
    <path id="c08111" d="m 312.39,301.45 0.22464,0.186 0.41006,0.208 0.0892,0 0.60261,-0.185 0.27278,-0.128 0.24068,-0.218 0.009,-0.06 -0.0571,-0.193 0,-0.121 0.10518,-0.651 1.3015,0.161 0.6347,7.673 -8.7824,-1.084 0.21573,-0.636 0.64362,-0.795 0.98771,-0.184 0.4582,-0.82 0.0802,-0.44 2.5638,-2.718" inkscape:connector-curvature="0" style="stroke:#ffffff">
      <title id="title916">San Juan, CO</title>
    </path>
    <path id="c08033" d="m 309.82,304.17 -0.0802,0.44 -0.4582,0.82 -0.98771,0.184 -0.64362,0.795 -0.21573,0.636 -2.4425,-0.297 -1.5671,-0.09 -2.0574,-0.226 -10.897,-1.444 -2.7242,3.059 1.2765,-9.094 3.9562,0.552 0.0713,-0.192 0.43324,-0.08 9.6114,1.294 0.27278,0.456 0.0963,0.371 0,0.417 0.25674,0.555 2.8223,-0.145 0.78625,-0.233 0.44215,0.169 1.15,0.926 0.89856,1.125" inkscape:connector-curvature="0" style="stroke:#ffffff">
      <title id="title919">Dolores, CO</title>
    </path>
    <path id="c08113" d="m 289.89,292.72 19.15,2.544 -0.0161,0.171 0.16938,0.701 1.0049,0.19999 -0.35595,1.975 0.14441,0.362 0.10519,0.112 0.57052,0.378 0.5937,0.186 0.47424,0.328 0.60261,0.66 0.22642,0.563 -0.0963,0.433 -0.0731,0.121 -2.5638,2.718 -0.89856,-1.125 -1.15,-0.926 -0.44215,-0.169 -0.78625,0.233 -2.8223,0.145 -0.25674,-0.555 0,-0.417 -0.0963,-0.371 -0.27278,-0.456 -9.6114,-1.294 -0.43324,0.08 -0.0713,0.192 -3.9562,-0.552 0.86112,-6.237" inkscape:connector-curvature="0" style="stroke:#ffffff">
      <title id="title922">San Miguel, CO</title>
    </path>
    <path id="c08091" d="m 315.35,292.56 0.74703,3.705 -0.11357,1.0488 0.89227,0.81208 -1.149,1.1079 -0.14316,1.2262 -1.3015,-0.161 -0.10518,0.651 0,0.121 0.0571,0.193 -0.009,0.06 -0.24068,0.218 -0.27278,0.128 -0.60261,0.185 -0.0892,0 -0.41006,-0.208 -0.22464,-0.186 0.0731,-0.121 0.0963,-0.433 -0.22642,-0.563 -0.60261,-0.66 -0.47424,-0.328 -0.5937,-0.186 -0.57052,-0.378 -0.10519,-0.112 -0.14441,-0.362 0.35595,-1.975 -1.0049,-0.19999 -0.16938,-0.701 0.0161,-0.171 0.33696,0.04 0.21751,-0.474 0.14441,-1.036 -0.15332,-0.193 -0.58657,-0.586 -0.47424,-0.218 -1.3336,-0.167 -0.60974,-1.617 0.0232,-0.252 8.8234,1.104 0.0713,0.151 -0.14442,0.539" inkscape:connector-curvature="0" style="stroke:#ffffff">
      <title id="title925">Ouray, CO</title>
    </path>
    <path id="c08053" d="m 316.1,296.26 10.118,1.214 -0.50633,4.396 -1.2783,-0.13 -1.2302,0.241 -0.68106,5.103 -0.025,2.827 -0.51346,3.963 -6.3648,-0.754 0.60261,-4.992 -0.6347,-7.673 0.14316,-1.2262 1.149,-1.1079 -0.89227,-0.81208 0.11358,-1.0488" inkscape:connector-curvature="0" style="stroke:#ffffff">
      <title id="title928">Hinsdale, CO</title>
    </path>
    <path id="c08079" d="m 325.71,301.87 0.0802,-0.09 0.55447,-0.281 1.2944,0.337 0.19255,0.153 2.9328,2.353 0.11946,0.943 -0.48138,3.928 -0.64361,3.245 -0.30487,2.717 -0.0161,0.185 -7.5451,-0.781 0.0892,-0.706 0.51346,-3.963 0.025,-2.827 0.68106,-5.103 1.2302,-0.241 1.2783,0.13" inkscape:connector-curvature="0" style="stroke:#ffffff">
      <title id="title931">Mineral, CO</title>
    </path>
    <path id="c08007" d="m 315.62,313.12 6.3648,0.754 -0.0892,0.706 7.5451,0.781 0.0161,-0.185 0.58656,0.08 -0.4582,4.026 0.50634,0.353 2.3712,4.951 0.17651,0.522 -2.5548,-0.274 -4.582,-0.505 -2.3445,-0.451 -7.6111,-0.9 -1.1,-0.136 1.1731,-9.722" inkscape:connector-curvature="0" style="stroke:#ffffff">
      <title id="title934">Archuleta, CO</title>
    </path>
    <path id="c08014" d="m 363.78,260.51 0.0777,-0.205 0.46606,-0.656 0.62824,0.07 0.13424,-1.306 0.53655,0.03 0.0987,-0.565 0.71317,0.06 -0.0565,0.572 -0.40949,-0.03 -0.0635,0.465 -0.32477,-0.03 -0.16943,1.215 -0.94604,0.444 -0.68484,-0.06" inkscape:connector-curvature="0" style="stroke:#ffffff">
      <title id="title937">Broomfield, CO</title>
    </path>
    </g>
  </svg>
