<svg xmlns:dc="http://purl.org/dc/elements/1.1/" xmlns:cc="http://creativecommons.org/ns#" xmlns:rdf="http://www.w3.org/1999/02/22-rdf-syntax-ns#" xmlns:svg="http://www.w3.org/2000/svg" xmlns="http://www.w3.org/2000/svg" xmlns:sodipodi="http://sodipodi.sourceforge.net/DTD/sodipodi-0.dtd" xmlns:inkscape="http://www.inkscape.org/namespaces/inkscape" width="122.43564000000002" height="90.54768" version="1.0" id="svg2" inkscape:version="0.91 r13725" sodipodi:docname="USA counties.svg">
  <defs id="defs9439"/>
  <sodipodi:namedview pagecolor="#ffffff" bordercolor="#666666" borderopacity="1" objecttolerance="10" gridtolerance="10" guidetolerance="10" inkscape:pageopacity="0" inkscape:pageshadow="2" inkscape:window-width="798" inkscape:window-height="828" id="namedview9437" showgrid="false" showguides="true" inkscape:zoom="0.64950808" inkscape:cx="494.98999" inkscape:cy="313.535" inkscape:window-x="-7" inkscape:window-y="0" inkscape:window-maximized="0" inkscape:current-layer="svg2"/>
  <metadata id="metadata4">
    <rdf:RDF>
      <cc:Work>
        <dc:format>image/svg+xml</dc:format>
        <dc:type rdf:resource="http://purl.org/dc/dcmitype/StillImage"/>
        <dc:title/>
        <cc:license rdf:resource="http://creativecommons.org/publicdomain/zero/1.0/"/>
        <dc:date>2019-10-06</dc:date>
        <dc:creator>
          <cc:Agent>
            <dc:title>U.S. Census Bureau, Abe.suleiman, Lokal_Profil</dc:title>
          </cc:Agent>
        </dc:creator>
        <dc:source>https://commons.wikimedia.org/wiki/File:Usa_counties_large.svg</dc:source>
      </cc:Work>
      <cc:License rdf:about="http://creativecommons.org/publicdomain/zero/1.0/">
        <cc:permits rdf:resource="http://creativecommons.org/ns#Reproduction"/>
        <cc:permits rdf:resource="http://creativecommons.org/ns#Distribution"/>
        <cc:permits rdf:resource="http://creativecommons.org/ns#DerivativeWorks"/>
      </cc:License>
    </rdf:RDF>
  </metadata>
  <style id="style6">
  /*
   * Below are Cascading Style Sheet (CSS) definitions in use in this file,
   * which allow easily changing how counties are displayed.
   *
   *
   * For the U.S. Census county codes (FIPS codes) used in this file to identify individual counties, see this link:
   * https://www2.census.gov/geo/docs/reference/codes/files/national_county.txt
   *
   * The county codes used in this file combine the 2-digit state code, which is in the second column of the file
   * linked above, and the 3-digit county code, which is in the third column of the file linked above. Each value
   * for the "id" attribute for each county is in the following form: "c[state_code][county-code]". For example,
   * for Loving Country in Texas, the state code is "48" and the county code is "301", so the id name for the
   * county is "c48301".
   *
   * County codes used in this file can also be found on Wikimedia Commons at this link:
   * https://commons.wikimedia.org/wiki/File_talk:Usa_counties_large.svg/county_codes
   *
   * Examples:
   *
   * To color two counties red (in this case Loving County and Dallas County in Texas) simply
   * go to the CSS insertion point and add:
   *
   * #c48301, #c48113 {fill:red}
   *
   * To color an entire state's counties (in the case New Mexico, with "35" being the state code) a green,
   * go to the CSS insertion point and add:
   *
   * path[id*='c35'] {fill:#34A853}
   *
   */
  #counties {fill:#d0d0d0;stroke:#000;stroke-width:.17829;} 
  #borders {fill:none;stroke:#221e1f;stroke-width:.89143;} 
  #separator {fill:none;stroke:#a9a9a9;stroke-width:2.3177309;}
 </style>
  <g id="counties" transform="translate(-81.21445000000001,-0.19531)" style="fill:#d0d0d0;stroke:#ffffff;stroke-width:0.17828999">
    <path id="c53047" d="m 146.86,9.3671 17.028,4.475 8.4526,2.122 4.3966,1.086 -0.46712,1.984 -1.3308,5.5214 -0.53463,-0.11811 -0.87296,3.8237 0.34486,0.11399 -0.86563,3.8141 -0.12213,-0.02233 -1.9049,7.7682 -0.12123,0.112 -1.9202,-0.146 -0.0321,-0.441 0.41006,-0.458 0.28169,-0.41 0.0945,-0.265 -0.0562,-0.32058 -0.40664,-0.38628 -0.1767,-0.63812 0.0642,-1.0323 -0.21087,-0.3157 -0.24069,-0.376 -0.57725,-0.12315 -0.2816,-0.45165 -0.43551,0.0738 -0.35653,0.30054 -0.42222,-0.07176 -1.151,0.25068 -0.35887,-0.41015 -0.40268,0.19209 -0.31507,0.35634 -0.26033,0.68483 -1.052,-0.22147 -0.395,-0.70326 -0.58114,-0.13387 -0.3512,-0.23242 -0.47164,0.52312 -0.2855,0.06323 -0.31834,0.27128 -0.27455,0.0085 -0.88208,0.58472 -0.5317,-0.09417 -0.37839,-0.58691 0.1253,-0.49931 0.4699,-0.69138 -0.14328,-0.37384 -0.29659,0.08606 -0.38418,-0.07819 -0.14413,-0.53777 -0.43977,-0.17643 -0.11865,0.37895 -0.44715,-0.14664 -1.4361,0.42125 -0.16514,0.32731 0.27286,0.5682 -0.0675,0.45752 -0.39345,0.33375 -0.0568,0.17622 0.009,0.08 0.12659,0.257 -2.8924,-0.78816 0.0966,-0.44052 -0.19236,-0.42376 0.085,-0.47418 -0.747,-0.72629 0.31187,-0.37334 -0.72179,-0.67587 -0.36883,-0.04559 -0.54531,-0.9784 -0.34362,-0.49939 -0.50213,0.04686 -0.0483,-0.38173 -0.27523,-0.20525 0.002,-0.60862 0.45588,-0.45736 0.002,-0.63384 -0.52734,-0.15483 0.10293,-0.28088 -0.78728,-0.64569 -0.66122,-1.5533 -0.45954,0.06022 -0.56042,-0.51963 0.52369,-0.72132 0.0446,-0.62048 -1.0142,-0.57006 -0.006,-1.2255 0.66012,-0.30976 -0.32311,-0.33497 0.48364,-0.28454 -0.35063,-0.33136 0.17879,-0.58346 -0.79742,-0.105 0.29293,-0.58999 0.3103,-0.15229 -0.27398,-0.73658 -0.59966,0.25959 -0.18778,-0.20976 -0.1381,-1.0114 0.58029,-0.53252 0.25674,-0.07 0.40847,0.0628 0.33184,-0.64601 0.54256,0.13943 -0.0352,-0.49542 0.46286,-0.11228 -0.32077,-0.70135 -0.5315,-0.8546 0.52214,-1.6784 -0.30161,-0.49062 0.15815,-1.142 0.34973,-0.24158 -0.0909,-0.50978 -0.35908,-0.1458 -0.76782,0.36409 -0.56768,-1.0508 0.49475,-0.36378" inkscape:connector-curvature="0" style="stroke:#ffffff">
      <title id="title8866">Okanogan, WA</title>
    </path>
    <path id="c53073" transform="translate(0,-0.10698)" d="m 113.82,0.19531 0,0.003906 -0.0645,0.58789 0.80469,0.28906 0.11914,-0.039063 -0.0469,-0.60156 -0.71679,-0.20898 z m 4.8945,1.416 -0.31445,0.17773 -0.43359,0.25 -0.41602,0.32617 -0.14453,0.22656 -0.01,0.080078 0.96409,0.22231 -0.0181,0.63774 -0.69012,0.32159 0.7463,1.3122 -0.28145,1.3206 0.3457,-0.29688 0.39649,0.46094 -0.05,0.54626 -0.52618,0.59632 0.0899,0.875 0.51562,0.37891 0.25977,-0.39062 -0.13282,-0.29492 -0.35546,-0.023437 0.89062,-0.88477 0.80664,0 0.70899,0.82812 -0.64844,0.66016 0.0469,1.6875 0.33789,0.0293 5.1445,1.4375 12.834,3.6719 5.2791,1.4133 0.0661,-0.37608 2.1821,0.60534 0.25782,-0.07031 0.40836,0.06277 0.33173,-0.64604 0.54245,0.13939 -0.0353,-0.49543 0.4628,-0.1123 -0.32079,-0.7013 -0.5315,-0.85456 0.52212,-1.6783 -0.30162,-0.49058 0.15814,-1.1419 0.34971,-0.24154 -0.0909,-0.50973 -0.3591,-0.14575 -0.76707,0.36384 -0.56748,-1.0509 0.49338,-0.36292 0,-0.00391 -4.0801,-1.1016 -9.2559,-2.4434 -5.0957,-1.5352 -4.5332,-1.293 z m -0.86847,5.6923 -0.41787,0.70799 0.31071,0.36631 0.0869,0.76846 0.47468,0.75595 0.39808,0.20699 0.0401,-0.67355 -0.41544,-0.52516 -0.22048,-1.0101 z" inkscape:connector-curvature="0" style="stroke:#ffffff">
      <title id="title8869">Whatcom, WA</title>
    </path>
    <path id="c53069" d="m 86.653,56.615 0.65788,-2.096 3.416,1.076 2.1929,0.635 2.1537,0.61 -1.3015,4.701 -2.4818,-0.103 -0.12124,-0.04 -0.67392,-1.052 0.35122,-1.029 -0.16759,-0.538 -0.23356,-0.417 -0.06418,-0.106 -0.04814,-0.02 -0.08914,-0.06 -1.0358,-0.06 -2.5549,-1.503" inkscape:connector-curvature="0" style="stroke:#ffffff">
      <title id="title8872">Wahkiakum, WA</title>
    </path>
    <path id="c53003" d="m 187.88,79.197 0.3703,0.4577 -0.23488,0.42889 0.25502,0.22716 0.73378,-0.0801 0.74818,0.46745 0.46,-0.0801 0.41678,0.06399 -0.33696,1.004 0.50455,2.034 0.0232,0.08 0.15333,1.27 0.0981,1.975 -0.76485,2.108 0.0981,1.59 -8.8163,-2.058 0.64361,-2.77 0.93958,0.216 1.0198,-4.548 0.29213,-1.2135 0.32284,0.08546 0.10887,-0.42397 0.64058,0.16947 0.0904,-0.33647 1.9772,0.472 0.25674,-1.139" inkscape:connector-curvature="0" style="stroke:#ffffff">
      <title id="title8875">Asotin, WA</title>
    </path>
    <path id="c53023" d="m 179.06,73.339 1.897,-1.086 0.20859,-0.07 0.94849,0.02 0.40114,0.153 2.3142,0.947 0.7488,0.458 0.78625,0.634 1.5529,2.869 0.12658,0.981 -0.16045,0.957 -0.25674,1.139 -1.9772,-0.472 -0.0904,0.33647 -0.64058,-0.16947 -0.10887,0.42397 -0.32284,-0.08546 -0.29213,1.2135 -1.0198,4.548 -0.93958,-0.216 -0.64361,2.77 -1.9202,-0.465 0.68314,-2.6182 -0.19921,-0.05323 1.1403,-4.9466 -0.92269,-0.20368 0.23786,-0.86308 -0.44792,-0.12455 0.0796,-0.32237 -0.38198,-0.12455 0.3038,-0.98177 -0.32923,-0.09817 0.19829,-0.70482 -1.954,-0.449 0.48316,-1.978 0.49742,-1.413" inkscape:connector-curvature="0" style="stroke:#ffffff">
      <title id="title8878">Garfield, WA</title>
    </path>
    <path id="c53013" d="m 173.07,72.656 0.17651,0.158 0.49742,0.869 0.15333,0.09 0.68283,0.112 0.13729,0 3.8332,-0.242 0.51346,-0.296 -0.49742,1.413 -0.48316,1.978 1.954,0.449 -0.19829,0.70482 0.32923,0.09817 -0.3038,0.98177 0.38198,0.12455 -0.0796,0.32237 0.44792,0.12455 -0.23786,0.86308 0.92269,0.20368 -1.1403,4.9466 0.19921,0.05323 -0.68314,2.6182 -5.8425,-1.406 -0.29595,-0.07 0.24781,-0.754 0.93245,-3.849 -1.9522,-0.458 0.48611,-1.9374 -1.9659,-0.47356 1.3996,-5.922 0.3851,-0.69" inkscape:connector-curvature="0" style="stroke:#ffffff">
      <title id="title8881">Columbia, WA</title>
    </path>
    <path id="c53071" d="m 173.07,72.656 -0.3851,0.69 -1.3996,5.922 1.9659,0.47356 -0.48611,1.9374 1.9522,0.458 -0.93245,3.849 -0.24781,0.754 -15.445,-3.703 0.97478,-0.5901 0.24613,-1.3955 -0.2716,-0.5901 -0.0207,-0.65938 -0.71105,-1.273 0.22465,-0.289 0.18363,-0.17 0.7078,-0.208 0.39401,-0.05 1.5743,0.1 1.182,-0.644 0.64029,-0.0073 0.0455,-0.60212 0.60725,-0.76733 0.73942,0.09179 0.78756,-0.50774 0.51489,-0.30666 0.57848,-1.7636 0.11945,-0.202 0.47425,-0.387 0.84329,-0.495 1.4067,-0.646 0.33436,0.07647 0.38436,0.35801 0.66474,0.21782 0.56279,-0.34293 0.53729,0.07763 1.0519,0.393 0.20146,0.21" inkscape:connector-curvature="0" style="stroke:#ffffff">
      <title id="title8884">Walla Walla, WA</title>
    </path>
    <path id="c53021" d="m 156.25,65.157 2.7724,0.676 6.4112,1.647 8.2529,1.911 -0.44215,3.423 -0.17651,-0.158 -0.20146,-0.211 -1.0519,-0.392 -0.53729,-0.07763 -0.56279,0.34293 -0.66474,-0.21782 -0.38436,-0.35801 -0.33436,-0.07647 -1.4067,0.646 -0.84329,0.495 -0.47425,0.387 -0.11945,0.202 -0.57848,1.7636 -0.51489,0.30666 -0.78756,0.50774 -0.73942,-0.09179 -0.60725,0.76733 -0.0455,0.60212 -0.64029,0.0073 -1.182,0.644 -1.5743,-0.1 -0.39401,0.05 -0.7078,0.208 -0.18363,0.169 -0.22465,0.289 -1.0127,-0.946 -0.36192,-0.195 -0.44928,-0.144 -0.47603,-0.298 -0.73811,-1.059 -0.025,-0.13 0.0892,-0.193 0.48076,-0.51403 -0.005,-1.5688 0.46402,-1.2674 0.31334,-1.1168 0,-0.731 -0.51525,-0.837 -0.68997,-0.971 -0.36192,-0.82 0.12717,-0.51307 -0.10028,-0.38139 -0.32775,-0.10604 -0.10028,-0.3335 0.0232,-0.28 1.263,0.36014 0.34515,-1.3261" inkscape:connector-curvature="0" style="stroke:#ffffff">
      <title id="title8887">Franklin, WA</title>
    </path>
    <path id="c53075" d="m 182.81,59.275 12.022,2.789 -0.66857,2.941 -2.94,13.081 -0.58657,2.596 -0.41678,-0.06399 -0.46,0.0801 -0.74818,-0.46745 -0.73378,0.0801 -0.25502,-0.22716 0.23488,-0.42889 -0.3703,-0.4577 0.16045,-0.957 -0.12658,-0.981 -1.5529,-2.869 -0.78625,-0.634 -0.7488,-0.458 -2.3142,-0.947 -0.40114,-0.153 -0.94849,-0.02 -0.20859,0.07 -1.897,1.086 -0.51346,0.296 -3.8332,0.242 -0.13729,0 -0.68283,-0.112 -0.15333,-0.09 -0.49742,-0.869 0.44215,-3.423 3.1414,0.04 0.57943,-0.529 0.44215,-0.499 0.64183,-0.901 0.43502,-1.02 1.79,-7.698 2.0913,0.49" inkscape:connector-curvature="0" style="stroke:#ffffff">
      <title id="title8890">Whitman, WA</title>
    </path>
    <path id="c53063" d="m 192.75,43.14 5.9869,1.4 -0.34588,1.517 -3.0291,13.621 -0.53665,2.386 -12.022,-2.789 2.981,-12.551 0.21573,0.33 0.14619,0.09 0.27605,-0.10669 0.067,-0.25146 0.38865,0.09437 0.97574,-0.53294 0.2278,-0.43643 0.24388,-0.24341 0.21975,0.10241 -0.089,0.38528 0.004,0.77424 0.4025,0.17143 0.45717,0.97287 0.5254,-0.05077 0.22053,0.2283 1.2058,-5.4632 1.478,0.353" inkscape:connector-curvature="0" style="stroke:#ffffff">
      <title id="title8893">Spokane, WA</title>
    </path>
    <path id="c53051" d="m 203.65,23.397 -0.77911,3.384 -4.1309,17.759 -5.9869,-1.4 0.44216,-1.945 -0.96689,-0.22896 2.6874,-11.559 -1.9451,-0.44 0.44216,-1.93 1.0352,0.23988 0.61446,-2.1736 0.8016,0.14898 0.44733,-1.7995 1.0257,0.14048 0.38318,-1.5622 5.9298,1.366" inkscape:connector-curvature="0" style="stroke:#ffffff">
      <title id="title8896">Pend Oreille, WA</title>
    </path>
    <path id="c53065" d="m 197.72,22.031 -0.38318,1.5622 -1.0257,-0.14048 -0.44733,1.7995 -0.8016,-0.14898 -0.61446,2.1736 -1.0352,-0.23988 -0.44216,1.93 1.9451,0.44 -2.6874,11.559 0.96689,0.22896 -0.44216,1.945 -1.478,-0.353 -1.2058,5.4632 -0.22053,-0.2283 -0.5254,0.05077 -0.45716,-0.97287 -0.40251,-0.17143 -0.004,-0.77424 0.089,-0.38528 -0.21976,-0.10241 -0.24388,0.24341 -0.2278,0.43643 -0.97574,0.53294 -0.38865,-0.09437 -0.067,0.25146 -0.27605,0.10669 -0.14619,-0.09 -0.21573,-0.33 -0.0516,-0.49577 -0.53725,-0.35293 -1.0657,0.34698 -0.78066,-0.45604 -0.46641,0.40099 -0.46641,0.35814 -0.38071,-0.12751 -0.334,-0.26785 -0.0963,-0.458 -0.36905,-1.198 -0.70067,-1.76 -0.0481,-0.05 -0.76306,0 -1.0038,0.401 -0.46533,0.25 -0.0183,-0.769 0.33628,-1.098 -0.43023,-1.381 0.66679,-0.257 0.42085,-0.05448 0.20499,0.24692 0.83986,0.16366 0.13214,-0.29429 0.39233,0.03876 0.24022,-0.74318 -0.12977,-0.48858 0.10961,-0.49898 0.48014,0.11203 0.57381,-0.23143 0.26158,-1.4491 0.60503,-0.31469 0.32817,-0.54062 -0.0939,-2.063 0.15631,-2.5078 0.87911,-1.4236 0.42132,-0.06401 0.44912,-0.89799 0.31013,-0.7312 0.39352,-0.5644 0.27278,-2.307 -0.0392,-0.651 -0.34588,-1.551 -0.2086,-0.186 -0.0802,-0.85 0.19254,-1.286 0.17651,-0.772 0.22464,-0.288 0.28883,-0.266 11.451,2.676" inkscape:connector-curvature="0" style="stroke:#ffffff">
      <title id="title8899">Stevens, WA</title>
    </path>
    <path id="c53043" d="m 168.94,39.901 1.9202,0.146 0.23356,0.722 0.11945,0.202 1.0929,0.772 0.37975,0.02 0.16204,-0.29254 0.008,-0.39777 0.53831,-0.19368 0.46004,0.56946 1.1253,0.09984 0.51874,0.43249 -0.30589,0.90073 0.44959,0.3103 0.71188,-0.11654 0.14636,0.86098 0.61576,0.48218 0.61576,0.01255 0.52238,-1.118 0.46533,-0.25 1.0038,-0.401 0.76306,0 0.0481,0.05 0.70067,1.76 0.36905,1.198 0.0963,0.458 0.334,0.26785 0.38071,0.12751 0.46641,-0.35814 0.46641,-0.40099 0.78066,0.45604 1.0658,-0.34698 0.53724,0.35293 0.0516,0.49577 -2.981,12.551 -2.0913,-0.49 -15.588,-3.776 3.8171,-15.108" inkscape:connector-curvature="0" style="stroke:#ffffff">
      <title id="title8902">Lincoln, WA</title>
    </path>
    <path id="c53001" d="m 180.72,58.785 -1.79,7.698 -0.43502,1.02 -0.64183,0.901 -0.44215,0.499 -0.57943,0.529 -3.1414,-0.04 -8.2529,-1.911 -6.4112,-1.647 -2.7724,-0.676 0.98771,-3.888 2.1127,0.529 3.81,0.974 1.9683,-7.763 15.588,3.776" inkscape:connector-curvature="0" style="stroke:#ffffff">
      <title id="title8905">Adams, WA</title>
    </path>
    <path id="c53025" d="m 168.91,39.46 0.0321,0.441 -3.8171,15.108 -1.9683,7.763 -3.81,-0.974 -2.1127,-0.529 -0.98771,3.888 -0.34515,1.3261 -1.263,-0.36014 0.0802,-0.08 -0.0143,-0.151 -0.37975,-0.749 -0.17472,-0.216 -0.20147,-0.112 -0.12836,0.05 -0.64362,0.497 -0.48138,0.418 -0.4992,0.281 -0.41897,0.154 -0.53895,0.04789 -0.24626,-0.27182 -0.33006,-0.17605 -0.94061,0.17112 -1.18,-0.14014 -0.54021,-0.177 -0.12659,-0.07 -0.51018,-0.2789 0.0425,-0.30975 -0.35757,-0.64978 -0.19755,-1.0098 0.12248,-0.54977 0.22284,-0.35383 0.6015,-0.40117 0.40083,-0.75416 -0.3965,-0.89848 0.45677,-2.1244 -0.29983,-1.0875 0.22915,-1.0227 -0.34435,-0.71417 0.31281,-0.85235 0.73223,-0.52307 -10e-4,-0.59407 0.31816,-1.5131 0.52491,-2.0601 0.33932,0.07544 0.10895,-0.34987 0.37476,0.10202 0.0912,-0.29671 0.30388,0.07544 0.0912,-0.33215 0.29969,0.06759 0.22882,-0.67669 0.28197,0.07645 0.11441,-0.35164 0.26504,0.07367 0.21527,-0.69543 5.222,1.238 0.49882,-1.8832 0.32084,0.08646 0.0835,-0.29322 0.29711,0.0746 0.0954,-0.31695 0.29711,0.0746 0.10727,-0.31695 0.3219,0.08793 0.0609,-0.29175 0.36936,0.08793 0.0727,-0.32735 0.29817,0.07607 0.10833,-0.30362 0.8677,0.19472 0.0838,-0.32385 0.39232,0.07956 0.22211,-0.95884 0.34077,0.08529 0.3289,-1.2555 0.3289,0.08529 0.10346,-0.34186 0.34078,0.08529 0.20977,-0.66982 0.24537,0.05395 0.19408,-0.6396 0.31703,0.06156 0.51732,-1.8478 0.22736,0.05199 0.0855,-0.33528 0.72317,0.13456 0.0771,-0.30172 0.35069,0.0672 0.14094,-0.67111 0.3423,0.10076 0.10738,-0.34391 1.7644,0.48456" inkscape:connector-curvature="0" style="stroke:#ffffff">
      <title id="title8908">Grant, WA</title>
    </path>
    <path id="c53005" d="m 147.88,65.601 0.12659,0.07 0.54021,0.177 1.18,0.14014 0.94061,-0.17112 0.33006,0.17605 0.24626,0.27182 0.53895,-0.04789 0.41897,-0.154 0.4992,-0.281 0.48138,-0.417 0.64362,-0.498 0.12836,-0.05 0.20147,0.112 0.17472,0.216 0.37975,0.749 0.0143,0.151 -0.0802,0.08 -0.0232,0.28 0.10028,0.3335 0.32775,0.10604 0.10028,0.38139 -0.12717,0.51307 0.36192,0.82 0.68997,0.972 0.51525,0.836 0,0.731 -0.31334,1.117 -0.46402,1.2677 0.005,1.569 -0.48076,0.51428 -0.0892,0.192 0.025,0.13 0.73811,1.059 0.47603,0.298 0.44928,0.145 0.36192,0.194 1.0127,0.947 0.71105,1.2731 0.0207,0.6595 0.2716,0.59035 -0.24613,1.3957 -0.97478,0.59035 -0.45106,0.377 -0.3441,0.152 -1.1731,0.339 -0.57052,0.09 -0.69889,-0.05 -0.41006,-0.103 -0.44215,-0.227 -2.4104,-0.33 -0.90926,-0.05 -0.90748,-0.06 -0.71137,-0.33564 -0.87048,-0.49476 -0.82502,0.48268 -0.71137,0.73272 -1.6706,-0.159 -1.535,-0.16 1.6634,-6.317 0.36193,-1.487 0.0392,-0.634 2.3641,-9.2" inkscape:connector-curvature="0" style="stroke:#ffffff">
      <title id="title8911">Benton, WA</title>
    </path>
    <path id="c53039" d="m 144.65,78.689 -1.1981,4.55 -2.2108,0 -2.4104,0.296 -0.51347,0.128 -0.83617,0.635 -3.1664,-0.193 -1.2534,-0.217 -0.32805,-0.216 -0.19433,-0.282 -0.41719,-0.786 -0.44929,-0.315 -0.68462,-0.168 -0.33696,0.112 -0.69175,0.33 -1.7187,0.241 -1.4138,0.217 -0.83616,0.257 -0.34588,-0.458 -1.4584,-0.68275 -2.148,0.90324 -0.25165,-1.8205 -1.9756,-1.131 -0.55447,-0.113 -1.1,-0.162 -1.0947,-0.949 -0.0954,-0.86055 0.51434,-0.32845 -1.4067,-0.465 0.4992,-2.057 1.0448,-3.736 1.3657,0.369 1.5261,0.411 4.1951,1.132 1.2854,0.403 7.3846,2.016 11.275,2.94" inkscape:connector-curvature="0" style="stroke:#ffffff">
      <title id="title8914">Klickitat, WA</title>
    </path>
    <path id="c53011" d="m 98.281,70.557 0.72545,-0.05003 0.06115,-1.0973 0.39973,-0.41103 0.76291,0.1237 0.12478,0.32387 0.23016,-0.19142 0.54268,0.14638 0.57754,-0.21975 0.31604,0.05921 0.71701,-0.46383 1.1529,0.28585 0.0719,0.33815 0.35091,-0.01054 1.0245,0.67426 0.57125,-0.23232 0.14875,-0.7436 0.47999,-0.56925 0.74152,-0.2903 0.61935,0.22298 -0.90926,3.239 -1.0519,3.463 -1.2623,4.467 -0.29774,0 -0.44215,-0.112 -0.0143,0 -0.52416,-0.257 -4.459,-2.747 -0.42611,-0.323 -0.81834,-0.859 -0.31378,-0.401 -0.01605,-0.564 0.15333,-0.417 0.34409,-0.579 0.41897,-2.805" inkscape:connector-curvature="0" style="stroke:#ffffff">
      <title id="title8917">Clark, WA</title>
    </path>
    <path id="c53059" d="m 121.08,64.176 -2.0966,7.611 -1.3657,-0.369 -1.0448,3.736 -0.4992,2.057 1.4067,0.465 -0.51434,0.32845 0.0954,0.86055 -1.7258,-0.03 -1.3265,-0.103 -0.43502,-0.105 -1.1072,-0.61 -0.94849,0.06 -0.68284,0.353 -0.45106,0.403 -5.7052,0.795 1.2623,-4.467 1.0519,-3.463 0.90926,-3.239 2.1359,-7.296 11.041,3.02" inkscape:connector-curvature="0" style="stroke:#ffffff">
      <title id="title8920">Skamania, WA</title>
    </path>
    <path id="c53015" d="m 110.04,61.156 -2.1359,7.296 -0.61935,-0.22298 -0.74152,0.2903 -0.48,0.56925 -0.14874,0.7436 -0.57125,0.23232 -1.0246,-0.67426 -0.3509,0.01053 -0.072,-0.33815 -1.1529,-0.28585 -0.71702,0.46383 -0.31603,-0.0592 -0.57754,0.21975 -0.54268,-0.14638 -0.23016,0.19142 -0.12478,-0.32387 -0.76291,-0.1237 -0.39973,0.41103 -0.06115,1.0973 -0.72545,0.05003 0.11945,-0.378 0.14441,-2.185 -0.44928,-2.505 -0.15333,-0.605 -2.5941,-3.18 -0.75594,-0.314 -0.82012,0.151 1.3015,-4.701 1.9451,0.506 1.2302,0.355 9.0231,2.628 2.7634,0.827" inkscape:connector-curvature="0" style="stroke:#ffffff">
      <title id="title8923">Cowlitz, WA</title>
    </path>
    <path id="c53049" transform="translate(0,-0.10698)" d="m 84.355,43.943 -0.39844,1.3242 0.32422,0.29492 0.37109,-0.16992 0.47461,0.40234 0.3418,-0.36328 0.59961,0.57812 0.41211,-0.32227 0.57226,-0.05078 0.02734,0.60938 0.47656,0.47656 0.30273,0.94531 0.56055,0.03516 0.0625,0.38477 -0.82031,0.15234 -0.32617,-0.14062 -0.05078,-0.69531 -1.2734,0.0957 -0.06445,0.98242 0.26953,0.51758 -0.43359,0.49023 -0.49609,-0.72266 0.21875,1.2207 0.02148,0.77539 -0.37109,0.55078 -0.5918,0.13086 0.19531,0.75977 -0.11328,0.32422 0.4668,0.32812 0.33594,0.50586 -0.17188,0.72852 -0.32031,-0.125 -0.02344,-0.57812 -0.45703,-0.37891 -0.74084,0.43941 -0.21229,0.63676 -0.54296,-0.41016 -0.48047,-0.12109 0.55859,-3.1562 0.43359,-1.6074 0.02148,-1.1562 -1.9023,6.6191 -0.39648,0.54102 0.71094,-0.18164 0.53125,0.28125 0.37109,0.35938 -0.04297,0.51562 0.79688,1.0898 0.47461,0.28125 2.5957,-0.41797 0.6582,-2.0957 3.416,1.0742 2.1934,0.63672 0.63477,-2.0801 0.44141,-1.6172 0.37891,-1.623 1.0117,-3.7031 -3.584,-1.1094 -3.8008,-1.0762 -3.6465,-1.1758 z m -0.6217,9.0187 0.14123,-0.24722 0.01563,-0.95898 -0.37695,-0.27539 -0.01563,0.47266 0.10547,0.41992 -0.0957,0.36133 z" inkscape:connector-curvature="0" style="stroke:#ffffff">
      <title id="title8926">Pacific, WA</title>
    </path>
    <path id="c53041" d="m 95.387,47.207 3.1985,0.915 -0.19255,0.643 3.5105,1.036 11.082,3.208 2.4104,1.164 3.0701,1.109 0.24782,-0.241 0.65075,-0.41 0.20859,-0.103 0.31379,-0.08 4.6444,1.277 0.19341,0.91672 -0.19206,0.27719 0.19341,0.09322 0.684,0.34728 0.0976,0.3939 -0.41666,0.06929 0.0141,0.40279 -0.57286,-0.10532 -0.39764,0.77073 0.40833,0.3327 -0.0925,0.38467 -0.44294,0.42848 0.0126,0.39343 -0.46046,0.19194 0.10022,0.16566 -0.21517,0.41096 -0.38096,0.11631 -0.37219,0.63319 0.3199,0.42293 -0.14493,0.57081 0.22309,1.2513 -0.18073,0.49986 -1.8328,-0.508 -11.041,-3.02 -2.7634,-0.827 -9.0231,-2.628 -1.2302,-0.355 -1.9451,-0.506 -2.1537,-0.61 0.6347,-2.08 0.44215,-1.616 -0.18797,-0.06767 1.5786,-5.2593" inkscape:connector-curvature="0" style="stroke:#ffffff">
      <title id="title8929">Lewis, WA</title>
    </path>
    <path id="c53067" d="m 99.839,41.541 1.9202,0.571 0.47297,-0.28038 0.64584,-0.24097 0.25298,-0.30019 0.34704,0.01657 0.3724,-0.26933 0.37165,-0.07482 0.15962,0.44886 -0.60067,1.2231 0.007,1.0274 0.37442,-0.07265 0.29686,-0.75978 0.2218,-1.0294 0.49222,-0.21148 0.0236,0.80909 0.12235,0.66411 0.31951,0.0707 0.26898,-1.3535 0.24952,0.82946 0.54481,0.99516 0.59466,0.35597 0.11945,1.414 0.35516,0.70932 -0.29667,0.42725 0.36481,0.16295 0.10499,-0.16592 0.47776,0.30293 -10e-4,0.91885 0.63744,0.64511 0.19325,1.2236 1.5164,0.94988 0.67552,0.56895 0.0868,1.1741 1.4555,0.7179 -11.082,-3.208 -3.5105,-1.036 0.19255,-0.643 1.2304,-4.3487 -0.65049,-0.18685 0.6735,-2.0454" inkscape:connector-curvature="0" style="stroke:#ffffff">
      <title id="title8932">Thurston, WA</title>
    </path>
    <path id="c53053" transform="translate(0,-0.10698)" d="m 107.94,36.408 -0.002,0.0098 -0.29688,0.99023 -0.20117,1.2598 -0.79297,1.0098 0.0566,1.0879 0.33204,0.83789 0.65429,-1.4316 0.23047,-1.0801 0.63477,-1.3301 0.89999,-0.29164 1.0535,0.21245 -1.1666,0.98127 -0.2298,0.7119 -0.11622,0.46135 0.5176,0.20487 0.68416,0.56812 0.49563,-0.6366 -0.20858,-1.0047 0.61718,-0.26172 0.36719,-1.1699 z m 1.1987,3.7249 0.40932,1.1821 0.41449,-0.21151 z m 2.1123,0.42809 -0.68601,0.73759 -0.5664,0.63672 -0.64258,0.56836 -0.3125,0.61133 -0.59375,-0.01758 -0.53125,0.68555 -0.62109,0.29297 0.11914,1.4141 0.35609,0.70946 -0.29699,0.42811 0.36517,0.16353 0.10368,-0.1667 0.47778,0.30318 -0.001,0.9191 0.63746,0.64536 0.19327,1.2238 1.5164,0.95001 0.67595,0.56795 0.087,1.1736 1.4558,0.7174 2.4102,1.166 3.0703,1.1074 0.24804,-0.24024 0.65039,-0.41016 0.20899,-0.10352 0.3125,-0.08008 4.6445,1.2773 0.003,-0.46569 -0.27536,-0.33528 0.14133,-0.1889 -0.0922,-0.17723 0.0829,-0.13052 -0.32048,-0.1937 0.15501,-0.28367 -0.12521,-0.14356 -0.1119,-0.34695 0.65874,-0.5688 0.5143,-0.14812 0.31992,-0.21113 0.0747,-0.6665 0.30474,-0.32134 0.58439,-0.17234 0.0473,-0.35916 0.31643,-0.12284 -0.0339,-0.30966 0.55345,-0.50304 0.0998,-0.67223 -0.28028,-0.03001 -0.17551,-0.19763 -0.47675,0.04475 -0.38519,-0.66147 -0.54233,-0.53575 -1.1709,-0.20051 -0.25947,-0.78718 -0.689,-0.28432 -0.80423,-0.1167 -0.20709,-0.28432 -0.73091,-0.5567 -0.96168,0.41804 -0.83335,-0.45341 -0.44112,0.15587 -0.28958,0.03041 -0.0858,-0.41731 -0.82896,-0.7577 -0.52739,0.05283 -0.40558,-0.68573 -0.47816,-1.9036 -2.753,-0.84676 -0.90039,-1.5996 -0.23633,0.41797 0.31055,0.52734 -0.39844,0.42774 -0.61133,0.1582 -0.49609,-0.94336 -0.36328,-0.8125 z m -2.7446,0.28056 -0.67774,0.05273 0.22657,0.61328 0.80078,0.01172 z m -0.8457,0.91016 -0.39454,0.45117 0.2793,0.83789 0.51172,-0.47852 -0.0488,-0.70312 z" inkscape:connector-curvature="0" style="stroke:#ffffff">
      <title id="title8935">Pierce, WA</title>
    </path>
    <path id="c53077" d="m 127.43,49.405 0.1803,0.37466 0.39861,-0.05085 0.10064,0.17263 0.33902,0.04599 0.21237,-0.20729 0.40619,0.0816 0.46578,0.62541 0.2274,0.1561 0.31484,0.53619 0.18074,0.05197 0.45419,0.83775 0.38857,0.733 0.17364,0.04524 -0.10166,0.41956 0.68275,1.4597 5.9869,1.592 -0.56849,1.9085 1.9276,0.56222 -0.45886,1.8833 5.5287,1.512 2.7082,0.658 -0.12248,0.54964 0.19755,1.0097 0.35757,0.64965 -0.0425,0.30962 0.51018,0.2784 -2.3641,9.2 -0.0392,0.634 -0.36193,1.487 -0.46533,1.767 -11.275,-2.94 -7.3846,-2.016 -1.2854,-0.403 -4.1951,-1.132 -1.5261,-0.411 2.0966,-7.611 1.8328,0.509 0.18073,-0.49986 -0.22309,-1.2513 0.14493,-0.57081 -0.3199,-0.42293 0.37219,-0.63319 0.38096,-0.11631 0.21517,-0.41096 -0.10022,-0.16566 0.46047,-0.19194 -0.0126,-0.39343 0.44295,-0.42848 0.0925,-0.38467 -0.40833,-0.3327 0.39764,-0.77073 0.57286,0.10532 -0.0141,-0.40279 0.41665,-0.06929 -0.0976,-0.3939 -0.684,-0.34728 -0.19341,-0.09322 0.19206,-0.27719 -0.19341,-0.91672 0.002,-0.46458 -0.27513,-0.33526 0.14138,-0.1889 -0.0921,-0.17722 0.083,-0.13052 -0.32046,-0.1937 0.15501,-0.28367 -0.12521,-0.14355 -0.11167,-0.34693 0.65896,-0.56878 0.51351,-0.14789 0.32027,-0.21138 0.0751,-0.66675 0.30483,-0.3214 0.58443,-0.17238 0.0473,-0.35919 0.31653,-0.1229 -0.0338,-0.30972 0.55379,-0.50328 0.0998,-0.67162" inkscape:connector-curvature="0" style="stroke:#ffffff">
      <title id="title8938">Yakima, WA</title>
    </path>
    <path id="c53037" d="m 127.43,49.405 -0.0399,-0.20662 -0.22848,-0.18566 0.0334,-0.22757 0.16962,-0.23805 0.65272,-0.20702 0.77291,0.31886 0.2771,-0.26711 -0.12858,-0.52254 0.3372,-0.55259 -0.13815,-0.43155 -0.70012,-0.38105 0.29152,-0.32095 0.47787,-0.25125 -0.003,-0.6419 -0.1081,-0.20618 -1.1749,-0.20618 -0.063,-0.61185 0.3126,-0.4015 -0.30888,-0.52254 0.0367,-0.53756 0.63208,-0.25597 0.2865,-0.60154 0.67715,-0.10572 0.0611,-0.36115 0.21448,-0.2426 1.3864,-0.25762 0.10931,-0.3027 0.48493,-0.49802 0.27458,0.118 0.39478,-0.21254 0.28961,-0.54309 0.8045,0.14991 0.29941,-0.52091 0.80497,0.02535 0.20873,1.3447 0.95611,0.86019 0.1274,0.74434 0.3466,0.32801 -0.0991,0.44529 0.48735,0.35146 -0.16946,0.53912 0.92835,0.46786 0.9518,0.16292 -0.0334,0.25675 0.52957,0.53823 0.27154,0.02217 0.0135,0.63206 0.43575,0.23329 0.17771,0.46786 1.2807,0.45127 0.0844,0.82659 0.3659,0.02904 0.47266,-0.43843 0.23808,0.57024 0.35537,0.38258 0.35537,0.17146 0.30487,0.52 0.41719,0.442 4.4928,1.141 0.0101,1.0077 1.0811,0.27134 -0.31816,1.5131 10e-4,0.59407 -0.73223,0.52307 -0.31281,0.85235 0.34435,0.71417 -0.22915,1.0237 0.29983,1.0875 -0.45677,2.1234 0.3965,0.89948 -0.40083,0.75316 -0.6015,0.40167 -0.22284,0.35433 -2.7082,-0.658 -5.5287,-1.512 0.45886,-1.8833 -1.9276,-0.56222 0.56849,-1.9085 -5.9869,-1.592 -0.68275,-1.4597 0.10166,-0.41956 -0.17364,-0.04524 -0.38857,-0.733 -0.45419,-0.83775 -0.18074,-0.05197 -0.31484,-0.53619 -0.2274,-0.1561 -0.46578,-0.62541 -0.40619,-0.0816 -0.21237,0.20729 -0.33902,-0.04599 -0.10064,-0.17263 -0.39861,0.05085 -0.1803,-0.37466" inkscape:connector-curvature="0" style="stroke:#ffffff">
      <title id="title8941">Kittitas, WA</title>
    </path>
    <path id="c53017" d="m 168.91,39.46 -1.7644,-0.48456 -0.10738,0.34391 -0.3423,-0.10076 -0.14094,0.67111 -0.35069,-0.0672 -0.0771,0.30172 -0.72317,-0.13456 -0.0855,0.33528 -0.22736,-0.05199 -0.51732,1.8478 -0.31703,-0.06156 -0.19408,0.6396 -0.24537,-0.05395 -0.20977,0.66982 -0.34078,-0.08529 -0.10346,0.34186 -0.3289,-0.08529 -0.3289,1.2555 -0.34077,-0.08529 -0.22211,0.95884 -0.39232,-0.07956 -0.0838,0.32385 -0.8677,-0.19472 -0.10833,0.30362 -0.29817,-0.07607 -0.0727,0.32735 -0.36936,-0.08793 -0.0609,0.29175 -0.3219,-0.08793 -0.10727,0.31695 -0.29711,-0.0746 -0.0954,0.31695 -0.29711,-0.0746 -0.0835,0.29322 -0.32084,-0.08646 -0.49882,1.8832 -5.222,-1.238 -0.21527,0.69543 -0.26504,-0.07367 -0.11441,0.35164 -0.28197,-0.07645 -0.22882,0.67669 -0.29969,-0.06759 -0.0912,0.33215 -0.30388,-0.07544 -0.0912,0.29671 -0.37476,-0.10202 -0.10895,0.34987 -0.33932,-0.07544 -0.52491,2.0601 -1.0811,-0.27134 -0.0101,-1.0077 0.16046,-0.312 0.19968,-0.547 0.22464,-0.676 -0.0143,-0.128 -0.50633,-0.779 -1.5529,-0.699 -0.23178,-0.128 -0.44215,-0.385 -0.0642,-0.193 -0.0481,-0.788 0,-0.556 0.11232,-0.328 0.48316,-1.004 0.38127,-0.50736 0.54487,-0.18014 0.5691,-0.69265 0.29818,-0.9803 0.67993,-0.57128 0.0783,-0.46087 -0.16713,-0.61084 0.12222,-0.42555 0.22465,-0.249 0.14441,-0.1 0.22464,-0.09 0.98058,-0.128 0.19255,0.09 0.20146,0.209 0.0802,0.128 0.10519,0.04 1.5012,-0.04 0.73595,-0.63815 0.19941,-0.6053 0.86736,-0.24395 0.15561,-0.86809 0.88646,-0.44911 0.11299,-0.2154 0,-0.177 -0.0571,-0.274 -0.12659,-0.257 -0.009,-0.08 0.0568,-0.17622 0.39345,-0.33375 0.0675,-0.45752 -0.27286,-0.5682 0.16514,-0.32731 1.4361,-0.42125 0.44715,0.14664 0.11865,-0.37895 0.43977,0.17643 0.14413,0.53777 0.38418,0.07819 0.29659,-0.08606 0.14328,0.37384 -0.4699,0.69138 -0.1253,0.49931 0.37839,0.58691 0.5317,0.09416 0.88208,-0.58472 0.27455,-0.0085 0.31834,-0.27128 0.2855,-0.06323 0.47164,-0.52312 0.3512,0.23242 0.58114,0.13387 0.395,0.70326 1.052,0.22147 0.26033,-0.68483 0.31507,-0.35634 0.40268,-0.19209 0.35887,0.41015 1.151,-0.25068 0.42222,0.07176 0.35653,-0.30054 0.43551,-0.0738 0.2816,0.45165 0.57725,0.12315 0.24069,0.376 0.21087,0.3157 -0.0642,1.0323 0.1767,0.63812 0.40664,0.38628 0.0562,0.32058 -0.0945,0.265 -0.28169,0.41 -0.41006,0.458" inkscape:connector-curvature="0" style="stroke:#ffffff">
      <title id="title8944">Douglas, WA</title>
    </path>
    <path id="c53019" d="m 176.74,17.05 9.5294,2.305 -0.28883,0.266 -0.22464,0.289 -0.17651,0.772 -0.19254,1.285 0.0802,0.85 0.2086,0.186 0.34588,1.551 0.0392,0.651 -0.27278,2.307 -0.39352,0.56446 -0.31013,0.73126 -0.44912,0.89806 -0.42132,0.06407 -0.87911,1.4239 -0.15631,2.508 0.0939,2.0632 -0.32817,0.54036 -0.60503,0.31462 -0.26158,1.4491 -0.57381,0.23136 -0.48014,-0.11209 -0.10961,0.49873 0.12977,0.48833 -0.24022,0.74318 -0.39233,-0.03876 -0.13214,0.29429 -0.83986,-0.16366 -0.20499,-0.24692 -0.42085,0.05448 -0.66679,0.257 0.43023,1.381 -0.33628,1.098 0.0183,0.768 -0.52238,1.118 -0.61576,-0.01255 -0.61576,-0.48218 -0.14636,-0.86098 -0.71188,0.11654 -0.44959,-0.3103 0.30589,-0.90073 -0.51874,-0.43249 -1.1253,-0.09984 -0.46004,-0.56946 -0.53831,0.19368 -0.008,0.39777 -0.16204,0.29254 -0.37975,-0.02 -1.0929,-0.772 -0.11945,-0.202 -0.23356,-0.722 0.12123,-0.112 1.9049,-7.7682 0.12213,0.02233 0.86563,-3.8141 -0.34486,-0.11399 0.87296,-3.8237 0.53463,0.11811 1.3308,-5.5214 0.46712,-1.984" inkscape:connector-curvature="0" style="stroke:#ffffff">
      <title id="title8947">Ferry, WA</title>
    </path>
    <path id="c53055" transform="translate(0,-0.10698)" d="m 109.57,6.4219 0.26562,0.49609 0.57227,0.69336 0.85937,0.50977 -0.17578,-0.42383 -0.0488,-0.36523 -0.60547,-0.48828 -0.44141,-0.41016 z m 3.7109,0.066406 -0.60157,0.056641 -0.45507,0.24023 0.25,0.36133 -0.10352,0.38086 0.71094,-0.15234 0.15039,-0.5 z m 1.2344,0.73047 -0.39258,0.050781 -1.3359,0.83398 -0.60938,0.44141 0,0.36914 0.47461,0.013672 0.22852,0.49023 0.16796,-0.30469 -0.002,-0.50391 0.34375,0.11523 -0.0742,0.43359 0.0586,0.47656 0.29882,0.4707 0.70118,-0.10156 0.11132,-0.23633 -0.0273,-0.58984 -0.1543,-0.94922 0.0508,-0.62695 0.42187,0.11328 -0.0742,1.0781 0.32422,0.69531 0.082,0.65625 0.41992,-0.01172 0.0137,-0.48047 0.46874,-0.14062 0,-0.015625 0.51368,-0.18555 0.26562,-0.18359 -0.008,-0.029297 -1.1016,-1.1816 -0.54493,-0.49219 -0.25976,-0.13477 z m -4.4277,0.875 -0.35352,0.25781 -0.17773,0.20117 -0.0312,0.13672 0.27148,0.375 -0.17773,0.34766 0.0996,0.77148 0.0801,0.39258 0.0879,0.23242 0.24219,0.37109 0.98828,1.0605 0.43555,0.33789 0.58398,0.22656 0.12891,-0.3418 -0.57031,-0.19922 -0.0449,-0.6582 0.19336,-0.42969 0.39453,0.11328 0.33789,-0.28711 -0.25,-0.25 -0.36328,-0.10352 0.043,-0.45117 -0.47071,-0.70117 -0.47265,-0.61133 0.21289,-0.44141 -0.77735,-0.25977 z m 1.1875,0.34961 0.002,0 0,-0.00391 z m 2.8848,1.9062 -0.20117,0.10156 -0.21094,0.30273 -0.30859,-0.02344 -0.43359,0.76758 -0.32853,0.47508 -0.0543,0.6011 0.39844,0.26562 -0.0957,0.79883 0.23242,0.17578 0.13672,0.06055 0.94726,0.17773 0.16993,-0.10742 0.0859,-0.4668 0.0391,-0.6582 0.6914,-0.50781 -0.0508,-0.52539 -0.75976,-0.06836 -0.0254,0.61523 -0.26559,0.66602 -0.0996,-0.1543 0.0801,-0.35938 -0.30664,-0.45312 0.28906,-0.32226 0.45117,-0.41602 -0.32617,-0.14062 0.0312,-0.3457 z m -1.082,0.35413 0.15119,-0.33246 0.29283,0.06551 0.21873,-0.1806 -0.4539,-0.42928 -0.42125,-0.25964 -0.3625,-0.19572 -0.27329,0.36623 0.29109,0.16647 0.0685,0.5115 z m 1.7421,-0.25843 -0.0566,0.38672 0.0469,0.76172 0.35157,0.01172 0.52343,-0.23828 -0.11718,-0.5293 -0.32032,-0.33203 z" inkscape:connector-curvature="0" style="stroke:#ffffff">
      <title id="title8950">San Juan, WA</title>
    </path>
    <path id="c53029" d="m 116.96,15.176 0.0802,-0.06 0.14441,-0.06 0.10341,0.07 0.0499,0.112 0.10341,0.282 -0.39911,0.81805 0.96249,1.1089 0.0713,0.266 -0.0321,0.224 -0.0321,0.05 -0.32983,0.2 -0.14442,0.03 -0.31378,-0.07 -0.0963,-0.04 -0.16046,-0.353 -0.11945,-0.106 -0.22642,-0.07 -0.31379,0 -0.15154,0.08 -0.53843,0.41 -0.40114,0.465 -0.81205,-0.13506 0.006,0.57532 0.92856,0.02778 0.64956,0.45397 0.15558,0.86377 0.0693,1.3476 -0.39749,0.41231 0.29967,0.6803 -0.22117,0.86024 0.0867,0.55761 0.50828,-0.4502 -0.0175,-0.79204 0.17448,-0.60258 0.41331,0.13285 0.27504,0.53674 0.21005,0.6497 0.40314,0.4977 0.49262,0.27158 -0.20379,0.76442 0.10148,0.666 -0.29466,0.66266 -0.61583,0.30156 -0.70108,-0.11422 -0.005,-0.38469 0.20057,-0.30948 -0.0892,-0.46024 -0.23255,-0.49376 -0.28116,-0.16986 -0.41857,0.13389 -0.3515,0.12343 -0.1785,-0.23653 0.17552,-0.35741 -0.16911,-0.45179 -0.37585,-0.19464 -0.14493,-0.536 0.27122,-0.21657 -0.19951,-0.73135 0.69262,-0.85534 0.004,-0.957 -0.4503,-0.29766 -0.59767,0.09731 -0.17893,-0.9541 -0.31175,-0.23001 -0.10207,-0.31426 -0.24864,-0.33012 0.27424,-0.59966 0.70435,-0.55149 0.20709,-0.37964 1.2632,-1.1804 0.22495,-0.3818 0.0909,-0.39566 0.12211,-0.05422 0.33874,0.144 m 1.3973,8.1417 -0.26943,-0.57668 -0.29681,-0.3164 -0.23696,-0.51959 -0.32454,0.06 -0.204,-0.344 -0.0708,-1.1411 0.16059,-0.19703 -0.14198,-0.38604 0.48039,-0.92333 0.52849,-0.08845 0.32105,0.22624 0.33521,-0.4054 0.69668,0.7791 -0.0561,0.5607 -0.19851,-0.0568 -0.12974,-0.24425 -0.2832,-0.08553 -0.0908,0.33172 -0.19142,0.52012 -0.51532,0.03546 -0.0399,0.57819 0.33089,0.86725 0.55025,1.2047 0.0772,0.7162 -0.37527,-0.06463 z" inkscape:connector-curvature="0" style="stroke:#ffffff">
      <title id="title8953">Island, WA</title>
    </path>
    <path id="c53061" d="m 119.91,18.528 8.0835,2.273 3.8653,1.086 1.125,0.337 7.4649,2.048 -0.20249,0.42494 0.27187,0.68507 0.33309,0.70038 -0.2331,0.25661 0.37735,0.38976 0.23964,0.94064 -1.0917,0.12962 0.0866,0.77232 -1.2924,0.5561 -0.22122,-0.17841 -1.981,0.40307 0.34496,0.95395 -0.452,0.34149 -0.16561,-0.01 -0.43789,0.45195 -0.008,0.2087 -0.27105,0.41823 -0.22222,0.46315 -0.0539,0.49375 0.26745,0.26422 -0.23753,0.63147 0.47363,0.54927 0.65725,0.16672 -0.50571,0.53397 -0.50571,0.33504 -4.5321,-1.246 -0.54734,-0.106 -1.9433,-0.497 -7.3775,-2.034 -4.8298,-1.414 0.009,-0.05 0.1765,-0.506 2.225,-2.821 0.48316,-0.04 0.44928,0.06 0.36371,-0.169 0.0874,-0.106 0.26386,-0.875 -0.0143,-0.323 -0.61152,-0.642 -0.63471,-1.317 -0.14441,-0.667 -0.009,-0.04 0.16937,-0.563 0.16046,-0.498 0.0452,-1.2086 0.12651,-0.69752 0.37559,-0.85693" inkscape:connector-curvature="0" style="stroke:#ffffff">
      <title id="title8956">Snohomish, WA</title>
    </path>
    <path id="c53033" d="m 114.12,38.406 -0.4577,0.20069 -0.73555,0.1331 -0.55209,0.34815 -0.59836,0.08962 0.37782,-1.1258 0.44736,-1.0253 0.34061,-0.57412 0.35376,-0.37896 0.16946,-0.48255 0.23942,0.13159 -0.15109,0.55365 0.0393,1.2536 -0.12213,0.52239 z m 2.3621,-6.9893 -0.0862,-1.5754 4.8298,1.414 7.3775,2.034 1.9433,0.498 0.54734,0.105 4.5321,1.246 -2.2e-4,0.008 0.36192,1.036 -0.16937,0.353 0.231,0.34682 -0.0481,0.16844 -1.2262,0.28671 0.006,0.49202 -0.15868,1.368 -0.80497,-0.02535 -0.29941,0.52091 -0.8045,-0.14991 -0.28961,0.54309 -0.39478,0.21254 -0.27458,-0.118 -0.48493,0.49802 -0.1093,0.30269 -1.3864,0.25762 -0.21448,0.2426 -0.0611,0.36115 -0.67716,0.10572 -0.2865,0.60154 -0.63208,0.25597 -0.0367,0.53756 0.30888,0.52254 -0.3126,0.4015 0.063,0.61185 1.1749,0.20618 0.1081,0.20618 0.003,0.6419 -0.47787,0.25125 -0.29152,0.32095 0.70012,0.38105 0.13815,0.43155 -0.3372,0.55259 0.12858,0.52254 -0.2771,0.26711 -0.77291,-0.31886 -0.65272,0.20702 -0.16962,0.23805 -0.0334,0.22757 0.22848,0.18566 0.0399,0.20662 -0.28044,-0.02992 -0.17567,-0.19754 -0.47706,0.04493 -0.38525,-0.66154 -0.5424,-0.53582 -1.171,-0.20058 -0.25953,-0.78726 -0.68907,-0.28439 -0.8043,-0.11677 -0.20715,-0.28439 -0.73097,-0.55678 -0.96152,0.41871 -0.8326,-0.45468 -0.44226,0.15642 -0.28888,0.02994 -0.0862,-0.41614 -0.82917,-0.75852 -0.52649,0.05252 -0.40609,-0.68381 -0.47802,-1.9043 -2.7529,-0.84742 -0.90035,-1.6 1.3585,-0.105 0.50546,-1.2378 -0.33208,-1.1267 0.24567,-0.54042 -0.10461,-1.2367 0.10849,-1.0675 0.27111,-0.15173 0.35832,0.59598 0.39822,-0.28004 0.1769,-0.70012 -0.86273,-0.99439 -0.0243,-0.59297 z" inkscape:connector-curvature="0" style="stroke:#ffffff">
      <title id="title8959">King, WA</title>
    </path>
    <path id="c53035" transform="translate(0,-0.10698)" d="m 114.37,25.939 0.13476,1.2676 -0.69726,0.58984 -1.2774,0.51367 -0.31445,0.48828 -1.1055,0.70898 -0.41406,1.084 -0.74219,0.66602 -2.252,0.12305 -0.18555,0.50977 -0.81445,0.05859 -1.0527,0.72852 -0.2246,0.24805 0.36328,0.09375 0.66601,0.13477 2.25,0.71484 -0.76367,2.5391 3.5312,1.127 1.4453,-2.1641 -0.46973,-0.37988 0.24122,-0.8584 -0.27735,-0.37891 -0.32617,0.42578 -0.64648,0.19336 -0.54297,-0.02148 -0.43555,0.10156 -0.27734,-0.28906 0.53906,-0.39258 0.44727,-0.32422 0.0547,-0.60156 -0.36523,0.01563 -0.29883,-0.51562 0.66992,-0.91406 0.20313,0.70117 -0.0293,1.2539 0.67773,-0.24414 0.39454,-0.7168 -0.34766,-0.77734 0.32617,-0.82617 -0.60742,-0.80078 0.50781,-0.55859 0.51367,1.1797 0.49024,-0.14062 0.59765,-0.73242 0.58204,0.38867 0.5625,-0.02734 -0.24219,-0.82422 0.25976,-0.27148 -0.14062,-0.55664 0.30078,-1.2852 -0.0488,-0.61133 -0.23242,-0.37891 z m -0.81192,4.7954 0.53353,0.67763 -0.25897,1.4944 -0.0364,0.92067 -0.55463,0.0326 -0.18071,-0.73413 -0.50433,0.10524 0.34984,-1.4471 z" inkscape:connector-curvature="0" style="stroke:#ffffff">
      <title id="title8962">Kitsap, WA</title>
    </path>
    <path id="c53045" transform="translate(0,-0.10698)" d="m 98.674,28.855 -0.58594,1.9531 -1.8516,5.6777 0.26367,0.11133 -1.1211,3.8418 4.4609,1.2051 1.9199,0.57031 0.32421,-0.67774 0.50391,-0.04102 0.0566,-0.40234 0.64453,-0.33398 0.70703,-0.22852 0.90235,0.25 -0.13477,-0.875 -0.0566,-0.64844 0.30078,-0.77734 0.70703,-0.22656 0.83204,-0.34961 0.80664,-1.1699 0.28748,0.67361 0.2965,-0.99002 0.76367,-2.5527 -2.25,-0.71484 -0.66601,-0.13477 -0.36328,-0.09375 -0.52149,0.78516 -1.8691,1.7168 0.63281,0.42383 0.70899,0.0332 1.4004,-0.20117 1.0586,-0.30664 0.74414,-0.18359 -0.16406,0.72656 -0.47852,0.20117 -1.1133,0.34961 -0.73633,-0.09375 -1.041,0.37695 -1.0391,-0.34961 -0.50196,0.33789 -0.5,-0.75 0.49219,-0.94141 1.2246,-1.3203 0.82031,-0.64453 0.35742,-0.875 1.1055,-0.89062 0.0957,-0.06055 0.33007,-0.08008 z m 6.9807,9.771 -0.58244,0.33204 0.13047,1.4694 0.0361,0.9055 0.80372,-0.61251 -0.14239,-1.2199 0.45451,-1.1305 z" inkscape:connector-curvature="0" style="stroke:#ffffff">
      <title id="title8965">Mason, WA</title>
    </path>
    <path id="c53027" d="m 85.455,26.499 4.5297,1.4026 -0.0387,0.34141 8.1424,2.458 -1.8519,5.68 0.26337,0.11213 -1.1208,3.8409 4.4601,1.205 -0.6735,2.0454 0.65049,0.18685 -1.2304,4.3487 -3.1985,-0.915 -3.5836,-1.109 -3.8011,-1.077 -3.6478,-1.175 0.0037,-2.5789 0.32704,0.15994 0.02408,0.0032 -0.18349,1.631 0.42942,-0.25326 0.22497,0.61438 0.63281,-0.10005 -0.0069,-0.64254 0.13137,-0.38294 0.88436,-0.5897 1.7669,-0.06102 0.37797,-0.08 0.02318,0 0.77639,0.03009 0.17769,-0.48425 -0.78791,0.01017 -2.2126,-1.2086 0.07099,-0.89544 -0.52416,-0.417 -0.79338,-0.50968 -0.84123,0.06482 -0.29686,1.8485 -0.28203,-0.03 0.58763,-1.9903 0.46978,-1.7304 0.20563,-4.1034 -0.54312,-0.48167 -0.2251,-1.1189 0.0071,-0.282 0.13728,-1.116 0.53843,-2.644" inkscape:connector-curvature="0" style="stroke:#ffffff">
      <title id="title8968">Grays Harbor, WA</title>
    </path>
    <path id="c53031" transform="translate(0,-0.10698)" d="m 83.951,17.848 0,0.0059 0.32227,0.16797 0.26758,0.32227 0.02148,0.0293 0.01758,0.01953 0.6582,1.2461 0.08789,0.16211 0.41016,1.8164 0.02344,0.19922 -0.07227,2.5059 -0.08789,1.0859 -0.0957,0.93359 -0.04883,0.27148 4.5289,1.4037 -0.0387,0.34044 8.1426,2.459 0.58594,-1.9531 7.7539,2.3203 0.93946,-0.66602 0.86914,-0.62695 0.85547,-1.2031 0.37304,-1.7695 0.53516,-0.17578 -0.18359,1.1445 0.23437,0.0098 0.32031,-1.4785 0.56836,0.04492 -0.14843,1.1094 -1.3027,2.4805 0.45899,0.05469 0.52343,-1.1562 0.27735,-0.0957 0.50976,-0.9082 0.97071,-0.61133 0.17382,-0.76563 0.82422,0.20898 0,-0.95312 -0.26172,-0.87891 -0.15234,-1.6562 -0.30583,-0.19336 -0.10042,-0.76172 -0.22461,-0.84375 0.28906,-0.54688 0.69727,-0.05664 0.082,-0.50195 -0.35352,-0.09961 -0.7871,-0.0293 -0.7129,0.88867 0.41993,1.0684 -0.6543,1.1641 -0.58984,-0.20703 0.20898,-0.49219 -0.0215,-0.55859 -0.53321,-0.50195 0.24219,-0.76367 -0.36133,-0.31641 -1.4297,5.0703 -10.297,-3.1016 0.05664,-0.22656 -1.6621,-0.53711 -5.5996,-1.6797 -3.7285,-1.1562 -0.91602,-0.32031 z m 29.307,4.9492 0.44336,0.8418 0.12891,-1.1348 0.1543,-0.89258 -0.62696,0.0625 z" inkscape:connector-curvature="0" style="stroke:#ffffff">
      <title id="title8971">Jefferson, WA</title>
    </path>
    <path id="c53009" d="m 83.952,17.74 -0.16759,-0.442 -0.03209,-2.049 0.48714,-2.203 0.46763,-0.67572 -0.30594,-1.439 0.5712,-0.13239 0.43587,-1.065 L 85.33357,9.4089 85.77376,9.1103 85.96122,8.62902 86.39494,8.31513 86.60265,7.53039 86.13794,7.0192 85.67247,6.20805 l 0.15154,-0.04 0.95027,0.273 0.52951,0.467 0.49029,0.433 0.58656,0.596 0.18542,0.192 1.141,1.366 4.5641,4.33 0.9467,0.594 1.6313,0.733 2.0602,0.68111 0.74569,0.12612 0.44309,0.35683 0.34433,0.43519 1.075,0.0625 0.32158,0.46674 1.3518,0.64352 0.9437,0.44827 1.7662,0.4422 1.0897,-0.18211 1.0058,0.01907 0.54504,0.78956 -0.0117,1.3672 0.24485,1.1437 0.44807,-0.27075 0.13357,-1.1236 0.75235,-0.12655 -1.4299,5.07 -10.298,-3.1014 0.05805,-0.22705 -1.6622,-0.53654 -5.6,-1.679 -3.728,-1.157 -0.9164,-0.321 -2.5798,-0.74" inkscape:connector-curvature="0" style="stroke:#ffffff">
      <title id="title8974">Clallam, WA</title>
    </path>
    <path id="c53057" d="m 146.31,17.307 -0.58029,0.53227 0.1381,1.0112 0.18778,0.2097 0.59966,-0.25965 0.27398,0.73651 -0.3103,0.15222 -0.29293,0.58974 -0.43945,-0.01399 -0.45361,0.22668 -0.45361,-0.02814 -0.29788,-0.3396 0.0985,-0.35375 -0.0572,-0.35375 -0.49608,-0.11309 -0.0143,0.27256 -0.22666,0.10268 -0.15587,-0.25124 -0.45317,0.17346 -0.40868,-0.17573 -0.30797,-0.05173 -0.0673,0.59949 -1.483,-0.22161 -0.53448,0.74106 0.3291,0.55702 -0.67606,0.7269 0.003,0.45792 0.14505,0.41545 -0.11086,0.40498 -0.37847,-0.05002 -0.22942,0.35643 0.79516,0.914 -7.4649,-2.048 -1.125,-0.337 -3.8653,-1.086 -8.0835,-2.273 -0.27456,-0.756 -0.82466,-0.77207 -0.85438,-0.74498 -0.10056,-0.91822 0.26151,-0.62457 -0.29502,-0.2148 -0.28873,0.34621 -0.34167,0.07504 -0.42301,-0.0015 -0.26416,-0.10532 -0.0517,-0.67557 0.25652,-0.18949 0.0997,-0.43604 -0.10147,-0.32958 -0.37605,-0.17565 0.0795,-0.3197 0.44896,0.08203 0.73813,-0.14437 0.38286,0.0625 0.11571,0.78766 0.42337,-0.23033 0.27086,1.1785 0.421,0.23054 0.38211,-0.33052 -0.0386,-0.78654 0.21772,-0.66737 -0.11535,-0.64043 -0.74558,-0.53298 0.21583,-0.26056 0.74769,0.62468 0.35272,0.40861 0.87035,-0.74519 -0.20146,-0.603 -0.43502,-0.594 0.33874,0.03 5.1436,1.438 12.833,3.671 5.2794,1.4133 0.0668,-0.37483 2.1829,0.60351 m -29.067,-5.0101 0.46882,-1.2976 0.60982,0.99745 0.0721,0.56227 z m -0.93592,-0.42453 0.0283,-0.55079 -0.11734,-0.55308 0.50054,-0.55496 0.36445,0.32236 -0.0183,0.40612 0.12063,0.33318 -0.22209,0.09179 -0.18684,0.31157 z" inkscape:connector-curvature="0" style="stroke:#ffffff">
      <title id="title8977">Skagit, WA</title>
    </path>
    <path id="c53007" d="m 146.32,20.279 0.79742,0.105 -0.17879,0.58346 0.35063,0.33136 -0.48364,0.28454 0.32311,0.33497 -0.66012,0.30976 0.006,1.2255 1.0142,0.57006 -0.0446,0.62048 -0.52365,0.72132 0.56042,0.51963 0.45958,-0.06022 0.66126,1.5533 0.78732,0.64569 -0.10293,0.28088 0.52734,0.15483 -0.002,0.63384 -0.45588,0.45736 -0.002,0.60862 0.27523,0.20525 0.0483,0.38173 0.50213,-0.04686 0.34362,0.49939 0.54531,0.9784 0.36883,0.04559 0.72178,0.67587 -0.31185,0.37334 0.74699,0.72629 -0.085,0.47418 0.19236,0.42376 -0.0966,0.44052 2.8924,0.78816 0.0571,0.274 0,0.177 -0.11299,0.2154 -0.88646,0.44911 -0.15561,0.86809 -0.86736,0.24395 -0.19941,0.6053 -0.73595,0.63815 -1.5012,0.04 -0.10519,-0.04 -0.0802,-0.128 -0.20146,-0.209 -0.19255,-0.09 -0.98058,0.128 -0.22464,0.09 -0.14441,0.1 -0.22465,0.249 -0.12222,0.42555 0.16713,0.61084 -0.0783,0.46087 -0.67993,0.57128 -0.29818,0.9803 -0.5691,0.69265 -0.54487,0.18014 -0.38127,0.50736 -0.48316,1.004 -0.11232,0.328 0,0.556 0.0481,0.788 0.0642,0.193 0.44215,0.385 0.23178,0.128 1.5529,0.699 0.50633,0.779 0.0143,0.128 -0.22464,0.676 -0.19968,0.547 -0.16046,0.312 -4.4928,-1.141 -0.41719,-0.442 -0.30487,-0.52 -0.35537,-0.17146 -0.35537,-0.38258 -0.23808,-0.57024 -0.47266,0.43843 -0.3659,-0.02904 -0.0844,-0.82659 -1.2807,-0.45127 -0.17771,-0.46786 -0.43575,-0.23329 -0.0135,-0.63206 -0.27154,-0.02217 -0.52957,-0.53823 0.0334,-0.25675 -0.9518,-0.16292 -0.92835,-0.46786 0.16946,-0.53912 -0.48735,-0.35146 0.0991,-0.44529 -0.3466,-0.32801 -0.1274,-0.74434 -0.95611,-0.86019 -0.20873,-1.3447 0.15868,-1.368 -0.006,-0.49202 1.2262,-0.28671 0.0481,-0.16844 -0.231,-0.34682 0.16937,-0.353 -0.36192,-1.036 0.50571,-0.33504 0.50571,-0.53397 -0.65725,-0.16672 -0.47363,-0.54927 0.23756,-0.63147 -0.26741,-0.26422 0.0539,-0.49375 0.22225,-0.46315 0.27105,-0.41823 0.008,-0.2087 0.43789,-0.45195 0.16561,0.01 0.452,-0.34149 -0.34496,-0.95395 1.981,-0.40308 0.22122,0.17841 1.2924,-0.5561 -0.0866,-0.77232 1.0917,-0.12962 -0.23964,-0.94064 -0.37735,-0.38976 0.2331,-0.25661 -0.33309,-0.70038 -0.27187,-0.68507 0.20249,-0.42494 -0.79516,-0.914 0.22942,-0.35643 0.37847,0.05002 0.11086,-0.40498 -0.14505,-0.41545 -0.003,-0.45792 0.67606,-0.7269 -0.3291,-0.55702 0.53448,-0.74106 1.483,0.22161 0.0673,-0.59949 0.30797,0.05173 0.40868,0.17573 0.45317,-0.17346 0.15587,0.25124 0.22666,-0.10268 0.0143,-0.27256 0.49608,0.11309 0.0572,0.35375 -0.0985,0.35375 0.29788,0.3396 0.45361,0.02814 0.45361,-0.22668 0.43945,0.01399" inkscape:connector-curvature="0" style="stroke:#ffffff">
      <title id="title8980">Chelan, WA</title>
    </path>
    </g>
  </svg>
