<svg xmlns:dc="http://purl.org/dc/elements/1.1/" xmlns:cc="http://creativecommons.org/ns#" xmlns:rdf="http://www.w3.org/1999/02/22-rdf-syntax-ns#" xmlns:svg="http://www.w3.org/2000/svg" xmlns="http://www.w3.org/2000/svg" xmlns:sodipodi="http://sodipodi.sourceforge.net/DTD/sodipodi-0.dtd" xmlns:inkscape="http://www.inkscape.org/namespaces/inkscape" width="120.54188999999985" height="70.52200000000005" version="1.0" id="svg2" inkscape:version="0.91 r13725" sodipodi:docname="USA counties.svg">
  <defs id="defs9439"/>
  <sodipodi:namedview pagecolor="#ffffff" bordercolor="#666666" borderopacity="1" objecttolerance="10" gridtolerance="10" guidetolerance="10" inkscape:pageopacity="0" inkscape:pageshadow="2" inkscape:window-width="798" inkscape:window-height="828" id="namedview9437" showgrid="false" showguides="true" inkscape:zoom="0.64950808" inkscape:cx="494.98999" inkscape:cy="313.535" inkscape:window-x="-7" inkscape:window-y="0" inkscape:window-maximized="0" inkscape:current-layer="svg2"/>
  <metadata id="metadata4">
    <rdf:RDF>
      <cc:Work>
        <dc:format>image/svg+xml</dc:format>
        <dc:type rdf:resource="http://purl.org/dc/dcmitype/StillImage"/>
        <dc:title/>
        <cc:license rdf:resource="http://creativecommons.org/publicdomain/zero/1.0/"/>
        <dc:date>2019-10-06</dc:date>
        <dc:creator>
          <cc:Agent>
            <dc:title>U.S. Census Bureau, Abe.suleiman, Lokal_Profil</dc:title>
          </cc:Agent>
        </dc:creator>
        <dc:source>https://commons.wikimedia.org/wiki/File:Usa_counties_large.svg</dc:source>
      </cc:Work>
      <cc:License rdf:about="http://creativecommons.org/publicdomain/zero/1.0/">
        <cc:permits rdf:resource="http://creativecommons.org/ns#Reproduction"/>
        <cc:permits rdf:resource="http://creativecommons.org/ns#Distribution"/>
        <cc:permits rdf:resource="http://creativecommons.org/ns#DerivativeWorks"/>
      </cc:License>
    </rdf:RDF>
  </metadata>
  <style id="style6">
  /*
   * Below are Cascading Style Sheet (CSS) definitions in use in this file,
   * which allow easily changing how counties are displayed.
   *
   *
   * For the U.S. Census county codes (FIPS codes) used in this file to identify individual counties, see this link:
   * https://www2.census.gov/geo/docs/reference/codes/files/national_county.txt
   *
   * The county codes used in this file combine the 2-digit state code, which is in the second column of the file
   * linked above, and the 3-digit county code, which is in the third column of the file linked above. Each value
   * for the "id" attribute for each county is in the following form: "c[state_code][county-code]". For example,
   * for Loving Country in Texas, the state code is "48" and the county code is "301", so the id name for the
   * county is "c48301".
   *
   * County codes used in this file can also be found on Wikimedia Commons at this link:
   * https://commons.wikimedia.org/wiki/File_talk:Usa_counties_large.svg/county_codes
   *
   * Examples:
   *
   * To color two counties red (in this case Loving County and Dallas County in Texas) simply
   * go to the CSS insertion point and add:
   *
   * #c48301, #c48113 {fill:red}
   *
   * To color an entire state's counties (in the case New Mexico, with "35" being the state code) a green,
   * go to the CSS insertion point and add:
   *
   * path[id*='c35'] {fill:#34A853}
   *
   */
  #counties {fill:#d0d0d0;stroke:#000;stroke-width:.17829;} 
  #borders {fill:none;stroke:#221e1f;stroke-width:.89143;} 
  #separator {fill:none;stroke:#a9a9a9;stroke-width:2.3177309;}
 </style>
  <g id="counties" transform="translate(-293.58264000000014,-550.02)" style="fill:#d0d0d0;stroke:#ffffff;stroke-width:0.17828999">
    <path id="c15007" d="m 309.7,550.02 2.348,0 1.0109,0.672 0.33162,1.006 0,0.674 -0.67215,1.676 0,2.016 -1.3425,1.341 -1.0038,0.675 -3.3572,-0.338 -1.3443,-1.341 -2.0146,-0.674 -0.67215,-0.67 0,-1.009 1.0091,-1.343 3.3589,-2.685 2.348,0 m -15.782,10.747 -0.33518,-0.34 0.33518,-2.013 2.0146,-1.344 0.33697,-1.006 1.0073,0 -0.33518,2.35 -1.6795,0.672 -1.0073,1.681 -0.33696,0" inkscape:connector-curvature="0" style="stroke:#ffffff">
      <title id="title1651">Kauai, HI</title>
    </path>
    <path id="c15003" d="m 349.66,568.82 -1.3461,1.013 0,-0.337 -2.0146,0.67 -1.6795,-1.007 -3.3572,0.337 -1.3443,0.337 -0.67036,-1.683 -1.0091,-0.67 -0.3334,-1.006 -1.0091,-1.009 0,-1.007 -1.0073,-0.669 3.3589,-0.676 1.6795,-2.346 1.0073,-0.674 1.0055,0.334 1.6795,3.022 0.33518,0 0.33518,0.674 -0.33518,0.67 0.33518,1.005 1.3443,1.011 0.33518,-1.011 0.67214,0 0,1.011 0.67215,0.337 0.33517,1.343 1.0109,0.331" inkscape:connector-curvature="0" style="stroke:#ffffff">
      <title id="title1654">Honolulu, HI</title>
    </path>
    <path id="c15009" d="m 364.76,571.51 0.33874,0 0.67215,0.333 0.33339,0 -0.33339,-0.67 3.0184,-0.67 1.3443,0.337 -0.67214,1.344 -2.0146,1.341 -1.0073,0 -4.0257,-0.669 -4.7014,0.333 -0.33874,0 1.0109,-2.686 0.33518,0 4.7014,0.337 1.0073,0.333 0.33161,0.337 m 8.0586,2.35 1.0073,0.337 1.6795,2.687 3.3571,-1.678 2.0146,0.335 0,0.335 2.6868,1.681 2.3498,0.671 0.33518,0.67 0,1.341 -1.3425,1.344 -1.6795,0.672 -3.3572,1.346 -2.3516,0 -0.67215,-0.338 -0.67035,-4.028 -1.0055,-0.337 -0.67215,0.669 -2.0146,-1.006 -1.3425,-1.344 -0.33696,-1.341 0.67214,-1.344 0.33518,-0.672 1.0073,0 m -8.7272,3.024 2.348,0 1.3443,1.007 0.67036,1.007 -0.33697,1.341 -3.0184,1.011 -0.33874,-1.344 -0.33161,-1.008 -1.3425,-1.341 0,-0.34 1.0055,-0.333 m 10.071,6.717 0.33517,0.334 0.33518,1.342 -2.6868,0.672 -1.0055,-0.338 0.67036,-1.002 2.3516,-1.008" inkscape:connector-curvature="0" style="stroke:#ffffff">
      <title id="title1657">Maui, HI</title>
    </path>
    <path id="c15001" d="m 397,619.87 -0.67036,0.672 -1.3443,-1.007 -3.3571,-1.342 -0.67571,-1.01 -0.33518,-0.67 0.33518,-5.374 -2.3498,-5.71 -1.3443,-1.341 -1.0073,-1.342 0.33696,-1.011 2.0146,-2.013 2.3498,-3.02 0,-1.343 -1.6777,-2.351 -0.33696,-1.343 0.33696,-1.346 0.67036,-0.335 2.0164,0.335 0.67036,1.007 3.0238,1.347 3.6959,0.67 4.0293,1.681 2.6868,1.678 1.3425,1.677 0.33518,2.689 1.6777,-0.337 0.67214,1.004 0,1.346 1.6795,1.342 2.3498,1.006 -0.67214,1.344 -3.6923,3.357 -3.022,1.683 -2.6868,0.336 -3.022,2.348 -1.6777,1.005 -2.3516,4.368" inkscape:connector-curvature="0" style="stroke:#ffffff">
      <title id="title1660">Hawaii, HI</title>
    </path>
    <path id="c15005" d="m 364.43,571.18 -1.0073,-0.333 2.3498,0.333 0.33339,0.67 -0.33339,0 -0.67215,-0.333 -0.33874,0 -0.33161,-0.337" inkscape:connector-curvature="0" style="stroke:#ffffff">
      <title id="title1663">Kalawao, HI</title>
    </path>
    </g>
  </svg>
