<svg xmlns:dc="http://purl.org/dc/elements/1.1/" xmlns:cc="http://creativecommons.org/ns#" xmlns:rdf="http://www.w3.org/1999/02/22-rdf-syntax-ns#" xmlns:svg="http://www.w3.org/2000/svg" xmlns="http://www.w3.org/2000/svg" xmlns:sodipodi="http://sodipodi.sourceforge.net/DTD/sodipodi-0.dtd" xmlns:inkscape="http://www.inkscape.org/namespaces/inkscape" width="108.85003000000003" height="175.972" version="1.0" id="svg2" inkscape:version="0.91 r13725" sodipodi:docname="USA counties.svg">
  <defs id="defs9439"/>
  <sodipodi:namedview pagecolor="#ffffff" bordercolor="#666666" borderopacity="1" objecttolerance="10" gridtolerance="10" guidetolerance="10" inkscape:pageopacity="0" inkscape:pageshadow="2" inkscape:window-width="798" inkscape:window-height="828" id="namedview9437" showgrid="false" showguides="true" inkscape:zoom="0.64950808" inkscape:cx="494.98999" inkscape:cy="313.535" inkscape:window-x="-7" inkscape:window-y="0" inkscape:window-maximized="0" inkscape:current-layer="svg2"/>
  <metadata id="metadata4">
    <rdf:RDF>
      <cc:Work>
        <dc:format>image/svg+xml</dc:format>
        <dc:type rdf:resource="http://purl.org/dc/dcmitype/StillImage"/>
        <dc:title/>
        <cc:license rdf:resource="http://creativecommons.org/publicdomain/zero/1.0/"/>
        <dc:date>2019-10-06</dc:date>
        <dc:creator>
          <cc:Agent>
            <dc:title>U.S. Census Bureau, Abe.suleiman, Lokal_Profil</dc:title>
          </cc:Agent>
        </dc:creator>
        <dc:source>https://commons.wikimedia.org/wiki/File:Usa_counties_large.svg</dc:source>
      </cc:Work>
      <cc:License rdf:about="http://creativecommons.org/publicdomain/zero/1.0/">
        <cc:permits rdf:resource="http://creativecommons.org/ns#Reproduction"/>
        <cc:permits rdf:resource="http://creativecommons.org/ns#Distribution"/>
        <cc:permits rdf:resource="http://creativecommons.org/ns#DerivativeWorks"/>
      </cc:License>
    </rdf:RDF>
  </metadata>
  <style id="style6">
  /*
   * Below are Cascading Style Sheet (CSS) definitions in use in this file,
   * which allow easily changing how counties are displayed.
   *
   *
   * For the U.S. Census county codes (FIPS codes) used in this file to identify individual counties, see this link:
   * https://www2.census.gov/geo/docs/reference/codes/files/national_county.txt
   *
   * The county codes used in this file combine the 2-digit state code, which is in the second column of the file
   * linked above, and the 3-digit county code, which is in the third column of the file linked above. Each value
   * for the "id" attribute for each county is in the following form: "c[state_code][county-code]". For example,
   * for Loving Country in Texas, the state code is "48" and the county code is "301", so the id name for the
   * county is "c48301".
   *
   * County codes used in this file can also be found on Wikimedia Commons at this link:
   * https://commons.wikimedia.org/wiki/File_talk:Usa_counties_large.svg/county_codes
   *
   * Examples:
   *
   * To color two counties red (in this case Loving County and Dallas County in Texas) simply
   * go to the CSS insertion point and add:
   *
   * #c48301, #c48113 {fill:red}
   *
   * To color an entire state's counties (in the case New Mexico, with "35" being the state code) a green,
   * go to the CSS insertion point and add:
   *
   * path[id*='c35'] {fill:#34A853}
   *
   */
  #counties {fill:#d0d0d0;stroke:#000;stroke-width:.17829;} 
  #borders {fill:none;stroke:#221e1f;stroke-width:.89143;} 
  #separator {fill:none;stroke:#a9a9a9;stroke-width:2.3177309;}
 </style>
  <g id="counties" transform="translate(-168.47019999999995,-23.39699999999999)" style="fill:#d0d0d0;stroke:#ffffff;stroke-width:0.17828999">
    <path id="c16043" d="m 273.02,135.82 0.77198,0.763 1.3193,2.587 0.71493,2.064 0.18542,0.548 1.3086,1.214 -1.7686,11.168 -5.9548,0.451 -0.0642,0.07 -0.0624,0.02 -2.4505,-0.43457 -0.17742,0.81957 -2.2339,-0.371 -2.1448,-1.389 -2.2749,-0.387 0.16045,-0.987 -2.9168,-0.515 0.33696,-1.96 1.9861,0.346 0.38136,-1.8574 1.9168,0.22637 1.0679,-0.844 0.33874,-1.47 0.24782,-1.455 1.2052,-1.15 1.4869,-0.369 1.4299,0.233 0.57943,-3.439 2.7795,-3.191 1.831,-0.69" inkscape:connector-curvature="0" style="stroke:#ffffff">
      <title id="title1963">Fremont, ID</title>
    </path>
    <path id="c16033" d="m 268.41,139.7 -0.57943,3.439 -1.4299,-0.233 -1.4869,0.369 -1.2052,1.15 -0.24782,1.455 -0.33874,1.47 -1.0679,0.844 -1.9168,-0.22637 -0.38136,1.8574 -1.9861,-0.346 -8.7575,-1.542 -0.35479,1.959 -4.8619,-0.884 1.0537,-5.937 0.96454,0.266 1.9594,0.344 0.59548,-3.318 -0.0963,-0.467 0.19255,-0.86 0.23356,-0.361 0.6347,-0.674 1.084,-0.257 5.7462,1.43 2.4425,-0.917 4.475,0.459 3.2395,0.923 2.0895,0.06" inkscape:connector-curvature="0" style="stroke:#ffffff">
      <title id="title1966">Clark, ID</title>
    </path>
    <path id="c16009" d="m 195.37,59.678 2.1305,0.473 4.2254,0.666 0.21751,-0.472 0.61152,-0.201 3.9437,0.884 -1.9023,8.741 -1.9861,-0.424 -4.7567,-1.407 -3.6888,-2.933 0.66857,-2.941 0.53665,-2.386" inkscape:connector-curvature="0" style="stroke:#ffffff">
      <title id="title1969">Benewah, ID</title>
    </path>
    <path id="c16055" d="m 198.39,46.057 4.163,0.82 2.1216,0.248 1.9612,0.435 -0.51525,2.25 2.7813,0.603 -2.4122,10.615 -3.9437,-0.884 -0.61152,0.201 -0.21751,0.472 -4.2254,-0.666 -2.1305,-0.473 3.0291,-13.621" inkscape:connector-curvature="0" style="stroke:#ffffff">
      <title id="title1972">Kootenai, ID</title>
    </path>
    <path id="c16017" d="m 202.87,26.781 3.7208,0.811 -0.82725,3.849 -0.87717,3.849 11.105,2.395 -1.3746,6.388 -1.1161,5.311 -0.14441,-0.298 -0.79516,-1.148 -1.3996,-1.109 -0.17651,-0.112 -0.64361,0.06 -0.9164,0.779 -0.0713,0.323 -0.44928,2.539 -2.7813,-0.603 0.51525,-2.25 -1.9612,-0.435 -2.1216,-0.248 -4.163,-0.82 0.34588,-1.517 4.1309,-17.759" inkscape:connector-curvature="0" style="stroke:#ffffff">
      <title id="title1975">Bonner, ID</title>
    </path>
    <path id="c16021" d="m 203.65,23.397 14.714,3.191 -2.3712,11.097 -11.105,-2.395 0.87717,-3.849 0.82725,-3.849 -3.7208,-0.811 0.77911,-3.384" inkscape:connector-curvature="0" style="stroke:#ffffff">
      <title id="title1978">Boundary, ID</title>
    </path>
    <path id="c16057" d="m 194.16,65.005 3.6888,2.933 4.7567,1.407 1.9861,0.424 -0.42611,1.969 -1.2944,5.963 -0.85221,0.731 -1.3015,-0.289 -2.3962,-0.57 -0.16759,0 -0.68997,0.257 -0.71672,0.442 -0.19255,0.249 0.009,0.08 -0.33697,0.579 -5.0063,-1.095 2.94,-13.081" inkscape:connector-curvature="0" style="stroke:#ffffff">
      <title id="title1981">Latah, ID</title>
    </path>
    <path id="c16069" d="m 191.22,78.086 5.0063,1.095 0.33697,-0.579 -0.009,-0.08 0.19255,-0.249 0.71672,-0.442 0.68997,-0.257 0.16759,0 2.3962,0.57 -0.35479,1.632 -0.24782,1.43 0.95562,0.03 0.36192,0.103 -0.16045,0.731 -0.0891,-0.06 -0.15154,-0.04 -0.39402,-0.07 -0.0891,0.01 0.025,0.313 0.0481,0.282 0.3851,1.262 -0.10519,0.69 -0.0785,0.195 -0.15332,0.192 -1.9683,-0.02 -3.4891,-0.772 -0.0945,0.483 0.007,0.159 -1.3657,6.775 -0.29061,0.112 -0.49742,0.387 -0.12836,0.136 -0.20147,0.371 -0.016,0.272 0.0499,0.33 0.0945,0.136 0.082,0.217 -0.0499,0.234 -0.31378,0.392 -0.11946,0.1 -0.65074,0.168 -0.17651,-0.06 -1.1321,-3.528 -0.0981,-1.59 0.76485,-2.108 -0.0981,-1.975 -0.15333,-1.269 -0.0232,-0.08 -0.50455,-2.034 0.33696,-1.004 0.58657,-2.595" inkscape:connector-curvature="0" style="stroke:#ffffff">
      <title id="title1984">Nez Perce, ID</title>
    </path>
    <path id="c16061" d="m 203.91,84.877 0.97344,2.908 -2.8526,1.631 -2.9649,-1.622 -0.37797,0.06 -0.057,0.06 -3.1985,3.014 -1.6706,0.546 1.3657,-6.775 -0.007,-0.159 0.0945,-0.483 3.4891,0.772 1.9683,0.02 0.15332,-0.192 0.0785,-0.195 0.10519,-0.69 -0.3851,-1.262 -0.0481,-0.282 -0.025,-0.313 0.0891,-0.01 0.39402,0.07 0.15154,0.04 0.0891,0.06 0.59369,0.772 1.8328,1.02 0.16046,0.297 0.041,0.305 0.007,0.419" inkscape:connector-curvature="0" style="stroke:#ffffff">
      <title id="title1987">Lewis, ID</title>
    </path>
    <path id="c16003" d="m 190.31,107.85 5.5287,1.206 0.0802,0.417 0.16046,1.406 -0.0232,1.052 -0.22642,0.532 -0.11054,0.07 -0.0571,0.225 2.5406,0.579 0.66679,1.189 -0.90035,2.177 -0.34766,0.412 -0.14441,0 -0.23177,-0.139 -0.77199,1.175 -0.22464,0.497 -0.64183,1.785 -0.55626,4.475 0,2.089 -2.5548,0.74 -1.478,-0.322 -0.54556,-0.289 -1.3924,-1.238 0.69944,-2.692 -1.3092,-0.362 -0.0891,-1.164 0.86112,-3.954 -4.2432,-0.981 0.48316,-0.513 0.37619,-0.403 0.53842,-0.931 0.016,-0.02 -0.0232,-0.185 -0.0963,-0.225 -0.0571,-0.225 -0.016,-0.465 0.40114,-0.836 0.50812,-0.467 0.77912,-0.706 2.4015,-3.914" inkscape:connector-curvature="0" style="stroke:#ffffff">
      <title id="title1990">Adams, ID</title>
    </path>
    <path id="c16087" d="m 185,116.74 4.2432,0.981 -0.86112,3.954 0.0891,1.164 1.3092,0.362 -0.69944,2.692 1.3924,1.238 0.54556,0.289 1.478,0.322 -0.95562,1.632 -0.36192,0.923 -0.30487,1.503 -0.54556,1.808 -0.21038,0.529 -1.503,-0.337 -7.1582,-1.606 0.0232,-0.04 0.0232,-0.05 0.0321,-0.06 0.009,0 0,-0.02 0.0232,-0.234 -0.0553,-0.176 -0.0161,-0.03 -0.85221,-1.686 -0.16759,-0.105 -0.63648,-0.225 -0.0874,0 -0.15333,0.07 -2.0004,-0.811 -0.24069,-0.408 -0.0321,-0.33 0.0232,-0.194 0.041,-0.122 0.55448,-3.783 0.20146,-0.403 3.5586,-4.892 0.37797,-0.339 0.11232,-0.05 0.39401,-0.09 1.535,-0.523 0.87539,-0.941" inkscape:connector-curvature="0" style="stroke:#ffffff">
      <title id="title1993">Washington, ID</title>
    </path>
    <path id="c16075" d="m 181.46,132.19 7.1582,1.606 -0.43502,1.937 -2.3445,1.494 -2.266,-0.521 -0.86826,3.928 -3.9455,-2.61 0.48138,-0.804 0.78089,-1.478 0.62579,-2.555 0.81299,-0.997" inkscape:connector-curvature="0" style="stroke:#ffffff">
      <title id="title1996">Payette, ID</title>
    </path>
    <path id="c16015" d="m 208.16,133.52 0.85935,0.964 -0.20923,3.0413 2.8443,0.96871 0.0731,0.378 0.0731,3.794 -0.066,0.191 -0.46533,0.467 -1.2783,-0.04 -1.5703,-1.1958 0.0646,-2.5038 -1.0152,-0.59323 -0.88607,3.5548 -3.7601,0.417 -0.33874,0.167 -1.815,1.698 -0.78803,0.946 -0.72385,0.997 -0.46533,0.435 -0.40114,0.186 -2.2749,0.859 -1.2997,0.05 -0.92531,-0.114 -0.19255,-0.09 -0.10519,0.106 -1.8007,-2.869 -2.0164,-3.175 0.12124,0.03 0.0321,-0.113 1.6706,-7.641 0.98057,0.209 1.5743,-0.122 0.60439,-1.42 9.6489,2.073 0.77912,-0.03 0.89322,-0.298 2.1787,-1.333" inkscape:connector-curvature="0" style="stroke:#ffffff">
      <title id="title1999">Boise, ID</title>
    </path>
    <path id="c16045" d="m 195.05,127 0.0802,0.02 -0.85043,3.93 -0.9574,-0.2 -0.8433,3.896 -0.98057,-0.209 -1.6706,7.642 -0.0321,0.112 -0.12124,-0.03 -3.7369,-0.819 -3.2377,-0.7 0.86826,-3.928 2.266,0.521 2.3445,-1.494 0.43502,-1.937 1.503,0.337 0.21038,-0.529 0.54556,-1.808 0.30487,-1.503 0.36192,-0.923 0.95562,-1.632 2.5548,-0.74" inkscape:connector-curvature="0" style="stroke:#ffffff">
      <title id="title2002">Gem, ID</title>
    </path>
    <path id="c16027" d="m 178.76,138.03 3.9455,2.61 3.2377,0.7 -0.85934,3.905 0.23356,0.972 -0.16938,1.8 -0.28882,1.311 -0.69889,1.173 -0.75593,2.499 -1.0519,-0.675 -2.3712,-4.413 -0.0321,-0.119 0.14441,-0.878 0.025,-0.41 -0.12124,-0.713 -0.1034,-0.346 -0.40115,-0.499 -1.9629,-2.266 -0.54556,-0.344 1.7757,-4.307" inkscape:connector-curvature="0" style="stroke:#ffffff">
      <title id="title2005">Canyon, ID</title>
    </path>
    <path id="c16001" d="m 185.94,141.34 3.7369,0.819 2.0164,3.175 1.8007,2.869 0.10519,-0.105 -1.0768,5.118 -0.37797,1.776 -0.90035,3.883 -4.7086,-0.99 -0.25673,-0.233 -0.38688,-0.458 -0.52238,-0.828 -0.3851,-0.698 -0.007,-0.06 0.12837,-0.458 0.2086,-0.314 0.0321,-0.217 -0.31379,-1.116 -0.20146,-0.266 -0.11945,-0.09 -1.3104,-0.143 0.75593,-2.499 0.69889,-1.173 0.28882,-1.311 0.16938,-1.8 -0.23356,-0.972 0.85934,-3.905" inkscape:connector-curvature="0" style="stroke:#ffffff">
      <title id="title2008">Ada, ID</title>
    </path>
    <path id="c16039" d="m 211.27,143.32 0.26565,0.33 -0.65967,1.734 -0.21751,0.138 -0.51346,0.738 -0.22464,0.419 -1.7365,4.145 -1.1339,5.281 -0.78624,3.888 -0.51347,6.645 -0.66857,3.255 -6.8694,-1.399 0.39401,-1.888 0.26565,-0.569 0.31913,-1.191 -5.7355,-1.622 -3.3678,-0.708 -0.20146,-0.09 -1.059,-1.109 -1.5279,-1.769 -0.71493,-1.446 -0.0481,-0.225 4.7086,0.99 0.90035,-3.883 0.37797,-1.776 1.0768,-5.119 0.19255,0.09 0.92531,0.114 1.2997,-0.05 2.2749,-0.859 0.40114,-0.186 0.46533,-0.435 0.72385,-0.997 0.78803,-0.946 1.815,-1.698 0.33874,-0.167 3.7601,-0.417 0.88607,-3.5548 1.0152,0.59323 -0.0646,2.5038 1.5703,1.1958 1.2783,0.04" inkscape:connector-curvature="0" style="stroke:#ffffff">
      <title id="title2011">Elmore, ID</title>
    </path>
    <path id="c16073" d="m 176.98,142.33 0.54556,0.344 1.9629,2.266 0.40115,0.499 0.1034,0.346 0.12124,0.713 -0.025,0.41 -0.14441,0.878 0.0321,0.119 2.3712,4.413 1.0519,0.675 1.3104,0.143 0.11945,0.09 0.20146,0.266 0.31379,1.116 -0.0321,0.217 -0.2086,0.314 -0.12837,0.458 0.007,0.06 0.3851,0.699 0.52238,0.827 0.38688,0.458 0.25673,0.234 0.0481,0.224 0.71493,1.446 1.5279,1.769 1.059,1.109 0.20146,0.09 3.3678,0.708 5.7355,1.622 -0.31913,1.191 -0.26565,0.569 -0.39401,1.888 6.8694,1.4 -3.5586,17.502 -24.5,-5.201 -1.9291,-0.442 -6.4932,-1.487 -0.12836,-0.05 8.5096,-37.886" inkscape:connector-curvature="0" style="stroke:#ffffff">
      <title id="title2014">Owyhee, ID</title>
    </path>
    <path id="c16025" d="m 210.87,145.38 1.6795,1.173 2.5959,0.756 0.11945,0.154 0.0481,0.167 0.041,0.337 0.0161,1.045 -0.12837,1.785 -0.0802,1.686 0.98368,3.7055 -0.48355,2.5769 1.9674,0.30062 0.53665,0.305 -0.0321,1.88 -0.2086,1.043 -3.6068,-0.681 -8.0604,-1.624 0.78624,-3.888 1.1339,-5.281 1.7365,-4.145 0.22464,-0.419 0.51346,-0.738 0.21751,-0.138" inkscape:connector-curvature="0" style="stroke:#ffffff">
      <title id="title2017">Camas, ID</title>
    </path>
    <path id="c16047" d="m 206.26,159.99 8.0604,1.624 -1.56,7.875 -1.2694,4.491 -2.2018,-0.98 -1.141,-1.054 -0.88431,-1.654 0.45107,-1.937 -0.009,-0.112 -0.67571,-1.416 -0.58478,-0.192 -0.45998,-0.1 -0.23891,0.1 0.51347,-6.645" inkscape:connector-curvature="0" style="stroke:#ffffff">
      <title id="title2020">Gooding, ID</title>
    </path>
    <path id="c16053" d="m 212.76,169.49 3.7761,0.746 -0.11945,0.611 0.26565,0.394 4.782,1.4839 -0.0895,0.46114 1.9273,0.378 -0.98058,5.213 -1.1803,-0.01 -2.1056,0.216 -0.77911,-0.786 -0.0891,-0.186 -0.79516,-0.69 -2.644,-1.432 -1.0287,-0.385 -2.0004,-1.301 -0.2086,-0.218 1.2694,-4.491" inkscape:connector-curvature="0" style="stroke:#ffffff">
      <title id="title2023">Jerome, ID</title>
    </path>
    <path id="c16083" d="m 205.75,166.64 0.23891,-0.1 0.45998,0.1 0.58478,0.192 0.67571,1.416 0.009,0.112 -0.45107,1.937 0.88431,1.654 1.141,1.054 2.2018,0.98 0.2086,0.218 2.0004,1.301 1.0287,0.385 2.644,1.432 0.79516,0.69 0.0891,0.186 0.77911,0.786 2.1056,-0.216 -0.64361,0.1 -0.86648,1.68 -3.6888,-0.209 -0.24961,1.343 -0.0642,0.624 -1.494,7.643 -3.6157,-0.715 -4.4037,-0.997 -2.5156,-0.506 -2.0806,-0.328 3.5586,-17.503 0.66857,-3.255" inkscape:connector-curvature="0" style="stroke:#ffffff">
      <title id="title2026">Twin Falls, ID</title>
    </path>
    <path id="c16031" d="m 222.32,178.78 3.5693,1.07 0.21573,0.03 0.11232,-0.03 0.69175,-0.218 0.23177,-0.201 0.26565,-0.385 1.2302,-1.59 0.12837,-0.106 0.26565,-0.153 0.68997,-0.112 0.79694,0.08 1.0109,0.07 0.86825,0.266 0.44216,0.731 0.2496,0.353 0.85043,0.467 0.0981,0 0.19255,-0.161 0.68283,-0.08 3.0452,1.639 -1.0358,5.929 -1.3586,7.497 -6.7339,-1.139 -0.49029,-0.08 -5.584,-0.95 -0.53129,-0.09 -1.4299,-0.249 -0.19968,-0.04 -1.3425,-0.32 -1.1179,-0.282 -4.0008,-0.788 1.494,-7.643 0.0642,-0.624 0.24961,-1.343 3.6888,0.209 0.86648,-1.68 0.64361,-0.1 1.1803,0.01" inkscape:connector-curvature="0" style="stroke:#ffffff">
      <title id="title2029">Cassia, ID</title>
    </path>
    <path id="c16071" d="m 247.31,184.11 1.4156,1.496 0,1.662 0.65788,0.772 1.5511,1.59 0.41006,0.284 0.33696,0.456 0.41006,0.768 -0.26565,1.571 -0.65075,-0.118 -0.67392,3.942 -0.91818,-0.146 -1.2284,-0.317 -0.009,0 -3.5515,-0.614 -4.3306,-0.748 -4.894,-0.828 1.3586,-7.497 5.7854,1.006 0.35479,-1.986 2.5941,0.46 0.34588,-1.986 1.3015,0.233" inkscape:connector-curvature="0" style="stroke:#ffffff">
      <title id="title2032">Oneida, ID</title>
    </path>
    <path id="c16077" d="m 240.03,168.54 -1.0287,5.639 3.1753,0.563 1.4459,-1.815 0.68284,0.739 1.9683,-0.771 0.21751,0.04 0.4582,0.513 0.3851,1.102 1.2052,6.404 -0.0802,0.492 -0.32091,1.189 -0.83617,1.469 -1.3015,-0.233 -0.34588,1.986 -2.5941,-0.46 -0.35479,1.986 -5.7854,-1.006 1.0358,-5.929 -3.0452,-1.639 -0.68283,0.08 0.57051,-3.118 0.24961,-1.968 1.1,-5.971 3.8813,0.708" inkscape:connector-curvature="0" style="stroke:#ffffff">
      <title id="title2035">Power, ID</title>
    </path>
    <path id="c16005" d="m 255.26,173.3 -1.3586,1.59 -0.0481,0.09 -0.33696,0.795 -0.51347,2.557 -0.041,0.649 0.025,0.249 0.312,1.304 0.13728,0.1 0.19968,-0.02 0.31557,-0.162 0.0874,-0.129 0.13728,-0.08 1.462,0.248 0.44929,2.107 0.0321,0.344 0.0321,3.015 -0.007,1.018 -0.11232,0.662 -0.32983,-0.05 -0.64184,3.632 -1.4637,-0.251 -0.71493,-0.571 -1.5422,-0.487 -0.41006,-0.283 -1.5511,-1.59 -0.65788,-0.772 0,-1.662 -1.4156,-1.496 0.83617,-1.469 0.32091,-1.189 0.0802,-0.492 -1.2052,-6.404 -0.3851,-1.102 -0.4582,-0.513 -0.21751,-0.04 -1.9683,0.771 -0.68284,-0.739 0,-0.153 0.041,-0.112 0.25674,-0.555 1.3407,-0.474 0.19255,-0.03 9.804,1.688" inkscape:connector-curvature="0" style="stroke:#ffffff">
      <title id="title2038">Bannock, ID</title>
    </path>
    <path id="c16041" d="m 256.03,187.64 4.6194,0.788 -0.1765,2.28 -0.73098,1.546 -0.33696,0.816 -0.0571,0.41 0.0963,2.177 0.0571,0.13 1.1089,2.384 -10.116,-1.637 0.67392,-3.942 0.65075,0.118 0.26565,-1.571 -0.41006,-0.768 -0.33696,-0.456 1.5422,0.486 0.71493,0.571 1.4637,0.251 0.64184,-3.632 0.32983,0.05" inkscape:connector-curvature="0" style="stroke:#ffffff">
      <title id="title2041">Franklin, ID</title>
    </path>
    <path id="c16007" d="m 270.23,187.69 -1.8738,11.679 -7.7377,-1.205 -1.1089,-2.384 -0.0571,-0.13 -0.0963,-2.177 0.0571,-0.41 0.33696,-0.816 0.73098,-1.546 0.1765,-2.28 -0.0553,-3.079 0.0321,-0.548 0.59369,-0.385 6.019,0.958 0.2086,0.472 0.009,0.153 -0.15332,0.573 -0.12124,0.319 -0.19968,0.426 1.3657,0.668 1.8738,-0.288" inkscape:connector-curvature="0" style="stroke:#ffffff">
      <title id="title2044">Bear Lake, ID</title>
    </path>
    <path id="c16029" d="m 263.08,174.67 9.032,1.471 -1.8863,11.557 -1.8738,0.288 -1.3657,-0.668 0.19968,-0.426 0.12124,-0.319 0.15332,-0.573 -0.009,-0.153 -0.2086,-0.472 -6.019,-0.958 -0.59369,0.385 -0.0321,0.548 0.0553,3.079 -4.6194,-0.788 0.11232,-0.662 0.007,-1.018 -0.0321,-3.015 -0.0321,-0.344 -0.44929,-2.107 -1.462,-0.248 -0.13728,0.08 -0.0874,0.129 -0.31557,0.162 -0.19968,0.02 -0.13728,-0.1 -0.312,-1.304 -0.025,-0.249 0.041,-0.649 0.51347,-2.557 0.33696,-0.795 0.0481,-0.09 1.3586,-1.59 7.8179,1.365" inkscape:connector-curvature="0" style="stroke:#ffffff">
      <title id="title2047">Caribou, ID</title>
    </path>
    <path id="c16067" d="m 228.78,164.37 4.9421,0.932 -1.4637,7.964 -0.97879,-0.185 -0.75594,4.09 -0.79694,-0.08 -0.68997,0.112 -0.26565,0.153 -0.12837,0.106 -1.2302,1.59 -0.26565,0.385 -0.23177,0.201 -0.69175,0.218 -0.11232,0.03 -0.21573,-0.03 -3.5693,-1.07 0.98058,-5.213 2.7813,0.546 1.2052,-1.783 1.4869,-7.957" inkscape:connector-curvature="0" style="stroke:#ffffff">
      <title id="title2050">Minidoka, ID</title>
    </path>
    <path id="c16063" d="m 214.32,161.62 3.6068,0.681 10.849,2.074 -1.4869,7.957 -1.2052,1.783 -2.7813,-0.546 -1.9273,-0.378 0.0895,-0.46114 -4.782,-1.4839 -0.26565,-0.394 0.11945,-0.611 -3.7761,-0.746 1.56,-7.875" inkscape:connector-curvature="0" style="stroke:#ffffff">
      <title id="title2053">Lincoln, ID</title>
    </path>
    <path id="c16019" d="m 264.77,160.75 3.6959,0.715 2.5566,0.426 0.23178,0.394 0.016,0.232 1.3586,1.736 1.2124,0.917 -0.59813,3.9591 -1.1295,7.0089 -9.032,-1.471 0.69889,-4.09 0.3227,-1.863 -3.8799,-1.0012 0.33555,-1.5708 -4.6433,-0.8856 0.25569,-1.2274 -6.8462,-1.198 0.80407,-4.58 14.641,2.499" inkscape:connector-curvature="0" style="stroke:#ffffff">
      <title id="title2056">Bonneville, ID</title>
    </path>
    <path id="c16011" d="m 250.13,158.25 -0.80407,4.58 6.8462,1.198 -0.25569,1.2274 4.6433,0.8856 -0.33555,1.5708 3.8799,1.0012 -0.3227,1.863 -0.69889,4.09 -7.8179,-1.365 -9.804,-1.689 -0.19255,0.03 -1.3407,0.474 -0.25674,0.555 -0.041,0.112 0,0.154 -1.4459,1.814 -3.1753,-0.563 1.0287,-5.639 0.72385,-3.946 0.98058,0.177 0.49742,-1.849 0.34588,-1.865 1.9772,0.364 0.45444,-2.0728 1.8348,0.34278 0.36193,-1.872 2.9168,0.427" inkscape:connector-curvature="0" style="stroke:#ffffff">
      <title id="title2059">Bingham, ID</title>
    </path>
    <path id="c16013" d="m 211.53,143.65 0.77911,-0.557 0.19968,-0.103 0.61153,-0.225 0.24068,-0.04 0.97345,0.193 1.8542,1.906 1.3514,1.51 1.856,-0.136 2.3873,0.699 0.62579,0.466 4.3163,4.701 1.2837,1.583 0.22643,0.305 0.45819,0.891 0.15868,0.362 0.13728,0.546 0.89322,-0.273 0.33696,0 0.42611,0.2 0.0802,0.144 0.6347,2.042 0.12123,0.941 -0.36192,0.248 -0.32983,1.752 4.4839,0.844 -0.34588,1.881 5.8264,1.06 -0.72385,3.946 -3.8813,-0.708 -1.1,5.971 -0.24961,1.968 -0.57051,3.118 -0.19255,0.161 -0.0981,0 -0.85043,-0.467 -0.2496,-0.353 -0.44216,-0.731 -0.86825,-0.266 -1.0109,-0.07 0.75594,-4.09 0.97879,0.186 1.4637,-7.965 -4.9421,-0.932 -10.849,-2.073 0.2086,-1.043 0.0321,-1.881 -0.53665,-0.305 -1.9674,-0.30062 0.48355,-2.5769 -0.98368,-3.7055 0.0802,-1.686 0.12837,-1.785 -0.0161,-1.045 -0.041,-0.337 -0.0481,-0.167 -0.11945,-0.154 -2.5959,-0.755 -1.6795,-1.174 0.65967,-1.734" inkscape:connector-curvature="0" style="stroke:#ffffff">
      <title id="title2062">Blaine, ID</title>
    </path>
    <path id="c16085" d="m 198.2,113.34 0.0143,-0.128 0.25673,-0.5 0.34588,-0.433 2.4924,-0.337 20.385,4.17 -0.31379,0.154 -0.21751,0.224 -0.26386,0.642 -0.2496,1.238 -0.16938,1.053 -0.55269,2.115 -0.94135,1.824 -0.93244,1.148 -2.5228,1.478 -0.16938,0.03 -0.68997,-0.241 -0.52238,-0.715 -0.4992,-0.435 -0.27278,-0.09 -0.78625,0.369 -2.9346,2.499 -0.55447,0.651 -0.0143,0.635 0.0392,0.387 0.0891,0.424 0.3851,0.128 0.0963,-0.06 0.0481,0.02 0.10519,0.218 0.0553,0.722 -0.28882,1.301 -0.0963,0.17 -0.36192,0.579 -0.29774,0.337 -0.51347,0.474 -0.19255,0.12 -2.1787,1.333 -0.89322,0.298 -0.77912,0.03 -9.6489,-2.073 -0.60439,1.421 -1.5743,0.121 0.8433,-3.896 0.9574,0.2 0.85043,-3.93 -0.0802,-0.02 0,-2.089 0.55626,-4.475 0.64183,-1.785 0.22464,-0.497 0.77199,-1.175 0.23177,0.139 0.14441,0 0.34766,-0.412 0.90035,-2.177 -0.66679,-1.189" inkscape:connector-curvature="0" style="stroke:#ffffff">
      <title id="title2065">Valley, ID</title>
    </path>
    <path id="c16079" d="m 208.91,50.413 0.44928,-2.539 0.0713,-0.323 0.9164,-0.779 0.64361,-0.06 0.17651,0.112 1.3996,1.109 0.79516,1.148 0.14441,0.298 0.47425,0.843 3.0933,6.301 0.0232,0.08 0.025,0.06 0.007,0.03 0,0.09 -0.007,1.287 -0.52238,1.325 -0.44215,1.005 -0.29774,1.849 0,0.02 0.0161,0.569 2.4604,3.4 0.33696,0.289 0.26565,0.233 0.8433,0.41 1.2213,0.489 0.26565,0.194 1.3978,3.149 1.3086,3.054 0.73989,1.381 0.40114,0.74 -20.947,-4.428 0.42611,-1.969 1.9023,-8.741 2.4122,-10.615" inkscape:connector-curvature="0" style="stroke:#ffffff">
      <title id="title2068">Shoshone, ID</title>
    </path>
    <path id="c16035" d="m 204.17,71.738 20.947,4.428 0.30666,2.323 0,0.01 0.0713,0.194 2.316,3.093 0.22464,0.06 0.10341,0.03 0.68997,0 0.86826,2.176 -10.004,0.177 -6.8623,0.128 -0.0321,0.02 -2.1858,2.589 -0.48138,0.94 -0.27278,0.305 -0.32983,0.29 -0.2496,-0.03 -0.32092,-0.103 -2.3534,-1.109 -0.0891,-0.07 -0.41006,-0.578 -0.28169,-0.619 -1.535,-0.955 -0.37797,-0.17 -0.007,-0.418 -0.041,-0.305 -0.16046,-0.298 -1.8328,-1.02 -0.59369,-0.772 0.16045,-0.731 -0.36192,-0.103 -0.95562,-0.03 0.24782,-1.43 0.35479,-1.631 1.3015,0.288 0.85221,-0.731 1.2944,-5.963" inkscape:connector-curvature="0" style="stroke:#ffffff">
      <title id="title2071">Clearwater, ID</title>
    </path>
    <path id="c16049" d="m 233.64,84.605 0.0874,0.09 0.0571,0.266 -0.0963,0.506 -0.55626,1.574 -0.93957,2.163 -1.4067,3.125 -4.4839,11.186 -0.56161,3.077 -0.28169,1.558 -0.0161,0.08 0.0481,0.06 -0.70602,0.531 -1.5921,0.995 -0.81834,-0.433 -0.22642,-0.225 -0.1355,-0.257 -0.16046,-0.169 -0.22642,-0.03 -0.10341,0.07 -0.13015,0.259 -0.0963,0.465 -0.11232,0.82 0.009,0.09 0.57943,0.82 0.82726,1.117 0.69888,1.486 -1.5992,2.291 -20.385,-4.17 -2.4924,0.337 -0.34588,0.434 -0.25673,0.499 -0.0143,0.128 -2.5406,-0.579 0.0571,-0.225 0.11054,-0.07 0.22642,-0.532 0.0232,-1.051 -0.16046,-1.407 -0.0802,-0.417 -5.5287,-1.206 0.54556,-1.15 2.7813,-3.567 1.5422,-1.576 0.38688,-0.44 0.0642,-0.291 -0.55448,-2.908 -0.10519,-0.442 -0.312,-0.396 -0.27456,-0.353 -0.007,0 -0.58657,-0.257 -1.3996,-1.287 -0.73098,-0.674 -0.0481,-0.09 -0.0713,-0.135 0.17651,0.06 0.65074,-0.168 0.11946,-0.1 0.31378,-0.392 0.0499,-0.234 -0.082,-0.217 -0.0945,-0.136 -0.0499,-0.329 0.016,-0.273 0.20147,-0.371 0.12836,-0.135 0.49742,-0.387 0.29061,-0.113 1.6706,-0.545 3.1985,-3.015 0.057,-0.06 0.37797,-0.06 2.9649,1.623 2.8526,-1.632 -0.97344,-2.907 0.37797,0.169 1.535,0.956 0.28169,0.618 0.41006,0.578 0.0891,0.07 2.3534,1.109 0.32092,0.103 0.2496,0.03 0.32983,-0.29 0.27278,-0.305 0.48138,-0.94 2.1858,-2.588 0.0321,-0.02 6.8623,-0.128 10.004,-0.176 0.0321,0.03 1.7116,0.36 0.36192,-0.1 0.24961,-0.1 0.41006,-0.08 0.82725,0.112 0.28169,0.234 0.0731,0.07" inkscape:connector-curvature="0" style="stroke:#ffffff">
      <title id="title2074">Idaho, ID</title>
    </path>
    <path id="c16037" d="m 208.16,133.52 0.19255,-0.12 0.51347,-0.474 0.29774,-0.337 0.36192,-0.579 0.0963,-0.17 0.28882,-1.301 -0.0553,-0.722 -0.10519,-0.218 -0.0481,-0.02 -0.0963,0.06 -0.3851,-0.128 -0.0891,-0.424 -0.0392,-0.387 0.0143,-0.635 0.55447,-0.651 2.9346,-2.499 0.78625,-0.369 0.27278,0.09 0.4992,0.435 0.52238,0.715 0.68997,0.241 0.16938,-0.03 2.5228,-1.478 -0.40115,1.349 0.0232,0.298 0.12836,0.369 2.6369,3.432 0.47424,0.562 0.0963,0.03 1.4548,-0.145 0.49742,-0.329 1.2462,-1.061 0.0642,-0.09 0.37619,-0.788 0.37083,-0.916 0.48138,-0.715 0.68462,-0.538 1.6474,-1.198 0.312,0.522 -0.0874,0.813 0.0392,1.952 4.5249,6.629 2.2981,1.455 1.7026,0.916 0.2086,0.08 0.57051,0.161 0.0981,-0.02 0.24069,-0.179 0.25673,-0.312 0.16046,-0.121 0.2086,0.04 0.0731,0.112 0.11232,0.296 0.82726,2.372 0.22464,0.7 0.0571,0.979 -0.0891,0.972 -1.5582,-0.289 -1.3996,3.817 -0.12837,0.642 -0.27991,2.676 -0.40293,2.41 -1.7026,1.721 -2.7563,0.907 -1.5921,0.852 -0.70602,0.747 -0.0571,0.129 -0.13728,-0.546 -0.15868,-0.362 -0.45819,-0.891 -0.22643,-0.305 -1.2837,-1.583 -4.3163,-4.702 -0.62579,-0.465 -2.3873,-0.699 -1.856,0.136 -1.3514,-1.51 -1.8542,-1.906 -0.97345,-0.193 -0.24068,0.04 -0.61153,0.225 -0.19968,0.103 -0.77911,0.557 -0.26565,-0.33 0.46533,-0.467 0.066,-0.191 -0.0731,-3.794 -0.0731,-0.378 -2.8443,-0.96871 0.20923,-3.0413 -0.85935,-0.964" inkscape:connector-curvature="0" style="stroke:#ffffff">
      <title id="title2077">Custer, ID</title>
    </path>
    <path id="c16059" d="m 235.57,107.18 0.32983,0.346 1.5582,2.201 0.0891,0.289 0.18364,1.824 -0.0143,0.683 -0.2086,0.378 -0.041,1.366 0.0232,1.8 2.5156,9.353 2.6672,3.712 0.54734,-0.135 0.57052,0.449 0.68283,0.763 0.30666,0.474 0.35122,1.102 0.46712,2 0,0.177 -0.0963,0.176 -0.0642,0.05 -0.0232,2.868 0.19077,1.086 0.44393,0.642 1.3086,1.464 0.41719,0.151 0.32983,-0.184 0.16046,-0.249 0.009,-0.06 0.0963,0.467 -0.59548,3.318 -1.9594,-0.344 -0.96454,-0.266 -5.2719,-0.941 0.0891,-0.972 -0.0571,-0.979 -0.22464,-0.7 -0.82726,-2.372 -0.11232,-0.296 -0.0731,-0.112 -0.2086,-0.04 -0.16046,0.121 -0.25673,0.312 -0.24069,0.179 -0.0981,0.02 -0.57051,-0.161 -0.2086,-0.08 -1.7026,-0.916 -2.2981,-1.455 -4.5249,-6.629 -0.0392,-1.952 0.0874,-0.813 -0.312,-0.522 -1.6474,1.198 -0.68462,0.538 -0.48138,0.715 -0.37083,0.916 -0.37619,0.788 -0.0642,0.09 -1.2462,1.061 -0.49742,0.329 -1.4548,0.145 -0.0963,-0.03 -0.47424,-0.562 -2.6369,-3.432 -0.12836,-0.369 -0.0232,-0.298 0.40115,-1.349 0.93244,-1.148 0.94135,-1.824 0.55269,-2.115 0.16938,-1.053 0.2496,-1.238 0.26386,-0.642 0.21751,-0.224 0.31379,-0.154 1.5992,-2.291 -0.69888,-1.486 -0.82726,-1.117 -0.57943,-0.82 -0.009,-0.09 0.11232,-0.82 0.0963,-0.466 0.13015,-0.258 0.10341,-0.07 0.22642,0.03 0.16046,0.169 0.1355,0.257 0.22642,0.225 0.81834,0.433 1.5921,-0.995 0.70602,-0.531 0.7078,0.1 0.6347,0.16 0.20147,0.09 1.1803,1.865 0.14441,0.562 0.65966,0.103 3.1503,-1.446 1.9843,-1.736 1.4138,-0.811" inkscape:connector-curvature="0" style="stroke:#ffffff">
      <title id="title2080">Lemhi, ID</title>
    </path>
    <path id="c16023" d="m 244.85,143.08 -1.0537,5.937 4.8619,0.884 -1.4459,7.923 -0.36193,1.872 -1.8348,-0.34278 -0.45444,2.0728 -1.9772,-0.364 -0.34588,1.865 -0.49742,1.849 -0.98058,-0.177 -5.8264,-1.06 0.34588,-1.881 -4.4839,-0.844 0.32983,-1.752 0.36192,-0.248 -0.12123,-0.941 -0.6347,-2.042 -0.0802,-0.144 -0.42611,-0.2 -0.33696,0 -0.89322,0.273 0.0571,-0.129 0.70602,-0.747 1.5921,-0.852 2.7563,-0.907 1.7026,-1.721 0.40293,-2.41 0.27991,-2.676 0.12837,-0.642 1.3996,-3.817 1.5582,0.289 5.2719,0.941" inkscape:connector-curvature="0" style="stroke:#ffffff">
      <title id="title2083">Butte, ID</title>
    </path>
    <path id="c16051" d="m 248.66,149.9 0.35479,-1.959 8.7575,1.542 -0.33696,1.96 2.9168,0.515 -0.16045,0.987 -0.60261,2.933 -0.17651,0.997 0.18364,0.169 0.35479,0.03 0.057,-0.03 2.7508,2.6916 2.1253,0.36841 -0.11232,0.652 -14.641,-2.499 -2.9168,-0.427 1.4459,-7.923" inkscape:connector-curvature="0" style="stroke:#ffffff">
      <title id="title2086">Jefferson, ID</title>
    </path>
    <path id="c16065" d="m 260.19,152.95 2.2749,0.387 2.1448,1.389 2.2339,0.371 0.17742,-0.81957 2.4505,0.43457 0.0624,-0.02 0.0642,-0.07 -1.1321,6.846 -3.6959,-0.715 0.11232,-0.652 -2.1253,-0.36841 -2.7508,-2.6916 -0.057,0.03 -0.35479,-0.03 -0.18364,-0.169 0.17651,-0.997 0.60261,-2.932" inkscape:connector-curvature="0" style="stroke:#ffffff">
      <title id="title2089">Madison, ID</title>
    </path>
    <path id="c16081" d="m 275.55,154.17 -1.7116,11.002 -1.2124,-0.917 -1.3586,-1.736 -0.016,-0.232 -0.23178,-0.394 -2.5566,-0.426 1.1321,-6.846 5.9548,-0.451" inkscape:connector-curvature="0" style="stroke:#ffffff">
      <title id="title2092">Teton, ID</title>
    </path>
    </g>
  </svg>
