<svg xmlns:dc="http://purl.org/dc/elements/1.1/" xmlns:cc="http://creativecommons.org/ns#" xmlns:rdf="http://www.w3.org/1999/02/22-rdf-syntax-ns#" xmlns:svg="http://www.w3.org/2000/svg" xmlns="http://www.w3.org/2000/svg" xmlns:sodipodi="http://sodipodi.sourceforge.net/DTD/sodipodi-0.dtd" xmlns:inkscape="http://www.inkscape.org/namespaces/inkscape" width="150.90076" height="75.15499999999997" version="1.0" id="svg2" inkscape:version="0.91 r13725" sodipodi:docname="USA counties.svg">
  <defs id="defs9439"/>
  <sodipodi:namedview pagecolor="#ffffff" bordercolor="#666666" borderopacity="1" objecttolerance="10" gridtolerance="10" guidetolerance="10" inkscape:pageopacity="0" inkscape:pageshadow="2" inkscape:window-width="798" inkscape:window-height="828" id="namedview9437" showgrid="false" showguides="true" inkscape:zoom="0.64950808" inkscape:cx="494.98999" inkscape:cy="313.535" inkscape:window-x="-7" inkscape:window-y="0" inkscape:window-maximized="0" inkscape:current-layer="svg2"/>
  <metadata id="metadata4">
    <rdf:RDF>
      <cc:Work>
        <dc:format>image/svg+xml</dc:format>
        <dc:type rdf:resource="http://purl.org/dc/dcmitype/StillImage"/>
        <dc:title/>
        <cc:license rdf:resource="http://creativecommons.org/publicdomain/zero/1.0/"/>
        <dc:date>2019-10-06</dc:date>
        <dc:creator>
          <cc:Agent>
            <dc:title>U.S. Census Bureau, Abe.suleiman, Lokal_Profil</dc:title>
          </cc:Agent>
        </dc:creator>
        <dc:source>https://commons.wikimedia.org/wiki/File:Usa_counties_large.svg</dc:source>
      </cc:Work>
      <cc:License rdf:about="http://creativecommons.org/publicdomain/zero/1.0/">
        <cc:permits rdf:resource="http://creativecommons.org/ns#Reproduction"/>
        <cc:permits rdf:resource="http://creativecommons.org/ns#Distribution"/>
        <cc:permits rdf:resource="http://creativecommons.org/ns#DerivativeWorks"/>
      </cc:License>
    </rdf:RDF>
  </metadata>
  <style id="style6">
  /*
   * Below are Cascading Style Sheet (CSS) definitions in use in this file,
   * which allow easily changing how counties are displayed.
   *
   *
   * For the U.S. Census county codes (FIPS codes) used in this file to identify individual counties, see this link:
   * https://www2.census.gov/geo/docs/reference/codes/files/national_county.txt
   *
   * The county codes used in this file combine the 2-digit state code, which is in the second column of the file
   * linked above, and the 3-digit county code, which is in the third column of the file linked above. Each value
   * for the "id" attribute for each county is in the following form: "c[state_code][county-code]". For example,
   * for Loving Country in Texas, the state code is "48" and the county code is "301", so the id name for the
   * county is "c48301".
   *
   * County codes used in this file can also be found on Wikimedia Commons at this link:
   * https://commons.wikimedia.org/wiki/File_talk:Usa_counties_large.svg/county_codes
   *
   * Examples:
   *
   * To color two counties red (in this case Loving County and Dallas County in Texas) simply
   * go to the CSS insertion point and add:
   *
   * #c48301, #c48113 {fill:red}
   *
   * To color an entire state's counties (in the case New Mexico, with "35" being the state code) a green,
   * go to the CSS insertion point and add:
   *
   * path[id*='c35'] {fill:#34A853}
   *
   */
  #counties {fill:#d0d0d0;stroke:#000;stroke-width:.17829;} 
  #borders {fill:none;stroke:#221e1f;stroke-width:.89143;} 
  #separator {fill:none;stroke:#a9a9a9;stroke-width:2.3177309;}
 </style>
  <g id="counties" transform="translate(-384.46504000000004,-190.779)" style="fill:#d0d0d0;stroke:#ffffff;stroke-width:0.17828999">
    <path id="c31045" d="m 397.54,191.53 8.4294,0.651 3.4873,0.265 -0.36014,4.948 0.22465,1.344 -0.46712,6.643 -11.321,-0.786 -0.59548,-0.05 0.61866,-8.013 -0.14441,-0.898 -0.0392,-1.771 0.16759,-2.335" inkscape:connector-curvature="0" style="stroke:#ffffff">
      <title id="title5437">Dawes, NE</title>
    </path>
    <path id="c31165" d="m 397.54,191.53 -0.16759,2.335 0.0392,1.771 0.14441,0.898 -0.61866,8.013 0.59548,0.05 -0.61866,7.987 0.71494,0.06 -0.15333,2.002 -11.04,-0.854 1.9451,-23.013 9.1586,0.749" inkscape:connector-curvature="0" style="stroke:#ffffff">
      <title id="title5440">Sioux, NE</title>
    </path>
    <path id="c31147" d="m 523.08,259.89 7.9873,-0.03 4.2985,6.044 -0.55447,0 -7.8428,0.03 -3.8974,0 0.009,-6.042" inkscape:connector-curvature="0" style="stroke:#ffffff">
      <title id="title5443">Richardson, NE</title>
    </path>
    <path id="c31133" d="m 515.18,259.85 6.9193,0.02 0.98058,0.02 -0.009,6.042 -3.9936,0 -3.9277,-0.02 0.0303,-6.051" inkscape:connector-curvature="0" style="stroke:#ffffff">
      <title id="title5446">Pawnee, NE</title>
    </path>
    <path id="c31127" d="m 522.1,253.82 6.2026,-0.02 0.22643,-0.491 0.65075,0.578 -0.37797,0.676 -0.19968,0.185 0.0963,0.408 1.1321,2.846 1.2141,1.182 0.0463,0.119 -0.005,0.04 0,0.03 -0.0178,0.418 0,0.06 -7.9873,0.03 -0.98058,-0.02 0,-6.051" inkscape:connector-curvature="0" style="stroke:#ffffff">
      <title id="title5449">Nemaha, NE</title>
    </path>
    <path id="c31097" d="m 522.1,253.82 0,6.051 -6.9193,-0.02 0.025,-6.037 6.8944,0" inkscape:connector-curvature="0" style="stroke:#ffffff">
      <title id="title5452">Johnson, NE</title>
    </path>
    <path id="c31131" d="m 525.78,247.79 1.5511,4.598 0.97166,1.414 -6.2026,0.02 -6.8944,0 0.0232,-6.049 10.551,0.02" inkscape:connector-curvature="0" style="stroke:#ffffff">
      <title id="title5455">Otoe, NE</title>
    </path>
    <path id="c31025" d="m 517.76,241.73 0.12837,0.199 0.2496,0.227 1.2694,0.724 0.15332,0.02 0.46533,-0.177 0.51347,-0.256 0.26565,-0.209 0.17828,-0.241 0.3851,-0.363 0.16938,-0.111 0.75415,-0.282 0.38688,0 2.3605,0.147 0.13015,0.02 0.3851,0.275 0.76485,3.358 -0.54021,2.732 -10.551,-0.02 0.0321,-5.376 2.426,-0.0355 0.0736,-0.62354" inkscape:connector-curvature="0" style="stroke:#ffffff">
      <title id="title5458">Cass, NE</title>
    </path>
    <path id="c31153" d="m 517.62,238.37 6.9585,-0.02 1.2052,0.724 -0.23356,2.619 -0.3851,-0.275 -0.13015,-0.02 -2.3605,-0.147 -0.38688,0 -0.75415,0.282 -0.16938,0.111 -0.3851,0.363 -0.17828,0.241 -0.26565,0.209 -0.51347,0.256 -0.46533,0.177 -0.15332,-0.02 -1.2694,-0.724 -0.2496,-0.227 -0.12837,-0.199 -0.13549,-3.359" inkscape:connector-curvature="0" style="stroke:#ffffff">
      <title id="title5461">Sarpy, NE</title>
    </path>
    <path id="c31055" d="m 515.18,233.66 2.4354,0.02 6.7107,0 0.25674,4.677 -6.9585,0.02 -0.39048,-2.5659 -2.0538,-2.1501" inkscape:connector-curvature="0" style="stroke:#ffffff">
      <title id="title5464">Douglas, NE</title>
    </path>
    <path id="c31177" d="m 515.66,226.94 5.5198,0.04 2.3962,4.065 0.74702,2.635 -6.7107,0 -0.0336,-0.86666 -1.1396,-0.10066 -0.47422,-1.0987 -0.16046,-0.417 -0.15333,-0.555 0.009,-3.696" inkscape:connector-curvature="0" style="stroke:#ffffff">
      <title id="title5467">Washington, NE</title>
    </path>
    <path id="c31021" d="m 518.62,218.54 2.2589,4.195 0.30487,4.243 -5.5198,-0.04 0.0363,-1.2651 -1.9172,-0.0929 0.0392,-6.34 4.863,0.0545 -0.0653,-0.75346" inkscape:connector-curvature="0" style="stroke:#ffffff">
      <title id="title5470">Burt, NE</title>
    </path>
    <path id="c31173" d="m 510.95,213.16 6.4772,0.07 -0.21038,1.422 1.4067,3.889 0.0653,0.75346 -4.863,-0.0545 0.0214,-1.5632 -4.5837,-0.18977 0.0624,-4.026 1.6242,-0.303" inkscape:connector-curvature="0" style="stroke:#ffffff">
      <title id="title5473">Thurston, NE</title>
    </path>
    <path id="c31043" d="m 512.52,207.48 3.2466,0.829 0.57765,0.04 0.22464,0.09 0.17829,0.248 0.0713,0.265 0.007,0.355 -0.11945,0.319 0.19968,2.646 0.51525,0.965 -6.4772,-0.07 0.17325,-5.6622 1.4028,-0.0208" inkscape:connector-curvature="0" style="stroke:#ffffff">
      <title id="title5476">Dakota, NE</title>
    </path>
    <path id="c31051" d="m 506.16,202.01 3.5212,1.315 1.3728,0.869 0.18541,0.419 0.0963,0.385 -0.0642,0.271 -0.009,0.21 0.0499,0.209 1.2052,1.792 -1.4028,0.0208 -0.17325,5.6622 -1.6242,0.303 -3.3298,0.002 0.0439,-2.0411 0.12837,-9.417" inkscape:connector-curvature="0" style="stroke:#ffffff">
      <title id="title5479">Dixon, NE</title>
    </path>
    <path id="c31179" d="m 500.11,211.33 5.9227,0.09 -0.0439,2.0411 3.3298,-0.002 -0.0624,4.026 -3.3197,-0.04 -5.9298,-0.08 0.10341,-6.033" inkscape:connector-curvature="0" style="stroke:#ffffff">
      <title id="title5482">Wayne, NE</title>
    </path>
    <path id="c31139" d="m 492.09,217.26 0.15333,-8.05 5.9066,0.09 1.9906,-0.0217 -0.0312,2.0547 -0.10341,6.033 -7.9159,-0.103" inkscape:connector-curvature="0" style="stroke:#ffffff">
      <title id="title5485">Pierce, NE</title>
    </path>
    <path id="c31027" d="m 498.3,199.3 1.0448,0.2426 0.81063,-0.34897 0.81062,-0.17405 1.05,0.45096 1.05,0.1303 0.0324,0.828 0.96527,0.68225 2.0952,0.88751 -0.12837,9.417 -5.9227,-0.09 0.0312,-2.0547 -1.9906,0.0217 0.15155,-9.9986" inkscape:connector-curvature="0" style="stroke:#ffffff">
      <title id="title5488">Cedar, NE</title>
    </path>
    <path id="c31107" d="m 484.47,198.79 2.3605,1.07 1.8328,1.582 0.36192,0.16 0.29774,0.05 0.27991,-0.01 0.85221,-0.128 0.22464,-0.14 0.47425,-0.431 0.353,-0.506 0.43219,-0.54489 0.19682,-0.62334 0.79832,-0.12645 0.51065,0.57968 0.56878,0.0513 0.50899,-0.68617 0.51858,0.13525 0.41893,0.67338 0.65847,-0.72603 0.62025,0.081 0.11689,0.48611 0.91491,-0.23824 0.53431,-0.18914 -0.15155,9.9986 -5.9066,-0.09 -7.866,-0.153 0.0963,-7.492 -0.007,-2.78" inkscape:connector-curvature="0" style="stroke:#ffffff">
      <title id="title5491">Knox, NE</title>
    </path>
    <path id="c31053" d="m 513.78,225.58 1.9172,0.0929 -0.0363,1.2651 -0.009,3.696 0.15333,0.555 0.16046,0.417 0.47422,1.0987 1.1396,0.10066 0.0336,0.86666 -2.4354,-0.02 -7.4488,-1.448 0,-0.02 0.057,-6.671 5.994,0.07" inkscape:connector-curvature="0" style="stroke:#ffffff">
      <title id="title5494">Dodge, NE</title>
    </path>
    <path id="c31037" d="m 505.84,225.49 1.9451,0.02 -0.057,6.671 -0.24782,0 -0.23355,0.06 -2.5727,1.245 -1.7989,0.41 -1.1339,0 0.13015,-8.448 3.9687,0.05" inkscape:connector-curvature="0" style="stroke:#ffffff">
      <title id="title5497">Colfax, NE</title>
    </path>
    <path id="c31039" d="m 505.94,217.45 3.3197,0.04 4.5837,0.18977 -0.0214,1.5632 -0.0392,6.34 -5.994,-0.07 -1.9451,-0.02 0.0963,-8.042" inkscape:connector-curvature="0" style="stroke:#ffffff">
      <title id="title5500">Cuming, NE</title>
    </path>
    <path id="c31167" d="m 505.94,217.45 -0.0963,8.042 -3.9687,-0.05 -1.9772,-0.03 0.11232,-8.046 5.9298,0.08" inkscape:connector-curvature="0" style="stroke:#ffffff">
      <title id="title5503">Stanton, NE</title>
    </path>
    <path id="c31119" d="m 492.09,217.26 7.9159,0.103 -0.11232,8.046 -7.8981,-0.114 0.0392,-4.028 0.0553,-4.007" inkscape:connector-curvature="0" style="stroke:#ffffff">
      <title id="title5506">Madison, NE</title>
    </path>
    <path id="c31003" d="m 492.09,217.26 -0.0553,4.007 -7.8749,-0.135 0.0161,-4.024 0.20146,-8.051 7.866,0.153 -0.15333,8.05" inkscape:connector-curvature="0" style="stroke:#ffffff">
      <title id="title5509">Antelope, NE</title>
    </path>
    <path id="c31011" d="m 484.16,221.14 7.8749,0.135 -0.0392,4.028 -0.082,4.997 -0.9467,0 -2.8776,0.637 -0.81121,0.328 -3.2876,-0.07 0.0731,-6.034 0.0963,-4.011" inkscape:connector-curvature="0" style="stroke:#ffffff">
      <title id="title5512">Boone, NE</title>
    </path>
    <path id="c31141" d="m 499.9,225.41 1.9772,0.03 -0.13015,8.448 -1.9594,-0.419 -3.9794,1.374 0.0941,-1.3823 -1.877,-0.0887 0.0867,-3.0178 -2.1923,-0.0612 0.082,-4.997 7.8981,0.114" inkscape:connector-curvature="0" style="stroke:#ffffff">
      <title id="title5515">Platte, NE</title>
    </path>
    <path id="c31155" d="m 507.73,232.21 7.4488,1.448 2.0538,2.1501 0.39048,2.5659 0.13549,3.359 -0.0736,0.62354 -2.426,0.0355 0.009,-0.668 -7.6752,-0.08 0.13728,-9.433" inkscape:connector-curvature="0" style="stroke:#ffffff">
      <title id="title5518">Saunders, NE</title>
    </path>
    <path id="c31159" d="m 507.55,241.64 -0.11946,8.063 -7.8838,-0.107 0.11232,-8.066 7.891,0.11" inkscape:connector-curvature="0" style="stroke:#ffffff">
      <title id="title5521">Seward, NE</title>
    </path>
    <path id="c31023" d="m 499.66,241.53 0.12124,-8.06 1.9594,0.419 1.1339,0 1.7989,-0.41 2.5727,-1.245 0.23355,-0.06 0.24782,0 0,0.02 -0.13728,9.433 -0.0392,0 -7.891,-0.11" inkscape:connector-curvature="0" style="stroke:#ffffff">
      <title id="title5524">Butler, NE</title>
    </path>
    <path id="c31143" d="m 495.81,234.85 3.9794,-1.374 -0.12124,8.06 -7.8981,-0.128 0.0232,-2.944 2.6552,-3.0697 1.3616,-0.54428" inkscape:connector-curvature="0" style="stroke:#ffffff">
      <title id="title5527">Polk, NE</title>
    </path>
    <path id="c31185" d="m 499.66,241.53 -0.11232,8.066 -7.907,-0.145 -0.025,0 0.14619,-8.049 7.8981,0.128" inkscape:connector-curvature="0" style="stroke:#ffffff">
      <title id="title5530">York, NE</title>
    </path>
    <path id="c31081" d="m 491.77,241.4 -0.14619,8.049 -7.8339,-0.16 -0.0802,0 0.0963,-4.026 0.85221,-1.004 1.815,-1.809 2.1466,-1.714 0.65075,-0.452 0.0963,0.149 0.025,0 0.37619,-0.135 0.89322,-0.426 0.21572,-0.17 0.27456,-0.31 0.49743,-0.668 0.14441,-0.268 -0.0232,2.944" inkscape:connector-curvature="0" style="stroke:#ffffff">
      <title id="title5533">Hamilton, NE</title>
    </path>
    <path id="c31125" d="m 483.99,231.18 3.2876,0.07 0.81121,-0.328 2.8776,-0.637 0.9467,0 2.1923,0.0612 -0.0867,3.0178 -0.0642,1.985 -2.4514,-0.02 -2.619,0.272 -1.519,0.321 -0.73989,0.309 -2.127,-0.04 -0.35479,0 0.0963,-2.997 -0.21751,-0.01 -0.0874,0 0.0553,-2.007" inkscape:connector-curvature="0" style="stroke:#ffffff">
      <title id="title5536">Nance, NE</title>
    </path>
    <path id="c31121" d="m 484.03,233.19 0.21751,0.01 -0.0963,2.997 0.35479,0 2.127,0.04 0.73989,-0.309 1.519,-0.321 2.619,-0.272 2.4514,0.02 0.0642,-1.985 1.877,0.0887 -0.0941,1.3823 -1.3616,0.54428 -2.6552,3.0697 -0.14441,0.267 -0.49743,0.669 -0.27456,0.31 -0.21572,0.17 -0.89322,0.426 -0.37619,0.135 -0.025,0 -0.0963,-0.15 -0.65075,0.453 -2.1466,1.714 -1.815,1.809 -0.85221,1.004 0.025,-4.033 0.19968,-8.046" inkscape:connector-curvature="0" style="stroke:#ffffff">
      <title id="title5539">Merrick, NE</title>
    </path>
    <path id="c31079" d="m 476.33,241.03 7.497,0.201 -0.025,4.033 -0.0963,4.026 -7.6004,-0.216 0.22464,-8.044" inkscape:connector-curvature="0" style="stroke:#ffffff">
      <title id="title5542">Hall, NE</title>
    </path>
    <path id="c31093" d="m 476.18,232.97 7.7626,0.216 0.0874,0 -0.19968,8.046 -7.497,-0.201 -0.45819,-0.02 0.30487,-8.045" inkscape:connector-curvature="0" style="stroke:#ffffff">
      <title id="title5545">Howard, NE</title>
    </path>
    <path id="c31163" d="m 476.05,232.97 0.12837,0 -0.30487,8.045 -7.916,-0.259 0.34588,-8.026 7.7466,0.24" inkscape:connector-curvature="0" style="stroke:#ffffff">
      <title id="title5548">Sherman, NE</title>
    </path>
    <path id="c31015" d="m 468.7,195.63 12.671,0.371 3.104,2.784 0.007,2.78 -2.6511,-0.185 -1.8096,-0.337 -2.7474,-0.931 -1.5101,-0.522 -1.7044,-0.979 -0.41006,-0.419 -0.20146,-0.07 -0.26387,0 -0.19255,0.05 -2.9007,1.205 -1.4548,0.622 -0.12837,0.104 0.19255,-4.466" inkscape:connector-curvature="0" style="stroke:#ffffff">
      <title id="title5551">Boyd, NE</title>
    </path>
    <path id="c31089" d="m 468.5,200.1 0.12837,-0.104 1.4548,-0.622 2.9007,-1.205 0.19255,-0.05 0.26387,0 0.20146,0.07 0.41006,0.419 1.7044,0.978 1.5101,0.523 2.7474,0.931 1.8096,0.336 2.6511,0.186 -0.0963,7.492 -0.20146,8.051 -7.8268,-0.203 -7.8428,-0.234 -0.19969,0 0.25674,-7.367 0.0713,-7.939 -0.1355,-1.262" inkscape:connector-curvature="0" style="stroke:#ffffff">
      <title id="title5554">Holt, NE</title>
    </path>
    <path id="c31175" d="m 468.42,224.71 7.7288,0.25 0.12123,0 -0.22464,8.01 -7.7466,-0.24 0.12123,-8.02" inkscape:connector-curvature="0" style="stroke:#ffffff">
      <title id="title5557">Valley, NE</title>
    </path>
    <path id="c31077" d="m 484.07,225.15 -0.0731,6.034 -0.0553,2.007 -7.7626,-0.216 -0.12837,0 0.22464,-8.01 7.7947,0.185" inkscape:connector-curvature="0" style="stroke:#ffffff">
      <title id="title5560">Greeley, NE</title>
    </path>
    <path id="c31183" d="m 484.18,217.11 -0.0161,4.024 -0.0963,4.011 -7.7947,-0.185 -0.12123,0 0.20146,-8.053 7.8268,0.203" inkscape:connector-curvature="0" style="stroke:#ffffff">
      <title id="title5563">Wheeler, NE</title>
    </path>
    <path id="c31071" d="m 468.25,224.7 0.25674,-8.028 7.8428,0.234 -0.20146,8.053 -7.7288,-0.25 -0.16937,0" inkscape:connector-curvature="0" style="stroke:#ffffff">
      <title id="title5566">Garfield, NE</title>
    </path>
    <path id="c31115" d="m 468.31,216.67 0.19969,0 -0.25674,8.028 -7.9302,-0.279 0.30487,-7.995 0.41719,0.02 7.2652,0.217" inkscape:connector-curvature="0" style="stroke:#ffffff">
      <title id="title5569">Loup, NE</title>
    </path>
    <path id="c31149" d="m 468.31,216.67 -7.2652,-0.217 0.28882,-8.059 -0.20859,0 0.24247,-6.853 1.2676,0.271 0.93244,0.105 0.33874,-0.05 0.5937,-0.219 3.6888,-1.339 0.14441,-0.07 0.16937,-0.144 0.1355,1.262 -0.0713,7.939 -0.25674,7.367" inkscape:connector-curvature="0" style="stroke:#ffffff">
      <title id="title5572">Rock, NE</title>
    </path>
    <path id="c31103" d="m 452.88,195 11.129,0.467 4.6854,0.168 -0.19255,4.466 -0.16937,0.144 -0.14441,0.07 -3.6888,1.339 -0.5937,0.219 -0.33874,0.05 -0.93244,-0.105 -1.2676,-0.271 -0.1462,0.06 -0.312,0 -1.2391,-0.218 -4.6194,-1.349 -0.96453,-0.392 -0.32092,-0.186 -1.0465,-0.932 0.16224,-3.518" inkscape:connector-curvature="0" style="stroke:#ffffff">
      <title id="title5575">Keya Paha, NE</title>
    </path>
    <path id="c31017" d="m 461.37,201.54 -0.24247,6.853 0.20859,0 -0.28882,8.059 -0.41719,-0.02 -8.1566,-0.331 0.35301,-8.027 -0.10519,-9.554 1.0465,0.932 0.32092,0.186 0.96453,0.392 4.6194,1.349 1.2391,0.218 0.312,0 0.1462,-0.06" inkscape:connector-curvature="0" style="stroke:#ffffff">
      <title id="title5578">Brown, NE</title>
    </path>
    <path id="c31009" d="m 450.78,216.02 1.6955,0.08 8.1566,0.331 -0.30487,7.995 -9.6275,-0.387 -0.24782,-0.02 0.32805,-8.004" inkscape:connector-curvature="0" style="stroke:#ffffff">
      <title id="title5581">Blaine, NE</title>
    </path>
    <path id="c31041" d="m 460.32,224.42 7.9302,0.279 0.16937,0 -0.12123,8.02 -0.34588,8.026 -3.7601,-0.117 -13.757,-0.557 -0.24247,0 0.13728,-2.685 0.15332,-2.312 0.0963,-2.926 -0.2496,-0.105 0.36192,-8.012 9.6275,0.387" inkscape:connector-curvature="0" style="stroke:#ffffff">
      <title id="title5584">Custer, NE</title>
    </path>
    <path id="c31019" d="m 464.2,240.64 3.7601,0.117 7.916,0.259 0.45819,0.02 -0.22464,8.044 -0.057,0.216 -0.54734,0.06 -1.2534,0.25 -0.66501,0.313 -0.7078,0.136 -2.1145,-0.07 -2.4657,-0.209 -0.1462,-0.06 -4.1131,-0.378 0.16046,-8.702" inkscape:connector-curvature="0" style="stroke:#ffffff">
      <title id="title5587">Buffalo, NE</title>
    </path>
    <path id="c31047" d="m 450.44,240.08 13.757,0.557 -0.16046,8.702 -3.9063,-0.475 -5.8425,-0.579 -4.1862,-0.193 0.33875,-8.012" inkscape:connector-curvature="0" style="stroke:#ffffff">
      <title id="title5590">Dawson, NE</title>
    </path>
    <path id="c31137" d="m 460.13,248.87 3.9063,0.475 4.1131,0.378 -0.24068,7.174 -7.8589,-0.289 -0.20146,0 0.28169,-7.729" inkscape:connector-curvature="0" style="stroke:#ffffff">
      <title id="title5593">Phelps, NE</title>
    </path>
    <path id="c31099" d="m 476.05,249.29 -0.2086,7.859 -0.0571,0 -7.8749,-0.25 0.24068,-7.174 0.1462,0.06 2.4657,0.209 2.1145,0.07 0.7078,-0.136 0.66501,-0.313 1.2534,-0.25 0.54734,-0.06" inkscape:connector-curvature="0" style="stroke:#ffffff">
      <title id="title5596">Kearney, NE</title>
    </path>
    <path id="c31001" d="m 476.05,249.29 0.057,-0.216 7.6004,0.216 0.0802,0 -0.19255,8.062 -7.7537,-0.203 0.2086,-7.859" inkscape:connector-curvature="0" style="stroke:#ffffff">
      <title id="title5599">Adams, NE</title>
    </path>
    <path id="c31035" d="m 491.62,249.45 0.025,0 -0.14442,8.07 -7.8268,-0.168 -0.0802,0 0.19255,-8.062 7.8339,0.16" inkscape:connector-curvature="0" style="stroke:#ffffff">
      <title id="title5602">Clay, NE</title>
    </path>
    <path id="c31059" d="m 499.55,249.6 -0.11945,8.06 -7.8767,-0.135 -0.0553,0 0.14442,-8.07 7.907,0.145" inkscape:connector-curvature="0" style="stroke:#ffffff">
      <title id="title5605">Fillmore, NE</title>
    </path>
    <path id="c31151" d="m 499.55,249.6 7.8838,0.107 -0.0321,4.04 -0.0963,4.025 -7.8749,-0.112 0.11945,-8.06" inkscape:connector-curvature="0" style="stroke:#ffffff">
      <title id="title5608">Saline, NE</title>
    </path>
    <path id="c31109" d="m 507.59,241.64 7.6752,0.08 -0.009,0.668 -0.0321,5.376 -0.0232,6.049 -7.8018,-0.07 0.0321,-4.04 0.11946,-8.062 0.0392,0" inkscape:connector-curvature="0" style="stroke:#ffffff">
      <title id="title5611">Lancaster, NE</title>
    </path>
    <path id="c31067" d="m 515.2,253.82 -0.025,6.037 -0.0303,6.051 -5.9797,-0.05 -1.9362,-0.02 0.0731,-8.061 0.0963,-4.025 7.8018,0.07" inkscape:connector-curvature="0" style="stroke:#ffffff">
      <title id="title5614">Gage, NE</title>
    </path>
    <path id="c31095" d="m 499.43,257.66 7.8749,0.112 -0.0731,8.061 -7.932,-0.105 0.13015,-8.068" inkscape:connector-curvature="0" style="stroke:#ffffff">
      <title id="title5617">Jefferson, NE</title>
    </path>
    <path id="c31169" d="m 499.43,257.66 -0.13015,8.068 -7.9142,-0.127 0.16759,-8.076 7.8767,0.135" inkscape:connector-curvature="0" style="stroke:#ffffff">
      <title id="title5620">Thayer, NE</title>
    </path>
    <path id="c31129" d="m 491.5,257.52 0.0553,0 -0.16759,8.076 -1.9291,-0.04 -5.9869,-0.144 0.20146,-8.057 7.8268,0.168" inkscape:connector-curvature="0" style="stroke:#ffffff">
      <title id="title5623">Nuckolls, NE</title>
    </path>
    <path id="c31181" d="m 475.84,257.15 7.7537,0.203 0.0802,0 -0.20146,8.057 -4.0328,-0.09 -3.8813,-0.105 0.22464,-8.067 0.0571,0" inkscape:connector-curvature="0" style="stroke:#ffffff">
      <title id="title5626">Webster, NE</title>
    </path>
    <path id="c31061" d="m 475.78,257.14 -0.22464,8.067 -5.9548,-0.185 -1.9594,-0.06 0.26387,-8.076 7.8749,0.25" inkscape:connector-curvature="0" style="stroke:#ffffff">
      <title id="title5629">Franklin, NE</title>
    </path>
    <path id="c31083" d="m 460.05,256.61 7.8589,0.289 -0.26387,8.076 -7.8197,-0.281 -0.041,0 0.26564,-8.084" inkscape:connector-curvature="0" style="stroke:#ffffff">
      <title id="title5632">Harlan, NE</title>
    </path>
    <path id="c31073" d="m 460.13,248.87 -0.28169,7.729 -7.8749,-0.322 0.082,-2.022 1.9843,0.09 0.24782,-6.058 5.8425,0.579" inkscape:connector-curvature="0" style="stroke:#ffffff">
      <title id="title5635">Gosper, NE</title>
    </path>
    <path id="c31065" d="m 450.18,256.22 1.79,0.05 7.8749,0.322 0.20146,0 -0.26564,8.084 -9.6097,-0.385 -0.27278,-0.02 0.28169,-8.066" inkscape:connector-curvature="0" style="stroke:#ffffff">
      <title id="title5638">Furnas, NE</title>
    </path>
    <path id="c31145" d="m 440.43,255.77 9.7559,0.451 -0.28169,8.066 -9.5294,-0.457 -0.34766,-0.03 0.40293,-8.035" inkscape:connector-curvature="0" style="stroke:#ffffff">
      <title id="title5641">Red Willow, NE</title>
    </path>
    <path id="c31087" d="m 430.61,255.23 9.4991,0.531 0.32092,0 -0.40293,8.035 -9.8824,-0.529 0.46533,-8.044" inkscape:connector-curvature="0" style="stroke:#ffffff">
      <title id="title5644">Hitchcock, NE</title>
    </path>
    <path id="c31057" d="m 430.27,255.22 0.33696,0.01 -0.46533,8.044 -1.519,-0.08 -11.186,-0.694 0.50634,-8.001 12.327,0.716" inkscape:connector-curvature="0" style="stroke:#ffffff">
      <title id="title5647">Dundy, NE</title>
    </path>
    <path id="c31063" d="m 440.5,247.64 9.6025,0.452 4.1862,0.193 -0.24782,6.058 -1.9843,-0.09 -0.082,2.022 -1.79,-0.05 -9.7559,-0.451 -0.32092,0 0.39223,-8.119" inkscape:connector-curvature="0" style="stroke:#ffffff">
      <title id="title5650">Frontier, NE</title>
    </path>
    <path id="c31085" d="m 440.5,247.64 -0.39223,8.119 -9.4991,-0.531 -0.33696,-0.01 0.41006,-8.046 1.6866,0.1 8.1317,0.375" inkscape:connector-curvature="0" style="stroke:#ffffff">
      <title id="title5653">Hayes, NE</title>
    </path>
    <path id="c31029" d="m 418.46,246.45 12.214,0.722 -0.41006,8.046 -12.327,-0.716 0.52238,-8.052" inkscape:connector-curvature="0" style="stroke:#ffffff">
      <title id="title5656">Chase, NE</title>
    </path>
    <path id="c31135" d="m 418.91,239.4 0.007,-0.03 13.807,0.82 -0.35479,7.08 -1.6866,-0.1 -12.214,-0.722 0.0802,-1.207 0.36192,-5.842" inkscape:connector-curvature="0" style="stroke:#ffffff">
      <title id="title5659">Perkins, NE</title>
    </path>
    <path id="c31111" d="m 442.41,231.66 7.9231,0.385 0.2496,0.105 -0.0963,2.926 -0.15332,2.312 -0.13728,2.685 0.24247,0 -0.33875,8.012 -9.6025,-0.452 -8.1317,-0.375 0.35479,-7.08 0.16046,-9.055 9.5294,0.53" inkscape:connector-curvature="0" style="stroke:#ffffff">
      <title id="title5662">Lincoln, NE</title>
    </path>
    <path id="c31101" d="m 420.63,230.41 9.8914,0.581 2.3552,0.144 -0.16046,9.055 -13.807,-0.82 0.2496,-5.029 0.2075,-4.0395 1.2634,0.10853" inkscape:connector-curvature="0" style="stroke:#ffffff">
      <title id="title5665">Keith, NE</title>
    </path>
    <path id="c31113" d="m 442.84,223.67 7.6111,0.353 0.24782,0.02 -0.36192,8.012 -7.9231,-0.385 0.42611,-7.996" inkscape:connector-curvature="0" style="stroke:#ffffff">
      <title id="title5668">Logan, NE</title>
    </path>
    <path id="c31117" d="m 430.99,222.95 4.3787,0.265 3.0041,0.209 2.2357,0.112 2.225,0.129 -0.42611,7.996 -9.5294,-0.53 -2.3552,-0.144 0.46711,-8.037" inkscape:connector-curvature="0" style="stroke:#ffffff">
      <title id="title5671">McPherson, NE</title>
    </path>
    <path id="c31005" d="m 421.12,222.38 9.5384,0.553 0.32983,0.02 -0.46711,8.037 -9.8914,-0.581 0.49029,-8.025" inkscape:connector-curvature="0" style="stroke:#ffffff">
      <title id="title5674">Arthur, NE</title>
    </path>
    <path id="c31171" d="m 440.96,215.49 9.82,0.522 -0.32805,8.004 -7.6111,-0.353 -2.225,-0.129 0.34409,-8.044" inkscape:connector-curvature="0" style="stroke:#ffffff">
      <title id="title5677">Thomas, NE</title>
    </path>
    <path id="c31091" d="m 431.11,214.88 9.8432,0.617 -0.34409,8.044 -2.2357,-0.112 -3.0041,-0.209 -4.3787,-0.265 -0.32983,-0.02 0.44929,-8.059" inkscape:connector-curvature="0" style="stroke:#ffffff">
      <title id="title5680">Hooker, NE</title>
    </path>
    <path id="c31075" d="m 420.14,216.13 0.99756,0.0773 0.15774,-2.0223 9.82,0.692 -0.44929,8.059 -9.5384,-0.553 -1.4067,-0.08 0.41898,-6.171" inkscape:connector-curvature="0" style="stroke:#ffffff">
      <title id="title5683">Grant, NE</title>
    </path>
    <path id="c31049" d="m 409.64,233.7 9.5223,0.644 -0.2496,5.029 -0.007,0.03 -9.8022,-0.656 0.53664,-5.048" inkscape:connector-curvature="0" style="stroke:#ffffff">
      <title id="title5686">Deuel, NE</title>
    </path>
    <path id="c31069" d="m 420.14,216.13 -0.41898,6.171 1.4067,0.08 -0.49029,8.025 -1.2634,-0.10853 -0.2075,4.0395 -9.5223,-0.644 0.32864,-3.6436 -0.51641,-0.0367 0.0844,-1.3737 0.39223,-5.721 -0.37797,-1.336 -0.11054,-0.672 -0.025,-0.412 0.0571,-1.228 0.28883,-3.744 10.375,0.602" inkscape:connector-curvature="0" style="stroke:#ffffff">
      <title id="title5689">Garden, NE</title>
    </path>
    <path id="c31033" d="m 409.54,228.64 -0.0844,1.3737 0.51641,0.0367 -0.32864,3.6436 -0.53664,5.048 -0.55626,-0.03 -12.551,-0.918 0.79516,-9.055 0.16755,0.0217 0.0589,-1.0107 12.519,0.893" inkscape:connector-curvature="0" style="stroke:#ffffff">
      <title id="title5692">Cheyenne, NE</title>
    </path>
    <path id="c31123" d="m 409.42,215.51 0.34588,0.02 -0.28883,3.744 -0.0571,1.228 0.025,0.412 0.11054,0.672 0.37797,1.336 -0.39223,5.721 -12.519,-0.893 0.44037,-6.032 0.66858,-6.999 11.289,0.793" inkscape:connector-curvature="0" style="stroke:#ffffff">
      <title id="title5695">Morrill, NE</title>
    </path>
    <path id="c31105" d="m 396.79,228.74 -0.79516,9.055 -3.3019,-0.255 -8.2279,-0.674 0.77911,-9.033 11.546,0.907" inkscape:connector-curvature="0" style="stroke:#ffffff">
      <title id="title5698">Kimball, NE</title>
    </path>
    <path id="c31007" d="m 397.46,221.72 -0.44037,6.032 -0.0589,1.0107 -0.16755,-0.0217 -11.546,-0.907 0.58657,-7.03 11.626,0.916" inkscape:connector-curvature="0" style="stroke:#ffffff">
      <title id="title5701">Banner, NE</title>
    </path>
    <path id="c31157" d="m 397.47,214.65 0.65253,0.06 -0.66858,6.999 -11.626,-0.916 0.60261,-7.002 11.04,0.854" inkscape:connector-curvature="0" style="stroke:#ffffff">
      <title id="title5704">Scotts Bluff, NE</title>
    </path>
    <path id="c31013" d="m 409.42,215.51 -11.289,-0.793 -0.65253,-0.06 0.15333,-2.002 -0.71494,-0.06 0.61866,-7.987 11.321,0.786 0.40293,0.02 -0.50944,8.2476 0.79532,0.1174 -0.12542,1.735" inkscape:connector-curvature="0" style="stroke:#ffffff">
      <title id="title5707">Box Butte, NE</title>
    </path>
    <path id="c31031" d="m 421.33,193.27 3.4623,0.226 4.179,0.321 6.6608,0.346 5.3771,0.282 6.0742,0.281 3.2626,0.154 1.1981,0.06 1.3336,0.07 -0.16224,3.518 0.10519,9.554 -0.35301,8.027 -1.6955,-0.08 -9.82,-0.522 -9.8432,-0.617 -9.82,-0.692 -0.57765,-0.05 0.61449,-9.3401 -0.29654,-0.0317 0.24365,-7.2 -0.14913,-0.004 0.20621,-4.2945" inkscape:connector-curvature="0" style="stroke:#ffffff">
      <title id="title5710">Cherry, NE</title>
    </path>
    <path id="c31161" d="m 421.33,193.27 -0.20621,4.2945 0.14913,0.004 -0.24365,7.2 0.29654,0.0317 -0.61449,9.3401 0.57765,0.05 -0.15774,2.0223 -0.99756,-0.0773 -10.375,-0.602 -0.34588,-0.02 0.12542,-1.735 -0.79532,-0.1184 0.50944,-8.2466 -0.40293,-0.02 0.46712,-6.643 -0.22465,-1.344 0.36014,-4.948 11.877,0.817" inkscape:connector-curvature="0" style="stroke:#ffffff">
      <title id="title5713">Sheridan, NE</title>
    </path>
    </g>
  </svg>
