<svg xmlns:dc="http://purl.org/dc/elements/1.1/" xmlns:cc="http://creativecommons.org/ns#" xmlns:rdf="http://www.w3.org/1999/02/22-rdf-syntax-ns#" xmlns:svg="http://www.w3.org/2000/svg" xmlns="http://www.w3.org/2000/svg" xmlns:sodipodi="http://sodipodi.sourceforge.net/DTD/sodipodi-0.dtd" xmlns:inkscape="http://www.inkscape.org/namespaces/inkscape" width="146.68986000000004" height="123.27965000000003" version="1.0" id="svg2" inkscape:version="0.91 r13725" sodipodi:docname="USA counties.svg">
  <defs id="defs9439"/>
  <sodipodi:namedview pagecolor="#ffffff" bordercolor="#666666" borderopacity="1" objecttolerance="10" gridtolerance="10" guidetolerance="10" inkscape:pageopacity="0" inkscape:pageshadow="2" inkscape:window-width="798" inkscape:window-height="828" id="namedview9437" showgrid="false" showguides="true" inkscape:zoom="0.64950808" inkscape:cx="494.98999" inkscape:cy="313.535" inkscape:window-x="-7" inkscape:window-y="0" inkscape:window-maximized="0" inkscape:current-layer="svg2"/>
  <metadata id="metadata4">
    <rdf:RDF>
      <cc:Work>
        <dc:format>image/svg+xml</dc:format>
        <dc:type rdf:resource="http://purl.org/dc/dcmitype/StillImage"/>
        <dc:title/>
        <cc:license rdf:resource="http://creativecommons.org/publicdomain/zero/1.0/"/>
        <dc:date>2019-10-06</dc:date>
        <dc:creator>
          <cc:Agent>
            <dc:title>U.S. Census Bureau, Abe.suleiman, Lokal_Profil</dc:title>
          </cc:Agent>
        </dc:creator>
        <dc:source>https://commons.wikimedia.org/wiki/File:Usa_counties_large.svg</dc:source>
      </cc:Work>
      <cc:License rdf:about="http://creativecommons.org/publicdomain/zero/1.0/">
        <cc:permits rdf:resource="http://creativecommons.org/ns#Reproduction"/>
        <cc:permits rdf:resource="http://creativecommons.org/ns#Distribution"/>
        <cc:permits rdf:resource="http://creativecommons.org/ns#DerivativeWorks"/>
      </cc:License>
    </rdf:RDF>
  </metadata>
  <style id="style6">
  /*
   * Below are Cascading Style Sheet (CSS) definitions in use in this file,
   * which allow easily changing how counties are displayed.
   *
   *
   * For the U.S. Census county codes (FIPS codes) used in this file to identify individual counties, see this link:
   * https://www2.census.gov/geo/docs/reference/codes/files/national_county.txt
   *
   * The county codes used in this file combine the 2-digit state code, which is in the second column of the file
   * linked above, and the 3-digit county code, which is in the third column of the file linked above. Each value
   * for the "id" attribute for each county is in the following form: "c[state_code][county-code]". For example,
   * for Loving Country in Texas, the state code is "48" and the county code is "301", so the id name for the
   * county is "c48301".
   *
   * County codes used in this file can also be found on Wikimedia Commons at this link:
   * https://commons.wikimedia.org/wiki/File_talk:Usa_counties_large.svg/county_codes
   *
   * Examples:
   *
   * To color two counties red (in this case Loving County and Dallas County in Texas) simply
   * go to the CSS insertion point and add:
   *
   * #c48301, #c48113 {fill:red}
   *
   * To color an entire state's counties (in the case New Mexico, with "35" being the state code) a green,
   * go to the CSS insertion point and add:
   *
   * path[id*='c35'] {fill:#34A853}
   *
   */
  #counties {fill:#d0d0d0;stroke:#000;stroke-width:.17829;} 
  #borders {fill:none;stroke:#221e1f;stroke-width:.89143;} 
  #separator {fill:none;stroke:#a9a9a9;stroke-width:2.3177309;}
 </style>
  <g id="counties" transform="translate(-48.94102000000001,-56.92234999999999)" style="fill:#d0d0d0;stroke:#ffffff;stroke-width:0.17828999">
    <path id="c41007" d="m 91.29,61.438 -2.348,8.083 -1.9433,-0.474 -3.5764,-1.012 -0.04814,-0.02 0.01605,-0.233 -3.8082,-1.15 1.2868,-2.8678 -0.44751,-0.98469 1.3055,-0.51007 0.31533,-1.1099 0.0145,-0.69856 0.06418,-0.836 0.13168,-0.44567 -0.21482,-2.028 0.27114,-0.22896 0.40411,0.11186 0.52521,1.0555 0.56136,0.55025 0.74443,-0.44338 1.0756,-0.01229 0.53393,0.8014 1.9298,0.21972 0.32925,-0.59339 0.71493,-0.256 0.08023,-0.234 1.0358,0.06 0.08914,0.06 0.04814,0.03 0.06418,0.105 0.23356,0.417 0.16759,0.538 -0.35122,1.029 0.67392,1.052 0.12124,0.04" inkscape:connector-curvature="0" style="stroke:#ffffff">
      <title id="title6640">Clatsop, OR</title>
    </path>
    <path id="c41009" d="m 93.772,61.541 0.82012,-0.151 0.75594,0.314 2.5941,3.18 0.15333,0.605 0.44928,2.505 -0.14441,2.185 -0.11945,0.378 -0.41897,2.805 -2.619,-0.619 -1.2141,-1.719 -5.0865,-1.503 2.348,-8.083 2.4818,0.103" inkscape:connector-curvature="0" style="stroke:#ffffff">
      <title id="title6643">Columbia, OR</title>
    </path>
    <path id="c41015" d="m 62.104,133.42 1.5012,0.585 -0.07131,0.03 -0.29774,0.225 -2.4978,2.539 -0.0089,0.112 0.09627,0.249 0,0.09 -0.07131,0.119 -1.519,1.865 -0.32983,0.2 -0.62579,-0.04 -0.87717,-0.329 -0.0731,-0.06 -0.35556,-0.10626 -0.45796,1.8189 -0.9495,0.59009 0.09502,0.79489 1.4041,0.23034 0.68284,0.41 0.62579,0.915 0.16046,1.92 -0.08736,0.588 -0.41006,0.642 -0.3851,0.547 -1.1161,2.354 0.02318,0.627 0.09627,0.61 -6.3328,-1.993 -0.6347,-1.334 -0.74702,-2.266 0.16937,-4.91 0.57052,-1.895 0.47424,-1.269 0.11945,-0.275 0.93438,-0.87728 0.47627,-2.3225 -1.1781,-2.4616 0.02422,-0.58966 0.0089,-2.105 1.9612,-2.163 3.5586,1.102 0.04814,0.103 0.72384,1.89 -0.08023,1.286 -0.14441,0.217 -0.1765,0.619 -0.26565,1.116 -0.12124,1.631 0.06418,0.122 2.3231,0.24 1.2444,-0.659 0.25138,-0.184 0.25673,-0.779 1.3175,0.06 0.60261,0.178" inkscape:connector-curvature="0" style="stroke:#ffffff">
      <title id="title6646">Curry, OR</title>
    </path>
    <path id="c41011" d="m 62.104,133.42 -0.60261,-0.178 -1.3175,-0.06 -0.25673,0.779 -0.25138,0.183 -1.2444,0.66 -2.3231,-0.241 -0.06418,-0.121 0.12124,-1.631 0.26565,-1.116 0.1765,-0.619 0.14441,-0.217 0.08023,-1.286 -0.72384,-1.89 -0.04814,-0.103 -3.5586,-1.102 3.8562,-5.9146 -0.31837,-1.4597 1.5766,-0.45304 3.2805,-4.3221 0.20204,-1.0365 3.0541,0.941 2.3944,0.771 -0.60114,1.9873 0.90245,0.22221 -0.56845,1.9219 0.86976,0.28758 -1.1422,3.7732 0.9497,0.37379 -1.1,3.785 -1.0578,-0.30209 -0.68759,1.9995 -0.77021,-0.25343 -1.1339,3.801 -0.10341,0.813" inkscape:connector-curvature="0" style="stroke:#ffffff">
      <title id="title6649">Coos, OR</title>
    </path>
    <path id="c41033" d="m 70.919,138.14 -4.5802,15.493 -4.7086,-1.317 -4.9742,-1.375 -0.09627,-0.61 -0.02318,-0.627 1.1161,-2.354 0.3851,-0.547 0.41006,-0.642 0.08736,-0.588 -0.16046,-1.92 -0.62579,-0.915 -0.68284,-0.41 -1.4041,-0.23084 -0.09502,-0.79502 0.9495,-0.59021 0.45796,-1.8191 0.35556,0.10614 0.0731,0.06 0.87717,0.33 0.62579,0.04 0.32983,-0.199 1.519,-1.865 0.07131,-0.12 0,-0.09 -0.09627,-0.249 0.0089,-0.113 2.4978,-2.538 0.29774,-0.225 0.07131,-0.03 -0.271,0.981 2.5941,1.486 0.73098,0.403 0.59548,0.264 0.90035,-0.09 0.1355,-0.216 0.62579,0 1.4869,0.45 0.34588,0.273 0.16937,0.586" inkscape:connector-curvature="0" style="stroke:#ffffff">
      <title id="title6652">Josephine, OR</title>
    </path>
    <path id="c41029" d="m 88.115,136.04 -3.1824,11.031 -0.44215,1.351 -2.7474,9.571 -0.9164,-0.282 -0.52238,-0.169 -2.0164,-0.546 -2.209,-0.547 -5.5697,-1.574 -0.42611,-0.122 -0.72206,-0.215 -1.7526,-0.637 -1.2284,-0.255 -0.04101,0 4.5802,-15.493 0.04814,-0.168 1.5671,-0.65 0.6347,0.199 1.6884,0.402 3.5907,0.563 2.4586,-1.391 2.3552,-1.068 1.5086,0.60318 1.4331,-1.1322 1.9112,0.538" inkscape:connector-curvature="0" style="stroke:#ffffff">
      <title id="title6655">Jackson, OR</title>
    </path>
    <path id="c41019" d="m 93.314,126.86 0.29774,0.137 0.28169,0.378 0.68284,1.769 0.08736,0.424 -0.0071,1.865 -2.8686,3.423 0.30774,0.82861 -3.5383,-1.2226 -0.44215,1.576 -1.9112,-0.538 -1.4331,1.1322 -1.5086,-0.60318 -2.3552,1.068 -2.4586,1.391 -3.5907,-0.563 -1.6884,-0.402 -0.6347,-0.199 -1.5671,0.651 -0.04814,0.167 -0.16937,-0.586 -0.34588,-0.273 -1.4869,-0.45 -0.62579,0 -0.1355,0.216 -0.90035,0.09 -0.59548,-0.264 -0.73098,-0.402 -2.5941,-1.487 0.271,-0.981 -1.5012,-0.585 0.10341,-0.813 1.1339,-3.801 0.77021,0.25343 0.68759,-1.9995 1.0578,0.30209 1.1,-3.785 -0.9497,-0.37379 1.1422,-3.7732 -0.86976,-0.28758 0.56846,-1.9219 -0.90245,-0.22221 0.60114,-1.9873 -2.3944,-0.771 -3.0541,-0.941 2.669,-5.286 1.478,0.481 1.7276,0.514 0.49742,0.07 2.0806,-1.279 1.9629,0.603 0.64896,0.403 0.41898,0.891 -0.08023,0.273 1.0287,1.785 0.79516,0.715 1.7526,1.246 3.3429,0.997 -1.1268,3.849 0.04992,1.599 1.6866,0.514 0.21751,0.05 0.03209,-0.04 1.7829,0.45 2.1466,0.626 -0.66679,2.387 3.8795,1.02 5.8906,1.695" inkscape:connector-curvature="0" style="stroke:#ffffff">
      <title id="title6658">Douglas, OR</title>
    </path>
    <path id="c41035" d="m 96.48,123.56 10.735,2.942 -1.5743,5.793 -0.3851,0.916 -0.65075,1.865 -1.9219,6.846 -1.0358,3.88 5.4003,1.479 2.1626,0.635 -4.4286,16.77 -9.3048,-2.603 -13.733,-4.09 2.7474,-9.571 0.44215,-1.351 3.1824,-11.031 0.44215,-1.576 3.5383,1.2226 -0.30774,-0.82861 2.8686,-3.423 0.0071,-1.865 -0.08736,-0.424 -0.68284,-1.769 -0.28169,-0.378 -0.29774,-0.137 0.29224,-1.8049 2.8741,-1.4971" inkscape:connector-curvature="0" style="stroke:#ffffff">
      <title id="title6661">Klamath, OR</title>
    </path>
    <path id="c41037" d="m 107.21,126.5 5.5126,1.469 0.24069,0.07 10.326,2.885 6.9586,1.831 -2.4207,9.9516 -0.48417,-0.27456 -1.6013,6.028 -0.28801,-0.0769 -0.94132,3.4969 2.587,0.65 1.3015,0.289 5.5679,1.4 -2.7242,10.959 -0.62757,2.788 -0.81121,3.199 -10.533,-2.683 -4.7424,-1.198 -0.65074,-0.168 -6.0261,-1.599 -0.0232,0 -3.0541,-0.82 4.4286,-16.77 -2.1626,-0.635 -5.4003,-1.48 1.0358,-3.879 1.9219,-6.846 0.65075,-1.865 0.3851,-0.917 1.5743,-5.792" inkscape:connector-curvature="0" style="stroke:#ffffff">
      <title id="title6664">Lake, OR</title>
    </path>
    <path id="c41025" d="m 136.09,125.94 13.491,3.342 0.49028,-1.961 2.4425,0.66 1.1981,0.41 5.7676,1.391 -1.3978,5.849 -0.24782,0.754 -0.65075,2.693 -1.4709,6.188 -2.275,9.779 -0.99484,4.821 -2.1947,9.593 0.12123,0.443 -0.0891,0.82 -1.2373,5.079 -9.6186,-2.211 -9.0231,-2.275 -0.58835,-0.151 0.81121,-3.199 0.62757,-2.788 2.7242,-10.959 -5.5679,-1.4 -1.3015,-0.289 -2.587,-0.65 0.94132,-3.4969 0.28801,0.0769 1.6013,-6.028 0.48417,0.27456 2.4207,-9.9516 0.48315,-1.976 1.9362,0.505 1.519,-5.825 1.897,0.482" inkscape:connector-curvature="0" style="stroke:#ffffff">
      <title id="title6667">Harney, OR</title>
    </path>
    <path id="c41045" d="m 160.55,124.91 0.62757,0.153 0.73098,-0.176 1.2694,-1.07 1.2944,-1.141 0.13728,-0.571 0.40114,-0.249 0.7078,-0.152 6.0903,1.391 0.83616,0.875 0.52951,0.779 -0.42432,1.946 4.6355,1.059 -0.041,0.121 -0.0232,0.194 0.0321,0.33 0.24069,0.408 2.0004,0.811 0.15333,-0.07 0.0874,0 0.63648,0.225 0.16759,0.105 0.85221,1.687 0.0161,0.03 0.0553,0.176 -0.0232,0.234 0,0.02 -0.009,0 -0.0321,0.06 -0.0232,0.05 -0.0232,0.04 -0.81299,0.997 -0.62579,2.555 -0.78089,1.478 -0.48138,0.804 -1.7757,4.307 -8.5096,37.886 -19.43,-4.418 1.2373,-5.079 0.0891,-0.82 -0.12123,-0.442 2.1947,-9.594 0.99484,-4.821 2.275,-9.779 1.4709,-6.188 0.65075,-2.692 0.24782,-0.755 1.3978,-5.849 1.0768,-4.871" inkscape:connector-curvature="0" style="stroke:#ffffff">
      <title id="title6670">Malheur, OR</title>
    </path>
    <path id="c41001" d="m 164.11,109.14 0.65075,-0.617 1.478,-0.811 0.3227,-0.04 0.72206,0.9 0.82725,0.642 0.84915,0.24806 2.1253,-1.4734 0.94051,2.1938 3.0686,0.72358 0.4582,-1.946 4.7086,1.052 7.6503,1.762 -0.77912,0.706 -0.50812,0.467 -0.40114,0.836 0.016,0.465 0.0571,0.225 0.0963,0.225 0.0232,0.185 -0.016,0.02 -0.53842,0.931 -0.37619,0.403 -0.48316,0.513 -0.87539,0.942 -1.535,0.522 -0.39401,0.09 -0.11232,0.05 -0.37797,0.338 -3.5586,4.892 -0.20146,0.403 -0.55448,3.784 -4.6355,-1.059 0.42432,-1.945 -0.52951,-0.78 -0.83616,-0.875 -6.0903,-1.391 -0.7078,0.152 -0.40114,0.25 -0.13728,0.57 -1.2944,1.141 -1.2694,1.07 -0.73098,0.176 -0.62757,-0.153 -4.2414,-0.988 0.10518,-0.524 2.158,-1.7272 -0.031,-1.6778 1.4655,-0.45543 -0.33163,-0.61257 1.2302,-1.375 0.24782,-0.378 -0.39521,-1.3969 -2.181,-1.1665 0.2465,-0.97923 1.833,0.0864 0.54207,-0.30242 1.3486,0.27364 0.076,-2.2178 0.53688,-0.60485 0.82257,0.20171 0.15332,-0.925 0.041,-0.555 -0.0731,-0.451" inkscape:connector-curvature="0" style="stroke:#ffffff">
      <title id="title6673">Baker, OR</title>
    </path>
    <path id="c41063" d="m 173.83,86.814 5.8425,1.406 1.9202,0.466 8.8163,2.057 1.1321,3.528 0.0713,0.136 0.0481,0.09 0.73098,0.674 1.3996,1.287 0.58657,0.257 0.007,0 0.27456,0.353 0.312,0.396 0.10519,0.442 0.55448,2.908 -0.0642,0.29 -0.38688,0.441 -1.5422,1.576 -2.7813,3.567 -0.54556,1.15 -2.4015,3.913 -7.6503,-1.761 0.42611,-1.911 -3.1576,-0.78461 0.27335,-1.0854 -0.53531,-0.10749 0.23574,-1.1418 -0.32845,-0.0887 -0.16759,-0.706 -0.43502,-1.101 -0.61865,-0.145 -0.2086,-0.627 0.27043,-1.3677 -0.56104,-0.23928 0.53385,-1.8498 -0.77275,-0.24622 0.59181,-2.3031 -0.59601,-2.2437 0.42611,-1.502 0.60912,0.137 0.46299,-1.9063 -3.5354,-0.82 0.65788,-3.151" inkscape:connector-curvature="0" style="stroke:#ffffff">
      <title id="title6676">Wallowa, OR</title>
    </path>
    <path id="c41061" d="m 173.17,89.964 3.5354,0.82 -0.46299,1.9063 -0.60912,-0.137 -0.42611,1.502 0.59601,2.2437 -0.59181,2.3031 0.77275,0.24622 -0.53385,1.8498 0.56104,0.23928 -0.27043,1.3677 0.2086,0.627 0.61865,0.145 0.43502,1.102 0.16759,0.706 0.32845,0.0884 -0.23574,1.1416 0.53531,0.10724 -0.27335,1.0852 3.1576,0.78461 -0.42611,1.911 -4.7086,-1.052 -0.4582,1.946 -3.0686,-0.72358 -0.94051,-2.1938 -2.1253,1.4734 -0.84915,-0.24806 -0.82725,-0.642 -0.72206,-0.9 -0.3227,0.04 -1.478,0.811 -0.65075,0.617 -4.138,-1.888 0.46533,-1.895 0.1765,-2.708 -1.7187,-0.411 0.37674,-1.3237 -0.69231,-0.19528 0.45998,-1.959 1.4411,0.40096 0.21117,-0.57157 2.6759,0.82413 0.56497,-1.7783 3.5449,1.0936 0.30805,-0.95541 1.1323,0.31522 1.4165,-4.8977 0.63666,0.15359 0.57653,-1.9988 0.39836,0.07987 0.16659,-0.68915 0.82775,0.18052 0.23383,-0.94791" inkscape:connector-curvature="0" style="stroke:#ffffff">
      <title id="title6679">Union, OR</title>
    </path>
    <path id="c41023" d="m 141.74,102.77 8.0283,1.984 10.205,2.498 4.138,1.888 0.0731,0.451 -0.041,0.555 -0.15332,0.925 -0.82257,-0.20171 -0.53688,0.60485 -0.076,2.2178 -1.3486,-0.27364 -0.54207,0.30242 -1.833,-0.0864 -0.2465,0.97923 2.181,1.1665 0.39521,1.3969 -0.24782,0.378 -1.2302,1.375 0.33163,0.61257 -1.4655,0.45543 0.0309,1.6778 -2.158,1.7272 -0.10518,0.524 4.2414,0.988 -1.0768,4.871 -5.7676,-1.391 -1.1981,-0.41 -2.4425,-0.66 -0.49028,1.961 -13.491,-3.342 2.0004,-7.763 2.9899,-11.516 -0.39016,-0.16219 1.0481,-3.7328" inkscape:connector-curvature="0" style="stroke:#ffffff">
      <title id="title6682">Grant, OR</title>
    </path>
    <path id="c41069" d="m 129.19,97.75 11.088,2.9 -0.37921,1.6372 1.834,0.47784 -1.0481,3.7328 0.39016,0.16219 -2.9899,11.516 -3.5033,-0.9 0.38011,-1.7628 -2.2573,-0.64783 0.30111,-1.1254 -5.7854,-1.478 0.20146,-0.866 0.54556,-1.954 1.7187,-5.681 -0.94169,-2.8014 0.44605,-3.2096" inkscape:connector-curvature="0" style="stroke:#ffffff">
      <title id="title6685">Wheeler, OR</title>
    </path>
    <path id="c41013" d="m 127.97,109.44 -0.54556,1.954 -0.20146,0.866 5.7854,1.478 -0.30111,1.1254 2.2573,0.64783 -0.38011,1.7628 3.5033,0.9 -2.0004,7.763 -1.897,-0.482 -1.519,5.825 -1.9362,-0.505 -5.4395,-1.383 -0.34588,-0.121 0.50455,-1.928 -2.0349,-0.56102 0.60502,-1.881 -5.9138,-1.551 0.4582,-1.929 -1.5671,-0.427 -2.1698,-0.657 1.0287,-3.857 -1.8168,-0.588 0.39402,-1.817 1.0537,-3.824 1.8809,0.522 0.51347,-1.927 2.5548,0.683 0.52238,-1.913 7.0067,1.824" inkscape:connector-curvature="0" style="stroke:#ffffff">
      <title id="title6688">Crook, OR</title>
    </path>
    <path id="c41017" d="m 103.86,107.02 11.635,3.238 -1.0537,3.824 -0.39402,1.817 1.8168,0.588 -1.0287,3.857 2.1698,0.657 1.5671,0.427 -0.4582,1.929 5.9138,1.551 -0.60502,1.881 2.0349,0.56102 -0.50455,1.928 0.34588,0.121 5.4395,1.383 -0.48315,1.976 -6.9586,-1.831 -10.326,-2.885 -0.24069,-0.07 -5.5126,-1.469 -10.735,-2.942 0.49029,-0.795 0.53843,-1.157 0.78625,-2.17 2.2197,-2.137 2.5958,-3.279 0.21573,-0.506 0.1355,-1.061 0.25138,-2.275 0.14442,-3.165" inkscape:connector-curvature="0" style="stroke:#ffffff">
      <title id="title6691">Deschutes, OR</title>
    </path>
    <path id="c41031" d="m 107.84,97.767 10.51,2.892 1.7454,0.514 9.5918,2.588 -1.7187,5.681 -7.0067,-1.824 -0.52238,1.913 -2.5548,-0.683 -0.51347,1.927 -1.8809,-0.522 -11.635,-3.238 0.54752,-2.0411 1.0782,-0.97325 0.93625,-3.2446 0.94719,-1.812 -0.63805,-0.41601 0.11908,-0.41601 0.99451,-0.34503" inkscape:connector-curvature="0" style="stroke:#ffffff">
      <title id="title6694">Jefferson, OR</title>
    </path>
    <path id="c41043" d="m 85.624,93.234 1.5101,0.731 0.11005,1.2442 1.9634,-0.80222 1.9041,-0.273 0.89346,-0.16572 0.57834,0.20149 0.20555,0.69855 1.3702,-0.05811 1.4514,1.4104 3.4811,0.83045 0.84068,1.9172 1.0064,-0.56815 1.7365,1.254 1.0929,0.355 2.6511,0.747 -0.93625,3.2446 -1.0782,0.97325 -0.54752,2.0411 -0.14442,3.165 -3.6406,-1.004 -4.7496,-1.237 -0.14441,0.192 -0.0089,0.09 0.05705,0.08 -0.08914,0.135 -0.73989,0.298 -0.22286,-0.06 -1.8649,-0.844 -1.1018,-0.666 -0.60083,-0.482 -0.58835,-0.635 -0.36905,-0.338 -0.95562,-0.562 -1.6723,-0.419 -0.78624,0.467 -0.16937,0.474 -0.2496,0.812 -3.4873,-1.013 -0.60261,-0.241 0.22642,-0.666 0.10341,-1.006 -0.02496,-0.112 -0.09628,-0.122 -0.21573,-0.05 -0.04992,-0.04 -0.02318,-0.1 -0.10519,-1.245 1.4798,-4.396 -0.53642,-0.81105 1.3094,0.0496 0.71241,-0.98553 1.6007,-0.07702 -0.76485,-1.808 0.28169,-0.627" inkscape:connector-curvature="0" style="stroke:#ffffff">
      <title id="title6697">Linn, OR</title>
    </path>
    <path id="c41039" d="m 67.223,99.108 5.4074,1.462 2.8365,0.972 3.5443,0.941 2.7082,0.786 0.21573,0.05 0.09628,0.122 0.02496,0.112 -0.10341,1.006 -0.22642,0.666 0.60261,0.241 3.4873,1.013 0.2496,-0.811 0.16937,-0.475 0.78624,-0.467 1.6723,0.419 0.95562,0.562 0.36905,0.339 0.58835,0.634 0.60083,0.482 1.1018,0.666 1.8649,0.844 0.22286,0.06 0.73989,-0.298 0.08914,-0.135 -0.05705,-0.08 0.0089,-0.09 0.14441,-0.192 4.7496,1.237 3.6406,1.004 -0.25138,2.275 -0.1355,1.061 -0.21573,0.506 -2.5958,3.279 -2.2197,2.137 -0.78625,2.17 -0.53843,1.157 -0.49029,0.795 -2.8741,1.4971 -0.29224,1.8049 -5.8906,-1.695 -3.8795,-1.02 0.66679,-2.387 -2.1466,-0.626 -1.7829,-0.449 -0.03209,0.04 -0.21751,-0.05 -1.6866,-0.514 -0.04992,-1.599 1.1268,-3.849 -3.3429,-0.997 -1.7526,-1.246 -0.79516,-0.715 -1.0287,-1.785 0.08023,-0.273 -0.41898,-0.891 -0.64896,-0.403 -1.9629,-0.602 -2.0806,1.278 -0.49742,-0.07 -1.7276,-0.514 -1.478,-0.481 3.4552,-8.904" inkscape:connector-curvature="0" style="stroke:#ffffff">
      <title id="title6700">Lane, OR</title>
    </path>
    <path id="c41003" d="m 85.342,93.861 0.76485,1.808 -1.6007,0.07702 -0.71241,0.98553 -1.3094,-0.0496 0.53642,0.81105 -1.4798,4.396 0.10519,1.245 0.02318,0.1 0.04992,0.04 -2.7082,-0.786 -3.5443,-0.941 -2.8365,-0.972 0.21244,-0.66977 -0.74767,-0.15284 0.18427,-0.61116 1.2409,0.4144 0.61936,-1.4502 0.68151,-0.549 1.6014,0.56762 1.3996,-4.675 0.41719,-1.713 7.103,2.13" inkscape:connector-curvature="0" style="stroke:#ffffff">
      <title id="title6703">Benton, OR</title>
    </path>
    <path id="c41041" d="m 78.457,84.041 -2.0182,6.718 0.2086,0.497 1.5921,0.475 -0.41719,1.713 -1.3996,4.675 -1.6014,-0.56762 -0.68151,0.549 -0.61936,1.4502 -1.2409,-0.4144 -0.18427,0.61116 0.74767,0.15284 -0.21244,0.66976 -5.4074,-1.462 0.60974,-1.15 0.90035,-1.84 0.09628,-0.24 1.3835,-3.85 2.5067,-6.282 1.3889,-3.038 4.3484,1.333" inkscape:connector-curvature="0" style="stroke:#ffffff">
      <title id="title6706">Lincoln, OR</title>
    </path>
    <path id="c41053" d="m 78.457,84.041 0.23177,-0.706 10.191,3.052 -0.21038,0.772 -0.40401,0.76829 0.67713,0.72968 -0.21095,0.55592 -0.51985,0.32425 -0.94722,-0.11514 -0.952,1.2706 -0.6277,0.01135 -0.06782,0.8029 1.0363,0.24034 0.07102,0.70369 -0.77844,0.16312 -0.35371,0.47202 0.03209,0.145 -0.28169,0.627 -7.103,-2.13 -1.5921,-0.475 -0.2086,-0.497 2.0182,-6.718" inkscape:connector-curvature="0" style="stroke:#ffffff">
      <title id="title6709">Polk, OR</title>
    </path>
    <path id="c41071" d="m 85.07,76.656 5.1097,1.528 0.94136,0.956 0.89857,1.052 0.98236,1.416 0.58478,0.344 -0.08023,1.358 -1.3336,-0.586 -1.7757,1.397 0.0089,0.33 -0.2496,0.851 -0.36192,0.725 -0.91461,0.36 -10.191,-3.052 -0.9467,-0.29 0.93244,-3.069 4.9974,1.487 0.65075,-2.146 0.74702,-2.661" inkscape:connector-curvature="0" style="stroke:#ffffff">
      <title id="title6712">Yamhill, OR</title>
    </path>
    <path id="c41047" d="m 93.506,83.31 0.3227,-0.249 0.77911,0.224 0.57765,0.523 -0.54556,1.381 -0.19255,0.307 -0.24247,0.289 -0.14263,0.05 -0.2496,0.33 -0.1765,0.297 0.83438,1.93 1.2549,1.4093 0.93806,2.5497 1.5368,1.279 6.2258,1.688 4.188,1.171 -0.77198,1.28 -0.99451,0.34503 -0.11908,0.41601 0.638,0.41601 -0.94718,1.812 -2.6511,-0.748 -1.0929,-0.354 -1.7365,-1.254 -1.0064,0.56815 -0.84068,-1.9172 -3.4811,-0.83045 -1.4514,-1.4104 -1.3702,0.05811 -0.20555,-0.69855 -0.57834,-0.20149 -0.89346,0.16572 -1.9041,0.273 -1.9634,0.80222 -0.11005,-1.2442 -1.5101,-0.731 -0.03209,-0.145 0.35371,-0.47202 0.77844,-0.16312 -0.07102,-0.70369 -1.0363,-0.24034 0.06782,-0.8029 0.6277,-0.01135 0.952,-1.2706 0.94722,0.11514 0.51985,-0.32425 0.21095,-0.55592 -0.67713,-0.72968 0.40401,-0.76829 0.21038,-0.772 0.91461,-0.36 0.36192,-0.725 0.2496,-0.851 -0.0089,-0.33 1.7757,-1.397 1.3336,0.586" inkscape:connector-curvature="0" style="stroke:#ffffff">
      <title id="title6715">Marion, OR</title>
    </path>
    <path id="c41005" d="m 96.262,79.951 1.478,0.442 -0.03209,-0.602 0.3227,0 12.776,3.608 0.34708,1.5188 1.1193,0.76664 -0.1082,1.8949 -0.68224,0.86561 0.0644,0.80635 -1.1662,0.11865 -0.0874,0.59534 0.49934,1.486 0.60793,0.78023 -0.38743,0.65354 -0.68821,-0.02412 -0.45294,0.50071 -0.69408,-0.20309 -0.92598,0.35336 -0.32983,1.583 0.025,0.06 0.66679,1.324 -4.188,-1.171 -6.2258,-1.688 -1.5368,-1.279 -0.93806,-2.5502 -1.2549,-1.4098 -0.83438,-1.929 0.1765,-0.297 0.2496,-0.33 0.14263,-0.05 0.24247,-0.289 0.19255,-0.307 0.54556,-1.381 -0.57765,-0.523 -0.77911,-0.224 -0.3227,0.249 0.08023,-1.358 0.66902,-0.50025 0.54681,0.62 1.0153,0.009 0.44497,-2.1297" inkscape:connector-curvature="0" style="stroke:#ffffff">
      <title id="title6718">Clackamas, OR</title>
    </path>
    <path id="c41059" d="m 158.09,83.037 15.445,3.703 0.29595,0.07 -0.65788,3.15 -0.23383,0.94791 -0.82775,-0.18052 -0.16659,0.68915 -0.39836,-0.07987 -0.57653,1.9988 -0.63666,-0.15359 -1.4165,4.8977 -1.1323,-0.31422 -0.30805,0.95491 -3.5449,-1.0941 -0.56497,1.7783 -2.6759,-0.82413 -0.21117,0.57157 -1.4411,-0.40096 -0.45998,1.96 0.69231,0.19528 -0.37674,1.3237 1.7187,0.41 -0.1765,2.708 -0.46533,1.895 -10.205,-2.498 0.49212,-1.7465 0.50075,0.0468 2.2906,-9.9618 -1.7101,-0.49856 0.46619,-1.693 -2.9079,-0.747 1.4709,-5.833 0.31201,-1.086 0.90926,0.05 2.4104,0.33 0.44215,0.226 0.41006,0.104 0.69889,0.05 0.57052,-0.09 1.1731,-0.339 0.3441,-0.152 0.45106,-0.378" inkscape:connector-curvature="0" style="stroke:#ffffff">
      <title id="title6721">Umatilla, OR</title>
    </path>
    <path id="c41049" d="m 141.26,83.239 2.1858,0 1.535,0.16 1.6706,0.159 0.71137,-0.73272 0.82502,-0.48268 0.87048,0.49476 0.71137,0.33564 0.90748,0.06 -0.31201,1.086 -1.4709,5.833 2.9079,0.747 -0.46619,1.693 1.7101,0.49856 -2.2906,9.9618 -0.50075,-0.0468 -0.49212,1.7465 -8.0283,-1.984 -1.834,-0.47784 0.37921,-1.6372 0.062,-0.27244 0.48356,0.0964 0.4992,-1.927 -1.686,-0.51075 0.46218,-1.7909 -2.1351,-0.69733 1.5261,-5.777 0.62044,-2.169 1.1482,-4.363" inkscape:connector-curvature="0" style="stroke:#ffffff">
      <title id="title6724">Morrow, OR</title>
    </path>
    <path id="c41021" d="m 130.65,82.233 0.33696,-0.112 0.68462,0.168 0.44929,0.315 0.41719,0.786 0.19433,0.282 0.32805,0.216 1.2534,0.217 3.1664,0.193 0.83617,-0.635 0.51347,-0.128 2.4104,-0.296 0.025,0 -1.1482,4.363 -0.62044,2.169 -1.5261,5.777 2.1351,0.69733 -0.46218,1.7909 1.686,0.51075 -0.4992,1.927 -0.48356,-0.0964 -0.062,0.27244 -11.088,-2.9 -0.0499,-0.353 0.96263,-0.43437 -0.1336,-2.0726 -0.57051,-1.478 0.75415,-1.585 0.86113,-1.678 0.94472,-1.3941 0.98434,0.34915 0.58478,-0.297 0.19434,-0.04 0.15154,-0.241 -0.28169,-2.138 -1.1321,-1.952 -1.3675,-1.704 -0.44928,-0.498" inkscape:connector-curvature="0" style="stroke:#ffffff">
      <title id="title6727">Gilliam, OR</title>
    </path>
    <path id="c41055" d="m 125.99,83.278 0.83616,-0.257 1.4138,-0.217 1.7187,-0.241 0.69175,-0.33 0.44928,0.498 1.3675,1.704 1.1321,1.952 0.28169,2.138 -0.15154,0.241 -0.19434,0.04 -0.58478,0.297 -0.98434,-0.34915 -0.94472,1.3941 -0.86113,1.678 -0.75415,1.585 0.57051,1.478 0.1336,2.0726 -0.96263,0.43437 -2.4907,-0.676 -0.83539,-0.33817 0.41076,-0.97693 -1.9757,-2.2063 -1.6792,-0.41774 -0.59438,-0.67085 0.4,-1.7375 1.2317,-0.03807 1.6856,-1.5284 0.93957,-1.664 0.28882,-0.579 0.0321,-0.152 -0.88189,-0.78958 0.31137,-2.3444" inkscape:connector-curvature="0" style="stroke:#ffffff">
      <title id="title6730">Sherman, OR</title>
    </path>
    <path id="c41065" d="m 118.15,79.814 1.1,0.162 0.55447,0.113 1.9756,1.131 0.25165,1.8205 2.148,-0.90324 1.4584,0.68275 0.34588,0.458 -0.31137,2.3444 0.88189,0.78958 -0.0321,0.152 -0.28882,0.579 -0.93957,1.664 -1.6856,1.5284 -1.2317,0.03807 -0.4,1.7375 0.59438,0.67085 1.6792,0.41774 1.9757,2.2063 -0.41076,0.97693 0.83539,0.33817 2.4907,0.676 0.0499,0.353 -0.44605,3.2096 0.94169,2.8014 -9.5918,-2.588 -1.7454,-0.514 -10.51,-2.892 0.77198,-1.28 -0.66679,-1.324 -0.025,-0.06 0.32983,-1.583 0.92598,-0.35336 0.69407,0.20309 0.45295,-0.50071 0.68821,0.02412 0.38743,-0.65354 -0.60793,-0.78023 -0.49934,-1.486 0.0874,-0.59534 1.1662,-0.11865 -0.0644,-0.80635 3.375,0.925 0.19969,-0.692 1.3746,-5.109 0.68706,0.08787 1.0334,-3.8499" inkscape:connector-curvature="0" style="stroke:#ffffff">
      <title id="title6733">Wasco, OR</title>
    </path>
    <path id="c41027" d="m 110.38,78.826 0.45106,-0.403 0.68284,-0.353 0.94849,-0.06 1.1072,0.61 0.43502,0.105 1.3265,0.103 1.7258,0.03 1.0947,0.949 -1.0335,3.8583 -0.68693,-0.09634 -1.3746,5.109 -0.19969,0.692 -3.375,-0.925 0.68224,-0.86561 0.1082,-1.8949 -1.1191,-0.76664 -0.34708,-1.5188 -0.81792,-2.0632 0.39182,-2.5168" inkscape:connector-curvature="0" style="stroke:#ffffff">
      <title id="title6736">Hood River, OR</title>
    </path>
    <path id="c41051" d="m 97.862,73.362 -0.34409,0.579 -0.15333,0.417 0.01605,0.564 0.31378,0.401 0.81834,0.859 0.42611,0.323 4.459,2.747 0.52416,0.257 0.0143,0 0.44215,0.112 0.29774,0 5.7052,-0.795 -0.39182,2.5168 0.81792,2.0632 -12.776,-3.608 -0.3227,0 0.03209,0.603 -1.478,-0.443 0.29061,-2.218 -0.29774,-0.192 -0.90035,-1.655 -0.62579,-1.39 0.51347,-1.753 2.619,0.619" inkscape:connector-curvature="0" style="stroke:#ffffff">
      <title id="title6739">Multnomah, OR</title>
    </path>
    <path id="c41067" d="m 95.243,72.743 -0.51347,1.753 0.62579,1.39 0.90035,1.655 0.29774,0.192 -0.29061,2.218 -0.44497,2.1297 -1.0153,-0.009 -0.54681,-0.62 -0.66902,0.50025 -0.58478,-0.344 -0.98236,-1.416 -0.89857,-1.052 -0.94136,-0.956 -5.1097,-1.528 -0.32983,-0.09 0.10519,-0.314 0.26646,0.04434 0.89414,-1.252 2.3998,-1.0143 0.10171,-0.5124 -1.4868,-1.0328 -0.77361,-1.5611 0.3358,-0.50451 1.8943,0.65773 0.46533,-1.559 5.0865,1.503 1.2141,1.719" inkscape:connector-curvature="0" style="stroke:#ffffff">
      <title id="title6742">Washington, OR</title>
    </path>
    <path id="c41057" d="m 88.942,69.521 -0.46533,1.559 -1.8943,-0.65773 -0.3358,0.50451 0.77361,1.5611 1.4868,1.0328 -0.10171,0.5124 -2.3998,1.0143 -0.89414,1.252 -0.26646,-0.04434 -0.10519,0.314 0.32983,0.09 -0.74702,2.66 -0.65075,2.146 -4.9974,-1.487 -0.93244,3.069 0.9467,0.29 -0.23177,0.706 -4.3484,-1.333 0.56339,-1.013 0.06418,-0.12 0.0071,-0.02 0.4582,-0.868 0.03209,-0.06 0.13015,-0.298 0.36014,-0.893 3.5194,-9.995 0.30665,-1.037 0.06418,-0.418 0,-0.153 -0.03209,-1.205 3.8082,1.15 -0.01605,0.233 0.04814,0.02 3.5764,1.012 1.9433,0.474" inkscape:connector-curvature="0" style="stroke:#ffffff">
      <title id="title6745">Tillamook, OR</title>
    </path>
    </g>
  </svg>
