<svg xmlns:dc="http://purl.org/dc/elements/1.1/" xmlns:cc="http://creativecommons.org/ns#" xmlns:rdf="http://www.w3.org/1999/02/22-rdf-syntax-ns#" xmlns:svg="http://www.w3.org/2000/svg" xmlns="http://www.w3.org/2000/svg" xmlns:sodipodi="http://sodipodi.sourceforge.net/DTD/sodipodi-0.dtd" xmlns:inkscape="http://www.inkscape.org/namespaces/inkscape" width="103.18545000000029" height="90.64000000000004" version="1.0" id="svg2" inkscape:version="0.91 r13725" sodipodi:docname="USA counties.svg">
  <defs id="defs9439"/>
  <sodipodi:namedview pagecolor="#ffffff" bordercolor="#666666" borderopacity="1" objecttolerance="10" gridtolerance="10" guidetolerance="10" inkscape:pageopacity="0" inkscape:pageshadow="2" inkscape:window-width="798" inkscape:window-height="828" id="namedview9437" showgrid="false" showguides="true" inkscape:zoom="0.64950808" inkscape:cx="494.98999" inkscape:cy="313.535" inkscape:window-x="-7" inkscape:window-y="0" inkscape:window-maximized="0" inkscape:current-layer="svg2"/>
  <metadata id="metadata4">
    <rdf:RDF>
      <cc:Work>
        <dc:format>image/svg+xml</dc:format>
        <dc:type rdf:resource="http://purl.org/dc/dcmitype/StillImage"/>
        <dc:title/>
        <cc:license rdf:resource="http://creativecommons.org/publicdomain/zero/1.0/"/>
        <dc:date>2019-10-06</dc:date>
        <dc:creator>
          <cc:Agent>
            <dc:title>U.S. Census Bureau, Abe.suleiman, Lokal_Profil</dc:title>
          </cc:Agent>
        </dc:creator>
        <dc:source>https://commons.wikimedia.org/wiki/File:Usa_counties_large.svg</dc:source>
      </cc:Work>
      <cc:License rdf:about="http://creativecommons.org/publicdomain/zero/1.0/">
        <cc:permits rdf:resource="http://creativecommons.org/ns#Reproduction"/>
        <cc:permits rdf:resource="http://creativecommons.org/ns#Distribution"/>
        <cc:permits rdf:resource="http://creativecommons.org/ns#DerivativeWorks"/>
      </cc:License>
    </rdf:RDF>
  </metadata>
  <style id="style6">
  /*
   * Below are Cascading Style Sheet (CSS) definitions in use in this file,
   * which allow easily changing how counties are displayed.
   *
   *
   * For the U.S. Census county codes (FIPS codes) used in this file to identify individual counties, see this link:
   * https://www2.census.gov/geo/docs/reference/codes/files/national_county.txt
   *
   * The county codes used in this file combine the 2-digit state code, which is in the second column of the file
   * linked above, and the 3-digit county code, which is in the third column of the file linked above. Each value
   * for the "id" attribute for each county is in the following form: "c[state_code][county-code]". For example,
   * for Loving Country in Texas, the state code is "48" and the county code is "301", so the id name for the
   * county is "c48301".
   *
   * County codes used in this file can also be found on Wikimedia Commons at this link:
   * https://commons.wikimedia.org/wiki/File_talk:Usa_counties_large.svg/county_codes
   *
   * Examples:
   *
   * To color two counties red (in this case Loving County and Dallas County in Texas) simply
   * go to the CSS insertion point and add:
   *
   * #c48301, #c48113 {fill:red}
   *
   * To color an entire state's counties (in the case New Mexico, with "35" being the state code) a green,
   * go to the CSS insertion point and add:
   *
   * path[id*='c35'] {fill:#34A853}
   *
   */
  #counties {fill:#d0d0d0;stroke:#000;stroke-width:.17829;} 
  #borders {fill:none;stroke:#221e1f;stroke-width:.89143;} 
  #separator {fill:none;stroke:#a9a9a9;stroke-width:2.3177309;}
 </style>
  <g id="counties" transform="translate(-560.83422,-425.54699999999997)" style="fill:#d0d0d0;stroke:#ffffff;stroke-width:0.17828999">
    <path id="c22103" d="m 636.69,477.28 8.219,0.548 3.3019,4.548 0.0339,0.03 0.12836,0.13 1.2302,2.5 0.0303,0.426 -0.18363,0.465 -0.0499,0.193 0.016,0.123 0.62936,1.194 0.19255,0.371 0.43145,0.505 0.1462,0.169 0.0499,0.03 0.0713,0.05 0.0481,0.03 0.0374,0 0.91818,-0.06 -1.9112,0.784 -0.12837,-0.08 -1.1036,-0.36 -1.9389,-0.1535 -1.2234,-0.69012 -3.1133,-0.59613 -0.84947,-1.0593 -2.7701,-1.3428 -1.5102,0.65673 -0.70221,-8.4109" inkscape:connector-curvature="0" style="stroke:#ffffff">
      <title id="title3352">St. Tammany, LA</title>
    </path>
    <path id="c22117" d="m 644.54,470.11 2.1127,-0.144 0.041,0.713 -0.24247,1.214 -0.1979,0.442 -0.12302,0.02 -0.16046,0.02 -0.0463,0.05 -0.25852,1.075 -0.29774,1.469 -0.2389,1.213 -0.21929,1.642 -8.219,-0.548 -0.009,-0.41 -1.4299,-3.405 -0.61866,-0.515 -0.14441,-2.177 1.7276,-0.105 8.3242,-0.553" inkscape:connector-curvature="0" style="stroke:#ffffff">
      <title id="title3355">Washington, LA</title>
    </path>
    <path id="c22081" d="m 572.29,444.95 0.83617,0 4.3832,0.16565 0.32716,1.7134 0.23177,0.227 0.47246,0.713 0.37084,1.159 0.009,0.103 -0.10519,1.334 -1.8078,2.139 -0.8112,0.368 -0.7809,0 -0.56873,-0.202 -0.10698,-0.761 -1.7508,-1.293 -0.2086,-0.256 -1.2302,-1.915 -0.74702,-2.466 -1.2908,-0.972 2.7777,-0.07" inkscape:connector-curvature="0" style="stroke:#ffffff">
      <title id="title3358">Red River, LA</title>
    </path>
    <path id="c22013" d="m 583.47,436.59 0.0647,3.2046 2.0408,-0.23761 -0.49028,7.085 -2.4051,0.06 -4.8423,0.135 -0.32716,-1.7134 -4.3832,-0.16565 0.96453,-4.042 2.628,-0.08 1.7044,-1.085 -0.0267,-0.571 -0.67392,-2.403 5.7462,-0.184" inkscape:connector-curvature="0" style="stroke:#ffffff">
      <title id="title3361">Bienville, LA</title>
    </path>
    <path id="c22061" d="m 586.33,432.47 1.5903,-0.05 0.82725,0.1 0.62757,0.137 0.87792,0.54552 0.12644,1.1843 2.0016,-0.0658 0.0802,2.009 0.0642,2.006 -3.9936,0.141 0.0481,0.993 -3.0041,0.09 -2.0408,0.23761 -0.0647,-3.2046 0.56931,-3.6237 2.2904,-0.50026" inkscape:connector-curvature="0" style="stroke:#ffffff">
      <title id="title3364">Lincoln, LA</title>
    </path>
    <path id="c22049" d="m 585.57,439.56 3.0041,-0.09 -0.0481,-0.993 3.9936,-0.141 0.0731,1.85 0.11232,0.282 1.9754,1.824 0.0321,0.995 0.11232,3.029 -9.7452,0.33 0.49028,-7.085" inkscape:connector-curvature="0" style="stroke:#ffffff">
      <title id="title3367">Jackson, LA</title>
    </path>
    <path id="c22127" d="m 585.08,446.65 9.7452,-0.33 0.19434,5.029 -0.85935,3.054 -4.9992,0.17 0.025,1.086 -0.0731,0.932 -6.7892,0.248 1.2052,-3.753 0.35301,-1.614 0.0339,-0.281 -0.12837,-1.705 -0.41184,-1.485 -0.70067,-1.294 2.4051,-0.06" inkscape:connector-curvature="0" style="stroke:#ffffff">
      <title id="title3370">Winn, LA</title>
    </path>
    <path id="c22021" d="m 594.72,443.29 5.3771,-0.207 1.1435,2.201 1.6842,0.57899 0.4261,0.57 0.10519,0.193 0.0481,0.595 -1.0198,0.626 0.4582,1.622 0.26208,0.532 -0.0293,1.1507 -2.1779,-0.0347 -5.9708,0.231 -0.19434,-5.029 -0.11232,-3.029" inkscape:connector-curvature="0" style="stroke:#ffffff">
      <title id="title3373">Caldwell, LA</title>
    </path>
    <path id="c22073" d="m 599.07,432.83 3.0848,1.5608 0.0566,3.3172 -2.1216,5.368 -5.3771,0.207 -0.0321,-0.995 -1.9754,-1.824 -0.11232,-0.282 -0.0731,-1.85 -0.0642,-2.006 2.9667,-0.1 0.52952,-0.162 0.19968,-0.138 2.5228,-2.467 0.3958,-0.633" inkscape:connector-curvature="0" style="stroke:#ffffff">
      <title id="title3376">Ouachita, LA</title>
    </path>
    <path id="c22083" d="m 611.16,435.55 -0.18898,1.027 -0.22821,3.054 -3.0041,0.16 -0.72384,0.425 -1.6812,2.002 -0.87361,2.016 -1.544,1.625 -1.6842,-0.57899 -1.1435,-2.201 2.1216,-5.368 0.70602,-0.642 1.3496,-0.959 1.3015,-0.441 1.191,-0.597 0.18364,-0.199 0.26565,-0.482 0.1765,-0.545 -0.0232,-0.09 0.8023,0.259 0.84329,1.622 2.1537,-0.09" inkscape:connector-curvature="0" style="stroke:#ffffff">
      <title id="title3379">Richland, LA</title>
    </path>
    <path id="c22041" d="m 610.66,444.31 0.25174,5.3564 -1.514,2.1096 -0.47425,-1.31 -0.98058,-0.465 -0.0303,0.192 -0.35122,0.596 -0.71137,0.786 -0.49563,0.362 -0.9271,0.257 -0.28882,-0.37 -0.46533,-0.714 -0.69889,-0.708 -0.49207,-0.314 -0.28169,-0.09 -0.26208,-0.532 -0.4582,-1.622 1.0198,-0.626 -0.0481,-0.595 -0.10519,-0.193 -0.4261,-0.57 1.544,-1.625 0.87361,-2.016 1.6812,-2.002 0.72384,-0.425 3.0041,-0.16 -0.0874,4.675" inkscape:connector-curvature="0" style="stroke:#ffffff">
      <title id="title3382">Franklin, LA</title>
    </path>
    <path id="c22107" d="m 610.66,444.31 3.334,-0.136 0.0963,-0.183 0.33696,-0.241 2.1448,-0.692 0.87539,-0.146 0.11411,0 0.25138,0.208 0.005,0.5 0,0.02 1.9612,2.291 -3.9936,5.828 -2.225,2.942 -0.19255,0.346 -3.2395,-0.307 -0.73097,-2.965 1.514,-2.1096 -0.25174,-5.3564" inkscape:connector-curvature="0" style="stroke:#ffffff">
      <title id="title3385">Tensas, LA</title>
    </path>
    <path id="c22065" d="m 618.03,435.64 -0.4368,1.471 0.0339,0.369 0,0.03 0.0553,0.08 0.082,0.128 0.016,0.04 2.1448,2.282 0.1355,3.318 -2.2411,0.278 0,-0.02 -0.005,-0.5 -0.25138,-0.208 -0.11411,0 -0.87539,0.146 -2.1448,0.692 -0.33696,0.241 -0.0963,0.183 -3.334,0.136 0.0874,-4.675 0.22821,-3.054 7.053,-0.933" inkscape:connector-curvature="0" style="stroke:#ffffff">
      <title id="title3388">Madison, LA</title>
    </path>
    <path id="c22035" d="m 616.05,425.55 -0.63292,1.021 -0.20146,0.731 0.0321,0.186 1.5422,6.988 0.11411,0.275 0.0214,0.04 0.0606,0.07 0.0214,0.04 0.041,0.03 0.18364,0.161 0.0481,0.04 0.61153,0.191 0.13728,0.313 -7.053,0.933 0.18898,-1.027 0.54912,-0.524 0.18364,-0.56 0.57765,-2.22 0.29596,-2.547 0.0891,-0.676 0.70067,-2.058 0.59369,-1.34 1.8952,-0.07" inkscape:connector-curvature="0" style="stroke:#ffffff">
      <title id="title3391">East Carroll, LA</title>
    </path>
    <path id="c22123" d="m 614.15,425.63 -0.59369,1.34 -0.70067,2.058 -0.0891,0.676 -0.29596,2.547 -0.57765,2.22 -0.18364,0.56 -0.54912,0.524 -2.1537,0.09 -0.84329,-1.622 -0.8023,-0.259 0.70602,-1.984 2.6904,-5.52 0.1141,-0.493 3.2787,-0.134" inkscape:connector-curvature="0" style="stroke:#ffffff">
      <title id="title3394">West Carroll, LA</title>
    </path>
    <path id="c22067" d="m 610.4,425.79 0.47424,-0.03 -0.1141,0.493 -2.6904,5.52 -0.70602,1.984 0.0232,0.09 -0.1765,0.545 -0.26565,0.482 -0.18364,0.199 -1.191,0.598 -1.3015,0.44 -1.3496,0.959 -0.70602,0.642 -0.0566,-3.3172 -3.0848,-1.5608 0.0874,-0.07 0.14441,-0.314 -0.0571,-1.214 -0.69711,-1.977 0.17473,-2.997 11.676,-0.475" inkscape:connector-curvature="0" style="stroke:#ffffff">
      <title id="title3397">Morehouse, LA</title>
    </path>
    <path id="c22111" d="m 598.73,426.26 -0.17473,2.997 0.69711,1.978 0.0571,1.214 -0.14441,0.314 -0.0874,0.07 -0.3958,0.633 -2.5228,2.467 -0.19968,0.138 -0.52952,0.162 -2.9667,0.1 -0.0802,-2.009 -2.0016,0.0658 -0.12644,-1.1843 -0.87792,-0.54552 -0.62757,-0.137 -0.82725,-0.1 -1.5903,0.05 -0.19433,-5.871 12.592,-0.339" inkscape:connector-curvature="0" style="stroke:#ffffff">
      <title id="title3400">Union, LA</title>
    </path>
    <path id="c22027" d="m 581.07,426.69 5.0616,-0.1 0.19433,5.871 -2.2904,0.50026 -0.56931,3.6237 -5.7462,0.184 0.0481,-1.133 -0.29061,-1.904 -0.97701,0.04 -0.22642,-6.958 4.7959,-0.13" inkscape:connector-curvature="0" style="stroke:#ffffff">
      <title id="title3403">Claiborne, LA</title>
    </path>
    <path id="c22119" d="m 571.44,426.95 4.8369,-0.128 0.22642,6.958 0.97701,-0.04 0.29061,1.904 -0.0481,1.133 0.67392,2.403 0.0267,0.57 -1.7044,1.086 -2.628,0.08 -1.3265,0.02 -0.16224,-2.015 -0.12658,-6.069 -0.20147,-2.498 -0.54734,-0.57 -0.67392,-1.006 -0.36014,-0.642 0,-0.345 0.15867,-0.837 0.58835,0" inkscape:connector-curvature="0" style="stroke:#ffffff">
      <title id="title3406">Webster, LA</title>
    </path>
    <path id="c22015" d="m 570.85,426.96 -0.15867,0.837 0,0.345 0.36014,0.642 0.67392,1.006 0.54734,0.57 0.20147,2.498 0.12658,6.069 0.16224,2.015 1.3265,-0.02 -0.96453,4.042 -0.83617,0 -1.7116,-2.225 -2.1537,-1.148 -2.4176,-7.426 -0.20147,-1.085 -0.82725,-5.722 0.0321,-0.09 0.2086,-0.177 0.18542,0 5.4467,-0.121" inkscape:connector-curvature="0" style="stroke:#ffffff">
      <title id="title3409">Bossier, LA</title>
    </path>
    <path id="c22017" d="m 565.22,427.08 -0.2086,0.176 -0.0321,0.09 0.82725,5.722 0.20147,1.085 2.4176,7.426 2.1537,1.148 1.7116,2.225 -2.7777,0.07 -0.0178,-0.756 -0.18542,-0.28 -0.44928,-0.483 -0.40293,-0.297 -1.5832,-0.532 -0.33696,-0.07 -0.36727,0.08 -0.28348,0.178 -0.1034,0.09 -0.96632,1.141 -0.0535,0.339 0.0392,0.137 -0.0642,0.2 -0.68284,0.629 -1.0465,0.745 -1.774,0.03 -0.2496,-11.459 -0.0802,-4.34 -0.0713,-3.189 4.3859,-0.1" inkscape:connector-curvature="0" style="stroke:#ffffff">
      <title id="title3412">Caddo, LA</title>
    </path>
    <path id="c22031" d="m 569.51,445.02 1.2908,0.972 0.74702,2.466 1.2302,1.914 0.2086,0.257 1.7508,1.293 -1.6231,0.15197 6.9e-4,1.896 -8.5168,0.227 -2.7403,-3.062 -0.62579,-4.967 1.774,-0.03 1.0465,-0.745 0.68284,-0.629 0.0642,-0.2 -0.0392,-0.137 0.0535,-0.339 0.96632,-1.141 0.1034,-0.09 0.28348,-0.178 0.36727,-0.08 0.33696,0.07 1.5832,0.531 0.40293,0.298 0.44928,0.483 0.18542,0.28 0.0178,0.756" inkscape:connector-curvature="0" style="stroke:#ffffff">
      <title id="title3415">De Soto, LA</title>
    </path>
    <path id="c22085" d="m 564.6,454.19 8.5168,-0.227 0.0642,3.006 2.0093,-0.05 0.1462,4.051 1.9683,-0.06 0.12837,4.002 -3.0291,0.09 -0.59517,1.8612 -2.2004,0.3258 -0.22642,0.715 -0.0963,1.255 0.0481,0.04 -0.91461,0.24 -0.20325,-1.189 -0.1355,-0.754 -0.58656,-2.557 -1.8007,-2.612 -2.1127,-2.219 -0.98058,-5.919" inkscape:connector-curvature="0" style="stroke:#ffffff">
      <title id="title3418">Sabine, LA</title>
    </path>
    <path id="c22069" d="m 577.84,446.84 4.8423,-0.135 0.70067,1.294 0.41184,1.485 0.12837,1.705 -0.0339,0.281 -0.35301,1.614 -1.2052,3.753 5.1097,4.234 -5.0063,4.108 -4.9974,-0.257 -0.12837,-4.002 -1.9683,0.06 -0.1462,-4.051 -2.0093,0.05 -0.0642,-3.006 -6.9e-4,-1.896 1.6231,-0.15197 0.10698,0.761 0.56873,0.202 0.7809,0 0.8112,-0.368 1.8078,-2.139 0.10519,-1.334 -0.009,-0.103 -0.37084,-1.159 -0.47246,-0.713 -0.23177,-0.227" inkscape:connector-curvature="0" style="stroke:#ffffff">
      <title id="title3421">Natchitoches, LA</title>
    </path>
    <path id="c22043" d="m 582.33,456.83 6.7892,-0.248 0.0731,-0.932 -0.025,-1.086 4.9992,-0.17 0.22464,2.912 0.64184,1.774 0.92531,1.287 0.89321,0.981 0.84865,0.246 -2.0806,0.533 -6.372,1.808 -0.52238,0.07 -0.59548,-0.209 -0.13371,-0.1 -0.26565,-1.184 -0.29061,-1.453 -5.1097,-4.234" inkscape:connector-curvature="0" style="stroke:#ffffff">
      <title id="title3424">Grant, LA</title>
    </path>
    <path id="c22059" d="m 595.02,451.34 5.9708,-0.231 0.53129,13.838 -1.5529,-0.16 -2.2749,-3.193 -0.84865,-0.246 -0.89321,-0.981 -0.92531,-1.287 -0.64184,-1.774 -0.22464,-2.912 0.85935,-3.054" inkscape:connector-curvature="0" style="stroke:#ffffff">
      <title id="title3427">LaSalle, LA</title>
    </path>
    <path id="c22025" d="m 600.99,451.11 2.1779,0.0347 0.0293,-1.1507 0.28169,0.09 0.49207,0.314 0.69889,0.708 0.46533,0.714 0.28882,0.37 0.9271,-0.257 0.49563,-0.362 0.71137,-0.786 0.35122,-0.596 0.0303,-0.192 0.98058,0.465 0.47425,1.31 0.73097,2.965 -2.6939,0.337 -0.15868,0.145 -0.005,1.5447 -2.099,0.98627 -0.13015,0.225 0.1314,1.2653 1.9464,2.3822 -0.008,0.60213 -1.4701,-0.0131 -0.76996,-1.5772 -0.56052,0.3076 -0.10519,0.656 0.0891,3.489 0.066,0.21 0.624,0.876 -1.0911,-0.539 -0.40293,-0.1 -0.3441,0.06 -0.22642,0.232 -0.1355,0.353 0.19077,0.465 0.23534,0.284 0.0642,0.153 -0.37797,0.225 -0.93244,-0.06 -0.0891,-0.1 -0.35123,-1.431 0,-0.771 -0.53129,-13.838" inkscape:connector-curvature="0" style="stroke:#ffffff">
      <title id="title3430">Catahoula, LA</title>
    </path>
    <path id="c22029" d="m 610.13,454.74 3.2395,0.307 -0.30844,0.528 -0.0143,0.02 -2.0967,4.212 -0.0481,0.09 -0.0731,0.155 -0.007,0.02 -0.73098,5.992 -0.47424,2.477 -0.47603,3.592 -0.47246,0.69 0.0571,-0.554 -1.3425,-1.086 0.14441,-0.346 0.0963,-0.335 0.52416,-2.662 -0.22642,-0.271 -0.35836,-0.185 -0.0998,0.03 -0.65966,-0.09 -0.93066,-0.248 -0.44394,-0.28 -0.44215,-0.611 -0.624,-0.876 -0.066,-0.21 -0.0891,-3.489 0.10519,-0.656 0.56052,-0.3076 0.76996,1.5772 1.4701,0.0131 0.008,-0.60213 -1.9464,-2.3822 -0.1314,-1.2653 0.13015,-0.225 2.099,-0.98627 0.005,-1.5447 0.15868,-0.145 2.6939,-0.337" inkscape:connector-curvature="0" style="stroke:#ffffff">
      <title id="title3433">Concordia, LA</title>
    </path>
    <path id="c22009" d="m 599.97,464.79 1.5529,0.16 0,0.771 0.35123,1.431 0.0891,0.1 0.93244,0.06 0.37797,-0.224 -0.0642,-0.154 -0.23534,-0.283 -0.19077,-0.465 0.1355,-0.353 0.22642,-0.232 0.3441,-0.06 0.40293,0.1 1.0911,0.539 0.44215,0.611 0.44394,0.28 0.93066,0.248 0.65966,0.09 0.0998,-0.03 0.35836,0.185 0.22642,0.271 -0.52416,2.662 -0.0963,0.335 -0.14441,0.346 -0.48851,0.611 -1.1125,3.978 -7.8339,0.314 -1.4388,-2.619 1.2391,-0.658 -0.47424,-3.207 -0.16224,-4.388 0.17828,-0.153 0.1355,-0.06 0.082,0.02 1.2195,0.572 1.2462,-0.795" inkscape:connector-curvature="0" style="stroke:#ffffff">
      <title id="title3436">Avoyelles, LA</title>
    </path>
    <path id="c22079" d="m 587.44,461.07 0.29061,1.453 0.26565,1.184 0.13371,0.1 0.59548,0.209 0.52238,-0.07 6.372,-1.808 2.0806,-0.533 2.2749,3.193 -1.2462,0.795 -1.2195,-0.572 -0.082,-0.02 -0.1355,0.06 -0.17828,0.153 0.16224,4.388 0.47424,3.207 -1.2391,0.658 -1.9915,-0.754 -4.1951,2.569 -4.4429,0.296 -0.17651,-2.785 -0.22464,-5.539 -1.0287,-1.462 -0.33874,-0.161 -1.6795,-0.449 5.0063,-4.108" inkscape:connector-curvature="0" style="stroke:#ffffff">
      <title id="title3439">Rapides, LA</title>
    </path>
    <path id="c22115" d="m 577.43,464.92 4.9974,0.257 1.6795,0.449 0.33874,0.161 1.0287,1.462 0.22464,5.539 0.17651,2.785 -3.0469,0.371 -3.0594,0 -5.666,0.151 -2.6993,0.403 -0.0731,-7.288 -0.0481,-0.04 0.0963,-1.256 0.22642,-0.714 2.2004,-0.3263 0.59517,-1.8617 3.0291,-0.09" inkscape:connector-curvature="0" style="stroke:#ffffff">
      <title id="title3442">Vernon, LA</title>
    </path>
    <path id="c22039" d="m 590.32,475.28 4.1951,-2.569 1.9915,0.754 1.4388,2.619 0.87539,1.824 0.0499,1.253 0.0232,0.885 -0.82012,2.483 -0.82725,0.715 -3.022,0.112 -0.65788,0.122 -0.20681,0.233 -0.62935,1.043 -2.7474,0.08 0.0339,-0.153 0.12658,-0.13 0.17651,-0.312 0.5723,-1.391 -0.0428,-0.105 -0.26387,-0.241 -0.16937,-4.195 -0.0321,-0.858 -0.0642,-2.171" inkscape:connector-curvature="0" style="stroke:#ffffff">
      <title id="title3445">Evangeline, LA</title>
    </path>
    <path id="c22003" d="m 585.88,475.57 4.4429,-0.296 0.0642,2.171 0.0321,0.858 0.16937,4.195 0.26387,0.241 0.0428,0.105 -0.5723,1.391 -0.17651,0.312 -0.12658,0.13 -2.8472,0.09 0.058,0.8177 -1.6323,0.009 -3.1503,0.484 -2.3052,0.399 -0.10519,-4.001 1.6474,-0.07 1.3425,-0.04 -0.0963,-4.629 -0.0981,-1.8 3.0469,-0.371" inkscape:connector-curvature="0" style="stroke:#ffffff">
      <title id="title3448">Allen, LA</title>
    </path>
    <path id="c22011" d="m 582.83,475.94 0.0981,1.8 0.0963,4.629 -1.3425,0.04 -1.6474,0.07 0.10519,4.001 0.016,0.476 -5.0402,0.151 -0.0481,-2.009 -2.0075,0.05 0.0553,2.018 -5.0847,0.136 0.0214,-0.02 0.75772,-0.637 0.0802,-0.2 0.007,-0.119 -0.27991,-1.433 -0.55447,-0.669 -0.0571,-0.06 0.22464,-0.804 2.8205,-5.311 0.35479,-1.542 2.6993,-0.403 5.666,-0.152 3.0594,0" inkscape:connector-curvature="0" style="stroke:#ffffff">
      <title id="title3451">Beauregard, LA</title>
    </path>
    <path id="c22053" d="m 589.98,484.83 0.44929,8.92 -2.209,1.339 -5.1347,0.146 -0.025,-1.013 2.1216,-0.121 -0.35479,-1.02 -0.48851,-0.593 -2.0984,-2.332 -0.0437,-2.7348 -2.028,0.0578 -0.016,-0.529 -0.016,-0.476 2.3052,-0.399 3.1503,-0.484 1.6323,-0.009 -0.058,-0.8177 2.8472,-0.09 -0.0339,0.153" inkscape:connector-curvature="0" style="stroke:#ffffff">
      <title id="title3454">Jefferson Davis, LA</title>
    </path>
    <path id="c22019" d="m 580.16,486.95 0.016,0.529 2.028,-0.0578 0.0437,2.7348 2.0984,2.332 0.48851,0.593 0.35479,1.02 -2.1216,0.121 0.025,1.013 -2.628,0.09 -0.009,-0.339 -11.797,0.328 -0.0303,0.03 0.0143,-4.441 -0.60796,-3.61 5.0847,-0.136 -0.0553,-2.018 2.0075,-0.05 0.0481,2.009 5.0402,-0.151" inkscape:connector-curvature="0" style="stroke:#ffffff">
      <title id="title3457">Calcasieu, LA</title>
    </path>
    <path id="c22023" d="m 588.22,495.09 2.4514,-0.104 0.29774,7.859 0.0303,2.667 -0.72385,-0.183 -1.8381,-0.61 -1.6652,-0.724 -0.91461,-0.394 -1.4067,-0.667 -0.66502,-0.267 -0.0267,0 -2.2963,-0.74 -1.7936,-0.435 -1.0055,-0.128 -0.80229,0 -4.147,0.322 -1.2623,0.168 -1.9255,0.291 -0.96631,0.149 -1.1553,0.277 -0.0588,0.02 -0.11054,0.04 -0.31556,0.103 -0.64897,0.346 -0.39401,0.266 -0.36906,0.314 -1.324,-0.94886 -0.73544,-1.7677 1.7722,-1.435 0.10896,-0.97445 2.291,-3.193 0.0303,-0.03 11.797,-0.328 0.009,0.338 2.628,-0.09 5.1347,-0.146" inkscape:connector-curvature="0" style="stroke:#ffffff">
      <title id="title3460">Cameron, LA</title>
    </path>
    <path id="c22001" d="m 589.98,484.83 2.7474,-0.08 4.9189,-0.184 1.396,0.94 0.80408,2.635 0,0.506 -2.6904,3.584 -1.5582,1.778 -0.41006,0.287 -0.38689,0.178 -0.353,0.119 -3.8011,-0.777 -0.21751,-0.06 -0.44929,-8.92" inkscape:connector-curvature="0" style="stroke:#ffffff">
      <title id="title3463">Acadia, LA</title>
    </path>
    <path id="c22097" d="m 605.78,475.77 0.29239,0.227 0.75951,1.292 0.70066,1.728 0.0892,0.772 -0.0963,3.125 -0.21751,0.845 0.79516,1.091 0.84508,1.206 -2.6529,0.128 -0.15154,-0.12 -0.99484,-0.354 -1.191,0.522 -0.57701,0.49011 -2.198,0.12806 -1.3328,1.8008 0,-0.506 -0.80408,-2.635 -1.396,-0.94 -4.9189,0.184 0.62935,-1.043 0.20681,-0.233 0.65788,-0.122 3.022,-0.112 0.82725,-0.715 0.82012,-2.483 -0.0232,-0.885 -0.0499,-1.253 -0.87539,-1.824 7.8339,-0.314" inkscape:connector-curvature="0" style="stroke:#ffffff">
      <title id="title3466">St. Landry, LA</title>
    </path>
    <path id="c22077" d="m 606.89,471.79 1.831,0.474 -0.0571,0.554 0.12837,2.539 1.8116,0.2101 0.41628,0.0961 0.007,-1.033 -0.95813,-0.64306 1.3613,-0.23255 0.76602,1.5532 -0.3637,0.23976 -0.13792,1.1429 -1.1326,0.34736 0.36349,0.88569 2.5421,0.0825 0.77688,-0.65644 0.45235,0.009 0.2325,0.66363 0.61331,1.641 -2.8686,3.856 -4.2753,0.194 -1.0929,0.04 0.21751,-0.845 0.0963,-3.125 -0.0892,-0.772 -0.70066,-1.728 -0.75951,-1.292 -0.29239,-0.227 1.1125,-3.977" inkscape:connector-curvature="0" style="stroke:#ffffff">
      <title id="title3469">Pointe Coupee, LA</title>
    </path>
    <path id="c22121" d="m 615.54,479.66 0.51347,0.112 0.15332,0.07 3.4552,7.329 -3.3661,0.184 -0.77199,-0.972 -2.1858,-2.373 -0.6668,-0.497 2.8686,-3.856" inkscape:connector-curvature="0" style="stroke:#ffffff">
      <title id="title3472">West Baton Rouge, LA</title>
    </path>
    <path id="c22055" d="m 599.85,488.65 1.3328,-1.8008 2.198,-0.12806 0.48608,6.9429 -0.24782,0.902 -2.0574,-0.829 -1.2694,-0.884 -1.6527,-0.546 -1.4798,-0.07 2.6904,-3.584" inkscape:connector-curvature="0" style="stroke:#ffffff">
      <title id="title3475">Lafayette, LA</title>
    </path>
    <path id="c22113" d="m 603.62,494.56 0.12302,5.279 -1.2801,0.578 -0.40828,0.233 -0.98771,0.676 -0.71671,0.672 -0.0802,0.451 0.36906,0.82 0.45106,0.877 0.36906,0.06 1.913,0.06 -0.82725,0.749 -0.10697,-0.06 -1.1963,0 -1.0341,0.153 -0.016,0 -1.0626,0.48 -0.76485,0.565 -0.52238,0.144 -0.17467,0 -0.35479,0.03 -0.0963,0 -5.0224,-0.658 -1.1571,-0.162 -0.0321,0 -0.0303,-2.667 -0.29774,-7.859 -2.4514,0.104 2.209,-1.339 0.21751,0.06 3.8011,0.777 0.353,-0.119 0.38689,-0.179 0.41006,-0.287 1.5582,-1.777 1.4798,0.07 1.6527,0.545 1.2694,0.885 2.0574,0.829" inkscape:connector-curvature="0" style="stroke:#ffffff">
      <title id="title3478">Vermilion, LA</title>
    </path>
    <path id="c22045" d="m 603.37,504.26 1.4851,-0.538 0.47602,-0.104 0.6668,0.1 3.1503,1.391 0.0535,0.09 -0.0356,0.151 -1.1125,1.553 -0.23355,0.144 -0.77912,0.241 -0.33696,-0.1 -3.8564,-1.847 -0.30487,-0.33 0.82725,-0.749 m 12.093,-10.801 2.0192,0.0591 0.89759,0.56891 -0.55448,1.271 -4.3003,0.56 -3.0362,0.387 -1.6153,2.353 -3.1664,2.999 0.002,-2.2596 -1.9689,0.44458 -0.12302,-5.279 0.24782,-0.902 0.87004,-0.02 2.2233,0.42324 0.56507,-1.3792 0.36906,-0.224 0.26743,-0.07 0.56873,-0.02 0.71315,0.154 0.17829,0.06 1.5158,1.1879 1.9484,-0.18194 2.3784,-0.131" inkscape:connector-curvature="0" style="stroke:#ffffff">
      <title id="title3481">Iberia, LA</title>
    </path>
    <path id="c22047" d="m 612.68,483.52 0.6668,0.497 2.1858,2.373 0.77199,0.972 3.3661,-0.184 2.4015,-0.09 -1.3799,6.026 -2.307,0.972 -0.89759,-0.56891 -2.0192,-0.0591 -0.0178,-0.303 -0.21572,-0.522 -1.1809,-1.166 -0.89254,-1.815 -0.3441,-0.152 -0.37083,-0.07 -0.62757,0.06 -0.40828,-0.03 -0.25852,-0.122 -0.25495,-0.21 -0.7078,-1.179 -0.11232,-0.315 -0.0428,-0.134 0.0428,-0.276 -0.0499,-1.204 -0.0874,-0.449 -0.27278,-0.651 -1.2623,-1.198 4.2753,-0.194" inkscape:connector-curvature="0" style="stroke:#ffffff">
      <title id="title3484">Iberville, LA</title>
    </path>
    <path id="c22007" d="m 623.52,492.88 1.7508,3.61 -2.184,4.489 -1.4156,2.106 -0.43324,-1.655 0.0481,-1.479 -0.0161,-0.867 -0.15333,-0.298 -0.2496,-0.258 -0.40828,-0.216 -0.20859,0 -0.87004,-0.169 -0.29596,-0.289 -1.0858,-2.065 -0.16759,-0.433 0.55448,-1.271 2.307,-0.972 2.8276,-0.233" inkscape:connector-curvature="0" style="stroke:#ffffff">
      <title id="title3487">Assumption, LA</title>
    </path>
    <path id="c22099" d="m 607.31,483.76 1.0929,-0.04 1.2623,1.198 0.27278,0.651 0.0874,0.449 0.0499,1.204 -0.0428,0.276 0.0428,0.134 0.11232,0.315 0.7078,1.179 0.25495,0.21 0.25852,0.122 0.40828,0.03 0.62757,-0.06 0.37083,0.07 0.3441,0.152 0.89254,1.815 1.1809,1.166 0.21572,0.522 0.0178,0.303 -2.3784,0.131 -1.9484,0.18194 -1.5158,-1.1879 -0.17829,-0.06 -0.71315,-0.154 -0.56873,0.02 -0.26743,0.07 -0.36906,0.224 -0.56506,1.3792 -2.2234,-0.42324 -0.87004,0.02 -0.48608,-6.9429 0.57701,-0.49011 1.191,-0.522 0.99484,0.354 0.15154,0.12 2.6529,-0.128 -0.84508,-1.206 -0.79516,-1.091 m 6.2186,12.163 4.3003,-0.56 0.16759,0.433 1.0858,2.065 0.29596,0.289 0.87004,0.169 0.20859,0 0.40828,0.216 0.2496,0.258 0.15333,0.298 0.0161,0.867 -0.0481,1.479 -2.3534,-1.069 -2.6211,-0.34398 -0.68078,-1.183 -0.39676,-1.8785 -1.6553,-1.0395" inkscape:connector-curvature="0" style="stroke:#ffffff">
      <title id="title3490">St. Martin, LA</title>
    </path>
    <path id="c22101" d="m 613.53,495.92 1.6553,1.04 0.39676,1.879 0.68078,1.1825 2.6211,0.34348 2.3534,1.069 0.43324,1.655 -2.6054,1.1182 -1.0103,2.5138 -0.44216,0 -0.84329,-0.161 -3.9615,-0.859 -0.16224,-0.779 -0.11945,-0.651 -0.27278,-0.868 -1.5278,-0.24246 0.0569,-2.0395 -0.23356,-0.161 -2.0949,-0.06 -0.29952,0.04 -2.4425,0.715 3.1664,-2.999 1.6153,-2.353 3.0362,-0.387" inkscape:connector-curvature="0" style="stroke:#ffffff">
      <title id="title3493">St. Mary, LA</title>
    </path>
    <path id="c22109" d="m 623.08,500.98 0.87405,-0.39575 1.7108,0.0525 0.0373,-0.84403 0.87405,-0.39575 0.1355,-0.06 0.26565,0.03 0.52406,1.4549 4.4091,3.2481 3.7708,3.873 0.28704,0.303 0.11945,0.34 0.12124,1.074 -0.50455,2.524 -2.4383,-0.12852 -0.1025,-0.67364 0.61908,-0.75003 -1.2434,-0.59992 -1.0663,0.63737 0.64206,0.7426 -8.4e-4,0.58291 -1.4047,0.15827 -0.38433,1.6973 -2.2129,0.67524 -0.85702,0.44867 0.39765,0.60692 3.0924,-0.73489 0.50543,0.43075 -4.0667,0.91 -2.9221,-2.835 -6.0832,-1.393 -0.50099,-0.394 -0.67927,-0.716 0.0303,-0.166 1.1,-0.603 0.37641,-1.0531 0.975,0.27211 0.19077,-0.217 -0.0767,-0.451 -0.27634,-0.699 -0.12124,-0.264 -0.0802,-0.08 -1.0679,-0.861 1.0103,-2.5138 2.6054,-1.1182 1.4156,-2.106" inkscape:connector-curvature="0" style="stroke:#ffffff">
      <title id="title3496">Terrebonne, LA</title>
    </path>
    <path id="c22057" d="m 632.16,496.41 1.0786,0.704 1.7347,1.847 1.0305,1.327 0.007,0.139 0.18363,0.247 0.24247,0.06 2.225,-0.115 0.50633,-0.02 0.65788,0.154 0.21038,0.128 0.0553,0.176 0.23177,1.614 0.016,0.232 -0.11767,0.429 -0.50103,0.64173 0.94316,1.8452 1.1642,-0.11696 1.2124,0.531 0.025,2.603 -1.1892,1.462 0.60083,1.173 -0.29596,1.109 -0.21929,0.216 -0.0535,0.06 -1.2854,1.063 -0.066,0.06 -0.0535,0.03 -0.91105,0.488 -2.3694,0.788 -0.11232,0 0,-0.02 -0.0232,-0.12 0.47424,-0.29 0.42433,-0.08 0.22642,-0.04 0.19077,-0.1 0.49207,-0.239 0.0945,-0.06 0.35479,-0.401 -0.025,-0.425 -1.4972,-0.62674 -0.10216,-0.82418 0.41017,-0.69708 -0.64005,-0.859 -0.35657,-0.259 -0.68106,0.107 -0.3851,0.514 -0.36192,1.317 0.50455,-2.524 -0.12124,-1.074 -0.11945,-0.34 -0.28704,-0.303 -3.7708,-3.873 -4.4091,-3.2481 -0.52406,-1.4549 -0.26565,-0.03 -0.1355,0.06 -0.87405,0.39575 -0.0373,0.84403 -1.7108,-0.0525 -0.87405,0.39575 2.184,-4.489 4.5891,0.111 2.3052,-0.191" inkscape:connector-curvature="0" style="stroke:#ffffff">
      <title id="title3499">Lafourche, LA</title>
    </path>
    <path id="c22093" d="m 629.78,490.24 -0.23177,2.669 -0.52952,0.378 0.39224,1.92 0.27456,1.045 0.16759,0.353 -4.5891,-0.111 -1.7508,-3.61 6.2668,-2.644" inkscape:connector-curvature="0" style="stroke:#ffffff">
      <title id="title3502">St. James, LA</title>
    </path>
    <path id="c22005" d="m 624.6,486.41 3.6157,3.375 0.4261,0.289 0.0963,0.03 0.0802,-0.04 1.0786,-1.093 -0.1141,1.27 -6.2668,2.644 -2.8276,0.233 1.3799,-6.026 2.5317,-0.676" inkscape:connector-curvature="0" style="stroke:#ffffff">
      <title id="title3505">Ascension, LA</title>
    </path>
    <path id="c22033" d="m 624.98,477.78 -1.125,1.674 -1.2926,1.545 0.066,3.178 0.37619,0.941 1.5974,1.292 -2.5317,0.676 -2.4015,0.09 -3.4552,-7.329 0.58657,-1.166 0.20325,-0.152 7.9766,-0.748" inkscape:connector-curvature="0" style="stroke:#ffffff">
      <title id="title3508">East Baton Rouge, LA</title>
    </path>
    <path id="c22037" d="m 620.48,471.59 4.6052,-0.259 -0.59547,1.496 0.39401,1.992 0.0963,1.285 0,1.68 -7.9766,0.748 -0.20325,0.152 -0.58657,1.166 -0.15332,-0.07 -0.0464,-0.539 0.0374,-0.754 0.28883,-0.902 0.20325,-0.273 0.79516,-1.365 0.57764,-2.651 0.27992,-1.591 2.2838,-0.112" inkscape:connector-curvature="0" style="stroke:#ffffff">
      <title id="title3511">East Feliciana, LA</title>
    </path>
    <path id="c22091" d="m 630.18,471.03 0.45641,8.028 -6.782,0.396 1.125,-1.674 0,-1.68 -0.0963,-1.285 -0.39401,-1.992 0.59547,-1.496 5.0954,-0.297" inkscape:connector-curvature="0" style="stroke:#ffffff">
      <title id="title3514">St. Helena, LA</title>
    </path>
    <path id="c22063" d="m 623.85,479.46 6.782,-0.396 0.21751,3.744 0.48138,1.205 1.544,2.138 -0.50982,0.19616 -0.29901,0.40166 -0.78697,0.71635 0.27832,0.79858 -0.002,0.35648 -0.20705,0.10891 0.005,0.34661 -0.11892,0.47025 -0.21573,-0.04 -1.125,-0.533 -1.0786,1.093 -0.0802,0.04 -0.0963,-0.03 -0.4261,-0.288 -3.6157,-3.375 -1.5974,-1.293 -0.37619,-0.941 -0.066,-3.177 1.2926,-1.546" inkscape:connector-curvature="0" style="stroke:#ffffff">
      <title id="title3517">Livingston, LA</title>
    </path>
    <path id="c22095" d="m 635,486.84 1.5008,0.0189 0.0996,0.85362 -1.1246,0.96393 -0.9197,0.80808 -0.015,2.455 -1.6456,1.254 -0.85221,0.353 -0.2086,0.338 0.0321,0.425 0.29596,2.1 -2.3052,0.191 -0.16759,-0.353 -0.27456,-1.045 -0.39224,-1.92 0.52952,-0.378 0.34587,-3.939 1.125,0.533 0.21573,0.04 0.51337,0.39697 2.0223,-0.16572 0.7467,-1.3169 0.067,-0.3495 0.51068,-0.65937 -0.0992,-0.60206" inkscape:connector-curvature="0" style="stroke:#ffffff">
      <title id="title3520">St. John the Baptist, LA</title>
    </path>
    <path id="c22089" d="m 632.16,496.41 -0.29596,-2.1 -0.0321,-0.425 0.2086,-0.338 0.85221,-0.353 1.6456,-1.254 0.71776,0.21499 1.862,0.33557 0.0732,0.99144 0.0481,0.796 0.20147,1.142 0.12837,0.377 0.60974,0.941 1.2141,0.724 -0.32983,1.911 -0.11232,0.353 -0.28882,0.891 -2.225,0.115 -0.24247,-0.06 -0.18363,-0.247 -0.007,-0.139 -1.0305,-1.327 -1.7347,-1.847 -1.0786,-0.704" inkscape:connector-curvature="0" style="stroke:#ffffff">
      <title id="title3523">St. Charles, LA</title>
    </path>
    <path id="c22105" d="m 630.55,471.02 3.9384,-0.251 0.14441,2.177 0.61866,0.515 1.4299,3.405 0.009,0.41 0.70201,8.4112 -0.26155,1.1334 -0.63621,0.0408 -1.5008,-0.0189 -0.54616,-0.53719 -0.54772,-0.112 -0.50186,-0.39968 -0.52487,0.35043 -1.544,-2.138 -0.48138,-1.205 -0.21751,-3.744 -0.45641,-8.028 0.37618,-0.01" inkscape:connector-curvature="0" style="stroke:#ffffff">
      <title id="title3526">Tangipahoa, LA</title>
    </path>
    <path id="c22071" d="m 642.81,492.22 2.668,-2.9067 0.74106,1.3192 0.77087,-0.11182 0.17462,-0.52921 -0.51107,-0.5292 0.20976,-0.74087 1.9389,0.1535 1.1036,0.36 0.12837,0.08 -0.854,1.015 -0.36793,1.0875 -0.76462,0.1315 -0.14004,0.87508 -1.3928,-0.38305 -0.89321,1.068 -2.5624,0.31719 -0.62533,1.0232 1.6251,0.48176 0.67115,1.2569 -1.9772,-0.49 -1.0697,-0.8455 -1.4464,0.2795 0.10387,-2.344 1.7415,-0.67442 z" inkscape:connector-curvature="0" style="stroke:#ffffff">
      <title id="title3529">Orleans, LA</title>
    </path>
    <path id="c22087" d="m 645.62,493.11 0.12123,0.507 0.19255,0.49 0.12837,0.219 0.20146,0.134 0.47822,0.24371 1.0586,-0.24079 -0.0967,0.73098 1.3875,0.7071 0.63649,0.08 0.44928,-0.05 0.47959,-0.218 0.29061,-0.233 0.11232,-0.362 0.22643,-1.455 -0.0267,-0.555 1.4816,-1.647 0.68997,-0.337 0.82725,0.257 0.52238,0.428 -0.4261,0.239 -0.13015,0.13 -0.19077,0.183 0.016,0.387 0.0321,0.28 1.1731,1.278 0.22464,0.17 0.94848,0.488 0.22465,0.123 -1.3318,2.225 -0.77198,1.14 -1.1428,0.433 -0.89144,-0.342 -2.0895,-0.08 -0.33874,0.107 0.082,0.674 0.11232,0.201 0.99662,0.546 0.47603,0.201 0.33518,0.06 0.46889,-0.03 0.9788,0.843 0.0553,0.136 -0.0232,0.09 -0.12123,-0.176 -0.55448,-0.443 -2.1858,-0.524 -1.4138,-1.275 -0.29774,-0.315 -2.9489,-0.786 -0.21751,0.08 -0.12836,-0.02 -0.25139,-0.296 -0.44037,-0.765 -0.27991,-0.587 -0.67115,-1.2569 -1.6251,-0.48176 0.62533,-1.0232 2.5624,-0.31719" inkscape:connector-curvature="0" style="stroke:#ffffff">
      <title id="title3532">St. Bernard, LA</title>
    </path>
    <path id="c22075" d="m 642.75,495.7 1.9772,0.49 0.27991,0.587 0.44037,0.765 0.25139,0.296 0.12836,0.02 0.21751,-0.08 2.9489,0.786 0.29774,0.316 1.4138,1.274 2.1858,0.525 0.55448,0.442 0.12123,0.176 -0.37084,-0.224 -0.63292,-0.345 -1.7294,-0.08 -0.39401,0.232 -0.6347,0.537 -0.16046,0.554 -0.19968,1.897 0.0143,0.112 0.14619,0.163 0.58657,0.385 3.7262,1.968 0.59547,-0.04 1.5529,-0.07 4.1541,1.198 1.0679,1.326 0.53843,0.746 0.8112,0.467 0.74881,-0.337 0.14263,0.06 0.14619,0.137 0.3441,0.701 0,0.02 -0.0642,0.314 0,0.02 -0.36192,0.829 -0.62579,1.421 -1.8239,1.086 -1.2872,-0.795 -2.7706,0.07 -2.2179,-2.564 -0.0588,-0.06 -0.271,-0.262 -0.0321,-0.03 -0.21929,-0.153 -0.0856,-0.03 -0.59548,-0.218 -0.43502,-0.16 -2.7866,-1.022 -0.44215,-0.121 -0.0802,-0.02 -0.42611,-0.09 -0.16759,-0.04 -0.1213,0 -0.42076,-0.03 -0.59191,-0.05 -1.4143,0.12273 0.28216,-1.1417 0.25495,-0.443 0.0731,-0.16 0,-0.216 -0.025,-0.121 -0.44215,-1.542 -0.0125,-0.07 -0.13193,-0.06 -0.18364,-0.1 -0.25851,0.06 -0.26387,0.113 -0.50455,0.313 -0.31557,0.386 -0.2496,0.354 -0.4582,0.05 -0.19255,-0.129 -0.26386,-0.28 -0.29061,-3.439 -0.10341,-0.435 -0.79694,-1.358 -0.39223,-0.457 -0.64184,-0.861 -0.22107,-0.747 0.37262,-1.542 0.79516,-1.366" inkscape:connector-curvature="0" style="stroke:#ffffff">
      <title id="title3535">Plaquemines, LA</title>
    </path>
    <path id="c22125" d="m 609.14,472.13 9.0552,-0.426 -0.27992,1.591 -0.57764,2.651 -0.79516,1.365 -0.20325,0.273 -0.28883,0.902 -0.0374,0.754 0.0464,0.539 -0.51347,-0.112 -0.61331,-1.641 -0.2325,-0.66363 -0.45235,-0.009 -0.77688,0.65644 -2.5421,-0.0825 -0.36349,-0.88569 1.1326,-0.34736 0.13792,-1.1426 0.3637,-0.23951 -0.76602,-1.5531 -1.3613,0.23261 0.95813,0.64313 -0.007,1.0331 -0.41628,-0.0958 -1.8116,-0.2111 -0.12837,-2.539 0.47246,-0.69 m -1.7579,-0.95 1.3425,1.086 -1.831,-0.474 0.48851,-0.612" inkscape:connector-curvature="0" style="stroke:#ffffff">
      <title id="title3538">West Feliciana, LA</title>
    </path>
    <path id="c22051" d="m 640.34,492.79 -0.10387,2.344 1.4464,-0.2795 1.0697,0.8455 -0.79516,1.366 -0.37262,1.542 0.22107,0.747 0.64184,0.861 0.39223,0.457 0.79694,1.358 0.10341,0.435 0.29061,3.439 -0.9895,0.33 -1.2124,-0.531 -1.1642,0.11696 -0.94316,-1.8452 0.50103,-0.64173 0.11767,-0.429 -0.016,-0.232 -0.23177,-1.614 -0.0553,-0.176 -0.21038,-0.128 -0.65788,-0.154 -0.50633,0.02 0.28882,-0.891 0.11232,-0.353 0.32983,-1.911 -1.2141,-0.724 -0.60974,-0.941 -0.12837,-0.377 -0.20147,-1.142 -0.0481,-0.796 -0.0732,-0.99144 2.282,0.35161 z m 2.1377,18.68 0.0178,0.02 0.55447,-0.107 0.43324,-0.488 1.1571,-0.892 0.16937,0.02 0.0339,0.07 -0.0178,0.06 -0.10341,0.167 -1.264,0.94 -1.084,1.127 -0.1872,0.192 -0.005,0 0.29596,-1.109" inkscape:connector-curvature="0" style="stroke:#ffffff">
      <title id="title3541">Jefferson, LA</title>
    </path>
    </g>
  </svg>
