<svg xmlns:dc="http://purl.org/dc/elements/1.1/" xmlns:cc="http://creativecommons.org/ns#" xmlns:rdf="http://www.w3.org/1999/02/22-rdf-syntax-ns#" xmlns:svg="http://www.w3.org/2000/svg" xmlns="http://www.w3.org/2000/svg" xmlns:sodipodi="http://sodipodi.sourceforge.net/DTD/sodipodi-0.dtd" xmlns:inkscape="http://www.inkscape.org/namespaces/inkscape" width="92.90924000000007" height="70.54403000000002" version="1.0" id="svg2" inkscape:version="0.91 r13725" sodipodi:docname="USA counties.svg">
  <defs id="defs9439"/>
  <sodipodi:namedview pagecolor="#ffffff" bordercolor="#666666" borderopacity="1" objecttolerance="10" gridtolerance="10" guidetolerance="10" inkscape:pageopacity="0" inkscape:pageshadow="2" inkscape:window-width="798" inkscape:window-height="828" id="namedview9437" showgrid="false" showguides="true" inkscape:zoom="0.64950808" inkscape:cx="494.98999" inkscape:cy="313.535" inkscape:window-x="-7" inkscape:window-y="0" inkscape:window-maximized="0" inkscape:current-layer="svg2"/>
  <metadata id="metadata4">
    <rdf:RDF>
      <cc:Work>
        <dc:format>image/svg+xml</dc:format>
        <dc:type rdf:resource="http://purl.org/dc/dcmitype/StillImage"/>
        <dc:title/>
        <cc:license rdf:resource="http://creativecommons.org/publicdomain/zero/1.0/"/>
        <dc:date>2019-10-06</dc:date>
        <dc:creator>
          <cc:Agent>
            <dc:title>U.S. Census Bureau, Abe.suleiman, Lokal_Profil</dc:title>
          </cc:Agent>
        </dc:creator>
        <dc:source>https://commons.wikimedia.org/wiki/File:Usa_counties_large.svg</dc:source>
      </cc:Work>
      <cc:License rdf:about="http://creativecommons.org/publicdomain/zero/1.0/">
        <cc:permits rdf:resource="http://creativecommons.org/ns#Reproduction"/>
        <cc:permits rdf:resource="http://creativecommons.org/ns#Distribution"/>
        <cc:permits rdf:resource="http://creativecommons.org/ns#DerivativeWorks"/>
      </cc:License>
    </rdf:RDF>
  </metadata>
  <style id="style6">
  /*
   * Below are Cascading Style Sheet (CSS) definitions in use in this file,
   * which allow easily changing how counties are displayed.
   *
   *
   * For the U.S. Census county codes (FIPS codes) used in this file to identify individual counties, see this link:
   * https://www2.census.gov/geo/docs/reference/codes/files/national_county.txt
   *
   * The county codes used in this file combine the 2-digit state code, which is in the second column of the file
   * linked above, and the 3-digit county code, which is in the third column of the file linked above. Each value
   * for the "id" attribute for each county is in the following form: "c[state_code][county-code]". For example,
   * for Loving Country in Texas, the state code is "48" and the county code is "301", so the id name for the
   * county is "c48301".
   *
   * County codes used in this file can also be found on Wikimedia Commons at this link:
   * https://commons.wikimedia.org/wiki/File_talk:Usa_counties_large.svg/county_codes
   *
   * Examples:
   *
   * To color two counties red (in this case Loving County and Dallas County in Texas) simply
   * go to the CSS insertion point and add:
   *
   * #c48301, #c48113 {fill:red}
   *
   * To color an entire state's counties (in the case New Mexico, with "35" being the state code) a green,
   * go to the CSS insertion point and add:
   *
   * path[id*='c35'] {fill:#34A853}
   *
   */
  #counties {fill:#d0d0d0;stroke:#000;stroke-width:.17829;} 
  #borders {fill:none;stroke:#221e1f;stroke-width:.89143;} 
  #separator {fill:none;stroke:#a9a9a9;stroke-width:2.3177309;}
 </style>
  <g id="counties" transform="translate(-760.17455,-356.417)" style="fill:#d0d0d0;stroke:#ffffff;stroke-width:0.17828999">
    <path id="c45077" d="m 769.99,363 0.59609,0.32756 2.9571,-0.86182 -0.0186,1.2867 0.83347,-0.13345 1.33,2.917 0.20147,0.538 0.15332,0.779 -0.0909,0.113 -4.8518,3.7149 -1.0851,1.7101 -2.4201,-7.8335 -0.66779,-0.25052 0.32448,-1.182 0.32092,-0.506 2.4176,-0.619" inkscape:connector-curvature="0" style="stroke:#ffffff">
      <title id="title6964">Pickens, SC</title>
    </path>
    <path id="c45073" d="m 767.57,363.62 -0.32092,0.506 -0.32448,1.182 0.66779,0.25052 2.4201,7.8335 -2.3784,3.689 -1.166,-0.163 -1.1517,-0.802 -4.771,-2.933 -0.37084,-0.618 0.30666,-1.737 1.2355,-2.243 1.7044,-1.324 0.40293,-1.831 1.7846,-0.863 1.9612,-0.947" inkscape:connector-curvature="0" style="stroke:#ffffff">
      <title id="title6967">Oconee, SC</title>
    </path>
    <path id="c45013" d="m 814.52,411.53 2.6134,0.2156 1.1226,1.7064 1.3902,0.23471 2.3458,1.6873 0.39951,1.1696 0.45478,0.0738 0.25465,0.37063 0.0981,0.192 0.0553,0.273 -0.041,0.346 -0.21751,1.18 -0.18363,0.202 -3.5019,2.1581 -0.0562,0.64539 -1.1914,2.1476 -1.1,0.891 -0.53942,-0.0453 -0.59448,0.90428 -0.48138,-0.385 -2.307,-1.848 -0.30309,-0.489 -0.16224,-0.522 0.0232,-0.123 0.24068,-1.011 -0.33924,-0.39945 1.359,-0.48655 -0.12864,-0.99473 1.1342,-0.0803 0.5313,-0.699 0.0677,-0.3185 0.0678,-0.3185 -0.59137,-0.259 0.58437,-1.217 -0.79738,-1.362 0.0735,-1.362 -0.0963,-0.219 -0.33696,-0.496 -0.51346,-0.644 0.66679,-1.118" inkscape:connector-curvature="0" style="stroke:#ffffff">
      <title id="title6970">Beaufort, SC</title>
    </path>
    <path id="c45049" d="m 814.52,411.53 -0.66679,1.118 -0.48316,0.997 -0.34588,-0.08 -0.5723,-0.209 -0.15868,-0.433 0.0642,-0.33 -0.0642,-0.332 -0.69888,-0.65 -0.79516,-0.516 -0.39401,0.355 -4.2183,5.055 -2.0093,-0.804 -0.82903,-3.359 0.3637,-0.175 0.82725,-0.556 0.80229,-1.357 0.15333,-1.095 0.0553,-0.848 0.32983,-0.919 0.25673,-0.353 0.21573,-0.201 2.1234,-1.87 3.3118,2.967 2.7321,3.595" inkscape:connector-curvature="0" style="stroke:#ffffff">
      <title id="title6973">Hampton, SC</title>
    </path>
    <path id="c45053" d="m 813.86,412.65 0.51346,0.644 0.33696,0.496 0.0963,0.219 -0.0735,1.362 0.79738,1.362 -0.58437,1.217 0.59137,0.259 -0.0678,0.3185 -0.0677,0.3185 -0.5313,0.699 -1.1342,0.0803 0.12864,0.99473 -1.359,0.48655 0.33924,0.39945 -0.24068,1.011 -0.0232,0.123 0.16224,0.522 0.30309,0.489 2.307,1.848 0.48138,0.385 0.009,1.077 -3.5746,-0.674 -1.0858,-0.419 -0.0892,-0.09 -0.2496,-0.997 -0.18185,-0.918 -0.0998,-0.449 -0.2496,-1.221 -2.0396,-4.138 -1.7116,-1.414 -0.36906,-0.137 4.2183,-5.055 0.39401,-0.355 0.79516,0.516 0.69888,0.65 0.0642,0.332 -0.0642,0.33 0.15868,0.433 0.5723,0.209 0.34588,0.08 0.48316,-0.997" inkscape:connector-curvature="0" style="stroke:#ffffff">
      <title id="title6976">Jasper, SC</title>
    </path>
    <path id="c45067" d="m 832.85,372.28 0.47219,-0.22304 0.70103,-0.92002 0.99127,-0.444 0.57765,-0.113 3.1535,0.39491 0.74205,-0.77991 0.98236,0.619 0.21029,0.73401 -0.89313,1.448 -0.68283,2.182 -0.54021,0.956 -0.79516,1.116 -0.0642,0.145 0.0802,0.693 1.7607,1.4882 0.24328,1.6678 1.0269,1.383 0.73098,0.86 -0.77554,0.23865 -0.96728,-0.35785 -0.26425,-0.82655 -0.66902,-0.31525 -0.22642,-0.412 0.16371,-0.65627 -3.6709,-2.1867 -0.53462,-0.75098 -0.28715,-1.4394 -0.56464,-1.5948 -1.2591,-1.4008 0.57808,-0.75397 -0.21981,-0.75397" inkscape:connector-curvature="0" style="stroke:#ffffff">
      <title id="title6979">Marion, SC</title>
    </path>
    <path id="c45033" d="m 833.01,363.52 8.3331,6.073 -0.87539,1.223 -0.98236,-0.619 -0.74205,0.77991 -3.1535,-0.39491 -0.57765,0.113 -0.99127,0.444 -0.70103,0.92002 -0.47219,0.22304 -0.95115,-0.77698 -1.0081,-0.0361 2.1216,-7.949" inkscape:connector-curvature="0" style="stroke:#ffffff">
      <title id="title6982">Dillon, SC</title>
    </path>
    <path id="c45051" d="m 840.47,370.81 0.87539,-1.223 9.3048,6.646 2.4336,1.737 -0.78625,0.305 -1.519,0.909 -0.71493,0.537 -0.96275,0.925 -0.0909,0.1 -0.37618,0.409 -0.17651,0.203 -0.27991,0.369 -0.38688,0.506 -0.1141,0.154 -1.1393,1.75 -0.67571,1.295 -0.24068,0.463 -1.7854,0.14364 -0.20891,-0.64461 -1.0611,-1.305 -1.0185,-0.602 -0.73098,-0.86 -1.0269,-1.383 -0.24328,-1.6678 -1.7607,-1.4882 -0.0802,-0.693 0.0642,-0.145 0.79516,-1.116 0.54021,-0.956 0.68284,-2.182 0.89312,-1.448 -0.21029,-0.73401" inkscape:connector-curvature="0" style="stroke:#ffffff">
      <title id="title6985">Horry, SC</title>
    </path>
    <path id="c45019" d="m 838.71,395.54 0.83706,0.28191 1.3646,0.63359 1.3294,5.6e-4 -0.18283,0.91494 -0.53823,0.6299 -0.27054,1.7832 -1.3899,0.0779 -0.90406,0.43362 -0.21295,0.0286 -0.30485,-0.5867 -0.57616,0.0595 -0.77623,0.75686 -0.61644,1.373 0.28742,0.36904 0.72591,9e-5 -0.0376,0.54576 -1.4351,0.96379 -0.5533,0.80553 -0.47313,0.4431 -0.004,0.38267 -2.4519,1.9173 0.0906,0.45393 -0.28725,1.1105 -1.4109,1.3887 -0.0729,0.38472 -0.64809,0.30532 -0.84176,0.39572 -0.20147,0.08 -0.16046,0.09 -0.62757,0.344 -1.462,1.061 -0.74702,0.731 -0.009,0 -0.15154,-0.126 -1.182,0.513 -0.2086,0.266 0.21751,0.192 0.025,0.06 -0.025,0.169 -0.14441,0.04 -0.36014,-0.09 -0.81477,-1.13 -1.1321,-2.523 -0.7078,-1.239 0.41897,-2.017 -0.0571,-1.1 2.2571,-0.09 2.4978,0.0554 -0.61324,-1.0242 0.91852,-0.73157 0.62745,0.0543 0.16374,-0.86191 -2.0711,-1.7027 0.37384,-0.21827 1.0003,0.34196 0.79654,-0.18196 0.48703,0.975 0.6996,0.98714 1.2526,-0.17714 -0.0138,0.85695 0.48791,0.25383 0.16774,0.63222 0.27991,0.129 0.40844,-0.28124 -0.16188,-0.83961 0.80593,-0.46129 0.17908,-0.49817 -0.079,-0.53504 1.2116,-0.94065 -0.15601,-0.80506 0.65522,-0.84194 1.1089,-2.395 0.47648,-0.68065 0.89365,-0.57635 0.89366,-0.0549 0.47648,-1.2021 0.65788,-0.345" inkscape:connector-curvature="0" style="stroke:#ffffff">
      <title id="title6988">Charleston, SC</title>
    </path>
    <path id="c45035" d="m 821.26,397.49 0.32092,0.214 1.2141,1.353 -0.19255,0.49 -0.17829,0.209 0.62044,0.426 3.1325,1.999 -0.37384,0.21877 2.0711,1.7032 -0.16374,0.86091 -0.62745,-0.0543 -0.91852,0.73157 0.61324,1.0242 -2.4978,-0.0554 -2.2571,0.09 -0.72998,-2.825 0.23072,-1.434 -0.22285,-0.167 -0.0481,0 -2.3231,0.181 -1.2872,0.293 -0.60083,-0.09 -2.036,-1.8241 -1.5565,-0.27489 4.8601,-4.386 0.0963,0.08 0.098,0.135 0.0446,0.187 0.0125,0.246 0.0535,0.17 0.22643,0.346 0.21037,0.112 0.9788,0.233 1.2302,-0.192" inkscape:connector-curvature="0" style="stroke:#ffffff">
      <title id="title6991">Dorchester, SC</title>
    </path>
    <path id="c45015" d="m 825.26,391.22 0.34588,-0.282 0.14263,-0.04 1.5368,-0.199 0.53843,0.05 1.3906,0.811 0.64184,0.49 0.27991,0.409 0.13906,0.114 1.9915,1.077 1.7347,0.568 4.7103,1.329 -0.65788,0.345 -0.47648,1.2021 -0.89366,0.0549 -0.89365,0.57635 -0.47648,0.68065 -1.1089,2.395 -0.65522,0.84194 0.15601,0.80506 -1.2116,0.94065 0.079,0.53504 -0.17908,0.49817 -0.80593,0.46129 0.16188,0.83961 -0.40844,0.28124 -0.27991,-0.129 -0.16774,-0.63222 -0.48791,-0.25383 0.0138,-0.85695 -1.2526,0.17714 -0.6996,-0.98714 -0.48702,-0.975 -0.79654,0.18196 -1.0003,-0.34196 -3.1325,-1.999 -0.62044,-0.426 0.17829,-0.209 0.19255,-0.49 -1.2141,-1.353 -0.32092,-0.214 0.129,-0.67303 0.86454,0.16222 0.86454,-0.75212 0.12901,-1.6912 -0.058,-1.7328 2.0646,-1.589" inkscape:connector-curvature="0" style="stroke:#ffffff">
      <title id="title6994">Berkeley, SC</title>
    </path>
    <path id="c45043" d="m 838.87,382.23 0.66902,0.31525 0.26425,0.82655 0.96728,0.35785 0.77554,-0.23865 1.0185,0.602 1.0611,1.305 0.20891,0.64461 1.7854,-0.14364 -1.1892,2.284 -0.0553,0.145 -0.13015,0.337 -0.0374,0.1 -0.0107,0.04 -0.009,0.02 -0.38332,1.358 -0.0499,0.225 -0.0642,0.321 -0.016,0.07 -0.0642,1.212 -0.0178,0.637 -0.0214,1.05 -0.009,0.03 0.009,0 0.0481,0.289 0.007,0.07 0.28169,0.684 -0.16046,0.803 -0.11232,0.199 -0.78981,1.102 -0.78803,0.49 0.18283,-0.91494 -1.3294,-5.6e-4 -1.3646,-0.63359 -0.83706,-0.28191 -4.7103,-1.328 -0.12837,-0.321 0.009,-0.426 1.2052,-2.683 2.4658,-3.4894 -0.29422,-0.47265 0.22999,-2.184 0.24961,-0.636 0.7488,-1.574 0.11054,-0.1 0.27456,-0.102" inkscape:connector-curvature="0" style="stroke:#ffffff">
      <title id="title6997">Georgetown, SC</title>
    </path>
    <path id="c45027" d="m 825.9,380.57 0.79981,1.1369 1.2897,-0.0529 -0.4375,1.6547 -1.1735,1.1991 0.40365,0.88369 -1.524,5.8254 -2.0646,1.589 -1.8649,0.611 -0.53842,0.105 -0.24782,-0.02 -0.59013,-0.19 -0.76842,-0.508 -0.60261,-0.578 -0.98236,-1.173 -1.0358,-1.824 0.87657,-1.8042 1.5459,-0.44899 -0.31691,-1.0028 2.3638,-0.94779 1.1555,-1.3002 3.7119,-3.15" inkscape:connector-curvature="0" style="stroke:#ffffff">
      <title id="title7000">Clarendon, SC</title>
    </path>
    <path id="c45089" d="m 838.64,381.81 0.22642,0.412 -0.27456,0.102 -0.11054,0.1 -0.7488,1.574 -0.24961,0.637 -0.22999,2.184 0.29421,0.47215 -2.4657,3.4888 -1.2052,2.683 -0.009,0.427 0.12837,0.32 -1.7347,-0.568 -1.9915,-1.077 -0.13906,-0.114 -0.27991,-0.409 -0.64184,-0.49 -1.3906,-0.811 -0.53843,-0.05 -1.5368,0.2 -0.14263,0.04 -0.34588,0.281 1.524,-5.8254 -0.40365,-0.88369 1.1735,-1.1991 0.4375,-1.6547 0.82369,-0.22639 0.82368,1.1034 0.80096,-0.29593 0.66099,0.54393 1.5225,-0.5449 2.9222,0.6449 0.98057,-0.344 0.15155,-0.258 0.90213,-0.692 0.1355,-0.06 0.37618,0.02 0.55448,0.265" inkscape:connector-curvature="0" style="stroke:#ffffff">
      <title id="title7003">Williamsburg, SC</title>
    </path>
    <path id="c45041" d="m 830.41,371.39 0.48315,0.08 1.0081,0.0361 0.95115,0.77698 0.21981,0.75397 -0.57808,0.75397 1.2591,1.4008 0.56464,1.5948 0.28715,1.4394 0.53462,0.75098 3.6709,2.1867 -0.16371,0.65627 -0.55448,-0.265 -0.37618,-0.02 -0.1355,0.06 -0.90213,0.692 -0.15155,0.258 -0.98057,0.344 -2.9222,-0.6449 -1.5225,0.5449 -0.66099,-0.54393 -0.80096,0.29593 -0.82368,-1.1034 -0.82369,0.22639 -1.2897,0.0529 -0.79981,-1.1369 1.277,-1.3934 -2.1524,-0.83355 -1.494,-0.642 3.8171,-4.099 0.4987,-0.68909 1.2396,0.0518 0.0143,-0.51812 0.24224,-0.68909 0.87426,0.0127 0.19035,-0.38623" inkscape:connector-curvature="0" style="stroke:#ffffff">
      <title id="title7006">Florence, SC</title>
    </path>
    <path id="c45069" d="m 823.43,360.82 4.4447,-0.724 4.8779,3.247 0.25495,0.176 -2.1216,7.949 -0.48315,-0.08 0,-0.09 -0.56161,-1.421 -0.29595,-0.563 -0.7078,-0.282 -0.57377,-0.83821 0.40616,-0.80732 -0.79426,-0.38151 -0.7557,0.63451 -0.79449,-0.38447 -0.0517,-0.369 0.041,-0.113 0.40812,-2.5411 -3.2928,-3.4119" inkscape:connector-curvature="0" style="stroke:#ffffff">
      <title id="title7009">Marlboro, SC</title>
    </path>
    <path id="c45031" d="m 826.32,366.77 -0.041,0.113 0.0517,0.369 0.79449,0.38447 0.7557,-0.63451 0.79426,0.38151 -0.40616,0.80732 0.57377,0.83821 0.7078,0.282 0.29595,0.563 0.56161,1.421 0,0.09 -0.19035,0.38573 -0.87426,-0.0132 -0.24224,0.68909 -0.0143,0.51812 -1.2396,-0.0518 -0.4987,0.68909 -3.8171,4.099 -0.0731,0.02 -1.5422,-1.094 -0.2817,-0.369 0.52239,-0.69 0.0963,-0.99 -0.76307,-1.237 -0.78624,-0.787 -0.63649,-0.192 -1.6295,-0.314 0,-0.05 4.0328,-3.641 3.1278,-0.66982 0.72137,-0.91318" inkscape:connector-curvature="0" style="stroke:#ffffff">
      <title id="title7012">Darlington, SC</title>
    </path>
    <path id="c45061" d="m 818.44,372.04 1.6295,0.314 0.63649,0.193 0.78624,0.786 0.76307,1.237 -0.0963,0.99 -0.52239,0.69 0.2817,0.369 1.5422,1.094 0.0731,-0.02 1.494,0.642 -0.33696,0.981 -0.97832,0.2081 -1.3982,1.3979 -0.62628,-0.98381 -0.98195,0.21061 -1.4719,-1.6091 -1.8568,0.2456 -1.4369,-0.3843 -0.32091,-1.319 0.24069,-0.273 0.45106,-1.214 -0.0802,-0.692 -0.0731,-0.298 0.5313,-0.729 1.7508,-1.84" inkscape:connector-curvature="0" style="stroke:#ffffff">
      <title id="title7015">Lee, SC</title>
    </path>
    <path id="c45055" d="m 815.26,366.69 1.9263,2.3134 1.249,2.9906 -1.7508,1.89 -0.5313,0.729 0.0731,0.298 0.0802,0.692 -0.45106,1.214 -0.24069,0.273 -2.291,1.991 -1.8167,1.015 -3.2288,-2.138 0.50633,-2.098 0.82229,-2.8736 -2.5107,-1.2884 2.3961,-2.3497 0.18806,1.236 0.37701,-0.0388 0.42615,-0.77211 0.86305,0.59568 2.2606,-1.0499 -0.78263,-0.94309 2.4354,-1.678" inkscape:connector-curvature="0" style="stroke:#ffffff">
      <title id="title7018">Kershaw, SC</title>
    </path>
    <path id="c45085" d="m 815.61,377.09 0.32091,1.319 1.4369,0.3843 1.8568,-0.2456 1.4719,1.6091 0.98195,-0.21061 0.62628,0.98381 1.3982,-1.3979 0.97832,-0.2081 0.33696,-0.981 2.1524,0.83355 -1.277,1.3934 -3.7119,3.15 -1.1555,1.3002 -2.3638,0.94779 0.31691,1.0028 -1.5459,0.44899 -0.87657,1.8042 -1.9843,-2 0.17476,-1.3443 -0.80144,-2.7272 -0.65908,-1.7917 0.52457,-1.0379 -0.49217,-1.2419 2.291,-1.991" inkscape:connector-curvature="0" style="stroke:#ffffff">
      <title id="title7021">Sumter, SC</title>
    </path>
    <path id="c45017" d="m 806.71,385.29 0.98592,0.601 1.4593,0.6195 0.42713,-0.2146 1.0926,0.7131 1.4425,0.181 1.5954,-0.52911 0.86322,0.56911 1.9843,2 1.0358,1.824 -0.2086,0.506 -1.578,-0.43599 -0.36537,2.269 -0.79553,-0.24696 -0.84216,-1.0398 -2.8076,-1.4334 -2.4812,0.29217 -1.7508,-1.641 1.5244,-0.955 0.51525,-0.523 -0.26565,-0.176 -0.52238,-0.225 -0.97879,0.105 -0.29061,0.5926 -0.47246,-0.0199 -0.0392,-2.2607 0.0303,-0.28 0.44216,-0.289" inkscape:connector-curvature="0" style="stroke:#ffffff">
      <title id="title7024">Calhoun, SC</title>
    </path>
    <path id="c45029" d="m 813.45,400.56 1.5565,0.27489 2.036,1.8241 0.60083,0.09 1.2872,-0.293 2.3231,-0.182 0.0481,0 0.22285,0.168 -0.23072,1.433 0.72998,2.826 0.0571,1.1 -0.41897,2.017 0.7078,1.239 1.1321,2.523 0.81477,1.13 0.36014,0.09 0.14441,-0.04 0.025,-0.17 -0.025,-0.06 -0.21751,-0.192 0.2086,-0.266 1.182,-0.513 0.15154,0.126 0.009,0 -1.3906,1.441 -0.11232,0 -0.68825,-0.28822 -0.43788,0.36281 -0.54089,0.0853 -0.14854,-0.41938 -0.69653,0.23062 -0.14795,0.25788 -2.3458,-1.6873 -1.3902,-0.23471 -1.1226,-1.7064 -2.6134,-0.2156 -2.7321,-3.595 -3.3118,-2.967 2.4624,-2.3036 0.83619,0.76117 0.33582,-0.69823 -0.37415,-0.79736 1.5856,-1.256 0.12837,-0.112" inkscape:connector-curvature="0" style="stroke:#ffffff">
      <title id="title7027">Colleton, SC</title>
    </path>
    <path id="c45005" d="m 808.48,404.97 -2.1234,1.87 -0.21573,0.201 -0.25673,0.353 -0.32983,0.919 -0.0553,0.848 -0.15333,1.095 -0.80229,1.357 -0.82725,0.556 -0.3637,0.175 -3.6549,-6.453 -1.576,-0.866 1.182,-1.703 1.7686,0.271 1.7668,0.353 1.535,-0.248 1.6812,-0.497 2.4247,1.769" inkscape:connector-curvature="0" style="stroke:#ffffff">
      <title id="title7030">Allendale, SC</title>
    </path>
    <path id="c45009" d="m 813.32,400.67 -1.5856,1.256 0.37415,0.79736 -0.33582,0.69823 -0.83619,-0.76117 -2.4624,2.3036 -2.4247,-1.769 -0.67571,-0.763 -0.0891,-0.332 -0.56339,-4.699 -0.15868,-0.813 -0.22642,-0.635 2.2571,0.998 2.0735,0.706 0.60261,0.209 1.9291,1.006 2.1216,1.798" inkscape:connector-curvature="0" style="stroke:#ffffff">
      <title id="title7033">Bamberg, SC</title>
    </path>
    <path id="c45075" d="m 806.77,389.32 1.7508,1.641 2.4812,-0.29217 2.8076,1.4334 0.84216,1.0398 0.79553,0.24696 0.36537,-2.269 1.578,0.43599 0.2086,-0.506 0.98236,1.173 0.60261,0.578 0.76842,0.508 0.59013,0.19 0.24782,0.02 0.53842,-0.105 1.8649,-0.611 0.058,1.7328 -0.12901,1.6912 -0.86454,0.75212 -0.86454,-0.16222 -0.129,0.67303 -1.2302,0.192 -0.9788,-0.233 -0.21037,-0.112 -0.22643,-0.346 -0.0535,-0.17 -0.0125,-0.246 -0.0446,-0.187 -0.098,-0.135 -0.0963,-0.08 -4.8601,4.386 -0.12837,0.113 -2.1216,-1.799 -1.9291,-1.006 -0.60261,-0.208 -2.0735,-0.707 -2.2571,-0.998 -1.5074,-0.71342 -1.5074,4.2e-4 2.9275,-4.252 2.5156,-1.673" inkscape:connector-curvature="0" style="stroke:#ffffff">
      <title id="title7036">Orangeburg, SC</title>
    </path>
    <path id="c45011" d="m 804.34,395.96 0.22642,0.635 0.15868,0.813 0.56339,4.699 0.0891,0.332 0.67571,0.763 -1.6812,0.497 -1.535,0.248 -1.7668,-0.353 -1.7686,-0.271 -1.182,1.703 -3.2074,-1.503 6.413,-8.276 1.5074,-4.2e-4 1.5074,0.71342" inkscape:connector-curvature="0" style="stroke:#ffffff">
      <title id="title7039">Barnwell, SC</title>
    </path>
    <path id="c45003" d="m 796.23,386.99 0.0802,0.119 0.78802,0.796 1.6236,0.56961 1.0953,1.3437 0.97698,0.0817 0.42789,0.06 1.1803,0.326 1.8488,0.717 -2.9275,4.252 -6.413,8.276 -1.7882,-1.352 -1.248,-1.766 -0.45107,-1.742 -1.2748,-1.487 -0.90035,-0.852 -0.16224,-0.154 5.8514,-7.513 1.2926,-1.663" inkscape:connector-curvature="0" style="stroke:#ffffff">
      <title id="title7042">Aiken, SC</title>
    </path>
    <path id="c45063" d="m 799.46,379 0.90043,0.41737 -0.26297,0.52313 0.97976,1.0255 0.60958,-0.085 0.55447,0 0.69711,0.07 0.70066,0.408 1.7187,1.239 0.31379,0.33 0.70779,1.084 0.0642,0.129 0.26565,1.142 -0.44216,0.289 -0.0303,0.28 0.0392,2.2607 0.47246,0.0199 0.29061,-0.5926 0.97879,-0.105 0.52238,0.225 0.26565,0.176 -0.51525,0.523 -1.5244,0.955 -2.5156,1.673 -1.8488,-0.717 -1.1803,-0.326 -0.42789,-0.06 -0.97698,-0.0817 -1.0953,-1.3437 -1.6236,-0.56961 -0.78802,-0.796 -0.0802,-0.119 1.1678,-4.837 1.5626,-0.22428 -0.99426,-1.3316 0.47543,-1.09 1.019,-0.50614" inkscape:connector-curvature="0" style="stroke:#ffffff">
      <title id="title7045">Lexington, SC</title>
    </path>
    <path id="c45079" d="m 808.78,375.86 -0.50633,2.098 3.2288,2.138 1.8167,-1.015 0.49217,1.2416 -0.52457,1.0382 0.65908,1.7917 0.80144,2.7272 -0.17476,1.3443 -0.86322,-0.56911 -1.5954,0.52911 -1.4425,-0.181 -1.0926,-0.7131 -0.42713,0.2146 -1.4593,-0.6195 -0.98592,-0.601 -0.26565,-1.143 -0.0642,-0.128 -0.70779,-1.084 -0.31379,-0.33 -1.7187,-1.239 -0.70066,-0.408 -0.69711,-0.07 -0.55447,0 -0.60958,0.085 -0.97976,-1.0255 0.26297,-0.52313 -0.90043,-0.41737 0.25673,-1.018 0.6347,0.05 2.0743,0.75823 0.0324,-0.99582 0.93137,0.16759 2.9061,-1.31 2.4871,-0.788" inkscape:connector-curvature="0" style="stroke:#ffffff">
      <title id="title7048">Richland, SC</title>
    </path>
    <path id="c45039" d="m 806.81,369.75 0.2817,1.952 2.5107,1.2884 -0.82229,2.8736 -2.4871,0.788 -2.9061,1.31 -0.93137,-0.16759 -0.0324,0.99582 -2.0743,-0.75823 -0.6347,-0.05 -2.8829,-5.522 -0.26743,-1.775 3.2466,-0.323 4.3235,-0.344 2.6761,-0.273" inkscape:connector-curvature="0" style="stroke:#ffffff">
      <title id="title7051">Fairfield, SC</title>
    </path>
    <path id="c45071" d="m 796.84,372.46 2.8829,5.522 -0.25673,1.018 -1.019,0.50614 -0.47543,1.09 0.99426,1.3316 -1.5626,0.22428 -0.56339,0.144 -0.82725,-0.192 -0.54734,-0.202 -1.2302,-0.698 -1.4388,-0.603 -0.48851,-0.136 -2.1145,0.537 -0.36108,-0.21844 -0.26119,0.3809 0.17119,0.77054 -1.6295,-1.343 0.48138,-1.125 0.37599,-1.4443 1.1252,-1.0947 0.50099,-0.497 1.1553,-2.236 0.85399,-2 2.4479,1.414 0.65967,-0.874 0.28347,-0.139 0.55447,-0.153 0.24961,0 0.0392,0.02" inkscape:connector-curvature="0" style="stroke:#ffffff">
      <title id="title7054">Newberry, SC</title>
    </path>
    <path id="c45081" d="m 789.74,381.94 -0.17119,-0.77054 0.26119,-0.3809 0.36108,0.21844 2.1145,-0.537 0.48851,0.136 1.4388,0.603 1.2302,0.698 0.54734,0.202 0.82725,0.192 0.56339,-0.144 -1.1678,4.837 -1.2926,1.663 -3.6495,-0.659 -0.47246,-0.282 -0.24782,-0.216 -0.74167,-1.832 -0.7078,0.07 -1.3746,0.554 1.9932,-4.355" inkscape:connector-curvature="0" style="stroke:#ffffff">
      <title id="title7057">Saluda, SC</title>
    </path>
    <path id="c45037" d="m 787.74,386.29 1.3746,-0.554 0.7078,-0.07 0.74167,1.832 0.24782,0.216 0.47246,0.282 3.6495,0.659 -5.8514,7.513 -0.31201,-0.29 -1.8578,-0.786 0.40133,-1.2011 -1.0288,-0.84296 -1.0288,-0.84297 0.11217,-1.1564 0.68361,-1.6239 -0.87487,-1.0871 -0.0956,-0.89662 1.9594,-0.843 0.69889,-0.305" inkscape:connector-curvature="0" style="stroke:#ffffff">
      <title id="title7060">Edgefield, SC</title>
    </path>
    <path id="c45065" d="m 787.05,386.6 -1.9594,0.843 0.0956,0.89662 0.87487,1.0871 -0.68361,1.6239 -0.11217,1.1564 2.0576,1.6859 -0.40133,1.2011 -2.2001,-1.921 -0.76307,-1.438 -1.182,-0.972 -0.49742,-0.355 -1.6402,-0.827 -0.0874,0 -0.26743,0.103 -0.11945,-0.03 -2.8437,-1.694 -0.78803,-1.198 1.0537,-1.551 0.79337,-0.249 0.70067,0.305 0.2086,-0.01 1.2141,-0.121 0.92353,-0.291 0.92531,1.849 0.73097,-1.0991 0.73098,0.73011 0.91826,0.0139 0.25309,-0.33258 1.9932,-0.0933 0.0713,0.701" inkscape:connector-curvature="0" style="stroke:#ffffff">
      <title id="title7063">McCormick, SC</title>
    </path>
    <path id="c45047" d="m 781.78,376.71 0.33874,0.353 1.6171,1.18 2.7634,1.439 1.6064,0.916 1.6295,1.343 -1.9932,4.355 -0.69889,0.305 -0.0713,-0.701 -1.9932,0.0933 -0.25309,0.33258 -0.91826,-0.0139 -0.73097,-0.73011 -0.73098,1.0991 -0.92531,-1.849 0.60974,-0.682 0.36014,-0.491 0.24247,-0.651 0.0802,-0.675 -0.0874,-0.651 -0.24247,-0.624 -0.40115,-0.531 -0.27456,-0.259 -0.36727,-0.264 -0.26565,-0.105 -0.71671,-1.423 1.4227,-1.766" inkscape:connector-curvature="0" style="stroke:#ffffff">
      <title id="title7066">Greenwood, SC</title>
    </path>
    <path id="c45059" d="m 788.47,371.39 4.1327,0.804 -0.85399,2 -1.1553,2.236 -0.50099,0.497 -1.1252,1.0947 -0.37599,1.4443 -0.48138,1.125 -1.6064,-0.916 -2.7634,-1.439 -1.6171,-1.18 -0.33874,-0.353 -1.5083,-1.519 1.2765,-1.398 -0.2086,-1.166 0.57052,-2.667 0.46533,-2.122 1.5952,0.94419 0.38627,0.70194 2.588,1.1616 1.5209,0.75123" inkscape:connector-curvature="0" style="stroke:#ffffff">
      <title id="title7069">Laurens, SC</title>
    </path>
    <path id="c45001" d="m 780.27,375.19 1.5083,1.519 -1.4227,1.766 0.71671,1.423 0.26565,0.105 0.36727,0.264 0.27456,0.259 0.40115,0.531 0.24247,0.624 0.0874,0.651 -0.0802,0.675 -0.24247,0.651 -0.36014,0.491 -0.60974,0.682 -0.92353,0.291 -1.2141,0.121 -0.2086,0.01 -0.70067,-0.304 -0.79337,0.249 -1.0537,1.551 -3.3429,-4.122 7.0887,-7.441" inkscape:connector-curvature="0" style="stroke:#ffffff">
      <title id="title7072">Abbeville, SC</title>
    </path>
    <path id="c45007" d="m 770.01,373.39 1.0851,-1.7101 4.8518,-3.7149 0.61732,0.39262 0.12943,0.75212 0.18571,2.4793 0.3227,0.74 0.5677,0.63514 0.25955,0.73786 2.2428,1.48 -7.0887,7.441 -0.7078,-1.841 -1.9915,-2.803 -0.62578,-0.966 0.007,-0.06 -0.19255,-0.146 -0.39402,-0.112 -0.67392,0.09 -0.74881,0.185 -0.016,0 -0.2086,0.105 2.3784,-3.688" inkscape:connector-curvature="0" style="stroke:#ffffff">
      <title id="title7075">Anderson, SC</title>
    </path>
    <path id="c45087" d="m 790.01,363.72 1.2854,0.17 2.5156,0.112 0.36192,0.105 0.22465,0.121 0.58834,0.448 -0.32983,0.467 0.88919,0.94085 -0.53524,0.81699 0.45566,0.3525 0.14601,0.66216 0.23891,0.69312 0.8737,0.42992 -0.0862,0.8944 -0.0708,0.75506 0.26743,1.775 -0.0392,-0.02 -0.24961,0 -0.55447,0.154 -0.28347,0.139 -0.65967,0.873 -2.4479,-1.413 -4.1327,-0.804 0.27991,-2.5 0.19433,-3.245 0.59548,-1.134 0.47246,-0.795" inkscape:connector-curvature="0" style="stroke:#ffffff">
      <title id="title7078">Union, SC</title>
    </path>
    <path id="c45025" d="m 816.14,361.88 7.2973,-1.057 3.2928,3.4119 -0.40812,2.5411 -0.72137,0.91318 -3.1278,0.66982 -4.0328,3.641 -1.249,-2.9906 -1.9263,-2.3134 -3.5978,-4.152 4.4732,-0.664" inkscape:connector-curvature="0" style="stroke:#ffffff">
      <title id="title7081">Chesterfield, SC</title>
    </path>
    <path id="c45057" d="m 804.32,357.64 1.494,1.526 1.3175,1.327 0.12837,2.346 0.009,0.217 0.37797,0.07 4.0115,-0.592 3.5978,4.152 -2.4354,1.678 0.78263,0.94309 -2.2606,1.0499 -0.86305,-0.59568 -0.42615,0.77211 -0.37701,0.0388 -0.18806,-1.236 -2.3961,2.3497 -0.2817,-1.952 -0.68997,-2.043 0.0232,-0.786 0.26565,-0.949 -0.40293,-1.157 -0.40115,-1.029 -0.20146,-0.313 0.52831,-0.88554 -0.12375,-2.0034 -1.3659,-1.5844 -0.12268,-1.3517" inkscape:connector-curvature="0" style="stroke:#ffffff">
      <title id="title7084">Lancaster, SC</title>
    </path>
    <path id="c45023" d="m 805.41,363.47 0.20146,0.313 0.40115,1.029 0.40293,1.157 -0.26565,0.949 -0.0232,0.786 0.68997,2.043 -2.6761,0.273 -4.3235,0.344 -3.2466,0.323 0.0708,-0.75506 0.0862,-0.8944 -0.87371,-0.42992 -0.2389,-0.69312 -0.14601,-0.66216 -0.45566,-0.3525 0.53524,-0.81699 -0.88919,-0.94085 10.751,-1.672" inkscape:connector-curvature="0" style="stroke:#ffffff">
      <title id="title7087">Chester, SC</title>
    </path>
    <path id="c45091" d="m 796.23,356.9 5.3022,-0.483 0.4393,0.65798 -0.40924,1.4143 0.55086,0.36675 1.5117,-1.5165 0.69755,0.3075 0.12268,1.3517 1.3659,1.5844 0.12375,2.0034 -0.52831,0.88554 -10.751,1.672 0.32983,-0.467 -0.34766,-0.649 -0.60261,-1.583 -0.0654,-2.3244 1.336,-0.5891 -0.33655,-1.8115 0.53664,-0.749 0.72385,-0.07" inkscape:connector-curvature="0" style="stroke:#ffffff">
      <title id="title7090">York, SC</title>
    </path>
    <path id="c45021" d="m 788.04,357.76 7.4631,-0.788 -0.53664,0.749 0.33655,1.8115 -1.336,0.5891 0.0654,2.3244 0.60261,1.583 0.34766,0.649 -0.58834,-0.448 -0.22465,-0.121 -0.36192,-0.105 -2.5156,-0.112 -1.2854,-0.17 -0.9467,-0.506 -1.0038,-2.079 -1.9932,-3.175 1.9772,-0.202" inkscape:connector-curvature="0" style="stroke:#ffffff">
      <title id="title7093">Cherokee, SC</title>
    </path>
    <path id="c45083" d="m 784.31,358.15 1.7615,-0.192 1.9932,3.175 1.0038,2.079 0.9467,0.506 -0.47246,0.795 -0.59548,1.134 -0.19433,3.245 -0.27991,2.5 -1.5209,-0.75123 -2.588,-1.1616 -0.38627,-0.70194 -1.5952,-0.94419 -1.6474,-1.31 -0.0713,-0.184 -0.41897,-3.6 -0.5313,-4.114 4.5962,-0.475" inkscape:connector-curvature="0" style="stroke:#ffffff">
      <title id="title7096">Spartanburg, SC</title>
    </path>
    <path id="c45045" d="m 777.11,358.74 2.5994,-0.119 0.5313,4.114 0.41897,3.6 0.0713,0.184 1.6474,1.31 -0.46533,2.122 -0.57052,2.667 0.2086,1.166 -1.2765,1.398 -2.2428,-1.48 -0.25955,-0.73786 -0.5677,-0.63514 -0.3227,-0.74 -0.18571,-2.4793 -0.12943,-0.75212 -0.61732,-0.39262 0.0909,-0.113 -0.15332,-0.779 -0.20147,-0.538 -1.33,-2.917 -0.83347,0.13345 0.0186,-1.2867 -2.9571,0.86182 -0.59609,-0.32756 3.2947,-2.25 3.8278,-2.009" inkscape:connector-curvature="0" style="stroke:#ffffff">
      <title id="title7099">Greenville, SC</title>
    </path>
    </g>
  </svg>
