<svg xmlns:dc="http://purl.org/dc/elements/1.1/" xmlns:cc="http://creativecommons.org/ns#" xmlns:rdf="http://www.w3.org/1999/02/22-rdf-syntax-ns#" xmlns:svg="http://www.w3.org/2000/svg" xmlns="http://www.w3.org/2000/svg" xmlns:sodipodi="http://sodipodi.sourceforge.net/DTD/sodipodi-0.dtd" xmlns:inkscape="http://www.inkscape.org/namespaces/inkscape" width="102.63189" height="128.47800999999998" version="1.0" id="svg2" inkscape:version="0.91 r13725" sodipodi:docname="USA counties.svg">
  <defs id="defs9439"/>
  <sodipodi:namedview pagecolor="#ffffff" bordercolor="#666666" borderopacity="1" objecttolerance="10" gridtolerance="10" guidetolerance="10" inkscape:pageopacity="0" inkscape:pageshadow="2" inkscape:window-width="798" inkscape:window-height="828" id="namedview9437" showgrid="false" showguides="true" inkscape:zoom="0.64950808" inkscape:cx="494.98999" inkscape:cy="313.535" inkscape:window-x="-7" inkscape:window-y="0" inkscape:window-maximized="0" inkscape:current-layer="svg2"/>
  <metadata id="metadata4">
    <rdf:RDF>
      <cc:Work>
        <dc:format>image/svg+xml</dc:format>
        <dc:type rdf:resource="http://purl.org/dc/dcmitype/StillImage"/>
        <dc:title/>
        <cc:license rdf:resource="http://creativecommons.org/publicdomain/zero/1.0/"/>
        <dc:date>2019-10-06</dc:date>
        <dc:creator>
          <cc:Agent>
            <dc:title>U.S. Census Bureau, Abe.suleiman, Lokal_Profil</dc:title>
          </cc:Agent>
        </dc:creator>
        <dc:source>https://commons.wikimedia.org/wiki/File:Usa_counties_large.svg</dc:source>
      </cc:Work>
      <cc:License rdf:about="http://creativecommons.org/publicdomain/zero/1.0/">
        <cc:permits rdf:resource="http://creativecommons.org/ns#Reproduction"/>
        <cc:permits rdf:resource="http://creativecommons.org/ns#Distribution"/>
        <cc:permits rdf:resource="http://creativecommons.org/ns#DerivativeWorks"/>
      </cc:License>
    </rdf:RDF>
  </metadata>
  <style id="style6">
  /*
   * Below are Cascading Style Sheet (CSS) definitions in use in this file,
   * which allow easily changing how counties are displayed.
   *
   *
   * For the U.S. Census county codes (FIPS codes) used in this file to identify individual counties, see this link:
   * https://www2.census.gov/geo/docs/reference/codes/files/national_county.txt
   *
   * The county codes used in this file combine the 2-digit state code, which is in the second column of the file
   * linked above, and the 3-digit county code, which is in the third column of the file linked above. Each value
   * for the "id" attribute for each county is in the following form: "c[state_code][county-code]". For example,
   * for Loving Country in Texas, the state code is "48" and the county code is "301", so the id name for the
   * county is "c48301".
   *
   * County codes used in this file can also be found on Wikimedia Commons at this link:
   * https://commons.wikimedia.org/wiki/File_talk:Usa_counties_large.svg/county_codes
   *
   * Examples:
   *
   * To color two counties red (in this case Loving County and Dallas County in Texas) simply
   * go to the CSS insertion point and add:
   *
   * #c48301, #c48113 {fill:red}
   *
   * To color an entire state's counties (in the case New Mexico, with "35" being the state code) a green,
   * go to the CSS insertion point and add:
   *
   * path[id*='c35'] {fill:#34A853}
   *
   */
  #counties {fill:#d0d0d0;stroke:#000;stroke-width:.17829;} 
  #borders {fill:none;stroke:#221e1f;stroke-width:.89143;} 
  #separator {fill:none;stroke:#a9a9a9;stroke-width:2.3177309;}
 </style>
  <g id="counties" transform="translate(-196.14811000000003,-190.72699)" style="fill:#d0d0d0;stroke:#ffffff;stroke-width:0.17828999">
    <path id="c49037" d="m 290.68,284.71 -0.78803,8.01 -0.86112,6.237 -1.2765,9.094 -1.5743,11.154 -17.253,-2.452 -5.9548,-0.9 -2.94,-0.58 -4.6052,-0.697 -11.933,-1.872 0.55447,0.05 1.3264,0.03 0.46283,-1.1894 0.92121,0.79695 0.28457,-0.50181 0.3355,0.21124 0.97214,-1.113 0.38643,0.44042 0.53922,-0.22168 2.2454,0.21124 0.60974,-0.209 1.2783,-1.109 0.7543,-1.725 0.72884,-0.9102 0.14312,-0.40083 -0.61997,-0.3294 0.32228,-0.38033 1.3154,0.81656 0.88252,-0.4058 0.30665,-0.484 -0.3131,-0.69519 0.29808,-0.23681 0.47635,0.17064 0.29808,-0.66972 -0.49136,-0.10948 -0.3584,-0.49212 0.71117,-0.46666 1.3987,0.16999 -0.53666,-0.46665 0.4943,-0.932 1.1282,-0.64178 0.65233,-1.1441 1.4366,-0.50596 0.64344,-1.1934 0.70521,-1.197 -0.52499,-0.73821 0.90273,-0.0243 0.79697,-1.6107 2.0132,0.26649 1.5054,-0.12066 0.0777,-1.1253 1.5832,-1.246 0.97764,0.34221 1.4007,-2.3702 1.6313,-0.756 0.52239,-0.547 0.18363,-1.155 -0.0232,-0.972 -0.55361,-1.7154 -0.77654,-1.1923 0.42975,-2.2193 -0.32804,-0.434 17.075,2.452" inkscape:connector-curvature="0" style="stroke:#ffffff">
      <title id="title8347">San Juan, UT</title>
    </path>
    <path id="c49017" d="m 228.92,283.3 0.62757,0.05 6.7731,1.188 0.4261,0.128 0.86826,0.178 0.63292,0.1 1.938,0.212 7.5843,1.284 5.0634,0.773 21.311,3.284 -1.6313,0.756 -1.4007,2.3702 -0.97764,-0.34221 -1.5832,1.246 -0.0777,1.1253 -1.5054,0.12066 -2.0132,-0.26649 -0.79697,1.6107 -0.90273,0.0243 0.52499,0.73821 -0.70521,1.197 -0.64344,1.1934 -1.4366,0.50596 -0.65233,1.1441 -1.1282,0.64178 -21.343,-3.43 -0.0892,0.06 -0.15332,0 -9.2388,-1.6074 0.0342,-0.16953 -5.5629,-0.9561 0.65075,-4.248 0.30487,-1.764 1.9501,0.38552 0.32483,-1.8857 1.4138,0.16418 0.0776,-0.2959 0.49708,0.0399 0.33039,-1.627 -0.37072,-0.10201 0.87951,-3.811" inkscape:connector-curvature="0" style="stroke:#ffffff">
      <title id="title8350">Garfield, UT</title>
    </path>
    <path id="c49029" d="m 259.68,212.98 1.5261,0.521 0.61954,1.7365 -0.34056,1.0752 0.96011,0.66132 -0.10519,0.419 -0.16937,0.321 -0.2086,0.265 -0.44928,0.392 -1.8809,0.312 -0.42685,0.92163 -2.4257,0.0594 -0.32983,0.2 -0.29774,0.276 -0.78624,0.777 -0.0339,0.147 0.0178,0.483 0.0553,0.119 0.0963,0.08 0.73098,0.933 0.50812,1.285 0.0553,0.346 -0.93958,1.414 -0.2496,0.112 -0.28882,0.06 -0.15333,-0.02 -1.3496,-0.657 -1.4299,-1.698 -1.1368,-2.1612 0.58773,0.0337 -0.74486,-2.0044 0.35257,-2.5531 -0.19968,-0.797 0.11232,-0.359 0.37619,-0.167 0.97344,-0.284 0.41006,0.05 0.4582,0.145 0.11945,0.33 0.29774,0.401 0.51347,0.226 0.4992,-0.04 0.9964,-0.88528 1.8241,0.35628 0.5937,-0.46 0.53843,-0.553 0.16937,-0.339 -0.0627,-0.74928 0.61719,-0.71972" inkscape:connector-curvature="0" style="stroke:#ffffff">
      <title id="title8353">Morgan, UT</title>
    </path>
    <path id="c49011" d="m 251.45,216.83 -0.35257,2.5531 0.74486,2.0044 -0.58773,-0.0337 1.1368,2.1612 -0.2817,0.13 -0.47424,0.136 -1.6313,0.257 -0.78802,-0.136 -0.42433,-0.08 -0.45539,-0.89392 0.46969,-1.0261 0.0731,-0.403 -0.82012,-0.137 -2.6101,1.248 -2.3463,1.388 -2.7082,-7.6 4.3627,-0.699 1.0929,-0.139 2.6761,0.465 2.9239,0.805" inkscape:connector-curvature="0" style="stroke:#ffffff">
      <title id="title8356">Davis, UT</title>
    </path>
    <path id="c49057" d="m 258.39,211.32 0.29075,1.0699 1.0036,0.58614 -0.61719,0.71972 0.0627,0.74928 -0.16937,0.339 -0.53843,0.553 -0.5937,0.46 -1.8241,-0.35628 -0.9964,0.88528 -0.4992,0.04 -0.51347,-0.226 -0.29774,-0.401 -0.11945,-0.33 -0.4582,-0.145 -0.41006,-0.05 -0.97344,0.284 -0.37619,0.167 -0.11232,0.359 0.19968,0.797 -2.9239,-0.805 -2.6761,-0.465 -1.0929,0.139 -4.3627,0.699 5.3593,-5.174 3.5426,0.608 1.2302,-0.456 -0.0599,-1.2148 1.595,0.0328 0.0963,0.522 0.0891,0.159 1.6545,0.964 0.28169,0.04 0.62804,-0.92371 3.5813,0.37471" inkscape:connector-curvature="0" style="stroke:#ffffff">
      <title id="title8359">Weber, UT</title>
    </path>
    <path id="c49033" d="m 268.35,199.37 -2.7314,17.143 -2.142,1.3725 -1.964,0.48249 0.44928,-0.392 0.2086,-0.265 0.16937,-0.321 0.10519,-0.419 -0.96011,-0.66132 0.34056,-1.0752 -0.61954,-1.7365 -1.5261,-0.521 -1.0036,-0.58614 -0.29075,-1.0699 1.8007,-2.762 0.50879,-2.1651 -0.0634,-1.565 -0.73244,-3.5462 0.14973,-0.85848 0.50152,-0.0376 0.0617,-2.2215 7.7377,1.205" inkscape:connector-curvature="0" style="stroke:#ffffff">
      <title id="title8362">Rich, UT</title>
    </path>
    <path id="c49005" d="m 249.58,196.39 0.91818,0.146 10.116,1.637 -0.0617,2.2215 -0.50152,0.0376 -0.14973,0.85848 0.73244,3.5462 0.0634,1.565 -0.50879,2.1651 -1.8007,2.762 -3.5813,-0.37471 -0.62804,0.92371 -0.28169,-0.04 -1.6545,-0.964 -0.0891,-0.159 -0.0963,-0.522 -0.6465,-0.85002 0.4889,0.017 0.30312,-0.40618 -0.4607,-0.42682 0.0491,-0.775 -0.24473,-0.26831 -0.0919,-0.33869 -0.96568,0.3774 -0.0108,-3.1298 -0.46549,-0.92637 0.89475,-1.4892 0.20147,-0.915 -0.16937,-1.328 -0.40115,-0.986 -0.51525,-0.676 -0.44215,-1.681" inkscape:connector-curvature="0" style="stroke:#ffffff">
      <title id="title8365">Cache, UT</title>
    </path>
    <path id="c49003" d="m 218.14,190.73 1.1179,0.282 1.3425,0.32 0.19968,0.04 1.4299,0.249 0.53129,0.09 5.584,0.95 0.49029,0.08 6.7339,1.139 4.894,0.828 4.3306,0.748 3.5515,0.614 0.009,0 1.2284,0.317 0.44215,1.681 0.51525,0.676 0.40115,0.986 0.16937,1.328 -0.20147,0.915 -0.89475,1.4892 0.46549,0.92637 0.0108,3.1298 0.96568,-0.3774 0.0919,0.33869 0.24473,0.26831 -0.0491,0.775 0.4607,0.42682 -0.30312,0.40618 -0.48892,-0.017 0.64649,0.85002 -1.595,-0.0328 0.0599,1.2148 -1.2302,0.456 -3.5426,-0.608 -5.3593,5.174 -5.5055,0.826 -21.093,-3.903 4.3466,-22.589" inkscape:connector-curvature="0" style="stroke:#ffffff">
      <title id="title8368">Box Elder, UT</title>
    </path>
    <path id="c49009" d="m 298.78,227.33 -1.0768,7.964 -1.2872,-0.185 0.0806,-0.61314 -0.63506,-0.16586 0.21037,-1.501 0.0784,-0.847 -0.71576,-0.13354 0.26826,-1.6245 -3.2805,-0.451 -0.28546,1.7084 -1.6294,0.81474 -0.54101,-0.21399 0.2641,-1.2726 -0.13846,-0.60163 -1.3737,0.1345 -1.3056,0.20889 -1.3056,-0.29803 -0.38969,0.47741 -1.1202,0.0152 -0.58834,0.02 -1.7276,-1.324 -0.37619,-0.154 0.61687,-4.202 0.0178,0 2.4657,0.353 2.3944,0.337 0.66857,0.1 8.0176,1.07 2.6939,0.392" inkscape:connector-curvature="0" style="stroke:#ffffff">
      <title id="title8371">Daggett, UT</title>
    </path>
    <path id="c49035" d="m 243.1,224 2.3463,-1.388 2.6101,-1.248 0.82012,0.137 -0.0731,0.403 -0.46969,1.0261 0.45539,0.89392 0.42433,0.08 0.78802,0.136 1.6313,-0.257 0.47424,-0.136 0.2817,-0.13 1.4299,1.698 -0.24877,1.134 0.64189,1.1595 -0.4269,1.1213 0.82002,1.1722 -0.81833,0.62 -1.7365,0.787 -0.70201,0.0234 -1.0374,0.0607 -0.6461,0.58242 -1.1679,0.3961 -0.23654,-0.31629 -0.83283,0.41043 0.0802,0.42907 -1.0022,0.23717 -0.7338,-0.47917 -0.24931,-0.77732 -1.3931,0.30876 -0.69215,-0.81827 -0.29565,-1.1029 0.39156,-2.1601 0.0215,-2.2394 -0.45423,-1.7636" inkscape:connector-curvature="0" style="stroke:#ffffff">
      <title id="title8374">Salt Lake, UT</title>
    </path>
    <path id="c49043" d="m 265.62,216.52 -0.93244,5.801 9.2959,1.535 7.7305,1.109 0.8112,0.121 -0.61687,4.202 -2.8615,-0.403 -3.1109,-0.53889 -0.27066,0.57014 -3.2732,0.1103 -1.4067,-0.1602 -0.74816,0.37474 -1.0728,-0.24739 -1.776,0.59114 -1.208,-0.49084 -0.1753,0.933 -0.81751,0.31821 -0.4929,1.1838 -0.26386,0.225 -0.77912,0.137 -0.65298,0.0483 -0.59887,-0.43864 -0.76117,0.1294 -0.59888,0.45399 -1.3193,-0.747 -1.7757,-1.471 -0.5649,-1.2764 -0.67087,-0.0217 -0.52832,0.64817 -0.67181,0.88298 -0.90699,-0.29295 -0.82002,-1.1722 0.4269,-1.1213 -0.64189,-1.1595 0.24877,-1.134 1.3496,0.657 0.15333,0.02 0.28882,-0.06 0.2496,-0.112 0.93958,-1.414 -0.0553,-0.346 -0.50812,-1.285 -0.73098,-0.933 -0.0963,-0.08 -0.0553,-0.119 -0.0178,-0.483 0.0339,-0.147 0.78624,-0.777 0.29774,-0.276 0.32983,-0.2 2.4257,-0.0594 0.42685,-0.92163 1.8809,-0.312 1.964,-0.48249 2.142,-1.3725" inkscape:connector-curvature="0" style="stroke:#ffffff">
      <title id="title8377">Summit, UT</title>
    </path>
    <path id="c49051" d="m 254.6,229.8 0.90699,0.29295 0.67181,-0.88298 0.52832,-0.64817 0.67087,0.0217 0.5649,1.2764 1.7757,1.471 1.3193,0.747 0.59888,-0.45399 0.76117,-0.1294 0.59887,0.43864 0.65298,-0.0482 0.77912,-0.137 0.26386,-0.225 0.49291,-1.1838 0.8175,-0.31821 -0.91639,5.649 -1.0679,8.006 -0.65967,4.191 -3.3108,-0.537 0.17272,-0.94744 -0.84619,-0.25458 0.11967,-0.34633 -0.71682,-0.88267 -0.39076,-1.1136 -0.49945,-0.0404 -0.11232,-0.241 -0.025,-0.192 0.73097,-1.567 -0.61791,-2.1971 0.30591,-0.56687 -0.19433,-0.417 -0.41719,-0.683 -0.0356,-0.03 -0.0357,-0.03 -2.5725,-0.52733 0.25324,-0.50016 -0.35519,-0.83871 -1.2246,-0.3768 -0.34409,-1.743 -0.5169,-0.38789 0.13529,-0.36926 0.49393,-0.17785 0.42611,-2.487 0.81833,-0.62" inkscape:connector-curvature="0" style="stroke:#ffffff">
      <title id="title8380">Wasatch, UT</title>
    </path>
    <path id="c49049" d="m 253.78,230.42 -0.42611,2.487 -0.49393,0.17785 -0.13529,0.36926 0.5169,0.38789 0.34409,1.743 1.2246,0.3768 0.35519,0.83871 -0.25324,0.50016 2.5725,0.52733 0.0356,0.03 0.0357,0.03 0.41719,0.683 0.19433,0.417 -0.30591,0.56687 0.61791,2.1971 -0.73097,1.567 0.025,0.192 0.11232,0.241 0.49945,0.0404 0.39076,1.1136 0.71682,0.88267 -0.11967,0.34633 0.84619,0.25458 -0.17272,0.94744 3.3108,0.537 0.52292,0.0953 -0.25014,1.9727 -6.7499,-1.08 -7.0318,-1.1544 -2.0344,-0.32888 0.62071,-0.79772 0.0178,-0.413 -0.72379,-0.80842 0.12836,-0.74858 -0.39401,-0.353 -1.7276,0.854 -1.1731,1.364 -0.0481,0.275 -0.15154,0.183 -1.0626,0.387 -0.46533,0.08 -0.46711,-0.147 -0.19077,-0.103 0.49742,-1.59 0.15333,-0.369 0.28882,-0.339 -0.86064,-1.1946 0.22416,-0.95944 -0.59903,-0.16293 -0.0339,-0.72807 -0.3227,-0.17 0.10261,-1.5634 0.42572,-0.13789 0.0879,-0.46975 -0.34649,-0.46976 0.17991,-0.59457 0.64059,-0.31816 -0.0833,-0.52876 -0.14914,-0.23919 0.0615,-0.39078 -0.41958,-1.0016 0.16033,-1.113 0.42357,-0.59971 -0.23453,-1.2578 0.0155,-1.4289 0.33351,-0.20565 0.41897,-0.143 0.28883,0.09 0.69215,0.81827 1.3931,-0.30876 0.24931,0.77732 0.7338,0.47917 1.0022,-0.23717 -0.0802,-0.42907 0.83283,-0.41043 0.23654,0.31629 1.1679,-0.39609 0.6461,-0.58243 1.0374,-0.0607 0.70201,-0.0234 1.7365,-0.787" inkscape:connector-curvature="0" style="stroke:#ffffff">
      <title id="title8383">Utah, UT</title>
    </path>
    <path id="c49045" d="m 213.79,213.32 21.093,3.903 5.5055,-0.826 2.7082,7.6 0.45427,1.7636 -0.0215,2.2394 -0.39151,2.1601 0.29569,1.1029 -0.28883,-0.09 -0.41897,0.143 -0.33351,0.20565 -0.0155,1.4289 0.23453,1.2578 -0.42357,0.59971 -0.16033,1.113 0.41958,1.0016 -0.0615,0.39078 0.14914,0.23919 0.0833,0.52876 -0.64059,0.31816 -0.17991,0.59457 0.34649,0.46976 -0.0879,0.46975 -0.42572,0.13789 -0.10261,1.5634 -1.1286,0.62251 -0.53479,0.70949 -1.425,-0.12554 -0.13323,0.76254 -6.5734,-1.141 -22.805,-4.274 0.93244,-4.799 3.9294,-20.07" inkscape:connector-curvature="0" style="stroke:#ffffff">
      <title id="title8386">Tooele, UT</title>
    </path>
    <path id="c49023" d="m 241.53,241.63 0.3227,0.17 0.0339,0.72807 0.59903,0.16293 -0.22416,0.95944 0.86064,1.1946 -0.28882,0.339 -0.15333,0.369 -0.49742,1.59 0.19077,0.103 0.46711,0.147 0.46533,-0.08 1.0626,-0.387 0.15154,-0.183 0.0481,-0.275 1.1731,-1.364 1.7276,-0.854 0.39401,0.353 -0.12836,0.74858 0.72379,0.80842 -0.0178,0.413 -0.62071,0.79772 2.0344,0.32888 -0.0505,0.39424 0.35272,0.0775 -0.0504,0.34624 0.69829,0.14466 -0.24979,0.96261 -0.78756,-0.20582 -1.4869,0.811 -0.87036,5.5231 -0.56769,-0.0963 -0.24854,1.6142 -3.0541,-0.485 -0.13274,0.48663 -0.76672,-0.11213 -0.11512,0.53946 -0.78433,-0.16496 -0.0891,0.504 -0.98057,-0.176 0.048,-0.20862 -2.1357,-0.49038 -0.009,-1.1356 0.28026,-1.5025 0.28025,-0.79805 -0.38766,-0.7224 0.49286,-0.44065 -0.0392,-0.224 -0.0969,-0.36883 -3.7512,-0.64 -1.1892,-0.178 -22.773,-4.163 -4.0596,-0.546 1.5992,-8.26 22.805,4.274 6.5734,1.141 0.13323,-0.76254 1.425,0.12554 0.53479,-0.70949 1.1286,-0.62251" inkscape:connector-curvature="0" style="stroke:#ffffff">
      <title id="title8389">Juab, UT</title>
    </path>
    <path id="c49027" d="m 207.33,246.45 4.0596,0.546 22.773,4.163 1.1892,0.178 3.7512,0.64 0.0969,0.36883 0.0392,0.224 -0.49286,0.44065 0.38766,0.7224 -0.28025,0.79805 -0.28026,1.5025 0.009,1.1356 2.1357,0.49038 -0.048,0.20862 0.98057,0.176 -1.0198,6.158 -0.53153,1.1314 -0.66276,-0.0788 -0.18948,0.77302 -1.2049,-0.0838 -0.1179,0.47883 -0.26371,-0.0461 -0.13248,0.65381 -0.29288,-0.0315 -0.16164,0.56631 -0.29288,-0.0607 -0.11201,0.36015 -0.62237,-0.0773 -0.49113,2.212 0.1942,0.0394 -0.15575,0.84136 -0.46197,-0.019 -0.17034,0.36016 -0.50652,0.005 -0.1274,0.31151 -0.56484,0.18027 -0.84191,-0.0676 -0.004,-0.27873 -1.3104,-0.169 -0.36014,0.112 -0.42611,0.612 -0.83617,1.558 -5.0544,-0.898 0.007,-0.05 -2.0414,-0.411 -19.856,-3.607 0.46711,-2.38 3.8243,-19.694" inkscape:connector-curvature="0" style="stroke:#ffffff">
      <title id="title8392">Millard, UT</title>
    </path>
    <path id="c49041" d="m 253.09,266.58 -0.27456,1.87 -1.0608,6.366 -0.1355,-0.03 -0.57943,3.712 -8.1548,-1.149 -5.2078,-0.884 0.0321,-0.192 -1.1089,-0.225 -6.9193,-1.148 0.30665,-1.416 0.83617,-1.558 0.42611,-0.612 0.36014,-0.112 1.3104,0.169 0.004,0.27873 0.84191,0.0676 0.56484,-0.18027 0.1274,-0.31151 0.50652,-0.005 0.17034,-0.36016 0.46197,0.019 0.15575,-0.84136 -0.1942,-0.0394 0.49113,-2.212 0.62237,0.0773 0.11201,-0.36015 0.29288,0.0607 0.16164,-0.56631 0.29288,0.0315 0.13248,-0.65381 0.26371,0.0461 0.1179,-0.47883 1.2049,0.0838 0.18948,-0.77302 0.66276,0.0788 0.53153,-1.1314 2.7042,0.48 -0.0483,0.331 9.7992,1.568" inkscape:connector-curvature="0" style="stroke:#ffffff">
      <title id="title8395">Sevier, UT</title>
    </path>
    <path id="c49039" d="m 256.88,248.86 -1.2765,7.917 -0.94135,-0.151 -1.5814,9.956 -9.7992,-1.568 0.0483,-0.331 -2.7042,-0.48 1.0198,-6.158 0.0891,-0.504 0.78433,0.16496 0.11512,-0.53946 0.76672,0.11213 0.13274,-0.48663 3.0541,0.485 0.24854,-1.6142 0.56769,0.0963 0.87036,-5.5231 1.4869,-0.811 0.78756,0.20582 0.24979,-0.96261 -0.69829,-0.14466 0.0504,-0.34624 -0.35272,-0.0775 0.0504,-0.39424 7.0318,1.1544" inkscape:connector-curvature="0" style="stroke:#ffffff">
      <title id="title8398">Sanpete, UT</title>
    </path>
    <path id="c49007" d="m 256.88,248.86 6.7499,1.08 5.5465,0.899 0.22464,0.07 0.0945,0.09 9.5562,1.465 1.437,0.218 0.11232,0.31 0.009,0.162 -0.0802,0.06 -0.0731,-0.01 -1.1,0.633 -0.78803,0.685 -1.2854,2.487 -0.25673,0.727 -0.11232,1.036 0.007,1.269 -18.353,-2.845 -0.25674,-1.63 -0.31239,-1.7165 -0.47837,0.19235 -0.68011,-2.3818 -0.18363,-0.232 -0.17829,-0.09 0.40115,-2.485" inkscape:connector-curvature="0" style="stroke:#ffffff">
      <title id="title8401">Carbon, UT</title>
    </path>
    <path id="c49013" d="m 281.91,229.28 0.37619,0.154 -2.0396,13.972 -0.54021,3.953 -0.64896,5.104 -9.5562,-1.465 -0.0945,-0.09 -0.22464,-0.07 -5.5465,-0.899 0.25014,-1.9727 -0.52292,-0.0953 0.65967,-4.191 1.0679,-8.006 0.91639,-5.649 0.1753,-0.933 1.208,0.49084 1.776,-0.59114 1.0728,0.24739 0.74816,-0.37474 1.4067,0.1602 3.2732,-0.1103 0.27066,-0.57014 3.1109,0.53889 2.8615,0.403" inkscape:connector-curvature="0" style="stroke:#ffffff">
      <title id="title8404">Duchesne, UT</title>
    </path>
    <path id="c49047" d="m 282.29,229.44 1.7276,1.324 0.58834,-0.02 1.1202,-0.0152 0.38969,-0.47741 1.3056,0.29803 1.3056,-0.20889 1.3737,-0.1345 0.13846,0.60163 -0.2641,1.2726 0.54101,0.21399 1.6294,-0.81474 0.28546,-1.7084 3.2805,0.451 -0.26826,1.6245 0.71576,0.13354 -0.0784,0.847 -0.21037,1.501 0.63506,0.16586 -0.0806,0.61314 1.2872,0.185 -1.4067,9.883 -1.7918,12.906 -0.51346,3.737 -1.0858,0.681 -16.007,-2.289 0.0232,-0.168 -0.007,-1.269 0.11232,-1.036 0.25673,-0.727 1.2854,-2.487 0.78803,-0.685 1.1,-0.633 0.0731,0.01 0.0802,-0.06 -0.009,-0.162 -0.11232,-0.31 -1.437,-0.218 0.64896,-5.104 0.54021,-3.953 2.0396,-13.972" inkscape:connector-curvature="0" style="stroke:#ffffff">
      <title id="title8407">Uintah, UT</title>
    </path>
    <path id="c49019" d="m 294,261.82 -1.191,8.556 -0.60974,4.172 -0.12837,0.884 -0.69175,4.227 -0.69889,5.048 -17.075,-2.452 0.6347,-0.499 0.24069,-0.843 -1.0031,-0.44646 0.45274,-0.48196 0.28408,0.36767 0.26632,-0.25375 0,-0.2715 -0.041,-0.209 -0.47424,0.136 -0.19805,-0.88392 -0.97301,-1.4461 0.73768,-1.1997 -0.25658,-1.2707 -0.80317,-1.191 0.0346,-1.5846 0.36562,0.0321 0.61019,-3.2998 0.66041,-0.68851 0.11112,-1.2347 0.28169,-0.555 0.83347,-0.73972 0.11796,-1.4128 1.1541,-1.7745 0.25674,-1.001 0.009,-1.285 16.007,2.289 1.0858,-0.681" inkscape:connector-curvature="0" style="stroke:#ffffff">
      <title id="title8410">Grand, UT</title>
    </path>
    <path id="c49015" d="m 256.48,251.34 0.17829,0.09 0.18363,0.232 0.68011,2.3818 0.47837,-0.19235 0.31239,1.7165 0.25674,1.63 18.353,2.845 -0.0232,0.168 -0.009,1.285 -0.25674,1.001 -1.1541,1.7745 -0.11796,1.4128 -0.83347,0.73972 -0.28169,0.555 -0.11112,1.2347 -0.66041,0.68851 -0.61019,3.2998 -0.36562,-0.032 -0.0346,1.5846 0.80317,1.191 0.25658,1.2707 -0.73768,1.1997 0.97301,1.4461 0.19805,0.88392 0.47424,-0.136 0.041,0.209 0,0.2715 -0.26632,0.25375 -0.28408,-0.36767 -0.45274,0.48196 1.0031,0.44646 -0.24069,0.843 -0.6347,0.499 -22.605,-3.519 0.0392,-0.235 0.57943,-3.712 0.1355,0.03 1.0608,-6.366 0.27456,-1.871 1.5814,-9.955 0.94135,0.151 0.87539,-5.432" inkscape:connector-curvature="0" style="stroke:#ffffff">
      <title id="title8413">Emery, UT</title>
    </path>
    <path id="c49055" d="m 242.88,277.35 8.1548,1.149 -0.0392,0.235 22.605,3.519 0.32804,0.434 -0.42975,2.2193 0.77654,1.1923 0.55361,1.7154 0.0232,0.972 -0.18363,1.155 -0.52239,0.547 -21.311,-3.284 -5.0634,-0.773 -7.5843,-1.284 0.32092,-1.892 0.62757,-4.386 0.56873,-0.666 1.1749,-0.853" inkscape:connector-curvature="0" style="stroke:#ffffff">
      <title id="title8416">Wayne, UT</title>
    </path>
    <path id="c49031" d="m 229.68,274.9 6.9193,1.148 1.1089,0.225 -0.0321,0.192 5.2078,0.884 -1.1749,0.853 -0.56873,0.666 -0.62757,4.386 -0.32092,1.892 -1.938,-0.212 -0.63292,-0.1 -0.86826,-0.178 -0.4261,-0.128 -6.7731,-1.188 0.43799,-0.69822 0.90005,-0.5134 0.32248,-0.35167 -0.0934,-0.58271 0.5174,-0.61 0.37797,-1.38 -0.31725,-0.11432 -0.55161,-0.91686 -0.0541,-0.72474 -0.21772,-0.11992 -0.28307,0.27215 -0.26673,-0.1526 -0.10337,-0.47932 -0.60452,-1.1183 -0.0178,-0.201 0.0802,-0.754" inkscape:connector-curvature="0" style="stroke:#ffffff">
      <title id="title8419">Piute, UT</title>
    </path>
    <path id="c49001" d="m 203.04,268.52 19.856,3.607 2.0414,0.411 -0.007,0.05 5.0544,0.898 -0.30665,1.416 -0.0802,0.754 0.0178,0.201 0.60452,1.1183 0.10337,0.47932 0.26673,0.1526 0.28307,-0.27215 0.21772,0.11992 0.0541,0.72474 0.55161,0.91686 0.31725,0.11432 -0.37797,1.38 -0.5174,0.61 0.0934,0.58271 -0.32248,0.35167 -0.90005,0.5134 -0.43799,0.69822 -0.62757,-0.05 -27.731,-5.12 1.847,-9.658" inkscape:connector-curvature="0" style="stroke:#ffffff">
      <title id="title8422">Beaver, UT</title>
    </path>
    <path id="c49021" d="m 201.19,278.18 27.731,5.12 -0.87951,3.811 0.37072,0.10201 -0.33039,1.627 -0.49708,-0.0399 -0.0776,0.2959 -1.4138,-0.16418 -0.32483,1.8857 -1.9501,-0.38552 -0.30487,1.764 -0.65075,4.248 -3.8986,-0.75206 -0.16094,1.0501 -2.643,-0.55297 -0.14733,0.58143 -1.8828,-0.37993 0.0457,-0.15305 -1.9055,-0.28918 0.16991,-1.1586 -3.8746,-0.75333 0.31981,-1.915 -2.0961,-0.48096 -0.0466,0.35217 -7.9789,-1.4546 2.4265,-12.367" inkscape:connector-curvature="0" style="stroke:#ffffff">
      <title id="title8425">Iron, UT</title>
    </path>
    <path id="c49053" d="m 198.76,290.55 7.9789,1.4546 0.0466,-0.35217 2.0961,0.48096 -0.31981,1.915 3.8746,0.75333 -0.16991,1.1586 1.9055,0.28918 -0.0456,0.15305 1.8828,0.37993 0.14733,-0.58143 2.643,0.55297 -2.0164,11.394 -20.635,-3.84 2.6119,-13.757" inkscape:connector-curvature="0" style="stroke:#ffffff">
      <title id="title8428">Washington, UT</title>
    </path>
    <path id="c49025" d="m 218.8,296.75 0.16094,-1.0501 3.8986,0.75206 5.5629,0.9561 -0.0342,0.16953 9.2388,1.6074 0.15332,0 0.0892,-0.06 21.343,3.431 -0.4943,0.93175 0.53666,0.46662 -1.3987,-0.17002 -0.71117,0.46663 0.3584,0.49208 0.49136,0.10936 -0.29808,0.6696 -0.47635,-0.17077 -0.29808,0.23668 0.3131,0.69507 -0.30665,0.484 -0.88252,0.40576 -1.3154,-0.81661 -0.32228,0.38034 0.61997,0.3294 -0.14312,0.40083 -0.72884,0.9102 -0.7543,1.725 -1.2783,1.109 -0.60974,0.209 -2.2454,-0.21124 -0.53922,0.22168 -0.38643,-0.44042 -0.97214,1.113 -0.3355,-0.21124 -0.28457,0.50181 -0.92121,-0.79695 -0.46283,1.1894 -1.3264,-0.03 -0.55447,-0.05 -20.257,-3.414 -6.4451,-1.143 2.0164,-11.394" inkscape:connector-curvature="0" style="stroke:#ffffff">
      <title id="title8431">Kane, UT</title>
    </path>
    </g>
  </svg>
