<svg xmlns:dc="http://purl.org/dc/elements/1.1/" xmlns:cc="http://creativecommons.org/ns#" xmlns:rdf="http://www.w3.org/1999/02/22-rdf-syntax-ns#" xmlns:svg="http://www.w3.org/2000/svg" xmlns="http://www.w3.org/2000/svg" xmlns:sodipodi="http://sodipodi.sourceforge.net/DTD/sodipodi-0.dtd" xmlns:inkscape="http://www.inkscape.org/namespaces/inkscape" width="23.806630000000382" height="55.84596999999991" version="1.0" id="svg2" inkscape:version="0.91 r13725" sodipodi:docname="USA counties.svg">
  <defs id="defs9439"/>
  <sodipodi:namedview pagecolor="#ffffff" bordercolor="#666666" borderopacity="1" objecttolerance="10" gridtolerance="10" guidetolerance="10" inkscape:pageopacity="0" inkscape:pageshadow="2" inkscape:window-width="798" inkscape:window-height="828" id="namedview9437" showgrid="false" showguides="true" inkscape:zoom="0.64950808" inkscape:cx="494.98999" inkscape:cy="313.535" inkscape:window-x="-7" inkscape:window-y="0" inkscape:window-maximized="0" inkscape:current-layer="svg2"/>
  <metadata id="metadata4">
    <rdf:RDF>
      <cc:Work>
        <dc:format>image/svg+xml</dc:format>
        <dc:type rdf:resource="http://purl.org/dc/dcmitype/StillImage"/>
        <dc:title/>
        <cc:license rdf:resource="http://creativecommons.org/publicdomain/zero/1.0/"/>
        <dc:date>2019-10-06</dc:date>
        <dc:creator>
          <cc:Agent>
            <dc:title>U.S. Census Bureau, Abe.suleiman, Lokal_Profil</dc:title>
          </cc:Agent>
        </dc:creator>
        <dc:source>https://commons.wikimedia.org/wiki/File:Usa_counties_large.svg</dc:source>
      </cc:Work>
      <cc:License rdf:about="http://creativecommons.org/publicdomain/zero/1.0/">
        <cc:permits rdf:resource="http://creativecommons.org/ns#Reproduction"/>
        <cc:permits rdf:resource="http://creativecommons.org/ns#Distribution"/>
        <cc:permits rdf:resource="http://creativecommons.org/ns#DerivativeWorks"/>
      </cc:License>
    </rdf:RDF>
  </metadata>
  <style id="style6">
  /*
   * Below are Cascading Style Sheet (CSS) definitions in use in this file,
   * which allow easily changing how counties are displayed.
   *
   *
   * For the U.S. Census county codes (FIPS codes) used in this file to identify individual counties, see this link:
   * https://www2.census.gov/geo/docs/reference/codes/files/national_county.txt
   *
   * The county codes used in this file combine the 2-digit state code, which is in the second column of the file
   * linked above, and the 3-digit county code, which is in the third column of the file linked above. Each value
   * for the "id" attribute for each county is in the following form: "c[state_code][county-code]". For example,
   * for Loving Country in Texas, the state code is "48" and the county code is "301", so the id name for the
   * county is "c48301".
   *
   * County codes used in this file can also be found on Wikimedia Commons at this link:
   * https://commons.wikimedia.org/wiki/File_talk:Usa_counties_large.svg/county_codes
   *
   * Examples:
   *
   * To color two counties red (in this case Loving County and Dallas County in Texas) simply
   * go to the CSS insertion point and add:
   *
   * #c48301, #c48113 {fill:red}
   *
   * To color an entire state's counties (in the case New Mexico, with "35" being the state code) a green,
   * go to the CSS insertion point and add:
   *
   * path[id*='c35'] {fill:#34A853}
   *
   */
  #counties {fill:#d0d0d0;stroke:#000;stroke-width:.17829;} 
  #borders {fill:none;stroke:#221e1f;stroke-width:.89143;} 
  #separator {fill:none;stroke:#a9a9a9;stroke-width:2.3177309;}
 </style>
  <g id="counties" transform="translate(-880.1714499999998,-193.6840300000001)" style="fill:#d0d0d0;stroke:#ffffff;stroke-width:0.17828999">
    <path id="c34025" d="m 898.58,212.14 0.25882,0.14827 0.31288,-0.54635 0.76227,-0.009 0.9291,0.0802 0.91853,0.42381 0.894,0.0209 -0.25498,-0.98692 -0.19763,-0.0205 -0.0144,-0.16906 -0.28589,-0.17119 -0.007,-0.14852 0.0887,-0.10463 0.0553,-0.07 0.12123,0 0.23178,0.107 0.63942,0.83487 0.38462,1.5501 0.13015,0.535 0.0107,0.04 0.14441,1.075 0.0392,0.467 0.025,0.99 -0.0451,3.287 -0.66948,0.23552 -0.66947,-0.77422 -0.37395,0.80195 -0.57096,0.0877 -1.1441,0.11851 -0.14849,-0.60901 -0.71493,-0.5105 -2.4443,0.483 -2.0075,2.676 -0.89322,-1.196 -0.66501,-0.901 0.89143,-0.659 1.0341,-1.221 0,-0.06 -0.0945,-0.168 1.5588,-1.1658 1.8544,-3.136 -0.0839,-1.3465" inkscape:connector-curvature="0" style="stroke:#ffffff">
      <title id="title5746">Monmouth, NJ</title>
    </path>
    <path id="c34029" d="m 894.98,221.99 2.0075,-2.676 2.4443,-0.483 0.71493,0.5105 0.14849,0.60901 1.1441,-0.11851 0.57096,-0.0877 0.37395,-0.8019 0.66947,0.77427 0.66948,-0.23547 -0.009,0.426 0.0981,1.879 0.0303,0.523 0.1355,1.59 -0.69418,2.3452 -0.23724,1.4184 0.61508,0.62613 -0.22563,0.95645 -1.7014,3.1897 0.90965,1.219 -0.52416,0.546 -2.1341,-0.967 0.24069,-0.415 0.0571,-0.562 -0.92531,-4.009 -4.0418,-5.804 -0.33696,-0.458" inkscape:connector-curvature="0" style="stroke:#ffffff">
      <title id="title5749">Ocean, NJ</title>
    </path>
    <path id="c34013" d="m 895.48,202.42 2.7973,1.189 -0.12124,0.829 -0.15799,0.93904 0.28549,0.21333 0.16454,-0.32088 0.43423,-0.0449 0.11169,0.4691 0.12177,0.23728 -0.0705,0.37062 -0.21125,0.4815 -0.56608,-0.25869 -0.55242,0.2061 -0.48219,-0.36384 -0.94453,-0.0883 -0.37037,0.25341 -1.3,-0.15669 -0.21138,-1.122 0.3586,-0.88446 0.0736,-1.0586 -0.30638,-0.15615 -0.0855,-0.87792 1.0322,0.1441" inkscape:connector-curvature="0" style="stroke:#ffffff">
      <title id="title5755">Essex, NJ</title>
    </path>
    <path id="c34039" d="m 894.62,206.38 1.3,0.15669 0.37037,-0.25341 0.94453,0.0883 0.48219,0.36384 0.55242,-0.2061 0.56608,0.25869 -0.18618,0.66597 -0.35596,0.14095 -0.0802,0.03 -0.0392,0.06 -0.17593,0.23245 0.0558,0.23558 0.10728,0.515 0.0122,0.346 -0.60403,-0.0335 -0.58899,0.24606 -0.37138,-0.17138 -2.349,0.63641 -0.48316,0.12467 0.59526,-0.66065 0.10313,-1.0297 -0.75809,0.22792 -0.29331,-0.25054 1.1963,-1.7193" inkscape:connector-curvature="0" style="stroke:#ffffff">
      <title id="title5758">Union, NJ</title>
    </path>
    <path id="c34017" d="m 900.8,203.52 -0.16224,2.161 -0.21971,-0.0502 -0.44538,0.49233 0.18702,0.47435 -0.37271,0.22328 0.0787,0.26895 -1.2175,0.35729 0.28697,-0.54502 0.27173,-0.44118 0.01,-0.60244 -0.22256,-0.16673 -0.11169,-0.4691 -0.43423,0.0449 -0.16454,0.32088 -0.28549,-0.21333 0.15799,-0.93904 0.87972,0.0581 0.41494,-0.89884 0.61999,-0.57075 0.72935,0.49552" inkscape:connector-curvature="0" style="stroke:#ffffff">
      <title id="title5761">Hudson, NJ</title>
    </path>
    <path id="c34003" d="m 895.22,196.86 6.0814,1.819 0.0268,1.884 -0.0713,0.74685 -0.45998,2.2112 -0.72935,-0.49552 -0.61999,0.57075 -0.41494,0.89884 -0.87972,-0.0581 0.12124,-0.829 0.0802,-0.08 0.10519,-0.85 -0.025,-0.122 -0.69889,-1.228 -0.16625,-0.79481 -0.6048,-0.38378 -1.173,0.18194 -0.94953,-0.73235 0.37797,-2.739" inkscape:connector-curvature="0" style="stroke:#ffffff">
      <title id="title5764">Bergen, NJ</title>
    </path>
    <path id="c34023" d="m 898.17,209.01 0.016,0.129 -0.009,0.273 -0.0765,0.19457 -0.041,0.0942 -0.11232,0.006 -0.11945,0.01 -0.24247,0.28 -0.007,0.176 0.19968,0.457 -0.13517,0.73743 -0.0107,0.03 -0.0232,0.257 0.15075,0.23123 0.34331,0.0855 0.47108,0.17589 0.01,0 0.0839,1.3465 -1.8544,3.136 -1.5588,1.1658 -0.1242,-0.54752 -1.2038,-0.11384 -1.3976,-0.51984 -0.20724,-1.0458 0.10519,-0.03 0.2086,-0.241 0.0992,-0.68607 1.8015,-2.3494 -0.68663,-0.41449 -0.43502,-0.353 -0.44928,-0.481 -0.025,-0.168 0.11232,-0.331 0.10519,-0.129 0.61687,-0.56769 0.48316,-0.12467 2.349,-0.63641 0.37138,0.17138 0.58899,-0.24606 0.60403,0.0335" inkscape:connector-curvature="0" style="stroke:#ffffff">
      <title id="title5767">Middlesex, NJ</title>
    </path>
    <path id="c34035" d="m 893.42,208.09 0.29331,0.25054 0.75809,-0.22792 -0.10313,1.0297 -0.59526,0.66065 -0.61687,0.56769 -0.10519,0.129 -0.11232,0.331 0.025,0.168 0.44928,0.481 0.43502,0.353 0.68663,0.41449 -1.8015,2.3494 -0.0992,0.68607 -0.2086,0.241 -0.10519,0.03 -0.10162,-0.191 -0.51525,-0.06 -1.1268,0.644 -0.68997,-1.004 -0.10698,-0.144 -1.263,-1.8838 0.48688,0.1322 0.31254,-1.0384 0.11945,-0.191 0.19255,-1.494 -0.47526,-0.42357 -0.16836,-1.3954 -0.12836,-0.24 -0.11232,-0.08 2.6761,-1.519 0.29944,0.35552 0.66377,0.68828 -0.12886,0.76087 0.27466,0.52433 0.89143,-0.90869" inkscape:connector-curvature="0" style="stroke:#ffffff">
      <title id="title5770">Somerset, NJ</title>
    </path>
    <path id="c34027" d="m 890.61,199.06 0.43786,0.26633 0.11278,0.85553 0.62072,-0.52605 0.58008,0.46951 0.97992,0.0397 1.2715,0 0.19578,0.48473 0.29737,-0.12479 0.23641,0.91139 0.13484,0.99267 -1.0322,-0.1441 0.0855,0.87792 0.30638,0.15615 -0.0736,1.0586 -0.3586,0.88446 0.21138,1.122 -1.1963,1.7193 -0.89143,0.90869 -0.27466,-0.52433 0.12886,-0.76087 -0.66377,-0.68828 -0.29944,-0.35552 -2.6761,1.519 -1.6875,-0.0777 -1.4307,-0.82834 0.99412,-1.3607 0.42861,-1.9113 0.49087,-0.42506 0.65049,0.50981 1.0381,-1.1091 -0.21598,-0.67588 1.5987,-3.2508" inkscape:connector-curvature="0" style="stroke:#ffffff">
      <title id="title5773">Morris, NJ</title>
    </path>
    <path id="c34031" d="m 894.82,196.74 0.40114,0.121 -0.37797,2.739 0.94953,0.73235 1.173,-0.18194 0.6048,0.38378 0.16625,0.79481 0.69889,1.228 0.025,0.122 -0.10519,0.85 -0.0802,0.08 -2.7973,-1.189 -0.13483,-0.99267 -0.23642,-0.91139 -0.29737,0.12479 -0.19578,-0.48473 -1.2715,0 -0.97992,-0.0397 -0.58008,-0.46951 -0.62072,0.52605 -0.11278,-0.85553 -0.43786,-0.26633 1.6937,-3.173 2.5156,0.852" inkscape:connector-curvature="0" style="stroke:#ffffff">
      <title id="title5776">Passaic, NJ</title>
    </path>
    <path id="c34037" d="m 892.3,195.89 -1.6937,3.173 -1.5987,3.2508 0.21598,0.67588 -1.0381,1.1091 -0.65049,-0.50981 -0.49087,0.42506 -4.3556,-3.432 -0.0963,-0.119 0.68462,-0.963 0.47425,-1.118 0.1034,-0.692 -0.0321,-0.378 -0.0713,-0.07 0.0321,-0.313 0.20859,-0.892 0.0874,-0.257 0.41006,-0.843 0.48138,-0.522 1.0144,-0.731 6.3149,2.209" inkscape:connector-curvature="0" style="stroke:#ffffff">
      <title id="title5779">Sussex, NJ</title>
    </path>
    <path id="c34041" d="m 882.69,200.58 4.3556,3.432 -0.42861,1.9113 -0.99412,1.3607 -0.16581,0.44 -0.7488,1.439 -0.13729,0.185 -0.97879,0.983 -1.6884,1.884 -0.37618,0.644 -0.18721,-0.362 -0.1141,-0.209 -0.42432,-1.64 -0.17829,-1.387 0.29239,-0.686 0.1355,-0.04 0.25673,0.03 0.2603,-0.04 0.35123,-0.486 0.57765,-1.771 0.009,-0.135 -0.0571,-0.136 -1.6313,-1.922 1.872,-3.496" inkscape:connector-curvature="0" style="stroke:#ffffff">
      <title id="title5782">Warren, NJ</title>
    </path>
    <path id="c34019" d="m 885.63,207.28 1.4307,0.82834 1.6875,0.0777 0.11232,0.08 0.12836,0.24 0.16836,1.3954 0.47526,0.42357 -0.19255,1.494 -0.11945,0.191 -0.31254,1.0384 -0.48688,-0.1322 1.263,1.8838 0.10698,0.144 -0.89593,0.30357 0.23084,0.7497 -1.1413,0.41594 0.17892,0.32694 0.20117,0.37885 -1.2106,0.435 -0.16759,0 -0.1141,-0.06 -1.6706,-1.013 -1.3015,-2.619 -2.4657,-1.005 0.37618,-0.644 1.6884,-1.884 0.97879,-0.983 0.13729,-0.185 0.7488,-1.439 0.16581,-0.44" inkscape:connector-curvature="0" style="stroke:#ffffff">
      <title id="title5785">Hunterdon, NJ</title>
    </path>
    <path id="c34021" d="m 889.89,214.95 0.68997,1.004 1.1268,-0.644 0.51525,0.06 0.10162,0.191 0.20724,1.0458 1.3976,0.51984 1.2038,0.11384 0.1242,0.54752 0.0945,0.168 0,0.06 -1.0341,1.221 -0.89143,0.659 0.66501,0.901 -2.0964,-0.58812 -0.27305,0.91812 -4.6355,-3.561 0.16759,0 1.2106,-0.435 -0.20117,-0.37885 -0.17892,-0.32694 1.1413,-0.41594 -0.23084,-0.7497 0.89593,-0.30357" inkscape:connector-curvature="0" style="stroke:#ffffff">
      <title id="title5788">Mercer, NJ</title>
    </path>
    <path id="c34007" d="m 885.53,228.36 1.3086,-2.433 2.5617,1.6983 1.4395,2.3775 1.1147,-0.5756 1.7053,1.1668 -1.8007,3.288 -1.3035,-1.662 -1.0938,-0.32094 -0.84346,-0.61673 -1.1051,-0.58261 -0.377,-1.3107 -0.93957,-0.685 -0.66679,-0.344" inkscape:connector-curvature="0" style="stroke:#ffffff">
      <title id="title5791">Camden, NJ</title>
    </path>
    <path id="c34015" d="m 884.85,229.34 0.68641,-0.981 0.66679,0.344 0.93957,0.685 0.377,1.3107 1.1051,0.58261 0.84346,0.61673 1.0938,0.32094 1.3035,1.662 -1.371,2.54 -1.5921,-0.925 -2.8226,-1.6608 -1.0061,0.0733 -2.052,-0.49099 -1.7767,-1.0965 0.25633,-0.25515 0.14937,-0.48861 1.1384,-1.4517 2.0608,-0.78553" inkscape:connector-curvature="0" style="stroke:#ffffff">
      <title id="title5794">Gloucester, NJ</title>
    </path>
    <path id="c34033" d="m 881.24,232.32 1.7767,1.0965 2.052,0.49099 1.0061,-0.0733 2.8226,1.6608 0.21038,2.007 0,0.476 -0.025,0.113 -3.1896,-1.696 -2.0016,2.684 -0.54154,0.33577 0.13372,1.6323 -0.63182,-0.66038 -0.29071,-0.35126 -0.47304,-0.0906 -0.28745,-0.24847 -0.4015,-0.0954 -0.44741,-0.64426 0.33226,-0.0972 -0.28382,-1.2227 0.35318,-0.66558 -1.057,-0.51142 -0.125,-0.56049 0.53344,-1.007 -0.0634,-0.7124 0.26904,-0.57829 0.32934,-1.2816" inkscape:connector-curvature="0" style="stroke:#ffffff">
      <title id="title5797">Salem, NJ</title>
    </path>
    <path id="c34011" d="m 893.6,240.26 -0.41253,2.044 0.23781,1.466 -2.0097,-0.0115 -0.18233,-0.36716 -1.3113,0.35863 -0.43868,0.67415 -0.59078,-0.23209 -0.18288,-0.73052 -1.0063,-0.51342 -0.46855,-0.0986 0.15484,-0.33794 -0.25765,-0.28954 -0.6585,0.157 -0.078,0.29392 -0.54348,-0.30301 -0.52229,-0.78312 -0.64848,0.13037 -0.36992,-0.20624 -0.23596,-0.37709 -0.58844,-0.0899 -0.13372,-1.6323 0.54154,-0.33577 2.0016,-2.684 3.1896,1.696 0.025,-0.113 0,-0.476 -0.21038,-2.007 1.5921,0.925 2.6918,1.4147 0.41569,2.4263" inkscape:connector-curvature="0" style="stroke:#ffffff">
      <title id="title5800">Cumberland, NJ</title>
    </path>
    <path id="c34009" d="m 893.6,240.26 5.6036,-0.701 -0.73276,1.134 -0.21751,0.387 -0.24782,0.617 -0.39401,1.067 -0.43324,1.53 0,0.07 0.007,0.01 0.0232,0.03 -0.65075,2.323 -0.47246,1.148 -0.60439,1.038 -0.89144,0.497 -0.22464,0.06 -0.52951,0.06 -0.082,-0.04 -0.11233,-0.137 -0.025,-1.437 0.0321,-0.355 0.0891,-0.481 0.33875,-1.318 0.0392,-0.28 0.0988,-0.38014 0.009,-0.68186 -0.22705,-0.339 -0.3958,-0.289 -0.17472,-0.02 -0.23781,-1.466 0.41253,-2.044" inkscape:connector-curvature="0" style="stroke:#ffffff">
      <title id="title5803">Cape May, NJ</title>
    </path>
    <path id="c34001" d="m 902.12,234.2 0.35675,0.79244 -1.0565,2.3256 -2.2206,2.241 -5.6036,0.701 -0.41569,-2.4263 -2.6918,-1.4147 1.371,-2.54 1.8007,-3.288 0.24247,0.128 0.98593,0.507 1.273,1.255 1.5903,0.738 0.4261,0.128 0.7702,0.154 1.0376,-0.268 2.1341,0.967" inkscape:connector-curvature="0" style="stroke:#ffffff">
      <title id="title5806">Atlantic, NJ</title>
    </path>
    <path id="c34005" d="m 891.72,221.12 0.27305,-0.91812 2.0964,0.58812 0.89322,1.196 0.33696,0.458 4.0418,5.804 0.92531,4.009 -0.0571,0.562 -0.24069,0.415 -1.0376,0.268 -0.7702,-0.154 -0.4261,-0.128 -1.5903,-0.738 -1.273,-1.255 -0.98593,-0.507 -0.24247,-0.128 -1.7053,-1.1668 -1.1147,0.5756 -1.4395,-2.3775 -2.5617,-1.6983 1.109,-1.616 1.8845,-1.5945 0.23559,-0.74286 0.70665,-0.0544 0.94225,-0.79725" inkscape:connector-curvature="0" style="stroke:#ffffff">
      <title id="title5809">Burlington, NJ</title>
    </path>
    </g>
  </svg>
