<svg xmlns:dc="http://purl.org/dc/elements/1.1/" xmlns:cc="http://creativecommons.org/ns#" xmlns:rdf="http://www.w3.org/1999/02/22-rdf-syntax-ns#" xmlns:svg="http://www.w3.org/2000/svg" xmlns="http://www.w3.org/2000/svg" xmlns:sodipodi="http://sodipodi.sourceforge.net/DTD/sodipodi-0.dtd" xmlns:inkscape="http://www.inkscape.org/namespaces/inkscape" width="109.66003000000012" height="72.29898999999992" version="1.0" id="svg2" inkscape:version="0.91 r13725" sodipodi:docname="USA counties.svg">
  <defs id="defs9439"/>
  <sodipodi:namedview pagecolor="#ffffff" bordercolor="#666666" borderopacity="1" objecttolerance="10" gridtolerance="10" guidetolerance="10" inkscape:pageopacity="0" inkscape:pageshadow="2" inkscape:window-width="798" inkscape:window-height="828" id="namedview9437" showgrid="false" showguides="true" inkscape:zoom="0.64950808" inkscape:cx="494.98999" inkscape:cy="313.535" inkscape:window-x="-7" inkscape:window-y="0" inkscape:window-maximized="0" inkscape:current-layer="svg2"/>
  <metadata id="metadata4">
    <rdf:RDF>
      <cc:Work>
        <dc:format>image/svg+xml</dc:format>
        <dc:type rdf:resource="http://purl.org/dc/dcmitype/StillImage"/>
        <dc:title/>
        <cc:license rdf:resource="http://creativecommons.org/publicdomain/zero/1.0/"/>
        <dc:date>2019-10-06</dc:date>
        <dc:creator>
          <cc:Agent>
            <dc:title>U.S. Census Bureau, Abe.suleiman, Lokal_Profil</dc:title>
          </cc:Agent>
        </dc:creator>
        <dc:source>https://commons.wikimedia.org/wiki/File:Usa_counties_large.svg</dc:source>
      </cc:Work>
      <cc:License rdf:about="http://creativecommons.org/publicdomain/zero/1.0/">
        <cc:permits rdf:resource="http://creativecommons.org/ns#Reproduction"/>
        <cc:permits rdf:resource="http://creativecommons.org/ns#Distribution"/>
        <cc:permits rdf:resource="http://creativecommons.org/ns#DerivativeWorks"/>
      </cc:License>
    </rdf:RDF>
  </metadata>
  <style id="style6">
  /*
   * Below are Cascading Style Sheet (CSS) definitions in use in this file,
   * which allow easily changing how counties are displayed.
   *
   *
   * For the U.S. Census county codes (FIPS codes) used in this file to identify individual counties, see this link:
   * https://www2.census.gov/geo/docs/reference/codes/files/national_county.txt
   *
   * The county codes used in this file combine the 2-digit state code, which is in the second column of the file
   * linked above, and the 3-digit county code, which is in the third column of the file linked above. Each value
   * for the "id" attribute for each county is in the following form: "c[state_code][county-code]". For example,
   * for Loving Country in Texas, the state code is "48" and the county code is "301", so the id name for the
   * county is "c48301".
   *
   * County codes used in this file can also be found on Wikimedia Commons at this link:
   * https://commons.wikimedia.org/wiki/File_talk:Usa_counties_large.svg/county_codes
   *
   * Examples:
   *
   * To color two counties red (in this case Loving County and Dallas County in Texas) simply
   * go to the CSS insertion point and add:
   *
   * #c48301, #c48113 {fill:red}
   *
   * To color an entire state's counties (in the case New Mexico, with "35" being the state code) a green,
   * go to the CSS insertion point and add:
   *
   * path[id*='c35'] {fill:#34A853}
   *
   */
  #counties {fill:#d0d0d0;stroke:#000;stroke-width:.17829;} 
  #borders {fill:none;stroke:#221e1f;stroke-width:.89143;} 
  #separator {fill:none;stroke:#a9a9a9;stroke-width:2.3177309;}
 </style>
  <g id="counties" transform="translate(-513.1253899999999,-182.95100000000005)" style="fill:#d0d0d0;stroke:#ffffff;stroke-width:0.17828999">
    <path id="c19163" d="m 610.29,222.59 1.9112,-0.104 0.65655,0.63516 1.02254,-0.58947 3.37328,-0.16719 1.03661,0.79 1.96242,-0.1455 -0.26565,2.505 -0.89143,1.198 -1.0198,1.189 -3.2466,1.608 -1.3835,0.353 -0.58656,0.02 -0.24782,-0.03 -0.19061,-3.3055 -1.9399,0.0765 -0.19077,-4.027" inkscape:connector-curvature="0" style="stroke:#ffffff" sodipodi:nodetypes="ccccccccccccccccc">
      <title id="title1666">Scott, IA</title>
    </path>
    <path id="c19045" d="m 609.97,216.53 12.63,-0.717 0.18542,2.405 -1.3265,3.437 -1.2052,1.352 -1.96242,0.1455 -1.03661,-0.79 -3.37328,0.16719 -1.02254,0.58947 -0.65655,-0.63516 -1.9112,0.104 -0.21751,-4.033 -0.1034,-2.025" inkscape:connector-curvature="0" style="stroke:#ffffff" sodipodi:nodetypes="ccccccccccccc">
      <title id="title1669">Clinton, IA</title>
    </path>
    <path id="c19119" d="m 513.29,184.93 2.4247,0.02 6.6608,0.02 3.1913,0 -0.009,5.592 -11.981,-0.09 -0.052,-1.1311 1.0214,-0.0616 -0.0458,-1.6821 -1.1389,-1.2892 -0.0718,-1.388" inkscape:connector-curvature="0" style="stroke:#ffffff">
      <title id="title1672">Lyon, IA</title>
    </path>
    <path id="c19167" d="m 513.58,190.48 11.981,0.09 0.0571,8.045 -11.145,-0.02 1.1642,-4.019 0.26565,-0.708 0.0481,-0.158 -0.64361,-2.314 -0.15868,-0.08 -1.1981,0 -0.37083,-0.836" inkscape:connector-curvature="0" style="stroke:#ffffff">
      <title id="title1675">Sioux, IA</title>
    </path>
    <path id="c19149" d="m 525.62,198.61 0,8.049 -10.455,-0.02 -0.60975,-1.606 -0.43502,-0.699 -0.55447,-0.515 -0.44037,-0.337 0.67393,-3.084 0.6757,-1.801 11.145,0.02" inkscape:connector-curvature="0" style="stroke:#ffffff">
      <title id="title1678">Plymouth, IA</title>
    </path>
    <path id="c19035" d="m 533.53,198.57 0.0553,8.044 -5.969,0.03 -2.0022,0.01 0,-8.049 7.916,-0.04" inkscape:connector-curvature="0" style="stroke:#ffffff">
      <title id="title1681">Cherokee, IA</title>
    </path>
    <path id="c19141" d="m 525.56,190.57 7.9231,0.02 0.0499,7.978 -7.916,0.04 -0.0571,-8.045" inkscape:connector-curvature="0" style="stroke:#ffffff">
      <title id="title1684">O Brien, IA</title>
    </path>
    <path id="c19143" d="m 532.35,184.94 1.109,0 0.0303,5.657 -7.9231,-0.02 0.009,-5.592 6.7749,-0.04" inkscape:connector-curvature="0" style="stroke:#ffffff">
      <title id="title1687">Osceola, IA</title>
    </path>
    <path id="c19059" d="m 533.45,184.94 7.866,-0.07 0.0874,5.655 -7.9231,0.07 -0.0303,-5.657" inkscape:connector-curvature="0" style="stroke:#ffffff">
      <title id="title1690">Dickinson, IA</title>
    </path>
    <path id="c19041" d="m 533.48,190.59 7.9231,-0.07 0.0891,7.981 -7.9623,0.07 -0.0499,-7.978" inkscape:connector-curvature="0" style="stroke:#ffffff">
      <title id="title1693">Clay, IA</title>
    </path>
    <path id="c19021" d="m 541.5,198.5 0.0802,8.074 -7.9872,0.04 -0.0553,-8.044 7.9623,-0.07" inkscape:connector-curvature="0" style="stroke:#ffffff">
      <title id="title1696">Buena Vista, IA</title>
    </path>
    <path id="c19151" d="m 541.5,198.5 7.907,-0.07 0.0963,6.082 0.041,1.984 -7.9641,0.08 -0.0802,-8.074" inkscape:connector-curvature="0" style="stroke:#ffffff">
      <title id="title1699">Pocahontas, IA</title>
    </path>
    <path id="c19147" d="m 549.27,190.42 0.13728,8.012 -7.907,0.07 -0.0891,-7.981 7.8589,-0.103" inkscape:connector-curvature="0" style="stroke:#ffffff">
      <title id="title1702">Palo Alto, IA</title>
    </path>
    <path id="c19063" d="m 549.18,184.75 0.0874,5.666 -7.8589,0.103 -0.0874,-5.655 1.0127,-0.02 6.8462,-0.1" inkscape:connector-curvature="0" style="stroke:#ffffff">
      <title id="title1705">Emmet, IA</title>
    </path>
    <path id="c19109" d="m 557.04,184.62 0.12837,5.641 0.15154,8.028 -7.9142,0.137 -0.13728,-8.012 -0.0874,-5.666 3.2555,-0.05 4.6034,-0.07" inkscape:connector-curvature="0" style="stroke:#ffffff">
      <title id="title1708">Kossuth, IA</title>
    </path>
    <path id="c19091" d="m 549.4,198.43 7.9142,-0.137 0.13015,6.074 -7.948,0.145 -0.0963,-6.082" inkscape:connector-curvature="0" style="stroke:#ffffff">
      <title id="title1711">Humboldt, IA</title>
    </path>
    <path id="c19193" d="m 525.62,206.66 2.0022,-0.01 -2e-4,2.00903 1.21955,-0.01 0,6.09 -11.628,-0.09 0.21038,-1.422 -0.51525,-0.965 -0.19968,-2.646 0.11945,-0.319 -0.007,-0.355 -0.0713,-0.265 -0.17829,-0.248 -0.22464,-0.09 -0.57765,-0.04 -0.60439,-1.666 10.455,0.02" inkscape:connector-curvature="0" style="stroke:#ffffff" sodipodi:nodetypes="ccccccccccccccccc">
      <title id="title1714">Woodbury, IA</title>
    </path>
    <path id="c19093" d="m 533.59,206.62 0.016,2.01 1.1,0 0.025,6.11 -5.8906,0.01 0,-6.09 -1.2184,-8.2e-4 -9.5e-4,-1.99818 5.969,-0.03" inkscape:connector-curvature="0" style="stroke:#ffffff" sodipodi:nodetypes="ccccccccc">
      <title id="title1717">Ida, IA</title>
    </path>
    <path id="c19161" d="m 533.59,206.62 7.9872,-0.04 0.0161,1.988 0.98058,0 0.0481,6.114 -3.9455,0.02 -3.9455,0.03 -0.025,-6.11 -1.1,0 -0.016,-2.01" inkscape:connector-curvature="0" style="stroke:#ffffff">
      <title id="title1720">Sac, IA</title>
    </path>
    <path id="c19025" d="m 541.58,206.57 7.9641,-0.08 0.025,1.977 0.7702,0 0.10519,6.108 -3.9223,0.06 -3.8974,0.05 -0.0481,-6.114 -0.98058,0 -0.0161,-1.988" inkscape:connector-curvature="0" style="stroke:#ffffff">
      <title id="title1723">Calhoun, IA</title>
    </path>
    <path id="c19187" d="m 557.45,204.37 0.0802,3.987 0.67571,0 0.1355,6.049 -7.8981,0.18 -0.10519,-6.108 -0.7702,0 -0.025,-1.977 -0.041,-1.984 7.948,-0.145" inkscape:connector-curvature="0" style="stroke:#ffffff">
      <title id="title1726">Webster, IA</title>
    </path>
    <path id="c19073" d="m 550.44,214.57 3.9455,-0.09 0.16759,8.017 -1.9861,0.04 -5.937,0.107 -0.11232,-8.02 3.9223,-0.06" inkscape:connector-curvature="0" style="stroke:#ffffff">
      <title id="title1729">Greene, IA</title>
    </path>
    <path id="c19027" d="m 542.62,214.68 3.8974,-0.05 0.11232,8.02 -1.9772,0.03 -5.9298,0.05 -0.0481,-8.026 3.9455,-0.02" inkscape:connector-curvature="0" style="stroke:#ffffff">
      <title id="title1732">Carroll, IA</title>
    </path>
    <path id="c19047" d="m 538.68,214.7 0.0481,8.026 -7.9142,0.05 -1.9701,0.02 0,-8.053 5.8906,-0.01 3.9455,-0.03" inkscape:connector-curvature="0" style="stroke:#ffffff">
      <title id="title1735">Crawford, IA</title>
    </path>
    <path id="c19133" d="m 528.84,214.74 0,8.053 -7.9623,-0.06 -2.2589,-4.195 -1.4067,-3.889 11.628,0.09" inkscape:connector-curvature="0" style="stroke:#ffffff">
      <title id="title1738">Monona, IA</title>
    </path>
    <path id="c19085" d="m 530.81,222.78 0.007,6.051 1.0287,0 0.009,2.227 -8.2761,0 -2.3962,-4.065 -0.30487,-4.243 7.9623,0.06 1.9701,-0.02" inkscape:connector-curvature="0" style="stroke:#ffffff">
      <title id="title1741">Harrison, IA</title>
    </path>
    <path id="c19165" d="m 530.81,222.78 7.9142,-0.05 0.0553,6.042 0.89322,0 0.025,2.248 -1.9612,0.01 -5.8817,0.02 -0.009,-2.227 -1.0287,0 -0.007,-6.051" inkscape:connector-curvature="0" style="stroke:#ffffff">
      <title id="title1744">Shelby, IA</title>
    </path>
    <path id="c19009" d="m 538.72,222.73 5.9298,-0.05 0.0802,6.01682 0.75772,-0.009 0.0303,2.27 -5.8246,0.05 -0.025,-2.248 -0.89322,0 -0.0553,-6.042" inkscape:connector-curvature="0" style="stroke:#ffffff" sodipodi:nodetypes="ccccccccc">
      <title id="title1747">Audubon, IA</title>
    </path>
    <path id="c19077" d="m 546.63,222.65 5.937,-0.107 0.1141,6.053 0.66679,0 0.0392,2.251 -7.866,0.113 -0.0303,-2.27 -0.75772,0.009 -0.0802,-6.01682 1.9772,-0.03" inkscape:connector-curvature="0" style="stroke:#ffffff" sodipodi:nodetypes="cccccccccc">
      <title id="title1750">Guthrie, IA</title>
    </path>
    <path id="c19001" d="m 553.39,230.84 0.14619,8.018 -3.9455,0.06 -3.9526,0.05 -0.11411,-8.01 7.866,-0.113" inkscape:connector-curvature="0" style="stroke:#ffffff">
      <title id="title1753">Adair, IA</title>
    </path>
    <path id="c19029" d="m 545.52,230.96 0.11411,8.01 -3.9152,0.04 -3.9294,0.02 -0.0553,-8.009 1.9612,-0.01 5.8246,-0.05" inkscape:connector-curvature="0" style="stroke:#ffffff">
      <title id="title1756">Cass, IA</title>
    </path>
    <path id="c19155" d="m 531.86,231.04 5.8817,-0.02 0.0553,8.009 -3.9134,0.03 -8.0907,0.02 -1.2052,-0.724 -0.25674,-4.677 -0.74702,-2.635 8.2761,0" inkscape:connector-curvature="0" style="stroke:#ffffff">
      <title id="title1759">Pottawattamie, IA</title>
    </path>
    <path id="c19071" d="m 526.32,245.06 7.5665,-0.03 0.0414,3.90599 0.18507,-0.003 0.016,3.52952 -6.7981,-0.07 -1.5511,-4.598 0.54021,-2.732" inkscape:connector-curvature="0" style="stroke:#ffffff" sodipodi:nodetypes="cccccccc">
      <title id="title1762">Fremont, IA</title>
    </path>
    <path id="c19129" d="m 533.88,239.06 0.007,5.963 -7.5665,0.03 -0.76485,-3.358 0.23356,-2.619 8.0907,-0.02" inkscape:connector-curvature="0" style="stroke:#ffffff">
      <title id="title1765">Mills, IA</title>
    </path>
    <path id="c19137" d="m 537.79,239.03 3.9294,-0.02 0.0481,5.967 -7.8838,0.05 -0.007,-5.963 3.9134,-0.03" inkscape:connector-curvature="0" style="stroke:#ffffff">
      <title id="title1768">Montgomery, IA</title>
    </path>
    <path id="c19145" d="m 541.77,244.98 0.0499,4.012 0.26387,0 0.016,3.528 -4.9974,-0.03 -2.9738,-0.02 -0.016,-3.52952 -0.18507,0.003 -0.0414,-3.90599 7.8838,-0.05" inkscape:connector-curvature="0" style="stroke:#ffffff" sodipodi:nodetypes="cccccccccc">
      <title id="title1771">Page, IA</title>
    </path>
    <path id="c19173" d="m 549.69,244.9 0.11232,7.609 -2.7866,0.03 -4.9118,-0.02 -0.016,-3.528 -0.26387,0 -0.0499,-4.012 7.916,-0.08" inkscape:connector-curvature="0" style="stroke:#ffffff">
      <title id="title1774">Taylor, IA</title>
    </path>
    <path id="c19003" d="m 549.59,238.92 0.0963,5.978 -7.916,0.08 -0.0481,-5.967 3.9152,-0.04 3.9526,-0.05" inkscape:connector-curvature="0" style="stroke:#ffffff">
      <title id="title1777">Adams, IA</title>
    </path>
    <path id="c19175" d="m 553.53,238.86 3.9134,-0.06 0.11945,6.012 -7.8821,0.09 -0.0963,-5.978 3.9455,-0.06" inkscape:connector-curvature="0" style="stroke:#ffffff">
      <title id="title1780">Union, IA</title>
    </path>
    <path id="c19159" d="m 549.69,244.9 7.8821,-0.09 0.13728,7.481 -3.7601,0.117 -4.147,0.1 -0.11232,-7.609" inkscape:connector-curvature="0" style="stroke:#ffffff">
      <title id="title1783">Ringgold, IA</title>
    </path>
    <path id="c19053" d="m 557.57,244.81 7.907,-0.211 0.18542,7.36 -3.769,0.155 -4.1862,0.177 -0.13728,-7.481" inkscape:connector-curvature="0" style="stroke:#ffffff">
      <title id="title1786">Decatur, IA</title>
    </path>
    <path id="c19039" d="m 565.31,238.51 0.16759,6.092 -7.907,0.211 -0.11945,-6.012 3.8724,-0.209 3.9865,-0.08" inkscape:connector-curvature="0" style="stroke:#ffffff">
      <title id="title1789">Clarke, IA</title>
    </path>
    <path id="c19121" d="m 561.11,230.49 0.20859,8.101 -3.8724,0.209 -3.9134,0.06 -0.14619,-8.018 7.7234,-0.356" inkscape:connector-curvature="0" style="stroke:#ffffff">
      <title id="title1792">Madison, IA</title>
    </path>
    <path id="c19049" d="m 560.49,222.37 0.14441,5.92935 0.42433,-0.001 0.0571,2.19479 -7.7234,0.356 -0.0392,-2.251 -0.66679,0 -0.1141,-6.053 1.9861,-0.04 5.9316,-0.137" inkscape:connector-curvature="0" style="stroke:#ffffff" sodipodi:nodetypes="cccccccccc">
      <title id="title1795">Dallas, IA</title>
    </path>
    <path id="c19015" d="m 562.29,214.32 0.20147,7.996 -2.0093,0.05 -5.9316,0.137 -0.16759,-8.017 3.9526,-0.09 3.9544,-0.07" inkscape:connector-curvature="0" style="stroke:#ffffff">
      <title id="title1798">Boone, IA</title>
    </path>
    <path id="c19079" d="m 565.46,206.19 0.0462,1.94641 0.58096,-0.009 0.20001,6.09434 -3.9918,0.1 -3.9544,0.07 -0.1355,-6.049 -0.67571,0 -0.0392,-1.985 7.9694,-0.176" inkscape:connector-curvature="0" style="stroke:#ffffff" sodipodi:nodetypes="cccccccccc">
      <title id="title1801">Hamilton, IA</title>
    </path>
    <path id="c19197" d="m 557.32,198.29 7.9409,-0.209 0.19969,8.109 -7.9694,0.176 -0.041,-2.002 -0.13015,-6.074" inkscape:connector-curvature="0" style="stroke:#ffffff">
      <title id="title1804">Wright, IA</title>
    </path>
    <path id="c19081" d="m 565.07,190.07 0.19255,8.012 -7.9409,0.209 -0.15154,-8.028 7.8999,-0.193" inkscape:connector-curvature="0" style="stroke:#ffffff">
      <title id="title1807">Hancock, IA</title>
    </path>
    <path id="c19189" d="m 564.92,184.44 0.14441,5.634 -7.8999,0.193 -0.12837,-5.641 5.3593,-0.121 2.5245,-0.06" inkscape:connector-curvature="0" style="stroke:#ffffff">
      <title id="title1810">Winnebago, IA</title>
    </path>
    <path id="c19195" d="m 572.79,184.2 0.18364,5.635 -7.9052,0.232 -0.14441,-5.634 7.456,-0.215 0.41006,-0.02" inkscape:connector-curvature="0" style="stroke:#ffffff">
      <title id="title1813">Worth, IA</title>
    </path>
    <path id="c19033" d="m 565.07,190.07 7.9052,-0.232 0.0321,0.988 0.20147,7.039 -7.9463,0.217 -0.19255,-8.012" inkscape:connector-curvature="0" style="stroke:#ffffff">
      <title id="title1816">Cerro Gordo, IA</title>
    </path>
    <path id="c19069" d="m 565.26,198.08 7.9463,-0.217 0.22464,8.116 -7.9712,0.21 -0.19969,-8.109" inkscape:connector-curvature="0" style="stroke:#ffffff">
      <title id="title1819">Franklin, IA</title>
    </path>
    <path id="c19083" d="m 573.43,205.98 0.0696,1.64309 0.38449,-0.008 0.23054,6.3746 -3.9063,0.13 -3.9223,0.102 -0.20001,-6.09434 -0.58096,0.009 -0.0463,-1.94641 7.9712,-0.21" inkscape:connector-curvature="0" style="stroke:#ffffff" sodipodi:nodetypes="cccccccccc">
      <title id="title1822">Hardin, IA</title>
    </path>
    <path id="c19169" d="m 570.21,214.12 0.23177,8.003 -1.9754,0.05 -5.969,0.146 -0.20147,-7.996 3.9918,-0.1 3.9223,-0.102" inkscape:connector-curvature="0" style="stroke:#ffffff">
      <title id="title1825">Story, IA</title>
    </path>
    <path id="c19153" d="m 568.46,222.17 0.0813,5.87136 0.36726,0.0177 0.10596,2.32595 0.0143,0.369 -0.95464,-0.0301 -0.51507,-0.28654 -6.45159,0.0497 -0.0571,-2.19479 -0.42433,0.001 -0.14441,-5.92935 2.0093,-0.05 5.969,-0.146" inkscape:connector-curvature="0" style="stroke:#ffffff" sodipodi:nodetypes="ccccccccccccc">
      <title id="title1828">Polk, IA</title>
    </path>
    <path id="c19181" d="m 569.03,230.76 0.22464,7.656 -3.9508,0.1 -3.9865,0.08 -0.20859,-8.101 6.45159,-0.0497 0.51507,0.28654 0.95464,0.0301" inkscape:connector-curvature="0" style="stroke:#ffffff" sodipodi:nodetypes="cccccccc">
      <title id="title1831">Warren, IA</title>
    </path>
    <path id="c19117" d="m 569.26,238.41 3.9401,-0.112 0.20682,6.069 -7.9302,0.231 -0.16759,-6.092 3.9508,-0.1" inkscape:connector-curvature="0" style="stroke:#ffffff">
      <title id="title1834">Lucas, IA</title>
    </path>
    <path id="c19185" d="m 573.4,244.37 0.23355,7.281 -4.8048,0.223 -3.1735,0.09 -0.18542,-7.36 7.9302,-0.231" inkscape:connector-curvature="0" style="stroke:#ffffff">
      <title id="title1837">Wayne, IA</title>
    </path>
    <path id="c19007" d="m 581.32,244.09 0.27991,7.135 -1.3264,0.07 -6.6376,0.348 -0.23355,-7.281 7.9177,-0.275" inkscape:connector-curvature="0" style="stroke:#ffffff">
      <title id="title1840">Appanoose, IA</title>
    </path>
    <path id="c19135" d="m 581.09,238.03 0.23534,6.065 -7.9177,0.275 -0.20682,-6.069 3.9455,-0.129 3.9437,-0.142" inkscape:connector-curvature="0" style="stroke:#ffffff">
      <title id="title1843">Monroe, IA</title>
    </path>
    <path id="c19125" d="m 576.85,230.13 0.29061,8.042 -3.9455,0.129 -3.9401,0.112 -0.22464,-7.656 -0.0143,-0.369 7.8339,-0.258" inkscape:connector-curvature="0" style="stroke:#ffffff">
      <title id="title1846">Marion, IA</title>
    </path>
    <path id="c19099" d="m 570.44,222.12 7.9302,-0.24 0.24375,5.84936 0.14364,-0.0151 0.0565,2.33673 -1.9612,0.07 -7.8339,0.258 -0.10596,-2.32595 -0.36726,-0.0177 -0.0813,-5.87136 1.9754,-0.05" inkscape:connector-curvature="0" style="stroke:#ffffff" sodipodi:nodetypes="ccccccccccc">
      <title id="title1849">Jasper, IA</title>
    </path>
    <path id="c19127" d="m 574.11,213.99 3.9598,-0.144 0.29596,8.037 -7.9302,0.24 -0.23177,-8.003 3.9063,-0.13" inkscape:connector-curvature="0" style="stroke:#ffffff">
      <title id="title1852">Marshall, IA</title>
    </path>
    <path id="c19075" d="m 581.42,205.73 0.0865,1.76435 0.3376,-0.0162 0.12323,4.20987 -3.9556,0.156 0.0654,2 -3.9598,0.144 -0.23054,-6.3746 -0.38449,0.008 -0.0696,-1.64309 7.9872,-0.248" inkscape:connector-curvature="0" style="stroke:#ffffff" sodipodi:nodetypes="ccccccccccc">
      <title id="title1855">Grundy, IA</title>
    </path>
    <path id="c19023" d="m 573.21,197.87 7.8999,-0.248 0.21751,6.115 0.0945,2.001 -7.9872,0.248 -0.22464,-8.116" inkscape:connector-curvature="0" style="stroke:#ffffff">
      <title id="title1858">Butler, IA</title>
    </path>
    <path id="c19067" d="m 573,190.83 7.8428,-0.266 0.25851,7.057 -7.8999,0.248 -0.20147,-7.039" inkscape:connector-curvature="0" style="stroke:#ffffff">
      <title id="title1861">Floyd, IA</title>
    </path>
    <path id="c19131" d="m 580.63,183.92 0.21573,6.637 -7.8428,0.266 -0.21573,-6.623 7.8428,-0.28" inkscape:connector-curvature="0" style="stroke:#ffffff">
      <title id="title1864">Mitchell, IA</title>
    </path>
    <path id="c19089" d="m 582.37,183.86 6.1295,-0.25 0.26565,6.638 -7.9159,0.313 -0.21573,-6.637 1.7365,-0.06" inkscape:connector-curvature="0" style="stroke:#ffffff">
      <title id="title1867">Howard, IA</title>
    </path>
    <path id="c19037" d="m 588.76,190.25 0.11054,3.007 0.16224,4.056 -7.9302,0.307 -0.25851,-7.057 7.9159,-0.313" inkscape:connector-curvature="0" style="stroke:#ffffff">
      <title id="title1870">Chickasaw, IA</title>
    </path>
    <path id="c19017" d="m 581.11,197.62 7.9302,-0.307 0.25138,6.116 -7.9641,0.306 -0.21751,-6.115" inkscape:connector-curvature="0" style="stroke:#ffffff">
      <title id="title1873">Bremer, IA</title>
    </path>
    <path id="c19013" d="m 589.29,203.43 0.13181,3.78892 0.31557,0.003 0.1695,4.16511 -3.9615,0.153 -3.9776,0.155 -0.12323,-4.20987 -0.3376,0.0162 -0.0865,-1.76435 -0.0945,-2.001 7.9641,-0.306" inkscape:connector-curvature="0" style="stroke:#ffffff" sodipodi:nodetypes="ccccccccccc">
      <title id="title1876">Black Hawk, IA</title>
    </path>
    <path id="c19171" d="m 585.94,211.54 0.40114,10.048 -7.973,0.3 -0.36802,-10.038 7.9399,-0.31" inkscape:connector-curvature="0" style="stroke:#ffffff">
      <title id="title1879">Tama, IA</title>
    </path>
    <path id="c19157" d="m 578.37,221.88 7.973,-0.3 0.14823,6.02652 0.10468,-0.0272 0.0787,2.1667 -1.9629,0.08 -5.8977,0.225 -0.0565,-2.33673 -0.14364,0.0151 -0.24375,-5.84936" inkscape:connector-curvature="0" style="stroke:#ffffff" sodipodi:nodetypes="cccccccccc">
      <title id="title1882">Poweshiek, IA</title>
    </path>
    <path id="c19123" d="m 578.81,230.06 5.8977,-0.225 0.33874,8.037 -3.9633,0.161 -3.9437,0.142 -0.29061,-8.042 1.9612,-0.07" inkscape:connector-curvature="0" style="stroke:#ffffff">
      <title id="title1885">Mahaska, IA</title>
    </path>
    <path id="c19179" d="m 585.05,237.87 3.9615,-0.171 0.25673,6.083 -7.9462,0.314 -0.23534,-6.065 3.9633,-0.161" inkscape:connector-curvature="0" style="stroke:#ffffff">
      <title id="title1888">Wapello, IA</title>
    </path>
    <path id="c19051" d="m 589.27,243.78 0.26387,6.919 -2.956,0.193 -4.9742,0.337 -0.27991,-7.135 7.9462,-0.314" inkscape:connector-curvature="0" style="stroke:#ffffff">
      <title id="title1891">Davis, IA</title>
    </path>
    <path id="c19177" d="m 589.27,243.78 7.9552,-0.369 0.082,2.025 0.26208,4.964 -3.9366,0.01 -4.0988,0.288 -0.26387,-6.919" inkscape:connector-curvature="0" style="stroke:#ffffff">
      <title id="title1894">Van Buren, IA</title>
    </path>
    <path id="c19101" d="m 596.99,237.35 0.23356,6.058 -7.9552,0.369 -0.25673,-6.083 4.0239,-0.193 3.9544,-0.151" inkscape:connector-curvature="0" style="stroke:#ffffff">
      <title id="title1897">Jefferson, IA</title>
    </path>
    <path id="c19011" d="m 593.86,211.17 0.43502,10.107 -7.948,0.305 -0.40114,-10.048 3.9615,-0.153 3.9526,-0.211" inkscape:connector-curvature="0" style="stroke:#ffffff">
      <title id="title1900">Benton, IA</title>
    </path>
    <path id="c19095" d="m 586.34,221.58 7.948,-0.305 0.13072,6.14932 0.17428,-0.0351 0.0872,1.97677 -1.9915,0.107 -6.0172,0.273 -0.0787,-2.1667 -0.10468,0.0272 -0.14823,-6.02652" inkscape:connector-curvature="0" style="stroke:#ffffff" sodipodi:nodetypes="cccccccccc">
      <title id="title1903">Iowa, IA</title>
    </path>
    <path id="c19107" d="m 586.67,229.75 6.0172,-0.273 0.3441,8.026 -4.0239,0.193 -3.9615,0.171 -0.33874,-8.037 1.9629,-0.08" inkscape:connector-curvature="0" style="stroke:#ffffff">
      <title id="title1906">Keokuk, IA</title>
    </path>
    <path id="c19183" d="m 594.68,229.37 5.288,-0.23 0.0887,0.97996 0.63514,1.00404 0.2496,6.05 -3.9544,0.178 -3.9544,0.151 -0.3441,-8.026 1.9915,-0.107" inkscape:connector-curvature="0" style="stroke:#ffffff" sodipodi:nodetypes="ccccccccc">
      <title id="title1909">Washington, IA</title>
    </path>
    <path id="c19087" d="m 600.94,237.17 1.9762,-0.054 0.10437,1.999 0.0592,6.083 -5.7786,0.233 -0.082,-2.025 -0.23356,-6.058 3.9544,-0.178" inkscape:connector-curvature="0" style="stroke:#ffffff">
      <title id="title1912">Henry, IA</title>
    </path>
    <path id="c19111" d="m 597.31,245.44 5.7786,-0.233 -0.48099,0.0157 3.47844,1.89949 1.84625,0.5198 -1.207,1.416 -0.56161,0.01 -0.45819,0.03 -0.14429,0 -0.90926,0.319 -0.025,0.02 -0.10341,0.06 -0.43502,0.248 -0.15332,0.1 -0.0535,0.06 -0.0642,0.06 -0.0642,0.07 -0.73097,1.123 -0.0267,0.171 0.0571,0.192 0.35479,0.168 0.28882,0.419 0.0963,0.28 0.0143,0.232 -0.0464,2.068 -0.007,0.01 -0.041,0.202 -0.18364,0.153 -0.025,0.01 -0.53129,0.187 -1.1393,-0.08 -0.72563,-0.586 -1.7508,-2.154 -0.0642,-0.16 0.0571,-0.467 -0.041,-0.152 -1.3746,-1.038 -0.36193,-0.226 -0.26208,-4.964" inkscape:connector-curvature="0" style="stroke:#ffffff" sodipodi:nodetypes="ccccccccccccccccccccccccccccccccccccccc">
      <title id="title1915">Lee, IA</title>
    </path>
    <path id="c19057" d="m 610.28,238.78 0.016,0.06 0.0642,0.2 0.0874,0.62 -0.0695,1.872 -0.1462,0.683 -0.0963,0.144 -0.49742,0.282 -0.18542,0.182 -1.3425,1.915 -0.0642,0.297 -0.11945,2.603 -1.84625,-0.5198 -3.47844,-1.89949 0.48099,-0.0157 -0.0592,-6.083 7.2563,-0.337" inkscape:connector-curvature="0" style="stroke:#ffffff" sodipodi:nodetypes="ccccccccccccccccc">
      <title id="title1918">Des Moines, IA</title>
    </path>
    <path id="c19115" d="m 600.7,231.12 1.9772,-0.08 0.0874,2.017 4.9653,-0.193 -0.49029,1.963 0.0178,0.191 0.007,0.02 1.1642,1.399 0.54912,0.273 0.22999,-0.03 0.13907,0.06 0.14619,0.152 0.80942,1.326 -0.016,0.555 -7.2563,0.337 -0.10437,-1.999 -1.9762,0.054 -0.2496,-6.05" inkscape:connector-curvature="0" style="stroke:#ffffff">
      <title id="title1921">Louisa, IA</title>
    </path>
    <path id="c19139" d="m 610.48,226.62 1.9399,-0.0765 0.19061,3.3055 -1.0519,0 -2.4104,0.658 -0.6454,0.233 -0.18364,0.12 -0.016,0 -0.12124,0.171 -0.016,0.05 -0.23891,0.982 -0.20325,0.788 -4.9653,0.192 -0.0874,-2.016 -0.16046,-4.051 7.9694,-0.376" inkscape:connector-curvature="0" style="stroke:#ffffff">
      <title id="title1924">Muscatine, IA</title>
    </path>
    <path id="c19103" d="m 602.22,220.95 0.29061,6.042 0.16046,4.051 -1.9772,0.08 -0.63514,-1.00404 -0.0887,-0.97996 -5.288,0.23 -0.0872,-1.97677 -0.17428,0.0351 -0.13072,-6.14932 7.9302,-0.328" inkscape:connector-curvature="0" style="stroke:#ffffff" sodipodi:nodetypes="ccccccccccc">
      <title id="title1927">Johnson, IA</title>
    </path>
    <path id="c19113" d="m 601.78,210.87 0.34766,8.068 0.0945,2.016 -7.9302,0.328 -0.43502,-10.107 3.9704,-0.114 3.9526,-0.191" inkscape:connector-curvature="0" style="stroke:#ffffff">
      <title id="title1930">Linn, IA</title>
    </path>
    <path id="c19031" d="m 610.07,218.56 0.21751,4.033 0.19077,4.027 -7.9694,0.376 -0.3851,-8.058 7.9462,-0.378" inkscape:connector-curvature="0" style="stroke:#ffffff">
      <title id="title1933">Cedar, IA</title>
    </path>
    <path id="c19105" d="m 605.72,210.68 3.9205,-0.194 0.32449,6.044 0.1034,2.025 -7.9462,0.378 -0.34766,-8.068 3.9455,-0.185" inkscape:connector-curvature="0" style="stroke:#ffffff">
      <title id="title1936">Jones, IA</title>
    </path>
    <path id="c19019" d="m 597.28,203.04 0.0481,1.752 0.0712,2.19411 0.21317,-0.0107 0.21486,4.08364 -3.9704,0.114 -3.9526,0.211 -0.1695,-4.16512 -0.31557,-0.003 -0.13181,-3.78892 7.9926,-0.387" inkscape:connector-curvature="0" style="stroke:#ffffff" sodipodi:nodetypes="ccccccccccc">
      <title id="title1939">Buchanan, IA</title>
    </path>
    <path id="c19065" d="m 588.87,193.25 7.9748,-0.324 0.43146,10.109 -7.9926,0.387 -0.25138,-6.116 -0.16224,-4.056" inkscape:connector-curvature="0" style="stroke:#ffffff">
      <title id="title1942">Fayette, IA</title>
    </path>
    <path id="c19191" d="m 596.3,183.27 0.16759,3.657 0.12124,0 0.25851,6.01 -7.9748,0.324 -0.11054,-3.007 -0.26565,-6.638 5.8193,-0.248 1.9843,-0.09" inkscape:connector-curvature="0" style="stroke:#ffffff">
      <title id="title1945">Winneshiek, IA</title>
    </path>
    <path id="c19005" d="m 602.84,182.96 0.28882,1.776 -0.016,1.182 1.7846,1.255 0.38688,0.491 0.50456,0.811 -0.0642,0.287 -1.2837,2.162 -0.43681,1.696 -7.1564,0.312 -0.25851,-6.01 -0.12124,0 -0.16759,-3.657 6.5396,-0.314" inkscape:connector-curvature="0" style="stroke:#ffffff">
      <title id="title1948">Allamakee, IA</title>
    </path>
    <path id="c19043" d="m 604,192.62 0.35658,2.186 0.37618,1.758 1.535,3.408 0.2086,0.434 1.3568,0.9 0.46712,0.216 0.8843,0.21 -3.9294,0.877 -7.9801,0.432 -0.43146,-10.109 7.1564,-0.312" inkscape:connector-curvature="0" style="stroke:#ffffff">
      <title id="title1951">Clayton, IA</title>
    </path>
    <path id="c19055" d="m 597.28,203.04 7.9801,-0.432 0.21167,3.88618 0.10626,-0.005 0.1474,4.19356 -3.9455,0.185 -3.9526,0.191 -0.21486,-4.08152 -0.21317,0.0107 -0.0712,-2.19623 -0.0481,-1.752" inkscape:connector-curvature="0" style="stroke:#ffffff" sodipodi:nodetypes="ccccccccccc">
      <title id="title1954">Delaware, IA</title>
    </path>
    <path id="c19061" d="m 605.26,202.61 3.9294,-0.877 2.1769,0.417 0.8433,0.202 0.19255,0.09 0.12124,0.122 1.0697,1.945 0.18363,0.579 0.0107,0.13 -0.0642,0.111 -0.23534,0.403 -0.007,0.05 0.016,0.129 0.0392,0.115 0.13728,0.143 0.39223,0.282 1.1357,0.586 1.4441,1.006 0.007,0 0.0428,0.04 -3.2145,0.168 0.10519,2.023 -3.9402,0.202 -3.9205,0.194 -0.13358,-4.16423 -0.10626,0.005 -0.22549,-3.91551" inkscape:connector-curvature="0" style="stroke:#ffffff" sodipodi:nodetypes="ccccccccccccccccccccccccccc">
      <title id="title1957">Dubuque, IA</title>
    </path>
    <path id="c19097" d="m 616.69,208.1 1.0109,1.171 0.0481,0.07 0.009,0.09 -0.0963,0.65 -0.0963,0.216 0,0.146 0.23534,0.53 0.0125,0.03 0.48316,0.602 0.016,0.01 0.29061,0.233 0.312,0.202 0.7078,0.226 2.972,3.541 -12.63,0.717 -0.32449,-6.044 3.9402,-0.202 -0.10519,-2.023 3.2145,-0.168" inkscape:connector-curvature="0" style="stroke:#ffffff">
      <title id="title1960">Jackson, IA</title>
    </path>
    </g>
  </svg>
