<svg xmlns:dc="http://purl.org/dc/elements/1.1/" xmlns:cc="http://creativecommons.org/ns#" xmlns:rdf="http://www.w3.org/1999/02/22-rdf-syntax-ns#" xmlns:svg="http://www.w3.org/2000/svg" xmlns="http://www.w3.org/2000/svg" xmlns:sodipodi="http://sodipodi.sourceforge.net/DTD/sodipodi-0.dtd" xmlns:inkscape="http://www.inkscape.org/namespaces/inkscape" width="121.6972500000004" height="105.25199999999995" version="1.0" id="svg2" inkscape:version="0.91 r13725" sodipodi:docname="USA counties.svg">
  <defs id="defs9439"/>
  <sodipodi:namedview pagecolor="#ffffff" bordercolor="#666666" borderopacity="1" objecttolerance="10" gridtolerance="10" guidetolerance="10" inkscape:pageopacity="0" inkscape:pageshadow="2" inkscape:window-width="798" inkscape:window-height="828" id="namedview9437" showgrid="false" showguides="true" inkscape:zoom="0.64950808" inkscape:cx="494.98999" inkscape:cy="313.535" inkscape:window-x="-7" inkscape:window-y="0" inkscape:window-maximized="0" inkscape:current-layer="svg2"/>
  <metadata id="metadata4">
    <rdf:RDF>
      <cc:Work>
        <dc:format>image/svg+xml</dc:format>
        <dc:type rdf:resource="http://purl.org/dc/dcmitype/StillImage"/>
        <dc:title/>
        <cc:license rdf:resource="http://creativecommons.org/publicdomain/zero/1.0/"/>
        <dc:date>2019-10-06</dc:date>
        <dc:creator>
          <cc:Agent>
            <dc:title>U.S. Census Bureau, Abe.suleiman, Lokal_Profil</dc:title>
          </cc:Agent>
        </dc:creator>
        <dc:source>https://commons.wikimedia.org/wiki/File:Usa_counties_large.svg</dc:source>
      </cc:Work>
      <cc:License rdf:about="http://creativecommons.org/publicdomain/zero/1.0/">
        <cc:permits rdf:resource="http://creativecommons.org/ns#Reproduction"/>
        <cc:permits rdf:resource="http://creativecommons.org/ns#Distribution"/>
        <cc:permits rdf:resource="http://creativecommons.org/ns#DerivativeWorks"/>
      </cc:License>
    </rdf:RDF>
  </metadata>
  <style id="style6">
  /*
   * Below are Cascading Style Sheet (CSS) definitions in use in this file,
   * which allow easily changing how counties are displayed.
   *
   *
   * For the U.S. Census county codes (FIPS codes) used in this file to identify individual counties, see this link:
   * https://www2.census.gov/geo/docs/reference/codes/files/national_county.txt
   *
   * The county codes used in this file combine the 2-digit state code, which is in the second column of the file
   * linked above, and the 3-digit county code, which is in the third column of the file linked above. Each value
   * for the "id" attribute for each county is in the following form: "c[state_code][county-code]". For example,
   * for Loving Country in Texas, the state code is "48" and the county code is "301", so the id name for the
   * county is "c48301".
   *
   * County codes used in this file can also be found on Wikimedia Commons at this link:
   * https://commons.wikimedia.org/wiki/File_talk:Usa_counties_large.svg/county_codes
   *
   * Examples:
   *
   * To color two counties red (in this case Loving County and Dallas County in Texas) simply
   * go to the CSS insertion point and add:
   *
   * #c48301, #c48113 {fill:red}
   *
   * To color an entire state's counties (in the case New Mexico, with "35" being the state code) a green,
   * go to the CSS insertion point and add:
   *
   * path[id*='c35'] {fill:#34A853}
   *
   */
  #counties {fill:#d0d0d0;stroke:#000;stroke-width:.17829;} 
  #borders {fill:none;stroke:#221e1f;stroke-width:.89143;} 
  #separator {fill:none;stroke:#a9a9a9;stroke-width:2.3177309;}
 </style>
  <g id="counties" transform="translate(-527.3296999999997,-250.39900000000011)" style="fill:#d0d0d0;stroke:#ffffff;stroke-width:0.17828999">
    <path id="c29143" d="m 638.4,334.91 3.1182,-0.442 3.8884,5.238 -1.4227,3.19 -0.1955,0.86287 -0.63404,0.32741 -0.47196,-0.35741 0.0571,-0.70977 0.18007,-0.339 0.0285,-0.06 0.0232,-0.09 0.0571,-0.227 0.016,-0.06 0,-0.1 -0.007,-0.04 -0.0571,-0.25 -0.11232,-0.266 -0.0107,-0.02 -0.11767,-0.183 -0.025,-0.02 -0.0392,-0.03 -0.0481,-0.03 -0.28169,-0.08 -0.51347,-0.08 -0.33696,0.05 -0.1141,0.07 -0.21038,0.281 -0.0303,0.04 -0.0232,0.09 -0.025,0.105 -0.0178,0.08 0.0178,0.07 0.0178,0.1 0.007,0.02 0.19968,0.427 0.025,0.03 0.40828,0.584 0.26479,1.26 0.69118,0.94016 -0.003,1.2674 -0.80635,0.26951 -0.96454,-1.485 -0.3637,-0.153 -1.3318,0.24 -1.3514,0.521 -2.8187,0.178 -0.8843,0 -0.31557,-5.559 4.7264,-0.267 -0.42433,-5.358 0.23178,-0.02" inkscape:connector-curvature="0" style="stroke:#ffffff">
      <title id="title4219">New Madrid, MO</title>
    </path>
    <path id="c29155" d="m 641.89,346.81 -0.87453,0.14623 1.0891,0.80804 0.37303,0.77035 -1.0591,0.64787 -1.5491,-0.10591 0.70839,1.3334 1.1822,0.58179 -0.14183,0.83005 -1.1969,0.66454 -0.14333,1.2012 -0.68122,1.0357 -4.8115,0.39675 -0.60974,-9.009 0.8843,0 2.8187,-0.178 1.3514,-0.521 1.3318,-0.24 0.3637,0.153 0.96454,1.485" inkscape:connector-curvature="0" style="stroke:#ffffff">
      <title id="title4222">Pemiscot, MO</title>
    </path>
    <path id="c29005" d="m 527.33,252.39 6.7981,0.07 2.9738,0.02 0.0321,2.296 0.41719,0 0.0232,2.188 -0.0303,2.853 -6.4772,-0.03 0.0178,-0.418 0,-0.03 0.005,-0.04 -0.0463,-0.119 -1.2141,-1.182 -1.1321,-2.846 -0.0963,-0.408 0.19968,-0.185 0.37797,-0.676 -0.65075,-0.578 -0.22643,0.491 -0.97166,-1.414" inkscape:connector-curvature="0" style="stroke:#ffffff">
      <title id="title4225">Atchison, MO</title>
    </path>
    <path id="c29087" d="m 537.54,259.82 1.6527,0 0.37084,0.717 -0.0464,0.09 -0.0891,0.708 0.23356,1.16 0.1034,0.175 0.21038,0.168 0.92175,5.311 -0.60261,0.683 -0.0143,0.02 -0.1034,0.1 -0.13015,0.05 -0.66858,0.06 -0.0802,0 -0.0642,-0.02 -0.33696,-0.128 -0.43324,-0.16 -0.85935,-0.553 -2.1216,-1.92 -0.11232,-0.163 -0.009,-0.215 -4.2985,-6.044 0,-0.06 6.4772,0.03" inkscape:connector-curvature="0" style="stroke:#ffffff">
      <title id="title4228">Holt, MO</title>
    </path>
    <path id="c29165" d="m 539.06,276.69 8.8288,-0.08 0.041,1.767 0.082,6.862 -3.3999,-0.907 -3.1664,-5.017 -2.3855,-2.624" inkscape:connector-curvature="0" style="stroke:#ffffff">
      <title id="title4231">Platte, MO</title>
    </path>
    <path id="c29021" d="m 547.77,269.94 0.0321,1.681 0.0874,4.981 -8.8288,0.08 0.6971,-2.097 0.20859,-0.298 0.6044,-0.882 0.0713,-0.08 1.2694,-1.124 0.37083,-0.06 0.36906,-0.822 -0.13728,-0.634 -0.14442,-0.683 5.4003,-0.06" inkscape:connector-curvature="0" style="stroke:#ffffff">
      <title id="title4234">Buchanan, MO</title>
    </path>
    <path id="c29003" d="m 547.61,262.84 0.0374,2.018 0.12124,5.085 -5.4003,0.06 -1.4709,-1.849 -0.92175,-5.311 7.6342,0" inkscape:connector-curvature="0" style="stroke:#ffffff">
      <title id="title4237">Andrew, MO</title>
    </path>
    <path id="c29147" d="m 542.1,252.52 4.9118,0.02 0.64005,4.265 -0.0374,6.035 -7.6342,0 -0.21038,-0.168 -0.1034,-0.174 -0.23356,-1.161 0.0891,-0.708 0.0464,-0.09 -0.37084,-0.717 -1.6527,0 0.0303,-2.853 -0.0232,-2.187 -0.41719,0 -0.0321,-2.297 4.9974,0.03" inkscape:connector-curvature="0" style="stroke:#ffffff">
      <title id="title4240">Nodaway, MO</title>
    </path>
    <path id="c29227" d="m 549.8,252.51 4.147,-0.1 0.39223,4.342 -6.6858,0.06 -0.64005,-4.265 2.7866,-0.03" inkscape:connector-curvature="0" style="stroke:#ffffff">
      <title id="title4243">Worth, MO</title>
    </path>
    <path id="c29075" d="m 547.65,256.81 6.6858,-0.06 0.0731,5.748 0,2.349 -6.7589,0.01 -0.0374,-2.018 0.0374,-6.035" inkscape:connector-curvature="0" style="stroke:#ffffff">
      <title id="title4246">Gentry, MO</title>
    </path>
    <path id="c29063" d="m 554.41,264.85 0.33696,5.689 0.016,1.001 -6.9585,0.09 -0.0321,-1.681 -0.12124,-5.085 6.7589,-0.01" inkscape:connector-curvature="0" style="stroke:#ffffff">
      <title id="title4249">DeKalb, MO</title>
    </path>
    <path id="c29049" d="m 554.76,271.54 0.0499,5.068 0,1.68 -6.8801,0.09 -0.041,-1.767 -0.0874,-4.981 6.9585,-0.09" inkscape:connector-curvature="0" style="stroke:#ffffff">
      <title id="title4252">Clinton, MO</title>
    </path>
    <path id="c29047" d="m 547.93,278.37 6.8801,-0.09 0.0713,5.737 -0.51524,-0.529 -0.0963,-0.07 -0.1765,-0.06 -0.61153,0 -0.20681,0.104 -0.10519,0.132 -0.1355,0.262 -0.0891,0.403 -0.23534,0.344 -0.5206,0.538 -1.7846,0.884 -2.4746,0.291 0.082,-1.079 -0.082,-6.862" inkscape:connector-curvature="0" style="stroke:#ffffff">
      <title id="title4255">Clay, MO</title>
    </path>
    <path id="c29025" d="m 554.75,270.54 1.9772,0.03 3.5657,-0.09 2.2999,-0.01 0.10519,4.012 0.0321,2.016 -7.9142,0.105 -0.0499,-5.068 -0.016,-1.001" inkscape:connector-curvature="0" style="stroke:#ffffff">
      <title id="title4258">Caldwell, MO</title>
    </path>
    <path id="c29061" d="m 562.32,262.41 0.12837,4.018 0.14441,4.047 -2.2999,0.01 -3.5657,0.09 -1.9772,-0.03 -0.33696,-5.689 0,-2.349 7.907,-0.09" inkscape:connector-curvature="0" style="stroke:#ffffff">
      <title id="title4261">Daviess, MO</title>
    </path>
    <path id="c29081" d="m 561.89,252.11 0.36193,7.256 0.0642,3.037 -7.907,0.09 -0.0731,-5.748 -0.39223,-4.342 3.7601,-0.117 4.1862,-0.177" inkscape:connector-curvature="0" style="stroke:#ffffff">
      <title id="title4264">Harrison, MO</title>
    </path>
    <path id="c29129" d="m 565.66,251.96 3.1735,-0.09 0.25673,4.564 0.066,2.701 -6.9033,0.233 -0.36193,-7.256 3.769,-0.155" inkscape:connector-curvature="0" style="stroke:#ffffff">
      <title id="title4267">Mercer, MO</title>
    </path>
    <path id="c29079" d="m 569.16,259.14 0.24069,5.398 0.0392,1.518 -6.9906,0.372 -0.12837,-4.018 -0.0642,-3.037 6.9033,-0.233" inkscape:connector-curvature="0" style="stroke:#ffffff">
      <title id="title4270">Grundy, MO</title>
    </path>
    <path id="c29117" d="m 569.44,266.05 0.0321,2.034 0.0891,4.083 1.7205,-0.05 -0.13906,2.047 -8.4437,0.316 -0.10519,-4.012 -0.14441,-4.047 6.9906,-0.372" inkscape:connector-curvature="0" style="stroke:#ffffff">
      <title id="title4273">Livingston, MO</title>
    </path>
    <path id="c29033" d="m 562.7,274.48 8.4437,-0.316 0.0438,4.0575 3.1194,0.46526 0.0514,0.76026 -0.73097,0.06 -0.75237,0.291 -1.6188,1.446 -1.0038,1.688 -0.19255,0.12 -0.70601,0.176 -0.24069,-0.04 -0.11232,-0.103 -1.1589,-1.35 -1.888,1.262 -1.182,-0.146 -1.847,0.997 -0.19255,-7.353 -0.0321,-2.016" inkscape:connector-curvature="0" style="stroke:#ffffff">
      <title id="title4276">Carroll, MO</title>
    </path>
    <path id="c29177" d="m 562.73,276.5 0.19255,7.353 -1.3015,-0.161 -2.4764,0.36 -0.9788,0.79 0.0464,0.09 0.0339,0.249 -0.37797,0.323 -0.19255,0.126 -0.24068,0.04 -0.24961,-0.02 -0.36192,-0.186 -1.9362,-1.437 -0.0713,-5.737 0,-1.68 7.9142,-0.105" inkscape:connector-curvature="0" style="stroke:#ffffff">
      <title id="title4279">Ray, MO</title>
    </path>
    <path id="c29107" d="m 562.92,283.85 1.847,-0.997 1.182,0.146 1.888,-1.262 -0.12836,8.116 0,0.338 -6.0011,-0.07 -0.0107,0.676 -4.9403,-0.09 0.0642,-5.249 0.36192,0.186 0.24961,0.02 0.24068,-0.04 0.19255,-0.126 0.37797,-0.323 -0.0339,-0.249 -0.0464,-0.09 0.9788,-0.79 2.4764,-0.36 1.3015,0.161" inkscape:connector-curvature="0" style="stroke:#ffffff">
      <title id="title4282">Lafayette, MO</title>
    </path>
    <path id="c29095" d="m 556.82,285.46 -0.0642,5.249 -0.0481,1.952 -8.6933,-0.176 -0.0571,-4.565 -0.025,-1.606 2.4746,-0.291 1.7846,-0.884 0.5206,-0.538 0.23534,-0.344 0.0891,-0.403 0.1355,-0.262 0.10519,-0.132 0.20681,-0.104 0.61153,0 0.1765,0.06 0.0963,0.07 0.51524,0.529 1.9362,1.437" inkscape:connector-curvature="0" style="stroke:#ffffff">
      <title id="title4285">Jackson, MO</title>
    </path>
    <path id="c29101" d="m 567.71,290.19 -0.025,8.631 -9.8753,-0.03 -1.199,-0.0408 0.099,-6.0982 0.0481,-1.952 4.9403,0.09 0.0107,-0.676 6.0011,0.07" inkscape:connector-curvature="0" style="stroke:#ffffff">
      <title id="title4288">Johnson, MO</title>
    </path>
    <path id="c29083" d="m 567.68,298.83 0,1.011 -0.007,7.08 -9.4403,0.06 -0.3958,-5.393 -0.0321,-2.788 9.8753,0.03" inkscape:connector-curvature="0" style="stroke:#ffffff">
      <title id="title4291">Henry, MO</title>
    </path>
    <path id="c29037" d="m 548.01,292.48 8.6933,0.176 -0.099,6.0982 1.199,0.0408 0.0321,2.788 -2.5727,0.02 -1.0038,-0.103 -1.0358,-0.394 -5.181,-0.06 -0.025,-6.044 -0.007,-2.522" inkscape:connector-curvature="0" style="stroke:#ffffff">
      <title id="title4294">Cass, MO</title>
    </path>
    <path id="c29185" d="m 558.24,306.98 9.4403,-0.06 0.43502,3.102 -0.0481,3.694 -0.45998,0 -0.57052,1.006 -0.0232,1.014 -0.99662,-0.01 -3.3019,-0.05 0.0232,-1.34 -4.6355,-0.09 0.0713,-3.151 0.066,-4.113" inkscape:connector-curvature="0" style="stroke:#ffffff">
      <title id="title4297">St. Clair, MO</title>
    </path>
    <path id="c29013" d="m 548.05,301.05 5.181,0.06 1.0358,0.394 1.0038,0.103 2.5727,-0.02 0.3958,5.393 -0.066,4.113 -1.3568,-0.472 -1.2052,0.101 -0.71493,0.107 -6.7268,-0.107 -0.0963,-7.614 -0.0232,-2.058" inkscape:connector-curvature="0" style="stroke:#ffffff">
      <title id="title4300">Bates, MO</title>
    </path>
    <path id="c29039" d="m 558.1,314.24 4.6355,0.09 -0.0232,1.34 3.3019,0.05 0.37084,5.938 -8.3082,-0.02 0,-1.349 0.0232,-6.051" inkscape:connector-curvature="0" style="stroke:#ffffff">
      <title id="title4303">Cedar, MO</title>
    </path>
    <path id="c29217" d="m 558.17,311.09 -0.0713,3.151 -0.0232,6.051 -9.8379,-0.152 -0.007,-0.451 -0.0553,-8.429 -0.009,-0.541 6.7268,0.107 0.71493,-0.107 1.2052,-0.101 1.3568,0.472" inkscape:connector-curvature="0" style="stroke:#ffffff">
      <title id="title4306">Vernon, MO</title>
    </path>
    <path id="c29057" d="m 558.08,321.64 8.3082,0.02 -0.009,3.368 0,3.373 -7.7466,0 -0.56873,-1.363 0.016,-5.385" inkscape:connector-curvature="0" style="stroke:#ffffff">
      <title id="title4309">Dade, MO</title>
    </path>
    <path id="c29011" d="m 558.08,320.3 0,1.349 -0.016,5.384 -9.7166,-0.178 -0.10518,-6.707 9.8379,0.152" inkscape:connector-curvature="0" style="stroke:#ffffff">
      <title id="title4312">Barton, MO</title>
    </path>
    <path id="c29097" d="m 558.06,327.03 0.56873,1.364 -0.007,5.611 -10.184,-0.02 -0.0874,-6.525 -0.007,-0.603 9.7166,0.178" inkscape:connector-curvature="0" style="stroke:#ffffff">
      <title id="title4315">Jasper, MO</title>
    </path>
    <path id="c29145" d="m 548.44,333.98 10.184,0.02 -0.041,6.95 -10.052,-0.257 -0.0909,-6.718" inkscape:connector-curvature="0" style="stroke:#ffffff">
      <title id="title4318">Newton, MO</title>
    </path>
    <path id="c29119" d="m 558.58,340.95 -0.0321,5.778 -9.9252,0.159 -0.0553,-3.903 -0.0392,-2.291 10.052,0.257" inkscape:connector-curvature="0" style="stroke:#ffffff">
      <title id="title4321">McDonald, MO</title>
    </path>
    <path id="c29109" d="m 566.37,328.4 0.41719,4.252 0.0321,2.37 0.0321,1.688 -8.2511,-0.02 0.0161,-2.692 0.007,-5.611 7.7466,0" inkscape:connector-curvature="0" style="stroke:#ffffff">
      <title id="title4324">Lawrence, MO</title>
    </path>
    <path id="c29009" d="m 558.61,336.7 8.2511,0.02 0.025,2.371 0.71493,0 -0.007,7.44 -5.1757,0.129 -3.8653,0.08 0.0571,-10.036" inkscape:connector-curvature="0" style="stroke:#ffffff">
      <title id="title4327">Barry, MO</title>
    </path>
    <path id="c29167" d="m 567.01,315.73 6.9675,0.392 0.35479,8.927 -7.957,-0.02 0.009,-3.368 -0.37084,-5.938 0.99662,0.01" inkscape:connector-curvature="0" style="stroke:#ffffff">
      <title id="title4330">Polk, MO</title>
    </path>
    <path id="c29209" d="m 566.82,335.02 4.9742,-0.06 0.0321,4.056 0.69176,0 0.007,7.384 -4.9403,0.121 0.007,-7.439 -0.71493,0 -0.025,-2.372 -0.0321,-1.688" inkscape:connector-curvature="0" style="stroke:#ffffff">
      <title id="title4333">Stone, MO</title>
    </path>
    <path id="c29077" d="m 574.33,325.05 1.9826,0 0.0428,3.357 0.271,0 0.0642,4.195 -9.9003,0.06 -0.41719,-4.252 0,-3.373 7.957,0.02" inkscape:connector-curvature="0" style="stroke:#ffffff">
      <title id="title4336">Greene, MO</title>
    </path>
    <path id="c29213" d="m 579.74,338.98 2.644,-0.01 0.10519,7.144 -1.5048,0.05 -8.0978,0.241 -0.35479,0 -0.007,-7.385 7.2153,-0.04" inkscape:connector-curvature="0" style="stroke:#ffffff">
      <title id="title4339">Taney, MO</title>
    </path>
    <path id="c29043" d="m 576.69,332.6 2.963,0.0557 0.002,0.26725 0.0802,6.056 -7.2153,0.04 -0.69176,0 -0.0321,-4.056 -4.9742,0.06 -0.0321,-2.37 9.9003,-0.06" inkscape:connector-curvature="0" style="stroke:#ffffff">
      <title id="title4342">Christian, MO</title>
    </path>
    <path id="c29225" d="m 580.24,323.32 3.0237,-0.05 0.0713,5.054 0.2389,0 0.0339,4.548 -3.9544,0.05 -0.002,-0.26725 -2.963,-0.0557 -0.0642,-4.195 -0.271,0 -0.0428,-3.357 0.0735,-1.634 3.856,-0.093" inkscape:connector-curvature="0" style="stroke:#ffffff">
      <title id="title4345">Webster, MO</title>
    </path>
    <path id="c29059" d="m 575.98,313.74 3.9134,0.03 0.0553,4.053 0.24247,0 0.0553,5.497 -3.856,0.093 -0.0735,1.634 -1.9826,0 -0.35479,-8.927 -0.0855,-2.3108 2.0859,-0.0693" inkscape:connector-curvature="0" style="stroke:#ffffff">
      <title id="title4348">Dallas, MO</title>
    </path>
    <path id="c29085" d="m 568.11,310.02 7.8803,0.02 -0.0143,3.71 -2.0859,0.0693 0.0855,2.3108 -6.9675,-0.392 0.0232,-1.014 0.57052,-1.006 0.45998,0 0.0481,-3.694" inkscape:connector-curvature="0" style="stroke:#ffffff">
      <title id="title4351">Hickory, MO</title>
    </path>
    <path id="c29015" d="m 567.68,299.84 3.9455,0.04 0.009,-0.675 1.872,-0.02 2.1145,0.02 0.007,6.252 0.36014,4.582 -7.8803,-0.02 -0.43502,-3.102 0.007,-7.08" inkscape:connector-curvature="0" style="stroke:#ffffff">
      <title id="title4354">Benton, MO</title>
    </path>
    <path id="c29159" d="m 567.71,289.86 3.4623,0.07 3.6656,0 0.80408,0.04 0,5.454 -0.0161,3.776 -2.1145,-0.02 -1.872,0.02 -0.009,0.675 -3.9455,-0.04 0,-1.011 0.025,-8.631 0,-0.338" inkscape:connector-curvature="0" style="stroke:#ffffff">
      <title id="title4357">Pettis, MO</title>
    </path>
    <path id="c29195" d="m 574.35,279.45 3.2662,1.5355 0.0601,1.9018 1.3039,0.0727 -1.3906,3.784 -1.9522,3.225 -0.80408,-0.04 -3.6656,0 -3.4623,-0.07 0.12836,-8.116 1.1589,1.35 0.11232,0.103 0.24069,0.04 0.70601,-0.176 0.19255,-0.12 1.0038,-1.688 1.6188,-1.446 0.75237,-0.291 0.73097,-0.06" inkscape:connector-curvature="0" style="stroke:#ffffff">
      <title id="title4360">Saline, MO</title>
    </path>
    <path id="c29041" d="m 578.47,271.99 3.0155,-0.0348 -0.0327,2.0168 -0.041,6.688 -1.3684,-0.55472 -1.058,2.8597 -1.3039,-0.0727 -0.0601,-1.9018 -3.2662,-1.5355 -0.0514,-0.76026 -3.1194,-0.46526 -0.0438,-4.0575 0.13906,-2.047 7.1903,-0.135" inkscape:connector-curvature="0" style="stroke:#ffffff">
      <title id="title4363">Chariton, MO</title>
    </path>
    <path id="c29115" d="m 578.24,264.17 0.15155,0 0.0802,7.818 -7.1903,0.135 -1.7205,0.05 -0.0891,-4.083 -0.0321,-2.034 -0.0392,-1.518 8.8395,-0.362" inkscape:connector-curvature="0" style="stroke:#ffffff">
      <title id="title4366">Linn, MO</title>
    </path>
    <path id="c29211" d="m 569.09,256.44 4.8797,-0.216 4.0168,-0.121 0.0232,1.004 0.22642,7.07 -8.8395,0.362 -0.24069,-5.398 -0.066,-2.701" inkscape:connector-curvature="0" style="stroke:#ffffff">
      <title id="title4369">Sullivan, MO</title>
    </path>
    <path id="c29171" d="m 580.28,251.3 0.31557,1.134 -0.11411,2.193 0.52238,2.355 -2.9899,0.12 -0.0232,-1.004 -4.0168,0.121 -4.8797,0.216 -0.25673,-4.564 4.8048,-0.223 6.6376,-0.348" inkscape:connector-curvature="0" style="stroke:#ffffff">
      <title id="title4372">Putnam, MO</title>
    </path>
    <path id="c29197" d="m 586.58,250.89 0.23177,5.801 -5.8086,0.291 -0.52238,-2.355 0.11411,-2.193 -0.31557,-1.134 1.3264,-0.07 4.9742,-0.337" inkscape:connector-curvature="0" style="stroke:#ffffff">
      <title id="title4375">Schuyler, MO</title>
    </path>
    <path id="c29001" d="m 586.81,256.69 0.082,1.013 0.27991,6.147 -8.7824,0.316 -0.15155,0 -0.22642,-7.071 2.9899,-0.119 5.8086,-0.291" inkscape:connector-curvature="0" style="stroke:#ffffff">
      <title id="title4378">Adair, MO</title>
    </path>
    <path id="c29121" d="m 587.17,263.85 1.0786,1.928 0.11232,8.046 -0.0339,0 -6.8765,0.142 0.0327,-2.0168 -3.0155,0.0348 -0.0802,-7.818 8.7824,-0.316" inkscape:connector-curvature="0" style="stroke:#ffffff">
      <title id="title4381">Macon, MO</title>
    </path>
    <path id="c29175" d="m 588.33,273.83 0.0713,5.969 0.0161,2.348 -2.0467,0.02 -4.9582,-1.51 0.041,-6.688 6.8765,-0.142" inkscape:connector-curvature="0" style="stroke:#ffffff">
      <title id="title4384">Randolph, MO</title>
    </path>
    <path id="c29089" d="m 581.41,280.66 4.9582,1.51 -2.0182,6.525 -4.0329,0.127 -1.1018,-0.184 -0.19077,-0.08 -0.89321,-0.619 -0.14442,-0.192 -0.39401,-0.843 0,-0.155 1.3906,-3.784 1.058,-2.8597 1.3684,0.55472" inkscape:connector-curvature="0" style="stroke:#ffffff">
      <title id="title4387">Howard, MO</title>
    </path>
    <path id="c29053" d="m 577.59,286.75 0,0.155 0.39401,0.843 0.14442,0.192 0.89321,0.619 0.19077,0.08 1.1018,0.184 4.0329,-0.127 1.0929,1.093 -1.4281,3.937 -0.34766,1.029 -0.1355,0.506 -2.2732,0.209 -1.6884,0.05 -3.9294,-0.09 0,-5.454 1.9522,-3.225" inkscape:connector-curvature="0" style="stroke:#ffffff">
      <title id="title4390">Cooper, MO</title>
    </path>
    <path id="c29019" d="m 588.41,282.14 3.7137,0 0.0713,4.072 -0.26386,0.01 -0.0963,0.216 -0.34409,3.351 -0.0981,3.382 -0.90748,1.591 0.1355,1.278 -3.1824,-2.105 -2.0004,-4.162 -1.0929,-1.093 2.0182,-6.525 2.0467,-0.02" inkscape:connector-curvature="0" style="stroke:#ffffff">
      <title id="title4393">Boone, MO</title>
    </path>
    <path id="c29051" d="m 587.44,293.95 3.1824,2.105 3.8492,1.517 0.19352,1.1795 -1.9094,0.93775 -1.0634,1.5904 -0.31407,1.8804 -0.99662,0.337 -2.8348,-0.321 0.016,-1.945 -1.6402,0 1.5172,-7.281" inkscape:connector-curvature="0" style="stroke:#ffffff">
      <title id="title4396">Cole, MO</title>
    </path>
    <path id="c29135" d="m 585.44,289.78 2.0004,4.162 -1.5172,7.281 -2.332,0.02 -4.0008,-3.712 -0.0232,-2.018 1.6884,-0.05 2.2732,-0.209 0.1355,-0.506 0.34766,-1.029 1.4281,-3.937" inkscape:connector-curvature="0" style="stroke:#ffffff">
      <title id="title4399">Moniteau, MO</title>
    </path>
    <path id="c29141" d="m 575.64,295.42 3.9294,0.09 0.0232,2.018 4.0008,3.712 -0.008,1.7492 -0.81861,0.065 -0.26485,3.0618 -1.2141,0.628 -3.5604,0.112 -1.2104,0.0537 0.16202,-0.91317 -1.0483,-0.54755 -0.007,-6.252 0.0161,-3.776" inkscape:connector-curvature="0" style="stroke:#ffffff">
      <title id="title4402">Morgan, MO</title>
    </path>
    <path id="c29131" d="m 585.93,301.23 1.6402,0 -0.016,1.945 2.8348,0.321 0.99662,-0.337 0.016,1.005 0.0874,3.028 0.29061,0 0.0642,3.359 -3.9704,0.04 -1.6135,0.03 -1.0376,-0.653 -0.33696,-0.33 -0.50455,-1.005 -0.0267,-0.667 -0.16938,-0.713 -0.6757,-0.958 -1.002,-0.176 0.26485,-3.0618 0.81861,-0.065 0.008,-1.7492 2.332,-0.02" inkscape:connector-curvature="0" style="stroke:#ffffff">
      <title id="title4405">Miller, MO</title>
    </path>
    <path id="c29029" d="m 582.5,306.12 1.002,0.176 0.6757,0.958 0.16938,0.713 0.0267,0.667 0.50455,1.005 0.33696,0.33 1.0376,0.653 1.6135,-0.03 0.0891,3.751 -1.0519,0.779 -1.248,0.635 -0.1658,0.04 -0.28348,-0.111 -0.67393,-0.781 -0.28169,-0.538 -0.12837,-0.524 0.0339,-0.05 -0.025,-0.08 -4.2432,0.06 -3.9134,-0.03 0.0143,-3.71 -0.36014,-4.582 1.0483,0.54755 -0.16202,0.91317 1.2104,-0.0537 3.5604,-0.112 1.2141,-0.628" inkscape:connector-curvature="0" style="stroke:#ffffff">
      <title id="title4408">Camden, MO</title>
    </path>
    <path id="c29169" d="m 591.84,310.55 2.956,0 0.2496,9.456 -3.9758,0.114 -0.0339,-1.014 -3.0273,-1.405 -0.0499,-3.368 -0.0891,-3.751 3.9704,-0.04" inkscape:connector-curvature="0" style="stroke:#ffffff">
      <title id="title4411">Pulaski, MO</title>
    </path>
    <path id="c29105" d="m 579.89,313.78 4.2432,-0.06 0.025,0.08 -0.0339,0.05 0.12837,0.524 0.28169,0.538 0.67393,0.781 0.28348,0.111 0.1658,-0.04 1.248,-0.635 1.0519,-0.779 0.0499,3.368 3.0273,1.405 0.0339,1.014 0.0713,3.052 -7.8732,0.09 -3.0237,0.05 -0.0553,-5.497 -0.24247,0 -0.0553,-4.053" inkscape:connector-curvature="0" style="stroke:#ffffff">
      <title id="title4414">Laclede, MO</title>
    </path>
    <path id="c29229" d="m 583.27,323.27 7.8732,-0.09 0.18363,5.048 0.12124,0.843 0.0874,3.68 -7.9213,0.119 -0.0339,-4.548 -0.2389,0 -0.0713,-5.054" inkscape:connector-curvature="0" style="stroke:#ffffff">
      <title id="title4417">Wright, MO</title>
    </path>
    <path id="c29067" d="m 594.49,332.7 -0.17472,6.09 -11.935,0.169 -2.644,0.01 -0.0802,-6.056 3.9544,-0.05 7.9213,-0.119 2.9578,-0.05" inkscape:connector-curvature="0" style="stroke:#ffffff">
      <title id="title4420">Douglas, MO</title>
    </path>
    <path id="c29153" d="m 582.38,338.96 11.935,-0.169 0.12658,6.839 -0.54734,0.03 -6.9496,0.287 -4.459,0.153 -0.10519,-7.144" inkscape:connector-curvature="0" style="stroke:#ffffff">
      <title id="title4423">Ozark, MO</title>
    </path>
    <path id="c29091" d="m 602.38,332.53 0.13015,3.712 0.0713,2.339 -0.0321,4.227 0.11054,2.452 -8.219,0.369 -0.12658,-6.839 0.17472,-6.09 1.9701,-0.06 2.2642,0.02 3.6567,-0.129" inkscape:connector-curvature="0" style="stroke:#ffffff">
      <title id="title4426">Howell, MO</title>
    </path>
    <path id="c29215" d="m 595.05,320.01 3.9847,-0.09 0.98236,-0.04 0.17828,4.043 1.9576,-0.06 0.23355,8.663 -3.6567,0.129 -2.2642,-0.02 -1.9701,0.06 -2.9578,0.05 -0.0874,-3.68 -0.12124,-0.843 -0.18363,-5.048 -0.0713,-3.052 3.9758,-0.114" inkscape:connector-curvature="0" style="stroke:#ffffff">
      <title id="title4429">Texas, MO</title>
    </path>
    <path id="c29161" d="m 601.67,306.94 1.7187,-0.06 0.49564,8.415 -4.9974,0.168 0.14442,4.459 -3.9847,0.09 -0.2496,-9.456 1.4548,-0.683 0.76307,-0.355 2.1608,-0.128 2.5656,-0.07 -0.0713,-2.378" inkscape:connector-curvature="0" style="stroke:#ffffff">
      <title id="title4432">Phelps, MO</title>
    </path>
    <path id="c29125" d="m 601.27,303.82 0.12476,3.094 0.27816,0.026 0.0713,2.378 -2.5656,0.07 -2.1608,0.128 -0.76307,0.355 -1.4548,0.683 -2.956,0 -0.0642,-3.359 -0.29061,0 -0.0874,-3.028 3.0701,-0.04 2.5138,-0.136 4.2842,-0.164" inkscape:connector-curvature="0" style="stroke:#ffffff">
      <title id="title4435">Maries, MO</title>
    </path>
    <path id="c29151" d="m 600.78,294.22 0.12123,-0.02 0.36193,9.615 -4.2842,0.164 -2.5138,0.136 -3.0701,0.04 -0.016,-1.005 0.31407,-1.8804 1.0634,-1.5904 1.9094,-0.93775 -0.19352,-1.1795 0.7078,-0.527 1.4227,-1.35 0.12837,-0.235 0.13015,-0.145 0.15868,-0.103 2.3142,-0.988 0.57943,-0.07 0.86648,0.07" inkscape:connector-curvature="0" style="stroke:#ffffff">
      <title id="title4438">Osage, MO</title>
    </path>
    <path id="c29027" d="m 592.2,286.22 8.4383,-0.248 0.14441,8.246 -0.86648,-0.07 -0.57943,0.07 -2.3142,0.988 -0.15868,0.103 -0.13015,0.145 -0.12837,0.235 -1.4227,1.35 -0.7078,0.527 -3.8492,-1.517 -0.1355,-1.278 0.90748,-1.591 0.0981,-3.382 0.34409,-3.351 0.0963,-0.216 0.26386,-0.01" inkscape:connector-curvature="0" style="stroke:#ffffff">
      <title id="title4441">Callaway, MO</title>
    </path>
    <path id="c29137" d="m 598.58,272.18 0.27991,7.377 -10.464,0.241 -0.0713,-5.969 0.0339,0 1.9843,-0.05 -0.0321,-1.368 5.9459,-0.144 2.3231,-0.09" inkscape:connector-curvature="0" style="stroke:#ffffff">
      <title id="title4444">Monroe, MO</title>
    </path>
    <path id="c29205" d="m 594.11,265.61 1.9683,-0.06 0.17651,6.718 -5.9459,0.144 0.0321,1.368 -1.9843,0.05 -0.11232,-8.046 5.8656,-0.175" inkscape:connector-curvature="0" style="stroke:#ffffff">
      <title id="title4447">Shelby, MO</title>
    </path>
    <path id="c29103" d="m 586.89,257.71 6.9282,-0.232 0.0303,1.013 0.26564,7.119 -5.8656,0.175 -1.0786,-1.928 -0.27991,-6.147" inkscape:connector-curvature="0" style="stroke:#ffffff">
      <title id="title4450">Knox, MO</title>
    </path>
    <path id="c29199" d="m 593.63,250.41 0.1872,7.063 -6.9282,0.232 -0.082,-1.013 -0.23177,-5.801 2.956,-0.193 4.0988,-0.288" inkscape:connector-curvature="0" style="stroke:#ffffff">
      <title id="title4453">Scotland, MO</title>
    </path>
    <path id="c29045" d="m 597.57,250.4 0.36193,0.226 1.3746,1.038 0.041,0.152 -0.0571,0.467 0.0642,0.16 1.7508,2.154 0.72563,0.586 1.1393,0.08 -1.2837,3.062 -7.8357,0.16 -0.0303,-1.013 -0.1872,-7.063 3.9366,-0.01" inkscape:connector-curvature="0" style="stroke:#ffffff">
      <title id="title4456">Clark, MO</title>
    </path>
    <path id="c29111" d="m 601.68,258.33 -0.10697,1.125 1.2302,5.858 -6.725,0.239 -1.9683,0.06 -0.26564,-7.119 7.8357,-0.16" inkscape:connector-curvature="0" style="stroke:#ffffff">
      <title id="title4459">Lewis, MO</title>
    </path>
    <path id="c29127" d="m 602.81,265.31 1.7526,4.249 1.043,1.656 -6.9763,0.40828 -0.0447,0.55472 -2.3231,0.09 -0.17651,-6.718 6.725,-0.239" inkscape:connector-curvature="0" style="stroke:#ffffff">
      <title id="title4462">Marion, MO</title>
    </path>
    <path id="c29173" d="m 598.58,272.18 0.0447,-0.55472 6.9763,-0.40828 2.4782,1.886 -0.45107,0.02 -4.3502,3.639 0.53308,3.04 -2.332,0 -2.619,0.09 0,-0.344 -0.27991,-7.377" inkscape:connector-curvature="0" style="stroke:#ffffff">
      <title id="title4465">Ralls, MO</title>
    </path>
    <path id="c29007" d="m 588.4,279.8 10.464,-0.241 0,0.344 2.619,-0.09 2.332,0 0.71493,4.049 -3.8862,0.10488 -0.004,2.0161 -8.4383,0.248 -0.0713,-4.072 -3.7137,0 -0.0161,-2.348" inkscape:connector-curvature="0" style="stroke:#ffffff">
      <title id="title4468">Audrain, MO</title>
    </path>
    <path id="c29139" d="m 607.16,283.79 0.0963,3.406 0.15868,3.448 -2.6743,0.09 0.0963,3.143 -3.9366,0.323 -0.12123,0.02 -0.14441,-8.246 0.004,-2.0161 3.8862,-0.10488 2.6351,-0.06" inkscape:connector-curvature="0" style="stroke:#ffffff">
      <title id="title4471">Montgomery, MO</title>
    </path>
    <path id="c29163" d="m 608.08,273.1 4.2343,4.397 4.3128,3.833 -5.0295,0.264 -3.1753,0.1 0.0642,2.05 -1.3247,0.05 -2.6351,0.06 -0.71493,-4.049 -0.53308,-3.04 4.3502,-3.639 0.45107,-0.02" inkscape:connector-curvature="0" style="stroke:#ffffff">
      <title id="title4474">Pike, MO</title>
    </path>
    <path id="c29113" d="m 616.63,281.33 0.82725,2.82 -0.0143,0.289 -0.48315,0.747 -0.0178,0.07 0.0446,0.161 0.95562,2.562 -5.1115,1.745 -1.872,0.06 -1.3354,-1.31 -1.0127,-1.317 -1.3496,0.03 -0.0963,-3.406 1.3247,-0.05 -0.0642,-2.05 3.1753,-0.1 5.0295,-0.264" inkscape:connector-curvature="0" style="stroke:#ffffff">
      <title id="title4477">Lincoln, MO</title>
    </path>
    <path id="c29219" d="m 607.26,287.2 1.3496,-0.03 1.0127,1.317 1.3354,1.31 1.872,-0.06 0.29596,7.488 -4.7977,-1.936 -0.11232,-0.217 -1.494,-1.215 -0.19968,-0.02 -0.78803,0.248 -0.89322,-0.202 -0.0963,-3.143 2.6743,-0.09 -0.15868,-3.448" inkscape:connector-curvature="0" style="stroke:#ffffff">
      <title id="title4480">Warren, MO</title>
    </path>
    <path id="c29073" d="m 605.73,294.08 0.22464,4.393 0.25673,4.116 0.10519,2.821 -3.0325,0.0582 0.0997,1.4108 -1.7187,0.06 -0.27816,-0.026 -0.12476,-3.094 -0.36193,-9.615 3.9366,-0.323 0.89322,0.202" inkscape:connector-curvature="0" style="stroke:#ffffff">
      <title id="title4483">Gasconade, MO</title>
    </path>
    <path id="c29055" d="m 606.32,305.41 4.8708,-0.114 0.47959,10.745 -0.91282,1.034 -2.8383,0.08 -0.0571,-2.016 -3.9794,0.153 -0.49564,-8.415 -0.0997,-1.4108 3.0325,-0.0582" inkscape:connector-curvature="0" style="stroke:#ffffff">
      <title id="title4486">Crawford, MO</title>
    </path>
    <path id="c29065" d="m 610.76,317.08 0.10162,2.534 -2.8526,0.03 0.0749,2.032 1.8613,-0.02 0.0874,2.002 -7.8821,0.207 -1.9576,0.06 -0.17828,-4.043 -0.98236,0.04 -0.14442,-4.459 4.9974,-0.168 3.9794,-0.153 0.0571,2.016 2.8383,-0.08" inkscape:connector-curvature="0" style="stroke:#ffffff">
      <title id="title4489">Dent, MO</title>
    </path>
    <path id="c29203" d="m 602.15,323.87 7.8821,-0.207 0.66145,-0.02 0.3483,3.9284 1.5718,1.5346 1.2484,0.0865 0.078,1.6825 -1.6652,0.297 -1.9522,0.113 0.12837,4.683 -7.9373,0.273 -0.13015,-3.712 -0.23355,-8.663" inkscape:connector-curvature="0" style="stroke:#ffffff">
      <title id="title4492">Shannon, MO</title>
    </path>
    <path id="c29149" d="m 602.51,336.24 7.9373,-0.273 0.009,1.3358 2.0165,-0.0408 0.19433,7.554 -5.1436,0.273 -0.78624,0.02 -4.0774,0.146 -0.11054,-2.452 0.0321,-4.227 -0.0713,-2.339" inkscape:connector-curvature="0" style="stroke:#ffffff">
      <title id="title4495">Oregon, MO</title>
    </path>
    <path id="c29181" d="m 612.47,337.27 1.3193,-0.04 2.8419,0.07 4.1238,-0.193 1.9932,7.153 -3.8189,0.207 -6.265,0.355 -0.19433,-7.554" inkscape:connector-curvature="0" style="stroke:#ffffff">
      <title id="title4498">Ripley, MO</title>
    </path>
    <path id="c29035" d="m 613.94,330.88 1.2068,-0.013 0.0112,0.6985 3.1696,0.1345 1.4187,0.45091 0.57273,2.3121 0.44216,2.644 -4.1238,0.193 -2.8419,-0.07 -1.3193,0.04 -2.0165,0.0408 -0.009,-1.3358 -0.12837,-4.683 1.9522,-0.113 1.6652,-0.297" inkscape:connector-curvature="0" style="stroke:#ffffff">
      <title id="title4501">Carter, MO</title>
    </path>
    <path id="c29179" d="m 610.86,319.61 3.514,-0.548 3.4445,-0.167 0.1765,4.348 0.11972,3.341 0.72536,-0.04 0.0802,1.015 0.0232,1.405 -0.68997,1.157 0.0731,1.576 -3.1696,-0.1345 -0.0112,-0.6985 -1.2068,0.013 -0.078,-1.6825 -1.2484,-0.0865 -1.5718,-1.5346 -0.3483,-3.9284 -0.66145,0.02 -0.0874,-2.002 -1.8613,0.02 -0.0749,-2.032 2.8526,-0.03" inkscape:connector-curvature="0" style="stroke:#ffffff">
      <title id="title4504">Reynolds, MO</title>
    </path>
    <path id="c29093" d="m 619.88,315.72 0.045,2.1274 2.0606,-0.12538 0.16937,7.552 -0.014,1.2229 -3.2968,0.0461 -0.72536,0.04 -0.11972,-3.341 -0.1765,-4.348 -3.4445,0.167 -3.514,0.548 -0.10162,-2.534 0.91282,-1.034 8.2048,-0.322" inkscape:connector-curvature="0" style="stroke:#ffffff">
      <title id="title4507">Iron, MO</title>
    </path>
    <path id="c29221" d="m 616.85,304.99 2.6761,2.813 0.35301,7.915 -8.2048,0.322 -0.47959,-10.745 5.6553,-0.305" inkscape:connector-curvature="0" style="stroke:#ffffff">
      <title id="title4510">Washington, MO</title>
    </path>
    <path id="c29071" d="m 613.13,297.22 4.0186,-2.344 0.15154,3.999 -0.44928,6.115 -5.6553,0.305 -4.8708,0.114 -0.10519,-2.821 -0.25673,-4.116 -0.22464,-4.393 0.78803,-0.248 0.19968,0.02 1.494,1.215 0.11232,0.217 4.7977,1.936" inkscape:connector-curvature="0" style="stroke:#ffffff">
      <title id="title4513">Franklin, MO</title>
    </path>
    <path id="c29510" d="m 626.55,291.97 0.36727,1.85 -1.1785,3.052 -0.73989,-0.383 -0.22643,-1.225 -0.27991,-1.806 0.44215,-0.916 0.72385,-0.546 0.89143,-0.03" inkscape:connector-curvature="0" style="stroke:#ffffff">
      <title id="title4516">St. Louis, MO</title>
    </path>
    <path id="c29183" d="m 621.71,287 3.1646,0.77 0.45819,0.139 0.44929,0.216 0.33874,0.2 1.7436,1.053 0.0731,0.129 0.016,0.135 -0.0642,0.531 -0.0392,0.218 -0.16938,-0.337 -0.2906,-0.187 -0.30488,0.03 -0.43323,0.29 -0.30487,-0.114 -1.1018,-0.659 -0.1765,-0.184 -1.2854,0.112 -0.0303,0.275 -0.13906,0.312 -0.11232,0.178 -0.19969,0.168 -0.26564,0.02 -0.63649,-0.12 -0.19076,0 -0.13015,0.06 -0.11946,0.134 -0.41897,0.765 -0.90035,1.945 0.0161,0.264 -0.11767,0.225 -0.29061,0.162 -0.26743,0.03 -1.5333,-0.09 -0.12837,0.04 -0.23355,0.176 -0.52238,0.819 -0.41719,0.187 -4.0186,2.344 -0.29596,-7.488 5.1115,-1.745 3.7672,-0.995" inkscape:connector-curvature="0" style="stroke:#ffffff">
      <title id="title4519">St. Charles, MO</title>
    </path>
    <path id="c29189" d="m 627.85,290.39 -1.2944,1.58 -0.89143,0.03 -0.72385,0.546 -0.44215,0.916 0.27991,1.806 0.22643,1.225 0.73989,0.383 -0.0802,0.284 -1.2391,3.222 -0.13728,-0.523 -1.1321,-2.113 -3.3108,0.184 -2.3463,0.587 -0.20146,0.369 -0.15154,-3.999 0.41719,-0.187 0.52238,-0.819 0.23355,-0.176 0.12837,-0.04 1.5333,0.09 0.26743,-0.03 0.29061,-0.162 0.11767,-0.225 -0.0161,-0.264 0.90035,-1.945 0.41897,-0.765 0.11946,-0.134 0.13015,-0.06 0.19076,0 0.63649,0.12 0.26564,-0.02 0.19969,-0.168 0.11232,-0.178 0.13906,-0.312 0.0303,-0.275 1.2854,-0.112 0.1765,0.184 1.1018,0.659 0.30487,0.114 0.43323,-0.29 0.30488,-0.03 0.2906,0.187 0.16938,0.337" inkscape:connector-curvature="0" style="stroke:#ffffff">
      <title id="title4522">St. Louis Co., MO</title>
    </path>
    <path id="c29099" d="m 617.3,298.88 0.20146,-0.369 2.3463,-0.587 3.3108,-0.183 1.1321,2.112 0.13728,0.523 -0.0499,0.06 -0.0802,0.16 -0.26208,0.892 -0.0339,0.1 -0.016,0.233 0.0339,0.965 0.24068,1.034 0.2086,0.515 0.32983,0.451 0.0571,0.08 0.0464,0.05 1.5119,1.47 -2.8205,1.983 -3.6349,0.67375 -0.43185,-1.2358 -2.6761,-2.813 0.44928,-6.115" inkscape:connector-curvature="0" style="stroke:#ffffff">
      <title id="title4525">Jefferson, MO</title>
    </path>
    <path id="c29187" d="m 619.52,307.81 0.43185,1.2358 3.6349,-0.67375 1.7508,1.301 -2.3052,2.527 1.4691,1.419 3.482,3.141 0.78624,-0.745 0.82547,0.612 -0.60796,0.72 -7.0085,0.38 -2.0606,0.12538 -0.045,-2.1274 -0.35301,-7.915" inkscape:connector-curvature="0" style="stroke:#ffffff">
      <title id="title4528">St. Francois, MO</title>
    </path>
    <path id="c29186" d="m 627.32,307.07 5.0883,4.645 -2.8134,4.91 -0.82547,-0.612 -0.78624,0.745 -3.482,-3.141 -1.4691,-1.419 2.3052,-2.527 -1.7508,-1.301 2.8205,-1.983 0.91283,0.683" inkscape:connector-curvature="0" style="stroke:#ffffff">
      <title id="title4531">Ste. Genevieve, MO</title>
    </path>
    <path id="c29123" d="m 628.99,317.34 0.0642,1.03 0.23177,1.286 0.19255,5.313 -1.3086,0.01 -6.019,0.291 -0.16937,-7.552 7.0085,-0.38" inkscape:connector-curvature="0" style="stroke:#ffffff">
      <title id="title4534">Madison, MO</title>
    </path>
    <path id="c29223" d="m 622.15,325.28 6.019,-0.291 0.22286,5.29 2.0503,-0.112 0.0481,1.037 -1.7685,0.88297 -0.74712,2.032 -7.6574,0.346 -0.57273,-2.3121 -1.4187,-0.45091 -0.0731,-1.576 0.68997,-1.157 -0.0232,-1.405 -0.0802,-1.015 3.2968,-0.0461 0.014,-1.2229" inkscape:connector-curvature="0" style="stroke:#ffffff">
      <title id="title4537">Wayne, MO</title>
    </path>
    <path id="c29023" d="m 627.97,334.12 0.89322,2.356 0.63292,1.397 0.12301,0.05 0.16759,0.122 0.5937,1.139 0.22642,0.82 -0.0481,0.449 -0.16224,0.282 -1.1321,3.159 -6.5164,0.371 -1.9932,-7.153 -0.44216,-2.644 7.6574,-0.346" inkscape:connector-curvature="0" style="stroke:#ffffff">
      <title id="title4540">Butler, MO</title>
    </path>
    <path id="c29069" d="m 633.86,340.55 0.31557,5.559 0.60974,9.009 -6.0742,0.433 -1.4673,0.1 2.8401,-4.942 2.0093,-1.767 0.12836,-0.202 0.19433,-0.529 -0.11945,-1.826 -0.17828,-0.239 -1.6385,-2.314 -0.72385,0.02 -0.49029,0.03 1.1321,-3.159 3.4623,-0.175" inkscape:connector-curvature="0" style="stroke:#ffffff">
      <title id="title4543">Dunklin, MO</title>
    </path>
    <path id="c29207" d="m 634.82,328.95 1.831,-0.113 0.35122,2.131 0.36906,0.495 0.29061,0.468 0.39401,0.957 0.28169,0.786 0.0642,1.239 -0.23178,0.02 0.42433,5.358 -4.7264,0.267 -3.4623,0.175 0.16224,-0.282 0.0481,-0.449 -0.22642,-0.82 -0.5937,-1.139 -0.16759,-0.122 -0.12301,-0.05 -0.63292,-1.397 -0.89322,-2.356 0.74712,-2.032 1.7685,-0.88297 1.6866,-0.09 1.0626,-0.396 -0.1141,-1.686 1.6902,-0.08" inkscape:connector-curvature="0" style="stroke:#ffffff">
      <title id="title4546">Stoddard, MO</title>
    </path>
    <path id="c29017" d="m 634.2,318 0.61152,10.945 -1.6902,0.08 0.1141,1.686 -1.0626,0.396 -1.6866,0.09 -0.0481,-1.037 -2.0503,0.112 -0.22286,-5.29 1.3086,-0.01 -0.19255,-5.313 -0.23177,-1.286 5.1507,-0.37" inkscape:connector-curvature="0" style="stroke:#ffffff">
      <title id="title4549">Bollinger, MO</title>
    </path>
    <path id="c29157" d="m 632.41,311.71 4.8548,1.347 3.1164,5.16 0,0.137 -6.1776,-0.354 -5.1507,0.37 -0.0642,-1.03 0.60796,-0.72 2.8134,-4.91" inkscape:connector-curvature="0" style="stroke:#ffffff">
      <title id="title4552">Perry, MO</title>
    </path>
    <path id="c29031" d="m 634.2,318 6.1776,0.354 0.016,0.209 0.1141,0.46 0.007,0 0.51347,0.958 0.33696,0.504 0.47603,0.467 0.22464,0.282 0.28882,0.651 0.007,0.02 0.009,0.04 0.10341,0.387 0.009,0.02 -0.009,0.03 -0.0713,0.708 -0.0731,0.218 -0.0143,0.02 -0.0178,0.02 -0.016,0.02 -0.2086,0.107 -0.65788,0.176 0.0303,2.017 -2.6853,0.32046 -0.956,0.86509 -0.3322,1.4522 -0.82953,0.51926 -1.831,0.113 -0.61152,-10.945" inkscape:connector-curvature="0" style="stroke:#ffffff">
      <title id="title4555">Cape Girardeau, MO</title>
    </path>
    <path id="c29201" d="m 641.45,325.68 0.45998,0.658 1.1161,2.089 0.64183,1.575 1.2141,0.989 -3.3661,3.48 -3.1182,0.442 -0.0642,-1.239 -0.28169,-0.786 -0.39401,-0.957 -0.29061,-0.468 -0.36906,-0.495 -0.35122,-2.131 0.82953,-0.51926 0.3322,-1.4522 0.956,-0.86509 2.6853,-0.32046" inkscape:connector-curvature="0" style="stroke:#ffffff">
      <title id="title4558">Scott, MO</title>
    </path>
    <path id="c29133" d="m 644.88,330.99 3.4962,0.376 0.65075,0.838 -0.68819,2.298 -0.0107,0 -0.50634,0.289 -0.009,0 0,0.53 0.009,0 1.0519,0.554 -0.70601,3.188 -0.50969,0.55868 -0.24723,1.0836 -0.84441,0.0675 -1.1639,-1.0898 -3.8884,-5.238 3.3661,-3.48" inkscape:connector-curvature="0" style="stroke:#ffffff">
      <title id="title4561">Mississippi, MO</title>
    </path>
    </g>
  </svg>
