<svg xmlns:dc="http://purl.org/dc/elements/1.1/" xmlns:cc="http://creativecommons.org/ns#" xmlns:rdf="http://www.w3.org/1999/02/22-rdf-syntax-ns#" xmlns:svg="http://www.w3.org/2000/svg" xmlns="http://www.w3.org/2000/svg" xmlns:sodipodi="http://sodipodi.sourceforge.net/DTD/sodipodi-0.dtd" xmlns:inkscape="http://www.inkscape.org/namespaces/inkscape" width="135.24289999999996" height="68.46902000000006" version="1.0" id="svg2" inkscape:version="0.91 r13725" sodipodi:docname="USA counties.svg">
  <defs id="defs9439"/>
  <sodipodi:namedview pagecolor="#ffffff" bordercolor="#666666" borderopacity="1" objecttolerance="10" gridtolerance="10" guidetolerance="10" inkscape:pageopacity="0" inkscape:pageshadow="2" inkscape:window-width="798" inkscape:window-height="828" id="namedview9437" showgrid="false" showguides="true" inkscape:zoom="0.64950808" inkscape:cx="494.98999" inkscape:cy="313.535" inkscape:window-x="-7" inkscape:window-y="0" inkscape:window-maximized="0" inkscape:current-layer="svg2"/>
  <metadata id="metadata4">
    <rdf:RDF>
      <cc:Work>
        <dc:format>image/svg+xml</dc:format>
        <dc:type rdf:resource="http://purl.org/dc/dcmitype/StillImage"/>
        <dc:title/>
        <cc:license rdf:resource="http://creativecommons.org/publicdomain/zero/1.0/"/>
        <dc:date>2019-10-06</dc:date>
        <dc:creator>
          <cc:Agent>
            <dc:title>U.S. Census Bureau, Abe.suleiman, Lokal_Profil</dc:title>
          </cc:Agent>
        </dc:creator>
        <dc:source>https://commons.wikimedia.org/wiki/File:Usa_counties_large.svg</dc:source>
      </cc:Work>
      <cc:License rdf:about="http://creativecommons.org/publicdomain/zero/1.0/">
        <cc:permits rdf:resource="http://creativecommons.org/ns#Reproduction"/>
        <cc:permits rdf:resource="http://creativecommons.org/ns#Distribution"/>
        <cc:permits rdf:resource="http://creativecommons.org/ns#DerivativeWorks"/>
      </cc:License>
    </rdf:RDF>
  </metadata>
  <style id="style6">
  /*
   * Below are Cascading Style Sheet (CSS) definitions in use in this file,
   * which allow easily changing how counties are displayed.
   *
   *
   * For the U.S. Census county codes (FIPS codes) used in this file to identify individual counties, see this link:
   * https://www2.census.gov/geo/docs/reference/codes/files/national_county.txt
   *
   * The county codes used in this file combine the 2-digit state code, which is in the second column of the file
   * linked above, and the 3-digit county code, which is in the third column of the file linked above. Each value
   * for the "id" attribute for each county is in the following form: "c[state_code][county-code]". For example,
   * for Loving Country in Texas, the state code is "48" and the county code is "301", so the id name for the
   * county is "c48301".
   *
   * County codes used in this file can also be found on Wikimedia Commons at this link:
   * https://commons.wikimedia.org/wiki/File_talk:Usa_counties_large.svg/county_codes
   *
   * Examples:
   *
   * To color two counties red (in this case Loving County and Dallas County in Texas) simply
   * go to the CSS insertion point and add:
   *
   * #c48301, #c48113 {fill:red}
   *
   * To color an entire state's counties (in the case New Mexico, with "35" being the state code) a green,
   * go to the CSS insertion point and add:
   *
   * path[id*='c35'] {fill:#34A853}
   *
   */
  #counties {fill:#d0d0d0;stroke:#000;stroke-width:.17829;} 
  #borders {fill:none;stroke:#221e1f;stroke-width:.89143;} 
  #separator {fill:none;stroke:#a9a9a9;stroke-width:2.3177309;}
 </style>
  <g id="counties" transform="translate(-641.07257,-274.60699999999997)" style="fill:#d0d0d0;stroke:#ffffff;stroke-width:0.17828999">
    <path id="c21105" d="m 648.88,335.9 5.682,-0.139 0.41719,6.254 -0.19968,0.02 -0.13728,0 -1.3889,-1.622 -0.7488,-0.282 -4.3306,-1.046 0.70601,-3.188" inkscape:connector-curvature="0" style="stroke:#ffffff">
      <title id="title2992">Hickman, KY</title>
    </path>
    <path id="c21075" d="m 648.17,339.09 4.3306,1.046 0.7488,0.282 1.3889,1.622 -9.3618,0.676 -1.2944,0.184 1.4227,-3.19 1.1639,1.0898 0.84441,-0.0675 0.24723,-1.0836 0.50969,-0.55868 m -6.4219,3.986 -0.40828,-0.584 -0.025,-0.03 -0.19968,-0.427 -0.007,-0.02 -0.0178,-0.1 -0.0178,-0.07 0.0178,-0.08 0.025,-0.105 0.0232,-0.09 0.0303,-0.04 0.21038,-0.281 0.1141,-0.07 0.33696,-0.05 0.51347,0.08 0.28169,0.08 0.0481,0.03 0.0392,0.03 0.025,0.02 0.11767,0.183 0.0107,0.02 0.11232,0.266 0.0571,0.25 0.007,0.04 0,0.1 -0.016,0.06 -0.0571,0.227 -0.0232,0.09 -0.0285,0.06 -0.18007,0.339 -0.98949,0.05" inkscape:connector-curvature="0" style="stroke:#ffffff">
      <title id="title2995">Fulton, KY</title>
    </path>
    <path id="c21013" d="m 750.52,321.94 0.48494,0.948 -0.0635,3.8613 1.283,1.3607 -3.703,1.987 -4.6052,0.884 -0.91335,-1.486 1.5873,-0.90897 1.223,-2.155 1.708,-1.753 0.75772,-0.713 1.1179,-1.244 0.11232,-0.483 -0.0891,-0.177 -0.41006,-0.323 1.5101,0.202" inkscape:connector-curvature="0" style="stroke:#ffffff">
      <title id="title2998">Bell, KY</title>
    </path>
    <path id="c21121" d="m 743.62,320.13 0.22643,-0.02 1.5743,0.202 0.58656,0.167 0.23356,0.209 0.2496,0.289 0.0392,0.162 0.53843,0.224 0.77912,0.25 0.75593,0.135 0.40115,0 0.41006,0.323 0.0891,0.177 -0.11232,0.483 -1.1179,1.244 -0.75772,0.713 -1.708,1.753 -1.223,2.156 -1.5832,-0.733 -2.2981,-2.667 -0.78625,-2.291 3.703,-2.771" inkscape:connector-curvature="0" style="stroke:#ffffff">
      <title id="title3001">Knox, KY</title>
    </path>
    <path id="c21235" d="m 736.23,323.6 3.6905,-0.7 0.78625,2.291 2.2981,2.667 1.5832,0.732 -1.5873,0.90897 0.91335,1.486 -1.0358,0.103 -4.3556,0.5 -1.166,-1.086 -0.53129,-0.651 -1.059,-2.282 -0.0392,-0.323 0.50277,-3.646" inkscape:connector-curvature="0" style="stroke:#ffffff">
      <title id="title3004">Whitley, KY</title>
    </path>
    <path id="c21125" d="m 738.04,314.64 3.703,1.148 -0.23177,1.809 0.54556,0.603 0.94848,0.586 0.50634,0.755 0.11232,0.588 -3.703,2.771 -3.6905,0.7 -1.1392,-0.171 0.70779,-4.578 2.2411,-4.211" inkscape:connector-curvature="0" style="stroke:#ffffff">
      <title id="title3007">Laurel, KY</title>
    </path>
    <path id="c21051" d="m 744.31,313.17 1.4798,0.07 2.7171,1.34 0.72206,0.07 0.40828,0.465 -0.23793,3.1475 1.1222,3.6915 -1.5101,-0.202 -0.40115,0 -0.75593,-0.135 -0.77912,-0.25 -0.53843,-0.224 -0.0392,-0.162 -0.2496,-0.289 -0.23356,-0.209 -0.58656,-0.167 -1.5743,-0.202 -0.22643,0.02 -0.11232,-0.588 -0.50634,-0.755 -0.94848,-0.586 -0.54556,-0.603 0.23177,-1.809 2.5638,-2.619" inkscape:connector-curvature="0" style="stroke:#ffffff">
      <title id="title3010">Clay, KY</title>
    </path>
    <path id="c21131" d="m 749.63,315.1 1.3514,-1.815 1.5261,0.884 1.9861,1.245 0.68997,0.604 0.73098,1.277 0.28348,0.955 -0.025,1.004 -5.1739,3.633 -0.48494,-0.948 -1.1222,-3.6915 0.23793,-3.1475" inkscape:connector-curvature="0" style="stroke:#ffffff">
      <title id="title3013">Leslie, KY</title>
    </path>
    <path id="c21095" d="m 756.18,319.26 1.1482,0.305 0.54555,0.684 2.7082,-1.462 1.3996,0.771 -0.0731,1.742 -0.37797,0.661 -1.1845,0.94749 -1.7333,0.0851 -0.71417,2.6722 -1.1061,0.0851 -3.4643,2.0042 -1.1023,0.35985 -1.283,-1.3607 0.0635,-3.8613 5.1739,-3.633" inkscape:connector-curvature="0" style="stroke:#ffffff">
      <title id="title3016">Harlan, KY</title>
    </path>
    <path id="c21133" d="m 763.48,312.39 0.81833,0.714 0.51525,-0.02 0.50277,-0.41 0.10697,0 0.5937,0.376 0.71671,0.644 -2.4796,2.2039 0.13476,1.9525 -1.6249,0.9805 -0.78697,0.72913 -1.3996,-0.771 -2.7082,1.462 -0.54555,-0.684 0.21929,0.178 0.0642,0 0.82012,-0.651 0.0606,-0.09 0.0481,-0.258 -0.0232,-1.115 -0.46533,-0.893 0.0303,-0.16 0.31379,-0.813 0.51346,-0.963 0.32627,0.226 0.39045,0 0.70779,-0.562 0.36014,-0.362 0.33875,-0.435 1.2444,-0.866 1.207,-0.41" inkscape:connector-curvature="0" style="stroke:#ffffff">
      <title id="title3019">Letcher, KY</title>
    </path>
    <path id="c21119" d="m 759.33,307.94 1.7936,0.265 1.3193,0.731 0.16581,0.259 0.0891,0.754 -0.0392,0.626 0.32804,0.963 0.0963,0.1 0.40293,0.233 0.34587,0.154 -0.353,0.369 -1.207,0.41 -1.2444,0.866 -0.33875,0.435 -0.36014,0.362 -0.70779,0.562 -0.39045,0 -0.32627,-0.226 -2.5511,-0.61598 -0.33897,-3.886 0.0308,-2.3469 2.82,-0.32714 0.46533,0.321" inkscape:connector-curvature="0" style="stroke:#ffffff">
      <title id="title3022">Knott, KY</title>
    </path>
    <path id="c21193" d="m 756.02,310.29 0.33897,3.886 2.5511,0.61598 -0.51346,0.963 -0.31379,0.813 -0.0303,0.16 0.46533,0.893 0.0232,1.115 -0.0481,0.258 -0.0606,0.09 -0.82012,0.651 -0.0642,0 -0.21929,-0.178 -1.1482,-0.305 0.025,-1.004 -0.28348,-0.955 -0.73098,-1.277 -0.68997,-0.604 -1.9861,-1.245 -1.5261,-0.884 -1.3514,1.815 -0.40828,-0.465 -0.60974,-1.705 2.1127,-0.747 3.9045,-1.927 1.3835,0.03" inkscape:connector-curvature="0" style="stroke:#ffffff">
      <title id="title3025">Perry, KY</title>
    </path>
    <path id="c21189" d="m 747.54,309.07 1.0786,3.863 0.60974,1.705 -0.72206,-0.07 -2.7171,-1.34 -1.4798,-0.07 -2.3052,-3.657 0.4261,0.321 0.4172,0.171 0.36192,0.07 1.4299,-0.345 1.0608,-0.555 0.21573,-0.314 0.85399,-0.06 0.7702,0.266" inkscape:connector-curvature="0" style="stroke:#ffffff">
      <title id="title3028">Owsley, KY</title>
    </path>
    <path id="c21109" d="m 738.17,308.87 3.3928,0.114 0.43324,0.528 2.3052,3.657 -2.5638,2.619 -3.703,-1.148 -0.28169,-1.102 -0.49564,-1.197 -0.54021,-0.756 -0.34588,-0.618 -0.0874,-0.587 0.0553,-0.264 1.831,-1.246" inkscape:connector-curvature="0" style="stroke:#ffffff">
      <title id="title3031">Jackson, KY</title>
    </path>
    <path id="c21065" d="m 737.52,302.25 1.4477,0.16 0.77377,0.758 1.2284,0.827 1.4352,0.1 1.9291,0.482 -2.7706,4.405 -3.3928,-0.114 -0.65075,-6.614" inkscape:connector-curvature="0" style="stroke:#ffffff">
      <title id="title3034">Estill, KY</title>
    </path>
    <path id="c21129" d="m 744.6,304.54 3.5586,1.356 -0.61866,3.176 -0.7702,-0.266 -0.85399,0.06 -0.21573,0.314 -1.0608,0.555 -1.4299,0.345 -0.36192,-0.07 -0.4172,-0.171 -0.4261,-0.321 -0.43324,-0.528 2.7706,-4.405 0.25852,-0.04" inkscape:connector-curvature="0" style="stroke:#ffffff">
      <title id="title3037">Lee, KY</title>
    </path>
    <path id="c21025" d="m 748.15,305.89 0.6133,0.336 0.55269,-0.304 0.12837,-0.176 0.23177,-0.481 0.0481,-0.296 -0.0214,-0.147 0.0464,-0.217 0.0963,-0.161 0.47602,-0.279 2.6333,0.353 5.9066,3.093 -2.82,0.32714 -0.0308,2.3469 -1.3835,-0.03 -3.9045,1.927 -2.1127,0.747 -1.0786,-3.863 0.61866,-3.176" inkscape:connector-curvature="0" style="stroke:#ffffff">
      <title id="title3040">Breathitt, KY</title>
    </path>
    <path id="c21071" d="m 763.68,301.86 1.4958,0.617 -0.48316,0.163 -0.30487,0.185 -0.0802,0.119 0.34766,3.311 0.52951,0.523 0.30487,0.716 0.0143,0.505 -0.35301,1.455 -0.84329,2.016 -0.30487,0.41 -0.16938,0.138 -0.34587,-0.154 -0.40293,-0.233 -0.0963,-0.1 -0.32804,-0.963 0.0392,-0.626 -0.0891,-0.754 -0.16581,-0.259 -1.3193,-0.731 -1.7936,-0.265 -1.0038,-5.242 0.58657,0.01 2.0895,-1.075 0.57052,-0.209 0.53842,0.01 1.5119,0.377 0.0553,0.05" inkscape:connector-curvature="0" style="stroke:#ffffff">
      <title id="title3043">Floyd, KY</title>
    </path>
    <path id="c21115" d="m 763.66,298.14 -0.8576,2.0999 0.8736,1.6191 -0.0552,-0.05 -1.5119,-0.377 -0.53842,-0.01 -0.57052,0.209 -2.0895,1.075 -0.58657,-0.01 -1.5974,-3.116 -0.0499,-2.45 0.15333,-0.499 0.0802,-0.161 0.30843,-0.264 0.0695,0 2.1787,0.457 1.8702,0.948 1.0697,0.378 1.2534,0.162" inkscape:connector-curvature="0" style="stroke:#ffffff">
      <title id="title3046">Johnson, KY</title>
    </path>
    <path id="c21153" d="m 756.73,299.58 1.5974,3.116 1.0038,5.242 -0.46533,-0.321 -5.9066,-3.093 -0.36905,-0.956 -0.32983,-1.28 2.0984,-3.172 0.0499,-0.05 0.71315,0 0.83438,0.17 0.77377,0.344" inkscape:connector-curvature="0" style="stroke:#ffffff">
      <title id="title3049">Magoffin, KY</title>
    </path>
    <path id="c21237" d="m 747.96,300.7 0.24782,0.386 0.98949,0.451 1.8952,0.641 1.494,1.393 0.36905,0.956 -2.6333,-0.353 -0.47602,0.279 -0.0963,0.161 -0.0464,0.217 0.0214,0.147 -0.0481,0.296 -0.23177,0.481 -0.12837,0.176 -0.55269,0.304 -0.6133,-0.336 -3.5586,-1.356 1.0448,-2.685 2.3231,-1.158" inkscape:connector-curvature="0" style="stroke:#ffffff">
      <title id="title3052">Wolfe, KY</title>
    </path>
    <path id="c21197" d="m 739.33,300.2 3.5657,-0.16 2.742,1.817 -1.0448,2.685 -0.25852,0.04 -1.9291,-0.482 -1.4352,-0.1 -1.2284,-0.827 -0.77377,-0.758 0.36193,-2.218" inkscape:connector-curvature="0" style="stroke:#ffffff">
      <title id="title3055">Powell, KY</title>
    </path>
    <path id="c21049" d="m 736.77,296.23 2.5638,3.968 -0.36193,2.218 -1.4477,-0.16 -4.7014,-0.321 0.41363,-4.147 3.5336,-1.558" inkscape:connector-curvature="0" style="stroke:#ffffff">
      <title id="title3058">Clark, KY</title>
    </path>
    <path id="c21173" d="m 738.36,294.22 0.95562,0.915 0.93066,0.144 0.20146,0.177 1.0376,0.957 1.1892,1.441 0.15332,0.31 0.0695,1.872 -3.5657,0.16 -2.5638,-3.968 1.5921,-2.008" inkscape:connector-curvature="0" style="stroke:#ffffff">
      <title id="title3061">Montgomery, KY</title>
    </path>
    <path id="c21165" d="m 747.32,296.37 1.2159,0.232 -0.57052,4.098 -2.3231,1.158 -2.742,-1.817 -0.0695,-1.872 4.4893,-1.799" inkscape:connector-curvature="0" style="stroke:#ffffff">
      <title id="title3064">Menifee, KY</title>
    </path>
    <path id="c21175" d="m 755.95,296.22 0.72919,0.908 0.0499,2.45 -0.77377,-0.344 -0.83438,-0.17 -0.71315,0 -0.0499,0.05 -2.0984,3.172 0.32983,1.28 -1.494,-1.393 -1.8952,-0.641 -0.98949,-0.451 -0.24782,-0.386 0.57052,-4.098 2.7866,-2.281 1.209,2.2504 3.4211,-0.3464" inkscape:connector-curvature="0" style="stroke:#ffffff">
      <title id="title3067">Morgan, KY</title>
    </path>
    <path id="c21063" d="m 757.15,292.13 0.60407,1.8521 -1.8004,2.2369 -3.4211,0.3464 -1.209,-2.2504 0.0963,-1.807 0.94848,-1.874 0.43502,0.09 1.3728,0.763 0.73098,0.529 1.3817,0.282 0.56338,0 0.29774,-0.158" inkscape:connector-curvature="0" style="stroke:#ffffff">
      <title id="title3070">Elliott, KY</title>
    </path>
    <path id="c21205" d="m 749.3,289.82 2.1127,2.693 -0.0963,1.807 -2.7866,2.281 -1.2159,-0.232 -2.8455,-2.821 0.93422,-0.763 0.30487,-0.331 0.7702,-1.172 -0.16759,-0.417 0.17829,-1.014 0.64183,-1.197 2.1698,1.166" inkscape:connector-curvature="0" style="stroke:#ffffff">
      <title id="title3073">Rowan, KY</title>
    </path>
    <path id="c21011" d="m 740.36,291.52 0.1355,-0.157 0.0802,0 1.7365,0.09 0.19255,0.105 0.44037,0.337 0.59726,1.148 0.77912,0.919 0.11945,-0.186 0.0303,-0.225 2.8455,2.821 -4.4893,1.799 -0.15332,-0.31 -1.1892,-1.441 -1.0376,-0.957 -0.20146,-0.177 -0.93066,-0.144 -0.95562,-0.915 2.0004,-2.699" inkscape:connector-curvature="0" style="stroke:#ffffff">
      <title id="title3076">Bath, KY</title>
    </path>
    <path id="c21181" d="m 737.61,288.55 2.7492,2.976 -2.0004,2.699 -4.3573,-3.641 1.3746,-2.228 2.2339,0.194" inkscape:connector-curvature="0" style="stroke:#ffffff">
      <title id="title3079">Nicholas, KY</title>
    </path>
    <path id="c21069" d="m 743.34,285.79 3.7904,2.861 -0.64183,1.197 -0.17829,1.014 0.16759,0.417 -0.7702,1.172 -0.30487,0.331 -0.93422,0.763 -0.0303,0.225 -0.11945,0.185 -0.77912,-0.918 -0.59726,-1.148 -0.44037,-0.337 -0.19255,-0.105 -1.7365,-0.09 -0.0802,0 -0.1355,0.157 -2.7492,-2.976 0.72384,-1.332 1.3657,0.665 2.2981,-1.413 1.3443,-0.676" inkscape:connector-curvature="0" style="stroke:#ffffff">
      <title id="title3082">Fleming, KY</title>
    </path>
    <path id="c21201" d="m 736.95,285.02 1.3817,2.196 -0.72384,1.332 -2.2339,-0.194 -1.6241,-0.39385 0.29944,-1.6442 2.9007,-1.296" inkscape:connector-curvature="0" style="stroke:#ffffff">
      <title id="title3085">Robertson, KY</title>
    </path>
    <path id="c21023" d="m 737.99,280.81 -1.0358,4.209 -2.9007,1.296 -0.85221,-0.556 -1.15,-5.607 3.3019,0.939 2.6369,-0.281" inkscape:connector-curvature="0" style="stroke:#ffffff">
      <title id="title3088">Bracken, KY</title>
    </path>
    <path id="c21161" d="m 742.91,283.25 0.42967,2.539 -1.3443,0.676 -2.2981,1.413 -1.3657,-0.665 -1.3817,-2.196 1.0358,-4.209 0.60975,0.08 0.21751,0.08 0.11232,0.09 1.5671,1.622 1.3906,0.69 1.0269,-0.121" inkscape:connector-curvature="0" style="stroke:#ffffff">
      <title id="title3091">Mason, KY</title>
    </path>
    <path id="c21135" d="m 753.53,279.75 -1.7044,5.416 -0.80408,2.887 0.19434,0.939 -0.0731,0.168 -0.71671,0.41 -1.1232,0.249 -2.1698,-1.166 -3.7904,-2.861 -0.42967,-2.539 0.0963,-0.811 0.13728,-0.225 0.18542,-0.128 1.3978,-0.612 0.21929,-0.05 0.15154,0.02 0.025,0 0.72028,0.177 1.9148,0.46 0.0481,0.02 0.60083,0.282 0.0428,0.01 1.018,0.763 0.72337,-0.63486 1.7073,-0.25222 0.30431,-1.2179 1.3246,-1.309" inkscape:connector-curvature="0" style="stroke:#ffffff">
      <title id="title3094">Lewis, KY</title>
    </path>
    <path id="c21019" d="m 762.06,286.01 0.14853,1.2279 0.60486,0.69952 0.0405,0.9397 -0.24776,0.7956 -3.3572,0.554 -0.83616,-2.925 2.2642,-3.407 1.383,2.1153" inkscape:connector-curvature="0" style="stroke:#ffffff">
      <title id="title3097">Boyd, KY</title>
    </path>
    <path id="c21089" d="m 757.81,282.78 2.8668,1.116 -2.2642,3.407 -1.7615,-0.346 -2.6743,-1.189 -0.73989,-0.257 -1.4138,-0.346 1.7044,-5.416 0.31914,-0.145 1.4869,-0.673 0.48494,-0.213 0.1123,0 0.18364,0.08 0.082,0.09 0.0232,0.04 0.0481,0.07 0.0303,0.06 0.009,0.03 0.007,0.03 0.0339,0.137 0.0143,0.163 0,0.02 0.009,0.01 -0.0178,0.278 0.16937,0.724 0.49921,1.502 0.041,0.09 0.11945,0.255 0.14442,0.169 0.0178,0.03 0.3851,0.257 0.0802,0.04" inkscape:connector-curvature="0" style="stroke:#ffffff">
      <title id="title3100">Greenup, KY</title>
    </path>
    <path id="c21043" d="m 751.83,285.16 1.4138,0.346 0.73989,0.257 2.6743,1.189 1.7615,0.346 0.83616,2.925 -2.1056,1.905 -0.29774,0.158 -0.56338,0 -1.3817,-0.282 -0.73098,-0.529 -1.3728,-0.763 -0.43502,-0.09 -0.94848,1.874 -2.1127,-2.693 1.1232,-0.249 0.71671,-0.41 0.0731,-0.168 -0.19434,-0.939 0.80408,-2.887" inkscape:connector-curvature="0" style="stroke:#ffffff">
      <title id="title3103">Carter, KY</title>
    </path>
    <path id="c21127" d="m 759.25,290.23 3.3572,-0.554 -0.44929,1.967 -0.0189,0.50545 0.80496,0.43682 0,0.02 0.33398,0.62528 0.53578,0.22658 0.90506,1.442 1.2152,0.44384 0.025,0.03 0.007,0.02 0,0.129 -0.46533,0.804 -1.4008,0.33093 -0.43907,1.4851 -1.2534,-0.162 -1.0697,-0.378 -1.8702,-0.948 -2.1787,-0.457 -0.0695,0 -0.30843,0.264 -0.0802,0.161 -0.15333,0.499 -0.72919,-0.908 1.8004,-2.2369 -0.60407,-1.8521 2.1056,-1.905" inkscape:connector-curvature="0" style="stroke:#ffffff">
      <title id="title3106">Lawrence, KY</title>
    </path>
    <path id="c21159" d="m 767.14,298 2.0915,2.5642 -1.4509,1.6768 -2.6051,0.23417 -1.4958,-0.617 -0.8736,-1.6191 0.8576,-2.0999 0.43907,-1.4851 1.4008,-0.33093 1.6364,1.6768" inkscape:connector-curvature="0" style="stroke:#ffffff">
      <title id="title3109">Martin, KY</title>
    </path>
    <path id="c21195" d="m 765.18,302.48 2.6051,-0.23417 1.4509,-1.6768 -0.008,0.02 0.0339,0.113 0.67214,1.035 1.3255,0.77503 0.61789,-0.36623 0.54941,1.0489 1.1657,1.0033 0.004,0 1.1747,0.26062 1.0688,-0.37538 0.47543,0.21776 -5.2809,6.347 -0.6757,0.872 -2.7153,1.531 -0.70601,0.507 -0.20147,0.137 -0.71671,-0.644 -0.5937,-0.376 -0.10697,0 -0.50277,0.41 -0.51525,0.02 -0.81833,-0.714 0.353,-0.369 0.16938,-0.138 0.30487,-0.41 0.84329,-2.016 0.35301,-1.455 -0.0143,-0.505 -0.30487,-0.716 -0.52951,-0.523 -0.34766,-3.311 0.0802,-0.119 0.30487,-0.185 0.48316,-0.163" inkscape:connector-curvature="0" style="stroke:#ffffff">
      <title id="title3112">Pike, KY</title>
    </path>
    <path id="c21097" d="m 734.05,286.31 -0.29944,1.6442 1.6241,0.39385 -1.3746,2.228 -4.163,2.58 -2.6262,-4.582 1.2926,-1.324 4.6943,-1.496 0.85221,0.556" inkscape:connector-curvature="0" style="stroke:#ffffff">
      <title id="title3115">Harrison, KY</title>
    </path>
    <path id="c21017" d="m 729.84,293.16 4.163,-2.58 4.3573,3.641 -1.5921,2.008 -3.5336,1.558 -0.80745,-0.21577 -0.9998,-0.40813 0.0582,-1.8508 -0.71127,-0.50431 -0.93422,-1.648" inkscape:connector-curvature="0" style="stroke:#ffffff">
      <title id="title3118">Bourbon, KY</title>
    </path>
    <path id="c21151" d="m 732.82,301.93 4.7014,0.321 0.65075,6.614 -1.831,1.246 -2.7082,-0.04 -3.8403,-4.919 1.3978,-1.975 1.6295,-1.246" inkscape:connector-curvature="0" style="stroke:#ffffff">
      <title id="title3121">Madison, KY</title>
    </path>
    <path id="c21203" d="m 736.34,310.11 -0.0553,0.264 0.0874,0.587 0.34588,0.618 0.54021,0.756 0.49564,1.197 0.28169,1.102 -2.2411,4.211 -4.3645,-3.593 0.57052,-3.742 1.3446,0.28936 0.28668,-1.7304 2.7082,0.04" inkscape:connector-curvature="0" style="stroke:#ffffff">
      <title id="title3124">Rockcastle, KY</title>
    </path>
    <path id="c21147" d="m 735.09,323.43 1.1392,0.171 -0.50277,3.646 0.0392,0.323 1.059,2.282 0.53129,0.651 1.166,1.086 -0.62757,0.07 -9.435,0.884 1.4637,-3.239 1.1571,-1.822 0.27991,-1.448 3.7298,-2.605" inkscape:connector-curvature="0" style="stroke:#ffffff">
      <title id="title3127">McCreary, KY</title>
    </path>
    <path id="c21137" d="m 727.79,308.55 4.2111,2.96 -0.57052,3.742 -1.0281,-0.40033 -2.6446,2.9483 0.0891,-1.448 -0.4582,-1.357 -1.4067,-0.538 -1.084,-0.724 -0.28169,-0.907 0.0178,-1.881 3.1557,-2.395" inkscape:connector-curvature="0" style="stroke:#ffffff">
      <title id="title3130">Lincoln, KY</title>
    </path>
    <path id="c21079" d="m 726.25,304.51 0.33696,-0.321 0.26565,-0.09 1.3104,0.749 0.0713,0.538 0.57052,0.708 0.27456,0.103 0.0481,-0.03 0.66679,-1.015 3.8403,4.919 -0.28668,1.7304 -1.3446,-0.28936 -4.2111,-2.96 -1.7686,-1.624 0.22643,-2.417" inkscape:connector-curvature="0" style="stroke:#ffffff">
      <title id="title3133">Garrard, KY</title>
    </path>
    <path id="c21113" d="m 726.74,300.06 3.3809,0.98093 1.0727,2.1351 -1.3978,1.975 -0.66679,1.015 -0.0481,0.03 -0.27456,-0.103 -0.57052,-0.708 -0.0713,-0.538 -1.3104,-0.749 -0.26565,0.09 -0.33696,0.321 -0.007,-1.084 0.49564,-3.366" inkscape:connector-curvature="0" style="stroke:#ffffff">
      <title id="title3136">Jessamine, KY</title>
    </path>
    <path id="c21067" d="m 730.78,294.81 0.71127,0.50431 -0.0582,1.8508 0.9998,0.40813 0.80745,0.21577 -0.41363,4.147 -1.6295,1.246 -1.0727,-2.1351 -3.3809,-0.98093 0.31557,-2.671 3.7208,-2.585" inkscape:connector-curvature="0" style="stroke:#ffffff">
      <title id="title3139">Fayette, KY</title>
    </path>
    <path id="c21239" d="m 725.05,295.79 2.0022,1.607 -0.31557,2.671 -0.49564,3.366 -1.8417,-2.307 -1.6224,-3.231 2.2732,-2.106" inkscape:connector-curvature="0" style="stroke:#ffffff">
      <title id="title3142">Woodford, KY</title>
    </path>
    <path id="c21209" d="m 727.21,288.58 2.6262,4.582 0.93422,1.648 -3.7208,2.585 -2.0022,-1.607 -0.70067,-3.574 2.5103,-3.117 0.35301,-0.517" inkscape:connector-curvature="0" style="stroke:#ffffff">
      <title id="title3145">Scott, KY</title>
    </path>
    <path id="c21073" d="m 722.03,292.38 2.3195,-0.167 0.70067,3.574 -2.2732,2.106 -0.90623,0.79442 -1.9642,-0.74442 -0.0874,-4.812 2.2108,-0.749" inkscape:connector-curvature="0" style="stroke:#ffffff">
      <title id="title3148">Franklin, KY</title>
    </path>
    <path id="c21005" d="m 719.91,297.94 1.9642,0.74442 0.90623,-0.79442 1.6224,3.231 -1.421,0.852 -2.1466,1.406 -0.22286,0.12 -0.13015,-0.01 -0.0571,-0.07 -2.2018,0.112 -0.46533,-1.671 1.0055,-1.631 1.1464,-2.291" inkscape:connector-curvature="0" style="stroke:#ffffff">
      <title id="title3151">Anderson, KY</title>
    </path>
    <path id="c21167" d="m 724.4,301.12 1.8417,2.307 0.007,1.084 -0.22643,2.417 -4.9332,1.375 -0.66679,-4.885 0.0571,0.07 0.13015,0.01 0.22286,-0.119 2.1466,-1.407 1.421,-0.852" inkscape:connector-curvature="0" style="stroke:#ffffff">
      <title id="title3154">Mercer, KY</title>
    </path>
    <path id="c21021" d="m 726.02,306.93 1.7686,1.624 -3.1557,2.395 -3.4498,0.467 -0.0642,-2.002 -0.0321,-1.109 4.9332,-1.375" inkscape:connector-curvature="0" style="stroke:#ffffff">
      <title id="title3157">Boyle, KY</title>
    </path>
    <path id="c21045" d="m 721.19,311.42 3.4498,-0.467 -0.0178,1.881 0.28169,0.907 1.084,0.724 1.4067,0.538 0.4582,1.357 -0.0891,1.448 -2.9239,3.189 -1.3782,0.36897 -1.3782,-1.67 -0.4549,-1.4692 -2.0768,-1.1448 1.3746,-2.571 0.49936,-0.0554 -0.23549,-3.0356" inkscape:connector-curvature="0" style="stroke:#ffffff">
      <title id="title3160">Casey, KY</title>
    </path>
    <path id="c21199" d="m 727.76,317.8 2.6446,-2.9483 1.0281,0.40033 4.3645,3.593 -0.70779,4.578 -3.7298,2.605 -1.2534,-0.611 -1.1572,-1.9575 -1.3495,0.73549 -1.2534,-0.611 -1.566,-0.92679 0.0559,-1.6682 2.9239,-3.189" inkscape:connector-curvature="0" style="stroke:#ffffff">
      <title id="title3163">Pulaski, KY</title>
    </path>
    <path id="c21231" d="m 731.36,326.03 -0.27991,1.448 -1.1571,1.822 -1.4637,3.239 -0.1355,0 -3.3589,0.154 -0.38689,-0.08 -0.20859,-0.112 -0.0874,-0.185 -0.47246,-1.366 -0.0499,-0.218 -0.0143,-0.353 0.0481,-0.304 -0.73276,-1.971 -0.49207,-0.85 3.7779,-3.674 1.2534,0.611 1.3495,-0.73549 1.1572,1.9575 1.2534,0.611" inkscape:connector-curvature="0" style="stroke:#ffffff">
      <title id="title3166">Wayne, KY</title>
    </path>
    <path id="c21207" d="m 722.08,319.69 1.3782,1.67 1.3782,-0.36897 -0.0559,1.6682 1.566,0.92679 -3.7779,3.674 -0.89857,0.842 -1.503,-0.883 -0.66679,-0.28 -0.0963,0.06 0.016,0.114 0.41898,0.561 -0.24426,0.1 -0.15154,-0.03 -0.11945,-0.07 -0.68463,-0.87 0.70959,-0.713 0.2906,-1.706 0.61688,-0.922 1.141,-2.266 0.68284,-1.503" inkscape:connector-curvature="0" style="stroke:#ffffff">
      <title id="title3169">Russell, KY</title>
    </path>
    <path id="c21053" d="m 719.84,327.68 -0.41898,-0.561 -0.016,-0.114 0.0963,-0.06 0.66679,0.28 1.503,0.883 0.89857,-0.842 0.49207,0.85 0.73276,1.971 -0.0481,0.304 0.0143,0.353 0.0499,0.218 0.47246,1.366 0.0874,0.185 0.20859,0.112 0.38689,0.08 -5.641,0.354 -0.35301,0.06 0.86826,-5.44" inkscape:connector-curvature="0" style="stroke:#ffffff">
      <title id="title3172">Clinton, KY</title>
    </path>
    <path id="c21057" d="m 719.35,326.09 -0.70959,0.713 0.68463,0.87 0.11945,0.07 0.15154,0.03 0.24426,-0.1 -0.86826,5.44 -2.5406,0.46 -3.4142,-4.284 2.3142,-3.062 4.0186,-0.144" inkscape:connector-curvature="0" style="stroke:#ffffff">
      <title id="title3175">Cumberland, KY</title>
    </path>
    <path id="c21001" d="m 719.55,317.08 2.0768,1.1448 0.4549,1.4692 -0.68284,1.503 -1.141,2.266 -0.61688,0.922 -0.2906,1.706 -4.0186,0.144 -1.7918,-3.785 2.931,-2.266 3.079,-3.104" inkscape:connector-curvature="0" style="stroke:#ffffff">
      <title id="title3178">Adair, KY</title>
    </path>
    <path id="c21217" d="m 713.72,314.13 0.0339,-0.06 0.35123,-0.149 1.6902,-0.159 1.7011,0.93996 0.65844,-0.58925 0.89013,-0.56607 0.77429,0.17536 1.1018,0.795 -1.3746,2.571 -3.079,3.104 -1.6866,-2.396 -1.018,-1.291 -2.1074,-1.383 -0.0553,-0.202 -0.009,-0.658 2.1288,-0.126" inkscape:connector-curvature="0" style="stroke:#ffffff">
      <title id="title3181">Taylor, KY</title>
    </path>
    <path id="c21155" d="m 714.2,307.88 0.68284,0.931 0.78803,0.731 1.3835,0.348 4.0721,-0.476 0.0642,2.002 0.23549,3.0356 -0.49936,0.0554 -1.1018,-0.795 -0.77429,-0.17536 -0.89013,0.56607 -0.65844,0.58925 -1.7011,-0.93996 -1.6902,0.159 -0.35123,0.149 -0.0339,0.06 -1.2284,-1.94 1.7026,-4.306" inkscape:connector-curvature="0" style="stroke:#ffffff">
      <title id="title3184">Marion, KY</title>
    </path>
    <path id="c21229" d="m 720.42,303.42 0.66679,4.885 0.0321,1.109 -4.0721,0.476 -1.3835,-0.348 -0.78803,-0.731 -0.68284,-0.931 4.0257,-4.348 2.2018,-0.112" inkscape:connector-curvature="0" style="stroke:#ffffff">
      <title id="title3187">Washington, KY</title>
    </path>
    <path id="c21215" d="m 712.73,298.32 6.035,1.906 -1.0055,1.631 -4.0754,1.2338 -1.7189,-1.0338 -0.38146,-0.41444 1.1303,-2.6376 0.016,-0.685" inkscape:connector-curvature="0" style="stroke:#ffffff">
      <title id="title3190">Spencer, KY</title>
    </path>
    <path id="c21211" d="m 714.69,293.2 5.1347,-0.07 0.0874,4.812 -1.1464,2.291 -6.035,-1.906 0.082,-2.544 -1.2159,-0.53802 0.19968,-0.262 0.16224,-0.109 0.30488,-0.121 0.6757,-0.202 0.6668,0.05 0.47424,-0.208 0.60974,-1.189" inkscape:connector-curvature="0" style="stroke:#ffffff">
      <title id="title3193">Shelby, KY</title>
    </path>
    <path id="c21103" d="m 716.13,287.72 1.6313,-0.449 4.2664,5.109 -2.2108,0.749 -5.1347,0.07 -0.89856,-3.04 2.3462,-2.441" inkscape:connector-curvature="0" style="stroke:#ffffff">
      <title id="title3196">Henry, KY</title>
    </path>
    <path id="c21187" d="m 720.07,285.49 2.4675,-1.649 0.48138,2.316 2.9506,2.628 0.34409,0.151 0.54734,0.162 -2.5103,3.117 -2.3195,0.167 -4.2664,-5.109 2.3052,-1.783" inkscape:connector-curvature="0" style="stroke:#ffffff">
      <title id="title3199">Owen, KY</title>
    </path>
    <path id="c21081" d="m 725.32,281.59 1.519,0.06 1.6706,5.609 -1.2926,1.324 -0.35301,0.517 -0.54734,-0.162 -0.34409,-0.151 -2.9506,-2.628 -0.48138,-2.316 2.0735,-1.582 0.70602,-0.668" inkscape:connector-curvature="0" style="stroke:#ffffff">
      <title id="title3202">Grant, KY</title>
    </path>
    <path id="c21191" d="m 732.05,280.15 1.15,5.607 -4.6943,1.496 -1.6706,-5.609 1.9612,-0.578 3.0844,-1.97 0.16937,1.054" inkscape:connector-curvature="0" style="stroke:#ffffff">
      <title id="title3205">Pendleton, KY</title>
    </path>
    <path id="c21037" d="m 729.93,275.9 1.9522,3.198 -3.0844,1.97 -2.3552,-6.454 3.4873,1.286" inkscape:connector-curvature="0" style="stroke:#ffffff">
      <title id="title3208">Campbell, KY</title>
    </path>
    <path id="c21117" d="m 726.44,274.61 2.3552,6.454 -1.9612,0.578 -1.519,-0.06 -0.88431,-6.242 2.0093,-0.733" inkscape:connector-curvature="0" style="stroke:#ffffff">
      <title id="title3211">Kenton, KY</title>
    </path>
    <path id="c21015" d="m 724.43,275.35 0.88431,6.242 -0.70602,0.668 -2.5317,-1.537 -0.24247,-1.003 -1.774,-2.828 0.81833,-1.847 3.5515,0.305" inkscape:connector-curvature="0" style="stroke:#ffffff">
      <title id="title3214">Boone, KY</title>
    </path>
    <path id="c21077" d="m 722.08,280.72 2.5317,1.537 -2.0735,1.582 -2.4675,1.649 -1.8809,-2.138 3.8902,-2.63" inkscape:connector-curvature="0" style="stroke:#ffffff">
      <title id="title3217">Gallatin, KY</title>
    </path>
    <path id="c21041" d="m 715.27,285.35 2.9239,-2.001 1.8809,2.138 -2.3052,1.783 -1.6313,0.449 -3.3518,-3.231 2.4835,0.862" inkscape:connector-curvature="0" style="stroke:#ffffff">
      <title id="title3220">Carroll, KY</title>
    </path>
    <path id="c21223" d="m 712.78,284.49 3.3518,3.231 -2.3462,2.441 -2.1947,-0.487 -0.0553,-1.449 1.2444,-3.736" inkscape:connector-curvature="0" style="stroke:#ffffff">
      <title id="title3223">Trimble, KY</title>
    </path>
    <path id="c21185" d="m 713.79,290.16 0.89856,3.04 -0.60974,1.189 -0.47424,0.208 -0.6668,-0.05 -0.6757,0.202 -0.30488,0.121 -0.16224,0.109 -0.19968,0.262 -3.2787,-1.858 3.2787,-3.712 2.1947,0.487" inkscape:connector-curvature="0" style="stroke:#ffffff">
      <title id="title3226">Oldham, KY</title>
    </path>
    <path id="c21111" d="m 708.31,293.38 3.2787,1.858 1.2159,0.53802 -0.082,2.544 -0.016,0.685 -2.1715,1.276 -2.8098,0 -2.751,1.327 -0.53842,0.399 -0.52951,0.751 -0.2086,-0.17 0.44215,-4.041 1.6723,-2.757 2.4978,-2.41" inkscape:connector-curvature="0" style="stroke:#ffffff">
      <title id="title3229">Jefferson, KY</title>
    </path>
    <path id="c21029" d="m 712.71,299.01 -1.1303,2.6376 0.38146,0.41444 -1.462,2.461 0.16938,0.151 -0.025,0.05 -1.0269,1.254 -0.5723,0.411 -0.77911,0.307 -0.30487,-0.02 -4.0507,-3.913 0.52951,-0.751 0.53842,-0.399 2.751,-1.327 2.8098,0 2.1715,-1.276" inkscape:connector-curvature="0" style="stroke:#ffffff">
      <title id="title3232">Bullitt, KY</title>
    </path>
    <path id="c21179" d="m 717.76,301.86 0.46533,1.671 -4.0257,4.348 -1.7026,4.306 -0.62044,0.754 -0.0695,0.05 -0.91639,-0.321 -0.0499,-0.435 0.0321,-0.715 0.0321,-0.354 0.37797,-0.434 -0.41006,-1.615 -0.16759,-0.118 -1.2534,-0.547 -0.25673,-0.05 -1.2302,-1.728 0.30487,0.02 0.77911,-0.307 0.5723,-0.411 1.0269,-1.254 0.025,-0.05 -0.16938,-0.151 1.462,-2.461 1.7189,1.0338 4.0754,-1.2338" inkscape:connector-curvature="0" style="stroke:#ffffff">
      <title id="title3235">Nelson, KY</title>
    </path>
    <path id="c21123" d="m 709.19,308.4 0.25673,0.05 1.2534,0.547 0.16759,0.118 0.41006,1.615 -0.37797,0.434 -0.0321,0.354 -0.0321,0.715 0.0499,0.435 0.91639,0.321 0.0695,-0.05 0.62044,-0.754 1.2284,1.94 -2.1288,0.126 -0.85748,0.22862 -0.34774,1.0164 -4.2985,0.05 0.0553,-2.441 1.2141,-1.67 0.75415,-0.949 1.0786,-2.08" inkscape:connector-curvature="0" style="stroke:#ffffff">
      <title id="title3238">Larue, KY</title>
    </path>
    <path id="c21087" d="m 710.39,315.5 0.34774,-1.0164 0.85748,-0.22862 0.009,0.658 0.0553,0.202 2.1074,1.383 1.018,1.291 1.6866,2.396 -2.931,2.266 -1.9398,-0.19299 -1.1393,-1.165 -0.0713,-5.593" inkscape:connector-curvature="0" style="stroke:#ffffff">
      <title id="title3241">Green, KY</title>
    </path>
    <path id="c21169" d="m 710.46,321.09 1.1393,1.165 1.9398,0.19299 1.7918,3.785 -2.3142,3.062 -2.66,-0.257 -0.60974,-3.776 -0.31379,-1.407 -0.32983,-0.932 -0.16759,-0.644 0.51347,-0.802 1.0109,-0.387" inkscape:connector-curvature="0" style="stroke:#ffffff">
      <title id="title3244">Metcalfe, KY</title>
    </path>
    <path id="c21171" d="m 710.36,329.04 2.66,0.257 3.4142,4.284 -6.4201,0.617 -3.4392,0.21 -0.24069,-2.17 2.7848,-2.9427 1.241,-0.25533" inkscape:connector-curvature="0" style="stroke:#ffffff">
      <title id="title3247">Monroe, KY</title>
    </path>
    <path id="c21213" d="m 694.41,329.73 0.6347,1.166 3.3732,0.192 -0.0214,0.722 0.19255,2.91 -2.7492,0.676 -3.6656,0 0.42978,-3.8575 1.8059,-1.8085" inkscape:connector-curvature="0" style="stroke:#ffffff">
      <title id="title3250">Simpson, KY</title>
    </path>
    <path id="c21003" d="m 702.37,327.73 3.9633,4.51 0.24069,2.17 -4.1862,0.177 -3.7922,0.135 -0.19255,-2.91 1.7989,-1.895 0.54556,-0.868 1.0465,-1.212 0.57587,-0.107" inkscape:connector-curvature="0" style="stroke:#ffffff">
      <title id="title3253">Allen, KY</title>
    </path>
    <path id="c21009" d="m 709.45,321.48 -0.51347,0.802 0.16759,0.644 0.32983,0.932 0.31379,1.407 0.60974,3.776 -1.241,0.25533 -2.7848,2.9427 -3.9633,-4.51 0.65966,-3.03 0.75911,-0.0886 0.0218,-2.4644 2.8205,-0.0185 2.8205,-0.64748" inkscape:connector-curvature="0" style="stroke:#ffffff">
      <title id="title3256">Barren, KY</title>
    </path>
    <path id="c21099" d="m 706.09,315.54 4.2985,-0.05 0.0713,5.593 -1.0109,0.387 -2.8205,0.64748 -2.8205,0.0185 0.0709,-1.2091 -2.3049,-2.4789 1.7546,-0.65577 -0.0431,-2.1882 2.8044,-0.07" inkscape:connector-curvature="0" style="stroke:#ffffff">
      <title id="title3259">Hart, KY</title>
    </path>
    <path id="c21093" d="m 703.7,302.59 0.2086,0.17 4.0507,3.913 1.2302,1.728 -1.0786,2.08 -0.75415,0.949 -1.2141,1.67 -0.0553,2.441 -2.8044,0.07 -0.28883,-1.134 -1.15,-1.375 -0.34587,-0.03 -0.31379,0.175 -0.49029,0.194 -1.8631,-0.709 1.7436,-4.966 2.5388,-0.722 0.41897,-1.389 -0.70067,-2.767 0.86826,-0.296" inkscape:connector-curvature="0" style="stroke:#ffffff">
      <title id="title3262">Hardin, KY</title>
    </path>
    <path id="c21163" d="m 694.02,302.68 3.6246,-2.329 -0.0553,0.649 0,0.04 0.007,0.161 0.007,0.105 0.0161,0.04 0.12836,0.449 0.10519,0.161 0.041,0.06 0.0874,0.06 0.81121,0.537 0.78089,0.307 0.12837,0.02 2.5959,0.128 0.53664,-0.177 0.70067,2.767 -0.41897,1.389 -2.5388,0.722 -6.6626,-5.072 0.10519,-0.01" inkscape:connector-curvature="0" style="stroke:#ffffff">
      <title id="title3265">Meade, KY</title>
    </path>
    <path id="c21091" d="m 685.44,306.22 2.7973,-1.854 3.1967,3.316 -0.17829,0.171 -0.11232,1.011 1.3122,3.077 -0.30665,-0.117 -3.4944,-1.432 -0.0107,-1.253 -0.7702,-1.07 -1.1018,-1.141 -1.4067,0.02 0.0749,-0.731" inkscape:connector-curvature="0" style="stroke:#ffffff">
      <title id="title3268">Hancock, KY</title>
    </path>
    <path id="c21027" d="m 691.43,307.68 0.13728,0 0.2389,-0.08 0.49921,-0.387 1.1731,-2.674 -0.1355,-1.373 0.0303,-0.251 0.0731,-0.104 0.0963,-0.06 0.36905,-0.07 6.6626,5.072 -1.7436,4.966 -0.19968,0.146 -1.5047,0.827 -1.7989,-0.683 -0.0178,-0.09 -0.21572,-0.223 -0.49029,-0.233 -0.0784,0 -0.41184,0.224 -0.3851,0.442 -0.53843,0.819 -1.0448,-2.152 0.30665,0.117 -1.3122,-3.077 0.11232,-1.011 0.17829,-0.171" inkscape:connector-curvature="0" style="stroke:#ffffff">
      <title id="title3271">Breckinridge, KY</title>
    </path>
    <path id="c21085" d="m 693.19,313.97 0.53843,-0.819 0.3851,-0.442 0.41184,-0.224 0.0784,0 0.49029,0.233 0.21572,0.223 0.0178,0.09 1.7989,0.683 1.5047,-0.827 0.19968,-0.146 1.8631,0.709 0.49029,-0.194 0.31379,-0.175 0.34587,0.03 1.15,1.374 0.28883,1.134 0.0431,2.1882 -1.7546,0.65577 -5.5857,0.914 -0.52352,-1.0542 -2.2328,-0.40582 -1.4028,-3.8049 1.3636,-0.13314" inkscape:connector-curvature="0" style="stroke:#ffffff">
      <title id="title3274">Grayson, KY</title>
    </path>
    <path id="c21061" d="m 695.99,319.37 5.5857,-0.914 2.3049,2.4789 -0.0709,1.2091 -0.0218,2.4644 -0.75911,0.0886 -1.4396,-0.30892 -0.49745,-0.61614 -1.1938,0.65369 -2.2998,-1.7016 -1.6082,-3.354" inkscape:connector-curvature="0" style="stroke:#ffffff">
      <title id="title3277">Edmonson, KY</title>
    </path>
    <path id="c21227" d="m 697.6,322.72 2.2998,1.7016 1.1938,-0.65369 0.49745,0.61614 1.4396,0.30892 -0.65966,3.03 -0.57587,0.107 -1.0465,1.212 -0.54556,0.868 -1.7989,1.895 0.0214,-0.722 -3.3732,-0.192 -0.6347,-1.166 -1.4067,-2.58 0.62757,-4.01 -0.14011,-0.43259 1.5987,0.0389 0.62612,-0.28523 0.6556,0.59888 1.2213,-0.335" inkscape:connector-curvature="0" style="stroke:#ffffff">
      <title id="title3280">Warren, KY</title>
    </path>
    <path id="c21031" d="m 693.23,317.91 2.2328,0.40582 0.52352,1.0542 1.6082,3.354 -1.2213,0.335 -0.6556,-0.59888 -0.62612,0.28523 -1.5987,-0.0389 0.14011,0.43259 -0.62757,4.01 -4.9974,-1.132 0.44215,-3.373 1.3425,-2.027 -0.21871,-0.87635 0.64203,-0.22728 0.28927,0.49236 0.44449,0.0973 2.2803,-2.193" inkscape:connector-curvature="0" style="stroke:#ffffff">
      <title id="title3283">Butler, KY</title>
    </path>
    <path id="c21141" d="m 688.01,326.02 4.9974,1.132 1.4067,2.58 -1.8059,1.8085 -0.42978,3.8575 -5.4074,0.649 -0.7702,-9.651 2.0093,-0.376" inkscape:connector-curvature="0" style="stroke:#ffffff">
      <title id="title3286">Logan, KY</title>
    </path>
    <path id="c21219" d="m 682.23,326.5 3.7708,-0.105 0.7702,9.651 -0.98771,0.114 -4.0239,0.394 0.47067,-10.054" inkscape:connector-curvature="0" style="stroke:#ffffff">
      <title id="title3289">Todd, KY</title>
    </path>
    <path id="c21177" d="m 684.38,318.28 4.0667,4.359 -0.44215,3.373 -2.0093,0.376 -3.7708,0.105 -1.5154,-1.838 0.29595,-0.651 -1.2052,-1.487 -0.21751,-1.285 1.3104,-2.057 3.4873,-0.895" inkscape:connector-curvature="0" style="stroke:#ffffff">
      <title id="title3292">Muhlenberg, KY</title>
    </path>
    <path id="c21183" d="m 688.65,310.39 3.4944,1.432 1.0448,2.152 -1.3636,0.13314 1.4028,3.8049 -2.2803,2.193 -0.44449,-0.0973 -0.28927,-0.49236 -0.64203,0.22728 0.21871,0.87635 -1.3425,2.027 -4.0667,-4.359 -0.31603,-1.4422 1.1041,-2.0028 1.7668,-1.656 1.8824,-1.205 -0.88398,-0.85296 0.71493,-0.738" inkscape:connector-curvature="0" style="stroke:#ffffff">
      <title id="title3295">Ohio, KY</title>
    </path>
    <path id="c21059" d="m 679.71,307.49 0.64361,0.45 2.6262,1.751 1.3425,-2.425 1.1179,-1.047 -0.0749,0.731 1.4067,-0.02 1.1018,1.141 0.7702,1.07 0.0107,1.253 -0.71493,0.738 0.88398,0.85296 -1.8824,1.205 -1.7668,1.656 -6.9175,-2.209 0.36326,-1.286 1.8342,-1.1728 -0.83898,-1.0031 0.0945,-1.682" inkscape:connector-curvature="0" style="stroke:#ffffff">
      <title id="title3298">Daviess, KY</title>
    </path>
    <path id="c21149" d="m 678.26,312.63 6.9175,2.209 -1.1041,2.0028 0.31603,1.4422 -3.4873,0.895 -1.0056,-0.8904 -0.80047,-3.1056 -2.332,-1.59 1.4958,-0.963" inkscape:connector-curvature="0" style="stroke:#ffffff">
      <title id="title3301">McLean, KY</title>
    </path>
    <path id="c21107" d="m 679.09,315.18 0.80047,3.1056 1.0056,0.8904 -1.3104,2.057 0.21751,1.285 1.2052,1.487 -0.29595,0.651 -1.2302,0.69 -2.0753,0.804 -2.9703,-0.765 -2.8062,-4.432 3.2074,-2.501 2.2268,-1.165 2.0253,-2.107" inkscape:connector-curvature="0" style="stroke:#ffffff">
      <title id="title3304">Hopkins, KY</title>
    </path>
    <path id="c21047" d="m 680.71,324.66 1.5154,1.838 -0.47067,10.054 -5.5608,0.579 -0.96454,0.111 0.0856,-1.969 -0.12658,-5.689 -1.4156,-0.706 0.66144,-3.489 2.9703,0.765 2.0753,-0.804 1.2302,-0.69" inkscape:connector-curvature="0" style="stroke:#ffffff">
      <title id="title3307">Christian, KY</title>
    </path>
    <path id="c21221" d="m 673.78,328.88 1.4156,0.706 0.12658,5.689 -0.0856,1.969 -2.9007,0.339 0.007,-0.708 -2.9881,-0.06 -1.0715,0.06 -0.86647,-1.526 -1.0751,-2.708 4.9172,-2.57 2.521,-1.198" inkscape:connector-curvature="0" style="stroke:#ffffff">
      <title id="title3310">Trigg, KY</title>
    </path>
    <path id="c21143" d="m 665.15,326.24 1.6955,-0.898 0.98949,0.03 1.421,2.362 2.0022,2.339 -4.9172,2.57 -1.7258,-2.523 0.53486,-3.882" inkscape:connector-curvature="0" style="stroke:#ffffff">
      <title id="title3313">Lyon, KY</title>
    </path>
    <path id="c21033" d="m 671.63,320.96 2.8062,4.432 -0.66144,3.489 -2.521,1.198 -2.0022,-2.339 -1.421,-2.362 -0.98949,-0.03 0.19022,-1.2765 4.7608,-3.7865 -0.16224,0.677" inkscape:connector-curvature="0" style="stroke:#ffffff">
      <title id="title3316">Caldwell, KY</title>
    </path>
    <path id="c21233" d="m 676.76,313.59 2.332,1.59 -2.0253,2.107 -2.2268,1.165 -3.2074,2.501 0.16224,-0.677 -0.83779,-0.18359 0.0102,-0.76177 -1.3287,0.40372 -0.42175,-1.5824 3.2609,-3.967 4.2824,-0.595" inkscape:connector-curvature="0" style="stroke:#ffffff">
      <title id="title3319">Webster, KY</title>
    </path>
    <path id="c21101" d="m 676.95,306.75 2.7563,0.739 -0.0945,1.682 0.83898,1.0031 -1.8342,1.1728 -0.36326,1.286 -1.4958,0.963 -4.2824,0.595 -0.73732,-2.6062 -1.0362,-0.47657 -2.2219,-2.7092 4.0756,-0.323 0.75836,-0.20098 -0.2272,1.4954 1.0492,0.26756 0.67758,-0.94419 -0.81185,-0.98166 0.4322,-1.6764 1.0138,1.151 1.5027,-0.43681" inkscape:connector-curvature="0" style="stroke:#ffffff">
      <title id="title3322">Henderson, KY</title>
    </path>
    <path id="c21225" d="m 666.88,310.93 0.83086,-0.0669 0.66425,0.42616 0.37806,-0.65042 0.4462,-0.29611 -0.84843,-1.3727 0.13542,-0.56999 2.2219,2.7092 1.0362,0.47657 0.73732,2.6062 -3.2609,3.967 -0.66856,0.0754 -0.63001,-1.6205 -0.45656,0.82708 -0.61074,0.32599 -1.4352,-1.487 -0.1462,-0.264 -0.3851,-1.045 -0.0107,-0.02 -0.0945,-0.52 -0.009,-0.03 0.025,-0.161 0.0963,-0.256 0.0232,-0.05 0.1462,-0.248 0.29061,-0.547 0.0143,0 0.83616,-0.608 0.21751,-0.236 0.1355,-0.247 0.0874,-0.234 0.23356,-0.875" inkscape:connector-curvature="0" style="stroke:#ffffff">
      <title id="title3325">Union, KY</title>
    </path>
    <path id="c21055" d="m 669.22,318.16 0.42175,1.5824 1.3287,-0.40372 -0.0102,0.76177 0.83779,0.18359 -4.7608,3.7865 -0.19022,1.2765 -1.6955,0.898 -0.37753,-2.8381 -3.1008,-2.8759 0.45641,-0.608 0.30666,-0.283 0.016,0 0.0874,-0.06 0.43502,-0.264 0.0392,0 0.1141,-0.03 0.312,-0.09 2.8865,-0.611 0.18363,-0.04 0.3441,-0.392 0,-0.371 0.61074,-0.32599 0.45656,-0.82708 0.63001,1.6205 0.66856,-0.0754" inkscape:connector-curvature="0" style="stroke:#ffffff">
      <title id="title3328">Crittenden, KY</title>
    </path>
    <path id="c21139" d="m 661.67,320.53 3.1008,2.8759 0.37753,2.8381 -0.53486,3.882 -2.0296,-1.9044 -2.456,1.3174 -1.5422,-1.146 1.3247,0.141 0.13549,-0.02 0.41898,-0.185 0.21573,-0.595 0.26564,-1.277 -0.51346,-1.141 -0.22464,-0.216 -0.24247,-0.137 -0.76307,-0.916 -0.15511,-0.498 0.0107,-0.153 0.51525,-2.264 0.0945,-0.227 0.23355,-0.303 0.16224,-0.114 0.12837,-0.1 0.312,-0.143 0.11232,-0.05 1.0537,0.344" inkscape:connector-curvature="0" style="stroke:#ffffff">
      <title id="title3331">Livingston, KY</title>
    </path>
    <path id="c21035" d="m 660.57,335.83 6.8462,-0.472 0.86647,1.526 1.1236,3.2982 -0.46397,0.85576 -7.9783,0.554 -0.39401,-5.762" inkscape:connector-curvature="0" style="stroke:#ffffff">
      <title id="title3334">Calloway, KY</title>
    </path>
    <path id="c21157" d="m 660.13,329.54 2.456,-1.3174 2.0296,1.9044 1.7258,2.523 1.0751,2.708 -6.8462,0.472 -0.32984,-4.434 -0.11053,-1.856" inkscape:connector-curvature="0" style="stroke:#ffffff">
      <title id="title3337">Marshall, KY</title>
    </path>
    <path id="c21083" d="m 660.24,331.39 0.32984,4.434 0.39401,5.762 -0.49742,0.03 -5.4895,0.396 -0.41719,-6.254 -0.29774,-3.999 5.978,-0.371" inkscape:connector-curvature="0" style="stroke:#ffffff">
      <title id="title3340">Graves, KY</title>
    </path>
    <path id="c21145" d="m 651.68,325.45 6.9033,2.935 1.5422,1.146 0.11053,1.856 -5.978,0.371 -0.0642,-0.176 -2.6119,-6.1 0.0981,-0.03" inkscape:connector-curvature="0" style="stroke:#ffffff">
      <title id="title3343">McCracken, KY</title>
    </path>
    <path id="c21039" d="m 654.26,331.76 0.29774,3.999 -5.682,0.139 -1.0519,-0.554 -0.009,0 0,-0.53 0.009,0 0.50634,-0.289 0.0107,0 0.68819,-2.298 5.1668,-0.618 0.0642,0.176" inkscape:connector-curvature="0" style="stroke:#ffffff">
      <title id="title3346">Carlisle, KY</title>
    </path>
    <path id="c21007" d="m 651.58,325.49 2.6119,6.1 -5.1668,0.618 -0.65075,-0.838 -0.85756,-1.927 4.0632,-3.953" inkscape:connector-curvature="0" style="stroke:#ffffff">
      <title id="title3349">Ballard, KY</title>
    </path>
    </g>
  </svg>
