<svg xmlns:dc="http://purl.org/dc/elements/1.1/" xmlns:cc="http://creativecommons.org/ns#" xmlns:rdf="http://www.w3.org/1999/02/22-rdf-syntax-ns#" xmlns:svg="http://www.w3.org/2000/svg" xmlns="http://www.w3.org/2000/svg" xmlns:sodipodi="http://sodipodi.sourceforge.net/DTD/sodipodi-0.dtd" xmlns:inkscape="http://www.inkscape.org/namespaces/inkscape" width="146.71400999999997" height="250.26799999999992" version="1.0" id="svg2" inkscape:version="0.91 r13725" sodipodi:docname="USA counties.svg">
  <defs id="defs9439"/>
  <sodipodi:namedview pagecolor="#ffffff" bordercolor="#666666" borderopacity="1" objecttolerance="10" gridtolerance="10" guidetolerance="10" inkscape:pageopacity="0" inkscape:pageshadow="2" inkscape:window-width="798" inkscape:window-height="828" id="namedview9437" showgrid="false" showguides="true" inkscape:zoom="0.64950808" inkscape:cx="494.98999" inkscape:cy="313.535" inkscape:window-x="-7" inkscape:window-y="0" inkscape:window-maximized="0" inkscape:current-layer="svg2"/>
  <metadata id="metadata4">
    <rdf:RDF>
      <cc:Work>
        <dc:format>image/svg+xml</dc:format>
        <dc:type rdf:resource="http://purl.org/dc/dcmitype/StillImage"/>
        <dc:title/>
        <cc:license rdf:resource="http://creativecommons.org/publicdomain/zero/1.0/"/>
        <dc:date>2019-10-06</dc:date>
        <dc:creator>
          <cc:Agent>
            <dc:title>U.S. Census Bureau, Abe.suleiman, Lokal_Profil</dc:title>
          </cc:Agent>
        </dc:creator>
        <dc:source>https://commons.wikimedia.org/wiki/File:Usa_counties_large.svg</dc:source>
      </cc:Work>
      <cc:License rdf:about="http://creativecommons.org/publicdomain/zero/1.0/">
        <cc:permits rdf:resource="http://creativecommons.org/ns#Reproduction"/>
        <cc:permits rdf:resource="http://creativecommons.org/ns#Distribution"/>
        <cc:permits rdf:resource="http://creativecommons.org/ns#DerivativeWorks"/>
      </cc:License>
    </rdf:RDF>
  </metadata>
  <style id="style6">
  /*
   * Below are Cascading Style Sheet (CSS) definitions in use in this file,
   * which allow easily changing how counties are displayed.
   *
   *
   * For the U.S. Census county codes (FIPS codes) used in this file to identify individual counties, see this link:
   * https://www2.census.gov/geo/docs/reference/codes/files/national_county.txt
   *
   * The county codes used in this file combine the 2-digit state code, which is in the second column of the file
   * linked above, and the 3-digit county code, which is in the third column of the file linked above. Each value
   * for the "id" attribute for each county is in the following form: "c[state_code][county-code]". For example,
   * for Loving Country in Texas, the state code is "48" and the county code is "301", so the id name for the
   * county is "c48301".
   *
   * County codes used in this file can also be found on Wikimedia Commons at this link:
   * https://commons.wikimedia.org/wiki/File_talk:Usa_counties_large.svg/county_codes
   *
   * Examples:
   *
   * To color two counties red (in this case Loving County and Dallas County in Texas) simply
   * go to the CSS insertion point and add:
   *
   * #c48301, #c48113 {fill:red}
   *
   * To color an entire state's counties (in the case New Mexico, with "35" being the state code) a green,
   * go to the CSS insertion point and add:
   *
   * path[id*='c35'] {fill:#34A853}
   *
   */
  #counties {fill:#d0d0d0;stroke:#000;stroke-width:.17829;} 
  #borders {fill:none;stroke:#221e1f;stroke-width:.89143;} 
  #separator {fill:none;stroke:#a9a9a9;stroke-width:2.3177309;}
 </style>
  <g id="counties" transform="translate(-36.02790000000001,-148.95)" style="fill:#d0d0d0;stroke:#ffffff;stroke-width:0.17828999">
    <path id="c06015" d="m 50.323,148.95 6.3328,1.993 4.9742,1.375 -0.54734,0.914 -0.75415,0.983 -1.166,0.112 -1.6313,1.453 -1.3015,6.019 0.15333,0.531 0.15333,1.478 -0.09806,0.282 -0.80229,0.931 -0.44393,0.306 -0.93957,-0.274 -0.66679,-0.892 0.35479,-1.189 -1.8809,-0.611 -2.956,-0.867 0.28704,-1.92 0.06418,-1.31 0.02496,-2.571 -0.0071,-0.218 -0.04101,-0.273 -0.08914,-0.297 0.39402,-3.785 0.58656,-2.17" inkscape:connector-curvature="0" style="stroke:#ffffff">
      <title id="title574">Del Norte, CA</title>
    </path>
    <path id="c06093" d="m 61.63,152.32 4.7086,1.317 0.04101,0 1.2284,0.255 1.7526,0.637 0.72206,0.215 0.42611,0.122 5.5697,1.574 2.209,0.547 2.0164,0.546 0.52238,0.169 0.9164,0.282 13.733,4.09 -0.44394,1.012 -0.15868,0.555 -0.87717,3.231 0.02496,0.07 0.08023,0.05 -2.0895,7.763 -1.503,5.489 -9.1996,-2.557 -4.7656,-1.381 -3.4712,-0.933 0.41719,-2.337 -2.0325,-1.254 -3.6085,1.421 -2.5156,2.605 0.15333,1.068 -0.2086,0.371 -0.3851,0.305 -0.32983,-0.05 -1.3496,-0.685 -2.3142,-2.442 -1.2694,-1.905 -0.78803,-0.763 -0.82012,-0.659 0.12837,-4.491 -0.32092,-0.459 -2.6369,-0.779 0.44393,-0.306 0.80229,-0.931 0.09806,-0.282 -0.15333,-1.478 -0.15333,-0.531 1.3015,-6.019 1.6313,-1.453 1.166,-0.112 0.75415,-0.983 0.54734,-0.914" inkscape:connector-curvature="0" style="stroke:#ffffff">
      <title id="title577">Siskiyou, CA</title>
    </path>
    <path id="c06025" d="m 142.45,377.78 11.557,2.418 9.4813,1.858 2.4586,0.424 3.8154,0.763 -1.9273,0.476 -1.1321,6.975 0.0143,0.04 0.40115,1.068 0.88609,0.62 0.312,0.138 1.6723,0.28 0.0571,0.06 0.0553,0.06 0.57052,1.332 -0.18542,1.512 -0.16937,0.586 -0.83438,1.173 -2.6672,1.655 -2.0182,-0.152 -0.11232,0 -14.206,-1.686 -0.28169,-0.03 -1.6153,-0.193 -6.0029,-0.715 -2.5548,-0.298 -1.8809,-0.217 0.86826,-3.799 1.815,-6.395 0.56338,-2.63 1.0608,-5.319" inkscape:connector-curvature="0" style="stroke:#ffffff">
      <title id="title580">Imperial, CA</title>
    </path>
    <path id="c06065" d="m 176.23,369.3 -1.7276,2.442 -0.53843,0.933 -0.49029,1.76 -0.10519,0.747 -0.54555,2.724 -0.74881,2.603 -2.3142,2.731 -3.8154,-0.763 -2.4586,-0.424 -9.4813,-1.858 -11.557,-2.418 -4.0097,-0.909 -5.9227,-1.285 -4.081,-0.892 -7.5219,-1.806 0.0891,-0.387 -2.0022,-1.784 -2.6993,-0.619 0.13728,-0.66 2.4586,-2.401 -0.9164,-1.271 -1.0679,-0.401 -0.55626,-1.495 -1.1963,-2.718 0.62757,-1.138 2.3534,-2.034 2.66,0.603 0.72385,0.169 0.16046,0.385 2.4586,0.916 5.4805,1.22 2.4015,0.09 4.6693,0.82 13.532,2.86 9.4332,2 0.20239,-1.0122 3.5434,0.69815 12.824,2.573" inkscape:connector-curvature="0" style="stroke:#ffffff">
      <title id="title583">Riverside, CA</title>
    </path>
    <path id="c06073" d="m 116.3,370.1 2.6993,0.619 2.0022,1.784 -0.0891,0.387 7.5219,1.806 4.081,0.892 5.9227,1.285 4.0097,0.909 -1.0608,5.319 -0.56338,2.629 -1.815,6.396 -0.86826,3.799 -1.7989,-0.218 -3.6638,-0.44 -3.7298,-0.433 -5.263,-0.621 -5.0544,-0.617 -0.11232,0 -0.87539,-3.833 0.35301,-5.68 0,-0.192 0.009,0 0.0143,-1.24 0.009,-0.481 -0.22464,-1.968 -0.0963,-0.697 -0.36906,-1.097 -0.0339,-0.09 -1.0358,-2.612 -0.30487,-0.731 -0.0571,-0.114 -0.41719,-0.883 -0.61866,-0.891 -0.37797,-0.408 -0.41006,-0.277 2.2179,-2.289" inkscape:connector-curvature="0" style="stroke:#ffffff">
      <title id="title586">San Diego, CA</title>
    </path>
    <path id="c06059" d="m 113.53,358.99 1.6313,2.167 1.1963,2.718 0.55626,1.495 1.0679,0.401 0.9164,1.271 -2.4586,2.401 -0.13728,0.66 -2.2179,2.289 -0.12123,-0.488 -0.32092,-0.651 -0.19968,-0.291 -3.5283,-4.426 -2.8366,-3.472 -0.69175,-0.854 0.49029,-0.866 1.0287,-1.295 2.0253,-1.741 0.85935,0.06 0.21751,0.05 2.5228,0.579" inkscape:connector-curvature="0" style="stroke:#ffffff">
      <title id="title589">Orange, CA</title>
    </path>
    <path id="c06037" d="m 96.897,381.81 -1.4299,-0.06 -0.90748,-1.118 -0.12124,-0.192 -0.44215,-1.407 -0.40115,-2.514 0.50634,0.17 2.6351,4.594 0.21751,0.467 -0.05705,0.06 m -0.97166,-15.651 -0.08023,-0.06 -0.01605,-0.166 0.01605,-0.03 0.08736,0.02 0.98236,0.33 1.1,0.884 0.89144,0.715 0.67571,0.571 0.86826,1.799 0.0713,0.185 0.0481,0.385 -0.0874,0.209 -0.26564,0.155 -0.16943,0 -2.3142,-1.093 -0.15333,-0.137 -1.6545,-3.776 m 24.333,-26.405 -1.223,5.302 -0.56874,3.063 -0.42789,2.603 -0.16937,1.125 -1.2355,2.675 -1.0679,1.784 -0.4261,0.708 -1.3354,0.649 -0.48138,0.589 -0.0321,0.16 0.0874,0.362 0.15333,0.217 -2.5228,-0.579 -0.21751,-0.05 -0.85935,-0.06 -2.0253,1.741 -1.0287,1.295 -0.49029,0.866 -1.4299,0.195 -1.503,-0.03 -0.69176,-0.273 -0.34409,-0.195 -1.3425,-0.866 -0.24069,-0.2 -0.14441,-0.811 0.1355,-0.144 0.43502,-0.323 0.22464,-0.05 0.11232,-0.232 0.11945,-0.579 -0.14263,-1.061 -0.0891,-0.515 -0.0481,-0.289 -0.1034,-0.596 -0.18542,-0.724 -0.25852,-0.697 -0.0232,-0.05 -0.0321,-0.07 -0.009,-0.01 -0.19968,-0.394 -0.041,-0.05 -0.15154,-0.218 -0.0499,-0.07 -0.0553,-0.05 -0.3227,-0.305 -0.46533,-0.184 -1.8399,-0.386 -1.4459,-0.193 -0.76307,0.06 -2.8455,-1.262 0.24069,-0.644 1.8328,-0.795 1.478,-0.619 2.2179,0.548 1.125,-1.794 0.12124,-0.841 -1.7436,-12.304 -0.08023,-0.667 22.42,5.24" inkscape:connector-curvature="0" style="stroke:#ffffff">
      <title id="title592">Los Angeles, CA</title>
    </path>
    <path id="c06111" d="m 88.332,330.16 1.0608,0.385 1.8239,0.85 0.2496,0.596 0.08736,0.625 4.6372,2.138 1.7276,0.426 1.7436,12.304 -0.12124,0.841 -1.125,1.794 -2.2179,-0.547 -1.478,0.618 -1.8328,0.795 -0.24069,0.644 -2.5228,-1.904 -2.7724,-4.823 -1.897,-2.442 -0.44215,-0.562 -0.23356,-0.105 0.5313,-0.369 0.15333,-0.136 0.35301,-1.126 2.5156,-10.002" inkscape:connector-curvature="0" style="stroke:#ffffff">
      <title id="title595">Ventura, CA</title>
    </path>
    <path id="c06083" d="m 68.428,346.59 3.3589,0.271 1.503,1.375 -0.04992,0.763 -0.01426,0.144 -0.08023,0.02 -2.7421,0.321 -0.24782,0.01 -0.73098,-0.746 -0.13728,-0.24 -0.85934,-1.928 m 9.385,1.05 0.7078,0.5 1.8649,0.618 0.06418,-0.04 0.03031,-0.02 0.04814,-0.02 0.0731,-0.04 0.09628,-0.06 0.05705,-0.02 0.50634,0.03 0.60974,0.451 0.12837,0.191 -0.0071,0 -0.0071,0.02 -0.01783,0.01 -0.61866,0.483 -0.1765,0.144 -0.12837,0.02 -3.1575,0.06 -0.68462,-0.162 -0.66679,-0.264 -0.0071,0 -0.2496,-0.123 -0.56339,-0.262 -0.50455,-0.371 -0.04101,-0.135 -0.36905,-2.09 0.12837,-0.162 0.11232,0.03 0.98949,0.392 1.7829,0.811 m -10.936,-24.78 2.8686,0.312 1.0216,0.396 0.9467,0.972 1.2462,-0.209 1.2052,-0.676 3.7119,-1.069 0.34588,0.41 1.0537,0.988 3.2537,2.611 4.081,3.213 0.82012,0.211 0.34588,0 0.55447,0.139 -2.5156,10.002 -0.35301,1.126 -0.15333,0.136 -0.5313,0.369 -1.3407,-1.229 -1.0127,-0.44 -1.0287,-0.146 -0.32092,0 -1.1,-0.05 -2.3159,-0.731 -0.79516,-0.804 -1.3585,-0.981 -0.54556,-0.216 -1.4138,-0.524 -1.182,-0.314 -1.3746,-0.288 -1.5743,-0.2 -1.872,-0.323 -2.4104,-3.148 0.15154,-1.826 1.182,-6.065 0.41006,-1.648" inkscape:connector-curvature="0" style="stroke:#ffffff">
      <title id="title598">Santa Barbara, CA</title>
    </path>
    <path id="c06079" d="m 59.268,301.14 20.234,5.539 0.35301,0.1 -1.0127,3.92 2.332,0.81867 -0.35478,2.1213 1.1131,1.8808 1.6557,0.57404 -0.62399,1.9581 1.4073,0.53837 -0.62815,1.7596 2.0004,0.531 0.53664,0.63075 -0.1554,1.7299 0.90302,-0.14271 0.86231,0.30508 -0.37202,2.1974 1.2563,0.48762 -0.99662,3.935 -0.34588,0 -0.82012,-0.211 -4.081,-3.213 -3.2537,-2.611 -1.0537,-0.988 -0.34588,-0.41 -3.7119,1.07 -1.2052,0.675 -1.2462,0.209 -0.9467,-0.972 -1.0216,-0.396 -2.8686,-0.312 0.30487,-0.556 0.02496,-0.04 0.28882,-0.642 0.23356,-0.619 0.11054,-0.379 0.08201,-0.384 0.02318,-0.105 0.0089,-0.04 0.03922,-0.511 0,-0.03 -0.05527,-0.369 -0.08023,-0.22 -0.16759,-0.174 -0.55626,-0.571 -0.08023,-0.07 -0.16046,-0.111 -1.6634,-4.532 -3.0772,-5.674 -2.0253,-3.135 -0.31378,-0.328 -0.18364,-0.224 -0.29061,-1.02 -0.07131,-1.988" inkscape:connector-curvature="0" style="stroke:#ffffff">
      <title id="title601">San Luis Obispo, CA</title>
    </path>
    <path id="c06029" d="m 91.634,309.79 8.7182,2.16 9.8753,2.427 7.8749,1.84 1.0626,0.305 6.8052,1.399 -0.74702,1.904 -0.1765,0.658 -0.24069,2.708 -3.9063,16.722 -0.64183,-0.159 -22.42,-5.24 0.08023,0.667 -1.7276,-0.426 -4.6372,-2.138 -0.08736,-0.625 -0.2496,-0.596 -1.8239,-0.85 -1.0608,-0.385 -0.55447,-0.139 0.99662,-3.935 -1.2563,-0.48762 0.37202,-2.1974 -0.86231,-0.30508 -0.90302,0.14271 0.1554,-1.7299 -0.53664,-0.63075 -2.0004,-0.531 0.62815,-1.7596 -1.4073,-0.53837 0.62399,-1.9581 -1.6557,-0.57404 -1.1131,-1.8808 0.35478,-2.1213 -2.332,-0.81867 1.0127,-3.92 11.779,3.013" inkscape:connector-curvature="0" style="stroke:#ffffff">
      <title id="title604">Kern, CA</title>
    </path>
    <path id="c06071" d="m 125.97,317.92 4.6372,1.116 29.658,6.556 1.6884,0 3.687,5.537 1.2712,1.896 0.47246,0.7 6.8159,10.198 2.5138,3.743 -0.57765,2.556 -0.0321,0.321 0.0161,0.121 1.0127,2.635 1.2783,2.008 0.0642,0.925 1.1874,4.999 1.1731,1.407 1.0216,1.138 0.8843,1.545 -0.0642,0.997 -0.041,0.03 -2.4104,1.391 -1.6242,0.666 -2.3694,0.908 -12.824,-2.573 -3.5434,-0.69815 -0.20239,1.0122 -9.4332,-2 -13.532,-2.86 -4.6693,-0.82 -2.4015,-0.09 -5.4805,-1.22 -2.4586,-0.916 -0.16046,-0.385 -0.72385,-0.169 -2.66,-0.603 -2.3534,2.034 -0.62757,1.138 -1.6313,-2.167 -0.15333,-0.217 -0.0874,-0.362 0.0321,-0.16 0.48138,-0.589 1.3354,-0.649 0.4261,-0.708 1.0679,-1.784 1.2355,-2.675 0.16937,-1.124 0.42789,-2.603 0.56874,-3.063 1.223,-5.303 0.64183,0.159 3.9063,-16.722 0.24069,-2.708 0.1765,-0.658 0.74702,-1.904" inkscape:connector-curvature="0" style="stroke:#ffffff">
      <title id="title607">San Bernardino, CA</title>
    </path>
    <path id="c06027" d="m 114.55,275.54 16.618,3.931 9.2424,13.876 0.34409,0.513 1.9683,2.926 1.15,1.744 6.0671,9.08 4.9172,7.385 0.6347,0.948 2.6369,3.953 0.2086,0.306 3.6157,5.383 -1.6884,0 -29.658,-6.556 -4.6372,-1.116 -6.8052,-1.399 0.87539,-1.912 0.30487,-1.076 -0.0802,-1.519 -0.51347,-7.481 -1.3425,-7.611 -0.43324,-3.431 0.52238,-2.264 0.15155,-1.237 -0.0481,-0.87 -0.29774,-2.819 -0.23355,-0.476 -1.3568,-1.469 -0.35479,-0.03 -1.3889,-0.981 -0.0571,-0.05 -0.15154,-0.339 -0.90035,-4.525 0.0481,-1.396 0.64183,-1.488" inkscape:connector-curvature="0" style="stroke:#ffffff">
      <title id="title610">Inyo, CA</title>
    </path>
    <path id="c06107" d="m 117.98,293.49 0.43324,3.431 1.3425,7.611 0.51347,7.481 0.0802,1.519 -0.30487,1.076 -0.87539,1.912 -1.0626,-0.305 -7.8749,-1.84 -9.8753,-2.427 -8.7182,-2.16 1.9059,-7.433 0.89144,-2.999 0.58656,-0.159 0.46533,0.111 0.74702,-2.963 -0.8048,-0.30301 0.3466,-1.915 -0.79516,-0.202 2.3944,-1.454 2.7122,0.49434 0.63963,-1.6933 2.2981,0.612 3.3661,0.875 0.51525,-1.888 7.8981,1.858 3.1753,0.761" inkscape:connector-curvature="0" style="stroke:#ffffff">
      <title id="title613">Tulare, CA</title>
    </path>
    <path id="c06031" d="m 94.977,293.92 0.79516,0.202 -0.3466,1.915 0.8048,0.30301 -0.74702,2.963 -0.46533,-0.111 -0.58656,0.159 -0.89144,2.999 -1.9059,7.433 -11.779,-3.013 -0.35301,-0.1 -1.1179,-3.109 7.9552,-4.502 1.2462,-4.924 2.7403,0.674 2.5869,0.265 2.0646,-1.157" inkscape:connector-curvature="0" style="stroke:#ffffff">
      <title id="title616">Kings, CA</title>
    </path>
    <path id="c06039" d="m 107.42,267.18 1.3336,0.362 1.1268,0.362 0.24781,0.298 0.55448,1.109 0.21038,2.394 -5.6107,3.454 -0.79516,0.522 -0.33696,0.332 -0.21751,0.426 -0.15333,1.027 -0.016,0.396 -0.0392,0.151 -0.36906,0.859 -0.26565,0.289 -0.50633,0.451 -0.54734,0.303 -2.6119,-0.167 -0.76129,0.121 -2.9257,1.824 -0.78803,0.522 -0.18364,0.152 -1.2623,1.406 -0.30487,0.507 -0.4582,0.449 -0.06418,0.02 -7.7235,-0.25 -1.1,-0.208 -1.2694,-1.031 -0.69175,-1.123 -0.18542,-0.435 -0.08736,-0.289 -0.06418,-0.431 -0.50634,-3.948 1.462,-0.868 3.4873,-0.355 2.7242,0.364 1.7775,0 6.4504,-3.938 1.9451,0.474 1.5992,-1.432 0.40115,-1.46 6.0439,-3.681 0.48137,1.044" inkscape:connector-curvature="0" style="stroke:#ffffff">
      <title id="title619">Madera, CA</title>
    </path>
    <path id="c06019" d="m 114.55,275.54 -0.64183,1.488 -0.0481,1.396 0.90035,4.525 0.15154,0.339 0.0571,0.05 1.3889,0.981 0.35479,0.03 1.3568,1.469 0.23355,0.476 0.29774,2.819 0.0481,0.87 -0.15155,1.237 -0.52238,2.264 -3.1753,-0.761 -7.8981,-1.858 -0.51525,1.888 -3.3661,-0.875 -2.2981,-0.612 -0.63963,1.6933 -2.7122,-0.49434 -2.3944,1.454 -2.0646,1.157 -2.5869,-0.265 -2.7403,-0.674 -1.2462,4.924 -7.9552,4.502 -3.6406,-4.452 -1.1321,-1.631 -0.08023,-1.298 0.49029,-2.4 0.91461,-0.988 0.97983,0.27203 0.74955,-3.873 -4.0739,-7.133 8.4526,-5.032 0.50634,3.948 0.06418,0.431 0.08736,0.289 0.18542,0.435 0.69175,1.123 1.2694,1.031 1.1,0.208 7.7234,0.25 0.06418,-0.02 0.4582,-0.449 0.30487,-0.507 1.2623,-1.406 0.18364,-0.152 0.78803,-0.522 2.9257,-1.824 0.76129,-0.121 2.6119,0.167 0.54734,-0.303 0.50633,-0.451 0.26565,-0.289 0.36906,-0.859 0.0392,-0.151 0.016,-0.396 0.15333,-1.027 0.21751,-0.426 0.33696,-0.332 0.79516,-0.522 5.6107,-3.454 3.662,3.832" inkscape:connector-curvature="0" style="stroke:#ffffff">
      <title id="title622">Fresno, CA</title>
    </path>
    <path id="c06053" d="m 60.739,275.14 -0.09806,0.467 0.18542,0.708 1.4798,2.456 1.6777,3.022 1.0706,1.3184 -0.42623,2.8152 0.87464,-0.0115 2.4194,4.88 -0.08326,1.1321 1.1833,0.21094 3.3839,2.85 0.48851,0.193 0.09806,0 0.1355,-0.08 0.89322,-1.311 -0.49029,2.4 0.08023,1.298 1.1321,1.631 3.6406,4.452 1.1179,3.109 -20.234,-5.539 -0.57052,-0.833 -0.94849,-1.752 0.03209,-0.852 0.02318,-0.411 0.04101,-0.747 -0.10519,-0.659 -0.01605,-0.1 -2.1287,-4.563 -0.47424,-0.836 -0.91461,-1.031 -0.25852,-0.231 -0.0071,0 -0.17829,-0.02 -0.11232,-0.06 -0.1765,-0.223 -0.11232,-0.25 -0.45107,-1.045 -0.16046,-0.378 -0.01605,-0.362 0.58835,-5.849 1.2854,-0.457 0.03922,0.01 0.29061,0 0.22286,-0.1 0.44394,-0.328 0.27278,-0.282 0.19968,-0.241 0.34588,-0.524 0.32983,-0.656 0.8843,-1.913 0.01605,-0.266 -0.10341,-0.836 -0.0089,-0.06 3.1985,-0.153" inkscape:connector-curvature="0" style="stroke:#ffffff">
      <title id="title625">Monterey, CA</title>
    </path>
    <path id="c06069" d="m 60.739,275.14 1.1393,0.162 1.601,-0.9 1.6385,0.347 3.5747,0.961 -0.36905,0.385 -0.12837,0.179 -0.04814,0.128 0.12124,0.33 0.97166,2.112 3.1575,2.887 0.19433,0.33 4.0739,7.133 -0.74955,3.873 -0.97983,-0.27203 -0.91461,0.988 -0.89322,1.311 -0.1355,0.08 -0.09806,0 -0.48851,-0.193 -3.3839,-2.85 -1.1833,-0.21094 0.08326,-1.1321 -2.4194,-4.88 -0.87464,0.0115 0.42623,-2.8152 -1.0706,-1.3184 -1.6777,-3.022 -1.4798,-2.456 -0.18542,-0.708 0.09806,-0.467" inkscape:connector-curvature="0" style="stroke:#ffffff">
      <title id="title628">San Benito, CA</title>
    </path>
    <path id="c06047" d="m 87.23,264.54 0.86826,4.427 -0.0071,0.339 -0.01604,0.06 -0.08023,0.08 0.73098,4.363 0.47246,0.672 1.2961,1.683 -1.7775,0 -2.7243,-0.364 -3.4873,0.355 -1.462,0.868 -8.4526,5.032 -0.19433,-0.33 -3.1575,-2.887 -0.97166,-2.112 -0.12124,-0.33 0.04814,-0.128 0.12837,-0.179 0.36905,-0.385 -0.24782,-0.257 -0.13728,-0.303 -0.01605,-0.13 0.25673,-0.9 0.4582,-0.209 0.37797,-0.593 0.25673,-1.24 -0.09628,-0.303 5.8817,-3.473 0.03209,-0.754 -0.10341,-0.226 -0.1355,-0.08 2.6119,-0.772 9.3993,-1.928" inkscape:connector-curvature="0" style="stroke:#ffffff">
      <title id="title631">Merced, CA</title>
    </path>
    <path id="c06087" d="m 54.269,263.9 -0.0071,0.255 0.03922,0.129 0.48316,1.014 0.93957,1.904 0.4582,0.656 1.2302,1.081 0.7702,0.552 1.5511,1.641 2.1448,3.549 0.12124,0.202 -0.12124,0.419 -1.1393,-0.162 -3.1985,0.153 -0.12837,-0.724 -0.28169,-1.332 -0.20146,-0.497 -0.1765,-0.339 -0.16046,-0.217 -0.36192,-0.323 -0.16937,-0.04 -0.90035,0.209 -0.80407,-0.04 -0.41541,-0.06 -0.29061,-0.07 -0.14441,-0.08 -0.05705,-0.03 -0.25495,-0.145 -0.19433,-0.114 -0.69888,-0.793 -0.69175,-0.995 -0.5206,-1.241 -0.43502,-1.307 -0.04814,-0.955 0.1462,-0.91 1.4923,-0.249 1.5671,0.433 0.12124,-0.312 0.33696,-1.261" inkscape:connector-curvature="0" style="stroke:#ffffff">
      <title id="title634">Santa Cruz, CA</title>
    </path>
    <path id="c06081" d="m 52.766,253.31 -0.03209,0 -0.39223,2.347 0.2389,0.376 2.7813,2.918 0.20146,0.127 0.48137,0.169 0.32983,-0.09 0.0089,-0.02 0.32983,0.827 -2.4443,3.929 -0.33696,1.261 -0.12124,0.312 -1.5671,-0.433 -1.4923,0.249 -0.1462,0.91 0.04814,0.955 -0.14441,-0.233 -0.49029,-0.804 -0.65966,-1.231 -0.08023,-0.226 0.04101,-1.091 0.29774,-5.962 0.55269,-2.427 0.67571,-2.417 1.9202,0.545" inkscape:connector-curvature="0" style="stroke:#ffffff">
      <title id="title637">San Mateo, CA</title>
    </path>
    <path id="c06001" d="m 55.33,249.52 0.79516,0.02 0.09627,0.06 0.54021,0.755 0.34409,1.077 0.0731,0.537 3.1414,3.231 6.3559,-0.17 1.3015,-0.144 -0.72206,2.605 -0.98949,3.599 0.12837,0.275 0.98058,1.494 -0.01605,-0.02 -6.6679,-1.902 -0.21751,-0.02 -0.18542,0.137 -0.13728,0.06 -0.62579,0.08 -0.32092,-0.04 -2.2036,-0.754 -0.28704,-0.417 -0.32983,-0.827 0.01605,-4.035 -1.3906,-4.035 0.32092,-1.558" inkscape:connector-curvature="0" style="stroke:#ffffff">
      <title id="title640">Alameda, CA</title>
    </path>
    <path id="c06085" d="m 56.713,259.97 0.28704,0.417 2.2036,0.754 0.32092,0.04 0.62579,-0.08 0.13728,-0.06 0.18542,-0.137 0.21751,0.02 6.6679,1.902 -0.28169,0.114 -0.07131,1.205 0.51525,5.882 2.0236,1.745 0.09628,0.303 -0.25673,1.24 -0.37797,0.593 -0.4582,0.209 -0.25673,0.9 0.01605,0.13 0.13728,0.303 0.24782,0.257 -3.5747,-0.961 -1.6385,-0.347 -1.601,0.9 0.12124,-0.419 -0.12124,-0.202 -2.1448,-3.549 -1.5511,-1.64 -0.7702,-0.553 -1.2302,-1.081 -0.4582,-0.656 -0.93957,-1.904 -0.48316,-1.014 -0.03922,-0.129 0.0071,-0.255 2.4443,-3.929" inkscape:connector-curvature="0" style="stroke:#ffffff">
      <title id="title643">Santa Clara, CA</title>
    </path>
    <path id="c06099" d="m 80.489,252.1 3.2716,6.752 3.4784,5.68 -0.0089,0 -9.3993,1.928 -2.6119,0.771 0.1355,0.08 0.10341,0.226 -0.03209,0.754 -5.8817,3.473 -2.0236,-1.745 -0.51525,-5.882 0.07131,-1.205 0.28169,-0.114 0.01605,0.02 4.7335,-2.798 0.83617,-0.536 0.36014,-0.162 2.0343,-0.539 0.44928,0.162 0.89144,0.177 1.0305,0.119 0.98771,-0.258 0.64362,-2.642 1.1482,-4.269" inkscape:connector-curvature="0" style="stroke:#ffffff">
      <title id="title646">Stanislaus, CA</title>
    </path>
    <path id="c06043" d="m 87.239,264.54 0.08736,-0.9 0.15333,-0.225 1.0519,-0.756 5.2238,-1.092 0.34588,0.178 1.5119,1.631 0.12658,0.234 0.10519,0.07 0.51525,0.248 1.6634,0.451 0.57052,0 2.209,-0.339 0.27991,-0.152 1.5511,-1.237 1.0465,-0.241 1.6937,1.22 1.0768,1.239 0.48316,1.277 -6.0439,3.681 -0.40115,1.46 -1.5992,1.432 -1.9451,-0.474 -6.4504,3.938 -1.2961,-1.683 -0.47246,-0.672 -0.73098,-4.363 0.08023,-0.08 0.01604,-0.06 0.0071,-0.339 -0.86826,-4.427 0.0089,0" inkscape:connector-curvature="0" style="stroke:#ffffff">
      <title id="title649">Mariposa, CA</title>
    </path>
    <path id="c06109" d="m 104.29,252.35 -0.13549,0.112 -0.19434,0.678 -0.28882,2.111 0.73811,1.173 0.53129,0.451 0.41719,0.273 0.75594,0.41 0.6347,0.465 0.44215,0.346 0.7078,0.674 0.49742,1.086 -0.5553,2.1516 1.1676,0.86166 0.31118,1.0758 -0.62579,2.024 -0.9574,0.733 -0.32092,0.208 -0.48137,-1.044 -0.48316,-1.277 -1.0768,-1.239 -1.6937,-1.22 -1.0465,0.241 -1.5511,1.237 -0.27991,0.152 -2.209,0.339 -0.57052,0 -1.6634,-0.451 -0.51525,-0.248 -0.10519,-0.07 -0.12658,-0.234 -1.5119,-1.631 -0.34588,-0.179 -5.2238,1.093 -1.0519,0.756 -0.15333,0.225 -0.08736,0.9 -3.4784,-5.68 3.1396,-2.073 1.3265,-1.304 2.2108,-2.28 2.1127,-1.961 2.6921,-2.336 0.43502,-0.203 0.41719,-0.13 2.209,-0.303 1.9522,2.275 0.26565,-0.13 1.3746,-0.459 0.98771,-0.121 0.69888,0.162 0.0802,0.08 0.0642,0.16 0.56338,2.113" inkscape:connector-curvature="0" style="stroke:#ffffff">
      <title id="title652">Tuolumne, CA</title>
    </path>
    <path id="c06051" d="m 107.43,243.9 3.4302,5.135 2.307,3.435 9.8183,14.772 8.1887,12.223 -16.618,-3.931 -3.662,-3.832 -0.21038,-2.394 -0.55448,-1.109 -0.24781,-0.298 -1.1268,-0.362 -1.3336,-0.362 0.32092,-0.208 0.9574,-0.733 0.62579,-2.024 -0.31118,-1.0758 -1.1676,-0.86166 0.5553,-2.1516 -0.49742,-1.086 -0.7078,-0.674 -0.44215,-0.346 -0.6347,-0.465 -0.75594,-0.41 -0.41719,-0.273 -0.53129,-0.451 -0.73811,-1.173 0.28882,-2.111 0.19434,-0.678 0.13549,-0.112 1.815,-1.544 0.83616,-1.918 -0.72384,-2.669 0.025,-0.234 0.41897,-1.077 0.76307,-1.002" inkscape:connector-curvature="0" style="stroke:#ffffff">
      <title id="title655">Mono, CA</title>
    </path>
    <path id="c06003" d="m 103.19,237.55 4.2343,6.35 -0.76307,1.002 -0.41897,1.077 -0.025,0.234 0.72384,2.669 -0.83616,1.918 -1.815,1.544 -0.56338,-2.113 -0.0642,-0.16 -0.0802,-0.08 -0.69888,-0.162 -0.98771,0.121 -1.3746,0.459 -0.26565,0.13 -1.9522,-2.275 -0.46533,-1.954 1.1161,-4.331 2.3712,-1.18 0.44037,-0.321 1.4388,-1.28 0.0891,-0.137 0.12123,-0.64 -0.025,-0.443 -0.19968,-0.427" inkscape:connector-curvature="0" style="stroke:#ffffff">
      <title id="title658">Alpine, CA</title>
    </path>
    <path id="c06009" d="m 98.304,248.27 -2.209,0.303 -0.41719,0.13 -0.43502,0.203 -2.6921,2.336 -2.1127,1.961 -2.2108,2.28 -1.3265,1.304 -3.1396,2.073 -3.2716,-6.752 -0.30487,-3.638 0.11945,0.137 0.22464,0.137 1.3996,0.298 4.2504,-1.343 3.2145,-1.415 0.83617,-0.433 0.77912,0.05 6.8302,0.419 0.46533,1.954" inkscape:connector-curvature="0" style="stroke:#ffffff">
      <title id="title661">Calaveras, CA</title>
    </path>
    <path id="c06005" d="m 98.955,241.98 -1.1161,4.331 -6.8302,-0.419 -0.77912,-0.05 -0.83617,0.433 -3.2145,1.415 -4.2504,1.343 -1.3996,-0.298 -0.22464,-0.137 -0.11945,-0.137 -0.09628,-1.76 1.2444,-4.709 1.6634,0.193 2.0575,-0.63326 3.1485,2.3933 0.79694,0.201 1.2765,0.146 3.5212,0.159 0.99662,-0.159 4.1612,-2.316" inkscape:connector-curvature="0" style="stroke:#ffffff">
      <title id="title664">Amador, CA</title>
    </path>
    <path id="c06077" d="m 80.185,248.47 0.30487,3.638 -1.1482,4.269 -0.64362,2.642 -0.98771,0.258 -1.0305,-0.119 -0.89144,-0.177 -0.44928,-0.162 -2.0343,0.539 -0.36014,0.162 -0.83617,0.536 -4.7335,2.798 -0.98058,-1.494 -0.12837,-0.275 0.98949,-3.599 0.72206,-2.605 1.2623,-6.235 0.77911,-1.011 1.938,-2.052 0.40828,0 0.31378,0.132 0.21573,0.497 0.33161,0.314 0.86648,0.216 3.1824,0.371 0.12124,-0.02 1.2373,-0.426 1.4548,0.04 0.09628,1.76" inkscape:connector-curvature="0" style="stroke:#ffffff">
      <title id="title667">San Joaquin, CA</title>
    </path>
    <path id="c06013" d="m 57.162,246.07 1.5511,0.94 0.89144,0.258 3.7922,0.922 0.25673,0.03 0.23356,-0.02 0.16224,-0.106 0.14441,-0.176 0.36905,1.013 0.16046,0.215 0.45107,0.186 0.19968,0.05 0.69888,0.02 0.78803,-0.223 0.42611,-0.267 0.08736,-0.159 0.04992,-0.322 0.08736,-0.143 0.12837,-0.06 0.19968,0 1.0216,0.183 0.32092,0.168 0.05705,0.07 -1.2623,6.235 -1.3015,0.144 -6.3559,0.17 -3.1414,-3.231 -0.0731,-0.537 -0.34409,-1.077 -0.54021,-0.755 -0.09627,-0.06 -0.79516,-0.02 -0.68997,-0.506 -0.65966,-1.503 2.2821,-0.499 0.37797,-0.179 0.49029,-0.383 0.04814,-0.153 -0.01605,-0.225" inkscape:connector-curvature="0" style="stroke:#ffffff">
      <title id="title670">Contra Costa, CA</title>
    </path>
    <path id="c06017" d="m 102.28,234.11 0.90926,3.447 0.19968,0.427 0.025,0.443 -0.12123,0.64 -0.0891,0.137 -1.4388,1.28 -0.44037,0.321 -2.3712,1.18 -4.1612,2.316 -0.99662,0.159 -3.5212,-0.159 -1.2765,-0.146 -0.79694,-0.201 -3.1485,-2.3933 -2.0575,0.63326 -1.6634,-0.193 -0.72206,-5.095 2.1929,-2.619 0.49029,-1.068 0.37797,-0.314 1.8952,-0.538 2.4194,-0.394 0.77198,0.04 0.12124,0.05 0.41719,0.246 0.55447,0.572 0.19968,0.449 0.1462,0.245 0.24782,0.287 1.0608,1.052 0.21751,0.13 0.14441,0 0.85934,-0.162 0.42611,-0.191 0.94849,-0.795 3.8332,0.144 1.0127,0.09 0.36905,-0.09 0.2496,-0.107 0.07131,-0.271 0.21751,-0.169 2.4265,0.618" inkscape:connector-curvature="0" style="stroke:#ffffff">
      <title id="title673">El Dorado, CA</title>
    </path>
    <path id="c06067" d="m 74.848,234.79 5.7622,2.111 0.72206,5.095 -1.2444,4.709 -1.4548,-0.04 -1.2373,0.426 -0.12124,0.02 -3.1824,-0.371 -0.86648,-0.216 -0.33161,-0.314 -0.21573,-0.497 -0.31378,-0.132 -0.40828,0 -1.938,2.052 -0.77911,1.011 -0.05705,-0.07 -0.32092,-0.168 -1.0216,-0.183 -0.19968,0 -0.12837,0.06 -0.08736,0.143 -0.04992,0.322 -0.08736,0.159 -0.42611,0.267 -0.78803,0.223 -0.69888,-0.02 -0.19968,-0.05 -0.45107,-0.186 -0.16046,-0.215 -0.36905,-1.013 1.0448,0.44 1.7098,-0.169 1.9683,-2.027 1.4709,-2.469 1.1731,-0.509 0.34766,-0.208 0.87539,-1.808 0.77911,-3.175 0.02496,-0.239 -0.02496,-0.105 -0.66858,-1.182 -0.07131,-2.266 2.0253,0.588" inkscape:connector-curvature="0" style="stroke:#ffffff">
      <title id="title676">Sacramento, CA</title>
    </path>
    <path id="c06095" d="m 55.346,243.26 3.6495,1.051 0.07845,-0.208 -0.03922,-0.104 -0.06418,0 -0.09628,-0.136 -0.06418,-0.187 0.04814,-0.2 0.97166,-2.788 2.4354,0.681 0.08023,-0.191 0.02496,-0.201 0.02318,-0.41 -0.01605,-0.193 -0.08023,-0.522 -0.39401,-1.19 0.0071,-0.112 0.03209,-0.151 0.81121,-1.527 0.08914,-0.1 0.8112,0.136 6.0832,1.214 0.18542,0.307 0,0.07 -0.19255,0.82 -1.0929,3.88 1.7508,0.501 -1.4709,2.469 -1.9683,2.027 -1.7098,0.169 -1.0448,-0.44 -0.14441,0.176 -0.16224,0.106 -0.23356,0.02 -0.25673,-0.03 -3.7922,-0.922 -0.89144,-0.258 -1.5511,-0.94 -1.7847,-2.676 -0.03209,-0.135" inkscape:connector-curvature="0" style="stroke:#ffffff">
      <title id="title679">Solano, CA</title>
    </path>
    <path id="c06075" d="m 52.766,253.31 -1.9202,-0.545 0,-0.02 0.02318,-0.355 0.22642,-1.31 0.2086,-0.12 0.82725,-0.162 0.69175,0.05 0.32983,0.08 0.12124,0.178 0.12658,0.393 -0.10341,1.372 -0.10341,0.332 -0.42789,0.103" inkscape:connector-curvature="0" style="stroke:#ffffff">
      <title id="title682">San Francisco, CA</title>
    </path>
    <path id="c06041" d="m 45.968,237.15 0.21751,-0.114 1.4548,0.03 0.14441,0.04 3.8011,4.525 1.2747,0.68721 0.74173,1.5628 -0.64183,1.673 -0.66679,2.112 -0.04992,0.179 0.12124,0.19 0.29774,0.369 0.29774,0.494 0.10341,0.255 -0.0071,0.07 -1.0608,1.035 -0.47424,-0.06 -0.29774,-0.153 -0.20146,-0.193 -5.6642,-6.5 0.93957,-5.006 -0.05527,-0.426 -0.20146,-0.587 -0.0731,-0.191" inkscape:connector-curvature="0" style="stroke:#ffffff">
      <title id="title685">Marin, CA</title>
    </path>
    <path id="c06055" d="m 60.056,227.52 1.6795,1.063 0.88252,4.699 0.2086,1.327 0.02496,0.474 -0.0089,1.679 -0.08914,0.1 -0.81121,1.527 -0.03209,0.151 -0.0071,0.112 0.39401,1.19 0.08023,0.522 0.01605,0.193 -0.02318,0.41 -0.02496,0.201 -0.08023,0.191 -2.4354,-0.681 -0.97166,2.788 -0.04814,0.2 0.06418,0.187 0.09628,0.136 0.06418,0 0.03922,0.104 -0.07845,0.208 -3.6495,-1.051 0.69888,0.128 0.55447,-0.9 0.04101,-0.53 -0.01605,-0.538 -0.21751,-1.858 -1.2302,-4.354 -0.70602,-1.938 0.05705,-1.51 0.29596,-0.989 3.0451,-0.04 2.0592,-1.743 0.19968,-0.305 -0.07132,-1.159" inkscape:connector-curvature="0" style="stroke:#ffffff">
      <title id="title688">Napa, CA</title>
    </path>
    <path id="c06097" d="m 39.99,223.99 2.5154,0.74632 0.35398,-0.76632 4.0418,1.2257 0.39459,-1.0496 5.383,1.591 2.1448,5.032 -0.29596,0.989 -0.05705,1.51 0.70602,1.938 1.2302,4.354 0.21751,1.858 0.01605,0.538 -0.04101,0.53 -0.55447,0.9 -0.69888,-0.128 0.03209,0.135 -1.7757,0.49 -0.74173,-1.5628 -1.2747,-0.68721 -3.8011,-4.525 -0.14441,-0.04 -1.4548,-0.03 -0.21751,0.114 -1.1393,-4.052 -3.7208,-7.119 -1.1179,-1.992" inkscape:connector-curvature="0" style="stroke:#ffffff">
      <title id="title691">Sonoma, CA</title>
    </path>
    <path id="c06113" d="m 61.373,226.46 8.6291,2.418 2.8205,5.329 0.07131,2.266 0.66858,1.182 0.02496,0.105 -0.02496,0.239 -0.77911,3.175 -0.87539,1.808 -0.34766,0.208 -1.1731,0.509 -1.7508,-0.501 1.0929,-3.88 0.19255,-0.82 0,-0.07 -0.18542,-0.307 -6.0832,-1.214 -0.8112,-0.136 0.0089,-1.679 -0.02496,-0.474 -0.2086,-1.327 -0.88252,-4.699 -1.6795,-1.063 1.3175,-1.068" inkscape:connector-curvature="0" style="stroke:#ffffff">
      <title id="title694">Yolo, CA</title>
    </path>
    <path id="c06061" d="m 77.646,229.25 2.5459,-0.208 0.85221,0.729 0.18542,0.09 2.4104,0.811 0.57765,-0.1 1.1089,-1.1 0.15333,-0.225 0.1355,-0.353 0.15333,-0.162 0.83617,-0.627 0.83617,-0.434 1.2694,-0.633 2.4336,-1.134 0.90926,-0.208 0.66679,-0.03 10.952,2.84 -0.85935,3.383 -0.28882,1.198 -0.24247,1.012 -2.4265,-0.618 -0.21751,0.169 -0.07131,0.271 -0.2496,0.107 -0.36905,0.09 -1.0127,-0.09 -3.8332,-0.144 -0.94849,0.795 -0.42611,0.19 -0.85934,0.163 -0.14441,0 -0.21751,-0.13 -1.0608,-1.052 -0.24782,-0.287 -0.1462,-0.245 -0.19968,-0.449 -0.55447,-0.572 -0.41719,-0.246 -0.12124,-0.05 -0.77198,-0.04 -2.4194,0.394 -1.8952,0.538 -0.37797,0.314 -0.49029,1.068 -2.1929,2.619 -5.7622,-2.111 1.4299,-4.213 0.94849,0.25 0.41898,-1.575" inkscape:connector-curvature="0" style="stroke:#ffffff">
      <title id="title697">Placer, CA</title>
    </path>
    <path id="c06057" d="m 104.45,225.63 -0.77911,2.884 -10.952,-2.84 -0.66679,0.03 -0.90926,0.208 -2.4336,1.134 -1.2694,0.633 -0.83617,0.434 -0.83617,0.627 -0.15333,0.162 -0.1355,0.353 -0.15333,0.225 -1.1089,1.1 -0.57765,0.1 -2.4104,-0.811 -0.18542,-0.09 -0.85221,-0.729 1.1981,-4.388 0.46533,-0.74 1.5671,-1.086 1.4691,-0.772 0.9574,-0.103 0.41897,0.06 0.48138,0.232 0.24069,-0.28 0.40115,-0.103 2.8936,0.231 2.266,-0.563 0.05705,-0.07 0.25673,-0.22 0.60974,-0.296 0.27456,-0.04 1.2694,0.408 0.36192,0.451 0.12837,1.084 0.37619,0.443 0.22642,0.128 8.3403,2.202" inkscape:connector-curvature="0" style="stroke:#ffffff">
      <title id="title700">Nevada, CA</title>
    </path>
    <path id="c06091" d="m 88.468,216.76 1.6474,-1.048 0.22642,-0.833 0.45642,-0.323 0.83617,-0.24 3.2627,2.556 3.5443,0.883 5.0865,1.351 2.5638,0.312 -1.6402,6.212 -8.3403,-2.202 -0.22642,-0.128 -0.37619,-0.443 -0.12837,-1.084 -0.36192,-0.451 -1.2694,-0.408 -0.27456,0.04 -0.60974,0.296 -0.25673,0.22 -0.05705,0.07 -2.266,0.563 -2.8936,-0.231 -0.40115,0.103 -0.24069,0.28 1.7187,-5.493" inkscape:connector-curvature="0" style="stroke:#ffffff">
      <title id="title703">Sierra, CA</title>
    </path>
    <path id="c06115" d="m 87.072,217.39 1.396,-0.635 -1.7187,5.493 -0.48138,-0.232 -0.41897,-0.06 -0.9574,0.103 -1.4691,0.772 -1.5671,1.086 -0.46533,0.74 -1.1981,4.388 -2.5459,0.208 -0.75594,-0.235 -0.38688,0.01 -1.2034,0.167 -0.42789,0.337 -0.24782,0.266 -0.02496,-2.393 0.79694,-4.767 0.10341,-0.344 0.30487,-0.646 0.11232,-0.06 2.2339,0.123 1.7757,-0.128 0.69888,-0.355 2.0618,-2.7976 2.9619,-0.0974 1.4232,-0.93598" inkscape:connector-curvature="0" style="stroke:#ffffff">
      <title id="title706">Yuba, CA</title>
    </path>
    <path id="c06101" d="m 75.916,221.58 -0.11232,0.06 -0.30487,0.646 -0.10341,0.344 -0.79694,4.767 0.02496,2.393 0.24782,-0.266 0.42789,-0.337 1.2034,-0.167 0.38688,-0.01 0.75594,0.235 -0.41898,1.575 -0.94849,-0.25 -1.4299,4.213 -2.0253,-0.588 -2.8205,-5.329 0.67571,-1.341 -0.60974,-2.733 -0.51703,-1.059 0.16937,-1.109 1.4067,-2.571 4.7888,1.524" inkscape:connector-curvature="0" style="stroke:#ffffff">
      <title id="title709">Sutter, CA</title>
    </path>
    <path id="c06011" d="m 71.941,218.37 -0.81299,1.694 -1.4067,2.571 -0.16937,1.109 0.51703,1.059 0.60974,2.733 -0.67571,1.341 -8.6291,-2.418 -0.85221,-1.013 -0.08023,-0.183 -0.61152,-2.332 0.06418,-1.614 0.65312,-1.9112 -2.3558,-0.99779 -0.61866,-0.619 -0.97345,-1.446 -0.14441,-0.692 0.35301,-0.595 0.7078,-0.769 10.178,2.8622 0.32064,-0.75373 2.2267,0.67583 -0.26177,0.64936 1.962,0.64936" inkscape:connector-curvature="0" style="stroke:#ffffff">
      <title id="title712">Colusa, CA</title>
    </path>
    <path id="c06033" d="m 57.515,214.28 -0.7078,0.769 -0.35301,0.595 0.14441,0.692 0.97345,1.446 0.61866,0.619 2.3558,0.99779 -0.65312,1.9112 -0.06418,1.614 0.61152,2.332 0.08023,0.183 0.85221,1.013 -1.3175,1.068 0.07132,1.159 -0.19968,0.305 -2.0592,1.743 -3.0451,0.04 -2.1448,-5.032 -1.462,-1.66 -0.44215,-0.709 -0.98771,-2.594 -0.29774,-1.318 0.03922,-0.194 0.09627,-0.328 0.39401,-0.925 0.39401,-0.74 0.76307,-0.234 0.74702,-0.834 0.15333,-0.963 -0.09627,-3.161 0.19255,-0.64 0.13728,-0.348 0.49742,-1.086 0.73811,-0.151 1.4887,0.492 0.86648,-0.05 0.30665,-0.786 0.10341,-0.332 2.5388,0.726 -0.58656,2.273 -0.19968,0.633 -0.54734,1.474" inkscape:connector-curvature="0" style="stroke:#ffffff">
      <title id="title715">Lake, CA</title>
    </path>
    <path id="c06007" d="m 71.876,208.38 -0.22642,-0.394 0.10519,-0.669 0.71493,-0.818 4.0418,1.091 0.4992,0.03 0.53664,-0.282 0.13728,-0.415 0.13728,-0.277 0.26386,-0.279 0.73989,-0.541 3.1093,-1.927 0.86113,0.234 1.1,-0.209 0.21573,-0.128 0.24247,-0.466 0.53664,0.152 0.21038,1.091 0.02318,0.549 -0.08736,0.314 -0.37618,0.376 -1.4316,4.147 2.5299,4.605 1.3122,2.821 -1.4232,0.93598 -2.9619,0.0974 -2.0618,2.7976 -0.69888,0.355 -1.7757,0.128 -2.2339,-0.123 -4.7888,-1.524 0.81299,-1.694 1.494,-3.168 -2.0555,-0.53571 1.3726,-4.1483 -0.87539,-2.129" inkscape:connector-curvature="0" style="stroke:#ffffff">
      <title id="title718">Butte, CA</title>
    </path>
    <path id="c06021" d="m 56.841,204.07 15.035,4.315 0.87539,2.129 -1.3726,4.1483 2.0555,0.53571 -1.494,3.168 -1.962,-0.64936 0.26177,-0.64936 -2.2267,-0.67583 -0.32064,0.75373 -10.178,-2.8622 0.54734,-1.474 0.19968,-0.633 0.58656,-2.273 -2.5388,-0.726 0.5313,-5.108" inkscape:connector-curvature="0" style="stroke:#ffffff">
      <title id="title721">Glenn, CA</title>
    </path>
    <path id="c06063" d="m 85.134,196.49 2.8455,0.788 4.475,1.188 -1.1482,4.252 0.2086,0.572 1.6474,1.469 0.6347,0.17 0.36014,-0.08 0.1462,-0.537 1.7436,-1.398 0.61687,-0.185 0.64362,0.169 2.9578,2.216 3.9045,4.58 0.4992,0.653 0.85935,3.726 -0.0161,0.701 -0.16937,0.649 -0.85935,2.542 -0.95561,1.141 -5.0865,-1.351 -3.5443,-0.883 -3.2627,-2.556 -0.83617,0.24 -0.45642,0.323 -0.22642,0.833 -1.6474,1.048 -1.396,0.635 -1.3122,-2.821 -2.5299,-4.605 1.4316,-4.147 0.37618,-0.376 0.08736,-0.314 -0.02318,-0.549 -0.21038,-1.091 -0.53664,-0.152 1.519,-1.037 0.06418,-0.06 0.12837,-0.202 0.52951,-1.583 -0.2086,-1.079 -0.15154,-0.03 -1.1981,-0.582 -0.05705,-0.06 -0.06418,-0.224 0.0071,-0.154 0.12124,-1.535 0.08914,-0.305" inkscape:connector-curvature="0" style="stroke:#ffffff">
      <title id="title724">Plumas, CA</title>
    </path>
    <path id="c06103" d="m 85.134,196.49 -0.08914,0.305 -0.12124,1.535 -0.0071,0.154 0.06418,0.224 0.05705,0.06 1.1981,0.582 0.15154,0.03 0.2086,1.079 -0.52951,1.583 -0.12837,0.202 -0.06418,0.06 -1.519,1.037 -0.24247,0.466 -0.21573,0.128 -1.1,0.209 -0.86113,-0.234 -3.1093,1.927 -0.73989,0.541 -0.26386,0.279 -0.13728,0.277 -0.13728,0.415 -0.53664,0.282 -0.4992,-0.03 -4.0418,-1.091 -0.71493,0.818 -0.10519,0.669 0.22642,0.394 -15.035,-4.315 -0.0731,-0.114 0,-1.034 0.52238,-1.062 0.61866,-0.362 0.18542,-0.419 0.05527,-0.746 -0.08023,-0.246 -0.05527,-0.429 0.37797,-3.142 0.32805,-1.159 0.08914,-0.08 0.21751,-1.027 0.01426,-0.237 -0.08736,-0.198 -1.0858,-1.235 1.4798,-0.171 2.4104,-0.06 1.9273,0.02 4.0435,0.548 1.0911,0.74 1.6634,0.531 0.58835,0.157 2.2179,0.148 1.6545,-0.06 1.4869,0.08 2.7563,0.392 2.4425,0.485 3.5033,1.091" inkscape:connector-curvature="0" style="stroke:#ffffff">
      <title id="title727">Tehama, CA</title>
    </path>
    <path id="c06045" d="m 39.934,194.14 8.0425,2.401 -0.16759,0.548 10.26,3 0.08023,0.246 -0.05527,0.746 -0.18542,0.419 -0.61866,0.362 -0.52238,1.062 0,1.034 0.0731,0.114 -0.5313,5.108 -0.10341,0.332 -0.30665,0.786 -0.86648,0.05 -1.4887,-0.492 -0.73811,0.151 -0.49742,1.086 -0.13728,0.348 -0.19255,0.64 0.09627,3.161 -0.15333,0.963 -0.74702,0.834 -0.76307,0.234 -0.39401,0.74 -0.39401,0.925 -0.09627,0.328 -0.03922,0.194 0.29774,1.318 0.98771,2.594 0.44215,0.709 1.462,1.66 -5.383,-1.591 -0.39459,1.0496 -4.0418,-1.2257 -0.35398,0.76632 -2.5154,-0.74632 -0.82012,-1.469 -1.2284,-2.656 0.98058,-10.122 0.05527,-0.394 0.03922,-0.178 0.33161,-0.825 0.3851,-0.845 0.40114,-0.585 0.22464,-0.332 0.30665,-0.319 0.11232,-0.153 0.06418,-0.09 0.01604,-0.02 0.40115,-0.619 0.03209,-0.16 0.34588,-2.313 0.05527,-0.572 -0.0071,-3.582 -0.01605,-0.06 -0.77198,-2.055 -0.42432,-1.109 -0.53843,-1.398" inkscape:connector-curvature="0" style="stroke:#ffffff">
      <title id="title730">Mendocino, CA</title>
    </path>
    <path id="c06023" d="m 55.192,165.33 2.6369,0.779 0.32092,0.459 -0.12837,4.491 -0.28169,0.274 -0.29596,0.401 -0.5313,1.052 -0.03209,0.749 0.08736,0.152 -0.08736,1.117 -1.2605,1.286 -0.55626,0.49 -1.856,1.494 -0.52238,2.66 -4.7086,15.805 -8.0425,-2.401 -0.38688,-0.681 -3.4142,-6.518 -0.10519,-0.289 0.43324,-4.163 0.05705,-0.105 1.462,-2.106 1.0287,-1.326 0.39402,-0.442 0.7078,-0.755 1.0519,-1.021 1.2373,-1.318 0.68462,-0.722 0.5206,-0.627 0.68462,-0.988 0.74524,-1.311 0.3637,-0.836 -0.08914,-0.513 2.1608,-5.135 1.6331,-3.785 2.956,0.867 1.8809,0.611 -0.35479,1.189 0.66679,0.892 0.93957,0.274" inkscape:connector-curvature="0" style="stroke:#ffffff">
      <title id="title733">Humboldt, CA</title>
    </path>
    <path id="c06105" d="m 58.022,171.06 0.82012,0.659 0.78803,0.763 1.2694,1.905 2.3142,2.442 1.3496,0.685 0.32983,0.05 0.3851,-0.305 0.2086,-0.371 -0.15333,-1.068 2.5156,-2.605 3.6085,-1.421 2.0325,1.254 -0.41719,2.337 0.33874,0.241 0.27991,0.305 0.04814,0.217 -0.2496,0.909 -0.11945,0.202 -0.16046,0.232 -1.938,1.72 -0.6347,0.232 -0.11232,0.02 -4.6123,5.609 -2.9578,3.73 -2.7474,1.269 -2.0895,1.696 -0.2496,0.82 1.0858,1.235 0.08736,0.198 -0.01426,0.237 -0.21751,1.027 -0.08914,0.08 -0.32805,1.159 -0.37797,3.142 0.05527,0.429 -10.26,-3 0.16759,-0.548 4.7086,-15.805 0.52238,-2.66 1.856,-1.494 0.55626,-0.49 1.2605,-1.286 0.08736,-1.117 -0.08736,-0.152 0.03209,-0.749 0.5313,-1.052 0.29596,-0.401 0.28169,-0.274" inkscape:connector-curvature="0" style="stroke:#ffffff">
      <title id="title736">Trinity, CA</title>
    </path>
    <path id="c06089" d="m 90.509,180.25 1.9041,0.504 -1.5903,5.875 -0.03209,0.772 -2.1448,7.763 -0.66679,2.112 -2.8455,-0.788 -3.5033,-1.091 -2.4425,-0.485 -2.7563,-0.392 -1.4869,-0.08 -1.6545,0.06 -2.2179,-0.148 -0.58835,-0.157 -1.6634,-0.531 -1.0911,-0.74 -4.0435,-0.548 -1.9273,-0.02 -2.4104,0.06 -1.4798,0.171 0.2496,-0.82 2.0895,-1.696 2.7474,-1.269 2.9578,-3.73 4.6123,-5.609 0.11232,-0.02 0.6347,-0.232 1.938,-1.72 0.16046,-0.232 0.11945,-0.202 0.2496,-0.909 -0.04814,-0.217 -0.27991,-0.305 -0.33874,-0.241 3.4712,0.933 4.7656,1.381 9.1996,2.557" inkscape:connector-curvature="0" style="stroke:#ffffff">
      <title id="title739">Shasta, CA</title>
    </path>
    <path id="c06035" d="m 114.58,186.64 -1.8328,7.135 -2.0646,8.221 -1.0358,4.008 -0.32983,1.294 -0.009,0.02 -1.125,4.277 -1.7347,6.508 -0.35301,1.31 -2.5638,-0.312 0.95561,-1.141 0.85935,-2.542 0.16937,-0.649 0.0161,-0.701 -0.85935,-3.726 -0.4992,-0.653 -3.9045,-4.58 -2.9578,-2.216 -0.64362,-0.169 -0.61687,0.185 -1.7436,1.398 -0.1462,0.537 -0.36014,0.08 -0.6347,-0.17 -1.6474,-1.469 -0.2086,-0.572 1.1482,-4.252 -4.475,-1.188 0.66679,-2.112 2.1448,-7.763 0.03209,-0.772 1.5903,-5.875 22.163,5.884" inkscape:connector-curvature="0" style="stroke:#ffffff">
      <title id="title742">Lassen, CA</title>
    </path>
    <path id="c06049" d="m 95.476,162.08 9.3048,2.603 3.0541,0.82 0.0232,0 6.0261,1.599 0.65074,0.168 4.7424,1.198 -4.7014,18.16 -22.163,-5.883 -1.9041,-0.505 1.503,-5.489 2.0895,-7.763 -0.08023,-0.05 -0.02496,-0.07 0.87717,-3.231 0.15868,-0.554 0.44394,-1.013" inkscape:connector-curvature="0" style="stroke:#ffffff">
      <title id="title745">Modoc, CA</title>
    </path>
    </g>
  </svg>
