<svg xmlns:dc="http://purl.org/dc/elements/1.1/" xmlns:cc="http://creativecommons.org/ns#" xmlns:rdf="http://www.w3.org/1999/02/22-rdf-syntax-ns#" xmlns:svg="http://www.w3.org/2000/svg" xmlns="http://www.w3.org/2000/svg" xmlns:sodipodi="http://sodipodi.sourceforge.net/DTD/sodipodi-0.dtd" xmlns:inkscape="http://www.inkscape.org/namespaces/inkscape" width="138.14511000000005" height="145.02400000000003" version="1.0" id="svg2" inkscape:version="0.91 r13725" sodipodi:docname="USA counties.svg">
  <defs id="defs9439"/>
  <sodipodi:namedview pagecolor="#ffffff" bordercolor="#666666" borderopacity="1" objecttolerance="10" gridtolerance="10" guidetolerance="10" inkscape:pageopacity="0" inkscape:pageshadow="2" inkscape:window-width="798" inkscape:window-height="828" id="namedview9437" showgrid="false" showguides="true" inkscape:zoom="0.64950808" inkscape:cx="494.98999" inkscape:cy="313.535" inkscape:window-x="-7" inkscape:window-y="0" inkscape:window-maximized="0" inkscape:current-layer="svg2"/>
  <metadata id="metadata4">
    <rdf:RDF>
      <cc:Work>
        <dc:format>image/svg+xml</dc:format>
        <dc:type rdf:resource="http://purl.org/dc/dcmitype/StillImage"/>
        <dc:title/>
        <cc:license rdf:resource="http://creativecommons.org/publicdomain/zero/1.0/"/>
        <dc:date>2019-10-06</dc:date>
        <dc:creator>
          <cc:Agent>
            <dc:title>U.S. Census Bureau, Abe.suleiman, Lokal_Profil</dc:title>
          </cc:Agent>
        </dc:creator>
        <dc:source>https://commons.wikimedia.org/wiki/File:Usa_counties_large.svg</dc:source>
      </cc:Work>
      <cc:License rdf:about="http://creativecommons.org/publicdomain/zero/1.0/">
        <cc:permits rdf:resource="http://creativecommons.org/ns#Reproduction"/>
        <cc:permits rdf:resource="http://creativecommons.org/ns#Distribution"/>
        <cc:permits rdf:resource="http://creativecommons.org/ns#DerivativeWorks"/>
      </cc:License>
    </rdf:RDF>
  </metadata>
  <style id="style6">
  /*
   * Below are Cascading Style Sheet (CSS) definitions in use in this file,
   * which allow easily changing how counties are displayed.
   *
   *
   * For the U.S. Census county codes (FIPS codes) used in this file to identify individual counties, see this link:
   * https://www2.census.gov/geo/docs/reference/codes/files/national_county.txt
   *
   * The county codes used in this file combine the 2-digit state code, which is in the second column of the file
   * linked above, and the 3-digit county code, which is in the third column of the file linked above. Each value
   * for the "id" attribute for each county is in the following form: "c[state_code][county-code]". For example,
   * for Loving Country in Texas, the state code is "48" and the county code is "301", so the id name for the
   * county is "c48301".
   *
   * County codes used in this file can also be found on Wikimedia Commons at this link:
   * https://commons.wikimedia.org/wiki/File_talk:Usa_counties_large.svg/county_codes
   *
   * Examples:
   *
   * To color two counties red (in this case Loving County and Dallas County in Texas) simply
   * go to the CSS insertion point and add:
   *
   * #c48301, #c48113 {fill:red}
   *
   * To color an entire state's counties (in the case New Mexico, with "35" being the state code) a green,
   * go to the CSS insertion point and add:
   *
   * path[id*='c35'] {fill:#34A853}
   *
   */
  #counties {fill:#d0d0d0;stroke:#000;stroke-width:.17829;} 
  #borders {fill:none;stroke:#221e1f;stroke-width:.89143;} 
  #separator {fill:none;stroke:#a9a9a9;stroke-width:2.3177309;}
 </style>
  <g id="counties" transform="translate(-611.99257,-72.61099999999999)" style="fill:#d0d0d0;stroke:#ffffff;stroke-width:0.17828999">
    <path id="c26053" d="m 620.09,106.76 0.41897,-0.03 0.23356,3.945 1.9504,-0.1086 0.13198,1.9896 5.969,-0.417 0.28169,3.945 5.9637,-0.433 0.39223,5.399 -1.1321,-0.555 -1.0929,-0.369 -0.67749,-0.144 -0.86647,-0.177 -11.524,-2.364 -1.6224,-0.337 -1.478,-0.312 -3.2306,-3.97 -1.815,-0.988 1.0608,-0.861 0.31379,-0.177 2.5477,-1.021 0.98771,-0.28 0.85934,-0.362 0.25852,-0.153 0.4885,-0.466 1.1571,-1.15 0.42432,-0.601" inkscape:connector-curvature="0" style="stroke:#ffffff">
      <title id="title3709">Gogebic, MI</title>
    </path>
    <path id="c26131" d="m 634.77,99.615 0.46533,6.099 1.084,-0.08 0.13906,1.952 -1.9754,0.128 0.15867,2.596 0.24961,3.359 0.15332,1.977 -5.9637,0.433 -0.28169,-3.945 -5.969,0.417 -0.13198,-1.9896 -1.9504,0.1086 -0.23356,-3.945 -0.41897,0.03 0.59726,-0.74 0.25673,-0.209 0.62579,-0.369 1.1,-0.346 0.73098,-0.114 0.21038,0.03 0.29595,0.112 3.2234,-0.545 0.33875,-0.12 0.65788,-0.354 5.6713,-3.577 0.96631,-0.914" inkscape:connector-curvature="0" style="stroke:#ffffff">
      <title id="title3712">Ontonagon, MI</title>
    </path>
    <path id="c26115" d="m 734.38,203.8 1.9719,-0.442 2.1127,-0.305 0.14441,0.06 1.9041,1.18 -1.913,2.437 -0.91462,1.637 -0.72384,1.318 -0.0713,0.139 -0.025,0.103 0.0303,1.776 -5.2131,0.884 -1.2462,-8.205 3.9437,-0.586" inkscape:connector-curvature="0" style="stroke:#ffffff">
      <title id="title3715">Monroe, MI</title>
    </path>
    <path id="c26091" d="m 730.44,204.38 1.2462,8.205 -1.9772,0.346 -8.1014,1.326 -1.0733,-8.413 3.9116,-0.46 5.994,-1.004" inkscape:connector-curvature="0" style="stroke:#ffffff">
      <title id="title3718">Lenawee, MI</title>
    </path>
    <path id="c26059" d="m 720.53,205.85 1.0733,8.413 -0.64897,0.104 -6.8712,1.052 -0.49742,-1.428 -0.86826,-7.18 1.9754,-0.182 5.8371,-0.779" inkscape:connector-curvature="0" style="stroke:#ffffff">
      <title id="title3721">Hillsdale, MI</title>
    </path>
    <path id="c26023" d="m 704.83,207.74 7.891,-0.936 0.86826,7.18 -6.3007,0.74 -1.6224,0.174 -0.83617,-7.158" inkscape:connector-curvature="0" style="stroke:#ffffff">
      <title id="title3724">Branch, MI</title>
    </path>
    <path id="c26149" d="m 696.91,208.67 7.9142,-0.931 0.83617,7.158 -6.2365,0.717 -2.2339,0.239 -0.27991,-7.183" inkscape:connector-curvature="0" style="stroke:#ffffff">
      <title id="title3727">St. Joseph, MI</title>
    </path>
    <path id="c26027" d="m 689.13,209.45 7.7858,-0.772 0.27991,7.183 -4.6034,0.467 -2.7724,0.296 -0.68997,-7.174" inkscape:connector-curvature="0" style="stroke:#ffffff">
      <title id="title3730">Cass, MI</title>
    </path>
    <path id="c26021" d="m 686.32,205.75 2.427,-0.2475 0.37925,3.9455 0.68997,7.174 -5.0634,0.522 -5.1097,0.491 0.007,-0.01 0.74881,-0.627 0.93779,-0.901 0.58656,-0.65 0.90214,-1.229 0.312,-0.595 0.20859,-0.58 0.30666,-1.374 0.87539,-2.532 0.33874,-0.713 1.453,-2.669" inkscape:connector-curvature="0" style="stroke:#ffffff">
      <title id="title3733">Berrien, MI</title>
    </path>
    <path id="c26163" d="m 740.92,194.48 3.5604,-0.571 -0.13728,1.236 -0.0624,0.217 -0.38689,0.926 -0.55269,0.369 -0.46711,0.233 -0.4261,0.114 -0.0642,0.01 -0.73276,0.378 -0.23177,0.249 -0.22643,0.459 -0.36905,1.253 0.007,0.08 0,0.08 0.0981,1.327 -0.12124,2.096 -0.29773,1.357 -1.9041,-1.18 -0.14441,-0.06 -2.1127,0.305 -1.9719,0.442 -1.2658,-7.982 7.809,-1.33" inkscape:connector-curvature="0" style="stroke:#ffffff">
      <title id="title3736">Wayne, MI</title>
    </path>
    <path id="c26161" d="m 733.11,195.81 1.2658,7.982 -3.9437,0.586 -5.994,1.004 -1.0127,-8.082 7.8125,-1.173 1.872,-0.317" inkscape:connector-curvature="0" style="stroke:#ffffff">
      <title id="title3739">Washtenaw, MI</title>
    </path>
    <path id="c26075" d="m 723.27,197.32 0.16046,-0.02 1.0127,8.082 -3.9116,0.46 -5.8371,0.779 -1.1161,-8.06 1.979,-0.227 7.7127,-1.019" inkscape:connector-curvature="0" style="stroke:#ffffff">
      <title id="title3742">Jackson, MI</title>
    </path>
    <path id="c26025" d="m 707.65,199.28 5.9298,-0.718 1.1161,8.06 -1.9754,0.182 -7.891,0.936 -0.99662,-7.982 3.8171,-0.478" inkscape:connector-curvature="0" style="stroke:#ffffff">
      <title id="title3745">Calhoun, MI</title>
    </path>
    <path id="c26077" d="m 699.72,200.18 4.106,-0.416 0.99662,7.982 -7.9142,0.931 -0.90035,-8.075 3.7119,-0.422" inkscape:connector-curvature="0" style="stroke:#ffffff">
      <title id="title3748">Kalamazoo, MI</title>
    </path>
    <path id="c26159" d="m 687.45,201.53 8.5649,-0.931 0.90035,8.075 -7.7858,0.772 -0.37925,-3.9455 -2.427,0.2475 1.1268,-4.218" inkscape:connector-curvature="0" style="stroke:#ffffff">
      <title id="title3751">Van Buren, MI</title>
    </path>
    <path id="c26005" d="m 694.84,192.64 3.9687,-0.435 0.9164,7.97 -3.7119,0.422 -8.5649,0.931 0.26565,-8.118 7.1261,-0.77" inkscape:connector-curvature="0" style="stroke:#ffffff">
      <title id="title3754">Allegan, MI</title>
    </path>
    <path id="c26015" d="m 706.68,191.26 0.96453,8.023 -3.8171,0.478 -4.106,0.416 -0.9164,-7.97 3.9384,-0.481 3.9366,-0.466" inkscape:connector-curvature="0" style="stroke:#ffffff">
      <title id="title3757">Barry, MI</title>
    </path>
    <path id="c26045" d="m 710.64,190.8 3.9134,-0.447 0.9984,7.985 -1.979,0.227 -5.9298,0.718 -0.96453,-8.023 3.9615,-0.46" inkscape:connector-curvature="0" style="stroke:#ffffff">
      <title id="title3760">Eaton, MI</title>
    </path>
    <path id="c26065" d="m 718.54,189.72 3.4285,-0.44 1.3033,8.034 -7.7127,1.019 -0.9984,-7.985 3.9794,-0.628" inkscape:connector-curvature="0" style="stroke:#ffffff">
      <title id="title3763">Ingham, MI</title>
    </path>
    <path id="c26093" d="m 729.82,188.14 1.4227,7.994 -7.8125,1.173 -0.16046,0.02 -1.3033,-8.034 3.917,-0.596 3.9366,-0.552" inkscape:connector-curvature="0" style="stroke:#ffffff">
      <title id="title3766">Livingston, MI</title>
    </path>
    <path id="c26125" d="m 739.25,184.41 1.6706,10.07 -7.809,1.33 -1.872,0.317 -1.4227,-7.994 -0.31378,-2.02 1.9612,-0.303 1.9505,-0.419 5.8353,-0.981" inkscape:connector-curvature="0" style="stroke:#ffffff">
      <title id="title3769">Oakland, MI</title>
    </path>
    <path id="c26099" d="m 741.18,184.03 4.0649,-0.649 0.78803,4.354 0.0891,0.545 -1.6384,5.634 -3.5604,0.571 -1.6706,-10.07 1.9273,-0.385" inkscape:connector-curvature="0" style="stroke:#ffffff">
      <title id="title3772">Macomb, MI</title>
    </path>
    <path id="c26147" d="m 740.15,178.1 8.1299,-1.471 0.041,0.145 0.32983,0.971 0.13015,0.346 1.3568,2.01 -0.11232,6.427 -0.12123,2.259 -0.0731,0.561 -0.0571,0.154 -0.8433,1.365 -0.0785,0.1 -0.28347,0.08 -0.95562,0.19 -0.92174,-0.907 -0.0606,-0.161 0.29952,-0.722 0.31379,-0.281 0.41006,0.09 0.20859,-0.293 0.0642,-0.126 0.025,-0.2 -0.041,-0.217 -0.14441,-0.17 -0.0802,-0.04 -0.69176,-0.169 -0.19255,-0.04 -0.25673,0.05 -0.40115,0.219 -0.025,0.01 -0.0891,-0.545 -0.78803,-4.354 -4.0649,0.649 -1.0269,-5.93" inkscape:connector-curvature="0" style="stroke:#ffffff">
      <title id="title3775">St. Clair, MI</title>
    </path>
    <path id="c26087" d="m 732.25,177.56 -0.0321,-0.227 1.8064,-0.32895 -0.31947,-1.953 3.8564,-0.625 0.15154,0.98 1.9612,-0.291 0.48316,2.983 1.0269,5.93 -1.9273,0.385 -5.8353,0.981 -1.1713,-7.834" inkscape:connector-curvature="0" style="stroke:#ffffff">
      <title id="title3778">Lapeer, MI</title>
    </path>
    <path id="c26049" d="m 728.35,178.11 3.892,-0.545 1.1713,7.834 -1.9505,0.419 -1.9612,0.303 0.31378,2.02 -3.9366,0.552 -1.1339,-8.051 -0.21136,-2.1252 3.8163,-0.40676" inkscape:connector-curvature="0" style="stroke:#ffffff">
      <title id="title3781">Genesee, MI</title>
    </path>
    <path id="c26155" d="m 724.75,180.64 1.1339,8.051 -3.917,0.596 -3.4285,0.44 -1.0376,-7.834 -0.025,-0.231 7.2741,-1.022" inkscape:connector-curvature="0" style="stroke:#ffffff">
      <title id="title3784">Shiawassee, MI</title>
    </path>
    <path id="c26037" d="m 717.5,181.89 1.0376,7.834 -3.9794,0.628 -3.9134,0.447 -0.93958,-7.985 7.7947,-0.924" inkscape:connector-curvature="0" style="stroke:#ffffff">
      <title id="title3787">Clinton, MI</title>
    </path>
    <path id="c26067" d="m 701.8,183.72 7.907,-0.909 0.93958,7.985 -3.9615,0.46 -3.9366,0.466 -0.94849,-8.002" inkscape:connector-curvature="0" style="stroke:#ffffff">
      <title id="title3790">Ionia, MI</title>
    </path>
    <path id="c26139" d="m 693.62,182.62 0.49921,3.983 0.36192,2.685 0.36192,3.35 -7.1261,0.77 -1.8827,-7.946 2.4443,-0.248 3.6228,-0.412 -0.24247,-1.991 1.9612,-0.191" inkscape:connector-curvature="0" style="stroke:#ffffff">
      <title id="title3793">Ottawa, MI</title>
    </path>
    <path id="c26121" d="m 681.84,177.65 7.0138,-0.602 0.43323,3.986 4.1238,-0.426 0.20681,2.018 -1.9612,0.191 0.24247,1.991 -3.6228,0.412 -2.4443,0.248 -0.19255,-0.401 -0.73097,-1.294 -1.6064,-2.652 -0.2496,-0.488 -0.58657,-1.287 -0.30487,-0.795 -0.32091,-0.901" inkscape:connector-curvature="0" style="stroke:#ffffff">
      <title id="title3796">Muskegon, MI</title>
    </path>
    <path id="c26081" d="m 693.41,180.61 3.7761,-0.451 4.1541,-0.457 0.45819,4.026 0.94849,8.002 -3.9384,0.481 -3.9687,0.435 -0.36192,-3.35 -0.36192,-2.685 -0.49921,-3.983 -0.20681,-2.018" inkscape:connector-curvature="0" style="stroke:#ffffff">
      <title id="title3799">Kent, MI</title>
    </path>
    <path id="c26117" d="m 708.61,174.87 1.0929,7.946 -7.907,0.909 -0.45819,-4.026 -4.1541,0.457 -0.43324,-3.994 7.9052,-0.836 3.9544,-0.456" inkscape:connector-curvature="0" style="stroke:#ffffff">
      <title id="title3802">Montcalm, MI</title>
    </path>
    <path id="c26057" d="m 712.56,174.4 3.9277,-0.482 0.98949,7.74 0.025,0.231 -7.7947,0.924 -1.0929,-7.946 3.9455,-0.467" inkscape:connector-curvature="0" style="stroke:#ffffff">
      <title id="title3805">Gratiot, MI</title>
    </path>
    <path id="c26145" d="m 727.54,172.22 0.81833,5.881 -3.8163,0.40676 0.21136,2.1252 -7.2741,1.022 -0.98949,-7.74 -0.0374,-0.362 3.2858,-0.41 -0.20325,-1.991 1.9469,-0.211 0.28375,0.91821 1.5811,-0.12221 2.1127,-0.264 0.35505,0.79181 1.7256,-0.0448" inkscape:connector-curvature="0" style="stroke:#ffffff">
      <title id="title3808">Saginaw, MI</title>
    </path>
    <path id="c26151" d="m 736.51,166.45 8.3617,-1.512 0.0802,0.475 0.29774,1.51 0.0891,0.29 0.79637,1.5183 1.0584,2.1096 0.56453,4.5272 0.11233,0.282 0.40827,0.98 -8.1299,1.471 -0.48316,-2.983 -1.9612,0.291 -0.15154,-0.98 -1.043,-7.979" inkscape:connector-curvature="0" style="stroke:#ffffff">
      <title id="title3811">Sanilac, MI</title>
    </path>
    <path id="c26157" d="m 730.6,166 0.20325,1.407 5.7141,-0.956 1.043,7.979 -3.8564,0.625 0.31947,1.953 -1.8064,0.32895 0.0321,0.227 -3.892,0.545 -0.81833,-5.881 -0.36193,-2.7 3.4231,-3.528" inkscape:connector-curvature="0" style="stroke:#ffffff">
      <title id="title3814">Tuscola, MI</title>
    </path>
    <path id="c26063" d="m 736.51,166.45 -5.7141,0.956 -0.20325,-1.407 0.0267,-0.112 0.18185,-0.909 0.4582,-1.462 1.9772,-3.456 4.516,-2.875 0.82725,-0.218 2.1537,0.804 0.85934,0.514 0.13728,0.128 0.60974,0.875 1.4067,2.035 0.22642,0.465 0.4582,1.391 0.18363,0.641 0.25674,1.118 -8.3617,1.512" inkscape:connector-curvature="0" style="stroke:#ffffff">
      <title id="title3817">Huron, MI</title>
    </path>
    <path id="c26017" d="m 718.33,161.35 1.9861,-0.257 0.26564,1.961 2.1858,-0.258 -0.12123,3.512 2.4996,2.403 2.0325,0.811 0.36193,2.7 -1.7256,0.0448 -0.35505,-0.79181 -2.1127,0.264 -1.5811,0.12221 -0.28375,-0.91821 -1.9469,0.211 -0.72028,-5.884 -0.48494,-3.92" inkscape:connector-curvature="0" style="stroke:#ffffff">
      <title id="title3820">Bay, MI</title>
    </path>
    <path id="c26111" d="m 711.62,166.41 3.9437,-0.458 -0.041,-0.337 3.2876,-0.339 0.72028,5.884 0.20325,1.991 -3.2858,0.41 0.0374,0.362 -3.9277,0.482 -0.93778,-7.995" inkscape:connector-curvature="0" style="stroke:#ffffff">
      <title id="title3823">Midland, MI</title>
    </path>
    <path id="c26073" d="m 711.62,166.41 0.93778,7.995 -3.9455,0.467 -3.9544,0.456 -0.9788,-7.953 7.9409,-0.965" inkscape:connector-curvature="0" style="stroke:#ffffff">
      <title id="title3826">Isabella, MI</title>
    </path>
    <path id="c26107" d="m 695.88,168.21 7.8036,-0.834 0.9788,7.953 -7.9052,0.836 -0.87717,-7.955" inkscape:connector-curvature="0" style="stroke:#ffffff">
      <title id="title3829">Mecosta, MI</title>
    </path>
    <path id="c26123" d="m 695.88,168.21 0.87717,7.955 0.43324,3.994 -3.7761,0.451 -4.1238,0.426 -0.43323,-3.986 -0.82904,-7.997 7.8518,-0.843" inkscape:connector-curvature="0" style="stroke:#ffffff">
      <title id="title3832">Newaygo, MI</title>
    </path>
    <path id="c26127" d="m 681.55,169.64 6.4754,-0.589 0.82904,7.997 -7.0138,0.602 -1.1981,-2.298 -0.19434,-0.369 -0.20859,-0.538 -0.0713,-0.353 -0.0267,-0.266 0.0107,-0.33 0.1034,-0.458 0.26565,-0.506 0.41006,-0.651 0.29061,-0.53 0.20681,-0.602 0.0892,-0.419 0.041,-0.619 -0.009,-0.07" inkscape:connector-curvature="0" style="stroke:#ffffff">
      <title id="title3835">Oceana, MI</title>
    </path>
    <path id="c26011" d="m 727.68,156.27 0.0481,0.86 0.009,0.586 -0.041,1.045 -1.3888,1.638 -1.3425,0.378 -0.39402,0.05 -0.68997,0 -0.28882,0.218 -0.0981,0.112 -0.32092,0.458 -0.36905,1.004 -0.041,0.186 -2.1858,0.258 -0.26564,-1.961 -1.9861,0.257 -0.46355,-3.778 4.6069,-0.587 5.2113,-0.722" inkscape:connector-curvature="0" style="stroke:#ffffff">
      <title id="title3838">Arenac, MI</title>
    </path>
    <path id="c26051" d="m 717.86,157.57 0.94849,7.698 -3.2876,0.339 0.041,0.337 -3.9437,0.458 -0.99128,-7.916 3.9294,-0.481 3.3036,-0.435" inkscape:connector-curvature="0" style="stroke:#ffffff">
      <title id="title3841">Gladwin, MI</title>
    </path>
    <path id="c26035" d="m 706.64,158.95 3.9847,-0.458 0.99128,7.916 -7.9409,0.965 -0.89856,-8.045 3.8635,-0.378" inkscape:connector-curvature="0" style="stroke:#ffffff">
      <title id="title3844">Clare, MI</title>
    </path>
    <path id="c26133" d="m 702.78,159.33 0.89856,8.045 -7.8036,0.834 -0.92353,-8.003 3.7672,-0.426 4.0614,-0.45" inkscape:connector-curvature="0" style="stroke:#ffffff">
      <title id="title3847">Osceola, MI</title>
    </path>
    <path id="c26085" d="m 694.95,160.2 0.92353,8.003 -7.8518,0.843 -0.9057,-8.074 3.6317,-0.307 4.2022,-0.465" inkscape:connector-curvature="0" style="stroke:#ffffff">
      <title id="title3850">Lake, MI</title>
    </path>
    <path id="c26105" d="m 681.44,161.31 5.6731,-0.339 0.9057,8.074 -6.4754,0.589 -0.87717,-3.432 -1.1151,-1.465 1.3184,-2.007 0.57052,-1.42" inkscape:connector-curvature="0" style="stroke:#ffffff">
      <title id="title3853">Mason, MI</title>
    </path>
    <path id="c26069" d="m 721.41,149.06 9.2424,-1.276 0.0856,0.577 0.10518,1.641 -0.20146,1.952 -1.3407,1.551 -0.30487,-0.09 -0.26743,0 -0.33696,0.121 -0.12659,0.09 -0.21751,0.305 -0.1765,0.339 -0.12123,0.497 -0.0731,1.487 -5.2113,0.722 -1.0555,-7.923" inkscape:connector-curvature="0" style="stroke:#ffffff">
      <title id="title3856">Iosco, MI</title>
    </path>
    <path id="c26129" d="m 721.41,149.06 1.0555,7.923 -4.6069,0.587 -3.3036,0.435 -1.0038,-7.923 7.8589,-1.022" inkscape:connector-curvature="0" style="stroke:#ffffff">
      <title id="title3859">Ogemaw, MI</title>
    </path>
    <path id="c26143" d="m 705.71,150.95 7.8428,-0.859 1.0038,7.923 -3.9294,0.481 -3.9847,0.458 -0.93245,-8.003" inkscape:connector-curvature="0" style="stroke:#ffffff">
      <title id="title3862">Roscommon, MI</title>
    </path>
    <path id="c26113" d="m 705.71,150.95 0.93245,8.003 -3.8635,0.378 -4.0614,0.45 -0.8843,-7.955 7.8767,-0.876" inkscape:connector-curvature="0" style="stroke:#ffffff">
      <title id="title3865">Missaukee, MI</title>
    </path>
    <path id="c26165" d="m 689.95,152.67 7.8821,-0.852 0.8843,7.955 -3.7672,0.426 -4.2022,0.465 -0.79694,-7.994" inkscape:connector-curvature="0" style="stroke:#ffffff">
      <title id="title3868">Wexford, MI</title>
    </path>
    <path id="c26101" d="m 689.95,152.67 0.79694,7.994 -3.6317,0.307 -5.6731,0.339 0.97033,-3.9618 0.14442,-1.31 0.016,-0.457 0.007,-2.252 7.3699,-0.65919" inkscape:connector-curvature="0" style="stroke:#ffffff">
      <title id="title3871">Manistee, MI</title>
    </path>
    <path id="c26001" d="m 720.37,141.13 9.1746,-1.26 0.41897,0.618 0.79516,2.587 0.0178,0.571 -0.11945,4.147 -9.2424,1.276 -1.0448,-7.939" inkscape:connector-curvature="0" style="stroke:#ffffff">
      <title id="title3874">Alcona, MI</title>
    </path>
    <path id="c26135" d="m 712.55,142.15 7.8179,-1.022 1.0448,7.939 -7.8589,1.022 -1.0038,-7.939" inkscape:connector-curvature="0" style="stroke:#ffffff">
      <title id="title3877">Oscoda, MI</title>
    </path>
    <path id="c26039" d="m 704.83,142.99 7.7234,-0.843 1.0038,7.939 -7.8428,0.859 -0.8843,-7.955" inkscape:connector-curvature="0" style="stroke:#ffffff">
      <title id="title3880">Crawford, MI</title>
    </path>
    <path id="c26079" d="m 704.83,142.99 0.8843,7.955 -7.8767,0.876 -0.75951,-6.879 0.0464,-0.802 0.0232,-0.114 0.48316,-0.225 7.1992,-0.811" inkscape:connector-curvature="0" style="stroke:#ffffff">
      <title id="title3883">Kalkaska, MI</title>
    </path>
    <path id="c26055" d="m 695.27,143.86 1.8096,1.084 0.75951,6.879 -7.8821,0.852 -0.60083,-5.985 2.5399,-0.339 0.56652,0.37537 0.13328,-1.1959 0.50675,-0.55389 -0.15477,-0.61558 0.45185,-0.38242 -0.62096,-0.31716 0.44467,-1.08 0.26242,-1.3331 0.66417,0.56326 -0.38773,0.81748 0.20026,1.5857 -0.52793,0.85322 -0.38336,1.6836 0.5458,0.0234 0.1434,-1.0193 1.5295,-1.8957" inkscape:connector-curvature="0" style="stroke:#ffffff">
      <title id="title3886">Grand Traverse, MI</title>
    </path>
    <path id="c26019" d="m 689.35,146.69 0.60083,5.985 -7.3699,0.65919 0.0802,-0.731 0.0178,-0.41 -0.14441,-0.625 -0.14441,-0.323 -0.44929,-0.86 -0.12301,-0.345 -0.0161,-0.53 0.0161,-0.128 0.0891,-0.17 0.2496,-0.192 0.93957,-0.433 1.0537,-0.348 0.24782,-0.273 0.14619,-0.401 0.0392,-0.273 -0.009,-0.201 4.7759,-0.40119" inkscape:connector-curvature="0" style="stroke:#ffffff">
      <title id="title3889">Benzie, MI</title>
    </path>
    <path id="c26089" transform="translate(0,-0.10698)" d="m 692,136.35 -1.0293,0.66601 -1.1914,3.3203 -0.73633,0.53321 -0.14844,0.96484 -1.4805,1.6524 -0.56641,-0.58985 -0.88027,0.33867 -0.09,1.057 -0.90077,0.36592 -0.19948,-0.50498 -0.42159,0.15698 0.0487,0.89693 0.17578,1.9922 4.7754,-0.40235 2.5391,-0.33789 -0.42382,-1.252 -0.0645,-0.40235 -0.008,-0.57226 0.0312,-0.23242 0.23438,-0.89258 0.0625,-0.0488 -0.30078,-1.7773 0.28906,-1.3496 -0.60547,-1.8027 1.3398,-1.3301 -0.28125,-0.44922 z m -0.10547,10.109 0.002,0.008 0,-0.008 z m -9.0262,-4.1864 10e-4,-0.68682 0.83563,-0.2884 0.15258,0.23089 -0.0968,0.60035 -0.49363,0.57073 z m 2.6698,-1.4399 0.12728,-0.43027 -0.34961,-1.7305 -0.82812,-0.25 -0.85352,0.55469 0.10157,0.63477 0.64843,0.49609 0.41407,0.57812 z" inkscape:connector-curvature="0" style="stroke:#ffffff">
      <title id="title3892">Leelanau, MI</title>
    </path>
    <path id="c26007" d="m 727.41,132.07 1.3104,1.439 1.1963,2.41 -0.0784,0.09 -0.27635,-0.03 -0.89143,-0.233 -0.30487,-0.17 -0.19255,-0.249 -0.54021,-0.113 -0.51169,0.362 -0.11053,0.17 -0.13907,0.385 -0.007,0.08 0.19255,0.94 0.21751,0.852 0.11945,0.249 0.11232,0.17 0.14442,0.128 0.57943,0.474 1.3158,0.844 -9.1746,1.26 -0.47603,-3.535 0.009,-0.289 0.0731,-0.161 -0.50633,-3.913 7.9391,-1.157" inkscape:connector-curvature="0" style="stroke:#ffffff">
      <title id="title3895">Alpena, MI</title>
    </path>
    <path id="c26119" d="m 719.47,133.23 0.50633,3.913 -0.0731,0.161 -0.009,0.289 0.47603,3.535 -7.8179,1.022 -0.89321,-7.866 1.9362,-0.243 5.8746,-0.811" inkscape:connector-curvature="0" style="stroke:#ffffff">
      <title id="title3898">Montmorency, MI</title>
    </path>
    <path id="c26137" d="m 705.73,134.92 5.9227,-0.641 0.89321,7.866 -7.7234,0.843 -0.84151,-5.875 1.926,-0.32537 -0.17704,-1.8676" inkscape:connector-curvature="0" style="stroke:#ffffff">
      <title id="title3901">Otsego, MI</title>
    </path>
    <path id="c26009" d="m 695.19,136.02 0.19077,-0.03 2.4675,-0.231 0.1765,1.654 0.63649,0.282 3.013,-0.353 2.316,-0.227 0.84151,5.875 -7.1992,0.811 -0.48316,0.225 -0.0232,0.114 -0.0464,0.802 -1.8096,-1.084 0.12658,-0.321 0.24247,-0.724 0.12124,-0.458 0.1141,-1.574 0.005,-1.64 -0.12837,-1.093 -0.5616,-2.033" inkscape:connector-curvature="0" style="stroke:#ffffff">
      <title id="title3904">Antrim, MI</title>
    </path>
    <path id="c26029" transform="translate(0,-0.10698)" d="m 699.84,131.94 -1.1484,0.0195 -0.83007,0.31445 -0.19922,0.11133 -1.4629,1.1816 -0.24024,0.24805 -0.30554,0.28984 -0.37805,0.54024 -0.18555,0.84961 0.0977,0.62695 0.1914,-0.0293 2.4668,-0.23046 0.17578,1.6543 0.63672,0.28125 3.0137,-0.35351 2.3164,-0.22657 1.9258,-0.32422 -0.17773,-1.8691 -0.2168,-1.9922 -3.7363,0.39453 -0.81836,0 -1.125,-1.4805 z m -7.5756,-8.0805 -0.99136,-0.1353 0.006,0.96552 -0.52899,0.9018 0.12666,0.71876 -0.23327,0.61433 0.16864,0.94023 1.0958,0.0706 0.73779,-0.81129 0.0977,-0.60942 -0.37169,-0.98575 0.0367,-1.1383 -0.40604,-0.28831 z" inkscape:connector-curvature="0" style="stroke:#ffffff">
      <title id="title3907">Charlevoix, MI</title>
    </path>
    <path id="c26141" d="m 727.41,132.07 -7.9391,1.157 -5.8746,0.811 -0.67392,-5.32 -0.61866,-4.42 0.76129,-0.112 1.4798,1.776 5.4966,2.153 3.5283,1.086 0.47424,0.06 0.89857,-0.105 0.25851,-0.289 0.12659,0.02 0.82903,0.941 1.2534,2.234" inkscape:connector-curvature="0" style="stroke:#ffffff">
      <title id="title3910">Presque Isle, MI</title>
    </path>
    <path id="c26031" d="m 705.52,132.93 -1.3478,-11.378 0.32092,0.467 4.3787,2.097 1.3585,-0.234 0.72385,-0.298 1.9112,0.451 0.19968,0.152 -0.76129,0.112 0.61866,4.42 0.67392,5.32 -1.9362,0.243 -5.9227,0.641 -0.21751,-1.993" inkscape:connector-curvature="0" style="stroke:#ffffff">
      <title id="title3913">Cheboygan, MI</title>
    </path>
    <path id="c26047" d="m 705.52,132.93 -3.7351,0.394 -0.82012,0 -1.125,-1.48 0.80942,-0.128 0.98949,-0.328 0.65075,-0.476 0.0321,-0.225 -0.0214,-0.16 -0.0749,-0.177 -0.11054,-0.08 -0.96453,-0.07 -0.14442,0.114 -0.83438,-0.169 -0.52594,-0.458 -0.34232,-0.369 -0.45998,-0.979 -0.14263,-0.396 -0.14619,-0.667 0,-0.144 0.082,-0.257 0.48138,-1.061 0.18541,-0.256 1.6955,-1.833 -0.80961,-1.1446 3.0186,0.0266 0.16224,-0.136 -0.32999,-0.69488 1.1323,-0.22112 1.3478,11.378" inkscape:connector-curvature="0" style="stroke:#ffffff">
      <title id="title3916">Emmet, MI</title>
    </path>
    <path id="c26097" transform="translate(0,-0.10698)" d="m 696.88,111.93 -1.9766,0.23243 -9.9648,1.125 0,0.0156 0.65039,6.2988 2.7246,-0.10352 0.51563,-0.21093 0.12695,-0.16797 0.50586,-0.85938 0.16211,-0.52343 0.88477,-1.2363 0.26953,-0.29883 0.13867,-0.0996 0.19336,-0.0703 1.1465,-0.24024 0.24219,-0.0195 1.2383,0.0605 3.3906,0.6914 1.9453,0.58594 4.3828,3.166 0.53591,-0.61596 -0.35427,-1.5852 0.42383,-2.5274 2.6856,0.76563 3.375,0.73437 3.3672,-0.92773 -2.0254,-0.0586 -0.57031,-1.7773 -1.4199,0.20313 -0.45313,-1.9785 -11.9,1.4141 z m 8.1738,7.3276 0.3342,0.77004 0.45769,-0.17694 -0.43056,-0.71029 z m 1.1385,1.6637 0.80496,-0.0792 1.2559,1.5664 1.6211,0.0586 0.32227,-1.3691 -1.3477,-0.0644 -1.6914,-0.56055 z" inkscape:connector-curvature="0" style="stroke:#ffffff">
      <title id="title3919">Mackinac, MI</title>
    </path>
    <path id="c26033" transform="translate(0,-0.10698)" d="m 697.93,99.537 -1.1894,0.55273 -2.1621,0.17578 -0.99609,0.29883 1.3184,11.619 1.9766,-0.23437 0.24023,1.9941 11.9,-1.4141 0.45313,1.9785 1.4199,-0.20312 0.57031,1.7773 2.0254,0.0586 0.16016,0.0996 0.25781,0.10547 1.1797,0.041 2.1777,0.0586 0.13868,-0.51367 -0.19532,-0.63476 -0.36718,-0.0606 -0.57618,-0.6836 -0.94335,0.0957 -0.67579,-0.42578 -0.69726,-0.66602 0.12305,-0.5957 0.43945,-0.52735 -2.5059,-0.8164 -1.0215,0.21679 -0.35352,-0.91796 0.79492,-0.71875 0.40234,-0.10352 -0.39768,-0.70734 -0.37966,-0.33172 -0.19336,-1.2461 -0.5039,-0.5332 -0.3086,-1.3262 -0.48828,-0.4961 -0.63672,-0.76757 -0.82812,-0.16211 -0.92578,0.32226 -0.35938,0.32227 -0.0762,1.1777 -0.61719,0.0606 -1.3281,0.47461 -0.0899,-0.44922 -0.74414,-0.79102 -0.94922,-0.0859 -1.3086,0.9375 -0.84375,0.42578 -0.59961,-0.61914 -0.83789,0.0215 -0.57617,-0.24023 -1.0215,0.37109 -0.16992,-0.0586 -0.14648,-0.0996 -0.29688,-0.33789 -0.10547,-0.23242 -0.0469,-0.27344 -0.008,-3.6504 0.008,-0.28906 0.0723,-0.35352 0.16211,-0.38477 z m 13.373,9.4025 0.47027,0.40697 0.42849,0.92886 0.14844,0.44727 0.10351,-0.43946 0.49609,-0.30468 -0.18554,-0.80274 -0.64063,-0.75976 -0.16601,-0.15505 -0.23047,0.004 -0.375,0.2195 z m 0.65462,-0.83995 0.82617,-0.0137 -0.80664,-0.86133 -0.72852,-1.2246 0.20313,-0.87109 0.23437,-0.12305 0.17188,-0.71094 0.0371,-0.41992 -0.2168,-0.26758 -0.16797,-0.0195 -0.875,-0.0703 -0.34765,0.70508 -0.71875,0.32617 0.0449,0.56055 0.5,0.21484 0.49609,1.3418 0.85547,0.49804 z m 8.793,4.1836 -1.0469,0.18164 -0.18164,0.29883 0.97266,0.32617 0.1289,0.64454 -0.66797,0.24609 -0.74609,0.24609 -0.34375,0.76563 -0.46875,0.25195 -0.24219,-0.6543 -0.30859,-0.0996 -0.26758,0.69922 0.11328,0.4375 0.85157,0.13867 0.26367,0.29688 0.23242,0.30469 0.71484,0.12304 2.7246,0 0.55274,-0.21679 0.1289,-0.12891 0.0899,-0.14453 0.42578,-1.334 -0.0234,-0.0898 -0.13281,-0.16015 -1.877,-1.9121 -0.74023,-0.20118 z" inkscape:connector-curvature="0" style="stroke:#ffffff">
      <title id="title3922">Chippewa, MI</title>
    </path>
    <path id="c26095" d="m 684.3,107.24 -0.42433,-4.218 1.0982,0.09 0.70958,0 2.587,-0.218 0.70601,-0.07 0.51525,-0.1 0.42789,-0.153 1.683,-0.956 1.979,-1.189 1.3175,11.619 -9.9645,1.125 -0.6347,-5.939" inkscape:connector-curvature="0" style="stroke:#ffffff">
      <title id="title3925">Luce, MI</title>
    </path>
    <path id="c26153" d="m 684.3,107.24 0.6347,5.939 0.65074,6.298 -0.85042,0.555 -2.4194,-0.136 -0.37084,0 -1.6153,0.248 -0.36905,0.136 -0.88252,0.483 -0.53843,0.676 -0.11232,0.215 -0.009,1.254 -0.17651,1.262 -0.1765,0.201 -0.9088,0.06 -0.24115,0.73599 -0.2496,0.112 -0.0642,-0.02 -0.30487,-3.158 -0.53129,-1.961 -0.57052,-3.968 -2.0004,0.176 -0.39402,-3.979 3.9794,-0.36 -0.39401,-3.978 7.9142,-0.804" inkscape:connector-curvature="0" style="stroke:#ffffff">
      <title id="title3928">Schoolcraft, MI</title>
    </path>
    <path id="c26003" transform="translate(0,-0.10698)" d="m 683.88,103.12 -0.95117,0.22461 -4.0898,1.1348 -2.9902,2.4024 -2.1094,0.95312 -0.32226,0.59961 -0.52344,0.21094 -0.36523,1.0039 -0.33594,0.14649 -0.17188,0.84765 -0.52734,-0.0469 -0.0312,-0.48242 -0.91211,0.0801 -0.375,-0.51172 -0.83008,-0.1875 -0.48632,1.0488 -0.40821,-0.0293 -0.14648,-0.0898 -1.0898,-0.88476 -0.34765,-0.70703 -0.22461,-0.20899 -0.51367,-0.0918 -0.13868,0 -0.90625,0.50781 -0.57812,0.51562 0.72266,7.6797 7.9707,-0.76953 -0.39453,-3.9805 3.9805,-0.35937 -0.39454,-3.9785 7.9141,-0.80273 0,-0.006 z m -11.613,6.1319 -0.0586,-0.35659 -0.25589,0.0689 -0.0799,0.26229 -0.28715,-0.12635 0.13217,-0.92282 -0.68728,-0.78581 -0.74805,0.35742 0.41016,0.98047 0.31641,0.44336 -0.16016,0.55078 0.17773,0.20117 0.29688,-0.0469 0.15625,-0.50195 0.19922,0.14843 -0.01,0.19727 0.22656,0.0352 z" inkscape:connector-curvature="0" style="stroke:#ffffff">
      <title id="title3931">Alger, MI</title>
    </path>
    <path id="c26041" d="m 665.23,117.13 7.9712,-0.77 2.0004,-0.176 0.57052,3.968 0.53129,1.961 0.30487,3.158 -0.86825,0.217 -0.18996,0.90196 -0.71276,0.0869 0.01,1.1302 -0.70096,0.16917 0.44792,1.2595 -1.1192,-0.30101 -0.63899,-0.66875 -0.1445,-0.67816 0.51599,-0.28918 0.0124,-0.47775 0.72174,-1.5309 1.0373,-0.15432 -0.39693,-0.28691 0.69307,-1.4427 -0.45501,-1.1086 -0.85989,0.68336 -0.53182,1.0461 -1.1112,-0.15391 -0.48256,-0.4859 -0.61527,0.25323 0.0853,1.5097 -0.79385,1.7444 -1.9071,1.427 -0.24787,-1.9345 -0.18364,-0.884 -0.15332,-0.41 -0.31379,-0.458 0.68666,-1.1502 -0.31471,-0.81421 -0.45043,0.79317 -0.0398,0.79468 -0.6109,0.6756 -0.36105,0.83399 0.62024,1.0156 -0.91226,1.4479 -1.0081,0.53963 -0.76709,1.7719 -0.3851,0.885 -0.009,0.03 -1.0198,0.1 -0.69888,-7.964 -0.49742,-0.626 -0.35479,-1.294 1.9932,-0.177 -0.34587,-3.977 2.0004,-0.186" inkscape:connector-curvature="0" style="stroke:#ffffff">
      <title id="title3934">Delta, MI</title>
    </path>
    <path id="c26109" d="m 657.6,121.81 3.9847,-0.337 0.35479,1.294 0.49742,0.626 0.69888,7.964 1.0198,-0.1 -0.29595,1.157 -0.51347,1.654 -1.4726,3.336 -1.043,1.687 -0.99841,3.07 -0.73097,-0.114 -0.41719,-0.07 -0.0161,0 -1.2694,-1.342 -0.0731,-0.121 -0.14263,-0.473 -0.004,-0.008 -10e-4,-0.003 -0.003,-0.006 1.0353,-3.4451 -0.93194,-0.82209 -0.8147,0.84765 -2.2901,-0.005 1.5788,-3.4147 -0.16045,-4.147 -0.48138,-0.594 -0.041,-0.04 -0.025,-0.02 -0.30488,-0.248 2.1038,-0.194 -0.34231,-4.017 1.2694,-0.114 -0.16937,-2" inkscape:connector-curvature="0" style="stroke:#ffffff">
      <title id="title3937">Menominee, MI</title>
    </path>
    <path id="c26043" d="m 649.1,116.54 7.9801,-0.692 0.51525,5.962 0.16937,2 -1.2694,0.114 0.34231,4.017 -2.1038,0.194 -3.7993,-1.021 -0.21751,0.03 -0.016,0 -0.21751,-0.06 -0.1355,-0.03 -0.6133,-0.498 -0.0161,0 -0.1034,-0.201 0.0232,-0.08 0.009,-0.02 0.28169,-0.36 0.11232,-0.09 0.25673,-0.362 0.22465,-0.385 -0.0232,-0.08 -0.0499,-0.07 -0.47246,-0.676 -0.24782,-0.159 -0.62935,-7.521" inkscape:connector-curvature="0" style="stroke:#ffffff">
      <title id="title3940">Dickinson, MI</title>
    </path>
    <path id="c26103" d="m 648.99,101.24 2.2732,-0.128 1.4174,0.37 0.50455,0.145 2.4835,1.342 0.65787,0.61 0.13729,0.674 0.16759,0.506 3.4891,4.429 0.1355,0.152 0.25852,0.208 0.25495,0.121 0.65966,0.145 0.83616,0 2.0664,-0.321 0.1765,-0.05 0.72207,7.68 -2.0004,0.186 0.34587,3.977 -1.9932,0.177 -3.9847,0.337 -0.51525,-5.962 -7.9801,0.692 -0.32092,-3.955 -0.47424,-5.914 1.9629,-0.185 -0.16225,-1.936 -0.0392,-0.02 -0.80407,0.06 -0.27457,-3.352" inkscape:connector-curvature="0" style="stroke:#ffffff">
      <title id="title3943">Marquette, MI</title>
    </path>
    <path id="c26071" d="m 639.84,113.29 8.9429,-0.708 0.32092,3.955 0.62935,7.521 -0.37797,-0.251 -0.61152,-0.296 -0.39937,-0.06 -0.0356,0 -4.6765,-0.587 -2.8116,0.298 -0.32983,-0.586 -4.081,-1.045 -0.97345,-0.474 -0.39223,-5.399 -0.15332,-1.977 4.9492,-0.378" inkscape:connector-curvature="0" style="stroke:#ffffff">
      <title id="title3946">Iron, MI</title>
    </path>
    <path id="c26083" d="m 636.78,74.64 0.1141,-0.217 0.0285,-0.06 0.24247,-0.29 0.64183,-0.41 0.99662,-0.537 1.8952,-0.515 -0.62154,0.78542 -1.5037,1.1938 -0.11497,0.39638 0.17788,0.48583 -0.31347,0.3366 -1.2806,1.143 -1.2035,0.65411 -1.199,0.20996 -2.4909,1.7861 0.007,0.37455 1.1184,-0.03966 -2.8269,1.738 -0.51346,0.144 -0.52417,-0.137 -0.72206,-0.408 -0.36192,-0.532 0.1141,-0.288 0.46355,-0.612 0.51525,-0.522 1.248,-0.844 1.5083,-0.898 3.4231,-2.147 1.182,-0.795 m 4.1541,18.683 0.73811,-1.304 0.58122,-0.763 0.43323,-0.337 2.5691,-1.679 0.53843,-0.248 2.1858,-0.602 0.95027,-0.163 0.77734,-0.05 2.0093,-0.05 0.72206,0.227 0.42789,0.231 0.24782,0.186 0.15333,0.763 -0.0143,0.112 -1.585,0.515 -0.18542,-0.02 -2.1359,0.45 -2.3552,3.294 -0.44036,0.571 -0.9895,0.458 -1.1089,0.1 -0.16937,-1.968 -3.35,0.273" inkscape:connector-curvature="0" style="stroke:#ffffff">
      <title id="title3949">Keweenaw, MI</title>
    </path>
    <path id="c26061" d="m 642.78,100.11 -0.22374,0.85134 -1.6224,0.33 0.0583,1.9083 -1.9,0.22972 0.7488,9.859 -4.9492,0.378 -0.24961,-3.359 -0.15867,-2.596 1.9754,-0.128 -0.13906,-1.953 -1.084,0.08 -0.46533,-6.1 0.36906,-1.269 0.20859,-0.346 1.0947,-1.02 1.6395,-1.5534 0.28774,-0.2707 0.0362,0.81749 0.68861,1.14 1.5137,0.26387 0.55217,1.3781 z m -4.172,-5.1428 2.3259,-1.6454 3.35,-0.2705 0.16937,1.968 1.1089,-0.1 -2.6559,5.0066 -1.5747,-1.3146 -0.57449,-1.4674 -1.536,-0.24155 -0.57698,-1.0284 z" inkscape:connector-curvature="0" style="stroke:#ffffff">
      <title id="title3952">Houghton, MI</title>
    </path>
    <path id="c26013" d="m 648.99,101.24 0.27457,3.352 0.80407,-0.06 0.0392,0.02 0.16225,1.936 -1.9629,0.185 0.47424,5.914 -8.9429,0.708 -0.7488,-9.859 1.9,-0.22972 -0.0583,-1.9083 1.6224,-0.33 -0.31913,1.43 -0.0267,1.246 0.0267,0.129 0.18185,0.442 0.21038,0.433 0.37619,-0.03 0.0571,-0.161 0.26565,-0.442 0.77198,-1.077 1.7044,-1.823 1.3407,-0.924 0.17651,-0.06 0.1765,0.09 1.494,1.02" inkscape:connector-curvature="0" style="stroke:#ffffff">
      <title id="title3955">Baraga, MI</title>
    </path>
    </g>
  </svg>
