<svg xmlns:dc="http://purl.org/dc/elements/1.1/" xmlns:cc="http://creativecommons.org/ns#" xmlns:rdf="http://www.w3.org/1999/02/22-rdf-syntax-ns#" xmlns:svg="http://www.w3.org/2000/svg" xmlns="http://www.w3.org/2000/svg" xmlns:sodipodi="http://sodipodi.sourceforge.net/DTD/sodipodi-0.dtd" xmlns:inkscape="http://www.inkscape.org/namespaces/inkscape" width="127.55839999999989" height="131.86803999999995" version="1.0" id="svg2" inkscape:version="0.91 r13725" sodipodi:docname="USA counties.svg">
  <defs id="defs9439"/>
  <sodipodi:namedview pagecolor="#ffffff" bordercolor="#666666" borderopacity="1" objecttolerance="10" gridtolerance="10" guidetolerance="10" inkscape:pageopacity="0" inkscape:pageshadow="2" inkscape:window-width="798" inkscape:window-height="828" id="namedview9437" showgrid="false" showguides="true" inkscape:zoom="0.64950808" inkscape:cx="494.98999" inkscape:cy="313.535" inkscape:window-x="-7" inkscape:window-y="0" inkscape:window-maximized="0" inkscape:current-layer="svg2"/>
  <metadata id="metadata4">
    <rdf:RDF>
      <cc:Work>
        <dc:format>image/svg+xml</dc:format>
        <dc:type rdf:resource="http://purl.org/dc/dcmitype/StillImage"/>
        <dc:title/>
        <cc:license rdf:resource="http://creativecommons.org/publicdomain/zero/1.0/"/>
        <dc:date>2019-10-06</dc:date>
        <dc:creator>
          <cc:Agent>
            <dc:title>U.S. Census Bureau, Abe.suleiman, Lokal_Profil</dc:title>
          </cc:Agent>
        </dc:creator>
        <dc:source>https://commons.wikimedia.org/wiki/File:Usa_counties_large.svg</dc:source>
      </cc:Work>
      <cc:License rdf:about="http://creativecommons.org/publicdomain/zero/1.0/">
        <cc:permits rdf:resource="http://creativecommons.org/ns#Reproduction"/>
        <cc:permits rdf:resource="http://creativecommons.org/ns#Distribution"/>
        <cc:permits rdf:resource="http://creativecommons.org/ns#DerivativeWorks"/>
      </cc:License>
    </rdf:RDF>
  </metadata>
  <style id="style6">
  /*
   * Below are Cascading Style Sheet (CSS) definitions in use in this file,
   * which allow easily changing how counties are displayed.
   *
   *
   * For the U.S. Census county codes (FIPS codes) used in this file to identify individual counties, see this link:
   * https://www2.census.gov/geo/docs/reference/codes/files/national_county.txt
   *
   * The county codes used in this file combine the 2-digit state code, which is in the second column of the file
   * linked above, and the 3-digit county code, which is in the third column of the file linked above. Each value
   * for the "id" attribute for each county is in the following form: "c[state_code][county-code]". For example,
   * for Loving Country in Texas, the state code is "48" and the county code is "301", so the id name for the
   * county is "c48301".
   *
   * County codes used in this file can also be found on Wikimedia Commons at this link:
   * https://commons.wikimedia.org/wiki/File_talk:Usa_counties_large.svg/county_codes
   *
   * Examples:
   *
   * To color two counties red (in this case Loving County and Dallas County in Texas) simply
   * go to the CSS insertion point and add:
   *
   * #c48301, #c48113 {fill:red}
   *
   * To color an entire state's counties (in the case New Mexico, with "35" being the state code) a green,
   * go to the CSS insertion point and add:
   *
   * path[id*='c35'] {fill:#34A853}
   *
   */
  #counties {fill:#d0d0d0;stroke:#000;stroke-width:.17829;} 
  #borders {fill:none;stroke:#221e1f;stroke-width:.89143;} 
  #separator {fill:none;stroke:#a9a9a9;stroke-width:2.3177309;}
 </style>
  <g id="counties" transform="translate(-268.1577000000001,-319.202)" style="fill:#d0d0d0;stroke:#ffffff;stroke-width:0.17828999">
    <path id="c35025" d="m 388.92,409.84 -0.39402,4.195 -0.8843,9.868 -1.4869,20.056 -0.15154,1.993 -0.47603,-0.03 -1.0911,-0.09 -1.3675,-0.106 -1.0038,-0.07 -1.141,-0.09 -7.6913,-0.603 0.98236,-12.004 -1.7526,-0.135 0.82012,-10.182 0.92353,0.07 0.81121,-9.902 0.8319,-0.028 0.36618,-3.909 4.0008,0.307 8.704,0.658" inkscape:connector-curvature="0" style="stroke:#ffffff">
      <title id="title5812">Lea, NM</title>
    </path>
    <path id="c35015" d="m 352.48,431.11 0.18541,0.01 0.96454,-10.168 19.647,1.689 -0.82012,10.182 1.7526,0.135 -0.98236,12.004 -4.9813,-0.408 -0.85934,-0.07 -15.95,-1.43 0.54556,-5.794 -0.0731,0 0.57052,-6.14" inkscape:connector-curvature="0" style="stroke:#ffffff">
      <title id="title5815">Eddy, NM</title>
    </path>
    <path id="c35028" d="m 334.21,349.21 -0.0392,0.822 -0.24247,1.727 -0.52951,-0.05 0.45106,0.369 0.0392,0.06 -0.2086,1.929 -0.26565,-0.588 -0.27278,-0.321 -0.74702,-0.433 -0.56339,-0.273 -0.11232,0.103 -0.37797,0.03 -0.33696,-0.02 -0.18542,-0.1 -0.12123,-0.224 0.62044,-2.363 0.312,-0.625 1.6242,-0.17 0.6668,0.02 0.28882,0.102" inkscape:connector-curvature="0" style="stroke:#ffffff">
      <title id="title5818">Los Alamos, NM</title>
    </path>
    <path id="c35039" d="m 315.54,322.98 7.6111,0.9 2.3445,0.451 4.582,0.505 2.5548,0.274 8.5168,0.876 0.20146,1.59 -0.16937,2.491 -0.22464,4.951 0.10519,1.365 0.0642,1.439 -0.0161,0.466 -0.51346,2.242 -0.15333,0.321 -0.24069,0.195 -0.57943,0.231 -0.4582,0.03 -0.23177,0.06 -0.37084,0.442 -0.0642,0.176 3.5265,1.922 1.4958,2.459 0.18542,0.385 0.23356,0.385 3.5657,2.394 -3.5176,0.443 0.0713,-0.548 -6.4682,-0.667 0.0232,0.298 0.1765,0.03 0.025,0.09 -0.12837,1.261 -3.5194,-0.385 0.0392,-0.822 0.041,-0.159 0.0642,-0.644 -11.724,-1.251 0.29774,-2.74 0.27991,-2.268 -6.4522,-0.747 -7.062,-0.931 0.62579,-5.425 0.23356,-1.776 0.87539,-5.996 0.48137,-0.875 2.9186,-2.411 0.75415,-1.012" inkscape:connector-curvature="0" style="stroke:#ffffff">
      <title id="title5821">Rio Arriba, NM</title>
    </path>
    <path id="c35045" d="m 298.2,320.81 16.24,2.032 1.1,0.136 -0.75415,1.012 -2.9186,2.411 -0.48137,0.875 -0.87539,5.996 -0.23356,1.776 -0.62579,5.425 -0.65966,5.037 -8.4775,-1.118 -17.517,-2.323 3.1735,-22.867 12.029,1.608" inkscape:connector-curvature="0" style="stroke:#ffffff">
      <title id="title5824">San Juan, NM</title>
    </path>
    <path id="c35031" d="m 283,342.07 17.517,2.323 8.4775,1.118 5.8336,0.747 -1.9362,15.935 -5.053,-0.61073 0.16145,-1.1179 -2.7576,-0.33953 -0.20084,1.1202 -13.58,-1.785 -0.041,0.323 -1.0216,7.659 -10.703,-1.464 3.3037,-23.908" inkscape:connector-curvature="0" style="stroke:#ffffff">
      <title id="title5827">McKinley, NM</title>
    </path>
    <path id="c35001" d="m 314.77,364.42 4.3235,0.52 3.7048,0.435 3.0451,0.353 4.4358,0.498 2.1216,0.29 -0.41897,4.026 -0.21573,1.993 1.7508,0.184 -0.20147,1.92 -1.4851,-0.135 -3.3839,-0.394 -0.009,-0.516 -0.14441,-0.231 -0.15155,-0.06 -4.7246,-0.594 -0.58835,0.538 -0.15154,0.218 -5.666,-0.653 -0.54556,-2.087 -1.6955,-6.308" inkscape:connector-curvature="0" style="stroke:#ffffff">
      <title id="title5830">Bernalillo, NM</title>
    </path>
    <path id="c35061" d="m 316.46,370.73 0.54556,2.087 5.666,0.653 0.15154,-0.218 0.58835,-0.538 4.7246,0.594 0.15155,0.06 0.14441,0.231 0.009,0.516 -0.97831,-0.10204 -0.17165,1.396 -0.6347,4.587 -0.19968,2.026 0.98058,0.1 -0.19433,1.881 -1.5012,-0.515 -4.9261,-2.377 -1.9291,-1.303 -0.5206,-0.08 -5.4984,-0.603 1.0608,-8.711 2.5317,0.323" inkscape:connector-curvature="0" style="stroke:#ffffff">
      <title id="title5833">Valencia, NM</title>
    </path>
    <path id="c35006" d="m 314.77,364.42 1.6955,6.308 -2.5317,-0.323 -1.0608,8.711 -9.722,-1.166 -1.2712,-0.184 -6.2097,-0.822 -4.4679,-0.529 -12.705,-1.719 1.2052,-8.718 10.703,1.464 1.0216,-7.659 0.041,-0.323 13.58,1.785 0.20084,-1.1202 2.7576,0.33953 -0.16145,1.1179 5.053,0.61073 1.3488,0.15028 0.52319,2.0767" inkscape:connector-curvature="0" style="stroke:#ffffff">
      <title id="title5836">Cibola, NM</title>
    </path>
    <path id="c35051" d="m 300.24,403.24 12.494,1.471 2.0984,0.298 6.019,0.708 2.7242,0.287 2.0735,0.13 -0.22529,2.0389 0.52302,0.0661 -0.74702,7.77 -11.05,4.099 -0.11232,0.995 -7.8678,-0.94 -0.48138,4.003 -5.9138,-0.715 -2.0414,-0.651 -0.30487,-0.253 0.0481,-0.246 0.2086,-0.401 0.34588,-1.35 0.0963,-0.973 -0.0321,-0.344 -0.49098,-2.8533 0.09,-2.6458 -1.3453,-0.62647 0.61235,-3.2955 -0.0321,-0.182 -0.23355,-0.412 -0.16046,-0.05 -2.5459,-0.305 0.80408,-6.332 5.4467,0.707" inkscape:connector-curvature="0" style="stroke:#ffffff">
      <title id="title5839">Sierra, NM</title>
    </path>
    <path id="c35053" d="m 312.87,379.12 5.4984,0.603 0.5206,0.08 1.9291,1.303 4.9261,2.377 1.5012,0.515 -0.43324,4.138 9.2406,0.988 -0.65788,5.971 -0.40292,4.018 -2.4176,-0.267 -0.43323,4.036 -1.8417,-0.194 -0.16046,-0.07 -2.0574,-0.4 -1.9915,-0.226 -0.44215,4.147 -2.0735,-0.13 -2.7242,-0.287 -6.019,-0.708 -2.0984,-0.298 -12.494,-1.471 0.47425,-3.76 1.6884,-14.199 -0.1765,-0.03 0.66501,-5.512 0.25852,-1.792 9.722,1.166" inkscape:connector-curvature="0" style="stroke:#ffffff">
      <title id="title5842">Socorro, NM</title>
    </path>
    <path id="c35003" d="m 303.15,377.95 -0.25852,1.792 -0.66501,5.512 0.1765,0.03 -1.6884,14.199 -0.47425,3.76 -5.4467,-0.707 -0.80408,6.332 -8.5328,-1.093 -1.7615,-0.394 -1.9522,-0.299 -7.6022,-1.018 4.3556,-31.363 12.705,1.719 4.4679,0.53 6.2097,0.821 1.2712,0.184" inkscape:connector-curvature="0" style="stroke:#ffffff">
      <title id="title5845">Catron, NM</title>
    </path>
    <path id="c35017" d="m 274.14,406.06 7.6022,1.018 1.9522,0.299 1.7615,0.394 8.5328,1.093 2.5459,0.305 0.16046,0.05 0.23355,0.412 0.0321,0.182 -0.61235,3.2955 1.3453,0.62647 -0.09,2.6458 0.49098,2.8533 0.0321,0.344 -0.0963,0.973 -0.34588,1.35 -0.2086,0.401 -0.0481,0.246 0.30487,0.253 2.0414,0.651 -6.0421,-0.731 -0.2496,1.991 -5.8674,-0.738 -1.3015,9.986 0.009,1.223 -0.22464,2.418 -0.17651,1.328 -5.9387,-0.772 0.71494,-7.224 1.0198,-7.733 -2.0778,-0.23744 0.25395,-2.0206 -3.9526,-0.537 0.51347,-3.971 -3.6798,-0.515 1.3657,-9.857" inkscape:connector-curvature="0" style="stroke:#ffffff">
      <title id="title5848">Grant, NM</title>
    </path>
    <path id="c35023" d="m 272.77,415.92 3.6798,0.515 -0.51347,3.971 3.9526,0.537 -0.25395,2.0206 2.0778,0.23744 -1.0198,7.733 -0.71494,7.224 5.9387,0.772 -0.0642,1.856 -0.84508,6.484 -0.48851,3.8 -12.496,-1.632 -0.19255,-0.03 -1.5422,-0.21 -2.1305,-0.298 3.4962,-24.959 1.1161,-8.021" inkscape:connector-curvature="0" style="stroke:#ffffff">
      <title id="title5851">Hidalgo, NM</title>
    </path>
    <path id="c35029" d="m 305.69,424.16 -2.1947,18.811 -17.636,-2.193 0.0642,-1.856 0.17651,-1.328 0.22464,-2.418 -0.009,-1.223 1.3015,-9.986 5.8674,0.738 0.2496,-1.991 6.0421,0.731 5.9138,0.715" inkscape:connector-curvature="0" style="stroke:#ffffff">
      <title id="title5854">Luna, NM</title>
    </path>
    <path id="c35013" d="m 325.2,416.01 -0.24247,2.17 -0.68284,-0.07 -2.4104,21.92 -4.2272,-0.447 -0.79852,-0.0621 -0.007,0 -0.32589,0.14926 -0.0378,0.32313 0.3169,0.12626 -0.21057,1.2122 -0.43812,0.28139 0.10674,0.45615 0.003,0.29066 0.43546,0.46799 0.18542,0.249 1.5101,1.615 -14.883,-1.711 2.1947,-18.811 0.48138,-4.003 7.8678,0.94 0.11232,-0.995 11.05,-4.099" inkscape:connector-curvature="0" style="stroke:#ffffff">
      <title id="title5857">Do&#241;a Ana, NM</title>
    </path>
    <path id="c35055" d="m 346.38,326.52 9.032,0.915 -0.0731,1.415 -0.56161,3.657 -1.15,1.084 -0.64183,0.241 -0.57943,0.267 -0.42433,0.305 -0.24247,1.678 -0.041,1.246 0.14619,2.314 -0.28169,4.475 -4.0507,5.4 -3.5657,-2.394 -0.23356,-0.385 -0.18542,-0.385 -1.4958,-2.459 -3.5265,-1.922 0.0642,-0.176 0.37084,-0.442 0.23177,-0.06 0.4582,-0.03 0.57943,-0.231 0.24069,-0.195 0.15333,-0.321 0.51346,-2.242 0.0161,-0.466 -0.0642,-1.439 -0.10519,-1.365 0.22464,-4.951 0.16937,-2.491 -0.20146,-1.59 5.2238,0.538" inkscape:connector-curvature="0" style="stroke:#ffffff">
      <title id="title5860">Taos, NM</title>
    </path>
    <path id="c35049" d="m 334.17,350.04 3.5194,0.385 0.12837,-1.261 -0.025,-0.09 -0.1765,-0.03 -0.0232,-0.298 6.4682,0.667 -0.0713,0.548 -0.30666,2.474 -1.847,19.111 -9.861,-1.006 0.41897,-4.026 1.2854,-12.446 0.24782,-2.307 0.24247,-1.727" inkscape:connector-curvature="0" style="stroke:#ffffff">
      <title id="title5863">Santa Fe, NM</title>
    </path>
    <path id="c35035" d="m 325.94,408.24 6.5556,0.73 5.1917,0.522 -0.16937,1.97 7.7466,0.77 -0.35301,3.978 -0.45324,4.0551 -0.53982,-0.0591 -1.1054,10.019 3.9384,0.387 0.74703,0.03 4.9813,0.472 -0.57052,6.141 0.0731,0 -0.54556,5.794 -1.3675,-0.128 -20.885,-2.131 -7.3276,-0.772 2.4104,-21.92 0.68284,0.07 0.24247,-2.17 0.74702,-7.77" inkscape:connector-curvature="0" style="stroke:#ffffff">
      <title id="title5866">Otero, NM</title>
    </path>
    <path id="c35057" d="m 341.84,371.55 7.8821,0.777 -0.96454,10.004 -0.4261,-0.03 -0.5937,5.994 -0.20146,1.992 -11.483,-1.164 -9.2406,-0.988 0.43324,-4.138 0.19433,-1.881 -0.98058,-0.1 0.19968,-2.026 0.6347,-4.587 0.17165,-1.396 0.97831,0.10204 3.3839,0.394 1.4851,0.135 0.20147,-1.92 -1.7508,-0.184 0.21573,-1.993 9.861,1.006" inkscape:connector-curvature="0" style="stroke:#ffffff">
      <title id="title5869">Torrance, NM</title>
    </path>
    <path id="c35027" d="m 347.74,388.29 7.9142,0.755 -0.58656,5.947 -0.5937,6.075 0.0392,0 0.016,0.06 -0.82012,8.536 -0.93244,7.158 -1.9362,-0.08 -5.9209,-0.531 0.35301,-3.978 -7.7466,-0.77 0.16937,-1.97 -5.1917,-0.522 -6.5556,-0.73 -0.52302,-0.0661 0.22529,-2.0389 0.44215,-4.147 1.9915,0.226 2.0574,0.4 0.16046,0.07 1.8417,0.194 0.43323,-4.036 2.4176,0.267 0.40292,-4.018 0.65788,-5.971 11.483,1.164 0.20146,-1.991" inkscape:connector-curvature="0" style="stroke:#ffffff">
      <title id="title5872">Lincoln, NM</title>
    </path>
    <path id="c35007" d="m 356.6,327.55 2.8044,0.315 4.8708,0.448 13.161,1.1 -1.5422,17.961 -7.8428,-0.692 -7.8749,-0.706 0.1034,-0.99 -8.7182,-0.868 0.28169,-4.475 -0.14619,-2.314 0.041,-1.246 0.24247,-1.678 0.42433,-0.305 0.57943,-0.267 0.64183,-0.241 1.15,-1.084 0.56161,-3.657 0.0731,-1.415 1.1892,0.114" inkscape:connector-curvature="0" style="stroke:#ffffff">
      <title id="title5875">Colfax, NM</title>
    </path>
    <path id="c35033" d="m 351.56,344.12 8.7182,0.868 -0.1034,0.99 7.8749,0.706 1.6257,6.3988 -0.96591,1.6943 -0.28178,2.1048 -7.0816,-0.556 -4.7228,-0.298 -1.8239,-0.995 -4.22,-1.881 -6.8944,-0.715 0.30666,-2.474 3.5176,-0.443 4.0507,-5.4" inkscape:connector-curvature="0" style="stroke:#ffffff">
      <title id="title5878">Mora, NM</title>
    </path>
    <path id="c35059" d="m 394.19,330.66 1.5261,0.113 -0.85043,11.547 -0.75594,0.449 -0.27991,3.705 -0.43502,6.074 -0.54734,7.298 -6.1705,-0.491 0.46711,-5.97 0.21572,-0.409 0.12124,-1.599 -7.8999,-0.62 0.17651,-2.033 -3.9455,-0.346 0.082,-1.003 1.5422,-17.961 16.754,1.246" inkscape:connector-curvature="0" style="stroke:#ffffff">
      <title id="title5881">Union, NM</title>
    </path>
    <path id="c35021" d="m 368.05,346.68 7.8428,0.692 -0.082,1.003 3.9455,0.346 -0.17651,2.033 7.8999,0.62 -0.12124,1.599 -0.21572,0.409 -0.46711,5.97 -0.23356,2.019 -0.47424,5.872 -0.19969,0.168 -4.5891,-0.36 0.066,-0.74 -1.6242,-0.137 -3.9455,-9.145 -0.60654,0.39763 -2.1747,-0.17263 -4.4661,-0.376 0.28178,-2.1048 0.96591,-1.6943 -1.6257,-6.3988" inkscape:connector-curvature="0" style="stroke:#ffffff">
      <title id="title5884">Harding, NM</title>
    </path>
    <path id="c35047" d="m 343.69,352.44 6.8944,0.715 4.22,1.881 1.8239,0.995 4.7228,0.298 7.0816,0.556 4.4661,0.376 2.1747,0.17263 0.60654,-0.39763 3.9455,9.145 1.6242,0.137 -0.066,0.74 -0.27278,3.439 -4.0988,-0.369 0.041,-0.506 -5.2078,2.392 0.13015,-1.697 -21.665,-2.008 -0.3851,4.019 -7.8821,-0.777 1.847,-19.111" inkscape:connector-curvature="0" style="stroke:#ffffff">
      <title id="title5887">San Miguel, NM</title>
    </path>
    <path id="c35037" d="m 386.68,359.36 6.1705,0.491 -0.2086,2.694 -0.76307,10.139 -0.40114,5.286 -3.728,-0.28 -0.23578,2.0508 -2.123,-0.1993 -0.27207,2.0145 -2.0867,-0.16301 -0.2501,1.9853 -4.1696,-0.33734 -0.24439,1.9639 -0.53473,0.004 -3.9455,-0.328 -3.375,-0.289 0.32983,-4.017 0.18364,-2.107 0.4261,-4.09 0.19255,-2.163 5.2078,-2.392 -0.041,0.506 4.0988,0.369 0.27278,-3.439 4.5891,0.36 0.19969,-0.168 0.47424,-5.872 0.23356,-2.019" inkscape:connector-curvature="0" style="stroke:#ffffff">
      <title id="title5890">Quay, NM</title>
    </path>
    <path id="c35019" d="m 371.64,372.01 -0.19255,2.163 -0.4261,4.09 -0.18364,2.107 -3.9384,-0.333 -0.17026,1.9859 -1.9722,-0.15503 -0.1806,2.0041 -8.3724,-0.754 -0.55448,5.928 -7.9142,-0.755 0.5937,-5.994 0.4261,0.03 1.3496,-14.023 21.665,2.008 -0.13015,1.697" inkscape:connector-curvature="0" style="stroke:#ffffff">
      <title id="title5893">Guadalupe, NM</title>
    </path>
    <path id="c35011" d="m 370.84,380.37 -0.32983,4.017 3.375,0.289 -0.57051,6.716 -0.0499,1.239 -0.33697,4.081 -3.9615,-0.353 -0.18542,2.025 -4.1363,-0.371 -7.7484,-0.795 0.18541,-2.025 -2.0164,-0.2 0.58656,-5.947 0.55448,-5.928 8.3724,0.754 0.1806,-2.0041 1.9722,0.15503 0.17026,-1.9859 3.9384,0.333" inkscape:connector-curvature="0" style="stroke:#ffffff">
      <title id="title5896">De Baca, NM</title>
    </path>
    <path id="c35009" d="m 391.47,377.97 -0.35301,4.766 -0.77198,10.021 -0.0161,0.241 -13.106,-1.036 0.60261,-6.953 0.53473,-0.004 0.24439,-1.9639 4.1696,0.33734 0.2501,-1.9853 2.0867,0.16301 0.27207,-2.0145 2.123,0.1993 0.23578,-2.0508 3.728,0.28" inkscape:connector-curvature="0" style="stroke:#ffffff">
      <title id="title5899">Curry, NM</title>
    </path>
    <path id="c35041" d="m 377.83,385 -0.60261,6.953 13.106,1.036 -0.8843,11.009 -0.52951,5.841 -8.704,-0.658 0.16938,-2.002 -3.9615,-0.289 0.33696,-3.755 -2.3694,-0.199 0.50633,-6.044 -1.9701,-0.184 0.33697,-4.081 0.0499,-1.239 0.57051,-6.716 3.9455,0.328" inkscape:connector-curvature="0" style="stroke:#ffffff">
      <title id="title5902">Roosevelt, NM</title>
    </path>
    <path id="c35005" d="m 372.93,396.71 1.9701,0.184 -0.50633,6.044 2.3694,0.199 -0.33696,3.755 3.9615,0.289 -0.16938,2.002 -4.0008,-0.307 -0.36618,3.909 -0.8319,0.028 -0.81121,9.902 -0.92353,-0.07 -19.647,-1.689 -0.96454,10.168 -0.18541,-0.01 -4.9813,-0.472 -0.74703,-0.03 -3.9384,-0.387 1.1054,-10.019 0.53981,0.0591 0.45324,-4.0551 5.9209,0.531 1.9362,0.08 0.93244,-7.158 0.82012,-8.536 -0.016,-0.06 -0.0392,0 0.5937,-6.074 2.0164,0.2 -0.18541,2.025 7.7484,0.795 4.1363,0.371 0.18542,-2.025 3.9615,0.353" inkscape:connector-curvature="0" style="stroke:#ffffff">
      <title id="title5905">Chaves, NM</title>
    </path>
    <path id="c35043" d="m 309.66,340.47 7.062,0.931 6.4522,0.747 -0.27991,2.268 -0.29774,2.74 11.724,1.251 -0.0642,0.644 -0.041,0.159 -0.28882,-0.102 -0.6668,-0.02 -1.6242,0.17 -0.312,0.625 -0.62044,2.363 0.12123,0.224 0.18542,0.1 0.33696,0.02 0.37797,-0.03 0.11232,-0.103 0.56339,0.273 0.74702,0.433 0.27278,0.321 0.26565,0.588 -1.2854,12.446 -2.1216,-0.29 -4.4358,-0.498 -3.0451,-0.353 -3.7048,-0.435 -4.3235,-0.52 -0.5232,-2.0767 -1.3488,-0.15028 1.9362,-15.935 -5.8336,-0.747 0.65966,-5.037 m 24.235,11.667 -0.0392,-0.06 -0.45106,-0.369 0.52951,0.05 -0.0392,0.378" inkscape:connector-curvature="0" style="stroke:#ffffff">
      <title id="title5908">Sandoval, NM</title>
    </path>
    </g>
  </svg>
