<svg xmlns:dc="http://purl.org/dc/elements/1.1/" xmlns:cc="http://creativecommons.org/ns#" xmlns:rdf="http://www.w3.org/1999/02/22-rdf-syntax-ns#" xmlns:svg="http://www.w3.org/2000/svg" xmlns="http://www.w3.org/2000/svg" xmlns:sodipodi="http://sodipodi.sourceforge.net/DTD/sodipodi-0.dtd" xmlns:inkscape="http://www.inkscape.org/namespaces/inkscape" width="255.2731399999999" height="249.1170000000002" version="1.0" id="svg2" inkscape:version="0.91 r13725" sodipodi:docname="USA counties.svg">
  <defs id="defs9439"/>
  <sodipodi:namedview pagecolor="#ffffff" bordercolor="#666666" borderopacity="1" objecttolerance="10" gridtolerance="10" guidetolerance="10" inkscape:pageopacity="0" inkscape:pageshadow="2" inkscape:window-width="798" inkscape:window-height="828" id="namedview9437" showgrid="false" showguides="true" inkscape:zoom="0.64950808" inkscape:cx="494.98999" inkscape:cy="313.535" inkscape:window-x="-7" inkscape:window-y="0" inkscape:window-maximized="0" inkscape:current-layer="svg2"/>
  <metadata id="metadata4">
    <rdf:RDF>
      <cc:Work>
        <dc:format>image/svg+xml</dc:format>
        <dc:type rdf:resource="http://purl.org/dc/dcmitype/StillImage"/>
        <dc:title/>
        <cc:license rdf:resource="http://creativecommons.org/publicdomain/zero/1.0/"/>
        <dc:date>2019-10-06</dc:date>
        <dc:creator>
          <cc:Agent>
            <dc:title>U.S. Census Bureau, Abe.suleiman, Lokal_Profil</dc:title>
          </cc:Agent>
        </dc:creator>
        <dc:source>https://commons.wikimedia.org/wiki/File:Usa_counties_large.svg</dc:source>
      </cc:Work>
      <cc:License rdf:about="http://creativecommons.org/publicdomain/zero/1.0/">
        <cc:permits rdf:resource="http://creativecommons.org/ns#Reproduction"/>
        <cc:permits rdf:resource="http://creativecommons.org/ns#Distribution"/>
        <cc:permits rdf:resource="http://creativecommons.org/ns#DerivativeWorks"/>
      </cc:License>
    </rdf:RDF>
  </metadata>
  <style id="style6">
  /*
   * Below are Cascading Style Sheet (CSS) definitions in use in this file,
   * which allow easily changing how counties are displayed.
   *
   *
   * For the U.S. Census county codes (FIPS codes) used in this file to identify individual counties, see this link:
   * https://www2.census.gov/geo/docs/reference/codes/files/national_county.txt
   *
   * The county codes used in this file combine the 2-digit state code, which is in the second column of the file
   * linked above, and the 3-digit county code, which is in the third column of the file linked above. Each value
   * for the "id" attribute for each county is in the following form: "c[state_code][county-code]". For example,
   * for Loving Country in Texas, the state code is "48" and the county code is "301", so the id name for the
   * county is "c48301".
   *
   * County codes used in this file can also be found on Wikimedia Commons at this link:
   * https://commons.wikimedia.org/wiki/File_talk:Usa_counties_large.svg/county_codes
   *
   * Examples:
   *
   * To color two counties red (in this case Loving County and Dallas County in Texas) simply
   * go to the CSS insertion point and add:
   *
   * #c48301, #c48113 {fill:red}
   *
   * To color an entire state's counties (in the case New Mexico, with "35" being the state code) a green,
   * go to the CSS insertion point and add:
   *
   * path[id*='c35'] {fill:#34A853}
   *
   */
  #counties {fill:#d0d0d0;stroke:#000;stroke-width:.17829;} 
  #borders {fill:none;stroke:#221e1f;stroke-width:.89143;} 
  #separator {fill:none;stroke:#a9a9a9;stroke-width:2.3177309;}
 </style>
  <g id="counties" transform="translate(-316.13457000000005,-342.322)" style="fill:#d0d0d0;stroke:#ffffff;stroke-width:0.17828999">
    <path id="c48037" d="m 552.1,413.05 0.15154,0.394 0.1462,0.335 0.12658,0.17 0.7809,0.499 0.27991,0.184 1.0287,0.561 1.8488,-0.938 0.0963,-0.09 0.27991,-0.03 1.0697,-0.155 1.8488,0.371 0.353,0.144 0.4582,0.378 0.13728,6.493 -0.16224,-0.362 -0.40114,-0.206 -1.7276,-0.277 -0.47425,0.107 -0.60083,0.209 -0.30665,0.545 0.0553,0.482 0.066,0.208 -0.041,0.07 -2.9223,-0.0387 -0.59562,-0.75683 -1.533,0.12426 -0.84357,0.46894 -1.3137,0.16235 -0.64362,-0.126 -0.16046,-0.129 -0.0481,-0.221 -1.831,-1.363 -0.0963,-8.638 4.9742,1.431" inkscape:connector-curvature="0" style="stroke:#ffffff">
      <title id="title7585">Bowie, TX</title>
    </path>
    <path id="c48387" d="m 539.28,406.14 2.2268,1.904 3.2626,2.612 2.3623,0.965 0.0963,8.638 -1.1999,-0.788 -6.0582,-0.528 -2.1529,0.55729 -1.3023,-0.26829 -0.0392,-0.06 -0.11945,-11.337 0.28169,-0.03 0.14976,-0.02 0.50634,-0.329 0.10697,-0.104 0.10341,-0.233 0.0321,-0.232 -0.0321,-0.2 0,-0.03 -0.0731,-0.153 -0.007,-0.02 0.007,-0.02 0,-0.04 0.009,-0.03 0.40828,-0.619 0.0267,0 0.0642,-0.03 0.13549,0 1.2052,0.403" inkscape:connector-curvature="0" style="stroke:#ffffff">
      <title id="title7588">Red River, TX</title>
    </path>
    <path id="c48107" d="m 417.6,405.74 9.9163,0.485 -0.49029,10.066 -9.8914,-0.497 0.46533,-10.054" inkscape:connector-curvature="0" style="stroke:#ffffff">
      <title id="title7591">Crosby, TX</title>
    </path>
    <path id="c48303" d="m 407.68,405.26 9.9163,0.472 -0.46533,10.054 -9.9074,-0.483 0.45642,-10.043" inkscape:connector-curvature="0" style="stroke:#ffffff">
      <title id="title7594">Lubbock, TX</title>
    </path>
    <path id="c48219" d="m 397.64,404.58 10.045,0.683 -0.45642,10.043 -9.8914,-0.633 0.30309,-10.093" inkscape:connector-curvature="0" style="stroke:#ffffff">
      <title id="title7597">Hockley, TX</title>
    </path>
    <path id="c48079" d="m 389.45,404 8.1869,0.578 -0.30309,10.093 -8.8074,-0.635 0.39402,-4.195 0.52951,-5.841" inkscape:connector-curvature="0" style="stroke:#ffffff">
      <title id="title7600">Cochran, TX</title>
    </path>
    <path id="c48153" d="m 419.98,394.72 8.1067,0.443 -0.57765,11.057 -9.9163,-0.485 0.62757,-11.12 1.7597,0.105" inkscape:connector-curvature="0" style="stroke:#ffffff">
      <title id="title7603">Floyd, TX</title>
    </path>
    <path id="c48189" d="m 408.32,393.99 1.7436,0.112 8.1638,0.515 -0.62757,11.12 -9.9163,-0.472 0.63648,-11.275" inkscape:connector-curvature="0" style="stroke:#ffffff">
      <title id="title7606">Hale, TX</title>
    </path>
    <path id="c48279" d="m 398.43,393.33 1.6866,0.123 8.1976,0.537 -0.63648,11.275 -10.045,-0.683 0.79694,-11.252" inkscape:connector-curvature="0" style="stroke:#ffffff">
      <title id="title7609">Lamb, TX</title>
    </path>
    <path id="c48017" d="m 398.43,393.33 -0.79694,11.252 -8.1869,-0.578 0.8843,-11.009 0.0161,-0.241 8.0835,0.576" inkscape:connector-curvature="0" style="stroke:#ffffff">
      <title id="title7612">Bailey, TX</title>
    </path>
    <path id="c48045" d="m 420.56,384.68 7.144,0.376 2.7331,0.146 -0.54734,10.052 -1.8007,-0.09 -8.1067,-0.443 0.57765,-10.044" inkscape:connector-curvature="0" style="stroke:#ffffff">
      <title id="title7615">Briscoe, TX</title>
    </path>
    <path id="c48437" d="m 410.69,384.06 6.9193,0.443 2.956,0.178 -0.57765,10.044 -1.7597,-0.105 -8.1638,-0.515 0.62578,-10.045" inkscape:connector-curvature="0" style="stroke:#ffffff">
      <title id="title7618">Swisher, TX</title>
    </path>
    <path id="c48069" d="m 407.49,383.87 3.1967,0.183 -0.62578,10.045 -1.7436,-0.112 -8.1976,-0.537 0.69176,-10.014 6.6786,0.435" inkscape:connector-curvature="0" style="stroke:#ffffff">
      <title id="title7621">Castro, TX</title>
    </path>
    <path id="c48369" d="m 391.12,382.73 9.6899,0.706 -0.69176,10.014 -1.6866,-0.123 -8.0835,-0.576 0.77198,-10.021" inkscape:connector-curvature="0" style="stroke:#ffffff">
      <title id="title7624">Parmer, TX</title>
    </path>
    <path id="c48011" d="m 418.32,374.45 10.004,0.587 -0.61866,10.018 -7.144,-0.376 -2.956,-0.178 0.71493,-10.051" inkscape:connector-curvature="0" style="stroke:#ffffff">
      <title id="title7627">Armstrong, TX</title>
    </path>
    <path id="c48381" d="m 408.17,373.81 10.148,0.636 -0.71493,10.051 -6.9193,-0.443 -3.1967,-0.183 0.68284,-10.061" inkscape:connector-curvature="0" style="stroke:#ffffff">
      <title id="title7630">Randall, TX</title>
    </path>
    <path id="c48117" d="m 391.12,382.73 0.35301,-4.766 0.40114,-5.286 3.81,0.266 3.9598,0.199 8.5275,0.667 -0.68284,10.061 -6.6786,-0.435 -9.6899,-0.706" inkscape:connector-curvature="0" style="stroke:#ffffff">
      <title id="title7633">Deaf Smith, TX</title>
    </path>
    <path id="c48065" d="m 418.92,364.35 0,-0.09 9.9556,0.53 -0.009,0.144 -0.54556,10.102 -10.004,-0.587 0.60261,-10.101" inkscape:connector-curvature="0" style="stroke:#ffffff">
      <title id="title7636">Carson, TX</title>
    </path>
    <path id="c48375" d="m 408.91,363.73 10.013,0.619 -0.60261,10.101 -10.148,-0.636 0.73811,-10.084" inkscape:connector-curvature="0" style="stroke:#ffffff">
      <title id="title7639">Potter, TX</title>
    </path>
    <path id="c48359" d="m 408.93,363.56 -0.016,0.169 -0.73811,10.084 -8.5275,-0.667 -3.9598,-0.199 -3.81,-0.266 0.76307,-10.139 16.288,1.018" inkscape:connector-curvature="0" style="stroke:#ffffff">
      <title id="title7642">Oldham, TX</title>
    </path>
    <path id="c48233" d="m 419.5,354.29 9.9163,0.562 -0.53843,9.941 -9.9556,-0.53 0.57765,-9.973" inkscape:connector-curvature="0" style="stroke:#ffffff">
      <title id="title7645">Hutchinson, TX</title>
    </path>
    <path id="c48341" d="m 409.56,353.67 9.9395,0.612 -0.57765,9.973 0,0.09 -10.013,-0.619 0.016,-0.169 0.6347,-9.885" inkscape:connector-curvature="0" style="stroke:#ffffff">
      <title id="title7648">Moore, TX</title>
    </path>
    <path id="c48205" d="m 393.39,352.55 16.167,1.125 -0.6347,9.885 -16.288,-1.018 0.2086,-2.694 0.54734,-7.298" inkscape:connector-curvature="0" style="stroke:#ffffff">
      <title id="title7651">Hartley, TX</title>
    </path>
    <path id="c48195" d="m 429.97,344.58 -0.55447,10.212 0,0.06 -9.9163,-0.562 0.60261,-10.269 9.8682,0.563" inkscape:connector-curvature="0" style="stroke:#ffffff">
      <title id="title7654">Hansford, TX</title>
    </path>
    <path id="c48421" d="m 412.62,343.54 7.4791,0.473 -0.60261,10.269 -9.9395,-0.612 0.67571,-10.285 2.3873,0.155" inkscape:connector-curvature="0" style="stroke:#ffffff">
      <title id="title7657">Sherman, TX</title>
    </path>
    <path id="c48111" d="m 410.24,343.39 -0.67571,10.285 -16.167,-1.125 0.43502,-6.074 0.27991,-3.705 0.75594,-0.449 15.372,1.068" inkscape:connector-curvature="0" style="stroke:#ffffff">
      <title id="title7660">Dallam, TX</title>
    </path>
    <path id="c48229" d="m 350.07,442.93 -0.29596,3.237 -0.49207,6.253 -1.3086,15.17 -0.19255,1.357 -0.18542,0.669 -0.3851,3.943 -0.77414,0.49924 -0.12123,0.103 -0.42074,-1.5297 -1.2855,-0.41309 -0.88438,-1.2877 -2.1376,-1.713 -0.83457,0.18026 -2.2998,-1.5331 0.34243,-0.61246 -3.3781,-2.8035 -0.30632,-1.7876 -1.0458,-1.1341 -1.1644,-0.64649 -0.18282,-0.56326 -0.96258,-0.39418 -0.34366,-0.91367 -1.307,-1.9321 -0.85296,-0.61038 -0.56131,-1.2011 -0.9894,-0.36716 0.93066,-0.754 0.041,-1.5285 -0.61698,-0.11386 1.1304,-11.708 20.885,2.131" inkscape:connector-curvature="0" style="stroke:#ffffff">
      <title id="title7663">Hudspeth, TX</title>
    </path>
    <path id="c48141" d="m 329.19,440.8 -1.1304,11.708 0.61698,0.11386 -0.041,1.5285 -0.93066,0.754 -0.5238,-0.31807 -1.1511,-0.24877 -0.65622,-0.61038 -0.4185,-0.0827 -0.8036,-0.73508 -0.25674,-0.208 -0.007,-0.02 -0.0731,-0.08 -0.025,-0.03 -0.15867,-0.257 -0.52416,-1.632 -0.69457,-0.49271 -0.0917,-0.7355 -0.36426,-1.0026 -0.46478,-1.5302 -0.64608,-0.36438 0.12338,-0.43531 -0.5292,-0.47231 -1.6914,-0.13568 -0.37313,-0.82532 -1.5101,-1.615 -0.18542,-0.249 -0.43546,-0.46799 -0.003,-0.29066 -0.10674,-0.45615 0.43812,-0.28139 0.21057,-1.2122 -0.3169,-0.12626 0.0378,-0.32313 0.32589,-0.14926 0.007,0 0.79852,0.0621 4.2272,0.447 7.3276,0.772" inkscape:connector-curvature="0" style="stroke:#ffffff">
      <title id="title7666">El Paso, TX</title>
    </path>
    <path id="c48305" d="m 417.13,415.79 -0.59548,9.996 -2.562,-0.167 -7.3846,-0.412 0.6347,-9.9 9.9074,0.483" inkscape:connector-curvature="0" style="stroke:#ffffff">
      <title id="title7669">Lynn, TX</title>
    </path>
    <path id="c48445" d="m 397.33,414.67 9.8914,0.633 -0.6347,9.9 -2.5388,-0.145 -7.4096,-0.497 0.69175,-9.891" inkscape:connector-curvature="0" style="stroke:#ffffff">
      <title id="title7672">Terry, TX</title>
    </path>
    <path id="c48501" d="m 397.33,414.67 -0.69175,9.891 -8.9999,-0.658 0.8843,-9.868 8.8074,0.635" inkscape:connector-curvature="0" style="stroke:#ffffff">
      <title id="title7675">Yoakum, TX</title>
    </path>
    <path id="c48115" d="m 406.59,425.21 7.3846,0.412 -0.55448,10.051 -9.9181,-0.57 0.54912,-10.038 2.5388,0.145" inkscape:connector-curvature="0" style="stroke:#ffffff">
      <title id="title7678">Dawson, TX</title>
    </path>
    <path id="c48165" d="m 387.64,423.91 8.9999,0.658 7.4096,0.497 -0.54912,10.038 -0.15868,0 -16.449,-1.134 0.74702,-10.05" inkscape:connector-curvature="0" style="stroke:#ffffff">
      <title id="title7681">Gaines, TX</title>
    </path>
    <path id="c48317" d="m 403.34,435.09 0.15868,0 9.9181,0.571 -0.72384,10.069 -1.5761,-0.08 -8.4365,-0.533 0.65966,-10.036" inkscape:connector-curvature="0" style="stroke:#ffffff">
      <title id="title7684">Martin, TX</title>
    </path>
    <path id="c48003" d="m 386.89,433.96 16.449,1.134 -0.65966,10.036 -1.462,-0.1 -9.9324,-0.659 -5.1347,-0.408 0.7399,-10.006" inkscape:connector-curvature="0" style="stroke:#ffffff">
      <title id="title7687">Andrews, TX</title>
    </path>
    <path id="c48329" d="m 401.22,445.03 1.462,0.1 8.4365,0.533 -0.60083,10.011 -9.9734,-0.633 0.67571,-10.007" inkscape:connector-curvature="0" style="stroke:#ffffff">
      <title id="title7690">Midland, TX</title>
    </path>
    <path id="c48135" d="m 401.22,445.03 -0.67571,10.007 -0.60261,-0.03 -8.7503,-0.621 -0.61865,-0.04 0.71493,-9.975 9.9324,0.66" inkscape:connector-curvature="0" style="stroke:#ffffff">
      <title id="title7693">Ector, TX</title>
    </path>
    <path id="c48103" d="m 391.19,454.38 8.7503,0.621 -0.52951,12.992 -1.7205,-0.136 -0.61866,-2.41 -0.1765,-0.444 -0.0553,-0.1 -0.25138,-0.24 -0.94671,-0.821 -0.25673,-0.201 -2.4104,-1.382 -0.2496,0 -2.1216,0.328 0.58656,-8.22" inkscape:connector-curvature="0" style="stroke:#ffffff">
      <title id="title7696">Crane, TX</title>
    </path>
    <path id="c48377" d="m 368.73,481.25 -0.16046,2.498 -0.56338,6.935 -0.8433,11.508 -0.43502,5.352 -3.35,-1.094 -3.5659,-2.9929 -0.47453,-1.766 -1.0391,-0.87751 -1.7748,-0.62047 -1.136,-1.0885 -1.9733,-1.8169 -0.39491,-2.0088 -2.2525,-4.3918 -0.25632,-2.8214 0.55476,-1.205 -0.18294,-3.0108 -0.92218,-1.407 -1.1065,-2.0668 -0.55503,-0.6808 -0.20393,-2.2334 -0.73463,-2.6406 -1.0448,-0.667 0.12123,-0.103 20.309,7.0298 1.9843,0.163" inkscape:connector-curvature="0" style="stroke:#ffffff">
      <title id="title7699">Presidio, TX</title>
    </path>
    <path id="c48109" d="m 351.44,443.05 15.95,1.43 -3.2626,20.394 -16.914,8.677 0.3851,-3.943 0.18542,-0.669 0.19255,-1.357 1.3086,-15.17 0.49207,-6.253 0.29596,-3.237 1.3675,0.128" inkscape:connector-curvature="0" style="stroke:#ffffff">
      <title id="title7702">Culberson, TX</title>
    </path>
    <path id="c48475" d="m 390.57,454.35 0.61865,0.04 -0.58656,8.221 -1.3978,0.09 -0.83617,-0.836 -0.55447,-0.492 -0.61865,-0.371 -1.2302,-0.513 -0.94683,-0.3856 -0.20312,0.4456 -0.72207,-0.02 -0.46533,-0.05 -0.99662,-0.224 -1.7516,-1.3508 -3.6327,-0.43215 -0.24782,-0.259 -0.22642,-0.403 -0.19255,-1.155 0.0481,-1.376 0.11232,-0.788 -0.11946,-0.487 -0.32269,-0.517 -1.5351,-0.342 5.5144,0.44 10.293,0.765" inkscape:connector-curvature="0" style="stroke:#ffffff">
      <title id="title7705">Ward, TX</title>
    </path>
    <path id="c48495" d="m 386.15,443.96 5.1347,0.408 -0.71493,9.975 -10.293,-0.765 0.64183,-8.012 1.141,0.09 1.0038,0.07 1.3675,0.106 1.0911,0.09 0.47603,0.03 0.15154,-1.993" inkscape:connector-curvature="0" style="stroke:#ffffff">
      <title id="title7708">Winkler, TX</title>
    </path>
    <path id="c48301" d="m 368.25,444.56 4.9813,0.408 7.6913,0.603 -0.64183,8.012 -5.5144,-0.44 -0.41719,-0.917 0.14106,-0.42939 -1.1056,-0.96961 -0.19255,-0.04 -0.3851,0.08 -0.0161,0.05 -0.0481,0.04 -0.17829,0 -0.42432,-0.1 -0.15333,-0.202 -0.82482,-0.87348 -0.35468,-2.519 -0.94236,0.18434 -0.47222,-0.52088 -1.1428,-2.377" inkscape:connector-curvature="0" style="stroke:#ffffff">
      <title id="title7711">Loving, TX</title>
    </path>
    <path id="c48389" d="m 367.39,444.48 0.85934,0.07 1.1428,2.377 0.47222,0.52088 0.94236,-0.18434 0.35468,2.519 0.82482,0.87348 0.15333,0.202 0.42432,0.1 0.17829,0 0.0481,-0.04 0.0161,-0.05 0.3851,-0.08 0.19255,0.04 1.1056,0.96961 -0.14106,0.42939 0.41719,0.917 1.5351,0.342 0.32269,0.517 0.11946,0.487 -0.11232,0.788 -0.0481,1.376 0.19255,1.155 0.22642,0.403 0.24782,0.259 3.6327,0.43215 1.7516,1.3508 0.99662,0.224 0.46533,0.05 0.72207,0.02 0.20312,-0.4456 0.94683,0.3856 -12.325,13.002 -9.5152,-8.606 3.2626,-20.394" inkscape:connector-curvature="0" style="stroke:#ffffff">
      <title id="title7714">Reeves, TX</title>
    </path>
    <path id="c48243" d="m 373.64,473.48 2.6743,2.532 -7.5843,5.231 -1.9843,-0.163 -20.309,-7.0298 0.77414,-0.49924 16.914,-8.677 9.5152,8.606" inkscape:connector-curvature="0" style="stroke:#ffffff">
      <title id="title7717">Jeff Davis, TX</title>
    </path>
    <path id="c48043" d="m 376.32,476.02 16.24,15.324 4.7264,4.394 -1.0287,0.66 -0.87762,1.4838 -1.6974,-0.64365 -3.5812,1.1758 -0.46533,0.282 -0.0481,0.03 -2.701,4.404 -1.6224,3.76 -0.77178,2.5422 -0.90938,1.1383 -1.1609,0.15962 -0.72455,1.5185 -1.4786,0.78146 -0.38729,1.9189 -0.85221,0.226 -0.14441,0 -2.3463,-0.587 -1.1159,-1.3879 -0.86134,0.44891 -2.7018,-3.418 -3.663,-0.76097 -0.18364,-0.193 -0.80407,-0.827 -0.42611,-0.907 0.43502,-5.353 0.8433,-11.508 0.56338,-6.935 0.16046,-2.498 7.5843,-5.231" inkscape:connector-curvature="0" style="stroke:#ffffff">
      <title id="title7720">Brewster, TX</title>
    </path>
    <path id="c48443" d="m 408.96,486.99 -0.76306,11.706 -0.35301,-0.105 -0.1462,-0.05 -1.9202,-0.443 -1.2124,-0.192 -1.9291,0.135 -0.19255,0.104 -1.3104,-0.255 -3.8474,-2.156 -4.7264,-4.394 0.37084,-5.288 4.4358,0.281 0.48138,-7.21 3.9895,0.0981 0.14852,-1.1411 7.2794,0.514 0.28883,-0.03 1.0858,0.224 0.78803,0.635 0.12836,1.453 -0.63616,0.85152 -0.37266,0.99199 -0.74438,0.0627 -0.28067,1.0082 1.0204,1.6587 -1.117,0.68293 -0.46533,0.854" inkscape:connector-curvature="0" style="stroke:#ffffff">
      <title id="title7723">Terrell, TX</title>
    </path>
    <path id="c48371" d="m 390.61,462.6 2.1216,-0.328 0.2496,0 2.4104,1.382 0.25673,0.201 0.94671,0.821 0.25138,0.24 0.0553,0.1 0.1765,0.444 0.61866,2.41 2.6761,1.214 3.8724,1.205 1.2551,0.393 1.9932,1.665 0.7888,3.4371 0.88175,2.2289 0.1034,0.592 -7.2794,-0.514 -0.14852,1.1401 -3.9895,-0.0971 -0.48138,7.21 -4.4358,-0.282 -0.37084,5.288 -16.24,-15.323 -2.6743,-2.532 12.325,-13.002 1.2302,0.513 0.61865,0.371 0.55447,0.492 0.83617,0.836 1.3978,-0.09" inkscape:connector-curvature="0" style="stroke:#ffffff">
      <title id="title7726">Pecos, TX</title>
    </path>
    <path id="c48461" d="m 399.94,455 0.60261,0.03 9.9734,0.633 -0.81298,13.129 -10.293,-0.804 0.52951,-12.992" inkscape:connector-curvature="0" style="stroke:#ffffff">
      <title id="title7729">Upton, TX</title>
    </path>
    <path id="c48383" d="m 410.52,455.67 9.9145,0.593 -0.12836,2.17 -0.0392,0.635 -0.70779,10.319 -9.8521,-0.588 0.81298,-13.129" inkscape:connector-curvature="0" style="stroke:#ffffff">
      <title id="title7732">Reagan, TX</title>
    </path>
    <path id="c48173" d="m 412.7,445.74 8.3492,0.489 -0.61153,10.035 -9.9145,-0.593 0.60083,-10.011 1.5761,0.08" inkscape:connector-curvature="0" style="stroke:#ffffff">
      <title id="title7735">Glasscock, TX</title>
    </path>
    <path id="c48227" d="m 423.33,436.27 -0.73097,10.05 -1.5582,-0.09 -8.3492,-0.489 0.72384,-10.07 9.9145,0.596" inkscape:connector-curvature="0" style="stroke:#ffffff">
      <title id="title7738">Howard, TX</title>
    </path>
    <path id="c48033" d="m 416.54,425.79 7.3775,0.362 -0.57052,10.036 -0.009,0.08 -9.9145,-0.596 0.55448,-10.051 2.562,0.167" inkscape:connector-curvature="0" style="stroke:#ffffff">
      <title id="title7741">Borden, TX</title>
    </path>
    <path id="c48169" d="m 427.02,416.29 -0.52238,9.845 -2.5869,0.02 -7.3775,-0.362 0.59548,-9.996 9.8914,0.497" inkscape:connector-curvature="0" style="stroke:#ffffff">
      <title id="title7744">Garza, TX</title>
    </path>
    <path id="c48415" d="m 426.5,426.13 7.3365,0.531 -0.58656,10.093 -9.9074,-0.572 0.57052,-10.036 2.5869,-0.02" inkscape:connector-curvature="0" style="stroke:#ffffff">
      <title id="title7747">Scurry, TX</title>
    </path>
    <path id="c48335" d="m 423.34,436.18 9.9074,0.572 -0.58657,10.123 -3.0291,-0.185 -7.0316,-0.378 0.73097,-10.05 0.009,-0.08" inkscape:connector-curvature="0" style="stroke:#ffffff">
      <title id="title7750">Mitchell, TX</title>
    </path>
    <path id="c48431" d="m 421.04,446.23 1.5582,0.09 7.0316,0.378 -0.5313,8.984 -0.68106,-0.248 -0.25138,3.286 -7.866,-0.282 0.12836,-2.17 0.61153,-10.035" inkscape:connector-curvature="0" style="stroke:#ffffff">
      <title id="title7753">Sterling, TX</title>
    </path>
    <path id="c48235" d="m 420.27,459.07 5.4074,0.314 5.8175,0.386 -0.41719,10.052 -5.3771,-0.176 -6.1384,-0.257 0.70779,-10.319" inkscape:connector-curvature="0" style="stroke:#ffffff">
      <title id="title7756">Irion, TX</title>
    </path>
    <path id="c48105" d="m 397.69,467.86 1.7205,0.136 10.293,0.804 9.8521,0.588 6.1384,0.257 -0.41719,8.647 -0.49743,9.593 -15.823,-0.898 0.46533,-0.854 1.117,-0.68293 -1.0204,-1.6587 0.28067,-1.0082 0.74438,-0.0627 0.37266,-0.99199 0.63616,-0.85152 -0.12836,-1.453 -0.78803,-0.635 -1.0858,-0.224 -0.28883,0.03 -0.1034,-0.592 -0.88174,-2.2289 -0.78881,-3.4371 -1.9932,-1.665 -1.2551,-0.392 -3.8724,-1.206 -2.6761,-1.214" inkscape:connector-curvature="0" style="stroke:#ffffff">
      <title id="title7759">Crockett, TX</title>
    </path>
    <path id="c48465" d="m 408.96,486.99 15.823,0.898 5.1578,0.248 -0.74703,15.229 -0.20146,4.21 -0.22464,1.72 -0.11232,0.555 -0.80229,1.895 -0.25852,0.378 -0.0802,0.02 -0.61865,-0.112 -4.7104,-4.22 -0.31132,-1.3636 -1.5647,-0.656 -0.39829,-0.66028 -1.2678,-0.53407 0.15349,-1.8304 -1.18,-0.38361 -0.12986,-0.60436 -1.3409,-0.60295 -0.85325,-1.6177 -0.99663,-0.344 0.16325,-0.6561 -1.2373,0.19073 -0.48349,-1.0743 -1.4002,1.3557 -0.45641,-0.02 -2.685,-0.298 0.76306,-11.706" inkscape:connector-curvature="0" style="stroke:#ffffff">
      <title id="title7762">Val Verde, TX</title>
    </path>
    <path id="c48505" d="m 452.16,558.33 1.7597,-1.18 0.72385,1.076 7.7947,0.346 -0.32983,11.008 -1.3118,2.74 -3.3575,2.018 -0.30487,-1.223 -0.36905,-1.494 0,-0.02 -0.61866,-2.275 -0.49742,-1.262 -1.0537,-1.487 -1.1571,-0.674 0.43391,-0.91779 -0.88255,-1.1255 -0.87782,-0.0228 -0.0802,-0.908 0.025,-0.09 0.0963,-0.08 0.36192,-0.532 0.14442,-1.863 -0.25674,-1.688 -0.20859,-0.332 -0.0339,0" inkscape:connector-curvature="0" style="stroke:#ffffff">
      <title id="title7765">Zapata, TX</title>
    </path>
    <path id="c48247" d="m 465.71,556.74 3.3994,0.01 0.004,0.32151 0.70319,0.0333 0.03,-0.34915 0.83995,0.0402 -10e-4,0.33617 0.6842,0.009 -0.0668,1.7808 0.60974,0.699 -0.12842,1.9721 0.72968,0.0924 -0.0263,2.0129 0.87269,0.0516 -0.25852,6.191 -11,-0.364 0.32983,-11.008 3.2019,0.14252 0.0768,-1.9745" inkscape:connector-curvature="0" style="stroke:#ffffff">
      <title id="title7768">Jim Hogg, TX</title>
    </path>
    <path id="c48427" d="m 462.11,569.58 11,0.364 2.1056,0.06 -1.6616,3.542 -1.9469,3.76 -2.2161,4.5 -0.97345,0.138 -1.494,-0.66 -2.0307,-2.0426 -2.355,-0.69643 -2.637,-0.41897 -1.182,-0.763 0.24952,-1.4565 -1.226,-0.77229 -0.22877,-0.52219 -0.041,-0.158 -0.0321,-0.12 3.3575,-2.018 1.3118,-2.74" inkscape:connector-curvature="0" style="stroke:#ffffff">
      <title id="title7771">Starr, TX</title>
    </path>
    <path id="c48489" d="m 495.9,574.56 0.6347,0.02 1.2765,4.306 -0.35301,0 -1.5582,-4.322 m -13.252,-0.483 1.6539,0.36544 9.0415,0.0676 -0.25305,2.1 -1.1908,0.15018 0.66888,2.0329 1.4727,0.80672 -0.8112,1.007 -1.7746,0.73318 -6.9425,-1.23 0.0321,-1.687 -0.95562,-0.306 -1.9843,-0.352 0.1765,-0.98 0.27278,-1.013 0.5937,-1.695" inkscape:connector-curvature="0" style="stroke:#ffffff">
      <title id="title7774">Willacy, TX</title>
    </path>
    <path id="c48215" d="m 475.21,570.01 6.9425,0.199 -0.12365,3.7799 0.62107,0.0861 -0.5937,1.695 -0.27278,1.013 -0.1765,0.98 1.9843,0.352 0.95562,0.306 -0.0321,1.687 -0.12837,6.518 -0.14441,-0.03 -0.41006,-0.06 -1.872,0.02 -0.62579,0.01 -0.0802,0.103 -0.68462,0.273 -2.5798,-0.497 -1.5172,-0.298 -0.47425,-0.257 -0.29774,-0.2 -2.209,-1.504 -1.0537,-1.259 -0.5616,-0.267 -0.0481,-0.02 -2.4283,-0.827 -0.0143,0 2.2161,-4.5 1.9469,-3.76 1.6616,-3.542" inkscape:connector-curvature="0" style="stroke:#ffffff">
      <title id="title7777">Hidalgo, TX</title>
    </path>
    <path id="c48047" d="m 471.31,558.93 5.994,0.209 3.5836,0.114 1.4869,0.0544 -0.025,1.1576 -0.19255,9.747 -6.9425,-0.199 -2.1056,-0.06 0.25852,-6.19 -0.87269,-0.0516 0.0263,-2.0129 -0.72968,-0.0924 0.12842,-1.9721 -0.60974,-0.699" inkscape:connector-curvature="0" style="stroke:#ffffff">
      <title id="title7780">Brooks, TX</title>
    </path>
    <path id="c48261" d="m 494.99,559.12 0.53129,0 -0.0642,0.219 -0.29061,1.318 -0.16759,1.117 -0.14441,1.364 -0.0642,1.206 0,1.262 0.12836,1.897 0.0963,0.779 0.016,0.08 0.24961,1.448 0.36192,1.638 0.6347,2.313 0.0642,0.18 0.19255,0.629 -0.6347,-0.02 -1.3586,-5.033 0,-2.85 0.0161,-2.422 0.009,-0.955 0.0321,-1.421 0.0874,-1.093 0.0981,-0.555 0.20682,-1.107 m -12.648,1.341 0.57099,-0.21143 0.1382,-0.54237 1.7421,0.0177 1.2584,-0.61875 1.2656,-0.1838 0.60372,0.37629 1.622,-0.28563 -0.0481,0.179 0.007,0.401 0.082,0.144 0.12658,0.1 1.7686,0.337 0.46533,-0.04 0.21751,-0.09 0.13728,-0.1 0.0642,-0.104 0.312,-0.144 0.71493,-0.259 0.54734,-0.02 0.0339,0.144 -0.49207,3.213 -1.479,0.28257 0.60358,2.3454 -1.9005,0.0209 0.48349,2.4932 -0.12197,1.9609 1.7155,1.029 0.50634,2.86 0.0553,0.739 -9.0415,-0.0676 -1.6539,-0.36544 -0.62107,-0.0856 0.12365,-3.7794 0.19255,-9.747" inkscape:connector-curvature="0" style="stroke:#ffffff">
      <title id="title7783">Kenedy, TX</title>
    </path>
    <path id="c48273" d="m 494.99,559.12 2.669,-6.889 0.5313,0.13 -2.669,6.764 -0.53129,0 m -11.546,-8.367 1.2956,0.19909 0.76901,1.6019 0.1765,0 10.382,0.121 -1.0358,3.623 -0.61865,1.487 -0.0642,0.13 -0.16937,0.192 -0.14441,0.09 -1.831,0.938 -2.66,-0.128 -1.622,0.28563 -0.60372,-0.37629 -1.2656,0.1838 -1.2584,0.61875 -1.7421,-0.0177 -0.1382,0.54237 -0.57099,0.21143 0.025,-1.1581 -1.4869,-0.0549 0.15332,-8.543 2.4104,0.05" inkscape:connector-curvature="0" style="stroke:#ffffff">
      <title id="title7786">Kleberg, TX</title>
    </path>
    <path id="c48249" d="m 477.66,540.99 7.1832,0.176 1.8281,0.29173 -0.12366,1.1383 -2.8294,2.468 -0.0321,2.474 -0.24069,3.215 -2.4104,-0.05 -0.15332,8.543 -3.5836,-0.114 0.36192,-18.144" inkscape:connector-curvature="0" style="stroke:#ffffff">
      <title id="title7789">Jim Wells, TX</title>
    </path>
    <path id="c48355" d="m 501.87,546.46 -3.6798,5.907 -0.5313,-0.13 4.106,-6.067 0.10519,0.29 m -18.426,4.299 0.24069,-3.215 0.0321,-2.474 2.8294,-2.468 -0.22465,0.54 0.20682,0.835 2.2968,0.37956 0.40425,1.0284 0.52951,0.248 1.0537,0.232 1.462,0.121 0.1765,-0.596 3.2876,-0.07 1.4138,0.07 -0.36906,0.07 -1.3425,0.61 -0.38688,0.282 -0.271,0.545 -0.041,0.708 0.14441,0.371 0.35301,0.578 0.43502,0.378 0.61866,0.296 1.0198,0.795 -0.64362,1.464 -0.60261,1.205 -10.382,-0.121 -0.1765,0 -0.76901,-1.6019 -1.2956,-0.19909" inkscape:connector-curvature="0" style="stroke:#ffffff">
      <title id="title7792">Nueces, TX</title>
    </path>
    <path id="c48409" d="m 486.23,538.46 5.1449,1.0718 0.48893,-0.6988 1.792,0.0421 1.0517,1.018 1.9603,-0.22716 0.88341,1.2872 2.5174,3.995 -1.4095,1.1717 -1.5002,-0.73168 -1.4138,-0.07 -3.2876,0.07 -0.1765,0.596 -1.462,-0.121 -1.0537,-0.232 -0.52951,-0.248 -0.40425,-1.0284 -2.2968,-0.37956 -0.20682,-0.835 0.22465,-0.54 0.12367,-1.1383 -1.8281,-0.29173 -0.16165,-1.4206 1.5434,-1.2894" inkscape:connector-curvature="0" style="stroke:#ffffff">
      <title id="title7795">San Patricio, TX</title>
    </path>
    <path id="c48057" d="m 506.34,540.22 0.27278,-1.054 4.5873,-3.143 0.24069,-0.111 1.0626,-0.458 1.5814,-0.33 0.24247,0.419 -1.9362,0.954 -0.28348,0.128 -0.0232,0.02 -1.478,0.911 -1.494,1.076 -1.3033,1.021 -1.8792,1.633 -0.041,0.04 -0.0481,0.05 0.4992,-1.155 m 5.1828,-13.725 5.1828,0.899 0.007,0.772 -1.2534,0.586 -1.9932,0.811 -1.6224,-1.479 -0.18541,-0.535 -0.1355,-1.054 m -6.3417,4.676 -0.29596,-0.579 -0.49029,-1.246 1.5672,-1.093 3.054,-1.045 1.084,-0.602 -0.29774,0.267 1.0697,2.542 0.0553,0.06 0.89143,0.166 0.56339,0.386 2.3552,2.122 0.18364,0.184 0.16937,0.233 -0.0321,0.154 -3.826,1.918 -0.1765,0.07 -1.478,0.417 -0.51525,-0.167 -0.14442,-0.138 -1.3015,-1.399 -2.4354,-2.256" inkscape:connector-curvature="0" style="stroke:#ffffff">
      <title id="title7798">Calhoun, TX</title>
    </path>
    <path id="c48391" d="m 499.72,530.06 5.4627,1.117 2.4354,2.256 -0.44928,2.068 -6.766,0.986 0.0321,0.467 0.45641,0.611 0.7809,0.468 0.44215,0.06 0.42432,0.01 -0.12658,0.346 -2.5798,1.945 -1.8239,0.884 -0.0642,0 -0.3958,-0.322 -0.88341,-1.2872 -1.9603,0.22716 -1.0517,-1.018 -1.792,-0.0421 3.4463,-5.064 4.4126,-3.711" inkscape:connector-curvature="0" style="stroke:#ffffff">
      <title id="title7801">Refugio, TX</title>
    </path>
    <path id="c48025" d="m 487.24,527.24 1.6082,2.917 2.8694,0.69298 0.0313,1.075 3.5586,1.839 -3.4463,5.063 -0.48893,0.6988 -5.1449,-1.0718 0.19255,-0.15 -5.4788,-11.073 1.7187,-0.586 1.8417,-0.635 0.26386,0.16 0.16046,0.28 0.71493,0.396 0.63649,0.264 0.96275,0.13" inkscape:connector-curvature="0" style="stroke:#ffffff">
      <title id="title7804">Bee, TX</title>
    </path>
    <path id="c48297" d="m 480.83,524.39 1.831,2.259 -1.7187,0.586 5.4788,11.073 -0.19255,0.15 -1.5434,1.2894 0.16165,1.4206 -7.1832,-0.176 -2.0182,-0.05 0.29774,-12.678 4.8868,-3.874" inkscape:connector-curvature="0" style="stroke:#ffffff">
      <title id="title7807">Live Oak, TX</title>
    </path>
    <path id="c48311" d="m 466.52,527.43 9.4421,0.128 -0.31557,13.386 -9.5615,-0.246 0.43502,-13.268" inkscape:connector-curvature="0" style="stroke:#ffffff">
      <title id="title7810">McMullen, TX</title>
    </path>
    <path id="c48131" d="m 466.08,540.7 9.5615,0.246 2.0182,0.05 -0.36192,18.144 -5.994,-0.209 0.0668,-1.7808 -0.6842,-0.009 0.001,-0.33617 -0.83995,-0.0402 -0.03,0.34915 -0.70319,-0.0333 -0.004,-0.32151 -3.3994,-0.01 0.36905,-16.046" inkscape:connector-curvature="0" style="stroke:#ffffff">
      <title id="title7813">Duval, TX</title>
    </path>
    <path id="c48479" d="m 437.56,536.45 1.9522,0.06 14.65,0.426 -0.041,3.977 11.965,-0.224 -0.36905,16.046 -0.0768,1.9745 -3.2019,-0.14252 -7.7947,-0.345 -0.72385,-1.077 -1.7597,1.18 -0.34587,-0.03 -0.44037,-0.277 -0.041,-0.01 -0.13659,-0.42165 -0.0874,-0.1 -0.0321,-0.04 -0.016,-0.02 -0.0232,-0.09 0.0945,-0.128 0.0154,-1.0174 0.3227,-0.763 0.12124,-0.442 0.21572,-1.719 -0.59753,-0.36584 -0.13344,-1.6682 -0.42611,-0.747 -0.27456,-0.202 -0.90748,-0.659 -0.46533,-0.08 -0.86281,-0.0205 -1.4381,-0.90938 -1.5522,-2.1497 -0.53457,-0.0674 -0.63471,-0.754 -0.35671,-1.0203 0.13618,-1.029 -0.65854,-0.6863 -0.0105,-1.1232 -1.2062,-0.5387 -0.333,-1.5294 -0.0527,-0.12855 -1.423,-1.8285 -0.0981,-0.08 -2.4176,-1.238" inkscape:connector-curvature="0" style="stroke:#ffffff">
      <title id="title7816">Webb, TX</title>
    </path>
    <path id="c48283" d="m 466.53,527.22 -0.0143,0.209 -0.43502,13.268 -11.965,0.224 0.041,-3.977 0.32091,-9.965 12.052,0.241" inkscape:connector-curvature="0" style="stroke:#ffffff">
      <title id="title7819">La Salle, TX</title>
    </path>
    <path id="c48127" d="m 439.94,526.23 14.272,0.739 0.26565,0 -0.32091,9.965 -14.65,-0.426 0.43324,-10.287" inkscape:connector-curvature="0" style="stroke:#ffffff">
      <title id="title7822">Dimmit, TX</title>
    </path>
    <path id="c48323" d="m 440.43,516.22 -0.49207,10.011 -0.43324,10.287 -1.9522,-0.06 -0.0731,-0.08 -0.86647,-0.955 -0.64362,-0.828 0.098,-1.3701 -0.99371,-1.4406 0.51668,-2.2734 -1.3428,-1.0277 0.12134,-1.0382 -0.76389,-0.43827 -0.11865,-0.72163 -1.0156,-0.96593 -0.099,-1.4299 -0.64414,-1.8928 -0.98324,-1.6978 -0.93334,-1.2748 -0.60056,-3.2749 11.22,0.476" inkscape:connector-curvature="0" style="stroke:#ffffff">
      <title id="title7825">Maverick, TX</title>
    </path>
    <path id="c48271" d="m 429.19,503.36 11.756,0.564 -0.51347,12.293 -11.22,-0.476 -2.3213,-3.719 0.61865,0.112 0.0802,-0.02 0.25852,-0.378 0.80229,-1.895 0.11232,-0.555 0.22464,-1.72 0.20146,-4.21" inkscape:connector-curvature="0" style="stroke:#ffffff">
      <title id="title7828">Kinney, TX</title>
    </path>
    <path id="c48137" d="m 441.53,488.62 7.1921,0.296 -0.26565,4.96 -1.7508,-0.06 -2.4194,-0.289 -1.1892,4.363 -0.21751,3.316 0.0321,2.797 -1.9594,-0.08 -11.756,-0.564 0.74703,-15.229 11.587,0.492" inkscape:connector-curvature="0" style="stroke:#ffffff">
      <title id="title7831">Edwards, TX</title>
    </path>
    <path id="c48385" d="m 448.45,493.88 1.3514,0.05 -0.14441,3.006 0.40115,0.811 1.3264,0.08 -0.2496,6.418 -8.2297,-0.241 -0.0321,-2.797 0.21751,-3.316 1.1892,-4.363 2.4194,0.289 1.7508,0.06" inkscape:connector-curvature="0" style="stroke:#ffffff">
      <title id="title7834">Real, TX</title>
    </path>
    <path id="c48463" d="m 440.95,503.93 1.9594,0.08 8.2297,0.241 3.8243,0.135 -0.48138,12.281 -14.045,-0.442 0.51347,-12.293" inkscape:connector-curvature="0" style="stroke:#ffffff">
      <title id="title7837">Uvalde, TX</title>
    </path>
    <path id="c48507" d="m 454.48,516.66 -0.26565,10.308 -14.272,-0.739 0.49207,-10.011 14.045,0.442" inkscape:connector-curvature="0" style="stroke:#ffffff">
      <title id="title7840">Zavala, TX</title>
    </path>
    <path id="c48163" d="m 466.75,517.08 -0.2193,10.141 -12.052,-0.241 -0.26565,0 0.26565,-10.308 12.272,0.417" inkscape:connector-curvature="0" style="stroke:#ffffff">
      <title id="title7843">Frio, TX</title>
    </path>
    <path id="c48175" d="m 496.88,522.91 1.494,0 0.58656,0.271 0.29061,0.588 0.3851,0.997 0.0891,5.295 -4.4126,3.712 -3.5586,-1.838 -0.0313,-1.0755 -2.8694,-0.69348 -1.6082,-2.917 4.188,-3.25 3.2145,-2.512 0.12659,0 0.53129,0.201 0.89144,0.498 0.27456,0.242 0.40828,0.489" inkscape:connector-curvature="0" style="stroke:#ffffff">
      <title id="title7846">Goliad, TX</title>
    </path>
    <path id="c48469" d="m 503.59,517.51 0.75415,0.938 2.0022,0.884 0.1355,0.1 1.4459,2.86 2.2981,4.268 -0.11945,0.06 -1.084,0.602 -3.054,1.045 -1.5672,1.093 0.49029,1.246 0.29596,0.58 -5.4627,-1.118 -0.0891,-5.295 -0.3851,-0.997 -0.29061,-0.588 -0.58656,-0.271 -1.494,0 6.7107,-5.406" inkscape:connector-curvature="0" style="stroke:#ffffff">
      <title id="title7849">Victoria, TX</title>
    </path>
    <path id="c48123" d="m 498.36,511.01 5.2238,6.495 -6.7107,5.406 -0.40828,-0.489 -0.27456,-0.242 -0.89144,-0.498 -0.53129,-0.201 -0.12659,0 -3.2145,2.512 -3.5693,-4.497 2.9007,-2.298 7.6022,-6.188" inkscape:connector-curvature="0" style="stroke:#ffffff">
      <title id="title7852">DeWitt, TX</title>
    </path>
    <path id="c48255" d="m 488.49,514.59 2.2732,2.612 -2.9007,2.298 3.5693,4.497 -4.188,3.25 -0.96275,-0.13 -0.63649,-0.264 -0.71493,-0.396 -0.16046,-0.28 -0.26386,-0.16 -1.8417,0.635 -1.831,-2.259 -1.8239,-2.225 9.4813,-7.578" inkscape:connector-curvature="0" style="stroke:#ffffff">
      <title id="title7855">Karnes, TX</title>
    </path>
    <path id="c48493" d="m 486.3,510.99 -0.47591,0.59633 2.6617,2.9957 -9.4813,7.578 -4.2361,-5.417 5.6891,-7.377 0.12123,1.182 0.0713,0.289 0.16937,0.306 0.57765,-0.321 4.9029,0.168" inkscape:connector-curvature="0" style="stroke:#ffffff">
      <title id="title7858">Wilson, TX</title>
    </path>
    <path id="c48013" d="m 466.86,513.41 7.9052,3.334 4.2361,5.417 1.8239,2.225 -4.8868,3.874 0.0178,-0.708 -9.4421,-0.128 0.0143,-0.209 0.2193,-10.141 0.11232,-3.664" inkscape:connector-curvature="0" style="stroke:#ffffff">
      <title id="title7861">Atascosa, TX</title>
    </path>
    <path id="c48325" d="m 467.12,503.33 -0.25673,10.084 -0.11232,3.664 -12.272,-0.417 0.48138,-12.281 8.5649,0.378 0.13728,0.213 0.0161,0.11 -0.0642,0.25 -0.17472,0.264 0.007,0.46 0.11945,0.272 0.0802,0.07 0.0731,0.01 0.90035,-0.211 2.4996,-2.867" inkscape:connector-curvature="0" style="stroke:#ffffff">
      <title id="title7864">Medina, TX</title>
    </path>
    <path id="c48019" d="m 451.39,497.83 6.1634,0.288 2.3142,0.296 1.0519,0.546 4.0507,2.218 2.7242,1.494 -0.57052,0.661 -2.4996,2.867 -0.90035,0.211 -0.0731,-0.01 -0.0802,-0.07 -0.11945,-0.272 -0.007,-0.46 0.17472,-0.264 0.0642,-0.25 -0.0161,-0.11 -0.13728,-0.213 -8.5649,-0.377 -3.8243,-0.136 0.2496,-6.418" inkscape:connector-curvature="0" style="stroke:#ffffff">
      <title id="title7867">Bandera, TX</title>
    </path>
    <path id="c48265" d="m 457.69,489.34 -0.0963,3.495 7.5772,0.162 -0.19968,8.178 -4.0507,-2.218 -1.0519,-0.546 -2.3142,-0.296 -6.1634,-0.288 -1.3264,-0.08 -0.40115,-0.811 0.14441,-3.006 -1.3514,-0.05 0.26565,-4.96 8.9678,0.419" inkscape:connector-curvature="0" style="stroke:#ffffff">
      <title id="title7870">Kerr, TX</title>
    </path>
    <path id="c48171" d="m 457.82,484.45 6.725,0.255 7.3775,0.186 -0.15332,8.285 -6.6055,-0.175 -7.5772,-0.162 0.23355,-8.389" inkscape:connector-curvature="0" style="stroke:#ffffff">
      <title id="title7873">Gillespie, TX</title>
    </path>
    <path id="c48031" d="m 476.71,485.33 4.4108,1.478 -0.98058,1.583 -2.644,7.247 -2.3784,2.241 -3.3429,-4.708 0.15332,-8.285 3.8345,0.0752 0.94713,0.36882" inkscape:connector-curvature="0" style="stroke:#ffffff">
      <title id="title7876">Blanco, TX</title>
    </path>
    <path id="c48259" d="m 465.17,493 6.6055,0.175 3.3429,4.708 -4.7496,4.291 -2.6743,0.498 -2.7242,-1.494 0.19968,-8.178" inkscape:connector-curvature="0" style="stroke:#ffffff">
      <title id="title7879">Kendall, TX</title>
    </path>
    <path id="c48029" d="m 470.37,502.17 1.8239,-0.224 0.16224,0 2.5459,0.33 1.2302,0.987 0.85221,2.532 0.19968,0.635 0.57052,0.442 0.97345,0.312 1.9041,1.278 0.0321,0.683 -0.20146,0.216 -5.6891,7.377 -7.9052,-3.334 0.25673,-10.084 0.57052,-0.661 2.6743,-0.497" inkscape:connector-curvature="0" style="stroke:#ffffff">
      <title id="title7882">Bexar, TX</title>
    </path>
    <path id="c48187" d="m 485.83,499.95 2.1079,2.8435 2.6417,2.0185 -4.2753,6.187 -4.9029,-0.168 -0.57765,0.321 -0.16937,-0.306 -0.0713,-0.289 -0.12123,-1.182 0.20146,-0.216 -0.0321,-0.683 -1.9041,-1.278 -0.97345,-0.312 -0.57052,-0.442 -0.19968,-0.635 6.3149,-3.48 2.5317,-2.379" inkscape:connector-curvature="0" style="stroke:#ffffff">
      <title id="title7885">Guadalupe, TX</title>
    </path>
    <path id="c48091" d="m 477.49,495.64 5.2238,4.468 0.57765,2.218 -6.3149,3.48 -0.85221,-2.532 -1.2302,-0.987 -2.5459,-0.33 -0.16224,0 -1.8239,0.224 4.7496,-4.291 2.3784,-2.241" inkscape:connector-curvature="0" style="stroke:#ffffff">
      <title id="title7888">Comal, TX</title>
    </path>
    <path id="c48209" d="m 480.14,488.39 9.0481,7.802 -1.1018,0.987 -2.619,2.163 -0.12837,0.61 0.18542,0.03 0.30487,-0.04 -2.5317,2.378 -0.57765,-2.218 -5.2238,-4.468 2.644,-7.247" inkscape:connector-curvature="0" style="stroke:#ffffff">
      <title id="title7891">Hays, TX</title>
    </path>
    <path id="c48055" d="m 489.19,496.19 1.1963,-1.013 6.5824,6.596 -5.3433,3.3864 -1.0448,-0.35638 -2.6417,-2.0185 -2.1079,-2.8435 -0.30487,0.04 -0.18542,-0.03 0.12837,-0.61 2.619,-2.163 1.1018,-0.987" inkscape:connector-curvature="0" style="stroke:#ffffff">
      <title id="title7894">Caldwell, TX</title>
    </path>
    <path id="c48177" d="m 496.92,501.82 3.9736,3.1369 -0.52556,0.50407 -1.2302,1.07 0.0161,1.678 -0.79516,2.804 -7.6022,6.188 -2.2732,-2.612 -2.6617,-2.9957 0.47591,-0.59633 4.2753,-6.187 1.0447,0.35587 5.3023,-3.3459" inkscape:connector-curvature="0" style="stroke:#ffffff">
      <title id="title7897">Gonzales, TX</title>
    </path>
    <path id="c48285" d="m 500.37,505.46 5.3825,-0.05 0.16937,0.05 0.37084,0.225 1.084,1.012 4.6194,5.568 -1.9754,1.632 -5.682,4.548 -5.978,-7.433 0.79516,-2.804 -0.0161,-1.678 1.2302,-1.07" inkscape:connector-curvature="0" style="stroke:#ffffff">
      <title id="title7900">Lavaca, TX</title>
    </path>
    <path id="c48239" d="m 510.02,513.9 0.36192,0.369 6.6376,6.55 -0.31379,6.581 -5.1828,-0.899 -1.3033,0.06 -2.2981,-4.268 -1.4459,-2.86 -0.1355,-0.1 -2.0022,-0.884 5.682,-4.548" inkscape:connector-curvature="0" style="stroke:#ffffff">
      <title id="title7903">Jackson, TX</title>
    </path>
    <path id="c48321" d="m 517.02,520.81 6.9407,-4.193 1.8328,-1.899 0.47424,0.451 0.12124,0.121 -0.0217,2.7737 1.5074,0.81469 0.0244,1.7306 2.0567,0.67051 0.45736,1.1461 1.5847,1.4274 1.2213,0.112 -0.3851,0.257 -0.84508,0.539 -0.37618,0.224 -4.557,2.653 -1.4459,0.731 -2.3623,1.029 -1.5671,0.724 -2.8936,1.478 -1.0198,0.684 -0.0731,0.05 -1.3746,0.962 -0.60261,0.452 -0.16759,0.265 -0.0481,-0.167 0.11945,-0.195 3.2698,-2.458 0.4992,-4.219 -0.0963,-0.103 -0.13549,-0.05 -0.41185,0.06 -0.92174,0.218 -0.3958,0.128 -0.32983,0.262 -0.3851,0.678 -0.007,-0.772 0.31379,-6.581" inkscape:connector-curvature="0" style="stroke:#ffffff">
      <title id="title7906">Matagorda, TX</title>
    </path>
    <path id="c48481" d="m 521.48,506.2 1.6296,3.955 1.15,2.137 1.4388,1.6 0.62579,0.08 -0.52951,0.754 -1.8328,1.899 -6.9407,4.193 -6.6376,-6.55 0.72206,-0.409 5.1596,-3.239 0.32983,-0.957 0.96275,-1.951 2.1858,-2.25 1.7365,0.738" inkscape:connector-curvature="0" style="stroke:#ffffff">
      <title id="title7909">Wharton, TX</title>
    </path>
    <path id="c48089" d="m 511.89,497.91 0.67571,1.244 0.81834,0.742 0.20146,0.182 1.2623,0.877 0.19968,0.1 0.3548,0.07 1.336,0.0233 0.5842,1.8737 0.84442,1.6424 1.0757,0.25457 0.49742,0.538 -2.1858,2.25 -0.96275,1.951 -0.32983,0.957 -5.1596,3.239 -0.72206,0.409 -0.36192,-0.369 1.9754,-1.632 -4.6194,-5.568 -1.084,-1.012 -0.37084,-0.225 -0.16937,-0.05 6.1402,-7.497" inkscape:connector-curvature="0" style="stroke:#ffffff">
      <title id="title7912">Colorado, TX</title>
    </path>
    <path id="c48021" d="m 496.79,487.63 2.6511,1.526 2.3231,1.835 1.0858,4.787 -5.8906,6.002 -6.5824,-6.596 0.87718,-0.804 2.3302,-2.37 2.5138,-4.776 0.69176,0.396" inkscape:connector-curvature="0" style="stroke:#ffffff">
      <title id="title7915">Bastrop, TX</title>
    </path>
    <path id="c48149" d="m 507.46,493.31 0.51525,0.451 0.65788,-0.135 0.66679,-0.236 0.29774,-0.151 0.76307,0.506 0.29061,0.843 0.18363,0.903 0.041,0.511 1.0198,1.915 -6.1402,7.497 -5.3825,0.05 0.52556,-0.50407 -3.9736,-3.1369 0.041,-0.04 5.8906,-6.002 4.6034,-2.468" inkscape:connector-curvature="0" style="stroke:#ffffff">
      <title id="title7918">Fayette, TX</title>
    </path>
    <path id="c48287" d="m 500.36,486.42 3.8171,-2.25 2.291,2.909 1.815,2.099 2.25,1.027 -3.0772,3.1 -4.6034,2.468 -1.0858,-4.787 -2.3231,-1.835 -2.6511,-1.526 3.5675,-1.205" inkscape:connector-curvature="0" style="stroke:#ffffff">
      <title id="title7921">Lee, TX</title>
    </path>
    <path id="c48015" d="m 510.87,496 0.71493,-0.458 5.8407,-0.697 0.36193,0.07 0.91639,0.399 0.98058,0.348 0.46533,0.03 0.21038,-0.249 1.4112,1.2927 -0.62652,4.4276 1.4112,0.73293 0.0452,1.4047 -0.1577,2.8338 -0.96729,0.0582 -1.7365,-0.738 -0.49742,-0.538 -1.0757,-0.25457 -0.84442,-1.6424 -0.5842,-1.8737 -1.336,-0.0233 -0.3548,-0.07 -0.19968,-0.1 -1.2623,-0.877 -0.20146,-0.182 -0.81834,-0.742 -0.67571,-1.244 -1.0198,-1.915" inkscape:connector-curvature="0" style="stroke:#ffffff">
      <title id="title7924">Austin, TX</title>
    </path>
    <path id="c48477" d="m 517.32,488.33 0.21751,0.288 0.22464,0.161 0.14263,0.05 1.0786,-0.369 0.33875,-0.41 0.13549,-0.104 0.26565,0.03 0.55447,0.585 -0.0874,0.91 1.262,0.61417 -0.0497,1.8118 -1.3909,0.34022 0.0102,1.2954 -0.56339,0.90256 0.90826,1.0128 -0.21038,0.25 -0.46533,-0.03 -0.98058,-0.348 -0.91639,-0.399 -0.36193,-0.07 -5.8407,0.697 -0.71493,0.458 -0.041,-0.512 -0.18363,-0.902 -0.29061,-0.843 -0.76307,-0.506 -0.29774,0.151 -0.66679,0.236 -0.65788,0.135 -0.51525,-0.451 3.0772,-3.1 2.9328,-0.722 0.57943,-0.163 3.0041,-1.093 0.17651,0.03 0.0891,0.07" inkscape:connector-curvature="0" style="stroke:#ffffff">
      <title id="title7927">Washington, TX</title>
    </path>
    <path id="c48473" d="m 521.4,491.89 5.7444,-0.474 0.0321,3.567 -1.0679,-0.264 -1.0768,-0.602 -0.40293,-0.38 -0.58656,-0.435 0.27456,0.886 2.4194,7.724 -4.1309,1.388 -0.0452,-1.4047 -1.4112,-0.73293 0.62652,-4.4276 -1.4112,-1.2927 -0.90826,-1.0131 0.56339,-0.90281 -0.0102,-1.2956 1.3909,-0.34047" inkscape:connector-curvature="0" style="stroke:#ffffff">
      <title id="title7930">Waller, TX</title>
    </path>
    <path id="c48157" d="m 522.61,503.3 4.1309,-1.388 8.0586,4.74 -0.74703,3.238 -1.6146,0.0663 -0.0329,1.0819 -0.29934,0.79884 -0.64896,0.649 -0.68283,0.353 -0.0343,0.68927 -1.7325,-0.70927 -0.77198,-0.275 -0.48704,0.64303 -0.42044,-0.25603 -0.99841,1.038 -0.62579,-0.08 -1.4388,-1.6 -1.15,-2.137 -1.6296,-3.955 0.96729,-0.0582 0.1577,-2.8338" inkscape:connector-curvature="0" style="stroke:#ffffff">
      <title id="title7933">Fort Bend, TX</title>
    </path>
    <path id="c48039" d="m 534.79,506.66 1.7364,-0.42937 1.5491,0.18601 0.13106,0.77464 0.74644,-0.001 -0.312,2.073 2.3052,3.865 1.3015,2.201 -1.4548,2.62 0.21751,0.17 -0.12124,0.248 -5.0455,4.412 -2.628,1.196 -1.2213,-0.112 -1.5847,-1.4274 -0.45736,-1.1461 -2.0567,-0.67051 -0.0244,-1.7306 -1.5074,-0.81469 0.0217,-2.7737 -0.12124,-0.121 -0.47424,-0.451 0.52951,-0.754 0.99841,-1.038 0.42044,0.25603 0.48704,-0.64303 0.77198,0.275 1.7325,0.70927 0.0343,-0.68927 0.68283,-0.353 0.64896,-0.649 0.29934,-0.79884 0.0329,-1.0819 1.6146,-0.0663 0.74703,-3.238" inkscape:connector-curvature="0" style="stroke:#ffffff">
      <title id="title7936">Brazoria, TX</title>
    </path>
    <path id="c48167" d="m 555.9,506.98 -0.59548,0.275 -1.7829,0.82 -0.13728,0.06 -0.0874,0.05 -1.6064,0.747 -0.2496,0.118 -0.72206,0.387 -0.13015,0.08 -0.41006,0.259 -0.24069,0.144 -0.0713,0.05 -0.23355,0.179 -0.16937,0.119 -0.0802,0.1 -0.0571,0.05 -0.14441,0.154 -0.0481,0.07 -0.17472,0.266 -0.082,0.121 -0.0963,0.232 -0.041,0.09 -0.60974,0.174 -0.34588,0.02 -0.0713,-0.06 -0.016,-0.269 0.32092,-0.409 1.6884,-1.807 0.17472,-0.127 1.535,-0.731 1.0287,-0.355 0.25852,-0.03 0.19077,-0.08 -0.10341,-0.25 0,-0.33 3.1093,-0.112 m -12.969,0.186 0.92353,1.044 3.2965,3.527 1.5974,0.474 -1.0929,0.957 -0.3441,0.266 -1.9059,1.309 -2.3962,1.647 -0.14442,0.1 -0.25673,0.203 -0.72206,0.553 -0.12837,0.105 -0.0731,0.06 -0.28882,0.273 -0.21573,0.201 -0.16937,0.234 -0.21751,-0.17 1.4548,-2.621 -1.3015,-2.2 -2.3052,-3.865 0.312,-2.073 0.96453,0.964 2.0004,-1.03 1.0127,0.05" inkscape:connector-curvature="0" style="stroke:#ffffff">
      <title id="title7939">Galveston, TX</title>
    </path>
    <path id="c48339" d="m 526.62,482.58 4.5873,2.782 3.4249,0 1.3336,0.09 0.73339,1.2831 0.96409,1.0813 1.1948,0.36034 0.96409,0.90825 1.4067,4.073 -2.0022,1.897 -1.3015,1.23 -0.58657,0.07 -0.35122,-0.08 -0.21216,-0.458 -0.57587,-0.539 -1.4477,-0.777 -2.5138,-1.334 -0.94135,0.819 -1.4067,0.666 -1.3175,0.266 -0.43502,0.04 -0.95562,0.05 -0.0321,-3.567 -0.52951,-8.84" inkscape:connector-curvature="0" style="stroke:#ffffff">
      <title id="title7942">Montgomery, TX</title>
    </path>
    <path id="c48201" d="m 527.18,494.99 0.95562,-0.05 0.43502,-0.04 1.3175,-0.266 1.4067,-0.666 0.94135,-0.819 2.5138,1.334 1.4477,0.777 0.57587,0.539 0.21216,0.458 0.35122,0.08 0.58657,-0.07 1.3015,-1.231 2.0022,-1.896 2.3873,6.47 1.5801,1.7201 -0.56032,3.0579 -1.6955,2.783 -1.0127,-0.05 -2.0004,1.03 -0.96453,-0.964 -0.74644,10e-4 -0.13106,-0.77464 -1.5491,-0.18601 -1.7364,0.42937 -8.0586,-4.74 -2.4194,-7.724 -0.27456,-0.886 0.58656,0.435 0.40293,0.38 1.0768,0.603 1.0679,0.263" inkscape:connector-curvature="0" style="stroke:#ffffff">
      <title id="title7945">Harris, TX</title>
    </path>
    <path id="c48071" d="m 554.35,499.34 1.6866,0.01 0.2193,7.171 -0.0178,0.303 -0.32983,0.153 -3.1093,0.113 -4.1862,-0.667 0.50634,-0.947 0.28882,-1.592 0.007,-0.209 -0.0642,-0.451 -0.5937,-1.171 -0.21751,-0.242 -0.11232,-0.04 -1.0216,0.467 -0.47246,0.249 -2.2981,1.894 0.56032,-3.0579 -1.5801,-1.7201 10.735,-0.266" inkscape:connector-curvature="0" style="stroke:#ffffff">
      <title id="title7948">Chambers, TX</title>
    </path>
    <path id="c48199" d="m 552.06,484.74 9.385,-0.144 -0.4992,1.219 -0.17472,0.531 -0.21751,0.892 0.0571,0.321 0.36014,0.822 0.0642,0.02 0.20147,0.21 -0.36193,2.241 -0.20681,0.291 0.0713,1.858 -0.12836,-0.13 -1.4726,-0.491 -0.27813,0.04 -1.2962,0.419 -0.0481,0.06 -0.0161,0.256 0.0481,0.364 -0.0553,0.145 -0.26565,0.383 -0.14441,0.08 -2.0093,0.428 -0.31378,-0.06 -0.55447,-0.289 -3.013,0.07 -2.8294,-8.637 3.876,-0.088 -0.17833,-0.81199" inkscape:connector-curvature="0" style="stroke:#ffffff">
      <title id="title7951">Hardin, TX</title>
    </path>
    <path id="c48291" d="m 546.05,485.59 2.3124,0.05 2.8294,8.636 3.013,-0.06 0.13728,5.128 -10.735,0.265 -2.3873,-6.47 -1.4067,-4.072 6.2365,-3.473" inkscape:connector-curvature="0" style="stroke:#ffffff">
      <title id="title7954">Liberty, TX</title>
    </path>
    <path id="c48245" d="m 554.21,494.22 0.55447,0.289 0.31378,0.06 2.0093,-0.428 0.14441,-0.08 0.26565,-0.383 0.0553,-0.145 -0.0481,-0.364 0.0161,-0.256 0.0481,-0.06 1.2962,-0.419 0.27813,-0.04 1.4726,0.491 0.12836,0.13 0.0481,0.28 0.41719,1.446 0.0553,0.06 2.767,1.801 1.6616,0.428 0.25674,0.112 0.30665,0.472 0.0731,0.186 0.0392,0.226 -0.0339,0.523 -0.10896,0.9742 -1.7722,1.4348 0.73544,1.7674 1.324,0.94861 -1.856,0.298 -1.4067,0 -1.1,0.259 -1.5119,0.602 -4.4037,2.024 0.0178,-0.303 -0.2193,-7.171 -1.6866,-0.01 -0.13728,-5.128" inkscape:connector-curvature="0" style="stroke:#ffffff">
      <title id="title7957">Jefferson, TX</title>
    </path>
    <path id="c48361" d="m 568.64,490.91 -0.0143,4.441 -2.291,3.194 0.0339,-0.523 -0.0392,-0.226 -0.0731,-0.186 -0.30665,-0.472 -0.25674,-0.112 -1.6616,-0.428 -2.767,-1.801 -0.0553,-0.06 -0.41719,-1.446 -0.0481,-0.28 -0.0713,-1.858 4.2896,-0.114 3.6781,-0.127" inkscape:connector-curvature="0" style="stroke:#ffffff">
      <title id="title7960">Orange, TX</title>
    </path>
    <path id="c48453" d="m 481.12,486.81 1.5992,-4.517 1.8399,-0.06 0.77911,0.553 0.94136,1.358 0.35122,1.689 0.73276,0.618 0.62757,0.209 0.45642,-0.02 1.3425,-0.472 1.8488,-0.892 0.40115,0 1.2605,0.399 2.8044,1.548 -2.5138,4.776 -2.3302,2.37 -0.87718,0.804 -1.1963,1.012 -9.0481,-7.801 0.98058,-1.584" inkscape:connector-curvature="0" style="stroke:#ffffff">
      <title id="title7963">Travis, TX</title>
    </path>
    <path id="c48263" d="m 436.97,416.77 -0.50634,10.029 -2.628,-0.136 -7.3365,-0.531 0.52238,-9.845 9.9484,0.483" inkscape:connector-curvature="0" style="stroke:#ffffff">
      <title id="title7966">Kent, TX</title>
    </path>
    <path id="c48267" d="m 454.43,479.48 -0.18541,4.846 3.5764,0.121 -0.13728,4.894 -8.9678,-0.419 -7.1921,-0.296 0.4261,-9.636 12.48,0.49" inkscape:connector-curvature="0" style="stroke:#ffffff">
      <title id="title7969">Kimble, TX</title>
    </path>
    <path id="c48435" d="m 441.95,478.99 -0.4261,9.636 -11.587,-0.492 -5.1578,-0.248 0.49743,-9.593 16.673,0.697" inkscape:connector-curvature="0" style="stroke:#ffffff">
      <title id="title7972">Sutton, TX</title>
    </path>
    <path id="c48413" d="m 431.07,469.82 11.273,0.491 -0.39402,8.677 -16.673,-0.697 0.41719,-8.647 5.3771,0.176" inkscape:connector-curvature="0" style="stroke:#ffffff">
      <title id="title7975">Schleicher, TX</title>
    </path>
    <path id="c48327" d="m 442.35,470.31 10.061,0.424 -0.10787,3.3528 2.3097,0.10418 -0.17651,5.286 -12.48,-0.49 0.39402,-8.677" inkscape:connector-curvature="0" style="stroke:#ffffff">
      <title id="title7978">Menard, TX</title>
    </path>
    <path id="c48319" d="m 454.61,474.19 7.7305,0.264 -0.0166,0.47326 2.5144,0.0577 -0.28882,9.713 -6.725,-0.255 -3.5764,-0.121 0.18541,-4.846 0.17651,-5.286" inkscape:connector-curvature="0" style="stroke:#ffffff">
      <title id="title7981">Mason, TX</title>
    </path>
    <path id="c48299" d="m 464.84,474.99 10.223,0.289 1.3086,2.059 -1.1487,0.86179 -0.14841,2.2877 0.53262,2.3941 0.8518,0.45743 0.25138,1.994 -0.94713,-0.36882 -3.8345,-0.0752 -7.3775,-0.186 0.28882,-9.713" inkscape:connector-curvature="0" style="stroke:#ffffff">
      <title id="title7984">Llano, TX</title>
    </path>
    <path id="c48053" d="m 485.64,472.91 1.5761,2.989 -2.6772,2.6359 -1.8228,3.7601 -1.5992,4.517 -4.4108,-1.478 -0.25138,-1.994 -0.85185,-0.45743 -0.53262,-2.3941 0.14841,-2.2877 1.1487,-0.86179 -1.3086,-2.059 0.18363,-2.482 10.398,0.112" inkscape:connector-curvature="0" style="stroke:#ffffff">
      <title id="title7987">Burnet, TX</title>
    </path>
    <path id="c48491" d="m 487.22,475.9 3.4142,0.757 0.58656,0.145 6.06,2.802 0.74725,0.32667 2.3371,6.4953 -3.5675,1.205 -0.69176,-0.396 -2.8044,-1.547 -1.2605,-0.4 -0.40115,0 -1.8488,0.892 -1.3425,0.472 -0.45642,0.02 -0.62757,-0.208 -0.73276,-0.619 -0.35122,-1.688 -0.94136,-1.359 -0.77911,-0.553 -1.8399,0.06 1.8228,-3.7606 2.6772,-2.6364" inkscape:connector-curvature="0" style="stroke:#ffffff">
      <title id="title7990">Williamson, TX</title>
    </path>
    <path id="c48051" d="m 510.99,480.24 1.059,0.811 -0.11232,0.147 -0.56161,1.059 0,0.06 1.8328,0.437 1.6866,0.786 2.1305,3.038 0.29595,1.744 -0.0891,-0.07 -0.17651,-0.03 -3.0041,1.092 -0.57943,0.163 -2.9328,0.722 -2.25,-1.027 -1.815,-2.099 -2.291,-2.909 6.807,-3.93" inkscape:connector-curvature="0" style="stroke:#ffffff">
      <title id="title7993">Burleson, TX</title>
    </path>
    <path id="c48407" d="m 536.52,477.27 0.334,-0.892 1.4483,-0.14916 0.0121,1.0889 0.73018,0.74225 1.431,0.94353 0.43669,2.3903 1.4766,0.13701 0.38716,1.276 -0.42996,0.58271 1.5948,0.15542 2.3872,0.79922 -0.4356,0.92302 0.15868,0.32875 -6.2365,3.473 -0.96409,-0.90825 -1.1948,-0.36034 -0.96409,-1.0813 -0.73339,-1.2831 0.56161,-8.166" inkscape:connector-curvature="0" style="stroke:#ffffff">
      <title id="title7996">San Jacinto, TX</title>
    </path>
    <path id="c48471" d="m 534.39,472.72 0.84562,4.4396 1.2903,0.10438 -0.56161,8.166 -1.3336,-0.09 -3.4249,0 -4.5873,-2.782 -0.65075,-5.368 4.828,-1.542 3.5943,-2.947" inkscape:connector-curvature="0" style="stroke:#ffffff">
      <title id="title7999">Walker, TX</title>
    </path>
    <path id="c48185" d="m 519.94,478.15 6.0261,-0.94 0.65075,5.368 0.52951,8.84 -5.7444,0.474 0.0497,-1.8118 -1.262,-0.61417 1.3889,-2.067 -0.70602,-0.49 -0.14619,-0.257 -0.22464,-0.415 -0.92353,-3.097 0.16759,-2.378 0.19433,-2.612" inkscape:connector-curvature="0" style="stroke:#ffffff">
      <title id="title8002">Grimes, TX</title>
    </path>
    <path id="c48041" d="m 519.94,478.15 -0.19433,2.612 -0.16759,2.378 0.92353,3.097 0.22464,0.415 0.14619,0.257 0.70602,0.49 -1.3889,2.067 0.0874,-0.91 -0.55447,-0.584 -0.26565,-0.03 -0.13549,0.104 -0.33875,0.41 -1.0786,0.369 -0.14263,-0.05 -0.22464,-0.161 -0.21751,-0.288 -0.29595,-1.744 -2.1305,-3.038 -1.6866,-0.786 -1.8328,-0.437 0,-0.06 0.56161,-1.059 0.11232,-0.147 2.1876,-1.107 0.53842,-0.939 0.39224,-0.91 0.44215,-0.841 0.53129,-0.829 0.24782,-0.323 0.3227,-0.28 0.58656,-0.403 0.80408,-0.531 0.41719,-0.2 1.4227,3.463" inkscape:connector-curvature="0" style="stroke:#ffffff">
      <title id="title8005">Brazos, TX</title>
    </path>
    <path id="c48313" d="m 518.52,474.69 1.3657,-0.474 1.7757,-1.18 2.0735,-1.061 4.163,-0.06 2.4477,0.32687 -0.5536,1.5496 0.2801,0.93825 0.72473,0.93825 -4.828,1.542 -6.0261,0.94 -1.4227,-3.463" inkscape:connector-curvature="0" style="stroke:#ffffff">
      <title id="title8008">Madison, TX</title>
    </path>
    <path id="c48289" d="m 528.35,462.48 0.20147,0.337 0.36192,0.811 0.87539,2.505 -0.44037,1.12 -0.082,-0.02 -0.16759,0.1 -0.44216,0.497 -0.98771,3.124 0.0232,0.299 0.20147,0.66 -4.163,0.06 -2.0735,1.061 -1.7757,1.18 -1.3657,0.474 -1.5119,-8.83 1.6242,-1.287 8.7913,-4.714 0.11633,0.32825 0.27087,-0.0967 -0.0382,-0.67621 0.32881,-0.17398 0.48335,0.94638 -0.1541,1.043 -0.75291,0.65663 0.67651,0.59868" inkscape:connector-curvature="0" style="stroke:#ffffff">
      <title id="title8011">Leon, TX</title>
    </path>
    <path id="c48395" d="m 511.54,468.97 5.4627,-3.109 1.5119,8.83 -0.41719,0.2 -0.80408,0.531 -0.58656,0.403 -0.3227,0.28 -0.24782,0.323 -0.53129,0.829 -0.44215,0.841 -0.39224,0.91 -0.53842,0.939 -2.1876,1.107 -1.059,-0.811 -0.94849,-2.385 -1.6955,-2.17 -1.15,-3.359 -0.23355,-0.747 4.582,-2.612" inkscape:connector-curvature="0" style="stroke:#ffffff">
      <title id="title8014">Robertson, TX</title>
    </path>
    <path id="c48331" d="m 506.96,471.58 0.23355,0.747 1.15,3.359 1.6955,2.17 0.94849,2.385 -6.807,3.93 -3.8171,2.25 -2.3371,-6.4953 -0.74725,-0.32667 1.1571,-3.136 3.7529,-2.175 4.771,-2.708" inkscape:connector-curvature="0" style="stroke:#ffffff">
      <title id="title8017">Milam, TX</title>
    </path>
    <path id="c48027" d="m 495.44,466.52 1.3509,1.8119 1.3894,-0.84591 4.0115,6.805 -3.7529,2.175 -1.1571,3.136 -6.06,-2.802 -0.58656,-0.145 -3.4142,-0.757 -1.5761,-2.989 0.10519,-0.788 9.6899,-5.601" inkscape:connector-curvature="0" style="stroke:#ffffff">
      <title id="title8020">Bell, TX</title>
    </path>
    <path id="c48099" d="m 491.88,460.3 3.5515,6.219 -9.6899,5.601 -5.1596,-9.194 8.1816,-4.635 1.4405,-0.7617 1.676,2.7707" inkscape:connector-curvature="0" style="stroke:#ffffff">
      <title id="title8023">Coryell, TX</title>
    </path>
    <path id="c48281" d="m 478.78,463.98 1.8078,-1.054 5.1596,9.194 -0.10519,0.788 -10.398,-0.112 -2.2892,-4.685 5.8246,-4.131" inkscape:connector-curvature="0" style="stroke:#ffffff">
      <title id="title8026">Lampasas, TX</title>
    </path>
    <path id="c48333" d="m 475.16,457.73 3.6157,6.253 -5.8246,4.131 -0.0499,-0.275 -0.74702,-1.631 -2.5798,-2.264 -0.89854,-0.33439 -3.5265,-0.50261 -0.50812,-0.666 0.0731,-0.41 1.0127,-0.637 3.2145,-2.152 0.44215,-1.759 1.79,-0.241 3.4643,-0.41543 0.52221,0.90343" inkscape:connector-curvature="0" style="stroke:#ffffff">
      <title id="title8029">Mills, TX</title>
    </path>
    <path id="c48411" d="m 464.72,462.03 -0.0731,0.41 0.50812,0.666 3.5265,0.50261 0.89854,0.33439 2.5798,2.264 0.74702,1.631 0.0499,0.275 2.2892,4.685 -0.18363,2.482 -10.223,-0.289 -2.5144,-0.0577 0.0166,-0.47326 0.42433,-11.956 0.97701,-0.79972 0.97701,0.32572" inkscape:connector-curvature="0" style="stroke:#ffffff">
      <title id="title8032">San Saba, TX</title>
    </path>
    <path id="c48307" d="m 460.57,462.28 2.1929,0.218 -0.42433,11.956 -7.7305,-0.264 -2.3097,-0.10418 0.10787,-3.3528 0.37797,-9.303 1.2694,0.248 0.88786,0.74052 0.88787,-0.46652 2.2904,0.93516 1.4857,-0.83516 0.96454,0.233" inkscape:connector-curvature="0" style="stroke:#ffffff">
      <title id="title8035">McCulloch, TX</title>
    </path>
    <path id="c48095" d="m 450.52,459.39 2.266,2.043 -0.37797,9.303 -10.061,-0.424 0.57052,-11.314 7.6022,0.392" inkscape:connector-curvature="0" style="stroke:#ffffff">
      <title id="title8038">Concho, TX</title>
    </path>
    <path id="c48451" d="m 429.1,455.68 11.492,0.617 -0.15694,2.5651 2.4782,0.13793 -0.57052,11.314 -11.273,-0.491 0.41719,-10.052 -5.8175,-0.386 -5.4074,-0.314 0.0392,-0.635 7.866,0.282 0.25138,-3.286 0.68106,0.248" inkscape:connector-curvature="0" style="stroke:#ffffff">
      <title id="title8041">Tom Green, TX</title>
    </path>
    <path id="c48081" d="m 429.63,446.69 3.0291,0.185 8.3492,0.457 -0.41719,8.959 -11.492,-0.617 0.5313,-8.984" inkscape:connector-curvature="0" style="stroke:#ffffff">
      <title id="title8044">Coke, TX</title>
    </path>
    <path id="c48399" d="m 442.63,447.4 8.4936,0.369 -0.60261,11.619 -7.6022,-0.392 -2.4782,-0.13793 0.15694,-2.5651 0.41719,-8.959 1.6153,0.07" inkscape:connector-curvature="0" style="stroke:#ffffff">
      <title id="title8047">Runnels, TX</title>
    </path>
    <path id="c48083" d="m 452.73,447.85 8.4544,0.348 -0.61152,14.084 -0.96454,-0.233 -1.4857,0.83516 -2.2904,-0.93516 -0.88787,0.46652 -0.88786,-0.74052 -1.2694,-0.248 -2.266,-2.043 0.60261,-11.619 1.6064,0.08" inkscape:connector-curvature="0" style="stroke:#ffffff">
      <title id="title8050">Coleman, TX</title>
    </path>
    <path id="c48049" d="m 462.68,448.24 3.7708,0.153 4.7228,8.84 -1.79,0.241 -0.44215,1.759 -3.2145,2.152 -1.0127,0.637 -0.97701,-0.32572 -0.97701,0.79972 -2.1929,-0.218 0.61152,-14.084 1.5012,0.05" inkscape:connector-curvature="0" style="stroke:#ffffff">
      <title id="title8053">Brown, TX</title>
    </path>
    <path id="c48093" d="m 473.81,444.38 4.1559,7.486 1.503,-0.858 0.80229,1.462 0.96632,1.767 -6.076,3.487 -0.52221,-0.90343 -3.4643,0.41543 -4.7228,-8.84 7.3579,-4.016" inkscape:connector-curvature="0" style="stroke:#ffffff">
      <title id="title8056">Comanche, TX</title>
    </path>
    <path id="c48193" d="m 480.27,452.47 4.0025,-2.227 4.4928,8.045 -8.1816,4.635 -1.8078,1.054 -3.6157,-6.253 6.076,-3.487 -0.96632,-1.767" inkscape:connector-curvature="0" style="stroke:#ffffff">
      <title id="title8059">Hamilton, TX</title>
    </path>
    <path id="c48035" d="m 491.93,446.11 2.6832,0.738 -0.21751,1.423 -0.13728,1.196 0.10519,0.974 1.4376,-0.33351 0.35728,0.74681 0.61562,0.30059 -1.0753,1.1461 1.1003,1.3668 1.7814,0.68569 -1.1308,1.6486 0.23355,0.36 0.64897,0.403 -6.4522,3.535 -1.676,-2.7707 -1.4405,0.7617 -4.4928,-8.045 2.7563,-1.542 4.9029,-2.594" inkscape:connector-curvature="0" style="stroke:#ffffff">
      <title id="title8062">Bosque, TX</title>
    </path>
    <path id="c48145" d="m 507.59,462 3.9544,6.967 -4.582,2.612 -4.771,2.708 -4.0115,-6.805 9.41,-5.482" inkscape:connector-curvature="0" style="stroke:#ffffff">
      <title id="title8065">Falls, TX</title>
    </path>
    <path id="c48309" d="m 505.06,457.69 2.5228,4.315 -9.41,5.482 -1.3894,0.84591 -1.3509,-1.8119 -3.5515,-6.219 6.4522,-3.535 4.7175,-2.652 2.0093,3.575" inkscape:connector-curvature="0" style="stroke:#ffffff">
      <title id="title8068">McLennan, TX</title>
    </path>
    <path id="c48217" d="m 494.62,446.85 7.5843,-2.016 2.7058,4.9571 0.94376,-0.50514 3.391,6.001 -4.179,2.403 -2.0093,-3.575 -4.7175,2.652 -0.64897,-0.403 -0.23355,-0.36 1.1308,-1.6486 -1.7814,-0.68569 -1.1003,-1.3668 1.0753,-1.1461 -0.61562,-0.30059 -0.35728,-0.74681 -1.4376,0.33351 -0.10519,-0.974 0.13728,-1.196 0.21751,-1.423" inkscape:connector-curvature="0" style="stroke:#ffffff">
      <title id="title8071">Hill, TX</title>
    </path>
    <path id="c48293" d="m 509.24,455.28 4.3306,0.458 5.0544,8.831 -1.6242,1.287 -5.4627,3.109 -3.9544,-6.967 -2.5228,-4.315 4.179,-2.403" inkscape:connector-curvature="0" style="stroke:#ffffff">
      <title id="title8074">Limestone, TX</title>
    </path>
    <path id="c48161" d="m 522.23,450.93 -0.17472,1.075 1.7258,3.206 1.2462,1.255 0.65966,0.242 1.5582,1.838 0.16937,1.313 -8.7913,4.714 -5.0544,-8.831 8.622,-4.965 0.0392,0.153" inkscape:connector-curvature="0" style="stroke:#ffffff">
      <title id="title8077">Freestone, TX</title>
    </path>
    <path id="c48349" d="m 505.85,449.28 9.9787,-5.804 1.8257,0.844 1.0608,0.966 0.68997,0.827 1.6474,1.994 0.90035,1.34 0.24068,1.327 -8.622,4.965 -4.3306,-0.458 -3.391,-6.001" inkscape:connector-curvature="0" style="stroke:#ffffff">
      <title id="title8080">Navarro, TX</title>
    </path>
    <path id="c48425" d="m 485.54,445.31 3.2348,-1.8939 3.2014,0.0449 -0.0392,2.651 -4.9029,2.594 -1.494,-3.396" inkscape:connector-curvature="0" style="stroke:#ffffff">
      <title id="title8083">Somervell, TX</title>
    </path>
    <path id="c48139" d="m 502.27,438.28 0.94136,0.03 9.82,0.163 1.4851,4.305 1.3175,0.697 -9.9787,5.804 -0.94376,0.50514 -2.7058,-4.9571 0.0642,-6.55" inkscape:connector-curvature="0" style="stroke:#ffffff">
      <title id="title8086">Ellis, TX</title>
    </path>
    <path id="c48251" d="m 492.03,438 1.2837,0.03 8.9518,0.255 -0.0642,6.55 -7.5843,2.016 -2.6832,-0.738 0.0392,-2.651 0.0571,-5.457" inkscape:connector-curvature="0" style="stroke:#ffffff">
      <title id="title8089">Johnson, TX</title>
    </path>
    <path id="c48221" d="m 483.35,437.75 8.679,0.25 -0.0571,5.457 -3.2014,-0.0449 -3.2348,1.8939 -2.2428,-6.461 0.0571,-1.095" inkscape:connector-curvature="0" style="stroke:#ffffff">
      <title id="title8092">Hood, TX</title>
    </path>
    <path id="c48143" d="m 483.3,438.85 2.2428,6.461 1.494,3.396 -2.7563,1.542 -4.0025,2.227 -0.80229,-1.462 -1.503,0.858 -4.1559,-7.486 1.4618,-0.73757 0.16242,-5.0254 7.8589,0.227" inkscape:connector-curvature="0" style="stroke:#ffffff">
      <title id="title8095">Erath, TX</title>
    </path>
    <path id="c48133" d="m 463.45,438.22 10.036,0.298 1.9522,0.1 -0.16242,5.0254 -1.4618,0.73757 -7.3579,4.016 -3.7708,-0.153 0.41006,-10.03 0.35479,0.01" inkscape:connector-curvature="0" style="stroke:#ffffff">
      <title id="title8098">Eastland, TX</title>
    </path>
    <path id="c48059" d="m 453.48,437.88 9.6097,0.336 -0.41006,10.03 -1.5012,-0.05 -8.4544,-0.348 0.41897,-9.988 0.33697,0.02" inkscape:connector-curvature="0" style="stroke:#ffffff">
      <title id="title8101">Callahan, TX</title>
    </path>
    <path id="c48441" d="m 453.15,437.86 -0.41897,9.988 -1.6064,-0.08 -8.4936,-0.369 0.54556,-10.132 9.9734,0.593" inkscape:connector-curvature="0" style="stroke:#ffffff">
      <title id="title8104">Taylor, TX</title>
    </path>
    <path id="c48353" d="m 443.17,437.27 -0.54556,10.132 -1.6153,-0.07 -8.3492,-0.457 0.58657,-10.123 9.9234,0.514" inkscape:connector-curvature="0" style="stroke:#ffffff">
      <title id="title8107">Nolan, TX</title>
    </path>
    <path id="c48151" d="m 436.46,426.8 7.1921,0.401 -0.48316,10.07 -9.9234,-0.514 0.58656,-10.093 2.628,0.136" inkscape:connector-curvature="0" style="stroke:#ffffff">
      <title id="title8110">Fisher, TX</title>
    </path>
    <path id="c48253" d="m 443.66,427.2 2.981,0.121 7.2313,0.362 -0.3851,10.196 -0.33697,-0.02 -9.9734,-0.593 0.48316,-10.07" inkscape:connector-curvature="0" style="stroke:#ffffff">
      <title id="title8113">Jones, TX</title>
    </path>
    <path id="c48417" d="m 453.87,427.68 2.7082,0.1 7.201,0.248 -0.32983,10.196 -0.35479,-0.01 -9.6097,-0.336 0.3851,-10.196" inkscape:connector-curvature="0" style="stroke:#ffffff">
      <title id="title8116">Shackelford, TX</title>
    </path>
    <path id="c48429" d="m 466.57,428.12 7.2064,0.264 -0.28883,10.134 -10.036,-0.298 0.32983,-10.196 2.7884,0.1" inkscape:connector-curvature="0" style="stroke:#ffffff">
      <title id="title8119">Stephens, TX</title>
    </path>
    <path id="c48363" d="m 476.67,427.23 7.1119,0.273 -0.4261,10.244 -0.0571,1.095 -7.8589,-0.227 -1.9522,-0.1 0.28883,-10.134 2.835,0.14813 0.0586,-1.3031" inkscape:connector-curvature="0" style="stroke:#ffffff">
      <title id="title8122">Palo Pinto, TX</title>
    </path>
    <path id="c48367" d="m 483.78,427.51 9.8272,0.392 -0.29061,10.127 -1.2837,-0.03 -8.679,-0.25 0.4261,-10.244" inkscape:connector-curvature="0" style="stroke:#ffffff">
      <title id="title8125">Parker, TX</title>
    </path>
    <path id="c48439" d="m 493.61,427.9 2.7955,0.137 7.0316,0.216 -0.22464,10.062 -0.94136,-0.03 -8.9518,-0.255 0.29061,-10.127" inkscape:connector-curvature="0" style="stroke:#ffffff">
      <title id="title8128">Tarrant, TX</title>
    </path>
    <path id="c48113" d="m 503.43,428.25 3.5996,-0.03 6.3007,0.167 -0.0642,3.89 -0.24068,6.198 -9.82,-0.163 0.22464,-10.062" inkscape:connector-curvature="0" style="stroke:#ffffff">
      <title id="title8131">Dallas, TX</title>
    </path>
    <path id="c48397" d="m 517.55,428.42 -0.0107,3.229 0.004,0.65247 -4.2772,-0.0235 0.0642,-3.89 4.22,0.03" inkscape:connector-curvature="0" style="stroke:#ffffff">
      <title id="title8134">Rockwall, TX</title>
    </path>
    <path id="c48257" d="m 517.54,431.65 4.245,0.08 0.007,11.097 -7.2812,-0.05 -1.4851,-4.305 0.24068,-6.198 4.2772,0.0235 -0.004,-0.65247" inkscape:connector-curvature="0" style="stroke:#ffffff">
      <title id="title8137">Kaufman, TX</title>
    </path>
    <path id="c48379" d="m 525.9,428.48 3.7737,0.0668 0.0185,0.36721 0.5937,5.537 -0.87338,-0.14811 -2.0068,-1.1944 -1.026,0.20065 -1.8543,-1.5432 -0.78292,-0.78395 -0.0694,-0.70884 0.86938,-1.7979 1.3576,0.005" inkscape:connector-curvature="0" style="stroke:#ffffff">
      <title id="title8140">Rains, TX</title>
    </path>
    <path id="c48467" d="m 524.53,431.76 1.8543,1.5432 1.026,-0.20065 2.0068,1.1944 0.87338,0.14811 0.78803,0.765 0.0339,4.778 2.3766,2.532 0.43502,0.331 -12.125,-0.03 -0.007,-11.097 2.7385,0.03" inkscape:connector-curvature="0" style="stroke:#ffffff">
      <title id="title8143">Van Zandt, TX</title>
    </path>
    <path id="c48213" d="m 521.79,442.83 12.125,0.03 -0.17651,5.064 0.61688,1.171 -12.125,1.84 -0.0392,-0.153 -0.24068,-1.327 -0.90035,-1.341 -1.6474,-1.993 -0.68997,-0.827 -1.0608,-0.966 -1.8257,-0.844 -1.3175,-0.697 7.2812,0.05" inkscape:connector-curvature="0" style="stroke:#ffffff">
      <title id="title8146">Henderson, TX</title>
    </path>
    <path id="c48001" d="m 534.36,449.09 -0.3441,3.127 0.31379,1.66 0.72384,2.605 1.3639,1.244 0.26565,0.06 0.44393,0.539 0.27278,0.57 0.27991,0.892 0.0571,0.226 -0.27278,0.385 -4.2932,0.669 -3.1004,0.545 -1.7205,0.876 -0.67651,-0.59868 0.75291,-0.65663 0.1541,-1.043 -0.48335,-0.94638 -0.32881,0.17398 0.0382,0.67621 -0.27087,0.0967 -0.11633,-0.32825 -0.16937,-1.313 -1.5582,-1.838 -0.65966,-0.242 -1.2462,-1.255 -1.7258,-3.206 0.17472,-1.075 12.125,-1.84" inkscape:connector-curvature="0" style="stroke:#ffffff">
      <title id="title8149">Anderson, TX</title>
    </path>
    <path id="c48225" d="m 528.35,462.48 1.7205,-0.876 3.1004,-0.545 4.2932,-0.669 1.2534,0.483 0.82238,-0.40647 0.61204,0.75041 0.86444,0.75041 -0.35553,0.89765 2.1216,1.31 0.90035,0.894 -9.2959,7.65 -3.5943,2.947 -0.72474,-0.93825 -0.28009,-0.93825 0.5536,-1.5496 -2.4477,-0.32687 -0.20147,-0.66 -0.0232,-0.299 0.98771,-3.124 0.44216,-0.497 0.16759,-0.1 0.082,0.02 0.44037,-1.12 -0.87539,-2.505 -0.36192,-0.811 -0.20147,-0.337" inkscape:connector-curvature="0" style="stroke:#ffffff">
      <title id="title8152">Houston, TX</title>
    </path>
    <path id="c48455" d="m 546.01,470.57 -6.9585,7.483 -0.73018,-0.74225 -0.0121,-1.0889 -1.4483,0.14916 -0.334,0.892 -1.2903,-0.10438 -0.84562,-4.4396 9.2959,-7.65 2.3231,5.501" inkscape:connector-curvature="0" style="stroke:#ffffff">
      <title id="title8155">Trinity, TX</title>
    </path>
    <path id="c48373" d="m 551.56,472.51 -1.8809,1.117 2.3873,11.114 0.17833,0.81199 -3.876,0.088 -2.3124,-0.05 -0.15868,-0.32875 0.4356,-0.92302 -2.3872,-0.79922 -1.5948,-0.15542 0.42996,-0.58271 -0.38716,-1.276 -1.4766,-0.13701 -0.43669,-2.3903 -1.431,-0.94353 6.9585,-7.483 2.2322,0.935 1.7133,0.36 1.6064,0.643" inkscape:connector-curvature="0" style="stroke:#ffffff">
      <title id="title8158">Polk, TX</title>
    </path>
    <path id="c48351" d="m 570.42,469.44 0.91461,-0.24 0.0731,7.288 -0.35479,1.542 -2.8205,5.311 -0.22464,0.804 0.0571,0.06 0.55447,0.669 0.27991,1.433 -0.007,0.12 -0.0802,0.199 -0.75772,0.637 -0.0214,0.02 0.60796,3.61 -3.6781,0.127 0.29773,-9.761 0.0481,-6.447 -0.99841,-4.821 6.1099,-0.562" inkscape:connector-curvature="0" style="stroke:#ffffff">
      <title id="title8161">Newton, TX</title>
    </path>
    <path id="c48241" d="m 561.8,470.6 2.5067,-0.595 0.99841,4.821 -0.0481,6.447 -0.29773,9.761 -4.2896,0.114 0.20681,-0.291 0.36193,-2.241 -0.20147,-0.21 -0.0642,-0.02 -0.36014,-0.822 -0.0571,-0.321 0.21751,-0.892 0.17472,-0.531 0.4992,-1.219 -0.29774,-0.484 -0.20681,-0.675 0.0535,-0.177 0.44393,-0.854 -0.0963,-0.922 -1.4049,-2.788 -0.17828,-0.152 -0.44394,-0.06 -0.11945,-0.02 -0.0463,-0.06 -1.3265,-3.867 0.1355,-0.77 -0.0713,-0.184 -0.23355,-0.242 -0.9164,-0.353 -1.166,0.03 -1.9594,0.06 6.429,-1.631 1.7579,-0.844" inkscape:connector-curvature="0" style="stroke:#ffffff">
      <title id="title8164">Jasper, TX</title>
    </path>
    <path id="c48457" d="m 553.61,473.07 1.9594,-0.06 1.166,-0.03 0.9164,0.353 0.23355,0.242 0.0713,0.184 -0.1355,0.77 1.3265,3.867 0.0463,0.06 0.11945,0.02 0.44394,0.07 0.17828,0.151 1.4049,2.788 0.0963,0.922 -0.44393,0.854 -0.0535,0.177 0.20681,0.675 0.29774,0.484 -9.385,0.144 -2.3873,-11.114 1.8809,-1.116 2.0574,0.561" inkscape:connector-curvature="0" style="stroke:#ffffff">
      <title id="title8167">Tyler, TX</title>
    </path>
    <path id="c48005" d="m 545.45,461.83 0.83438,0.924 3.6317,0.932 0.87717,-0.144 0.7702,0.322 1.0376,0.544 0.2496,0.268 3.2609,3.952 3.9312,2.812 -6.429,1.631 -2.0574,-0.562 -1.6064,-0.643 -1.7133,-0.36 -2.2322,-0.935 -2.3231,-5.501 -0.90035,-0.894 2.669,-2.346" inkscape:connector-curvature="0" style="stroke:#ffffff">
      <title id="title8170">Angelina, TX</title>
    </path>
    <path id="c48403" d="m 565.58,460.11 2.1127,2.219 1.8007,2.612 0.58656,2.557 0.1355,0.754 0.20325,1.189 -6.1099,0.562 -2.5067,0.595 -0.16759,-0.538 -0.0713,-3.206 0.016,-2.595 0.83438,-0.899 0.32805,-0.419 -0.0784,-2.369 2.9168,-0.462" inkscape:connector-curvature="0" style="stroke:#ffffff">
      <title id="title8173">Sabine, TX</title>
    </path>
    <path id="c48405" d="m 562.66,460.57 0.0784,2.369 -0.32805,0.419 -0.83438,0.899 -0.016,2.595 0.0713,3.206 0.16759,0.538 -1.7579,0.844 -3.9312,-2.812 0.10519,-2.747 0.14441,-5.249 -1.3657,-1.526 -0.46533,-0.323 6.035,0.644 2.0967,1.143" inkscape:connector-curvature="0" style="stroke:#ffffff">
      <title id="title8176">San Augustine, TX</title>
    </path>
    <path id="c48419" d="m 552.22,451.44 9.6418,-0.312 2.7403,3.062 0.98058,5.919 -2.9168,0.462 -2.0967,-1.143 -6.035,-0.644 -1.1179,-4.379 -1.1963,-2.965" inkscape:connector-curvature="0" style="stroke:#ffffff">
      <title id="title8179">Shelby, TX</title>
    </path>
    <path id="c48347" d="m 543.97,454.51 9.4403,-0.106 1.1179,4.379 0.46533,0.323 1.3657,1.526 -0.14441,5.249 -0.10519,2.747 -3.2609,-3.952 -0.2496,-0.268 -1.0376,-0.544 -0.7702,-0.322 -0.87717,0.144 -3.6317,-0.932 -0.83438,-0.924 -1.0626,-1.046 -0.0945,-0.152 -0.48138,-1.309 -0.35657,-1.326 -0.2086,-2.059 0.72563,-1.428" inkscape:connector-curvature="0" style="stroke:#ffffff">
      <title id="title8182">Nacogdoches, TX</title>
    </path>
    <path id="c48073" d="m 533.74,447.92 9.2174,-0.132 -0.10349,6.7514 1.1162,-0.0244 -0.72563,1.428 0.2086,2.059 0.35657,1.326 0.48138,1.309 0.0945,0.152 1.0626,1.046 -2.669,2.346 -2.1216,-1.31 0.35553,-0.89765 -0.86444,-0.75041 -0.61204,-0.75041 -0.82238,0.40647 -1.2534,-0.483 0.27278,-0.385 -0.0571,-0.226 -0.27991,-0.892 -0.27278,-0.57 -0.44393,-0.539 -0.26565,-0.06 -1.3639,-1.244 -0.72384,-2.605 -0.31379,-1.66 0.3441,-3.127 -0.61688,-1.171" inkscape:connector-curvature="0" style="stroke:#ffffff">
      <title id="title8185">Cherokee, TX</title>
    </path>
    <path id="c48365" d="m 561.14,441.64 0.0981,4.523 0.62579,4.967 -9.6418,0.312 -1.7187,0.04 -0.066,-2.458 0.37618,-2.846 0.42611,-1.062 0.61866,-1.091 0.58121,-1.407 0.0143,-0.875 0.55448,0.49 2.0966,0.9 0.16224,0.03 5.8728,-1.525" inkscape:connector-curvature="0" style="stroke:#ffffff">
      <title id="title8188">Panola, TX</title>
    </path>
    <path id="c48401" d="m 550.75,441.76 1.6955,-0.01 -0.0143,0.875 -0.58121,1.407 -0.61866,1.091 -0.42611,1.062 -0.37618,2.846 0.066,2.458 1.7187,-0.04 1.1963,2.965 -9.4403,0.106 -1.1162,0.0244 0.10349,-6.7514 -0.0731,-5.335 3.416,-0.07 3.2056,-0.03 0.95071,0.16302 0.29373,-0.75102" inkscape:connector-curvature="0" style="stroke:#ffffff">
      <title id="title8191">Rusk, TX</title>
    </path>
    <path id="c48183" d="m 542.81,438.58 0.31378,-0.03 2.9096,-1.246 1.1482,-1.597 0.14441,-0.06 0.90749,0.104 0.057,0.112 0.0713,4.598 0.025,0.69 1.15,0.555 1.0198,0.133 0.19255,-0.07 -0.29373,0.75102 -0.95071,-0.16302 -3.2056,0.03 -3.416,0.07 -0.0731,-3.874" inkscape:connector-curvature="0" style="stroke:#ffffff">
      <title id="title8194">Gregg, TX</title>
    </path>
    <path id="c48423" d="m 531.07,435.21 1.7454,1.564 0.55269,0.242 5.5518,1.391 0.13907,-0.02 0.36905,-0.18 0.1765,-0.359 3.2056,0.722 0.0731,3.875 0.0731,5.334 -9.2174,0.132 0.17651,-5.064 -0.43502,-0.331 -2.3766,-2.532 -0.0339,-4.778" inkscape:connector-curvature="0" style="stroke:#ffffff">
      <title id="title8197">Smith, TX</title>
    </path>
    <path id="c48499" d="m 539.54,427.63 0.0232,2.562 0.0481,7.666 -0.1765,0.359 -0.36905,0.18 -0.13907,0.02 -5.5518,-1.391 -0.55269,-0.242 -1.7454,-1.564 -0.78803,-0.765 -0.5937,-5.537 6.8462,-0.09 2.5879,0.10808 0.41085,-1.3041" inkscape:connector-curvature="0" style="stroke:#ffffff">
      <title id="title8200">Wood, TX</title>
    </path>
    <path id="c48203" d="m 548.25,432.62 3.7922,2.233 2.3641,-0.02 0.6347,-0.323 2.291,-0.296 1.355,-0.112 0.98236,0.12 1.3175,0.49 0.15155,6.935 -5.8728,1.525 -0.16224,-0.03 -2.0966,-0.9 -0.55448,-0.49 -1.6955,0.01 -0.19255,0.07 -1.0198,-0.133 -1.15,-0.555 -0.025,-0.69 -0.0713,-4.598 -0.0481,-3.238" inkscape:connector-curvature="0" style="stroke:#ffffff">
      <title id="title8203">Harrison, TX</title>
    </path>
    <path id="c48459" d="m 539.56,430.19 8.3082,-0.146 0.28169,0.586 0.0963,1.986 0.0481,3.238 -0.057,-0.112 -0.90749,-0.104 -0.14441,0.06 -1.1482,1.597 -2.9096,1.246 -0.31378,0.03 -3.2056,-0.722 -0.0481,-7.666" inkscape:connector-curvature="0" style="stroke:#ffffff">
      <title id="title8206">Upshur, TX</title>
    </path>
    <path id="c48063" d="m 539.54,427.63 0.49742,-0.492 1.6385,-0.893 0.4261,-0.08 0.34588,0 1.1321,0.02 0.25852,0.09 1.0198,1.262 1.0768,0.738 1.9362,1.783 -8.3082,0.146 -0.0232,-2.562" inkscape:connector-curvature="0" style="stroke:#ffffff">
      <title id="title8209">Camp, TX</title>
    </path>
    <path id="c48315" d="m 549.15,430.61 11.756,-0.243 0.0802,4.34 -1.3175,-0.49 -0.98236,-0.12 -1.355,0.112 -2.291,0.296 -0.6347,0.323 -2.3641,0.02 -3.7922,-2.233 -0.0963,-1.986 0.99663,-0.02" inkscape:connector-curvature="0" style="stroke:#ffffff">
      <title id="title8212">Marion, TX</title>
    </path>
    <path id="c48067" d="m 549.06,421.62 0.0481,0.222 0.16046,0.128 0.64362,0.126 1.3137,-0.16235 0.84357,-0.46894 1.533,-0.12426 0.59562,0.75683 2.9223,0.0387 0.041,-0.07 -0.066,-0.208 -0.0553,-0.482 0.30665,-0.545 0.60083,-0.209 0.47425,-0.107 1.7276,0.277 0.40114,0.207 0.16224,0.361 0.12124,5.811 0.0713,3.189 -11.756,0.243 -0.0891,-8.988" inkscape:connector-curvature="0" style="stroke:#ffffff">
      <title id="title8215">Cass, TX</title>
    </path>
    <path id="c48343" d="m 546.03,419.47 1.1999,0.788 1.831,1.363 0.0891,8.988 -0.99663,0.02 -0.28169,-0.586 -1.9362,-1.783 0.0945,-8.791" inkscape:connector-curvature="0" style="stroke:#ffffff">
      <title id="title8218">Morris, TX</title>
    </path>
    <path id="c48449" d="m 546.03,419.47 -0.0945,8.791 -1.0768,-0.738 -1.0198,-1.263 -0.25852,-0.09 -1.1321,-0.02 -0.34588,0 -0.4261,0.08 -1.6385,0.893 -0.066,-8.194 6.0582,0.528" inkscape:connector-curvature="0" style="stroke:#ffffff">
      <title id="title8221">Titus, TX</title>
    </path>
    <path id="c48159" d="m 539.97,418.94 0.066,8.194 -0.49742,0.492 -0.41085,1.3041 -2.5879,-0.10808 -0.0642,-9.563 0.0392,-0.03 1.3023,0.26829 2.1529,-0.55729" inkscape:connector-curvature="0" style="stroke:#ffffff">
      <title id="title8224">Franklin, TX</title>
    </path>
    <path id="c48223" d="m 525.91,422.94 1.5761,-0.935 0.85934,-1.003 1.6398,-0.0548 0.73855,-1.0312 0.4582,-0.193 0.98057,-0.03 4.3146,-0.433 0.0642,9.563 -6.8462,0.09 -0.0184,-0.36721 -3.7737,-0.0668 0.007,-5.535" inkscape:connector-curvature="0" style="stroke:#ffffff">
      <title id="title8227">Hopkins, TX</title>
    </path>
    <path id="c48119" d="m 525.98,417.35 1.4869,-0.692 0.35301,-0.1 2.6511,0.192 0.37083,0.06 2.0967,0.658 0.37084,0.161 1.9362,1.317 1.2284,0.225 0.0392,0.06 -0.0392,0.03 -4.3146,0.433 -0.98057,0.03 -0.4582,0.193 -0.73855,1.0312 -1.6398,0.0548 -0.85934,1.003 -1.5761,0.935 0.0499,-4.395 0.0232,-1.198" inkscape:connector-curvature="0" style="stroke:#ffffff">
      <title id="title8230">Delta, TX</title>
    </path>
    <path id="c48231" d="m 525.96,418.55 -0.0499,4.395 -0.007,5.535 -1.3576,-0.005 -0.86938,1.7979 0.0694,0.70884 0.78292,0.78395 -2.7385,-0.03 -4.245,-0.08 0.0107,-3.229 0.0624,-8.549 8.342,-1.324" inkscape:connector-curvature="0" style="stroke:#ffffff">
      <title id="title8233">Hunt, TX</title>
    </path>
    <path id="c48085" d="m 507.32,418.58 8.5916,0.232 -0.0499,1.3947 1.7526,-0.3327 -0.0624,8.549 -4.22,-0.03 -6.3007,-0.167 0.28882,-9.644" inkscape:connector-curvature="0" style="stroke:#ffffff">
      <title id="title8236">Collin, TX</title>
    </path>
    <path id="c48121" d="m 496.84,417.88 8.3902,0.426 2.0877,0.273 -0.28882,9.644 -3.5996,0.03 -7.0316,-0.216 0.44215,-10.157" inkscape:connector-curvature="0" style="stroke:#ffffff">
      <title id="title8239">Denton, TX</title>
    </path>
    <path id="c48497" d="m 486.63,417.62 8.2297,0.152 1.9843,0.105 -0.44215,10.157 -2.7955,-0.137 -7.2474,-0.289 0.27099,-9.988" inkscape:connector-curvature="0" style="stroke:#ffffff">
      <title id="title8242">Wise, TX</title>
    </path>
    <path id="c48237" d="m 477.04,416.64 8.4437,0.192 -0.0338,0.76549 1.182,0.0225 -0.27099,9.988 -2.5798,-0.103 -7.1119,-0.273 0.34587,-8.959 0.025,-1.633" inkscape:connector-curvature="0" style="stroke:#ffffff">
      <title id="title8245">Jack, TX</title>
    </path>
    <path id="c48503" d="m 466.82,417.95 10.189,0.323 -0.34587,8.959 -0.0586,1.3031 -2.835,-0.14813 -7.2064,-0.264 0.25673,-10.173" inkscape:connector-curvature="0" style="stroke:#ffffff">
      <title id="title8248">Young, TX</title>
    </path>
    <path id="c48447" d="m 456.92,417.58 9.9003,0.369 -0.25673,10.173 -2.7884,-0.1 -7.201,-0.248 0.34587,-10.198" inkscape:connector-curvature="0" style="stroke:#ffffff">
      <title id="title8251">Throckmorton, TX</title>
    </path>
    <path id="c48207" d="m 447.02,417.24 9.9003,0.346 -0.34587,10.198 -2.7082,-0.1 -7.2313,-0.362 0.3851,-10.084" inkscape:connector-curvature="0" style="stroke:#ffffff">
      <title id="title8254">Haskell, TX</title>
    </path>
    <path id="c48433" d="m 436.97,416.77 10.052,0.467 -0.3851,10.084 -2.981,-0.121 -7.1921,-0.401 0.50634,-10.029" inkscape:connector-curvature="0" style="stroke:#ffffff">
      <title id="title8257">Stonewall, TX</title>
    </path>
    <path id="c48125" d="m 427.51,406.22 9.9163,0.449 -0.45819,10.1 -9.9484,-0.483 0.49029,-10.066" inkscape:connector-curvature="0" style="stroke:#ffffff">
      <title id="title8260">Dickens, TX</title>
    </path>
    <path id="c48345" d="m 428.09,395.16 1.8007,0.09 8.0924,0.374 -0.55448,11.045 -9.9163,-0.449 0.57765,-11.057" inkscape:connector-curvature="0" style="stroke:#ffffff">
      <title id="title8263">Motley, TX</title>
    </path>
    <path id="c48191" d="m 438.02,385.58 2.3462,0.12 -0.50633,10.021 -1.872,-0.1 -8.0924,-0.374 0.54734,-10.052 7.5772,0.385" inkscape:connector-curvature="0" style="stroke:#ffffff">
      <title id="title8266">Hall, TX</title>
    </path>
    <path id="c48129" d="m 438.53,375.52 -0.51346,10.06 -7.5772,-0.385 -2.7331,-0.146 0.61866,-10.018 10.205,0.489" inkscape:connector-curvature="0" style="stroke:#ffffff">
      <title id="title8269">Donley, TX</title>
    </path>
    <path id="c48179" d="m 428.87,364.93 10.118,0.507 -0.4582,10.084 -10.205,-0.489 0.54556,-10.102" inkscape:connector-curvature="0" style="stroke:#ffffff">
      <title id="title8272">Gray, TX</title>
    </path>
    <path id="c48393" d="m 429.42,354.85 0,-0.06 9.9395,0.53 0.12123,0 -0.49029,10.111 -10.118,-0.507 0.009,-0.144 0.53843,-9.941" inkscape:connector-curvature="0" style="stroke:#ffffff">
      <title id="title8275">Roberts, TX</title>
    </path>
    <path id="c48357" d="m 432.37,344.7 7.4809,0.376 -0.4992,10.246 -9.9395,-0.53 0.55447,-10.212 2.4033,0.12" inkscape:connector-curvature="0" style="stroke:#ffffff">
      <title id="title8278">Ochiltree, TX</title>
    </path>
    <path id="c48295" d="m 439.86,345.08 9.9484,0.444 -0.37796,10.278 -9.9484,-0.469 -0.12123,0 0.4992,-10.246" inkscape:connector-curvature="0" style="stroke:#ffffff">
      <title id="title8281">Lipscomb, TX</title>
    </path>
    <path id="c48211" d="m 449.43,355.8 -0.16938,4.04 -0.24782,6.06 -10.022,-0.458 0.49029,-10.111 9.9484,0.469" inkscape:connector-curvature="0" style="stroke:#ffffff">
      <title id="title8284">Hemphill, TX</title>
    </path>
    <path id="c48483" d="m 438.99,365.44 10.022,0.458 -0.4261,10.093 -10.054,-0.467 0.4582,-10.084" inkscape:connector-curvature="0" style="stroke:#ffffff">
      <title id="title8287">Wheeler, TX</title>
    </path>
    <path id="c48087" d="m 438.53,375.52 10.054,0.467 -0.15333,3.519 -0.27278,6.565 -7.7947,-0.371 -2.3462,-0.12 0.51346,-10.06" inkscape:connector-curvature="0" style="stroke:#ffffff">
      <title id="title8290">Collingsworth, TX</title>
    </path>
    <path id="c48075" d="m 440.36,385.7 7.7947,0.371 -0.12836,4.275 -0.24961,5.769 -7.9231,-0.394 0.50633,-10.021" inkscape:connector-curvature="0" style="stroke:#ffffff">
      <title id="title8293">Childress, TX</title>
    </path>
    <path id="c48101" d="m 437.98,395.62 1.872,0.1 7.9231,0.394 -0.0802,2.018 -0.21037,-0.411 -0.52952,0.05 -0.18542,0.202 -0.41719,9.085 -8.9268,-0.392 0.55448,-11.045" inkscape:connector-curvature="0" style="stroke:#ffffff">
      <title id="title8296">Cottle, TX</title>
    </path>
    <path id="c48269" d="m 437.43,406.67 8.9268,0.393 0.9895,0.05 -0.3227,10.125 -10.052,-0.467 0.45819,-10.1" inkscape:connector-curvature="0" style="stroke:#ffffff">
      <title id="title8299">King, TX</title>
    </path>
    <path id="c48275" d="m 457.16,409.86 -0.24069,7.723 -9.9003,-0.346 0.3227,-10.125 3.0523,0.129 2.5093,0.92567 0.30845,-0.47099 2.6628,0.68632 0.96453,0.683 0.27278,0.497 0.0481,0.298" inkscape:connector-curvature="0" style="stroke:#ffffff">
      <title id="title8302">Knox, TX</title>
    </path>
    <path id="c48155" d="m 447.7,398.14 3.4392,2.659 4.0085,0.788 0.87657,0.788 1.1339,-0.187 0.21573,-0.225 0.0731,-0.225 -0.21751,5.804 -0.0642,2.321 -0.0481,-0.298 -0.27278,-0.497 -0.96453,-0.683 -2.6628,-0.68632 -0.30845,0.47099 -2.5093,-0.92567 -3.0523,-0.129 -0.9895,-0.05 0.41719,-9.086 0.18542,-0.201 0.52952,-0.05 0.21037,0.412" inkscape:connector-curvature="0" style="stroke:#ffffff">
      <title id="title8305">Foard, TX</title>
    </path>
    <path id="c48197" d="m 450.78,391.72 0.98058,1.271 0.47424,0.561 1.3175,1.254 0.57943,0.137 0.89144,0 0.73276,-0.925 0.10341,-0.04 0.20859,0.03 0.90035,0.105 0.28883,0.121 0.46711,0.273 -0.2817,7.231 -0.0731,0.225 -0.21573,0.225 -1.1339,0.187 -0.87657,-0.788 -4.0085,-0.788 -3.4392,-2.658 0.0802,-2.019 0.24961,-5.769 2.7545,1.373" inkscape:connector-curvature="0" style="stroke:#ffffff">
      <title id="title8308">Hardeman, TX</title>
    </path>
    <path id="c48009" d="m 467.15,407.88 10.059,0.24 -0.17472,8.526 -0.025,1.633 -10.189,-0.323 0.32983,-10.076" inkscape:connector-curvature="0" style="stroke:#ffffff">
      <title id="title8311">Archer, TX</title>
    </path>
    <path id="c48023" d="m 467.15,407.88 -0.32983,10.076 -9.9003,-0.369 0.24069,-7.723 0.0642,-2.321 9.9252,0.337" inkscape:connector-curvature="0" style="stroke:#ffffff">
      <title id="title8314">Baylor, TX</title>
    </path>
    <path id="c48487" d="m 462.64,396.1 -0.0232,0.532 -0.0161,0.499 0.32805,1.783 0.009,0.01 0.24069,0.07 0.3851,0.119 0.7078,0.161 0.35301,-0.02 0.76307,-0.01 1.7436,0.138 0.025,0 0.26565,0.133 -0.27278,8.351 -9.9252,-0.337 0.21751,-5.803 0.2817,-7.231 0.61865,0.586 0.63471,0.06 0.14441,-0.06 0.016,0 0.025,-0.04 0.007,-0.02 0.8112,-1.454 0.82725,0.45 0.94136,0.506 0.89143,1.551 0,0.02" inkscape:connector-curvature="0" style="stroke:#ffffff">
      <title id="title8317">Wilbarger, TX</title>
    </path>
    <path id="c48485" d="m 473.88,400.51 0.19255,0.01 0.41897,0.277 0.43324,0.369 0.89856,1.446 0.54021,0.194 0.007,0 0.016,-0.02 1.0127,-0.909 -0.18542,6.22 -10.059,-0.241 0.27278,-8.351 1.7508,1.047 1.7436,0.426 1.2373,0.05 1.7205,-0.53" inkscape:connector-curvature="0" style="stroke:#ffffff">
      <title id="title8320">Wichita, TX</title>
    </path>
    <path id="c48077" d="m 483.34,403.7 0.32983,0.66 0.0481,0.05 0.0321,0 0.80408,0.241 0.43326,0 0.65967,-0.161 0.7078,0.28 0.007,0 -0.16938,1.229 -0.49028,1.061 -0.22465,9.771 -8.4437,-0.192 0.17472,-8.526 0.18542,-6.22 0.76307,-0.965 0.36905,-0.208 0.72385,0.162 2.9417,0.923 1.1482,1.888" inkscape:connector-curvature="0" style="stroke:#ffffff">
      <title id="title8323">Clay, TX</title>
    </path>
    <path id="c48337" d="m 495.09,406.64 -0.23356,11.136 -8.2297,-0.152 -1.182,-0.0225 0.0338,-0.76549 0.22465,-9.771 0.21037,0.194 1.6777,0.765 0.22643,0.02 0.59369,-0.176 0.94849,-0.747 0.99663,-1.036 0.65074,-0.82 1.9362,1.292 0.68284,0.476 1.4637,-0.394" inkscape:connector-curvature="0" style="stroke:#ffffff">
      <title id="title8326">Montague, TX</title>
    </path>
    <path id="c48097" d="m 505.34,406 -0.10341,12.303 -8.3902,-0.426 -1.9843,-0.105 0.23356,-11.136 0.37618,1.719 0.0499,0.119 0.0161,0.04 0.11232,0.136 0.16759,0.112 1.1067,0.30417 2.6803,-2.3801 1.3381,0.65128 -0.71938,1.9686 1.1319,1.8761 0.26565,0.09 0.30487,0.04 0.27278,-0.09 0.19255,-0.153 0.0891,-0.119 2.8597,-4.96" inkscape:connector-curvature="0" style="stroke:#ffffff">
      <title id="title8329">Cooke, TX</title>
    </path>
    <path id="c48147" d="m 526.24,408.59 -0.25673,8.76 -0.0232,1.198 -8.342,1.324 -1.7526,0.3327 0.0499,-1.3947 0.12837,-7.617 0.18363,0.252 2.8366,-0.701 0.39401,-0.105 0.34588,-0.148 0.0232,-0.03 0.17828,-0.185 0.0232,-0.03 0.009,-0.02 0.0481,-0.154 0.0553,-0.176 0.016,-0.06 0.009,-0.06 0.11945,-0.555 0.16046,-0.563 0.96454,-0.223 2.1377,-0.178 0.41006,-0.03 0.25851,-0.03 1.1,0.217 0.92353,0.169" inkscape:connector-curvature="0" style="stroke:#ffffff">
      <title id="title8332">Fannin, TX</title>
    </path>
    <path id="c48181" d="m 505.52,405.9 0.96454,1.983 0.312,0.349 0.19255,0.134 1.7936,0.549 0.92352,-0.155 0.0161,0 1.9041,-0.859 -0.0642,0.369 0.016,0.283 0.016,0.111 0.0161,0.06 1.9522,1.31 0.17651,0.122 0.025,0 0.97344,-0.186 0.22464,0.03 0.24961,0.08 0.82725,1.125 -0.12837,7.617 -8.5916,-0.232 -2.0877,-0.273 0.10341,-12.303 0.18541,-0.104" inkscape:connector-curvature="0" style="stroke:#ffffff">
      <title id="title8335">Grayson, TX</title>
    </path>
    <path id="c48277" d="m 536.35,407.83 0.11945,11.338 -1.2284,-0.225 -1.9362,-1.317 -0.37084,-0.161 -2.0967,-0.658 -0.37083,-0.06 -2.6511,-0.192 -0.35301,0.1 -1.4869,0.692 0.25673,-8.76 1.6313,-0.611 0.007,0 1.5921,-0.829 1.3906,-0.722 0.61687,0.03 0.14441,0.06 0.20147,0.513 -0.005,0.154 -0.0571,0.162 0.005,0.118 0,0.02 0.0749,0.128 0.0713,0.06 1.8809,0.25 0.71315,0.06 1.2872,-0.06 0.009,0 0.55448,-0.07" inkscape:connector-curvature="0" style="stroke:#ffffff">
      <title id="title8338">Lamar, TX</title>
    </path>
    <path id="c48007" d="m 497.55,540.95 0.3958,0.322 0.0642,0 1.8239,-0.884 2.5798,-1.945 0.12658,-0.346 -0.42432,-0.01 -0.44215,-0.06 -0.7809,-0.468 -0.45641,-0.611 -0.0321,-0.467 6.766,-0.986 -0.16938,1.059 0.24069,0.387 0,0.128 -0.27278,0.594 -0.20146,0.153 -2.562,1.7358 -0.57051,0 -0.90178,-0.0783 -0.46861,0.68944 -0.40714,2.059 -1.79,2.715 -2.5174,-3.995 m 8.7931,-0.73 -0.4992,1.156 -3.9687,5.079 -0.10519,-0.291 4.5731,-5.944" inkscape:connector-curvature="0" style="stroke:#ffffff">
      <title id="title8341">Aransas, TX</title>
    </path>
    <path id="c48061" d="m 484.52,580.11 6.9425,1.23 1.7746,-0.73318 0.8112,-1.007 0.0981,0.05 0.0849,1.1734 0.47142,1.812 -0.0267,1.7054 0.92436,1.8786 2.1859,2.0968 0.0499,0.06 -0.24247,0.786 -2.5122,0.065 -1.2045,0.98098 -0.0826,1.231 -1.8488,-0.565 -0.2906,-0.177 -0.28705,-0.223 -1.191,-0.941 -1.7508,-1.952 -0.0731,-0.259 -2.3784,-0.415 -1.5832,-0.275 0.12837,-6.518 m 12.945,-1.229 0.35301,0 0.57052,2.395 0.17828,0.9 0.24069,1.696 0.36192,2.861 -0.0963,-0.02 -0.0571,0 -0.16759,-0.233 -0.18542,-1.549 0.0232,-0.708 -0.0963,-0.845 -0.20146,-1.3 -0.40115,-1.872 -0.24069,-0.731 -0.28169,-0.588" inkscape:connector-curvature="0" style="stroke:#ffffff">
      <title id="title8344">Cameron, TX</title>
    </path>
    </g>
  </svg>
