<svg xmlns:dc="http://purl.org/dc/elements/1.1/" xmlns:cc="http://creativecommons.org/ns#" xmlns:rdf="http://www.w3.org/1999/02/22-rdf-syntax-ns#" xmlns:svg="http://www.w3.org/2000/svg" xmlns="http://www.w3.org/2000/svg" xmlns:sodipodi="http://sodipodi.sourceforge.net/DTD/sodipodi-0.dtd" xmlns:inkscape="http://www.inkscape.org/namespaces/inkscape" width="157.5820799999999" height="82.28000000000003" version="1.0" id="svg2" inkscape:version="0.91 r13725" sodipodi:docname="USA counties.svg">
  <defs id="defs9439"/>
  <sodipodi:namedview pagecolor="#ffffff" bordercolor="#666666" borderopacity="1" objecttolerance="10" gridtolerance="10" guidetolerance="10" inkscape:pageopacity="0" inkscape:pageshadow="2" inkscape:window-width="798" inkscape:window-height="828" id="namedview9437" showgrid="false" showguides="true" inkscape:zoom="0.64950808" inkscape:cx="494.98999" inkscape:cy="313.535" inkscape:window-x="-7" inkscape:window-y="0" inkscape:window-maximized="0" inkscape:current-layer="svg2"/>
  <metadata id="metadata4">
    <rdf:RDF>
      <cc:Work>
        <dc:format>image/svg+xml</dc:format>
        <dc:type rdf:resource="http://purl.org/dc/dcmitype/StillImage"/>
        <dc:title/>
        <cc:license rdf:resource="http://creativecommons.org/publicdomain/zero/1.0/"/>
        <dc:date>2019-10-06</dc:date>
        <dc:creator>
          <cc:Agent>
            <dc:title>U.S. Census Bureau, Abe.suleiman, Lokal_Profil</dc:title>
          </cc:Agent>
        </dc:creator>
        <dc:source>https://commons.wikimedia.org/wiki/File:Usa_counties_large.svg</dc:source>
      </cc:Work>
      <cc:License rdf:about="http://creativecommons.org/publicdomain/zero/1.0/">
        <cc:permits rdf:resource="http://creativecommons.org/ns#Reproduction"/>
        <cc:permits rdf:resource="http://creativecommons.org/ns#Distribution"/>
        <cc:permits rdf:resource="http://creativecommons.org/ns#DerivativeWorks"/>
      </cc:License>
    </rdf:RDF>
  </metadata>
  <style id="style6">
  /*
   * Below are Cascading Style Sheet (CSS) definitions in use in this file,
   * which allow easily changing how counties are displayed.
   *
   *
   * For the U.S. Census county codes (FIPS codes) used in this file to identify individual counties, see this link:
   * https://www2.census.gov/geo/docs/reference/codes/files/national_county.txt
   *
   * The county codes used in this file combine the 2-digit state code, which is in the second column of the file
   * linked above, and the 3-digit county code, which is in the third column of the file linked above. Each value
   * for the "id" attribute for each county is in the following form: "c[state_code][county-code]". For example,
   * for Loving Country in Texas, the state code is "48" and the county code is "301", so the id name for the
   * county is "c48301".
   *
   * County codes used in this file can also be found on Wikimedia Commons at this link:
   * https://commons.wikimedia.org/wiki/File_talk:Usa_counties_large.svg/county_codes
   *
   * Examples:
   *
   * To color two counties red (in this case Loving County and Dallas County in Texas) simply
   * go to the CSS insertion point and add:
   *
   * #c48301, #c48113 {fill:red}
   *
   * To color an entire state's counties (in the case New Mexico, with "35" being the state code) a green,
   * go to the CSS insertion point and add:
   *
   * path[id*='c35'] {fill:#34A853}
   *
   */
  #counties {fill:#d0d0d0;stroke:#000;stroke-width:.17829;} 
  #borders {fill:none;stroke:#221e1f;stroke-width:.89143;} 
  #separator {fill:none;stroke:#a9a9a9;stroke-width:2.3177309;}
 </style>
  <g id="counties" transform="translate(-394.86944000000005,-330.77)" style="fill:#d0d0d0;stroke:#ffffff;stroke-width:0.17828999">
    <path id="c40139" d="m 422.03,332.62 8.8965,0.443 2.209,0.112 -0.18542,3.455 -0.15155,0 -0.4261,8.062 -2.4033,-0.119 -9.8682,-0.563 -7.4791,-0.473 0.8023,-11.396 8.6059,0.474" inkscape:connector-curvature="0" style="stroke:#ffffff">
      <title id="title6409">Texas, OK</title>
    </path>
    <path id="c40025" d="m 395.72,330.77 2.307,0.178 9.451,0.779 5.6963,0.401 0.25674,0.02 -0.8023,11.396 -2.3873,-0.155 -15.372,-1.068 0.85043,-11.547" inkscape:connector-curvature="0" style="stroke:#ffffff">
      <title id="title6412">Cimarron, OK</title>
    </path>
    <path id="c40115" d="m 548.46,335.34 0.0731,5.359 0.0392,2.291 -6.6773,0.0126 0.055,-6.2334 -0.57159,-0.002 -0.0213,-1.3649 7.103,-0.06" inkscape:connector-curvature="0" style="stroke:#ffffff">
      <title id="title6415">Ottawa, OK</title>
    </path>
    <path id="c40035" d="m 540.15,335.4 1.1981,0 0.0214,1.3649 0.57159,0.002 -0.055,6.2334 0.0181,1.9348 -0.36204,0.006 -0.0407,1.805 -5.9156,0.04 0.0486,-2.0077 -1.9598,7e-4 -0.0238,-7.7682 0.43038,0.007 -0.0287,-1.5532 6.0974,-0.06" inkscape:connector-curvature="0" style="stroke:#ffffff">
      <title id="title6418">Craig, OK</title>
    </path>
    <path id="c40097" d="m 541.51,346.74 -0.0178,8.06 -1.9754,0.02 0.025,2.017 -1.6563,0 -4.2914,0.02 -0.016,-4.029 0.0499,-6.041 1.9665,-0.02 5.9156,-0.04" inkscape:connector-curvature="0" style="stroke:#ffffff">
      <title id="title6421">Mayes, OK</title>
    </path>
    <path id="c40041" d="m 548.57,342.99 0.0553,3.903 1.1339,7.803 -4.3217,0.07 -3.9473,0.04 0.0178,-8.06 0.0407,-1.805 0.36204,-0.006 -0.0181,-1.9348 6.6773,-0.0126" inkscape:connector-curvature="0" style="stroke:#ffffff">
      <title id="title6424">Delaware, OK</title>
    </path>
    <path id="c40001" d="m 545.44,354.76 4.3217,-0.07 0.21751,1.377 1.6402,10.709 -6.2115,0.09 -0.082,-6.078 0.15511,-2.481 -0.041,-3.552" inkscape:connector-curvature="0" style="stroke:#ffffff">
      <title id="title6427">Adair, OK</title>
    </path>
    <path id="c40021" d="m 541.49,354.8 3.9473,-0.04 0.041,3.552 -0.15511,2.481 0.082,6.078 -5.9476,0.06 -0.1395,-3.9651 -2.4546,-0.0449 -0.041,-0.06 -0.29774,-2.122 0.0731,-1.31 0.11233,-0.216 0.36905,-0.33 0.25673,-0.01 0.0731,-0.08 0.48138,-1.13 -0.007,-0.806 1.6563,0 -0.025,-2.017 1.9754,-0.02" inkscape:connector-curvature="0" style="stroke:#ffffff">
      <title id="title6430">Cherokee, OK</title>
    </path>
    <path id="c40135" d="m 551.61,366.78 0.84152,5.554 -0.007,0.403 -1.2076,0.96187 -0.002,0.4939 0.39422,0.31543 -0.20069,0.37492 -0.37916,0.13696 -0.26734,-0.44368 -3.0039,-0.007 -0.01,-0.52299 -0.85222,-0.562 -0.37796,-0.105 -0.36014,0.04 -0.10341,0.05 -0.7078,0.697 -1.7757,-1.712 -0.61152,0 -0.9164,-0.24 -0.27456,-0.1 -0.28704,-0.264 -0.5723,-0.779 -1.4156,-1.3567 -0.0624,-2.7973 5.9476,-0.06 6.2115,-0.09" inkscape:connector-curvature="0" style="stroke:#ffffff">
      <title id="title6433">Sequoyah, OK</title>
    </path>
    <path id="c40061" d="m 540.93,371.08 0.5723,0.779 0.28704,0.264 0.27456,0.1 0.9164,0.24 0.61152,0 1.7757,1.712 0.0143,2.305 -1.3978,0.508 -0.71671,0 0.041,3.343 -7.8803,0.07 -0.0178,-2.362 -1.9683,0 -0.0178,-0.981 0.0678,-2.153 0.72167,-0.63082 0.74346,0.0188 0.51743,0.66207 0.004,0.34332 1.3329,0.0311 0.0115,0.57009 0.82867,-0.004 0.28107,-0.46603 0.27963,0.25383 0.62737,-0.7894 -0.23768,-0.27135 0.59191,-1.6628 1.4334,-1.687 0.30309,-0.2" inkscape:connector-curvature="0" style="stroke:#ffffff">
      <title id="title6436">Haskell, OK</title>
    </path>
    <path id="c40079" d="m 552.45,372.74 -0.11232,10.341 -0.0481,4.747 -0.0392,5.121 -8.9785,0.135 -0.0952,-3.9502 -2.2421,-0.0428 -0.0392,-4.035 1.1229,-0.0417 0.0182,-1.6373 1.3086,-0.361 -0.0731,-6.027 0.71671,0 1.3978,-0.509 -0.0143,-2.305 0.7078,-0.697 0.10341,-0.05 0.36014,-0.04 0.37796,0.105 0.85222,0.562 0.01,0.52299 3.0039,0.007 0.26734,0.44368 0.37916,-0.13696 0.20069,-0.37492 -0.39422,-0.31543 0.002,-0.4939 1.2076,-0.96187" inkscape:connector-curvature="0" style="stroke:#ffffff">
      <title id="title6439">Le Flore, OK</title>
    </path>
    <path id="c40077" d="m 543.31,380.33 0.0321,2.685 -1.3086,0.361 -0.0182,1.6373 -1.1229,0.0417 0.0392,4.035 -8.5489,0.06 0,-2.083 0.0874,-5.971 2.5026,-0.02 0.006,-0.66469 0.45076,-0.002 7.8803,-0.07" inkscape:connector-curvature="0" style="stroke:#ffffff">
      <title id="title6442">Latimer, OK</title>
    </path>
    <path id="c40121" d="m 533.5,374.91 -0.0678,2.154 0.0178,0.98 1.9683,0 0.0178,2.363 -0.45076,0.002 -0.006,0.66419 -2.5026,0.02 -0.0874,5.97 0,2.083 0.004,2.0442 -2.9525,-0.0122 -3.9615,0.02 0,-2.018 -3.9455,0 0,-2.007 0.0731,-6.535 0.5206,-0.964 0.90748,-1.237 0.16224,-0.1 0.36905,-0.06 0.67571,0.03 1.5573,-0.78293 2.1475,0.004 0.69176,-0.316 3.6139,-2.007 1.248,-0.298" inkscape:connector-curvature="0" style="stroke:#ffffff">
      <title id="title6445">Pittsburg, OK</title>
    </path>
    <path id="c40029" d="m 521.53,387.17 0,6.043 -1.4291,-0.007 -0.0153,0.69954 0.3917,0.20685 0.049,1.128 -4.951,-0.02 -2.0059,-0.0676 0.0126,-1.9484 0.0571,-4.035 1.9843,0 0.009,-2.015 5.8977,0.01" inkscape:connector-curvature="0" style="stroke:#ffffff">
      <title id="title6448">Coal, OK</title>
    </path>
    <path id="c40005" d="m 521.53,389.17 3.9455,0 0,2.018 3.9615,-0.02 0.009,2.009 -2.0182,0.159 0.009,7.941 -4.0186,0 -7.866,-0.02 0.0232,-6.044 4.951,0.02 -0.049,-1.128 -0.3917,-0.20685 0.0153,-0.69954 1.4291,0.007 0,-4.035" inkscape:connector-curvature="0" style="stroke:#ffffff">
      <title id="title6451">Atoka, OK</title>
    </path>
    <path id="c40127" d="m 532.38,389.14 8.5489,-0.06 2.2421,0.0428 0.0952,3.9502 -2.0539,0.01 0.0642,6.092 -1.1749,0 -0.80408,0.435 0.0239,1.5837 -0.10407,-0.003 -11.787,0.07 -0.009,-7.941 2.0182,-0.158 -0.009,-2.01 2.9525,0.0122 -0.004,-2.0442" inkscape:connector-curvature="0" style="stroke:#ffffff">
      <title id="title6454">Pushmataha, OK</title>
    </path>
    <path id="c40089" d="m 543.27,393.08 8.9785,-0.135 -0.0571,7.343 -0.0874,12.762 -4.9742,-1.431 -2.3623,-0.965 -3.2626,-2.612 -2.2268,-1.904 -0.0571,-4.926 0.10407,0.003 -0.0239,-1.5837 0.80408,-0.436 1.1749,0 -0.0642,-6.092 2.0539,-0.01" inkscape:connector-curvature="0" style="stroke:#ffffff">
      <title id="title6457">McCurtain, OK</title>
    </path>
    <path id="c40023" d="m 539.22,401.21 0.0571,4.926 -1.2052,-0.403 -0.13549,0 -0.0642,0.03 -0.0267,0 -0.40828,0.619 -0.009,0.03 0,0.04 -0.007,0.02 0.007,0.02 0.0731,0.154 0,0.03 0.0321,0.2 -0.0321,0.232 -0.10341,0.233 -0.10697,0.104 -0.50634,0.33 -0.14976,0.02 -0.28169,0.03 -0.55448,0.07 -0.009,0 -1.2872,0.06 -0.71315,-0.06 -1.8809,-0.25 -0.0713,-0.06 -0.0749,-0.128 0,-0.02 -0.005,-0.118 0.0571,-0.162 0.005,-0.153 -0.20147,-0.514 -0.14441,-0.06 -0.61687,-0.03 -1.3906,0.722 -1.5921,0.829 -0.007,0 -1.5832,-0.16 -1.478,-1.165 -0.32983,-0.417 -0.041,-0.13 -0.007,-4.097 -1.0127,-0.724 4.0186,0 11.787,-0.07" inkscape:connector-curvature="0" style="stroke:#ffffff">
      <title id="title6460">Choctaw, OK</title>
    </path>
    <path id="c40013" d="m 523.42,401.29 1.0127,0.724 0.007,4.097 0.041,0.13 0.32983,0.417 1.478,1.164 1.5832,0.161 -1.6313,0.611 -0.92353,-0.169 -1.1,-0.217 -0.25851,0.03 -0.41006,0.03 -2.1377,0.178 -0.96454,0.223 -0.16046,0.563 -0.11945,0.555 -0.009,0.06 -0.016,0.06 -0.0553,0.176 -0.0481,0.154 -0.009,0.02 -0.0232,0.03 -0.17828,0.185 -0.0232,0.03 -0.34588,0.148 -0.39401,0.105 -2.8366,0.701 -0.18363,-0.252 -0.82725,-1.125 -0.24961,-0.08 -0.22464,-0.03 -0.97344,0.186 -0.025,0 -0.17651,-0.122 -1.9522,-1.31 -0.0161,-0.06 -0.016,-0.111 -0.016,-0.283 0.0642,-0.369 0.37951,-1.7868 -0.34851,-0.99412 0.75161,-1.6736 -0.23526,-1.2044 2.1567,0.0671 0.0105,-1.0198 1.2078,-0.0173 7.866,0.02" inkscape:connector-curvature="0" style="stroke:#ffffff">
      <title id="title6463">Bryan, OK</title>
    </path>
    <path id="c40095" d="m 505.6,400.83 4.9243,0.05 0.99662,0.246 0.72385,0.854 0,0.144 -0.0642,0.104 0.23526,1.2044 -0.75161,1.6736 0.34851,0.99412 -0.37951,1.7868 -1.9041,0.859 -0.0161,0 -0.92352,0.155 -1.7936,-0.549 -0.19255,-0.134 -0.312,-0.349 -0.96454,-1.983 0.002,-1.3535 -0.66925,-0.0119 0.033,-1.3496 0.0465,-2.3353 0.6613,-0.0127" inkscape:connector-curvature="0" style="stroke:#ffffff">
      <title id="title6466">Marshall, OK</title>
    </path>
    <path id="c40069" d="m 507.68,393.14 5.9049,0.06 -0.0126,1.9484 2.0059,0.0676 -0.0232,6.044 -1.2078,0.0173 -0.0105,1.0198 -2.1567,-0.0671 0.0642,-0.104 0,-0.144 -0.72385,-0.854 -0.99662,-0.246 -4.9243,-0.05 0.0392,-3.696 0.98771,0 0.0499,-4.001 1.0038,0" inkscape:connector-curvature="0" style="stroke:#ffffff">
      <title id="title6469">Johnston, OK</title>
    </path>
    <path id="c40123" d="m 514.06,383.83 1.5207,-0.009 0.0464,3.3277 -0.009,2.015 -1.9843,0 -0.0571,4.034 -5.9049,-0.06 0.0143,-2.016 -1.9754,-0.02 0.009,-1.004 0.0481,-5.038 0.0642,-2.539 2.8847,1.508 1.1508,0.68824 1.5208,-0.79174 1.3238,0.31049 0.65109,0.68048 0.69673,-1.0945" inkscape:connector-curvature="0" style="stroke:#ffffff">
      <title id="title6472">Pontotoc, OK</title>
    </path>
    <path id="c40049" d="m 505.77,385.07 -0.0481,5.038 -3.9544,-0.05 -0.97166,0.312 -0.0481,0.06 -0.0321,0.234 0.14263,0.321 0.29774,0.242 0.2496,0.722 0.22464,0.997 -0.7078,0.119 -3.1325,-0.05 -3.9615,-0.06 0.0772,-4.0442 -2.0063,-0.0208 0.0802,-4.019 13.79,0.202" inkscape:connector-curvature="0" style="stroke:#ffffff">
      <title id="title6475">Garvin, OK</title>
    </path>
    <path id="c40099" d="m 497.79,393.02 3.1325,0.05 0.7078,-0.119 -0.22464,-0.997 -0.2496,-0.722 -0.29774,-0.242 -0.14263,-0.321 0.0321,-0.234 0.0481,-0.06 0.97166,-0.312 3.9544,0.05 -0.009,1.004 1.9754,0.02 -0.0143,2.016 -1.0038,0 -0.0499,4.001 -0.98771,0 -1.8007,-0.02 -0.19968,-0.119 -0.0571,-0.113 0,-0.05 0.21751,-0.153 -0.041,-0.506 -0.0553,-0.06 -5.9548,-0.09 0.0481,-3.022" inkscape:connector-curvature="0" style="stroke:#ffffff">
      <title id="title6478">Murray, OK</title>
    </path>
    <path id="c40085" d="m 493.69,403.03 11.195,0.153 -0.033,1.3496 0.66925,0.0119 -0.002,1.3535 -0.18541,0.104 -2.8597,4.96 -0.0891,0.119 -0.19255,0.153 -0.27278,0.09 -0.30487,-0.04 -0.26565,-0.09 -1.1319,-1.8761 0.71938,-1.9686 -1.3381,-0.65128 -2.6803,2.3801 -1.1067,-0.30417 -0.16759,-0.112 -0.11232,-0.136 -0.0161,-0.04 -0.0499,-0.119 -0.37618,-1.719 -1.4637,0.394 0.0642,-4.002" inkscape:connector-curvature="0" style="stroke:#ffffff">
      <title id="title6481">Love, OK</title>
    </path>
    <path id="c40019" d="m 493.83,392.95 3.9615,0.06 -0.0481,3.022 5.9548,0.09 0.0553,0.06 0.041,0.507 -0.21751,0.153 0,0.05 0.0571,0.113 0.19968,0.119 1.8007,0.02 -0.0392,3.696 -0.6613,0.0127 -0.0465,2.3353 -11.195,-0.153 0.0499,-5.037 0.0874,-5.04" inkscape:connector-curvature="0" style="stroke:#ffffff">
      <title id="title6484">Carter, OK</title>
    </path>
    <path id="c40067" d="m 482.85,397.76 10.89,0.235 -0.0499,5.037 -0.0642,4.002 -0.68284,-0.476 -1.9362,-1.292 -0.65074,0.82 -0.99663,1.036 -0.94849,0.747 -0.59369,0.176 -0.22643,-0.02 -1.6777,-0.765 -0.21037,-0.194 0.49028,-1.061 0.16938,-1.229 -0.007,0 -0.7078,-0.28 -0.65967,0.161 -0.43326,0 -0.80408,-0.241 -0.0321,0 -0.0481,-0.05 -0.32983,-0.66 0.65805,-0.70388 -0.1551,-1.0617 -1.0008,-0.63883 0.008,-3.5336" inkscape:connector-curvature="0" style="stroke:#ffffff">
      <title id="title6487">Jefferson, OK</title>
    </path>
    <path id="c40137" d="m 491.9,388.89 2.0063,0.0208 -0.0772,4.0442 -0.0874,5.04 -10.89,-0.235 0.0571,-5.023 0.0571,-3.9768 1.0269,-0.0232 7.907,0.153" inkscape:connector-curvature="0" style="stroke:#ffffff">
      <title id="title6490">Stephens, OK</title>
    </path>
    <path id="c40033" d="m 473.05,394.82 1.9416,4.2e-4 1.1784,-0.81253 3.8136,-0.003 0.99662,-0.849 0.66679,-0.444 1.2623,0.02 -0.0571,5.023 -0.008,3.5339 1.0008,0.63908 0.1551,1.0619 -0.65805,0.70413 -1.1482,-1.889 -2.9417,-0.923 -0.72385,-0.162 -0.36905,0.208 -0.76307,0.965 -1.0127,0.909 -0.016,0.02 -0.007,0 -0.54021,-0.194 -0.89856,-1.446 -0.43324,-0.369 -0.41897,-0.277 -0.19255,-0.01 0.11945,-3.993 -0.98771,-0.02 0.041,-1.68" inkscape:connector-curvature="0" style="stroke:#ffffff">
      <title id="title6493">Cotton, OK</title>
    </path>
    <path id="c40031" d="m 474.13,384.47 9.8842,0.248 -0.025,4.019 -1.0269,0.0232 -0.0571,3.9768 -1.2623,-0.02 -0.66679,0.444 -0.99662,0.849 -3.8136,0.003 -1.1784,0.81253 -1.9416,-4.2e-4 0.0553,-1.749 -1.0929,-0.622 -1.9843,-0.06 0.0571,-2.016 0.17651,-6.035 3.8724,0.121" inkscape:connector-curvature="0" style="stroke:#ffffff">
      <title id="title6496">Comanche, OK</title>
    </path>
    <path id="c40141" d="m 470.09,390.38 -0.0571,2.016 1.9843,0.06 1.0929,0.622 -0.0553,1.749 -0.041,1.679 0.98771,0.02 -0.11945,3.994 -1.7205,0.53 -1.2373,-0.05 -1.7436,-0.426 -1.7508,-1.047 -0.26565,-0.133 -0.025,0 -1.7436,-0.138 -0.76307,0.01 -0.35301,0.02 -0.7078,-0.161 -0.3851,-0.119 -0.24069,-0.07 -0.009,-0.01 -0.32805,-1.783 0.0161,-0.499 0.0232,-0.531 0.29774,-0.09 0.0642,-0.126 0,-0.188 -0.2817,-0.795 -0.11945,-0.1 -0.25852,0.03 -0.1034,-0.348 -0.0321,-0.447 0.353,-1.553 0.75594,-1.575 0.42432,-0.595 0.41898,-0.09 0.79516,0.06 0.0891,0.1 0.1355,-0.02 0.0731,-0.05 0.0392,-0.545 -0.14263,-0.273 -0.24247,-0.298 1.2694,0.05 0.62757,0.772 -0.009,0.255 3.2876,0.1" inkscape:connector-curvature="0" style="stroke:#ffffff">
      <title id="title6499">Tillman, OK</title>
    </path>
    <path id="c40065" d="m 462.36,384.86 1.0608,-0.795 0.1765,-0.03 0.0731,0.03 0.39401,0.266 0.0874,0.146 -0.44642,3.2141 2.0617,0.0789 -0.85934,1.439 0.24247,0.298 0.14263,0.272 -0.0392,0.546 -0.0731,0.05 -0.1355,0.02 -0.0891,-0.1 -0.79516,-0.06 -0.41898,0.09 -0.42432,0.595 -0.75594,1.575 -0.353,1.552 0.0321,0.448 0.1034,0.348 0.25852,-0.03 0.11945,0.1 0.2817,0.795 0,0.187 -0.0642,0.127 -0.29774,0.09 0,-0.02 -0.89143,-1.551 -0.94136,-0.506 -0.82725,-0.45 -0.8112,1.453 -0.007,0.02 -0.025,0.04 -0.016,0 -0.14441,0.06 -0.63471,-0.06 -0.61865,-0.586 -0.46711,-0.273 -0.28883,-0.121 -0.90035,-0.105 -0.20859,-0.03 -0.10341,0.04 -0.73276,0.925 -0.89144,0 -0.57943,-0.137 -1.3175,-1.254 -0.47424,-0.561 -0.98058,-1.272 3.4231,0.138 0.18542,-5.03 2.6119,0.09 1.7847,-0.06 -0.0892,-0.208 -0.025,-0.507 0.0642,-0.176 0.62757,-0.997 2.9168,0.113 0.0802,-0.218" inkscape:connector-curvature="0" style="stroke:#ffffff">
      <title id="title6502">Jackson, OK</title>
    </path>
    <path id="c40055" d="m 450.52,379.6 1.9754,0.09 0.0802,-2.01 6.1812,0.243 0.79338,0.08 0.74881,0.644 0.79516,1.173 -0.0802,0.522 -0.17651,0.626 0.24069,2.717 0.13728,0.193 1.1482,0.987 -0.0802,0.218 -2.9168,-0.112 -0.62757,0.996 -0.0642,0.177 0.025,0.506 0.0892,0.209 -1.7847,0.06 -2.6119,-0.09 0.0482,-0.57327 -1.2358,-0.0596 0.18206,-4.4851 -2.9471,-0.114 0.0802,-2.001" inkscape:connector-curvature="0" style="stroke:#ffffff">
      <title id="title6505">Greer, OK</title>
    </path>
    <path id="c40075" d="m 459.55,378 0.92531,-0.01 9.5384,0.314 3.2948,0.05 0.95562,0.507 -0.12837,5.61 -3.8724,-0.121 -0.17651,6.035 -3.2876,-0.1 0.009,-0.255 -0.62757,-0.772 -1.2694,-0.05 0.85934,-1.439 -2.0617,-0.0789 0.44642,-3.2141 -0.0874,-0.146 -0.39401,-0.266 -0.0731,-0.03 -0.1765,0.03 -1.0608,0.795 -1.1482,-0.987 -0.13728,-0.193 -0.24069,-2.717 0.17651,-0.626 0.0802,-0.522 -0.79516,-1.173 -0.74881,-0.644" inkscape:connector-curvature="0" style="stroke:#ffffff">
      <title id="title6508">Kiowa, OK</title>
    </path>
    <path id="c40057" d="m 448.43,379.51 2.0895,0.09 -0.0802,2.001 2.9471,0.114 -0.18206,4.4856 1.2358,0.0599 -0.0482,0.57352 -0.18542,5.029 -3.4231,-0.137 -2.7545,-1.373 0.12836,-4.275 0.27278,-6.565" inkscape:connector-curvature="0" style="stroke:#ffffff">
      <title id="title6511">Harmon, OK</title>
    </path>
    <path id="c40101" d="m 527.59,361.96 2.1466,-0.02 1.3381,1.314 1.9324,-0.35523 2.7966,0.0152 1.0608,0 2.4546,0.0449 0.1395,3.9651 0.0624,2.7973 1.4156,1.3567 -0.30309,0.199 -1.4334,1.687 -0.59191,1.6638 0.23768,0.27122 -0.62737,0.78937 -0.27963,-0.25385 -0.28107,0.46596 -0.82868,0.003 -0.0115,-0.57034 -1.3329,-0.0313 -0.004,-0.34332 -0.0464,-5.994 -6.8391,0.04 -0.009,-4.026 -0.98771,0 -0.009,-3.031" inkscape:connector-curvature="0" style="stroke:#ffffff">
      <title id="title6514">Muskogee, OK</title>
    </path>
    <path id="c40091" d="m 528.59,369.01 6.8391,-0.04 0.0464,5.994 -0.51743,-0.66207 -0.74346,-0.0188 -0.72167,0.63082 -1.248,0.298 -3.6139,2.007 -0.69176,0.316 -2.1475,-0.004 -1.5573,0.78293 -0.67571,-0.03 0.0499,-3.197 0,-2.018 1.9665,0 0,-0.644 0.27278,-1.373 0.7078,-2.041 2.0342,0" inkscape:connector-curvature="0" style="stroke:#ffffff">
      <title id="title6517">McIntosh, OK</title>
    </path>
    <path id="c40063" d="m 515.03,375.06 8.5827,0.03 -0.0499,3.197 -0.36905,0.06 -0.16224,0.1 -0.90748,1.238 -0.5206,0.964 -0.0731,6.535 -5.8977,-0.01 -0.0465,-3.3277 -1.5207,0.009 0.0321,-4.752 0.91639,0.01 0.016,-4.037" inkscape:connector-curvature="0" style="stroke:#ffffff">
      <title id="title6520">Hughes, OK</title>
    </path>
    <path id="c40133" d="m 511.64,372.47 0.12124,0.12 0.11232,0.03 1.3906,0.09 0.0321,-0.03 0.025,-0.119 -0.066,-0.289 0.15333,-0.79 1.0929,-0.399 0.54555,-0.145 -0.0232,4.111 -0.016,4.037 -0.91639,-0.01 -0.0321,4.752 -0.69673,1.0942 -0.65109,-0.68061 -1.3238,-0.31061 -1.5208,0.79149 -1.1508,-0.68849 0.0784,-11.825 0.97345,-0.314 1.872,0.57" inkscape:connector-curvature="0" style="stroke:#ffffff">
      <title id="title6523">Seminole, OK</title>
    </path>
    <path id="c40125" d="m 502.03,370.92 9.6114,0.123 0.007,1.431 -1.872,-0.57 -0.97345,0.314 -0.0784,11.825 -2.8847,-1.508 -1.5315,1.3136 -1.1022,-0.0601 -0.39383,-0.72553 -0.95191,0.176 0.13729,-10.29 0.0321,-2.029" inkscape:connector-curvature="0" style="stroke:#ffffff">
      <title id="title6526">Pottawatomie, OK</title>
    </path>
    <path id="c40027" d="m 492.13,372.78 9.8593,0.161 -0.13729,10.29 -1.0198,0.06 -2.3623,-0.632 -0.24069,-0.145 -0.0963,-0.09 -0.12124,-0.369 -0.15154,-1.302 -0.28348,-1.125 -0.88252,-1.488 -3.769,-3.767 -0.81833,-0.667 0.0232,-0.931" inkscape:connector-curvature="0" style="stroke:#ffffff">
      <title id="title6529">Cleveland, OK</title>
    </path>
    <path id="c40087" d="m 492.11,373.72 0.81833,0.667 3.769,3.767 0.88252,1.488 0.28348,1.125 0.15154,1.302 0.12124,0.369 0.0963,0.09 0.24069,0.144 2.3623,0.633 1.0198,-0.06 0.95191,-0.176 0.39383,0.72553 1.1022,0.0601 1.5315,-1.3136 -0.0642,2.539 -13.79,-0.202 0.13015,-11.128 0,-0.03" inkscape:connector-curvature="0" style="stroke:#ffffff">
      <title id="title6532">McClain, OK</title>
    </path>
    <path id="c40051" d="m 484.22,372.62 1.5956,0.018 1.746,1.0244 2.2859,0.22119 1.6128,0.11041 0.65253,-0.24 -0.13015,11.128 -0.0802,4.019 -7.907,-0.153 0.025,-4.019 0.19968,-12.1" inkscape:connector-curvature="0" style="stroke:#ffffff">
      <title id="title6535">Grady, OK</title>
    </path>
    <path id="c40015" d="m 480.27,368.5 0.0981,0 0.016,0.248 -0.0802,3.794 3.9116,0.07 -0.19968,12.1 -9.8842,-0.248 0.12837,-5.61 0.066,-0.09 0.0642,-2.373 -0.0321,-2.378 0.0963,-3.648 0.0624,-2.015 5.7533,0.152" inkscape:connector-curvature="0" style="stroke:#ffffff">
      <title id="title6538">Caddo, OK</title>
    </path>
    <path id="c40017" d="m 482.34,364.53 9.8842,0.188 -0.0892,8.067 -0.0232,0.931 0,0.03 -0.65253,0.24 -1.6128,-0.11041 -2.2859,-0.22119 -1.746,-1.0244 -1.5956,-0.018 -3.9116,-0.07 0.0802,-3.794 -0.016,-0.248 -0.0981,0 0.0766,-4.005 1.9898,0.034" inkscape:connector-curvature="0" style="stroke:#ffffff">
      <title id="title6541">Canadian, OK</title>
    </path>
    <path id="c40109" d="m 492.22,364.72 9.8842,0.173 -0.082,6.026 -0.0321,2.029 -9.8593,-0.161 0.0892,-8.067" inkscape:connector-curvature="0" style="stroke:#ffffff">
      <title id="title6544">Oklahoma, OK</title>
    </path>
    <path id="c40081" d="m 511.77,359.96 -0.0321,6.998 -0.10341,4.081 -9.6114,-0.123 0.082,-6.026 0.0624,-5.028 9.6025,0.1" inkscape:connector-curvature="0" style="stroke:#ffffff">
      <title id="title6547">Lincoln, OK</title>
    </path>
    <path id="c40107" d="m 519.69,366.99 -0.009,2.025 1.9451,0 0.007,4.058 1.979,0 0,2.018 -8.5827,-0.03 0.0232,-4.111 -0.54555,0.145 -1.0929,0.399 -0.15333,0.79 0.066,0.289 -0.025,0.119 -0.0321,0.03 -1.3906,-0.09 -0.11232,-0.03 -0.12124,-0.12 -0.007,-1.431 0.10341,-4.081 7.948,0.03" inkscape:connector-curvature="0" style="stroke:#ffffff">
      <title id="title6550">Okfuskee, OK</title>
    </path>
    <path id="c40111" d="m 527.59,361.96 0.009,3.031 0.98771,0 0.009,4.026 -2.0342,0 -0.7078,2.041 -0.27278,1.373 0,0.644 -3.9455,0 -0.007,-4.058 -1.9451,0 0.009,-2.025 0.007,-5.039 2.9506,0 3.9455,0.02 0.99484,-0.02" inkscape:connector-curvature="0" style="stroke:#ffffff">
      <title id="title6553">Okmulgee, OK</title>
    </path>
    <path id="c40145" d="m 533.59,356.87 4.2914,-0.02 0.007,0.806 -0.48138,1.13 -0.0731,0.08 -0.25673,0.01 -0.36905,0.33 -0.11233,0.216 -0.0731,1.31 0.29774,2.122 0.041,0.06 -1.0608,0 -2.7966,-0.0152 -1.9324,0.35523 -1.3381,-1.314 -2.1466,0.02 -0.99484,0.02 0.0133,-1.1435 0.9395,-0.0294 0.11513,-5.9302 2.6369,-0.02 0.88252,1.133 0.20146,0.361 -0.0802,0.315 -0.28882,0.04 0.0464,0.105 0.1141,0.07 2.4176,-0.02" inkscape:connector-curvature="0" style="stroke:#ffffff">
      <title id="title6556">Wagoner, OK</title>
    </path>
    <path id="c40131" d="m 526.75,344.8 6.9264,-0.02 1.9598,-7e-4 -0.0486,2.0077 -1.9665,0.02 -0.0499,6.041 0.016,4.029 -2.4176,0.02 -0.1141,-0.07 -0.0464,-0.105 0.28882,-0.04 0.0802,-0.315 -0.20146,-0.361 -0.88252,-1.133 -2.6369,0.02 -1.0682,-0.0139 0.0766,-5.5295 0.46534,-0.002 0.0231,-0.47006 -0.44526,-0.0278 0.041,-4.034" inkscape:connector-curvature="0" style="stroke:#ffffff">
      <title id="title6559">Rogers, OK</title>
    </path>
    <path id="c40105" d="m 531.97,335.47 2.0913,0 0.0287,1.5532 -0.43039,-0.007 0.0238,7.7682 -6.9264,0.02 0.0373,-7.9057 0.38354,0.0121 -0.0286,-1.4114 4.8209,-0.03" inkscape:connector-curvature="0" style="stroke:#ffffff">
      <title id="title6562">Nowata, OK</title>
    </path>
    <path id="c40147" d="m 523.91,335.5 3.2306,0 0.0286,1.4114 -0.38354,-0.0121 -0.0373,7.9057 -0.041,4.034 -3.4712,0 0.009,-13.33 0.66501,0" inkscape:connector-curvature="0" style="stroke:#ffffff">
      <title id="title6565">Washington, OK</title>
    </path>
    <path id="c40143" d="m 523.24,348.83 3.4712,0 0.44526,0.0278 -0.0231,0.47006 -0.46534,0.002 -0.0766,5.5295 1.0682,0.0139 -0.11513,5.9302 -0.9395,0.0294 -0.0133,1.1435 -3.9455,-0.02 0.0624,-5.061 -4.9403,-0.02 0,-2 0.54556,0 4.9261,0.04 0,-6.089" inkscape:connector-curvature="0" style="stroke:#ffffff">
      <title id="title6568">Tulsa, OK</title>
    </path>
    <path id="c40037" d="m 511.81,354.9 5.9619,-0.02 0,2 4.9403,0.02 -0.0624,5.061 -2.9506,0 -0.007,5.039 -7.948,-0.03 0.0321,-6.998 0.0339,-5.063" inkscape:connector-curvature="0" style="stroke:#ffffff">
      <title id="title6571">Creek, OK</title>
    </path>
    <path id="c40119" d="m 506.22,352.85 1.9612,0.02 -0.025,2.035 3.6495,0 -0.0339,5.063 -9.6025,-0.1 -3.9294,-1.052 0.0571,-4.036 3.9294,0.05 0.025,-2.016 3.9687,0.04" inkscape:connector-curvature="0" style="stroke:#ffffff">
      <title id="title6574">Payne, OK</title>
    </path>
    <path id="c40083" d="m 492.37,354.55 3.9615,0.07 1.9683,0.152 -0.0571,4.036 3.9294,1.052 -0.0624,5.028 -9.8842,-0.173 0.14441,-10.168" inkscape:connector-curvature="0" style="stroke:#ffffff">
      <title id="title6577">Logan, OK</title>
    </path>
    <path id="c40073" d="m 482.52,354.35 1.9612,0.04 7.891,0.159 -0.14441,10.168 -9.8842,-0.188 0.0963,-4.016 0.025,-3.352 0.0553,-2.812" inkscape:connector-curvature="0" style="stroke:#ffffff">
      <title id="title6580">Kingfisher, OK</title>
    </path>
    <path id="c40011" d="m 474.66,354.15 7.8589,0.199 -0.0553,2.812 -0.025,3.352 -0.0963,4.016 -1.9898,-0.034 -0.0766,4.005 -5.7533,-0.152 0,-6.035 0.13728,-8.163" inkscape:connector-curvature="0" style="stroke:#ffffff">
      <title id="title6583">Blaine, OK</title>
    </path>
    <path id="c40149" d="m 474.46,370.36 -0.0963,3.648 0.0321,2.378 -0.0642,2.373 -0.066,0.09 -0.95562,-0.507 -3.2948,-0.05 -9.5384,-0.314 0.2086,-8.076 13.774,0.456" inkscape:connector-curvature="0" style="stroke:#ffffff">
      <title id="title6586">Washita, OK</title>
    </path>
    <path id="c40009" d="m 460.71,368.9 -0.0321,1.006 -0.2086,8.076 -0.92531,0.01 -0.79338,-0.08 -6.1812,-0.243 -0.0802,2.01 -1.9754,-0.09 -2.0895,-0.09 0.15333,-3.519 0.23177,-5.547 7.8999,0.332 0.0713,-2.018 3.9294,0.144" inkscape:connector-curvature="0" style="stroke:#ffffff">
      <title id="title6589">Beckham, OK</title>
    </path>
    <path id="c40039" d="m 460.75,361.88 13.773,0.437 0,6.035 -0.0624,2.015 -13.774,-0.456 0.0321,-1.006 0.0321,-7.025" inkscape:connector-curvature="0" style="stroke:#ffffff">
      <title id="title6592">Custer, OK</title>
    </path>
    <path id="c40043" d="m 468.78,354.05 5.8817,0.1 -0.13728,8.163 -13.773,-0.437 0.0731,-4.651 0.1034,-3.503 7.8518,0.331" inkscape:connector-curvature="0" style="stroke:#ffffff">
      <title id="title6595">Dewey, OK</title>
    </path>
    <path id="c40129" d="m 460.82,357.23 -0.0731,4.651 -0.0321,7.025 -3.9294,-0.144 -0.0713,2.018 -7.8999,-0.332 0.19433,-4.546 0.24782,-6.06 1.2251,-0.027 0.51993,-2.0117 1.4837,-0.43465 -0.006,1.8141 0.49074,0.12025 0.44037,0.548 0.16046,0.128 0.90926,0.571 0.57765,0.208 0.92353,0.234 0.28169,0.03 1.0858,-0.451 0.0642,-0.06 0.88431,-1.398 0.312,-1.054 0.0481,-0.1 0.17828,-0.159 0.45642,-0.33 0.31378,-0.155 0.45107,-0.1 0.76307,0" inkscape:connector-curvature="0" style="stroke:#ffffff">
      <title id="title6598">Roger Mills, OK</title>
    </path>
    <path id="c40045" d="m 457.19,343.66 -0.29239,9.9116 4.0275,0.15436 -0.1034,3.503 -0.76307,0 -0.45107,0.1 -0.31378,0.155 -0.45642,0.33 -0.17828,0.159 -0.0481,0.1 -0.312,1.054 -0.88431,1.398 -0.0642,0.06 -1.0858,0.451 -0.28169,-0.03 -0.92353,-0.234 -0.57765,-0.208 -0.90926,-0.571 -0.16046,-0.128 -0.44037,-0.548 -0.49074,-0.12025 0.006,-1.8141 -1.4837,0.43465 -0.51993,2.0117 -1.2251,0.027 0.16938,-4.04 0.37796,-10.278 0.10341,-2.163 7.2812,0.3" inkscape:connector-curvature="0" style="stroke:#ffffff">
      <title id="title6601">Ellis, OK</title>
    </path>
    <path id="c40153" d="m 457.19,343.66 5.6802,0.151 0.18542,-5.192 0.016,0.33 0.41719,0.369 0.30487,0.113 1.6082,-0.07 0.24069,0.08 0.26564,0.155 3.0772,4.32 -0.0392,2.139 -0.16938,7.996 -7.8518,-0.331 -4.0275,-0.15436 0.29239,-9.9116" inkscape:connector-curvature="0" style="stroke:#ffffff">
      <title id="title6604">Woodward, OK</title>
    </path>
    <path id="c40093" d="m 484.62,347.49 -0.14441,6.905 -1.9612,-0.04 -7.8589,-0.199 -5.8817,-0.1 0.16938,-7.996 2.1377,0.08 0.41719,0.828 0.20859,0.24 0.27278,0.186 1.6884,0.907 1.0038,0.467 0.33696,0.114 0.41897,0.05 1.2783,-0.12 0.0392,-1.528 7.8749,0.2" inkscape:connector-curvature="0" style="stroke:#ffffff">
      <title id="title6607">Major, OK</title>
    </path>
    <path id="c40047" d="m 496.46,344.69 0.009,0 -0.13728,9.931 -3.9615,-0.07 -7.891,-0.159 0.14441,-6.905 0.0713,-3.02 11.765,0.226" inkscape:connector-curvature="0" style="stroke:#ffffff">
      <title id="title6610">Garfield, OK</title>
    </path>
    <path id="c40103" d="m 503.87,344.78 0.10653,0.40063 0.23237,0.27407 1.7848,-0.42232 0.36378,0.72329 -0.67584,0.50687 -0.9641,-0.0697 0.005,0.61212 -0.41006,0 -0.041,4.019 1.9683,0.02 -0.0232,2.009 -3.9687,-0.04 -0.025,2.016 -3.9294,-0.05 -1.9683,-0.152 0.13728,-9.931 7.4078,0.09" inkscape:connector-curvature="0" style="stroke:#ffffff">
      <title id="title6613">Noble, OK</title>
    </path>
    <path id="c40117" d="m 506.22,352.85 0.0232,-2.009 -1.9683,-0.02 0.041,-4.019 0.41006,0 0.0802,0.481 0.42611,0.468 0.24782,0.135 0.53129,0.12 1.1866,-0.27819 0.67232,-1.1447 1.2954,-1.0379 0.81053,0.40388 0.28091,2.456 0.86472,0.68278 1.1242,0.2792 0.92237,0.97105 -0.43962,1.122 1.0017,0.48779 0.85757,-1.0112 0.64679,-0.0366 -0.0162,0.42463 2.0016,2.1542 2.0016,0.0787 -0.90863,1.3204 -0.54556,0 -5.9619,0.02 -3.6495,0 0.025,-2.035 -1.9612,-0.02" inkscape:connector-curvature="0" style="stroke:#ffffff">
      <title id="title6616">Pawnee, OK</title>
    </path>
    <path id="c40113" d="m 509.59,335.44 4.0899,0.02 9.5722,0.03 -0.009,13.33 0,6.089 -4.9261,-0.04 0.90863,-1.3204 -2.0016,-0.0787 -2.0016,-2.1542 0.0162,-0.42463 -0.64679,0.0366 -0.85757,1.0112 -1.0017,-0.48779 0.43962,-1.122 -0.92237,-0.97105 -1.1242,-0.2792 -0.86472,-0.68278 -0.28091,-2.456 -0.81053,-0.40388 -1.2954,1.0379 -0.67232,1.1447 -1.1866,0.27819 -0.53129,-0.12 -0.24782,-0.135 -0.42611,-0.468 -0.0802,-0.481 -0.005,-0.61212 0.9641,0.0697 0.67584,-0.50687 -0.36378,-0.72329 -1.7848,0.42232 -0.23237,-0.27407 -0.10653,-0.40063 0.0963,-1.157 0.98058,-1.061 2.6921,-1.277 0.36192,0.07 0.1355,-0.05 1.3586,-0.834 0.0874,-5.031" inkscape:connector-curvature="0" style="stroke:#ffffff">
      <title id="title6619">Osage, OK</title>
    </path>
    <path id="c40071" d="m 496.6,335.3 5.7373,0.07 7.2474,0.07 -0.0874,5.031 -1.3586,0.834 -0.1355,0.05 -0.36192,-0.07 -2.6921,1.277 -0.98058,1.061 -0.0963,1.157 -7.4078,-0.09 -0.009,0 0.14442,-9.392" inkscape:connector-curvature="0" style="stroke:#ffffff">
      <title id="title6622">Kay, OK</title>
    </path>
    <path id="c40053" d="m 490.41,335.19 6.1955,0.107 -0.14442,9.392 -11.765,-0.226 -0.0945,0 0.17472,-8.068 -0.016,-1.303 5.6499,0.105" inkscape:connector-curvature="0" style="stroke:#ffffff">
      <title id="title6625">Grant, OK</title>
    </path>
    <path id="c40003" d="m 480.47,334.99 4.2824,0.09 0.016,1.303 -0.17472,8.068 0.0945,0 -0.0713,3.02 -7.8749,-0.2 0.12124,-12.407 3.6068,0.115" inkscape:connector-curvature="0" style="stroke:#ffffff">
      <title id="title6628">Alfalfa, OK</title>
    </path>
    <path id="c40151" d="m 460.27,334.34 8.2939,0.282 8.3082,0.256 -0.12124,12.407 -0.0392,1.528 -1.2783,0.12 -0.41897,-0.05 -0.33696,-0.114 -1.0038,-0.467 -1.6884,-0.907 -0.27278,-0.186 -0.20859,-0.24 -0.41719,-0.828 -2.1377,-0.08 0.0392,-2.139 -3.0772,-4.32 -0.26564,-0.155 -0.24069,-0.08 -1.6082,0.07 -0.30487,-0.113 -0.41719,-0.369 -0.016,-0.33 -2.7884,-4.275" inkscape:connector-curvature="0" style="stroke:#ffffff">
      <title id="title6631">Woods, OK</title>
    </path>
    <path id="c40059" d="m 450.31,333.9 8.4062,0.385 1.5511,0.06 2.7884,4.275 -0.18542,5.192 -5.6802,-0.151 -7.2812,-0.3 0.40115,-9.458" inkscape:connector-curvature="0" style="stroke:#ffffff">
      <title id="title6634">Harper, OK</title>
    </path>
    <path id="c40007" d="m 433.14,333.18 5.682,0.241 9.9074,0.408 1.5814,0.07 -0.40115,9.458 -0.10341,2.163 -9.9484,-0.444 -7.4809,-0.376 0.4261,-8.063 0.15155,0 0.18542,-3.455" inkscape:connector-curvature="0" style="stroke:#ffffff">
      <title id="title6637">Beaver, OK</title>
    </path>
    </g>
  </svg>
