<svg xmlns:dc="http://purl.org/dc/elements/1.1/" xmlns:cc="http://creativecommons.org/ns#" xmlns:rdf="http://www.w3.org/1999/02/22-rdf-syntax-ns#" xmlns:svg="http://www.w3.org/2000/svg" xmlns="http://www.w3.org/2000/svg" xmlns:sodipodi="http://sodipodi.sourceforge.net/DTD/sodipodi-0.dtd" xmlns:inkscape="http://www.inkscape.org/namespaces/inkscape" width="66.90273999999988" height="105.92228999999998" version="1.0" id="svg2" inkscape:version="0.91 r13725" sodipodi:docname="USA counties.svg">
  <defs id="defs9439"/>
  <sodipodi:namedview pagecolor="#ffffff" bordercolor="#666666" borderopacity="1" objecttolerance="10" gridtolerance="10" guidetolerance="10" inkscape:pageopacity="0" inkscape:pageshadow="2" inkscape:window-width="798" inkscape:window-height="828" id="namedview9437" showgrid="false" showguides="true" inkscape:zoom="0.64950808" inkscape:cx="494.98999" inkscape:cy="313.535" inkscape:window-x="-7" inkscape:window-y="0" inkscape:window-maximized="0" inkscape:current-layer="svg2"/>
  <metadata id="metadata4">
    <rdf:RDF>
      <cc:Work>
        <dc:format>image/svg+xml</dc:format>
        <dc:type rdf:resource="http://purl.org/dc/dcmitype/StillImage"/>
        <dc:title/>
        <cc:license rdf:resource="http://creativecommons.org/publicdomain/zero/1.0/"/>
        <dc:date>2019-10-06</dc:date>
        <dc:creator>
          <cc:Agent>
            <dc:title>U.S. Census Bureau, Abe.suleiman, Lokal_Profil</dc:title>
          </cc:Agent>
        </dc:creator>
        <dc:source>https://commons.wikimedia.org/wiki/File:Usa_counties_large.svg</dc:source>
      </cc:Work>
      <cc:License rdf:about="http://creativecommons.org/publicdomain/zero/1.0/">
        <cc:permits rdf:resource="http://creativecommons.org/ns#Reproduction"/>
        <cc:permits rdf:resource="http://creativecommons.org/ns#Distribution"/>
        <cc:permits rdf:resource="http://creativecommons.org/ns#DerivativeWorks"/>
      </cc:License>
    </rdf:RDF>
  </metadata>
  <style id="style6">
  /*
   * Below are Cascading Style Sheet (CSS) definitions in use in this file,
   * which allow easily changing how counties are displayed.
   *
   *
   * For the U.S. Census county codes (FIPS codes) used in this file to identify individual counties, see this link:
   * https://www2.census.gov/geo/docs/reference/codes/files/national_county.txt
   *
   * The county codes used in this file combine the 2-digit state code, which is in the second column of the file
   * linked above, and the 3-digit county code, which is in the third column of the file linked above. Each value
   * for the "id" attribute for each county is in the following form: "c[state_code][county-code]". For example,
   * for Loving Country in Texas, the state code is "48" and the county code is "301", so the id name for the
   * county is "c48301".
   *
   * County codes used in this file can also be found on Wikimedia Commons at this link:
   * https://commons.wikimedia.org/wiki/File_talk:Usa_counties_large.svg/county_codes
   *
   * Examples:
   *
   * To color two counties red (in this case Loving County and Dallas County in Texas) simply
   * go to the CSS insertion point and add:
   *
   * #c48301, #c48113 {fill:red}
   *
   * To color an entire state's counties (in the case New Mexico, with "35" being the state code) a green,
   * go to the CSS insertion point and add:
   *
   * path[id*='c35'] {fill:#34A853}
   *
   */
  #counties {fill:#d0d0d0;stroke:#000;stroke-width:.17829;} 
  #borders {fill:none;stroke:#221e1f;stroke-width:.89143;} 
  #separator {fill:none;stroke:#a9a9a9;stroke-width:2.3177309;}
 </style>
  <g id="counties" transform="translate(-922.5230800000003,-33.138000000000005)" style="fill:#d0d0d0;stroke:#ffffff;stroke-width:0.17828999">
    <path id="c23003" d="m 950.81,56.776 -1.191,-3.873 -13.739,3.937 -4.6212,1.301 -0.34588,-2.715 -0.009,-0.07 0.0178,-0.06 0.41719,-1.238 1.1713,-3.439 2.2678,-6.589 3.0541,-8.84 1.2444,-0.103 1.4798,-0.03 0.22464,0.06 0.27099,0.369 0.0571,0.1 -0.11233,0.152 -0.016,0.03 -0.0321,0.536 0.80407,2.589 0.23356,0.209 0.12836,0.06 2.4033,0.786 0.61688,-0.537 1.6723,-1.592 1.847,-1.679 2.8455,-2.484 0.39402,-0.224 0.74702,-0.234 0.69888,-0.06 0.2817,0.06 1.2854,0.433 3.744,1.599 3.3678,2.122 0.0481,0.112 5.3593,17.125 3.1432,10.157 -0.25139,0.376 -0.016,0.217 0.50633,2.275 0.27278,0.225 -3.4606,2.033 -2.9667,1.711 -0.007,0.08 0.0392,0.12 -1.0947,0.62 -1.1571,0.642 -0.36014,-0.06 -1.084,-3.682 -0.25852,-1.084 -0.49742,-1.767 -0.48316,-1.528 -2.997,-9.568 -4.0418,0.882 -1.9023,0.546" inkscape:connector-curvature="0" style="stroke:#ffffff">
      <title id="title3661">Aroostook, ME</title>
    </path>
    <path id="c23021" d="m 950.81,56.776 0.89857,3.214 1.6064,5.481 2.0093,6.992 -1.9362,1.1 0.89144,3.327 1.56,-0.813 3.1236,5.955 -1.5894,0.7899 0.97073,1.7331 -4.3538,2.275 -2.9988,1.519 -2.209,1.807 -1.5422,0.772 -1.0929,-1.824 -4.7335,-9.24 0.22142,-2.3171 -2.4763,-1.5817 1.115,-1.0686 1.204,-2.7236 -1.3336,-2.427 -1.0768,-1.221 -2.2339,-7.658 -0.95383,-4.027 13.739,-3.937 1.191,3.873" inkscape:connector-curvature="0" style="stroke:#ffffff">
      <title id="title3664">Piscataquis, ME</title>
    </path>
    <path id="c23013" transform="translate(0,-0.10698)" d="m 956.88,103.75 -1.1172,1.5391 -0.71484,-0.47852 -0.14258,0.38281 -0.41016,0.21094 -0.16211,0.29492 0.35156,1.1328 0.49219,0.7168 0.5293,0.23242 0.5625,-0.0391 0.52148,-0.24219 1.0312,1.5352 0.72266,1.6562 -0.67383,1.0762 -0.10742,1.3262 1.543,-0.27343 0.63086,0.47461 0.81445,-0.66407 -0.18164,-0.61328 1.5606,-2.2344 0.0312,-0.4336 0.33984,-0.33789 -0.16602,-0.48633 -0.78515,0.40625 -0.0996,-0.58593 0.041,-0.44141 -0.20117,-0.6875 0.28321,-0.27344 -0.22657,-1.2578 -0.81054,-0.42578 z m 8.1699,1.9004 -0.32813,0.17774 -0.88086,1.0938 -0.16992,0.47265 -0.0332,0.43555 0.041,0.0605 0.47657,-0.0527 0.87304,1.5059 0.29688,0.0899 0.17578,-0.041 0.66016,-0.35937 0.15234,-0.13672 0.22461,-0.5 0,0.006 0.0684,-0.1211 0.0664,-0.30468 -0.0859,-0.1836 -0.57422,-0.93164 -0.4082,-0.10742 -0.12305,-0.20117 0.65039,-0.30469 -0.95313,-0.49609 z m 3.9277,0.60157 -0.61133,0.83984 0.35718,0.65895 0.0725,0.77269 0.43164,-0.32031 0.35547,0.13672 0.0215,-1.5801 z m -2.8887,6.3438 -0.11719,0.2832 0.42969,0.87305 0.26758,-0.33985 -0.25586,-0.21484 -0.0937,-0.47266 z" inkscape:connector-curvature="0" style="stroke:#ffffff">
      <title id="title3667">Knox, ME</title>
    </path>
    <path id="c23015" d="m 950.57,110.85 1.7205,-0.08 -0.80407,-2.291 -0.0892,-1.23 1.7365,-0.05 0.1355,-0.129 0.16224,-0.426 -0.16224,-1.439 1.6331,-0.121 -0.41006,0.211 -0.16224,0.295 0.35301,1.133 0.49207,0.716 0.52952,0.234 0.5616,-0.04 0.52238,-0.243 1.0305,1.537 0.72206,1.655 -0.67392,1.077 -0.10698,1.326 -0.41719,-0.05 -0.32091,-0.04 -0.24782,0.321 -0.0695,0.08 -0.0125,0.54 0.11232,0.892 -0.27991,1.654 -0.13729,0.193 -2.1216,0.948 -0.50634,0.161 -0.37796,0 -2.8116,-6.839" inkscape:connector-curvature="0" style="stroke:#ffffff">
      <title id="title3670">Lincoln, ME</title>
    </path>
    <path id="c23023" d="m 950.57,110.85 2.8116,6.839 -0.14791,1.5974 -1.2107,1.2276 -1.1188,-1.1121 -0.47856,-1.647 -0.10572,-2.0903 -0.28971,-0.19252 -0.43182,0.75486 -0.3548,0.449 -0.93065,0 -0.74168,-0.435 -0.36014,-0.513 -0.47246,-3.431 1.7219,-0.013 0.0449,-0.49499 0.0392,-0.545 0.0321,-0.161 0.14441,-0.265 0.11946,-0.152 1.5582,-0.09 0.12302,0.153 0.0481,0.127" inkscape:connector-curvature="0" style="stroke:#ffffff">
      <title id="title3673">Sagadahoc, ME</title>
    </path>
    <path id="c23005" d="m 939.76,116.44 -0.0107,0.05 0.0481,0.07 0.59547,0.24 0.90927,0.147 0.8192,0.14257 0.39288,-1.468 3.8174,1.9904 0.43324,-0.594 0.44215,-1.302 0.36014,0.514 0.74168,0.435 0.93065,0 0.3548,-0.449 0.43182,-0.75511 0.28971,0.19227 0.10572,2.0898 0.47856,1.648 -0.84516,0.63755 -0.45849,0.84628 -0.68293,0.40505 0.30704,-1.7583 -0.41006,-1.182 -0.15511,-0.11 -0.14442,0.05 -1.2503,2.111 -0.63291,1.101 -0.43502,1.792 0,0.153 0.32091,0.337 1.4165,1.6697 -0.83097,0.68863 -1.7759,0.85045 -1.2095,-0.31736 -1.6842,-0.51597 0.32805,-0.94 -1.9255,-1.228 -0.6397,0.76644 -0.96911,-0.0822 -0.36153,-1.7474 -1.6149,0.24658 -0.7782,-0.19674 -0.0374,-3.9528 -1.1267,-0.9058 -1.4109,-0.26633 -0.27405,-0.85843 0.79175,0.20737 1.4076,-2.019 1.0049,-0.76371 0.88649,0.61002 -0.25036,1.2969 0.26387,0.417 0.43502,0.403 0.11232,0.06 0.62757,0.1 0.86113,-0.859" inkscape:connector-curvature="0" style="stroke:#ffffff">
      <title id="title3676">Cumberland, ME</title>
    </path>
    <path id="c23031" d="m 936.47,122.98 0.7782,0.19674 1.6149,-0.24658 0.36153,1.7474 0.96911,0.0822 0.6397,-0.76644 1.9255,1.228 -0.32805,0.94 1.6842,0.51597 1.2095,0.31736 -0.0713,1.599 0.59642,0.8564 -0.88564,2.4911 -1.01,0.32088 -0.52266,2.438 0.68934,0.51665 -0.95822,3.6388 -0.55937,-0.32519 -0.0802,0.16 -0.42789,0.37 -2.2482,-0.901 -0.624,-2.507 -0.0499,-0.06 -1.9433,-1.159 -0.80586,-0.401 -0.29595,-0.153 -0.46712,-0.649 -0.15154,-0.323 -0.12302,-0.513 -0.27991,-3.135 -2.0253,-5.279 1.5259,0.11483 1.8632,-1.1201" inkscape:connector-curvature="0" style="stroke:#ffffff">
      <title id="title3679">York, ME</title>
    </path>
    <path id="c23001" d="m 940.97,105.9 1.5511,-1.118 1.0768,2.129 -0.5464,0.10083 1.1542,1.3554 0.90947,2.4158 1.6286,0.1 -0.003,1.405 0.47246,3.43 -0.44215,1.302 -0.43324,0.594 -3.8174,-1.9904 -0.39288,1.468 -0.8192,-0.14257 -0.90927,-0.147 -0.59547,-0.24 -0.0481,-0.07 0.0107,-0.05 -0.25852,-0.611 1.478,-4.001 0.15154,-0.685 0,-3.006 -0.52951,-1.098 -0.0891,-0.588 0.45106,-0.553" inkscape:connector-curvature="0" style="stroke:#ffffff">
      <title id="title3682">Androscoggin, ME</title>
    </path>
    <path id="c23017" d="m 926.75,90.638 1.2534,2.909 0.9134,2.3124 -0.56039,0.23565 2.5656,6.033 2.0396,-2.071 2.6761,3.285 -0.33231,0.78049 4.3099,-0.49849 0.8843,1.334 0.46533,0.941 -0.45106,0.553 0.0891,0.588 0.52951,1.098 0,3.006 -0.15154,0.685 -1.478,4.001 0.25852,0.611 -0.86113,0.86 -0.62757,-0.1 -0.11232,-0.06 -0.43502,-0.403 -0.26387,-0.417 0.25036,-1.2969 -0.88649,-0.61002 -1.0049,0.7637 -1.4076,2.019 -0.79176,-0.20737 0.27405,0.85843 1.4109,0.26632 1.1267,0.90581 0.0374,3.9528 -1.8632,1.1201 -1.5259,-0.11483 -3.284,-10.872 -3.0148,-9.586 -0.24068,-0.772 -3.3999,-10.253 -0.61865,-1.767 1.1018,-0.619 2.2179,1.229 0.22464,0.112 0.47411,0 0.19254,-0.177 0.0339,-0.09 -0.0178,-0.563" inkscape:connector-curvature="0" style="stroke:#ffffff">
      <title id="title3685">Oxford, ME</title>
    </path>
    <path id="c23011" d="m 944.89,101.17 1.7187,-0.41 3.6174,-0.298 0.18363,-0.216 -0.082,-1.005 -0.54556,-0.402 -0.21573,-0.06 -0.28169,-0.29 -0.18542,-0.386 -0.0802,-0.24 2.2179,-1.118 0.22465,0 0.1141,0.209 0.0214,0.353 0.48673,0.964 1.0893,-0.151 0.28419,2.0452 0.65003,0.003 0.18542,2.016 -0.8219,0.08 -0.20146,2.957 0.16224,1.439 -0.16224,0.426 -0.1355,0.129 -1.7365,0.05 0.0892,1.23 0.80407,2.291 -1.7205,0.08 -0.0481,-0.127 -0.12302,-0.153 -1.5582,0.09 -0.11946,0.151 -0.14441,0.266 -0.0321,0.161 -0.0392,0.545 -0.0449,0.49499 -1.7219,0.013 0.003,-1.405 -1.6286,-0.1 -0.90947,-2.4158 -1.1542,-1.3554 0.5464,-0.10083 -1.0768,-2.129 1.1856,-0.33936 0.0626,-0.69984 -0.74352,-0.26836 0.3453,-1.2138 1.3628,-0.34775 0.1584,-0.7459" inkscape:connector-curvature="0" style="stroke:#ffffff">
      <title id="title3688">Kennebec, ME</title>
    </path>
    <path id="c23027" transform="translate(0,-0.10698)" d="m 961.51,94.305 -5.0625,2.8691 -0.89258,-1.791 -0.91601,0.45117 0,0.002 -0.75977,0.39062 -0.76562,-0.51758 -0.6543,0.06641 -0.0996,1.2344 -0.75976,0.39258 0.48632,0.96289 1.0898,-0.15039 0.28515,2.0449 0.64844,0.004 0.18555,2.0156 -0.82031,0.0801 -0.20313,2.957 1.6348,-0.1211 0.14258,-0.38476 0.71484,0.47851 1.1172,-1.5391 3.6562,1.5098 0.8125,0.42578 0.76172,-2.25 0,-0.23438 -0.10352,-0.73047 -0.42852,-0.45858 -0.25312,-0.0727 -0.15625,-0.20898 -0.21485,-0.36914 0.0566,-0.29102 0.71679,-0.50586 0.0588,-0.42081 0.37886,-0.0371 0.3943,0.3252 0.89455,-1.0958 0.19922,-0.12109 -0.0156,-0.12695 -0.0879,-0.44336 -0.60156,-1.5898 -0.53907,-0.47656 -0.42187,-0.26367 -0.10156,-0.14453 -0.0332,-0.12695 0.11328,-1.4336 z m 0.78225,10.454 0.33115,-1.3246 -0.18188,-0.99919 -0.0554,-0.53447 0.24867,-0.48158 0.46012,0.0648 0.21748,0.59621 -0.34145,0.67709 0.34786,0.43657 -0.0556,1.2041 -0.40214,0.91233 z" inkscape:connector-curvature="0" style="stroke:#ffffff">
      <title id="title3691">Waldo, ME</title>
    </path>
    <path id="c23009" transform="translate(0,-0.10698)" d="m 970.06,78.471 -3.623,1.8945 1.3281,2.5176 -1.8984,1.0195 0.93164,1.7266 -1.873,0.95898 0.60351,1.1152 1.7051,3.4238 -2.5254,1.3008 -0.18945,1.0664 -0.84375,-0.29492 -0.39649,0.73047 -0.0527,0.65039 -0.81445,-0.16602 -0.45118,0.19922 0,0.01367 -0.11328,1.4316 0.0332,0.12891 0.10156,0.14453 0.42187,0.26367 0.53907,0.47656 0.60156,1.5898 0.0879,0.44141 0.0156,0.12891 0.1875,-0.11133 0.0293,0.25586 -0.0625,0.6836 -0.12891,0.16015 -0.041,0.0586 0.0156,0.45117 0.49805,2.0723 0.0469,0.0996 0.54296,-0.0586 0.28711,-0.39258 0.7168,-0.23242 1.7344,0.33594 0.49804,0.13086 0.81836,0.39062 0.24219,0.16016 0.0156,0.041 0.42969,-0.17382 -0.0918,-0.49414 -0.0254,-0.11133 -0.36132,-0.5 -0.16797,-0.17578 -0.29102,0.0605 -0.16797,-0.1289 -0.0644,-0.10157 -0.0391,-0.0996 -0.25977,-1.293 -0.33924,-0.80354 0.521,-0.01641 0.39202,-0.98283 0.51411,0.92583 0.0215,0.21875 0.14453,0.19922 0.20312,-0.04102 0.0645,-0.06055 -0.19336,-0.69727 -0.23242,-0.57031 0.0137,-0.16211 0.0586,-0.12109 0.0957,-0.06836 0.14454,0 0.21093,0.14453 0.0371,0.29688 0.14453,0.55274 0.1211,0.08008 0.10547,-0.01953 0.0723,-0.06055 0.27344,-0.52734 0.36133,-0.32227 0.53711,-0.37109 0.60351,-0.5957 0.0898,-0.81055 0.56836,-0.24805 0.55859,-0.11133 0.62305,-0.12891 0.45898,-0.06055 0.11133,0.06055 0.0898,0.14453 -0.0156,0.20117 0.0879,0.3125 0.4082,0.93164 0.25195,0.32422 0.90625,0.91602 0.1211,0.04883 0.008,0 0.18359,-0.0293 0,-0.18555 0.01,-0.12891 0.0234,-0.41016 0.0566,-0.3125 0.0644,-0.44336 0.19922,-0.29688 0.17969,0.15234 0.0859,0.08008 0.11329,-0.0293 0.18554,-0.3457 -0.0332,-0.39453 -0.20899,-0.22461 -0.4414,-0.69141 -0.47656,-0.84375 -0.98633,-1.7676 -0.0723,-0.70703 -0.49023,-1.2383 -1.1484,-1.7363 -2.0078,-3.625 1.5664,-0.81641 -0.27539,-1.1504 -1.1894,-2.5332 z m 2.4805,19.619 -0.71875,0.41016 -0.52539,0.2168 -0.41797,0.31836 -0.16211,0.22656 -0.20703,0.88867 -0.10351,0.6582 0.0879,0.30664 0.33593,0.48243 0.43555,0.40234 1.1719,0.35938 0.33203,-0.15235 0.27148,-0.625 -0.16015,-0.28906 -0.0469,-0.0215 -0.0449,-0.0684 -0.0527,-0.21679 0.0879,-0.20899 0.19336,-0.17773 0.65821,-0.19336 0.46679,-0.52734 0.0625,-0.07031 0.01,-0.01953 0.17773,-0.33789 -0.11914,-0.33008 -0.32422,-0.51562 -0.31054,-0.32031 -0.0176,-0.01953 z m 1.5098,2.7031 -0.80078,0.33984 0.0879,0.44336 0.47461,-0.14648 0.0234,-0.25781 z m -5.4206,-1.2091 -0.24815,0.2235 0.29645,0.53552 -0.008,0.50201 0.71354,0.10007 0.19433,-0.32085 -0.6867,-0.77075 z m 3.4777,3.378 -4.6e-4,0.44246 0.61328,0.14258 -0.043,-0.47266 0.16016,-0.42774 -0.38868,0.0879 z m -1.6284,0.0871 -0.30367,-0.28524 -0.002,0.51172 0.33008,0.13086 0.16211,-0.14648 z m -3.6806,-0.15829 -0.0801,0.0293 0.0801,0.0684 0.041,0.14453 0,0.16211 -0.13672,0.71289 -0.27539,-0.0488 -0.006,0.38672 0.0234,0.0899 0.36914,1.0996 0.39648,0.0879 0.31055,0.16797 0.17578,0.125 0.0664,-0.4043 0.33203,-0.21875 0.24414,-0.49024 -0.11914,-1.1582 -0.18359,-0.2793 -0.25782,-0.18554 -0.84375,-0.25 z m 4.4512,0.4043 -0.72071,0.53906 -0.30273,0.73243 0.60937,0.041 0.32422,-0.0117 0.27344,0.36524 0.32617,-0.0527 0.32422,-0.69922 -0.0606,-0.3164 z m 1.6953,1.1309 -0.32031,0.0625 -0.0918,0.48438 0.36328,0.0312 0.47656,-0.29297 z m -2.3242,0.88281 -0.33398,0.0117 0.11914,0.53125 0.33789,-0.17968 z" inkscape:connector-curvature="0" style="stroke:#ffffff">
      <title id="title3694">Hancock, ME</title>
    </path>
    <path id="c23029" d="m 971.08,67.826 5.4092,0.25 0.18542,-0.131 0.32091,-0.112 0.10341,0.02 0.5313,0.401 0.0802,0.145 1.3336,4.22 0.12837,0.811 -0.18364,1.093 -0.066,0.112 -0.26743,0.225 0.0196,0.242 0.64896,0.69 1.4406,1.446 0.9467,0.499 0.0321,0.02 0.0571,0.03 0.16759,0.04 0.0802,-0.02 0.40293,-0.587 -0.0642,-0.378 0,-0.635 0.0802,-0.128 0.19968,-0.04 1.897,0.09 0.009,0 0.70602,0.515 0.39579,0.353 3.3982,4.138 0.35301,0.692 -0.0906,0.76165 0.0321,0.16 -0.42432,1.029 -1.4067,2.901 -0.37083,0.692 -1.0679,1.173 -0.6044,0.128 0.25704,-0.91796 -0.47522,-0.1791 -0.2855,-1.1897 -1.0221,0.79458 0.66876,0.87904 -0.32187,1.2129 -0.71974,0.36615 -1.2602,-0.56996 -0.42772,0.78285 0.42049,1.4719 -0.6131,0.61258 -1.1619,0.34646 -0.37505,0.9603 -2.239,-0.81996 0.60162,3.3543 -0.63649,0.33 -0.53842,0.241 -0.14441,0.05 -0.2086,-0.225 -0.44215,-0.691 -0.47603,-0.844 -0.98771,-1.768 -0.0713,-0.706 -0.49029,-1.238 -1.1482,-1.736 -2.0093,-3.625 1.5671,-0.818 -0.27456,-1.15 -1.1892,-2.532 -1.4299,-2.69 0.45107,-0.177 1.2837,-0.643 -0.82725,-1.824 -3.3482,-5.859 3.4606,-2.032" inkscape:connector-curvature="0" style="stroke:#ffffff">
      <title id="title3697">Washington, ME</title>
    </path>
    <path id="c23019" d="m 967.62,69.858 3.3482,5.859 0.82725,1.824 -1.2837,0.643 -0.45107,0.177 -3.6246,1.895 1.3282,2.516 -1.8986,1.0196 0.93229,1.7274 -1.872,0.958 0.60261,1.116 1.7044,3.423 -2.5246,1.301 -0.19011,1.0671 -0.84395,-0.29508 -0.3958,0.731 -0.0518,0.65015 -0.81464,-0.16715 -0.45107,0.2 -0.4582,-0.305 -5.0616,2.869 -0.89322,-1.792 -0.9164,0.451 -3.6406,-7.377 2.9988,-1.519 4.3538,-2.275 -0.97073,-1.7331 1.5894,-0.7899 -3.1236,-5.955 -1.56,0.813 -0.89144,-3.327 1.9362,-1.1 -2.0093,-6.992 -1.6064,-5.481 -0.89857,-3.214 1.9023,-0.546 4.0418,-0.882 2.997,9.568 0.48316,1.528 0.49742,1.767 0.25852,1.084 1.084,3.682 0.36014,0.06 1.1571,-0.642 1.0947,-0.62 -0.0392,-0.12 0.007,-0.08 2.9667,-1.712" inkscape:connector-curvature="0" style="stroke:#ffffff">
      <title id="title3700">Penobscot, ME</title>
    </path>
    <path id="c23007" d="m 928.7,80.57 2.1234,4.58 3.0933,6.308 1.4766,-0.58969 0.67037,0.94945 1.6612,-0.93775 2.222,3.8827 -0.67763,0.25338 0.8615,1.7925 1.4845,-0.5162 1.7683,3.6997 0.59566,-0.2581 0.90748,1.432 -0.1584,0.7459 -1.3623,0.36414 -0.34577,1.1974 0.74352,0.26836 -0.0626,0.69984 -1.1856,0.33936 -1.5511,1.118 -0.46533,-0.941 -0.8843,-1.334 -4.3099,0.49899 0.33231,-0.77999 -2.6761,-3.286 -2.0396,2.071 -2.5656,-6.033 0.56039,-0.23565 -0.9134,-2.3124 -1.2534,-2.909 -0.0161,-0.77 -0.016,-0.74 0.21573,-4.58 0.22464,-1.229 0.14619,-0.29 0.16759,-0.337 0.3958,-0.715 0.60796,-1.116 0.0499,-0.08 0.17472,-0.209" inkscape:connector-curvature="0" style="stroke:#ffffff">
      <title id="title3703">Franklin, ME</title>
    </path>
    <path id="c23025" d="m 935.88,56.84 0.95383,4.027 2.2339,7.658 1.0768,1.221 1.3336,2.427 -1.204,2.7236 -1.115,1.0686 2.4763,1.5817 -0.22142,2.3171 4.7335,9.24 1.0929,1.824 1.5422,-0.772 2.209,-1.807 3.6406,7.377 -0.7595,0.39125 -0.76454,-0.51898 -0.6546,0.06736 -0.0999,1.2341 -0.7595,0.39125 -0.0214,-0.353 -0.1141,-0.208 -0.22465,0 -2.2179,1.118 0.0802,0.24 0.18542,0.385 0.28169,0.291 0.21573,0.06 0.54556,0.401 0.082,1.006 -0.18363,0.216 -3.6174,0.297 -1.7187,0.41 -0.90748,-1.431 -0.59566,0.2581 -1.7683,-3.6997 -1.4845,0.5162 -0.8615,-1.7925 0.67763,-0.25338 -2.222,-3.8827 -1.6612,0.93775 -0.67037,-0.94945 -1.4766,0.58969 -3.0933,-6.308 -2.1234,-4.58 0.13015,-0.161 0.89322,-1.069 2.0735,-5.014 0.0374,-0.369 -0.0374,-0.957 -0.24961,-0.193 -0.25673,-0.119 -0.77198,0 -0.29774,-0.983 -0.25852,-1.075 -0.49742,-2.884 0.20147,-1.56 0.2496,-1.872 0.009,-0.02 0.17472,-0.499 0.15511,-0.241 0.0214,-0.02 0.0428,-0.02 0.50455,-0.371 0.89143,-1.381 -0.18363,-1.471 -0.27278,-2.147 4.6212,-1.301" inkscape:connector-curvature="0" style="stroke:#ffffff">
      <title id="title3706">Somerset, ME</title>
    </path>
    </g>
  </svg>
