<svg xmlns:dc="http://purl.org/dc/elements/1.1/" xmlns:cc="http://creativecommons.org/ns#" xmlns:rdf="http://www.w3.org/1999/02/22-rdf-syntax-ns#" xmlns:svg="http://www.w3.org/2000/svg" xmlns="http://www.w3.org/2000/svg" xmlns:sodipodi="http://sodipodi.sourceforge.net/DTD/sodipodi-0.dtd" xmlns:inkscape="http://www.inkscape.org/namespaces/inkscape" width="120.20270999999951" height="134.16119999999998" version="1.0" id="svg2" inkscape:version="0.91 r13725" sodipodi:docname="USA counties.svg">
  <defs id="defs9439"/>
  <sodipodi:namedview pagecolor="#ffffff" bordercolor="#666666" borderopacity="1" objecttolerance="10" gridtolerance="10" guidetolerance="10" inkscape:pageopacity="0" inkscape:pageshadow="2" inkscape:window-width="798" inkscape:window-height="828" id="namedview9437" showgrid="false" showguides="true" inkscape:zoom="0.64950808" inkscape:cx="494.98999" inkscape:cy="313.535" inkscape:window-x="-7" inkscape:window-y="0" inkscape:window-maximized="0" inkscape:current-layer="svg2"/>
  <metadata id="metadata4">
    <rdf:RDF>
      <cc:Work>
        <dc:format>image/svg+xml</dc:format>
        <dc:type rdf:resource="http://purl.org/dc/dcmitype/StillImage"/>
        <dc:title/>
        <cc:license rdf:resource="http://creativecommons.org/publicdomain/zero/1.0/"/>
        <dc:date>2019-10-06</dc:date>
        <dc:creator>
          <cc:Agent>
            <dc:title>U.S. Census Bureau, Abe.suleiman, Lokal_Profil</dc:title>
          </cc:Agent>
        </dc:creator>
        <dc:source>https://commons.wikimedia.org/wiki/File:Usa_counties_large.svg</dc:source>
      </cc:Work>
      <cc:License rdf:about="http://creativecommons.org/publicdomain/zero/1.0/">
        <cc:permits rdf:resource="http://creativecommons.org/ns#Reproduction"/>
        <cc:permits rdf:resource="http://creativecommons.org/ns#Distribution"/>
        <cc:permits rdf:resource="http://creativecommons.org/ns#DerivativeWorks"/>
      </cc:License>
    </rdf:RDF>
  </metadata>
  <style id="style6">
  /*
   * Below are Cascading Style Sheet (CSS) definitions in use in this file,
   * which allow easily changing how counties are displayed.
   *
   *
   * For the U.S. Census county codes (FIPS codes) used in this file to identify individual counties, see this link:
   * https://www2.census.gov/geo/docs/reference/codes/files/national_county.txt
   *
   * The county codes used in this file combine the 2-digit state code, which is in the second column of the file
   * linked above, and the 3-digit county code, which is in the third column of the file linked above. Each value
   * for the "id" attribute for each county is in the following form: "c[state_code][county-code]". For example,
   * for Loving Country in Texas, the state code is "48" and the county code is "301", so the id name for the
   * county is "c48301".
   *
   * County codes used in this file can also be found on Wikimedia Commons at this link:
   * https://commons.wikimedia.org/wiki/File_talk:Usa_counties_large.svg/county_codes
   *
   * Examples:
   *
   * To color two counties red (in this case Loving County and Dallas County in Texas) simply
   * go to the CSS insertion point and add:
   *
   * #c48301, #c48113 {fill:red}
   *
   * To color an entire state's counties (in the case New Mexico, with "35" being the state code) a green,
   * go to the CSS insertion point and add:
   *
   * path[id*='c35'] {fill:#34A853}
   *
   */
  #counties {fill:#d0d0d0;stroke:#000;stroke-width:.17829;} 
  #borders {fill:none;stroke:#221e1f;stroke-width:.89143;} 
  #separator {fill:none;stroke:#a9a9a9;stroke-width:2.3177309;}
 </style>
  <g id="counties" transform="translate(-504.2677200000001,-50.8118)" style="fill:#d0d0d0;stroke:#ffffff;stroke-width:0.17828999">
    <path id="c27055" d="m 601.34,175.03 0.40293,2.78 1.1,5.15 -6.5396,0.314 -1.9843,0.09 -0.36371,-7.98 7.3846,-0.353" inkscape:connector-curvature="0" style="stroke:#ffffff">
      <title id="title3958">Houston, MN</title>
    </path>
    <path id="c27045" d="m 588.18,175.62 5.7694,-0.241 0.36371,7.98 -5.8193,0.248 -6.1295,0.25 -0.2906,-7.69 6.1063,-0.547" inkscape:connector-curvature="0" style="stroke:#ffffff">
      <title id="title3961">Fillmore, MN</title>
    </path>
    <path id="c27071" d="m 547.57,73.08 -0.15332,-7.73 0.21573,-0.09 0.41897,-0.03 1.2373,0.02 0.27456,0.05 0.47246,0.257 0.14442,0.289 0.009,0.153 0.0161,0.458 0.0945,0.06 0.31557,0.08 1.5101,0.09 1.1321,-0.02 3.2698,0.282 0.0981,0.08 0.19255,0.353 0.25673,0.717 0.0321,0.206 -0.0802,0.596 -0.10341,0.176 0,0.106 0.0553,0.08 0.3227,0.233 0.58656,0 1.453,-0.05 1.8078,-0.346 1.182,-0.41 0.0963,-0.112 0.0553,-0.257 -0.005,-0.128 -0.0749,-0.153 -0.0802,-0.298 0.0267,-0.105 1.7829,-0.835 1.4138,-0.41 0.73098,-0.02 0.43323,0.385 0.54734,-0.02 0.0321,0 0.82725,-0.09 0.0874,4.846 0.0428,3.92 0.13371,3.978 0.15511,1.045 0.17472,2.089 0.0339,0.875 -10.826,0.129 0.025,1.198 -10.02,0.216 -0.35301,-11.885" inkscape:connector-curvature="0" style="stroke:#ffffff">
      <title id="title3964">Koochiching, MN</title>
    </path>
    <path id="c27077" d="m 533.63,58.881 2.5959,-0.02 -0.0303,-3.5192 -0.016,-1.48 -0.016,-2.369 -0.009,-0.651 0,-0.03 2.9899,0.29 0.94774,0.441 1.0936,0.925 1.2537,4.1881 0.003,2.6002 0.83089,0.70762 0.39483,1.7869 -0.28187,2.0474 0.71493,0.651 0.24782,0.225 1.0234,0.57 0.44037,0.243 0.025,0.02 0.21751,0.02 0.77733,0.08 0.58835,-0.259 0.15332,7.731 -12.102,0.185 -0.0481,-3.961 -2.0182,0 -0.0232,-3.931 3.8884,-0.03 -0.0713,-4.722 -0.37796,0.392 -0.33875,0.201 -0.15154,0.06 -1.1963,0.249 -0.1765,0 -0.25852,-0.06 -0.7078,-0.435 -0.33696,-0.651 -0.0642,-1.109 0.0392,-0.394" inkscape:connector-curvature="0" style="stroke:#ffffff">
      <title id="title3967">Lake of the Woods, MN</title>
    </path>
    <path id="c27135" d="m 533.63,58.881 -0.0392,0.394 0.0642,1.109 0.33696,0.651 0.7078,0.435 0.25852,0.06 0.1765,0 1.1963,-0.249 0.15154,-0.06 0.33875,-0.201 0.37796,-0.392 0.0713,4.723 -3.8884,0.03 0.0232,3.931 -4.0097,0.06 -12.116,-0.128 -0.009,-1.737 -0.24247,-2.2 0.025,-6.422 16.577,0" inkscape:connector-curvature="0" style="stroke:#ffffff">
      <title id="title3970">Roseau, MN</title>
    </path>
    <path id="c27069" d="m 504.43,58.753 12.623,0.128 -0.025,6.422 0.24247,2.2 0.009,1.737 -11.967,-0.09 1.1268,-3.126 -0.67571,-1.535 -0.29774,-0.884 -1.1089,-3.623 -0.0892,-0.481 0.0178,-0.339 0.0713,-0.337 0.0731,-0.07" inkscape:connector-curvature="0" style="stroke:#ffffff">
      <title id="title3973">Kittson, MN</title>
    </path>
    <path id="c27125" d="m 527.79,83.109 0.009,1.993 -1.9819,-0.0053 -0.0113,2.0123 -8.0354,0 -0.0274,-2.0078 -1.998,0.0098 0,-2.644 12.036,0 0.009,0.651" inkscape:connector-curvature="0" style="stroke:#ffffff">
      <title id="title3976">Red Lake, MN</title>
    </path>
    <path id="c27113" d="m 529.56,77.692 0.18541,3.481 0.016,1.968 -1.9772,-0.03 -0.009,-0.651 -12.036,0 -0.25852,-4.807 3.8029,0 1.1553,0.05 2.8116,0.03 6.3096,-0.05" inkscape:connector-curvature="0" style="stroke:#ffffff">
      <title id="title3979">Pennington, MN</title>
    </path>
    <path id="c27089" d="m 505.31,69.151 11.967,0.09 12.116,0.128 0,2.958 0.025,0.98 0.1355,0 0.009,4.379 -6.3096,0.05 -2.8116,-0.03 -1.1553,-0.05 -3.8029,0 -10.036,-0.06 0.009,-0.468 0.50634,-1.952 -0.0981,-5.48 -0.36014,-0.442 -0.12124,-0.06 -0.0731,-0.04" inkscape:connector-curvature="0" style="stroke:#ffffff">
      <title id="title3982">Marshall, MN</title>
    </path>
    <path id="c27119" d="m 515.48,77.66 0.25852,4.807 0,2.644 1.998,-0.0098 0.0274,2.0078 8.0354,0 0.0113,-2.0123 1.9819,0.0053 -0.009,-1.993 1.9772,0.03 0.0802,5.577 0.16224,0.369 0.2389,0 0,3.954 -8.0425,0.04 -12.336,-0.06 -0.53843,-3.961 -2.0236,-4.622 -1.4958,-5.391 -0.36192,-1.398 0,-0.06 10.036,0.06" inkscape:connector-curvature="0" style="stroke:#ffffff">
      <title id="title3985">Polk, MN</title>
    </path>
    <path id="c27107" d="m 522.2,93.082 0,7.946 -2.0093,0 -9.9645,-0.04 -0.0802,-1.993 -0.2817,-5.978 12.336,0.06" inkscape:connector-curvature="0" style="stroke:#ffffff">
      <title id="title3988">Norman, MN</title>
    </path>
    <path id="c27087" d="m 530.25,93.041 0.0892,7.971 -8.1317,0.02 0,-7.946 8.0425,-0.04" inkscape:connector-curvature="0" style="stroke:#ffffff">
      <title id="title3991">Mahnomen, MN</title>
    </path>
    <path id="c27029" d="m 529.77,83.141 -0.016,-1.968 5.5037,-0.03 0.57944,3.36 0.1765,4.547 0.0713,5.947 0.27456,5.946 -6.019,0.06 -0.0892,-7.971 0,-3.954 -0.2389,0 -0.16224,-0.369 -0.0802,-5.577" inkscape:connector-curvature="0" style="stroke:#ffffff">
      <title id="title3994">Clearwater, MN</title>
    </path>
    <path id="c27007" d="m 533.4,69.313 2.0182,0 0.0481,3.961 12.102,-0.185 0.35301,11.885 0.0571,3.697 0.11946,2.876 0.009,2.58 -0.0242,0.8182 -3.9462,0.0338 -8.0604,0.03 -0.0713,-5.947 -0.1765,-4.547 -0.57944,-3.361 -5.5037,0.03 -0.18541,-3.48 -0.009,-4.378 -0.1355,0 -0.025,-0.981 0,-2.958 4.0097,-0.06" inkscape:connector-curvature="0" style="stroke:#ffffff">
      <title id="title3997">Beltrami, MN</title>
    </path>
    <path id="c27031" d="m 600.3,75.275 0.82012,-0.683 1.3817,-0.676 0.59548,0 0.0553,0.02 0.0731,0.09 0.61866,1.373 0.26386,0.756 0,0.02 0.49742,1.006 0.16224,0.151 2.8045,-0.522 6.0885,-0.482 0.62935,-0.03 0.70067,0.129 0.27813,0.06 0.80407,0.321 0.43502,0.595 0.0785,0.186 -0.0321,0.312 0.0731,0.16 0.40292,0.291 1.141,0.545 0.37619,0.02 0.3851,-0.185 2.9596,-0.546 2.578,-0.33 -0.0232,0.216 -0.0571,0.06 -0.8843,0.692 -0.25674,0.193 -3.3179,1.952 -2.1198,1.159 -1.207,0.658 -1.1339,0.49 -1.3888,0.465 -1.0697,0.378 -2.9489,1.238 -1.4548,0.62 -3.0059,1.967 -1.9843,1.649 -2.3142,2.225 -0.45642,-9.346 -0.28169,-4.307 -0.26565,-2.892" inkscape:connector-curvature="0" style="stroke:#ffffff">
      <title id="title4000">Cook, MN</title>
    </path>
    <path id="c27075" d="m 600.3,75.275 0.26565,2.892 0.28169,4.307 0.45642,9.346 -0.34588,0.208 -1.2195,1.366 -0.42432,0.499 -1.938,2.684 -2.5174,3.021 -0.30487,0.329 -0.6347,0.427 -0.8433,0.459 -1.9772,2.032 -0.49029,0.537 -0.86112,1.03 -0.49564,-13.259 -0.37975,-4.837 -0.0963,-1.945 -0.36192,-8.718 0.87182,-0.138 0.42433,0.1 0.016,0.03 0.0553,0.1 0.22464,1.109 -0.11232,0.499 -0.0553,0.145 0.007,0.06 1.1179,0.328 2.4015,0.563 2.4764,-0.176 0.59191,-0.104 0.3637,-0.13 0.23891,-0.128 0.0107,0 3.2537,-2.619" inkscape:connector-curvature="0" style="stroke:#ffffff">
      <title id="title4003">Lake, MN</title>
    </path>
    <path id="c27061" d="m 568.75,83.422 0.007,1.593 0.0981,2.321 0.27278,2.644 0.21572,5.311 0.0963,2.772 0.25673,3.215 0.0588,1.895 -11.357,0.218 -0.12837,-6.276 -0.15155,-0.08 -1.15,-0.218 -0.30487,-0.02 -0.007,0.09 -0.3851,0.337 -0.17829,0.1 -0.42432,-0.265 -1.3514,-0.917 -0.18364,-0.192 -0.12837,-0.346 0,-0.571 0.0303,-0.06 -0.041,-0.41 -0.60974,-1.068 -0.24069,-0.217 -0.36192,-0.06 -2.7956,1.327 -0.38688,0.225 -0.97344,-0.275 -0.51169,-0.369 -0.009,-2.58 -0.11946,-2.876 -0.0571,-3.697 10.02,-0.216 -0.025,-1.198 10.826,-0.128" inkscape:connector-curvature="0" style="stroke:#ffffff">
      <title id="title4006">Itasca, MN</title>
    </path>
    <path id="c27057" d="m 536.08,95.002 8.0604,-0.03 0.13015,2.025 0.19077,7.883 0.0321,3.97 -2.0075,0.02 -5.9548,0.04 -0.0339,-3.968 -0.11232,-0.266 -0.0303,-1.648 0,-2.073 -0.27456,-5.946" inkscape:connector-curvature="0" style="stroke:#ffffff">
      <title id="title4009">Hubbard, MN</title>
    </path>
    <path id="c27021" d="m 544.14,94.97 3.9462,-0.0338 0.0242,-0.8182 0.51169,0.369 0.97344,0.275 0.38688,-0.225 2.7956,-1.327 0.36192,0.06 0.24069,0.217 0.60974,1.068 0.041,0.41 -0.0303,0.06 0,0.571 0.12837,0.346 0.18364,0.192 1.3514,0.917 0.42432,0.265 0.17829,-0.1 0.3851,-0.337 0.007,-0.09 0.30487,0.02 1.15,0.218 0.15155,0.08 0.23355,11.483 -8.975,0.122 -0.009,2.644 0.0321,1.347 0.25674,1.095 0.15332,5.777 0.0161,0.948 -0.0802,0.241 -0.14441,0.04 -0.0392,-0.234 -0.10519,-0.169 -1.2302,-0.827 -0.53843,0.04 -0.11232,0.194 -0.312,0.2 -0.75772,0.273 -0.15868,-0.04 -1.2944,-0.57 -0.45107,-0.41 -1.2534,-0.449 -0.77198,-0.571 -0.17472,-5.407 -0.0642,-3.978 2.0075,-0.02 -0.0321,-3.97 -0.19077,-7.883 -0.13015,-2.025" inkscape:connector-curvature="0" style="stroke:#ffffff">
      <title id="title4012">Cass, MN</title>
    </path>
    <path id="c27159" d="m 542.49,108.86 0.0642,3.978 0.17472,5.407 0.77198,0.571 -6.766,0.07 -0.19968,-7.989 0,-2.001 5.9548,-0.04" inkscape:connector-curvature="0" style="stroke:#ffffff">
      <title id="title4015">Wadena, MN</title>
    </path>
    <path id="c27005" d="m 536.35,100.95 0,2.074 0.0303,1.647 0.11232,0.266 0.0339,3.968 0,2.001 -7.4827,0.1 -8.556,-0.05 -0.29774,-9.915 2.0093,0 8.1317,-0.02 6.019,-0.06" inkscape:connector-curvature="0" style="stroke:#ffffff">
      <title id="title4018">Becker, MN</title>
    </path>
    <path id="c27027" d="m 520.2,101.04 0.29774,9.915 0.018,2.0076 -1.7153,-0.0146 -7.9783,-0.04 -0.009,-1.287 0.30666,-4.998 -0.19434,-0.531 -0.66679,-2.186 -0.0232,-2.908 9.9645,0.04" inkscape:connector-curvature="0" style="stroke:#ffffff">
      <title id="title4021">Clay, MN</title>
    </path>
    <path id="c27167" d="m 510.82,112.91 7.9783,0.04 -0.007,7.987 0.24247,0 -0.0178,3.994 -0.016,1.993 -4.9974,-0.03 0.29774,-0.836 0.0392,-0.145 0.0321,-0.465 -0.0481,-0.403 -0.61153,-4.821 -2.209,-5.32 -0.68284,-1.984" inkscape:connector-curvature="0" style="stroke:#ffffff">
      <title id="title4024">Wilkin, MN</title>
    </path>
    <path id="c27111" d="m 520.49,110.95 8.556,0.05 7.4827,-0.1 0.19968,7.989 0.21038,6.017 -9.9983,0.03 -7.9302,-0.02 0.0178,-3.994 -0.24247,0 0.007,-7.987 1.7153,0.0146 -0.018,-2.0076" inkscape:connector-curvature="0" style="stroke:#ffffff">
      <title id="title4027">Otter Tail, MN</title>
    </path>
    <path id="c27137" d="m 568.12,66.669 1.6634,0 10.904,6.035 0.40114,-0.28 3.1985,-0.234 0.41006,0.747 0.70067,1.462 0.0713,0.113 0.12836,0.178 2.8187,0.956 0.36192,8.718 0.0963,1.945 0.37975,4.837 0.49564,13.259 -0.72028,0.36 -0.64362,0.474 -2.6921,2.308 -0.41006,0.377 -0.12124,0.152 0.10697,0.321 0.40115,0.628 0.64183,0.763 0.17651,0.1 -0.082,0.06 -0.22285,-0.1 -0.91462,-0.894 -0.42789,0.03 -1.1232,0.764 -0.0892,0.184 -0.016,0.169 0.0553,0.145 0,0.02 0.0802,0.09 0.016,0.02 0.016,0.257 -0.21573,0.563 -0.0731,0.07 -0.0784,0.05 -0.47603,0.03 -0.44215,-0.04 -0.36014,-0.25 -0.24247,-2.298 -3.6798,0.1 -8.3652,0.266 -0.0945,-5.948 -0.0588,-1.895 -0.25673,-3.215 -0.0963,-2.772 -0.21572,-5.311 -0.27278,-2.644 -0.0981,-2.321 -0.007,-1.593 -0.0339,-0.875 -0.17472,-2.089 -0.15511,-1.045 -0.13371,-3.978 -0.0428,-3.92 -0.0874,-4.846" inkscape:connector-curvature="0" style="stroke:#ffffff">
      <title id="title4030">St. Louis, MN</title>
    </path>
    <path id="c27017" d="m 569.85,109.12 8.3652,-0.266 3.6798,-0.1 0.24247,2.298 0.20859,5.632 -12.143,0.387 -0.11946,-3.448 -0.12836,-0.539 -0.0499,-0.85 -0.0464,-1.134 -0.009,-1.984" inkscape:connector-curvature="0" style="stroke:#ffffff">
      <title id="title4033">Carlton, MN</title>
    </path>
    <path id="c27115" d="m 570.2,117.08 12.143,-0.387 0.21573,5.964 0.041,0.996 0.0321,0.901 -2.3391,1.46 -3.3429,2.195 -0.005,0 -0.79872,0.699 -0.20147,0.265 -0.19968,0.36 -1.6135,3.231 -4.8387,0.137 -0.19434,-5.737 1.4067,-0.06 -0.10163,-4.058 -0.20324,-5.978" inkscape:connector-curvature="0" style="stroke:#ffffff">
      <title id="title4036">Pine, MN</title>
    </path>
    <path id="c27065" d="m 564.36,123.33 6.0439,-0.273 0.10163,4.058 -1.4067,0.06 0.19434,5.737 -5.994,0.09 -0.15333,-3.23 -0.0624,-2.45 0.71315,-0.03 0.005,-0.62221 0.63101,-0.0448 -0.0731,-3.294" inkscape:connector-curvature="0" style="stroke:#ffffff">
      <title id="title4039">Kanabec, MN</title>
    </path>
    <path id="c27001" d="m 569.75,103.17 0.0945,5.948 0.009,1.984 0.0464,1.134 0.0499,0.85 0.12836,0.539 0.11946,3.448 0.20324,5.978 -6.0439,0.273 0.016,-0.603 -0.0481,-1.51 -1.6563,0.03 -4.1862,0.191 -0.18364,-0.12 -0.0499,-0.05 -0.007,-0.06 -0.18363,-7.586 0.4885,-1.68 -0.0481,-3.343 -0.10518,-5.207 11.357,-0.218" inkscape:connector-curvature="0" style="stroke:#ffffff">
      <title id="title4042">Aitkin, MN</title>
    </path>
    <path id="c27035" d="m 549.75,120.81 0.14441,-0.04 0.0802,-0.241 -0.0161,-0.948 -0.15332,-5.777 -0.25674,-1.095 -0.0321,-1.347 0.009,-2.644 8.975,-0.122 0.0481,3.343 -0.4885,1.68 0.18363,7.586 0.007,0.06 0.0499,0.05 0.18364,0.12 -0.18364,1.993 -9.0249,0.169 -0.025,-0.763 0.016,-1.214 0.48316,-0.802" inkscape:connector-curvature="0" style="stroke:#ffffff">
      <title id="title4045">Crow Wing, MN</title>
    </path>
    <path id="c27097" d="m 544.75,119.27 0.45107,0.41 1.2944,0.57 0.15868,0.04 0.75772,-0.273 0.312,-0.2 0.11232,-0.194 0.53843,-0.04 1.2302,0.827 0.10519,0.169 0.0392,0.234 -0.48316,0.802 -0.016,1.214 0.025,0.763 9.0249,-0.169 0.0945,3.979 0.082,0 0.61865,1.341 0.12837,2.33 -3.9615,0.05 -5.5126,0.152 1.3247,1.054 -5.9851,0.121 -0.33875,-13.179" inkscape:connector-curvature="0" style="stroke:#ffffff">
      <title id="title4048">Morrison, MN</title>
    </path>
    <path id="c27153" d="m 543.5,118.82 1.2534,0.449 0.33875,13.179 -7.9784,0.112 -0.16937,-7.65 -0.21038,-6.017 6.766,-0.07" inkscape:connector-curvature="0" style="stroke:#ffffff">
      <title id="title4051">Todd, MN</title>
    </path>
    <path id="c27041" d="m 536.94,124.91 0.16937,7.65 0,0.33 -9.9662,0.03 -0.007,-3.986 -0.1765,0 -0.0178,-3.994 9.9983,-0.03" inkscape:connector-curvature="0" style="stroke:#ffffff">
      <title id="title4054">Douglas, MN</title>
    </path>
    <path id="c27051" d="m 519.01,124.93 7.9302,0.02 0.0178,3.994 0.1765,0 0.007,3.986 -7.9694,0 -0.17828,-6.01 0.016,-1.993" inkscape:connector-curvature="0" style="stroke:#ffffff">
      <title id="title4057">Grant, MN</title>
    </path>
    <path id="c27155" d="m 514,126.89 4.9974,0.03 0.17828,6.01 0,4.003 -9.4028,-0.07 -0.28883,-0.369 -0.0642,-0.09 0.22464,-0.771 0.0553,-0.128 0.025,-0.02 0.0321,-0.04 0.025,-0.03 1.4691,-1.18 0.55625,-0.362 0.61866,-0.337 0.32805,-0.33 1.125,-1.671 0.025,-0.06 0.016,-0.03 0.016,-0.05 0.016,-0.114 0.0392,-0.209 0.0571,-0.497 0.0713,-0.61 0.009,-0.03 0,-0.05 0.0891,-1.004 -0.21751,-1.993" inkscape:connector-curvature="0" style="stroke:#ffffff">
      <title id="title4060">Traverse, MN</title>
    </path>
    <path id="c27011" d="m 509.77,136.86 9.4028,0.07 0.19077,0 -0.0161,3.968 2.0182,0.03 0.2086,5.408 -1.1339,-0.394 -1.6474,-0.665 -0.15154,-0.332 -0.68997,-0.314 -2.0414,-0.433 -0.26565,-1.326 -0.30665,-0.706 -0.52951,-0.426 -1.5511,-0.756 -1.2488,-0.15868 -1.1134,-2.4603 -1.125,-1.503" inkscape:connector-curvature="0" style="stroke:#ffffff">
      <title id="title4063">Big Stone, MN</title>
    </path>
    <path id="c27151" d="m 527.34,140.91 7.9748,-0.05 0.18364,5.987 -12.84,0.05 -1.0858,-0.563 -0.2086,-5.408 5.9762,-0.02" inkscape:connector-curvature="0" style="stroke:#ffffff">
      <title id="title4066">Swift, MN</title>
    </path>
    <path id="c27149" d="m 527.14,132.92 0.016,4.01 0.16937,0 0.0143,3.977 -5.9762,0.02 -2.0182,-0.03 0.0161,-3.968 -0.19077,0 0,-4.003 7.9694,0" inkscape:connector-curvature="0" style="stroke:#ffffff">
      <title id="title4069">Stevens, MN</title>
    </path>
    <path id="c27121" d="m 537.11,132.89 0.0303,3.992 0.13728,0 0.0321,3.972 -1.9915,0 -7.9748,0.05 -0.0143,-3.977 -0.16937,0 -0.016,-4.01 9.9662,-0.03" inkscape:connector-curvature="0" style="stroke:#ffffff">
      <title id="title4072">Pope, MN</title>
    </path>
    <path id="c27145" d="m 545.09,132.45 5.9851,-0.121 2.0664,4.926 1.7205,3.109 -0.68455,1.8457 -1.429,1.2253 -0.51911,-0.30493 -0.76727,0.48088 -2.1403,0.06 0.0164,-0.981 -2.3368,0.02 -3.703,0.06 -0.0267,-1.993 -5.9601,0.08 -0.0321,-3.972 -0.13728,0 -0.0303,-3.992 0,-0.33 7.9784,-0.112" inkscape:connector-curvature="0" style="stroke:#ffffff">
      <title id="title4075">Stearns, MN</title>
    </path>
    <path id="c27009" d="m 551.07,132.33 -1.3247,-1.054 5.5126,-0.152 3.9615,-0.05 0.2086,6.026 -6.2918,0.154 -2.0664,-4.926" inkscape:connector-curvature="0" style="stroke:#ffffff">
      <title id="title4078">Benton, MN</title>
    </path>
    <path id="c27095" d="m 558.48,121.43 4.1862,-0.191 1.6563,-0.03 0.0481,1.51 -0.016,0.603 0.0731,3.294 -0.63101,0.0448 -0.005,0.62221 -0.71315,0.03 0.0624,2.45 0.15333,3.23 0.15154,4.026 -4.0168,0.08 -0.2086,-6.026 -0.12837,-2.33 -0.61865,-1.341 -0.082,0 -0.0945,-3.979 0.18364,-1.993" inkscape:connector-curvature="0" style="stroke:#ffffff">
      <title id="title4081">Mille Lacs, MN</title>
    </path>
    <path id="c27059" d="m 569.29,132.91 0.11232,3.97 1.9451,0.288 0.14441,3.005 -2.3231,0.02 -4.6444,0.143 -0.97166,0 -0.10519,-3.311 -0.15154,-4.026 5.994,-0.09" inkscape:connector-curvature="0" style="stroke:#ffffff">
      <title id="title4084">Isanti, MN</title>
    </path>
    <path id="c27025" d="m 574.13,132.77 -0.65432,2 -0.0214,0.364 0.007,0.151 0.041,0.61 0.0553,0.451 0.21751,0.168 0.77199,0.13 0.32091,-0.05 1.2712,0.685 0.79338,1.501 0.32091,1.624 -0.60974,1.558 -0.42789,0.53 -0.0214,0.02 -0.19433,0.176 -4.418,0.128 -0.0891,-2.644 -0.14441,-3.005 -1.9451,-0.288 -0.11232,-3.97 4.8387,-0.137" inkscape:connector-curvature="0" style="stroke:#ffffff">
      <title id="title4087">Chisago, MN</title>
    </path>
    <path id="c27123" d="m 568.38,148.93 -0.0507,-2.2114 3.3473,0.0734 0.18542,5.359 -2.5798,0.138 -0.90213,-3.359" inkscape:connector-curvature="0" style="stroke:#ffffff">
      <title id="title4090">Ramsey, MN</title>
    </path>
    <path id="c27003" d="m 563.55,140.33 0.97166,0 4.6444,-0.143 2.3231,-0.02 0.0891,2.644 0.0963,3.978 -3.3473,-0.0734 0.0507,2.2114 -0.7662,-0.0202 -0.23892,-2.7152 -3.7587,-1.9737 -0.0642,-3.89" inkscape:connector-curvature="0" style="stroke:#ffffff">
      <title id="title4093">Anoka, MN</title>
    </path>
    <path id="c27141" d="m 563.45,137.02 0.10519,3.311 0.0642,3.89 -0.15154,-0.02 -0.99662,-1.022 -1.4316,-0.04 -1.3657,0.05 -0.23355,-0.06 -1.6313,-0.932 -2.9471,-1.84 -1.7205,-3.109 6.2918,-0.154 4.0168,-0.08" inkscape:connector-curvature="0" style="stroke:#ffffff">
      <title id="title4096">Sherburne, MN</title>
    </path>
    <path id="c27171" d="m 551.46,143.61 0.76727,-0.48088 0.51911,0.30493 1.429,-1.2253 0.68455,-1.8457 2.9471,1.84 1.6313,0.932 0.23355,0.06 1.3657,-0.05 1.4316,0.04 0.99662,1.022 -1.938,0.988 -0.22464,0.185 -1.4548,2.771 -0.2086,2.33 -4.0025,0.07 -3.9687,0.06 -0.2086,-6.999" inkscape:connector-curvature="0" style="stroke:#ffffff">
      <title id="title4099">Wright, MN</title>
    </path>
    <path id="c27093" d="m 543.3,142.77 3.703,-0.06 2.3368,-0.02 -0.0164,0.981 2.1403,-0.06 0.2086,6.999 -4.0554,0.0697 0.0707,2.0113 -4.1719,0.06 -0.21573,-9.988" inkscape:connector-curvature="0" style="stroke:#ffffff">
      <title id="title4102">Meeker, MN</title>
    </path>
    <path id="c27067" d="m 535.32,140.86 1.9915,0 5.9601,-0.08 0.0267,1.993 0.21573,9.988 -7.9944,0.1 -0.016,-6.003 -0.18364,-5.987" inkscape:connector-curvature="0" style="stroke:#ffffff">
      <title id="title4105">Kandiyohi, MN</title>
    </path>
    <path id="c27023" d="m 522.66,146.9 12.84,-0.05 0.016,6.003 -3.8332,0.04 0.025,3.167 -4.1648,-4.195 -4.8833,-4.966" inkscape:connector-curvature="0" style="stroke:#ffffff">
      <title id="title4108">Chippewa, MN</title>
    </path>
    <path id="c27163" d="m 571.58,142.81 4.418,-0.128 -0.24782,2 -0.33875,3.03 0.0499,0.755 0.39936,0.853 0.34945,1.615 -0.1248,1.735 -0.56874,2.717 -3.6729,-0.18462 0.018,-3.0554 -0.18542,-5.359 -0.0963,-3.978" inkscape:connector-curvature="0" style="stroke:#ffffff">
      <title id="title4111">Washington, MN</title>
    </path>
    <path id="c27037" d="m 569.28,152.29 2.5798,-0.138 -0.0181,3.0554 3.6729,0.18462 1.166,0.674 0.0624,1.945 -0.90871,0.0358 0.003,1.9732 -2.0753,0.07 -0.003,0.64691 -1.9404,0.0771 0.0232,0.995 -4.0073,-0.048 -0.0184,-1.494 -0.007,-2 -0.65253,0.02 -0.21573,-1.992 -0.0731,-1.688 1.7627,-0.65901 0.64953,-1.655" inkscape:connector-curvature="0" style="stroke:#ffffff">
      <title id="title4114">Dakota, MN</title>
    </path>
    <path id="c27053" d="m 563.62,144.22 3.7587,1.9737 0.23892,2.7152 0.7662,0.0202 0.90213,3.359 -0.64953,1.655 -1.7627,0.65901 -3.1254,-0.227 -0.0481,-2 -4.0257,0.105 -0.0321,-2.002 0.2086,-2.33 1.4548,-2.771 0.22464,-0.185 1.938,-0.988 0.15154,0.02" inkscape:connector-curvature="0" style="stroke:#ffffff">
      <title id="title4117">Hennepin, MN</title>
    </path>
    <path id="c27139" d="m 563.75,154.38 3.1254,0.227 0.0731,1.688 0.21573,1.992 0.65253,-0.02 0.007,2 -3.9758,0.114 -6.3328,0.161 2.2821,-2.291 0.0731,0.03 0.43323,-0.179 1.3746,-1.077 0.40114,-0.538 -0.11232,-0.209 0.0161,-0.337 0.82547,-1.308 0.60439,-0.252 0.33696,0" inkscape:connector-curvature="0" style="stroke:#ffffff">
      <title id="title4120">Scott, MN</title>
    </path>
    <path id="c27019" d="m 555.64,150.55 4.0025,-0.07 0.0321,2.002 4.0257,-0.105 0.0481,2 -0.33696,0 -0.60439,0.252 -0.82547,1.308 -0.0161,0.337 0.11232,0.209 -0.40114,0.538 -1.3746,1.077 -0.43323,0.178 -0.0731,-0.03 -4.0025,-1.686 -0.15333,-6.012" inkscape:connector-curvature="0" style="stroke:#ffffff">
      <title id="title4123">Carver, MN</title>
    </path>
    <path id="c27085" d="m 551.67,150.61 3.9687,-0.06 0.15333,6.012 -1.9915,0.04 -1.9861,0.25 0.0178,1.799 -3.3839,0.07 -0.59547,0 -0.0321,-2.01 -0.13549,-4.025 -0.0707,-2.0113 4.0554,-0.0697" inkscape:connector-curvature="0" style="stroke:#ffffff">
      <title id="title4126">McLeod, MN</title>
    </path>
    <path id="c27143" d="m 555.79,156.56 4.0025,1.687 -2.2821,2.291 -0.26564,2 -11.403,0.217 -0.11232,-1.986 -0.0642,-4.018 2.1537,-0.04 0.0321,2.009 0.59547,0 3.3839,-0.07 -0.0178,-1.799 1.9861,-0.25 1.9915,-0.04" inkscape:connector-curvature="0" style="stroke:#ffffff">
      <title id="title4129">Sibley, MN</title>
    </path>
    <path id="c27129" d="m 547.69,152.69 0.13549,4.025 -2.1537,0.04 0.0642,4.018 0.11232,1.986 -2.5727,0.02 -1.4049,-0.94 -8.1388,-4.532 -2.0164,-1.253 -0.025,-3.167 3.8332,-0.04 7.9944,-0.1 4.1719,-0.06" inkscape:connector-curvature="0" style="stroke:#ffffff">
      <title id="title4132">Renville, MN</title>
    </path>
    <path id="c27073" d="m 521.58,146.33 1.0858,0.563 4.8833,4.966 0,1.028 -1.8054,0.009 -0.008,1.9755 -9.845,-0.02 0.025,-10.663 2.0414,0.433 0.68997,0.314 0.15154,0.332 1.6474,0.665 1.1339,0.394" inkscape:connector-curvature="0" style="stroke:#ffffff">
      <title id="title4135">Lac qui Parle, MN</title>
    </path>
    <path id="c27173" d="m 515.89,154.86 9.845,0.02 0.008,-1.9755 1.8054,-0.009 0,-1.028 4.1648,4.195 2.0164,1.253 0.016,3.607 -3.8421,0 -0.15155,-2.017 -8.0122,0 -5.8746,-0.03 0.025,-4.018" inkscape:connector-curvature="0" style="stroke:#ffffff">
      <title id="title4138">Yellow Medicine, MN</title>
    </path>
    <path id="c27081" d="m 521.74,158.91 0.22464,9.995 -6.1634,-0.02 0.0499,-7.987 0.0143,-2.017 5.8746,0.03" inkscape:connector-curvature="0" style="stroke:#ffffff">
      <title id="title4141">Lincoln, MN</title>
    </path>
    <path id="c27083" d="m 529.96,168.91 -7.9944,0 -0.22464,-9.995 8.0122,0 0.15155,2.017 0.0553,7.987" inkscape:connector-curvature="0" style="stroke:#ffffff">
      <title id="title4144">Lyon, MN</title>
    </path>
    <path id="c27127" d="m 541.87,161.84 0.0571,4.974 -3.9687,0.06 -0.009,2 -5.8264,0.02 -2.1626,0.02 -0.0553,-7.987 3.8421,0 -0.016,-3.607 8.1388,4.532" inkscape:connector-curvature="0" style="stroke:#ffffff">
      <title id="title4147">Redwood, MN</title>
    </path>
    <path id="c27015" d="m 543.27,162.78 0.52595,0.16 0.6971,0.346 3.4802,1.76 0.19255,0.137 0.39401,0.385 1.503,1.544 0.10519,3.591 -8.0924,0.128 -4.1352,-0.0165 0.004,-1.9445 0.009,-2.001 3.9687,-0.06 -0.0571,-4.974 1.4049,0.94" inkscape:connector-curvature="0" style="stroke:#ffffff">
      <title id="title4150">Brown, MN</title>
    </path>
    <path id="c27103" d="m 557.25,162.54 -0.49742,2.009 -0.78803,2.354 0.0392,0.675 0.18542,1.462 -0.025,0.161 -0.69175,0.337 -0.14442,0.02 -0.47959,-0.146 -0.49207,-0.281 -0.20147,-0.159 -3.4142,-1.624 -0.67393,-0.232 -1.503,-1.544 -0.39401,-0.385 -0.19255,-0.137 -3.4802,-1.76 -0.6971,-0.346 -0.52595,-0.16 2.5727,-0.02 11.403,-0.217" inkscape:connector-curvature="0" style="stroke:#ffffff">
      <title id="title4153">Nicollet, MN</title>
    </path>
    <path id="c27079" d="m 557.51,160.54 6.3328,-0.161 0.19077,8.011 -4.0008,0.1 -0.0374,-0.9803 -3.9972,0.0723 -0.0392,-0.675 0.78803,-2.354 0.49742,-2.009 0.26564,-2" inkscape:connector-curvature="0" style="stroke:#ffffff">
      <title id="title4156">Le Sueur, MN</title>
    </path>
    <path id="c27131" d="m 563.85,160.38 3.9758,-0.114 0.0184,1.494 4.0073,0.048 0.16937,6.342 -0.0891,0 -5.937,0.176 -1.954,0.07 -0.19077,-8.011" inkscape:connector-curvature="0" style="stroke:#ffffff">
      <title id="title4159">Rice, MN</title>
    </path>
    <path id="c27049" d="m 576.69,156.06 1.6937,1.439 0.17651,0.224 0.041,0.225 1.1892,1.182 0.25851,0.119 0.69889,0.08 2.209,0.09 0.28169,0.06 0.18542,0.09 0.15867,0.137 0.0571,0.09 0.0907,1.0972 1.2126,0.84785 -3.0951,0.103 0.04,1.9911 -1.937,0.0759 0.1355,4.009 -2.102,0.05 -5.9637,0.177 -0.16937,-6.342 -0.0232,-0.995 1.9404,-0.0766 0.003,-0.64641 2.0753,-0.07 -0.003,-1.9732 0.90871,-0.0358 -0.0624,-1.945" inkscape:connector-curvature="0" style="stroke:#ffffff">
      <title id="title4162">Goodhue, MN</title>
    </path>
    <path id="c27157" d="m 584.94,161.75 2.4637,1.004 1.8516,0.86839 0.92749,0.84954 0.0222,0.51007 -0.0982,0.35854 0.39218,0.33969 0.35445,1.2638 0.26016,0.52827 -3.2563,0.1601 0.0797,2.0086 -3.9544,0.153 -0.0891,-2.009 -3.81,0.144 -0.1355,-4.01 1.937,-0.0754 -0.04,-1.9906 3.0951,-0.103" inkscape:connector-curvature="0" style="stroke:#ffffff">
      <title id="title4165">Wabasha, MN</title>
    </path>
    <path id="c27169" d="m 591.11,167.47 5.2369,3.7568 2.5868,0.74896 2.4015,3.054 -7.3846,0.353 -5.7694,0.241 -0.24782,-5.985 -0.0797,-2.0086 3.2563,-0.1601" inkscape:connector-curvature="0" style="stroke:#ffffff">
      <title id="title4168">Winona, MN</title>
    </path>
    <path id="c27109" d="m 577.98,167.97 2.102,-0.05 3.81,-0.144 0.0891,2.009 3.9544,-0.153 0.24782,5.985 -6.1063,0.547 -4.0026,-0.192 -0.0945,-8.004" inkscape:connector-curvature="0" style="stroke:#ffffff">
      <title id="title4171">Olmsted, MN</title>
    </path>
    <path id="c27039" d="m 572.02,168.15 5.9637,-0.177 0.0945,8.004 -5.8888,0.201 -0.25851,-8.028 0.0891,0" inkscape:connector-curvature="0" style="stroke:#ffffff">
      <title id="title4174">Dodge, MN</title>
    </path>
    <path id="c27147" d="m 571.93,168.15 0.25851,8.028 -0.0624,0 -5.9173,0.177 -0.21573,-8.029 5.937,-0.176" inkscape:connector-curvature="0" style="stroke:#ffffff">
      <title id="title4177">Steele, MN</title>
    </path>
    <path id="c27161" d="m 564.04,168.39 1.954,-0.07 0.21573,8.029 -4.0008,0.103 -1.9772,0.05 -0.19255,-8.019 4.0008,-0.1" inkscape:connector-curvature="0" style="stroke:#ffffff">
      <title id="title4180">Waseca, MN</title>
    </path>
    <path id="c27013" d="m 560.04,168.49 0.19255,8.019 -7.9391,0.178 -2.0164,0.03 -0.10341,-6.01 -0.10519,-3.591 0.67393,0.232 3.4142,1.624 0.20147,0.159 0.49207,0.281 0.47959,0.146 0.14442,-0.02 0.69175,-0.337 0.025,-0.161 -0.18542,-1.462 3.9972,-0.0723 0.0374,0.9803" inkscape:connector-curvature="0" style="stroke:#ffffff">
      <title id="title4183">Blue Earth, MN</title>
    </path>
    <path id="c27165" d="m 542.08,170.83 8.0924,-0.128 0.10341,6.01 -8.0354,0.112 -0.0802,0 -0.0802,-5.994" inkscape:connector-curvature="0" style="stroke:#ffffff">
      <title id="title4186">Watonwan, MN</title>
    </path>
    <path id="c27033" d="m 532.12,168.89 5.8264,-0.02 -0.004,1.9445 4.1352,0.0165 0.0802,5.994 -9.829,0.1 -0.16759,0 -0.041,-8.033" inkscape:connector-curvature="0" style="stroke:#ffffff">
      <title id="title4189">Cottonwood, MN</title>
    </path>
    <path id="c27101" d="m 529.96,168.91 2.1626,-0.02 0.041,8.033 -9.9645,0 0.0161,-8.012 7.7448,0" inkscape:connector-curvature="0" style="stroke:#ffffff">
      <title id="title4192">Murray, MN</title>
    </path>
    <path id="c27117" d="m 515.8,168.88 6.1634,0.02 0.2496,0 -0.0161,8.012 -6.4451,-0.03 0.0481,-8.003" inkscape:connector-curvature="0" style="stroke:#ffffff">
      <title id="title4195">Pipestone, MN</title>
    </path>
    <path id="c27133" d="m 515.75,176.88 6.4451,0.03 0.20147,0 -0.0178,8.052 -6.6608,-0.02 0.0321,-8.06" inkscape:connector-curvature="0" style="stroke:#ffffff">
      <title id="title4198">Rock, MN</title>
    </path>
    <path id="c27105" d="m 522.4,176.92 9.9306,0 0.0178,8.013 -6.7749,0.04 -3.1913,0 0.0178,-8.052" inkscape:connector-curvature="0" style="stroke:#ffffff">
      <title id="title4201">Nobles, MN</title>
    </path>
    <path id="c27063" d="m 542.16,176.83 0.0802,0 0.0963,8.021 -1.0127,0.02 -7.866,0.07 -1.109,0 -0.0178,-8.013 9.829,-0.1" inkscape:connector-curvature="0" style="stroke:#ffffff">
      <title id="title4204">Jackson, MN</title>
    </path>
    <path id="c27091" d="m 552.29,176.68 0.14619,8.011 -3.2555,0.05 -6.8462,0.1 -0.0963,-8.021 8.0354,-0.112 2.0164,-0.03" inkscape:connector-curvature="0" style="stroke:#ffffff">
      <title id="title4207">Martin, MN</title>
    </path>
    <path id="c27043" d="m 562.2,176.46 0.19255,8.043 -5.3593,0.121 -4.6034,0.07 -0.14619,-8.011 7.9391,-0.178 1.9772,-0.05" inkscape:connector-curvature="0" style="stroke:#ffffff">
      <title id="title4210">Faribault, MN</title>
    </path>
    <path id="c27047" d="m 572.12,176.18 0.25495,8.043 -7.456,0.215 -2.5245,0.06 -0.19255,-8.043 4.0008,-0.103 5.9173,-0.177" inkscape:connector-curvature="0" style="stroke:#ffffff">
      <title id="title4213">Freeborn, MN</title>
    </path>
    <path id="c27099" d="m 578.07,175.98 4.0026,0.192 0.2906,7.69 -1.7365,0.06 -7.8428,0.28 -0.41006,0.02 -0.25495,-8.043 0.0624,0 5.8888,-0.201" inkscape:connector-curvature="0" style="stroke:#ffffff">
      <title id="title4216">Mower, MN</title>
    </path>
    </g>
  </svg>
