<svg xmlns:dc="http://purl.org/dc/elements/1.1/" xmlns:cc="http://creativecommons.org/ns#" xmlns:rdf="http://www.w3.org/1999/02/22-rdf-syntax-ns#" xmlns:svg="http://www.w3.org/2000/svg" xmlns="http://www.w3.org/2000/svg" xmlns:sodipodi="http://sodipodi.sourceforge.net/DTD/sodipodi-0.dtd" xmlns:inkscape="http://www.inkscape.org/namespaces/inkscape" width="135.2799599999999" height="73.00400000000008" version="1.0" id="svg2" inkscape:version="0.91 r13725" sodipodi:docname="USA counties.svg">
  <defs id="defs9439"/>
  <sodipodi:namedview pagecolor="#ffffff" bordercolor="#666666" borderopacity="1" objecttolerance="10" gridtolerance="10" guidetolerance="10" inkscape:pageopacity="0" inkscape:pageshadow="2" inkscape:window-width="798" inkscape:window-height="828" id="namedview9437" showgrid="false" showguides="true" inkscape:zoom="0.64950808" inkscape:cx="494.98999" inkscape:cy="313.535" inkscape:window-x="-7" inkscape:window-y="0" inkscape:window-maximized="0" inkscape:current-layer="svg2"/>
  <metadata id="metadata4">
    <rdf:RDF>
      <cc:Work>
        <dc:format>image/svg+xml</dc:format>
        <dc:type rdf:resource="http://purl.org/dc/dcmitype/StillImage"/>
        <dc:title/>
        <cc:license rdf:resource="http://creativecommons.org/publicdomain/zero/1.0/"/>
        <dc:date>2019-10-06</dc:date>
        <dc:creator>
          <cc:Agent>
            <dc:title>U.S. Census Bureau, Abe.suleiman, Lokal_Profil</dc:title>
          </cc:Agent>
        </dc:creator>
        <dc:source>https://commons.wikimedia.org/wiki/File:Usa_counties_large.svg</dc:source>
      </cc:Work>
      <cc:License rdf:about="http://creativecommons.org/publicdomain/zero/1.0/">
        <cc:permits rdf:resource="http://creativecommons.org/ns#Reproduction"/>
        <cc:permits rdf:resource="http://creativecommons.org/ns#Distribution"/>
        <cc:permits rdf:resource="http://creativecommons.org/ns#DerivativeWorks"/>
      </cc:License>
    </rdf:RDF>
  </metadata>
  <style id="style6">
  /*
   * Below are Cascading Style Sheet (CSS) definitions in use in this file,
   * which allow easily changing how counties are displayed.
   *
   *
   * For the U.S. Census county codes (FIPS codes) used in this file to identify individual counties, see this link:
   * https://www2.census.gov/geo/docs/reference/codes/files/national_county.txt
   *
   * The county codes used in this file combine the 2-digit state code, which is in the second column of the file
   * linked above, and the 3-digit county code, which is in the third column of the file linked above. Each value
   * for the "id" attribute for each county is in the following form: "c[state_code][county-code]". For example,
   * for Loving Country in Texas, the state code is "48" and the county code is "301", so the id name for the
   * county is "c48301".
   *
   * County codes used in this file can also be found on Wikimedia Commons at this link:
   * https://commons.wikimedia.org/wiki/File_talk:Usa_counties_large.svg/county_codes
   *
   * Examples:
   *
   * To color two counties red (in this case Loving County and Dallas County in Texas) simply
   * go to the CSS insertion point and add:
   *
   * #c48301, #c48113 {fill:red}
   *
   * To color an entire state's counties (in the case New Mexico, with "35" being the state code) a green,
   * go to the CSS insertion point and add:
   *
   * path[id*='c35'] {fill:#34A853}
   *
   */
  #counties {fill:#d0d0d0;stroke:#000;stroke-width:.17829;} 
  #borders {fill:none;stroke:#221e1f;stroke-width:.89143;} 
  #separator {fill:none;stroke:#a9a9a9;stroke-width:2.3177309;}
 </style>
  <g id="counties" transform="translate(-413.17343,-262.49999999999994)" style="fill:#d0d0d0;stroke:#ffffff;stroke-width:0.17828999">
    <path id="c20043" d="m 534.81,265.9 0.55447,0 0.009,0.216 0.11232,0.162 2.1216,1.92 0.85935,0.553 0.43324,0.16 0.33696,0.128 0.0642,0.02 0.0802,0 0.66858,-0.06 0.13015,-0.05 0.1034,-0.1 0.0143,-0.02 0.60261,-0.683 1.4709,1.849 0.14442,0.683 0.13728,0.634 -0.36906,0.822 -0.37083,0.06 -1.2694,1.124 -0.0713,0.08 -0.6044,0.882 -0.20859,0.298 -0.87007,-0.61232 -4.0221,-0.0317 -0.0571,-8.042" inkscape:connector-curvature="0" style="stroke:#ffffff">
      <title id="title2677">Doniphan, KS</title>
    </path>
    <path id="c20013" d="m 526.97,265.93 7.8428,-0.03 0.0571,8.042 -3.9455,0.02 -3.9544,0.02 0,-8.053" inkscape:connector-curvature="0" style="stroke:#ffffff">
      <title id="title2680">Brown, KS</title>
    </path>
    <path id="c20187" d="m 414.27,314.89 9.2745,0.619 -0.44215,8.044 -0.56339,-0.03 -8.7824,-0.556 0.3851,-5.898 0.12836,-2.177" inkscape:connector-curvature="0" style="stroke:#ffffff">
      <title id="title2683">Stanton, KS</title>
    </path>
    <path id="c20129" d="m 413.76,322.97 8.7824,0.556 -0.50633,9.096 -8.6059,-0.474 -0.25674,-0.02 0.58657,-9.162" inkscape:connector-curvature="0" style="stroke:#ffffff">
      <title id="title2686">Morton, KS</title>
    </path>
    <path id="c20189" d="m 422.54,323.53 0.56339,0.03 7.891,0.457 0.39223,0.02 -0.45641,9.025 -8.8965,-0.443 0.50633,-9.096" inkscape:connector-curvature="0" style="stroke:#ffffff">
      <title id="title2689">Stevens, KS</title>
    </path>
    <path id="c20067" d="m 423.54,315.51 7.8821,0.433 -0.43324,8.068 -7.891,-0.457 0.44215,-8.044" inkscape:connector-curvature="0" style="stroke:#ffffff">
      <title id="title2692">Grant, KS</title>
    </path>
    <path id="c20081" d="m 439.32,316.36 -0.31378,6.051 -0.0963,2.026 -7.5219,-0.394 -0.39223,-0.02 0.43324,-8.068 7.891,0.41" inkscape:connector-curvature="0" style="stroke:#ffffff">
      <title id="title2695">Haskell, KS</title>
    </path>
    <path id="c20175" d="m 438.91,324.43 -0.0874,8.984 -5.682,-0.241 -2.209,-0.112 0.45641,-9.025 7.5219,0.394" inkscape:connector-curvature="0" style="stroke:#ffffff">
      <title id="title2698">Seward, KS</title>
    </path>
    <path id="c20119" d="m 446.91,322.76 1.9701,0.105 -0.15333,10.958 -9.9074,-0.408 0.0874,-8.984 0.0963,-2.026 7.907,0.355" inkscape:connector-curvature="0" style="stroke:#ffffff">
      <title id="title2701">Meade, KS</title>
    </path>
    <path id="c20069" d="m 447.16,312.6 -0.2496,10.164 -7.907,-0.355 0.31378,-6.051 -0.12836,-2.161 0.20859,-4.016 7.8678,0.41 -0.10519,2.009" inkscape:connector-curvature="0" style="stroke:#ffffff">
      <title id="title2704">Gray, KS</title>
    </path>
    <path id="c20057" d="m 447.16,312.6 11.829,0.512 0.0321,4.132 -0.16937,6.185 -9.9716,-0.56 -1.9701,-0.105 0.2496,-10.164" inkscape:connector-curvature="0" style="stroke:#ffffff">
      <title id="title2707">Ford, KS</title>
    </path>
    <path id="c20025" d="m 458.85,323.43 0.15154,2.018 -0.28882,8.838 -8.4062,-0.385 -1.5814,-0.07 0.15333,-10.958 9.9716,0.56" inkscape:connector-curvature="0" style="stroke:#ffffff">
      <title id="title2710">Clark, KS</title>
    </path>
    <path id="c20033" d="m 468.65,325.7 -0.0874,8.92 -8.2939,-0.282 -1.5511,-0.06 0.28882,-8.838 9.6436,0.257" inkscape:connector-curvature="0" style="stroke:#ffffff">
      <title id="title2713">Comanche, KS</title>
    </path>
    <path id="c20097" d="m 459.02,317.24 9.8432,0.385 -0.16938,6.082 -0.0481,1.993 -9.6436,-0.257 -0.15154,-2.018 0.16937,-6.185" inkscape:connector-curvature="0" style="stroke:#ffffff">
      <title id="title2716">Kiowa, KS</title>
    </path>
    <path id="c20047" d="m 459.15,309.07 3.9294,0.137 -0.0642,2.016 5.8977,0.2 0.025,4.067 -0.0713,2.137 -9.8432,-0.385 -0.0321,-4.132 0.15868,-4.04" inkscape:connector-curvature="0" style="stroke:#ffffff">
      <title id="title2719">Edwards, KS</title>
    </path>
    <path id="c20151" d="m 478.69,315.79 0.0802,2.13 -0.16045,6.058 -9.9163,-0.265 0.16938,-6.082 0.0713,-2.137 9.7559,0.296" inkscape:connector-curvature="0" style="stroke:#ffffff">
      <title id="title2722">Pratt, KS</title>
    </path>
    <path id="c20007" d="m 468.7,323.71 9.9163,0.265 0.003,1.9775 2.029,0.0965 -0.16937,8.945 -3.6068,-0.115 -8.3082,-0.256 0.0874,-8.92 0.0481,-1.993" inkscape:connector-curvature="0" style="stroke:#ffffff">
      <title id="title2725">Barber, KS</title>
    </path>
    <path id="c20077" d="m 480.64,326.05 9.8432,0.162 -0.0802,8.982 -5.6499,-0.105 -4.2824,-0.09 0.16937,-8.945" inkscape:connector-curvature="0" style="stroke:#ffffff">
      <title id="title2728">Harper, KS</title>
    </path>
    <path id="c20095" d="m 478.77,317.92 11.853,0.239 -0.10519,6.019 -0.0321,2.036 -9.8432,-0.162 -2.029,-0.0965 -0.003,-1.9775 0.16045,-6.058" inkscape:connector-curvature="0" style="stroke:#ffffff">
      <title id="title2731">Kingman, KS</title>
    </path>
    <path id="c20155" d="m 488.77,307.93 3.9526,0.07 -0.11232,6.044 -0.0167,4.1235 -1.9676,-0.0125 -11.853,-0.239 -0.0802,-2.13 0.19968,-8.068 9.8771,0.211" inkscape:connector-curvature="0" style="stroke:#ffffff">
      <title id="title2734">Reno, KS</title>
    </path>
    <path id="c20079" d="m 498.64,308.1 3.87,0.15506 0.0256,1.8929 -0.0303,4.049 -9.9003,-0.151 0.11232,-6.044 5.9227,0.1" inkscape:connector-curvature="0" style="stroke:#ffffff">
      <title id="title2737">Harvey, KS</title>
    </path>
    <path id="c20173" d="m 492.61,314.04 9.9003,0.151 -0.13728,10.134 -11.853,-0.155 0.10519,-6.019 1.9676,0.0125 0.0167,-4.1235" inkscape:connector-curvature="0" style="stroke:#ffffff">
      <title id="title2740">Sedgwick, KS</title>
    </path>
    <path id="c20191" d="m 490.52,324.17 11.853,0.155 -0.0321,11.042 -5.7373,-0.07 -6.1955,-0.107 0.0802,-8.982 0.0321,-2.036" inkscape:connector-curvature="0" style="stroke:#ffffff">
      <title id="title2743">Sumner, KS</title>
    </path>
    <path id="c20035" d="m 502.37,324.33 11.362,0.08 0,4.026 -0.0571,7.03 -4.0899,-0.02 -7.2474,-0.07 0.0321,-11.042" inkscape:connector-curvature="0" style="stroke:#ffffff">
      <title id="title2746">Cowley, KS</title>
    </path>
    <path id="c20015" d="m 508.15,310.25 5.7212,0.02 -0.11232,11.106 -0.025,3.03 -11.362,-0.08 0.13728,-10.134 0.0303,-4.049 5.6107,0.104" inkscape:connector-curvature="0" style="stroke:#ffffff">
      <title id="title2749">Butler, KS</title>
    </path>
    <path id="c20019" d="m 513.73,328.44 10.175,0.105 0.005,6.959 -0.66501,0 -9.5722,-0.03 0.0571,-7.03" inkscape:connector-curvature="0" style="stroke:#ffffff">
      <title id="title2752">Chautauqua, KS</title>
    </path>
    <path id="c20049" d="m 523.96,321.48 0,5.031 -0.0535,2.027 -10.175,-0.105 0,-4.026 0.025,-3.03 10.203,0.103" inkscape:connector-curvature="0" style="stroke:#ffffff">
      <title id="title2755">Elk, KS</title>
    </path>
    <path id="c20073" d="m 524,308.33 -0.009,3.036 -0.025,7.087 0,3.027 -10.203,-0.103 0.11232,-11.106 2.9611,0.0176 0.0199,-2.0086 7.144,0.05" inkscape:connector-curvature="0" style="stroke:#ffffff">
      <title id="title2758">Greenwood, KS</title>
    </path>
    <path id="c20125" d="m 523.96,326.51 7.8999,0.04 0.082,0 0.0713,2.717 -0.0553,4.741 0.005,1.453 -4.8209,0.03 -3.2306,0 -0.005,-6.959 0.0535,-2.027" inkscape:connector-curvature="0" style="stroke:#ffffff">
      <title id="title2761">Montgomery, KS</title>
    </path>
    <path id="c20205" d="m 523.96,318.46 7.8589,0.02 0.041,8.083 -7.8999,-0.04 0,-8.058" inkscape:connector-curvature="0" style="stroke:#ffffff">
      <title id="title2764">Wilson, KS</title>
    </path>
    <path id="c20207" d="m 523.99,311.37 7.9159,0.02 -0.082,7.08 -7.8589,-0.02 0.025,-7.087" inkscape:connector-curvature="0" style="stroke:#ffffff">
      <title id="title2767">Woodson, KS</title>
    </path>
    <path id="c20099" d="m 531.94,326.55 7.8571,-0.06 0.24069,1.02 0.11232,7.884 -6.0974,0.06 -2.0913,0 -0.005,-1.453 0.0553,-4.741 -0.0713,-2.717" inkscape:connector-curvature="0" style="stroke:#ffffff">
      <title id="title2770">Labette, KS</title>
    </path>
    <path id="c20133" d="m 539.72,318.42 0.0178,1.339 0.0624,6.734 -7.8571,0.06 -0.082,0 -0.041,-8.083 7.8999,-0.05" inkscape:connector-curvature="0" style="stroke:#ffffff">
      <title id="title2773">Neosho, KS</title>
    </path>
    <path id="c20001" d="m 539.84,311.34 -0.11945,7.081 -7.8999,0.05 0.082,-7.08 7.9373,-0.05" inkscape:connector-curvature="0" style="stroke:#ffffff">
      <title id="title2776">Allen, KS</title>
    </path>
    <path id="c20021" d="m 540.04,327.52 8.3082,-0.06 0.10519,7.884 -7.103,0.06 -1.1981,0 -0.11232,-7.884" inkscape:connector-curvature="0" style="stroke:#ffffff">
      <title id="title2779">Cherokee, KS</title>
    </path>
    <path id="c20037" d="m 548.23,319.69 0.11232,7.158 0.007,0.603 -8.3082,0.06 -0.24069,-1.02 -0.0624,-6.734 8.4918,-0.07" inkscape:connector-curvature="0" style="stroke:#ffffff">
      <title id="title2782">Crawford, KS</title>
    </path>
    <path id="c20011" d="m 539.84,311.34 8.3349,-0.08 0.0553,8.429 -8.4918,0.07 -0.0178,-1.339 0.11945,-7.081" inkscape:connector-curvature="0" style="stroke:#ffffff">
      <title id="title2785">Bourbon, KS</title>
    </path>
    <path id="c20075" d="m 414.99,302.77 8.5346,0.508 0.44928,0.02 -0.37797,6.72 0.0642,3.382 -0.11945,2.113 -9.2745,-0.619 0.72385,-12.125" inkscape:connector-curvature="0" style="stroke:#ffffff">
      <title id="title2788">Hamilton, KS</title>
    </path>
    <path id="c20071" d="m 415.63,292.71 8.4936,0.472 -0.59369,10.095 -8.5346,-0.508 0.50633,-8.157 0.12837,-1.902" inkscape:connector-curvature="0" style="stroke:#ffffff">
      <title id="title2791">Greeley, KS</title>
    </path>
    <path id="c20199" d="m 426.29,283.2 -0.69176,10.052 -1.478,-0.07 -8.4936,-0.472 0.49029,-8.084 0.11232,-1.995 10.061,0.571" inkscape:connector-curvature="0" style="stroke:#ffffff">
      <title id="title2794">Wallace, KS</title>
    </path>
    <path id="c20181" d="m 416.83,272.56 11.177,0.677 0.43324,0.02 -0.61688,10.022 -1.5279,-0.08 -10.061,-0.571 0.59548,-10.069" inkscape:connector-curvature="0" style="stroke:#ffffff">
      <title id="title2797">Sherman, KS</title>
    </path>
    <path id="c20023" d="m 417.44,262.5 11.186,0.694 -0.61866,10.044 -11.177,-0.677 0.007,-0.134 0.60261,-9.927" inkscape:connector-curvature="0" style="stroke:#ffffff">
      <title id="title2800">Cheyenne, KS</title>
    </path>
    <path id="c20185" d="m 471.06,305.45 7.7555,0.225 0.0713,2.041 -0.19968,8.068 -9.7559,-0.296 -0.025,-4.067 1.954,0.06 0.19968,-6.035" inkscape:connector-curvature="0" style="stroke:#ffffff">
      <title id="title2803">Stafford, KS</title>
    </path>
    <path id="c20093" d="m 423.98,303.3 7.4649,0.395 0.39401,0.02 -0.18542,3.866 -0.36192,6.216 0.13728,2.154 -7.8821,-0.433 0.11945,-2.113 -0.0642,-3.382 0.37797,-6.72" inkscape:connector-curvature="0" style="stroke:#ffffff">
      <title id="title2806">Kearny, KS</title>
    </path>
    <path id="c20055" d="m 439.33,304.1 7.8821,0.421 0.30487,0.02 -0.25495,6.051 -7.8678,-0.41 -0.20859,4.016 0.12836,2.161 -7.891,-0.41 -0.13728,-2.154 0.36192,-6.216 0.18542,-3.866 7.497,0.391" inkscape:connector-curvature="0" style="stroke:#ffffff">
      <title id="title2809">Finney, KS</title>
    </path>
    <path id="c20083" d="m 459.04,305.01 0.11233,4.06 -0.15868,4.04 -11.829,-0.512 0.10519,-2.009 0.25495,-6.051 11.516,0.472" inkscape:connector-curvature="0" style="stroke:#ffffff">
      <title id="title2812">Hodgeman, KS</title>
    </path>
    <path id="c20145" d="m 459.1,302.99 9.8824,0.372 -0.0718,1.9961 2.1524,0.0989 -0.19968,6.035 -1.954,-0.06 -5.8977,-0.2 0.0642,-2.016 -3.9294,-0.137 -0.11233,-4.06 0.066,-2.025" inkscape:connector-curvature="0" style="stroke:#ffffff">
      <title id="title2815">Pawnee, KS</title>
    </path>
    <path id="c20031" d="m 532.05,302.21 0,1.021 0.0339,3.036 -0.16937,0 -0.0161,5.128 -7.9159,-0.02 0.009,-3.036 0.15155,-6.1 7.907,-0.03" inkscape:connector-curvature="0" style="stroke:#ffffff">
      <title id="title2818">Coffey, KS</title>
    </path>
    <path id="c20003" d="m 532.05,303.23 7.9248,-0.05 0.0392,3.036 -0.17828,3.102 0,2.026 -7.9373,0.05 0.0161,-5.128 0.16937,0 -0.0339,-3.036" inkscape:connector-curvature="0" style="stroke:#ffffff">
      <title id="title2821">Anderson, KS</title>
    </path>
    <path id="c20107" d="m 548.07,303.11 0.0963,7.614 0.009,0.541 -8.3349,0.08 0,-2.026 0.17828,-3.102 -0.0392,-3.036 8.0907,-0.07" inkscape:connector-curvature="0" style="stroke:#ffffff">
      <title id="title2824">Linn, KS</title>
    </path>
    <path id="c20121" d="m 548.02,295.01 0.025,6.044 0.0232,2.058 -8.0907,0.07 0.0784,-8.083 7.9641,-0.09" inkscape:connector-curvature="0" style="stroke:#ffffff">
      <title id="title2827">Miami, KS</title>
    </path>
    <path id="c20059" d="m 532.14,295.16 7.9142,-0.06 -0.0784,8.083 -7.9248,0.05 0,-1.021 0.0891,-7.046" inkscape:connector-curvature="0" style="stroke:#ffffff">
      <title id="title2830">Franklin, KS</title>
    </path>
    <path id="c20139" d="m 532.13,292.12 0.009,3.045 -0.0891,7.046 -7.907,0.03 0.0731,-7.056 -0.007,-3.036 7.9213,-0.03" inkscape:connector-curvature="0" style="stroke:#ffffff">
      <title id="title2833">Osage, KS</title>
    </path>
    <path id="c20111" d="m 516.98,295.15 7.2402,0.03 -0.0731,7.056 -0.15155,6.1 -7.144,-0.05 0.0874,-8.086 0.041,-5.045" inkscape:connector-curvature="0" style="stroke:#ffffff">
      <title id="title2836">Lyon, KS</title>
    </path>
    <path id="c20017" d="m 508.62,300.13 8.3171,0.07 -0.0874,8.086 -0.0199,2.0086 -2.9611,-0.0176 -5.7212,-0.02 0.0321,-3.808 0.0802,-2.291 0.32804,0.01 0.0321,-4.036" inkscape:connector-curvature="0" style="stroke:#ffffff">
      <title id="title2839">Chase, KS</title>
    </path>
    <path id="c20127" d="m 514.34,292.12 0.0789,1.0202 1.8199,0.0626 0.0209,1.9487 0.71725,0.005 -0.041,5.045 -8.3171,-0.07 -2.0636,0.0378 0.10421,-2.0698 0.27589,-5.1137 0.51234,0.003 -0.0162,-0.92334 6.9086,0.06" inkscape:connector-curvature="0" style="stroke:#ffffff">
      <title id="title2842">Morris, KS</title>
    </path>
    <path id="c20115" d="m 506.66,298.09 -0.10421,2.0698 2.0636,-0.0378 -0.0321,4.036 -0.32804,-0.01 -0.0802,2.291 -0.0321,3.808 -5.6107,-0.104 -0.0256,-1.8929 -3.87,-0.15506 0.14442,-10.102 7.8749,0.1" inkscape:connector-curvature="0" style="stroke:#ffffff">
      <title id="title2845">Marion, KS</title>
    </path>
    <path id="c20113" d="m 498.79,298 -0.14442,10.102 -5.9227,-0.1 -3.9526,-0.07 0.15867,-10.109 9.8611,0.176" inkscape:connector-curvature="0" style="stroke:#ffffff">
      <title id="title2848">McPherson, KS</title>
    </path>
    <path id="c20159" d="m 478.96,299.63 9.9324,0.208 -0.12836,8.093 -9.8771,-0.211 -0.0713,-2.041 0.14441,-6.049" inkscape:connector-curvature="0" style="stroke:#ffffff">
      <title id="title2851">Rice, KS</title>
    </path>
    <path id="c20169" d="m 498.91,289.92 -0.12123,8.076 -9.8611,-0.176 0.0499,-6.06 0.0392,-2.017 9.8932,0.177" inkscape:connector-curvature="0" style="stroke:#ffffff">
      <title id="title2854">Saline, KS</title>
    </path>
    <path id="c20053" d="m 479.1,291.54 9.8771,0.225 -0.0499,6.06 -0.0303,2.016 -9.9324,-0.208 0.009,-4.067 0.12658,-4.026" inkscape:connector-curvature="0" style="stroke:#ffffff">
      <title id="title2857">Ellsworth, KS</title>
    </path>
    <path id="c20009" d="m 478.97,295.56 -0.009,4.067 -0.14441,6.049 -7.7555,-0.225 -2.1524,-0.0989 0.0718,-1.9961 0.2496,-8.069 9.7398,0.273" inkscape:connector-curvature="0" style="stroke:#ffffff">
      <title id="title2860">Barton, KS</title>
    </path>
    <path id="c20165" d="m 459.4,294.95 9.6578,0.328 0.17829,0 -0.2496,8.069 -9.8824,-0.372 0.29596,-8.034" inkscape:connector-curvature="0" style="stroke:#ffffff">
      <title id="title2863">Rush, KS</title>
    </path>
    <path id="c20135" d="m 447.61,294.43 1.6634,0.09 9.8842,0.426 0.24069,0 -0.29596,8.034 -0.066,2.025 -11.516,-0.472 -0.30487,-0.02 0.39401,-10.093" inkscape:connector-curvature="0" style="stroke:#ffffff">
      <title id="title2866">Ness, KS</title>
    </path>
    <path id="c20101" d="m 439.77,294.01 7.8428,0.419 -0.39401,10.093 -7.8821,-0.421 0.43324,-10.091" inkscape:connector-curvature="0" style="stroke:#ffffff">
      <title id="title2869">Lane, KS</title>
    </path>
    <path id="c20171" d="m 431.93,293.59 5.5126,0.304 2.3213,0.113 -0.43324,10.091 -7.497,-0.391 -0.39401,-0.02 0.49029,-10.1" inkscape:connector-curvature="0" style="stroke:#ffffff">
      <title id="title2872">Scott, KS</title>
    </path>
    <path id="c20203" d="m 425.6,293.25 6.3328,0.339 -0.49029,10.1 -7.4649,-0.395 -0.44928,-0.02 0.59369,-10.095 1.478,0.07" inkscape:connector-curvature="0" style="stroke:#ffffff">
      <title id="title2875">Wichita, KS</title>
    </path>
    <path id="c20109" d="m 427.82,283.28 2.6351,0.144 2.6904,0.193 4.9261,0.257 -0.62579,10.019 -5.5126,-0.304 -6.3328,-0.339 0.69176,-10.052 1.5279,0.08" inkscape:connector-curvature="0" style="stroke:#ffffff">
      <title id="title2878">Logan, KS</title>
    </path>
    <path id="c20063" d="m 439.68,283.96 9.8504,0.49 0.29061,0 -0.54734,10.061 -1.6634,-0.09 -7.8428,-0.419 -2.3213,-0.113 0.62579,-10.019 1.6082,0.08" inkscape:connector-curvature="0" style="stroke:#ffffff">
      <title id="title2881">Gove, KS</title>
    </path>
    <path id="c20195" d="m 449.82,284.46 9.6025,0.387 0.24068,0 -0.50633,10.093 -9.8842,-0.426 0.54734,-10.061" inkscape:connector-curvature="0" style="stroke:#ffffff">
      <title id="title2884">Trego, KS</title>
    </path>
    <path id="c20051" d="m 459.66,284.85 9.6257,0.321 0.18542,0 -0.41898,10.1 -9.6578,-0.328 -0.24069,0 0.50633,-10.093" inkscape:connector-curvature="0" style="stroke:#ffffff">
      <title id="title2887">Ellis, KS</title>
    </path>
    <path id="c20167" d="m 469.47,285.18 9.6899,0.289 -0.0642,6.067 -0.12658,4.026 -9.7398,-0.273 -0.17829,0 0.41898,-10.1" inkscape:connector-curvature="0" style="stroke:#ffffff">
      <title id="title2890">Russell, KS</title>
    </path>
    <path id="c20105" d="m 489.12,283.69 -0.10519,6.051 -0.0392,2.017 -9.8771,-0.225 0.0642,-6.067 0.0571,-2.018 9.9003,0.242" inkscape:connector-curvature="0" style="stroke:#ffffff">
      <title id="title2893">Lincoln, KS</title>
    </path>
    <path id="c20143" d="m 489.17,281.68 9.8914,0.176 -0.0874,4.035 -0.0642,4.033 -9.8932,-0.177 0.10519,-6.051 0.0481,-2.016" inkscape:connector-curvature="0" style="stroke:#ffffff">
      <title id="title2896">Ottawa, KS</title>
    </path>
    <path id="c20041" d="m 506.2,285.97 1.2373,6.092 0.0163,0.92334 -0.51234,-0.003 -0.27589,5.1137 -7.8749,-0.1 0.12123,-8.076 0.0642,-4.033 7.2242,0.08" inkscape:connector-curvature="0" style="stroke:#ffffff">
      <title id="title2899">Dickinson, KS</title>
    </path>
    <path id="c20061" d="m 506.2,285.97 0.0553,-2.041 1.9683,0.05 -0.0481,3.033 4.8048,0.39 1.3978,0.02 0,0.678 -0.0321,4.026 -6.9086,-0.06 -1.2373,-6.092" inkscape:connector-curvature="0" style="stroke:#ffffff">
      <title id="title2902">Geary, KS</title>
    </path>
    <path id="c20197" d="m 522.56,286.19 0.0324,0.72729 1.6103,0.026 0.006,5.1947 0.007,3.036 -7.2402,-0.03 -0.71725,-0.005 -0.0209,-1.9487 -1.8199,-0.0626 -0.0789,-1.0202 0.0321,-4.026 2.0336,0.0173 -0.0315,-3.0003 0.11232,0.105 0.44928,0.282 0.18542,0.05 0.93244,-0.955 1.1981,-0.289 2.1127,0.169 0.41898,0.17 0.25673,0.328 0.49742,1.046 0.0232,0.184" inkscape:connector-curvature="0" style="stroke:#ffffff">
      <title id="title2905">Wabaunsee, KS</title>
    </path>
    <path id="c20177" d="m 522.63,284.1 7.891,0 -0.0268,1.7523 -0.0369,2.1252 1.6629,-0.17454 0.016,4.317 -7.9213,0.03 -0.006,-5.1947 -1.6103,-0.026 -0.0324,-0.72729 0.0642,-2.09" inkscape:connector-curvature="0" style="stroke:#ffffff">
      <title id="title2908">Shawnee, KS</title>
    </path>
    <path id="c20045" d="m 537.67,288.04 2.3373,1.414 0.0481,5.641 -7.9142,0.06 -0.009,-3.045 -0.016,-4.317 0.77376,-0.28 0.36014,-0.04 0.24782,0.04 0.35479,0.152 0.22465,0.257 0.56338,0.338 0.31379,0.08 0.25495,-0.02 2.4604,-0.289" inkscape:connector-curvature="0" style="stroke:#ffffff">
      <title id="title2911">Douglas, KS</title>
    </path>
    <path id="c20091" d="m 542.62,289.22 0.47424,-1.462 0.11232,-0.1 0.23356,-0.08 0.27277,0 1.519,0.386 2.7242,-0.04 0.0571,4.565 0.007,2.522 -7.9641,0.09 -0.0481,-5.641 2.6119,-0.234" inkscape:connector-curvature="0" style="stroke:#ffffff">
      <title id="title2914">Johnson, KS</title>
    </path>
    <path id="c20209" d="m 548.01,285.23 -0.082,1.079 0.025,1.606 -2.7242,0.04 -1.519,-0.386 -0.27277,0 -0.23356,0.08 -0.11232,0.1 -0.47424,1.462 -0.025,-3.19 0.12124,-1.704 1.897,0 3.3999,0.907" inkscape:connector-curvature="0" style="stroke:#ffffff">
      <title id="title2917">Wyandotte, KS</title>
    </path>
    <path id="c20103" d="m 537.73,279.35 3.7191,-0.04 3.1664,5.017 -1.897,0 -0.12124,1.704 0.025,3.19 -2.6119,0.234 -2.3373,-1.414 -0.0321,-1.961 0.11945,-2.331 -0.0303,-4.403" inkscape:connector-curvature="0" style="stroke:#ffffff">
      <title id="title2920">Leavenworth, KS</title>
    </path>
    <path id="c20087" d="m 530.83,279.39 6.8961,-0.04 0.0303,4.403 -0.11945,2.331 0.0321,1.961 -2.4604,0.289 -0.25495,0.02 -0.31379,-0.08 -0.56338,-0.338 -0.22465,-0.257 -0.35479,-0.152 -0.24782,-0.04 -0.36014,0.04 -0.77376,0.28 -1.6629,0.17454 0.0369,-2.1252 0.0268,-1.7523 -0.0672,-2.7438 0.38094,-1.9642" inkscape:connector-curvature="0" style="stroke:#ffffff">
      <title id="title2923">Jefferson, KS</title>
    </path>
    <path id="c20005" d="m 539.06,276.69 2.3855,2.624 -3.7191,0.04 -6.8961,0.04 0.0891,-5.419 3.9455,-0.02 4.0221,0.0317 0.87007,0.61232 -0.6971,2.097" inkscape:connector-curvature="0" style="stroke:#ffffff">
      <title id="title2926">Atchison, KS</title>
    </path>
    <path id="c20085" d="m 530.83,279.39 -0.38094,1.9642 0.0671,2.7438 -7.891,0 0,-8.099 2.4229,0.0476 1.8767,0.0252 0.0399,-2.0899 3.9544,-0.02 -0.0891,5.419" inkscape:connector-curvature="0" style="stroke:#ffffff">
      <title id="title2929">Jackson, KS</title>
    </path>
    <path id="c20149" d="m 522.63,284.1 -0.0642,2.09 -0.0232,-0.184 -0.49742,-1.046 -0.25673,-0.328 -0.41898,-0.17 -2.1127,-0.169 -1.1981,0.289 -0.93244,0.955 -0.18542,-0.05 -0.44928,-0.282 -0.11232,-0.105 -1.2694,-0.378 -1.1731,-0.515 -1.6634,-1.541 -0.87539,-1.367 -0.86826,-1.597 0.007,-0.926 0.21752,-0.362 2.266,-2.458 6.035,0.03 3.5746,0 0,8.099" inkscape:connector-curvature="0" style="stroke:#ffffff">
      <title id="title2932">Pottawatomie, KS</title>
    </path>
    <path id="c20161" d="m 506.25,283.93 0.12837,-8.02 2.6832,0.02 3.9544,0.03 -2.266,2.458 -0.21752,0.362 -0.007,0.926 0.86826,1.597 0.87539,1.367 1.6634,1.541 1.1731,0.515 1.2694,0.378 0.0315,3.0003 -2.0336,-0.0173 0,-0.678 -1.3978,-0.02 -4.8048,-0.39 0.0481,-3.033 -1.9683,-0.05" inkscape:connector-curvature="0" style="stroke:#ffffff">
      <title id="title2935">Riley, KS</title>
    </path>
    <path id="c20027" d="m 499.06,281.85 0.10519,-6.044 7.2153,0.1 -0.12837,8.02 -0.0553,2.041 -7.2242,-0.08 0.0874,-4.035" inkscape:connector-curvature="0" style="stroke:#ffffff">
      <title id="title2938">Clay, KS</title>
    </path>
    <path id="c20029" d="m 489.25,275.63 0.0481,-2.019 9.8914,0.177 -0.0232,2.016 -0.10519,6.044 -9.8914,-0.176 0.0802,-6.042" inkscape:connector-curvature="0" style="stroke:#ffffff">
      <title id="title2941">Cloud, KS</title>
    </path>
    <path id="c20123" d="m 489.25,275.63 -0.0802,6.042 -0.0481,2.016 -9.9003,-0.242 0.25851,-8.057 9.7701,0.241" inkscape:connector-curvature="0" style="stroke:#ffffff">
      <title id="title2944">Mitchell, KS</title>
    </path>
    <path id="c20141" d="m 479.22,283.45 -0.0571,2.018 -9.6899,-0.289 -0.18542,0 0.10519,-3.366 0.13728,-2.676 0.14441,-4.024 9.4813,0.28 0.3227,0 -0.25851,8.057" inkscape:connector-curvature="0" style="stroke:#ffffff">
      <title id="title2947">Osborne, KS</title>
    </path>
    <path id="c20163" d="m 459.86,274.77 9.4421,0.315 0.37797,0.02 -0.14441,4.024 -0.13728,2.676 -0.10519,3.366 -9.6257,-0.321 -0.24068,0 0.43323,-10.071" inkscape:connector-curvature="0" style="stroke:#ffffff">
      <title id="title2950">Rooks, KS</title>
    </path>
    <path id="c20065" d="m 449.53,284.45 0.49029,-10.077 9.385,0.38 0.45106,0.02 -0.43323,10.071 -9.6025,-0.387 -0.29061,0" inkscape:connector-curvature="0" style="stroke:#ffffff">
      <title id="title2953">Graham, KS</title>
    </path>
    <path id="c20179" d="m 440.19,273.89 9.4991,0.478 0.32805,0 -0.49029,10.077 -9.8504,-0.49 0.51346,-10.072" inkscape:connector-curvature="0" style="stroke:#ffffff">
      <title id="title2956">Sheridan, KS</title>
    </path>
    <path id="c20193" d="m 427.82,283.28 0.61688,-10.022 11.394,0.61 0.36192,0.01 -0.51346,10.072 -1.6082,-0.08 -4.9261,-0.257 -2.6904,-0.193 -2.6351,-0.144" inkscape:connector-curvature="0" style="stroke:#ffffff">
      <title id="title2959">Thomas, KS</title>
    </path>
    <path id="c20153" d="m 428.62,263.2 1.519,0.08 9.8824,0.529 0.34766,0.03 -0.54021,10.043 -11.394,-0.61 -0.43324,-0.02 0.61866,-10.044" inkscape:connector-curvature="0" style="stroke:#ffffff">
      <title id="title2962">Rawlins, KS</title>
    </path>
    <path id="c20039" d="m 440.37,263.83 9.5294,0.457 0.27278,0.02 -0.48138,10.06 -9.4991,-0.478 -0.36192,-0.01 0.54021,-10.043" inkscape:connector-curvature="0" style="stroke:#ffffff">
      <title id="title2965">Decatur, KS</title>
    </path>
    <path id="c20147" d="m 467.64,264.97 1.9594,0.06 -0.30487,10.06 -9.4421,-0.315 -0.45106,-0.02 0.41897,-10.062 7.8197,0.281" inkscape:connector-curvature="0" style="stroke:#ffffff">
      <title id="title2968">Phillips, KS</title>
    </path>
    <path id="c20137" d="m 459.78,264.69 0.041,0 -0.41897,10.062 -9.385,-0.38 -0.32805,0 0.48138,-10.06 9.6097,0.385" inkscape:connector-curvature="0" style="stroke:#ffffff">
      <title id="title2971">Norton, KS</title>
    </path>
    <path id="c20183" d="m 469.6,265.03 5.9548,0.185 3.8813,0.105 -0.2817,10.068 -9.4813,-0.28 -0.37797,-0.02 0.30487,-10.06" inkscape:connector-curvature="0" style="stroke:#ffffff">
      <title id="title2974">Smith, KS</title>
    </path>
    <path id="c20089" d="m 483.47,265.41 5.9869,0.144 -0.16046,8.06 -0.0481,2.019 -9.7701,-0.241 -0.3227,0 0.2817,-10.068 4.0328,0.09" inkscape:connector-curvature="0" style="stroke:#ffffff">
      <title id="title2977">Jewell, KS</title>
    </path>
    <path id="c20157" d="m 491.39,265.6 7.9142,0.127 -0.11232,8.067 -9.8914,-0.177 0.16046,-8.06 1.9291,0.04" inkscape:connector-curvature="0" style="stroke:#ffffff">
      <title id="title2980">Republic, KS</title>
    </path>
    <path id="c20201" d="m 499.3,265.73 7.932,0.105 1.9362,0.02 -0.10519,10.078 -2.6832,-0.02 -7.2153,-0.1 0.0232,-2.016 0.11232,-8.067" inkscape:connector-curvature="0" style="stroke:#ffffff">
      <title id="title2983">Washington, KS</title>
    </path>
    <path id="c20117" d="m 515.15,265.9 3.9277,0.02 -0.0232,10.07 -6.035,-0.03 -3.9544,-0.03 0.10519,-10.078 5.9797,0.05" inkscape:connector-curvature="0" style="stroke:#ffffff">
      <title id="title2986">Marshall, KS</title>
    </path>
    <path id="c20131" d="m 523.07,265.93 3.8974,0 0,8.053 -0.0399,2.0899 -1.8767,-0.0252 -2.4229,-0.0476 -3.5746,0 0.0232,-10.07 3.9936,0" inkscape:connector-curvature="0" style="stroke:#ffffff">
      <title id="title2989">Nemaha, KS</title>
    </path>
    </g>
  </svg>
