<svg xmlns:dc="http://purl.org/dc/elements/1.1/" xmlns:cc="http://creativecommons.org/ns#" xmlns:rdf="http://www.w3.org/1999/02/22-rdf-syntax-ns#" xmlns:svg="http://www.w3.org/2000/svg" xmlns="http://www.w3.org/2000/svg" xmlns:sodipodi="http://sodipodi.sourceforge.net/DTD/sodipodi-0.dtd" xmlns:inkscape="http://www.inkscape.org/namespaces/inkscape" width="98.28587999999968" height="105.05294" version="1.0" id="svg2" inkscape:version="0.91 r13725" sodipodi:docname="USA counties.svg">
  <defs id="defs9439"/>
  <sodipodi:namedview pagecolor="#ffffff" bordercolor="#666666" borderopacity="1" objecttolerance="10" gridtolerance="10" guidetolerance="10" inkscape:pageopacity="0" inkscape:pageshadow="2" inkscape:window-width="798" inkscape:window-height="828" id="namedview9437" showgrid="false" showguides="true" inkscape:zoom="0.64950808" inkscape:cx="494.98999" inkscape:cy="313.535" inkscape:window-x="-7" inkscape:window-y="0" inkscape:window-maximized="0" inkscape:current-layer="svg2"/>
  <metadata id="metadata4">
    <rdf:RDF>
      <cc:Work>
        <dc:format>image/svg+xml</dc:format>
        <dc:type rdf:resource="http://purl.org/dc/dcmitype/StillImage"/>
        <dc:title/>
        <cc:license rdf:resource="http://creativecommons.org/publicdomain/zero/1.0/"/>
        <dc:date>2019-10-06</dc:date>
        <dc:creator>
          <cc:Agent>
            <dc:title>U.S. Census Bureau, Abe.suleiman, Lokal_Profil</dc:title>
          </cc:Agent>
        </dc:creator>
        <dc:source>https://commons.wikimedia.org/wiki/File:Usa_counties_large.svg</dc:source>
      </cc:Work>
      <cc:License rdf:about="http://creativecommons.org/publicdomain/zero/1.0/">
        <cc:permits rdf:resource="http://creativecommons.org/ns#Reproduction"/>
        <cc:permits rdf:resource="http://creativecommons.org/ns#Distribution"/>
        <cc:permits rdf:resource="http://creativecommons.org/ns#DerivativeWorks"/>
      </cc:License>
    </rdf:RDF>
  </metadata>
  <style id="style6">
  /*
   * Below are Cascading Style Sheet (CSS) definitions in use in this file,
   * which allow easily changing how counties are displayed.
   *
   *
   * For the U.S. Census county codes (FIPS codes) used in this file to identify individual counties, see this link:
   * https://www2.census.gov/geo/docs/reference/codes/files/national_county.txt
   *
   * The county codes used in this file combine the 2-digit state code, which is in the second column of the file
   * linked above, and the 3-digit county code, which is in the third column of the file linked above. Each value
   * for the "id" attribute for each county is in the following form: "c[state_code][county-code]". For example,
   * for Loving Country in Texas, the state code is "48" and the county code is "301", so the id name for the
   * county is "c48301".
   *
   * County codes used in this file can also be found on Wikimedia Commons at this link:
   * https://commons.wikimedia.org/wiki/File_talk:Usa_counties_large.svg/county_codes
   *
   * Examples:
   *
   * To color two counties red (in this case Loving County and Dallas County in Texas) simply
   * go to the CSS insertion point and add:
   *
   * #c48301, #c48113 {fill:red}
   *
   * To color an entire state's counties (in the case New Mexico, with "35" being the state code) a green,
   * go to the CSS insertion point and add:
   *
   * path[id*='c35'] {fill:#34A853}
   *
   */
  #counties {fill:#d0d0d0;stroke:#000;stroke-width:.17829;} 
  #borders {fill:none;stroke:#221e1f;stroke-width:.89143;} 
  #separator {fill:none;stroke:#a9a9a9;stroke-width:2.3177309;}
 </style>
  <g id="counties" transform="translate(-573.4575300000002,-100.28)" style="fill:#d0d0d0;stroke:#ffffff;stroke-width:0.17828999">
    <path id="c55029" transform="translate(0,-0.10698)" d="m 671.47,133.54 -0.01,0.25977 -0.18359,0.27343 -0.28125,0.0195 -0.11133,-0.1582 -0.33398,0.0312 -0.11914,0.13672 -0.50196,0.0391 -0.16797,-0.18945 -0.17382,0.004 -0.12305,0.68555 0.0273,0.41211 0.11719,0.0781 0.0176,0.20312 -0.0937,0.0176 0.0547,0.40625 0.42968,0.30469 0.54311,0.58649 0.002,-0.67438 0.4707,-0.26172 -0.0176,-0.69727 0.25977,-0.56445 0.29101,-0.4082 0.17774,-0.0117 -0.006,-0.39844 z m -2.084,3.3633 -0.3457,-0.15039 -0.37695,0 -0.53125,0.34961 -0.19336,0.004 -0.15625,0.55078 -0.50977,0.19531 -0.0918,1.5098 -0.59571,0.24804 -0.4082,0.5918 -0.41602,-0.0234 -0.1289,-0.24219 -0.33984,0.1836 0.0586,0.86523 -0.24609,0.35156 0.0664,1.0215 -0.87109,0.91797 -0.52344,1.3027 -0.45898,1.2754 -0.0371,0.66992 0.32812,0.23047 0.0156,0.4375 -0.2793,0.26367 -0.2207,-0.18164 -0.0645,-0.43945 -0.23828,-0.16601 -0.5625,0.74609 -0.71679,-0.01 -0.56055,0.55274 -0.95703,0.22851 -0.38672,0.61133 -1.1875,2.1621 -0.1543,1.1152 0,0.01 5.916,-0.48828 0.40039,-1.0527 0.32422,-0.7168 -0.10743,-0.88867 0.56055,-0.65821 0.19141,-0.38867 -0.0488,-0.31836 0.91016,-0.7207 0.0684,-0.30859 -0.25976,-0.36719 0.4668,-0.59961 0.29687,-0.0176 -0.30469,-0.40625 0.002,-0.65039 0.28125,-0.75195 0.39257,-0.19727 0.0957,-1.082 0.65039,-0.0547 0.48242,-0.80078 0.0898,-0.33984 -0.26171,-0.39649 0.38867,-0.46289 -0.3125,-0.29492 -0.084,-1.3496 0.26758,-0.29492 0.4082,0.32227 0.23829,-0.125 0.0918,-0.33008 0.0488,-0.44141 -0.16406,-0.27734 0.14062,-0.46094 z" inkscape:connector-curvature="0" style="stroke:#ffffff">
      <title id="title8983">Door, WI</title>
    </path>
    <path id="c55061" d="m 658.3,151.97 5.9156,-0.489 -0.37808,1.0978 -0.52405,0.60515 -0.3851,1.262 -0.16937,0.956 -0.26296,3.3748 -0.33074,0.93217 -3.6567,0.328 -0.57052,-7.286 0.36193,-0.781" inkscape:connector-curvature="0" style="stroke:#ffffff">
      <title id="title8986">Kewaunee, WI</title>
    </path>
    <path id="c55093" d="m 576.09,152.67 10.2,-0.282 0.10572,3.987 0.0464,3.3008 -2.805,0.12217 -0.0571,-0.09 -0.15867,-0.137 -0.18542,-0.09 -0.28169,-0.06 -2.209,-0.09 -0.69889,-0.08 -0.25851,-0.119 -1.1892,-1.182 -0.041,-0.225 -0.17651,-0.225 -1.6937,-1.438 -1.166,-0.674 0.56874,-2.717" inkscape:connector-curvature="0" style="stroke:#ffffff">
      <title id="title8989">Pierce, WI</title>
    </path>
    <path id="c55091" d="m 586.39,156.38 8.001,-0.321 0.0963,2 -5.7783,0.25 -0.31379,0.16 -0.31976,0.19349 -0.34741,2.9025 -0.27447,0.54703 -0.0553,0.644 -2.4637,-1.004 -1.2126,-0.84785 -0.0907,-1.0972 2.805,-0.12217 -0.0464,-3.3008" inkscape:connector-curvature="0" style="stroke:#ffffff">
      <title id="title8992">Pepin, WI</title>
    </path>
    <path id="c55011" d="m 596.48,157.98 0.30203,8.1383 -0.58536,0.56193 -0.50279,0.17665 -0.30383,0.43586 0.2741,0.29826 -0.37263,0.4909 0.94503,0.29862 0.2295,0.95911 0.20198,0.29863 -0.31646,1.5898 -5.2369,-3.7568 -0.26016,-0.52827 -0.35445,-1.2638 -0.39218,-0.33969 0.0982,-0.35854 -0.0222,-0.51007 -0.92749,-0.84954 -1.8516,-0.86839 0.0553,-0.644 0.27447,-0.54703 0.34741,-2.9025 0.31976,-0.19349 0.31379,-0.16 5.7783,-0.25 1.9861,-0.08" inkscape:connector-curvature="0" style="stroke:#ffffff">
      <title id="title8995">Buffalo, WI</title>
    </path>
    <path id="c55121" d="m 602.42,157.66 0.30859,8.0728 0.20147,0 0.1863,3.9372 -0.77377,-0.14367 -0.42147,0.80996 -0.37606,-2.4e-4 -0.34862,-0.42173 -0.28476,0.31111 -0.39654,-0.0739 -0.40473,0.64454 -0.11935,0.51025 0.22968,0.35755 0.0545,0.34105 -1.3426,-0.0291 -2.5868,-0.74896 0.31646,-1.5898 -0.20202,-0.29862 -0.22955,-0.95911 -0.94507,-0.29863 0.37262,-0.4909 -0.27411,-0.29826 0.30382,-0.43586 0.50279,-0.17665 0.58535,-0.56193 -0.30203,-8.1383 5.9459,-0.314" inkscape:connector-curvature="0" style="stroke:#ffffff">
      <title id="title8998">Trempealeau, WI</title>
    </path>
    <path id="c55053" d="m 602.42,157.66 3.9758,-0.193 0.0963,1.994 1.9319,-0.11105 0.15942,2.006 5.994,-0.337 1.9754,-0.169 0.21468,4.2078 0.16989,2.0774 -2.5863,0.0677 -5.2792,0.21116 -1.7419,0.112 -0.79516,0.298 -0.44393,0.426 0.1141,1.359 -3.0714,0.19421 -0.0173,-0.14514 -0.1863,-3.9362 -0.20147,0 -0.30859,-8.0728" inkscape:connector-curvature="0" style="stroke:#ffffff">
      <title id="title9001">Jackson, WI</title>
    </path>
    <path id="c55035" d="m 606.08,151.47 0.32092,6.002 -3.9758,0.193 -5.9459,0.314 -1.9861,0.08 -0.0963,-2 -0.18541,-3.971 11.869,-0.619" inkscape:connector-curvature="0" style="stroke:#ffffff">
      <title id="title9004">Eau Claire, WI</title>
    </path>
    <path id="c55019" d="m 605.85,147.47 9.8896,-0.619 0.45998,8.011 0.36014,5.987 -1.9754,0.169 -5.994,0.337 -0.15942,-2.006 -1.9319,0.11105 -0.0963,-1.994 -0.32092,-6.002 -0.23177,-3.994" inkscape:connector-curvature="0" style="stroke:#ffffff">
      <title id="title9007">Clark, WI</title>
    </path>
    <path id="c55017" d="m 595.52,141.99 9.9787,-0.499 0.57765,9.981 -11.869,0.618 -0.27623,-6.0489 -0.27624,0.0172 -0.0573,-2.0423 1.9618,-0.0837 -0.0398,-1.9423" inkscape:connector-curvature="0" style="stroke:#ffffff">
      <title id="title9010">Chippewa, WI</title>
    </path>
    <path id="c55033" d="m 593.6,144.01 0.0573,2.0423 0.27624,-0.0172 0.27623,6.0489 0.18541,3.971 -8.001,0.321 -0.10572,-3.987 -0.33216,-6.0026 -0.37623,0.0124 -0.008,-2.0848 8.0284,-0.304" inkscape:connector-curvature="0" style="stroke:#ffffff">
      <title id="title9013">Dunn, WI</title>
    </path>
    <path id="c55109" d="m 585.57,144.32 0.008,2.0848 0.37623,-0.0124 0.33216,6.0026 -10.2,0.282 0.1248,-1.735 -0.34945,-1.615 -0.39936,-0.853 -0.0499,-0.755 0.33875,-3.03 9.8181,-0.369" inkscape:connector-curvature="0" style="stroke:#ffffff">
      <title id="title9016">St. Croix, WI</title>
    </path>
    <path id="c55095" d="m 585.26,134.43 0.31365,9.884 -9.8181,0.369 0.24782,-2 0.19433,-0.176 0.0214,-0.02 0.42789,-0.53 0.60974,-1.558 -0.32091,-1.624 -0.79338,-1.501 -1.2712,-0.685 -0.32091,0.05 -0.77199,-0.13 -0.21751,-0.168 -0.0553,-0.451 -0.041,-0.61 -0.007,-0.151 0.0214,-0.364 5.748,-0.16 -0.0553,-1.985 6.0172,-0.16 0.0713,1.968" inkscape:connector-curvature="0" style="stroke:#ffffff">
      <title id="title9019">Polk, WI</title>
    </path>
    <path id="c55005" d="m 587.25,134.35 7.9159,-0.298 0.35479,7.932 0.0398,1.9423 -1.9618,0.0837 -8.0284,0.304 -0.31365,-9.884 1.9932,-0.08" inkscape:connector-curvature="0" style="stroke:#ffffff">
      <title id="title9022">Barron, WI</title>
    </path>
    <path id="c55107" d="m 609.04,133.32 0.33875,5.978 -4.0131,0.20068 0.13183,1.9853 -9.9787,0.499 -0.35479,-7.932 13.876,-0.731" inkscape:connector-curvature="0" style="stroke:#ffffff">
      <title id="title9025">Rusk, WI</title>
    </path>
    <path id="c55119" d="m 619.66,138.59 0.3548,6.003 -2.4921,0.221 0.11906,1.929 -1.9059,0.112 -9.8896,0.619 -0.34588,-5.987 -0.13183,-1.9853 4.0131,-0.20068 3.5675,-0.183 2.1626,-0.211 3.2056,-0.248 1.3425,-0.07" inkscape:connector-curvature="0" style="stroke:#ffffff">
      <title id="title9028">Taylor, WI</title>
    </path>
    <path id="c55099" d="m 614.64,125.1 4.1327,-0.263 0.14441,1.943 0.48138,7.843 0.26564,3.968 -1.3425,0.07 -3.2056,0.248 -2.1626,0.211 -3.5675,0.183 -0.33875,-5.978 -0.40827,-7.875 6.0011,-0.346" inkscape:connector-curvature="0" style="stroke:#ffffff">
      <title id="title9031">Price, WI</title>
    </path>
    <path id="c55113" d="m 594.44,122.15 10.02,-0.451 0.16046,3.657 0.041,0.33 3.9776,-0.234 0.40827,7.875 -13.876,0.731 -0.73098,-11.908" inkscape:connector-curvature="0" style="stroke:#ffffff">
      <title id="title9034">Sawyer, WI</title>
    </path>
    <path id="c55129" d="m 586.46,122.48 7.9712,-0.337 0.73098,11.908 -7.9159,0.298 -0.36014,-7.891 -0.27457,0 -0.15154,-3.987" inkscape:connector-curvature="0" style="stroke:#ffffff">
      <title id="title9037">Washburn, WI</title>
    </path>
    <path id="c55013" d="m 582.56,122.65 3.9063,-0.17 0.15154,3.987 0.27457,0 0.36014,7.891 -1.9932,0.08 -0.0713,-1.968 -6.0172,0.16 0.0553,1.985 -5.748,0.16 0.65432,-2 1.6135,-3.231 0.19968,-0.36 0.20147,-0.266 0.79872,-0.699 0.005,0 3.3429,-2.194 2.3391,-1.46 -0.0321,-0.901 -0.041,-0.996" inkscape:connector-curvature="0" style="stroke:#ffffff">
      <title id="title9040">Burnett, WI</title>
    </path>
    <path id="c55031" d="m 582.13,111.06 0.36014,0.25 0.44215,0.04 0.47603,-0.03 0.0784,-0.05 0.0731,-0.07 0.21573,-0.563 -0.016,-0.257 -0.016,-0.02 -0.0802,-0.09 0,-0.02 -0.0553,-0.145 0.016,-0.169 0.0892,-0.184 1.1232,-0.764 0.42789,-0.03 0.91462,0.894 0.22285,0.1 0.082,-0.06 0.44215,0.298 0.24069,0.137 0.1872,0.08 0.30309,0.05 1.938,-0.321 0.46533,-0.13 3.728,-1.567 0.21751,5.457 0.11946,1.962 0.30665,6.291 -7.9712,0.337 -3.9063,0.17 -0.21573,-5.964 -0.20859,-5.632" inkscape:connector-curvature="0" style="stroke:#ffffff">
      <title id="title9043">Douglas, WI</title>
    </path>
    <path id="c55007" d="m 603.88,111.85 0.57765,9.85 -10.02,0.451 -0.30665,-6.291 -0.11946,-1.961 -0.21751,-5.458 0.22643,0.02 0.40828,-0.09 1.7191,-0.86163 0.37774,-0.0221 0.52757,-0.77878 1.2332,-0.28498 0.44735,-0.73511 0.41345,0.0161 0.43726,0.47826 0.49053,-0.78671 0.1462,0.33228 0.50822,0.0377 0.13728,-0.09 -0.0322,-0.45946 0.32702,0.0229 0.27289,0.14022 0.29877,-0.38861 -0.0196,-0.24858 0.2865,-0.27969 0.24659,-0.11373 0.46711,-0.602 0.76135,0.28057 0.83786,-0.81457 0.24068,-0.04 0.28883,0.1 0.86113,0.665 0.52773,0.612 0.066,0.121 0,0.112 -0.30868,0.33701 -0.36524,1.189 -0.47907,0.58172 -0.12134,0.34234 -0.41143,0.0302 0.0134,0.44375 -0.23165,0.22907 0.009,0.41948 0.49061,0.74773 -0.0394,0.35564 -0.44454,0.44176 -0.35279,0.15935 -0.006,0.009 -0.18994,0.29793 0.0184,0.38706 -0.20686,0.71554 -0.19337,0.0636 0.005,0.08 0.16224,0.184 0.23356,0.07" inkscape:connector-curvature="0" style="stroke:#ffffff">
      <title id="title9046">Bayfield, WI</title>
    </path>
    <path id="c55003" transform="translate(0,-0.10698)" d="m 611.76,100.28 -0.78711,0.0117 -0.21484,0.31055 -0.0996,0.44141 0.11914,0.40234 -0.0859,0.28711 -0.15039,0.20703 0.0884,0.2547 0.61672,-0.284 0.38086,-0.47265 0.006,-0.54102 z m -1.7527,2.8276 -0.26924,-0.18589 -1.6695,0.5602 -0.36059,0.6724 0.17192,0.28264 1.1374,-0.36024 0.50558,-0.011 0.002,-0.24291 0.25704,-0.2889 z m -3.302,6.2856 -0.28125,0.625 0.0293,0.39649 -0.14453,0.24219 -0.375,0.27929 -1.7051,1.0391 -0.0644,0.0195 -0.13672,0 -0.15235,-0.041 0,0.006 0.57813,9.8496 0.16015,3.6562 0.041,0.33008 3.9785,-0.23438 6,-0.3457 -0.0859,-1.9844 -0.16992,-1.9844 -1.9512,0.10742 -0.12109,-1.9551 -2.0156,0.11133 -0.0977,-2.6602 -0.18359,-3.2793 -0.13086,-1.9199 -1.293,-0.8418 z m 0.52547,-2.0857 -0.38228,7.1e-4 -0.72035,0.73675 -0.28527,0.004 -0.0398,-0.77593 0.86723,-0.43581 0.12728,-0.29022 1.0548,-0.742 0.39015,-0.62252 0.3905,-0.032 0.53097,0.54268 -0.35987,0.23927 -0.42627,0.0396 -0.88321,0.41193 -0.071,0.45878 0.49764,-0.0688 -0.0134,0.31827 z" inkscape:connector-curvature="0" style="stroke:#ffffff">
      <title id="title9049">Ashland, WI</title>
    </path>
    <path id="c55051" d="m 611.99,111.83 1.815,0.988 3.2306,3.97 1.478,0.312 1.6224,0.337 0.47781,7.281 -1.8488,0.122 -4.1327,0.263 -0.0874,-1.984 -0.16938,-1.984 -1.9504,0.10675 -0.12134,-1.9558 -2.0164,0.112 -0.0981,-2.66 -0.18364,-3.279 -0.13015,-1.92 0.58246,-0.11943 1.0134,0.48808 0.51859,-0.0777" inkscape:connector-curvature="0" style="stroke:#ffffff">
      <title id="title9052">Iron, WI</title>
    </path>
    <path id="c55125" d="m 620.14,117.44 11.524,2.364 0.86647,0.177 0.67749,0.144 1.0929,0.369 1.1321,0.555 0.97345,0.474 0.14263,2.098 -1.831,0.129 0.15155,1.993 -2.1959,0.14892 0.0689,0.90387 -2.092,0.12658 -0.0207,-0.89937 -11.717,0.763 -0.14441,-1.943 1.8488,-0.122 -0.47781,-7.281" inkscape:connector-curvature="0" style="stroke:#ffffff">
      <title id="title9055">Vilas, WI</title>
    </path>
    <path id="c55085" d="m 634.87,125.74 0.73989,9.859 -6.1081,0.378 -0.19255,-2.018 -3.9455,0.266 -5.969,0.401 -0.48138,-7.843 11.717,-0.763 0.0207,0.89937 2.092,-0.12658 -0.0689,-0.90387 2.1959,-0.14892" inkscape:connector-curvature="0" style="stroke:#ffffff">
      <title id="title9058">Oneida, WI</title>
    </path>
    <path id="c55069" d="m 629.5,135.98 0.53129,7.986 -10.018,0.634 -0.3548,-6.003 -0.26564,-3.968 5.969,-0.401 3.9455,-0.266 0.19255,2.018" inkscape:connector-curvature="0" style="stroke:#ffffff">
      <title id="title9061">Lincoln, WI</title>
    </path>
    <path id="c55067" d="m 629.5,135.98 6.1081,-0.378 1.9843,-0.153 0.10519,1.984 4.0115,-0.305 0.26208,3.987 0.68284,-0.05 0.10697,2.007 -5.5305,0.403 0.16224,2.049 -3.9294,0.272 -0.15273,-2.0283 -3.2793,0.19633 -0.53129,-7.986" inkscape:connector-curvature="0" style="stroke:#ffffff">
      <title id="title9064">Langlade, WI</title>
    </path>
    <path id="c55073" d="m 620.01,144.6 10.018,-0.634 3.2793,-0.19633 0.15273,2.0283 0.54826,8.0993 -5.0527,0.19423 -5.0749,0.3055 -7.6895,0.473 -0.45998,-8.011 1.9059,-0.112 -0.11906,-1.929 2.4921,-0.221" inkscape:connector-curvature="0" style="stroke:#ffffff">
      <title id="title9067">Marathon, WI</title>
    </path>
    <path id="c55141" d="m 616.2,154.87 7.6895,-0.473 0.27278,3.985 1.9291,-0.121 0.23177,3.136 0.19434,2.924 -3.0141,0.31084 -6.7286,0.433 -0.21468,-4.2078 -0.36014,-5.987" inkscape:connector-curvature="0" style="stroke:#ffffff">
      <title id="title9070">Wood, WI</title>
    </path>
    <path id="c55001" d="m 628.6,164.22 0.41006,6.068 0.48851,7.818 -3.0737,0.241 -0.10703,-0.45136 -0.50163,-0.30479 -0.37761,-0.78958 -0.2987,-1.0714 -1.253,-1.241 -0.0128,-0.20382 -0.71338,-0.67822 -0.0144,-0.31744 -0.49917,-0.81351 0.24804,-0.25737 0.24804,-0.0206 -0.0225,-0.4603 -0.36077,-1.227 -0.654,-0.21803 0.10136,-0.49988 -0.29323,-0.2293 -0.16921,-1.3004 0.18779,-0.59159 0.47974,-0.10046 0.11834,-0.92904 0.38278,-0.0211 0.19767,0.19925 0.18885,-0.0123 -0.0403,-0.49712 0.32106,-0.0387 -0.0211,-0.27854 -0.26791,0.0388 -0.0582,-0.15117 0.29443,-0.1688 -0.34024,-0.21287 0.006,-0.12407 0.24109,-0.11492 0.0824,-0.2207 -0.0211,-0.41076 3.0141,-0.31084 2.0895,-0.1" inkscape:connector-curvature="0" style="stroke:#ffffff">
      <title id="title9073">Adams, WI</title>
    </path>
    <path id="c55057" d="m 616.77,165.06 6.7286,-0.433 0.0211,0.41076 -0.0824,0.2207 -0.24109,0.11492 -0.006,0.12407 0.34024,0.21287 -0.29443,0.1688 0.0582,0.15117 0.26791,-0.0388 0.0211,0.27854 -0.32107,0.0387 0.0403,0.49712 -0.18885,0.0123 -0.19767,-0.19925 -0.38278,0.0211 -0.11834,0.92904 -0.47974,0.10046 -0.18779,0.59159 0.16921,1.3004 0.29323,0.2293 -0.10136,0.49988 0.654,0.21803 0.36077,1.227 0.0226,0.4603 -0.24804,0.0206 -0.24804,0.25737 0.49917,0.81351 0.0144,0.31744 0.71338,0.67822 0.0128,0.20382 1.253,1.241 0.29869,1.0714 0.37762,0.78958 0.50163,0.30479 0.10703,0.45136 -8.7378,0.547 -0.11945,-2.082 -0.62988,-9.6728 -0.16989,-2.0774" inkscape:connector-curvature="0" style="stroke:#ffffff">
      <title id="title9076">Juneau, WI</title>
    </path>
    <path id="c55081" d="m 606.21,169.61 -0.1141,-1.359 0.44393,-0.426 0.79516,-0.298 1.7419,-0.112 5.2792,-0.21116 2.5863,-0.0677 0.62988,9.6728 -9.9003,0.701 -0.25138,-4.677 -0.22464,-3.287 -0.98593,0.06" inkscape:connector-curvature="0" style="stroke:#ffffff">
      <title id="title9079">Monroe, WI</title>
    </path>
    <path id="c55063" d="m 603.12,169.67 0.0173,0.14517 3.0714,-0.19417 0.98593,-0.06 0.22464,3.287 0.25138,4.677 -5.9298,0.296 -0.40293,-2.78 -2.4015,-3.054 1.3426,0.0291 -0.0545,-0.34105 -0.22968,-0.35755 0.11935,-0.51025 0.40473,-0.64454 0.39654,0.0739 0.28476,-0.31111 0.34862,0.42173 0.37606,2.4e-4 0.42147,-0.80996 0.77377,0.14367" inkscape:connector-curvature="0" style="stroke:#ffffff">
      <title id="title9082">La Crosse, WI</title>
    </path>
    <path id="c55123" d="m 617.57,176.81 0.11945,2.082 0.14442,2.001 -5.9851,0.369 0.21751,2.999 -8.9375,0.472 -0.28882,-1.776 -1.1,-5.15 5.9298,-0.296 9.9003,-0.701" inkscape:connector-curvature="0" style="stroke:#ffffff">
      <title id="title9085">Vernon, WI</title>
    </path>
    <path id="c55111" d="m 617.69,178.89 8.7378,-0.547 0.24435,0.89833 0.86237,0.10006 -0.23204,0.3962 0.10271,0.34469 1.9867,-0.0926 0.11232,0.1 0.39301,4.0604 -0.30487,0.274 -0.40293,0.2 -0.1765,0.06 -0.24069,-0.03 -0.15332,0.05 -0.6668,1.1 -0.041,0.314 0.12836,0.183 0.0195,0.57302 -0.27605,0.37562 -0.36884,0.24305 -0.19729,0.20622 -0.60358,0.0693 -0.40472,0.66581 -1.223,0.58141 -1.6465,-0.0539 -0.50971,0.61825 -0.2223,0.13418 -0.0408,0.46697 -0.43408,-0.33475 -0.75174,0.0434 -0.43407,-0.19861 -0.75174,0.17956 0.0143,-0.06 -0.39551,-9.0535 -1.979,0.145 -0.14442,-2.001" inkscape:connector-curvature="0" style="stroke:#ffffff">
      <title id="title9088">Sauk, WI</title>
    </path>
    <path id="c55103" d="m 617.83,180.89 1.979,-0.145 0.39551,9.0535 -0.0143,0.06 -1.0299,-0.66085 -0.45591,0.026 -0.24891,-0.25625 -0.82374,0.01 -0.60732,0.14149 -0.69029,0.0253 -0.79273,0.0596 -0.5402,-0.0999 -0.87248,0.0197 -0.5402,0.20578 -0.47285,0.54398 -0.47284,0.0921 -0.22032,0.0788 -0.36014,-5.785 -0.21751,-2.999 5.9851,-0.369" inkscape:connector-curvature="0" style="stroke:#ffffff">
      <title id="title9091">Richland, WI</title>
    </path>
    <path id="c55023" d="m 603.13,184.73 8.9375,-0.472 0.36014,5.785 -0.55652,0.0302 -0.123,0.43499 -0.52624,0.37047 -0.0262,0.37046 -1.1069,0.43499 -0.42748,0.57861 -0.20167,0.0141 -0.16941,0.28828 -0.54039,0.0625 -0.60491,0.23989 -0.29845,-0.002 -0.10462,0.34056 -0.60646,0.54587 -0.37835,0.0896 -0.30991,0.45462 -0.42397,0.0212 -0.17306,0.31776 -0.46959,0.0212 -0.10462,-0.16127 -0.59172,-0.0184 -0.3222,0.32043 -0.35658,-2.186 0.43681,-1.696 1.2837,-2.162 0.0642,-0.287 -0.50456,-0.811 -0.38688,-0.491 -1.7846,-1.255 0.016,-1.182" inkscape:connector-curvature="0" style="stroke:#ffffff">
      <title id="title9094">Crawford, WI</title>
    </path>
    <path id="c55049" d="m 626.21,188.43 0.52059,8.033 0.066,1.006 -9.8842,0.633 -0.5723,-8.95 0.69029,-0.0253 0.60732,-0.14149 0.82374,-0.01 0.24891,0.25625 0.45591,-0.026 1.0299,0.66085 0.75174,-0.17956 0.43407,0.19861 0.75174,-0.0434 0.43408,0.33475 0.0408,-0.46697 0.2223,-0.13418 0.50971,-0.61825 1.6465,0.0539 1.223,-0.58141" inkscape:connector-curvature="0" style="stroke:#ffffff">
      <title id="title9097">Iowa, WI</title>
    </path>
    <path id="c55043" d="m 612.43,190.05 0.22032,-0.0788 0.47284,-0.0921 0.47285,-0.54398 0.5402,-0.20578 0.87248,-0.0197 0.5402,0.0999 0.79273,-0.0596 0.5723,8.95 0.42611,7.055 -3.6139,0.178 0.0642,-0.111 -0.0107,-0.13 -0.18363,-0.579 -1.0697,-1.945 -0.12124,-0.122 -0.19255,-0.09 -0.8433,-0.202 -2.1769,-0.417 -0.8843,-0.21 -0.46712,-0.216 -1.3568,-0.9 -0.2086,-0.434 -1.535,-3.408 -0.37618,-1.758 0.3222,-0.32043 0.59172,0.0184 0.10462,0.16127 0.46959,-0.0212 0.17306,-0.31776 0.42397,-0.0212 0.30991,-0.45462 0.37835,-0.0897 0.60646,-0.54587 0.10462,-0.34056 0.29845,0.002 0.60491,-0.23989 0.54039,-0.0625 0.16941,-0.28828 0.20167,-0.0141 0.42748,-0.57861 1.1069,-0.43499 0.0262,-0.37046 0.52624,-0.37047 0.123,-0.43499 0.55652,-0.0302" inkscape:connector-curvature="0" style="stroke:#ffffff">
      <title id="title9100">Grant, WI</title>
    </path>
    <path id="c55065" d="m 616.91,198.1 9.8842,-0.633 0.47424,7.11 -1.503,0.09 -8.4294,0.49 -0.42611,-7.054" inkscape:connector-curvature="0" style="stroke:#ffffff">
      <title id="title9103">Lafayette, WI</title>
    </path>
    <path id="c55045" d="m 626.73,196.46 7.866,-0.50908 0.0178,0.26108 0.60975,7.947 -0.60261,0.04 -7.3508,0.38 -0.47424,-7.11 -0.066,-1.006" inkscape:connector-curvature="0" style="stroke:#ffffff">
      <title id="title9106">Green, WI</title>
    </path>
    <path id="c55077" d="m 636.09,169.77 0.16537,2.6626 -0.50769,0.057 0.12588,1.4105 0.12218,0.11391 0.12217,-0.001 0.079,-0.11649 0.17977,-0.001 0.0358,1.0211 -0.6122,0.0275 -0.32024,-0.0377 -0.26141,0.14584 0.15648,2.6344 -5.8746,0.417 -0.48851,-7.818 7.078,-0.515" inkscape:connector-curvature="0" style="stroke:#ffffff">
      <title id="title9109">Marquette, WI</title>
    </path>
    <path id="c55097" d="m 623.88,154.39 5.0749,-0.3055 5.0527,-0.19423 0.72114,9.9567 -6.1313,0.369 -2.0895,0.1 -0.19434,-2.924 -0.23177,-3.136 -1.9291,0.121 -0.27278,-3.985" inkscape:connector-curvature="0" style="stroke:#ffffff">
      <title id="title9112">Portage, WI</title>
    </path>
    <path id="c55135" d="m 634.01,153.89 10.115,-0.79427 0.14441,2.018 -2.1305,0.168 0.2086,2.811 0.34766,5.167 -2.4104,0.201 -5.5536,0.386 -0.72114,-9.9567" inkscape:connector-curvature="0" style="stroke:#ffffff">
      <title id="title9115">Waupaca, WI</title>
    </path>
    <path id="c55137" d="m 640.29,163.46 0.45641,5.962 -4.6533,0.346 -7.078,0.515 -0.41006,-6.068 6.1313,-0.369 5.5536,-0.386" inkscape:connector-curvature="0" style="stroke:#ffffff">
      <title id="title9118">Waushara, WI</title>
    </path>
    <path id="c55047" d="m 640.74,169.43 0.15333,2.019 0.44928,6.026 -2.0004,0.16 -1.995,0.177 -0.0143,-0.273 -1.9612,0.153 -0.15648,-2.6344 0.26141,-0.14584 0.32024,0.0377 0.6122,-0.0275 -0.0358,-1.0211 -0.17977,0.001 -0.079,0.11649 -0.12217,0.001 -0.12218,-0.11391 -0.12588,-1.4105 0.50769,-0.057 -0.16539,-2.6626 4.6533,-0.346" inkscape:connector-curvature="0" style="stroke:#ffffff">
      <title id="title9121">Green Lake, WI</title>
    </path>
    <path id="c55021" d="m 635.38,177.69 1.9612,-0.153 0.0143,0.273 1.995,-0.177 0.55626,8.021 -1.5992,0.168 -4.2932,0.337 -0.0232,-0.296 -5.9477,0.431 -0.12836,-0.183 0.041,-0.314 0.6668,-1.1 0.15332,-0.05 0.24069,0.03 0.1765,-0.06 0.40293,-0.2 0.30487,-0.274 -0.39301,-4.0604 -0.11232,-0.1 -1.9867,0.0926 -0.10271,-0.34469 0.23204,-0.3962 -0.86237,-0.10006 -0.24435,-0.89833 3.0737,-0.241 5.8746,-0.417" inkscape:connector-curvature="0" style="stroke:#ffffff">
      <title id="title9124">Columbia, WI</title>
    </path>
    <path id="c55025" d="m 639.9,185.65 0.15154,1.999 0.51169,8.085 -5.953,0.474 -0.0178,-0.26108 -7.866,0.50908 -0.52059,-8.033 0.40472,-0.66581 0.60358,-0.0693 0.19729,-0.20622 0.36884,-0.24305 0.27605,-0.37562 -0.0195,-0.57302 5.9477,-0.431 0.0232,0.296 4.2932,-0.337 1.5992,-0.168" inkscape:connector-curvature="0" style="stroke:#ffffff">
      <title id="title9127">Dane, WI</title>
    </path>
    <path id="c55105" d="m 644.54,195.54 0.62579,8.044 -2.7634,0.184 -7.1778,0.394 -0.60975,-7.947 5.953,-0.474 3.9722,-0.201" inkscape:connector-curvature="0" style="stroke:#ffffff">
      <title id="title9130">Rock, WI</title>
    </path>
    <path id="c55059" d="m 652.87,200.26 1.9843,-0.167 -0.1141,-1.35 3.1164,-0.266 3.3054,-0.256 0.43502,4.074 -6.7357,0.465 -1.7526,0.176 -0.2389,-2.676" inkscape:connector-curvature="0" style="stroke:#ffffff">
      <title id="title9133">Kenosha, WI</title>
    </path>
    <path id="c55101" d="m 656.39,194.58 4.0596,-0.337 0.53534,0.72622 0.73204,0.38161 -0.11364,1.9734 -0.43881,0.89873 -3.3054,0.256 -3.1164,0.266 0.1141,1.35 -1.9843,0.167 -0.44216,-5.327 3.9598,-0.355" inkscape:connector-curvature="0" style="stroke:#ffffff">
      <title id="title9136">Racine, WI</title>
    </path>
    <path id="c55127" d="m 648.49,195.23 3.9366,-0.298 0.44216,5.327 0.2389,2.676 -6.7802,0.564 -1.166,0.08 -0.62579,-8.044 3.9544,-0.305" inkscape:connector-curvature="0" style="stroke:#ffffff">
      <title id="title9139">Walworth, WI</title>
    </path>
    <path id="c55027" d="m 641.35,177.47 2.0022,-0.145 6.0404,-0.419 0.13015,1.512 0.0392,0.498 0.29774,3.995 -0.28169,0.02 0.33161,4.033 -1.9612,0.121 -7.891,0.562 -0.15154,-1.999 -0.55626,-8.021 2.0004,-0.16" inkscape:connector-curvature="0" style="stroke:#ffffff">
      <title id="title9142">Dodge, WI</title>
    </path>
    <path id="c55055" d="m 640.05,187.65 7.891,-0.562 0.54734,8.141 -3.9544,0.305 -3.9722,0.201 -0.51169,-8.085" inkscape:connector-curvature="0" style="stroke:#ffffff">
      <title id="title9145">Jefferson, WI</title>
    </path>
    <path id="c55133" d="m 655.82,186.54 0.57052,8.033 -3.9598,0.355 -3.9366,0.298 -0.54734,-8.141 1.9612,-0.121 5.912,-0.424" inkscape:connector-curvature="0" style="stroke:#ffffff">
      <title id="title9148">Waukesha, WI</title>
    </path>
    <path id="c55079" d="m 658.68,186.31 0.4016,0.53088 -0.22242,0.61368 0.0598,0.62896 0.33152,0.37208 0.26611,0.70139 -0.55909,0.64382 0.30759,0.98842 0.46202,0.22503 0.41173,0.58965 -0.0478,1.0331 0.35751,1.603 -4.0596,0.337 -0.57052,-8.033 2.8615,-0.234" inkscape:connector-curvature="0" style="stroke:#ffffff">
      <title id="title9151">Milwaukee, WI</title>
    </path>
    <path id="c55089" d="m 655.53,178.45 4.0828,-0.362 0.11232,1.157 -0.17651,0.747 -0.27456,0.637 -0.41006,0.715 -0.12658,0.28 -0.10519,0.322 -0.0571,0.257 0.0593,1.1063 -0.39804,1.6827 0.0588,0.328 0.30487,0.868 0.0802,0.121 -2.8615,0.234 -0.312,-4.026 0.37013,-0.0364 -0.34696,-4.0306" inkscape:connector-curvature="0" style="stroke:#ffffff">
      <title id="title9154">Ozaukee, WI</title>
    </path>
    <path id="c55131" d="m 653.53,178.6 2.0004,-0.152 0.34696,4.0306 -0.37013,0.0364 0.312,4.026 -5.912,0.424 -0.33161,-4.033 0.28169,-0.02 -0.29774,-3.995 3.9704,-0.314" inkscape:connector-curvature="0" style="stroke:#ffffff">
      <title id="title9157">Washington, WI</title>
    </path>
    <path id="c55139" d="m 648.21,162.81 0.66679,8.083 -7.9783,0.555 -0.15333,-2.019 -0.45641,-5.962 2.4104,-0.201 5.5108,-0.456" inkscape:connector-curvature="0" style="stroke:#ffffff">
      <title id="title9160">Winnebago, WI</title>
    </path>
    <path id="c55039" d="m 652.85,170.59 0.67392,8.011 -3.9704,0.314 -0.0392,-0.498 -0.13015,-1.512 -6.0404,0.419 -2.0022,0.145 -0.44928,-6.026 7.9783,-0.555 -0.0874,-1.054 3.986,-0.18661 0.0808,0.94261" inkscape:connector-curvature="0" style="stroke:#ffffff">
      <title id="title9163">Fond du Lac, WI</title>
    </path>
    <path id="c55117" d="m 659.96,169.95 0.76485,2.845 0.11945,1.84 -0.0464,0.193 -1.182,3.262 -4.0828,0.362 -2.0004,0.152 -0.67392,-8.011 1.9843,-0.169 5.1168,-0.474" inkscape:connector-curvature="0" style="stroke:#ffffff">
      <title id="title9166">Sheboygan, WI</title>
    </path>
    <path id="c55015" d="m 651.68,162.58 2.4586,-0.184 0.69888,8.027 -1.9843,0.169 -0.0808,-0.94261 -3.986,0.18661 -0.57943,-7.029 3.473,-0.227" inkscape:connector-curvature="0" style="stroke:#ffffff">
      <title id="title9169">Calumet, WI</title>
    </path>
    <path id="c55071" d="m 658.51,160.03 3.6567,-0.328 0.77198,2.193 0.0481,0.435 -0.0481,0.418 -0.0891,0.306 -0.28883,0.498 -0.353,0.385 -0.58657,0.346 -0.31378,0.249 -0.38689,0.433 -0.0225,1.3496 -0.4107,0.65141 -0.1355,0.715 0.0672,0.60609 -0.46296,1.6599 -5.1168,0.474 -0.69888,-8.027 2.5459,-0.201 -0.16938,-2 0.99841,-0.08 0.99484,-0.08" inkscape:connector-curvature="0" style="stroke:#ffffff">
      <title id="title9172">Manitowoc, WI</title>
    </path>
    <path id="c55009" d="m 650.03,152.69 0.2165,-0.003 7.2e-4,0.19247 0.56587,-0.0336 0.90497,-0.20828 2.4382,-0.14464 -0.18993,0.28562 -0.0525,0.7934 0.28351,0.215 -0.13129,0.34126 -0.32084,0.62781 -0.21338,0.0247 -0.007,0.145 0.65788,0.579 0.58657,0.152 0.44215,-0.02 0.22464,-0.16 0.1765,-0.298 0.21751,-0.499 0.0214,-0.119 -0.0856,-0.161 0.0321,-0.08 0.51347,-0.596 0.89143,-0.722 0.73989,-0.249 0.57052,7.286 -0.99484,0.08 -0.99841,0.08 0.16938,2 -2.5459,0.201 -2.4586,0.184 -0.082,-1.325 -0.52392,-6.54 -0.89703,0.063 -0.12015,-1.612 -0.19208,0.0116 -0.0277,-0.48163 0.18812,-0.009" inkscape:connector-curvature="0" style="stroke:#ffffff">
      <title id="title9175">Brown, WI</title>
    </path>
    <path id="c55087" d="m 644.27,155.12 5.9066,-0.339 0.89703,-0.063 0.52392,6.54 0.082,1.325 -3.473,0.227 -5.5108,0.456 -0.34766,-5.167 -0.2086,-2.811 2.1305,-0.168" inkscape:connector-curvature="0" style="stroke:#ffffff">
      <title id="title9178">Outagamie, WI</title>
    </path>
    <path id="c55115" d="m 637.39,145.52 0.15155,1.968 3.9936,-0.305 0.13729,1.992 4.0257,-0.289 3.9187,-0.248 0.14509,2.7489 0.26116,1.2981 -0.18812,0.009 0.0277,0.48163 0.19208,-0.0116 0.12015,1.612 -5.9066,0.339 -0.14441,-2.018 -10.115,0.79427 -0.54826,-8.0993 3.9294,-0.272" inkscape:connector-curvature="0" style="stroke:#ffffff">
      <title id="title9181">Shawano, WI</title>
    </path>
    <path id="c55078" d="m 637.39,145.52 -0.16224,-2.049 5.5305,-0.403 2.5531,-0.192 0.21038,3.558 0.17651,2.452 -4.0257,0.289 -0.13729,-1.992 -3.9936,0.305 -0.15155,-1.968" inkscape:connector-curvature="0" style="stroke:#ffffff">
      <title id="title9184">Menominee, WI</title>
    </path>
    <path id="c55083" d="m 645.74,136.87 1.9772,-0.1 0.3016,4.1719 1.9262,-0.15121 0.19146,1.9415 1.1001,-0.08 0.14458,1.9663 2.8735,-0.1327 0.0225,0.66944 3.016,-0.21145 0.0337,0.53413 -0.10519,0.02 -0.72206,0.20754 -0.0981,0.08 -0.27991,0.466 -0.12358,0.5179 0.42752,0.44734 -0.0324,0.39301 -0.40837,0.41336 -0.0757,0.47766 -0.36889,0.0874 -0.20372,0.40863 -0.45815,1.4566 -0.69287,0.85218 -0.041,0.781 0.006,0.39524 -2.4382,0.14464 -0.90497,0.20828 -0.56587,0.0336 -7.1e-4,-0.19247 -0.2165,0.003 -0.26116,-1.2981 -0.14509,-2.7489 -3.9187,0.248 -0.17651,-2.452 -0.21038,-3.558 -2.5531,0.192 -0.10697,-2.007 -0.68284,0.05 -0.26208,-3.987 4.0328,-0.25246" inkscape:connector-curvature="0" style="stroke:#ffffff">
      <title id="title9187">Oconto, WI</title>
    </path>
    <path id="c55041" d="m 636.41,121.52 4.081,1.045 0.20681,0.763 0.42789,5.906 4.0275,-0.305 0.59369,7.9435 -4.0328,0.25246 -4.0115,0.305 -0.10519,-1.984 -1.9843,0.153 -0.73989,-9.859 -0.15155,-1.993 1.831,-0.129 -0.14263,-2.098" inkscape:connector-curvature="0" style="stroke:#ffffff">
      <title id="title9190">Forest, WI</title>
    </path>
    <path id="c55037" d="m 640.49,122.56 0.32983,0.586 2.8116,-0.298 4.6765,0.587 0.0356,0 0.39937,0.06 0.61152,0.296 0.37797,0.252 0.24782,0.158 0.47246,0.676 0.0499,0.07 0.0232,0.08 -0.22465,0.385 -0.25673,0.362 -0.11232,0.09 -0.28169,0.36 -0.009,0.02 -0.0232,0.08 0.1034,0.201 0.0161,0 0.6133,0.498 0.1355,0.03 0.21751,0.06 0.016,0 0.21751,-0.03 0.11054,1.551 -1.913,0.04 -3.9829,0.225 -4.0275,0.304 -0.42789,-5.906 -0.20681,-0.763" inkscape:connector-curvature="0" style="stroke:#ffffff">
      <title id="title9193">Florence, WI</title>
    </path>
    <path id="c55075" d="m 650.93,127.11 3.7993,1.021 0.30488,0.248 0.025,0.02 0.041,0.04 0.48138,0.594 0.16045,4.147 -1.5788,3.4147 2.2901,0.005 0.8147,-0.84765 0.93194,0.82209 -1.0353,3.4451 0.007,0.014 10e-4,0.003 0.14263,0.472 0.0731,0.122 1.2694,1.342 0.0161,0 0.41719,0.07 0.73097,0.115 -0.37728,0.80767 -0.13486,0.41462 0.0939,1.6554 -0.71366,0.13723 -1.3659,0.30349 -0.0337,-0.53413 -3.016,0.21145 -0.0225,-0.66944 -2.8735,0.1327 -0.14458,-1.9663 -1.1001,0.08 -0.19146,-1.9415 -1.9262,0.15121 -0.3016,-4.1719 -1.9772,0.1 -0.59369,-7.9435 3.9829,-0.224 1.913,-0.04 -0.11054,-1.551" inkscape:connector-curvature="0" style="stroke:#ffffff">
      <title id="title9196">Marinette, WI</title>
    </path>
    </g>
  </svg>
