<svg xmlns:dc="http://purl.org/dc/elements/1.1/" xmlns:cc="http://creativecommons.org/ns#" xmlns:rdf="http://www.w3.org/1999/02/22-rdf-syntax-ns#" xmlns:svg="http://www.w3.org/2000/svg" xmlns="http://www.w3.org/2000/svg" xmlns:sodipodi="http://sodipodi.sourceforge.net/DTD/sodipodi-0.dtd" xmlns:inkscape="http://www.inkscape.org/namespaces/inkscape" width="115.85880000000002" height="179.18100000000013" version="1.0" id="svg2" inkscape:version="0.91 r13725" sodipodi:docname="USA counties.svg">
  <defs id="defs9439"/>
  <sodipodi:namedview pagecolor="#ffffff" bordercolor="#666666" borderopacity="1" objecttolerance="10" gridtolerance="10" guidetolerance="10" inkscape:pageopacity="0" inkscape:pageshadow="2" inkscape:window-width="798" inkscape:window-height="828" id="namedview9437" showgrid="false" showguides="true" inkscape:zoom="0.64950808" inkscape:cx="494.98999" inkscape:cy="313.535" inkscape:window-x="-7" inkscape:window-y="0" inkscape:window-maximized="0" inkscape:current-layer="svg2"/>
  <metadata id="metadata4">
    <rdf:RDF>
      <cc:Work>
        <dc:format>image/svg+xml</dc:format>
        <dc:type rdf:resource="http://purl.org/dc/dcmitype/StillImage"/>
        <dc:title/>
        <cc:license rdf:resource="http://creativecommons.org/publicdomain/zero/1.0/"/>
        <dc:date>2019-10-06</dc:date>
        <dc:creator>
          <cc:Agent>
            <dc:title>U.S. Census Bureau, Abe.suleiman, Lokal_Profil</dc:title>
          </cc:Agent>
        </dc:creator>
        <dc:source>https://commons.wikimedia.org/wiki/File:Usa_counties_large.svg</dc:source>
      </cc:Work>
      <cc:License rdf:about="http://creativecommons.org/publicdomain/zero/1.0/">
        <cc:permits rdf:resource="http://creativecommons.org/ns#Reproduction"/>
        <cc:permits rdf:resource="http://creativecommons.org/ns#Distribution"/>
        <cc:permits rdf:resource="http://creativecommons.org/ns#DerivativeWorks"/>
      </cc:License>
    </rdf:RDF>
  </metadata>
  <style id="style6">
  /*
   * Below are Cascading Style Sheet (CSS) definitions in use in this file,
   * which allow easily changing how counties are displayed.
   *
   *
   * For the U.S. Census county codes (FIPS codes) used in this file to identify individual counties, see this link:
   * https://www2.census.gov/geo/docs/reference/codes/files/national_county.txt
   *
   * The county codes used in this file combine the 2-digit state code, which is in the second column of the file
   * linked above, and the 3-digit county code, which is in the third column of the file linked above. Each value
   * for the "id" attribute for each county is in the following form: "c[state_code][county-code]". For example,
   * for Loving Country in Texas, the state code is "48" and the county code is "301", so the id name for the
   * county is "c48301".
   *
   * County codes used in this file can also be found on Wikimedia Commons at this link:
   * https://commons.wikimedia.org/wiki/File_talk:Usa_counties_large.svg/county_codes
   *
   * Examples:
   *
   * To color two counties red (in this case Loving County and Dallas County in Texas) simply
   * go to the CSS insertion point and add:
   *
   * #c48301, #c48113 {fill:red}
   *
   * To color an entire state's counties (in the case New Mexico, with "35" being the state code) a green,
   * go to the CSS insertion point and add:
   *
   * path[id*='c35'] {fill:#34A853}
   *
   */
  #counties {fill:#d0d0d0;stroke:#000;stroke-width:.17829;} 
  #borders {fill:none;stroke:#221e1f;stroke-width:.89143;} 
  #separator {fill:none;stroke:#a9a9a9;stroke-width:2.3177309;}
 </style>
  <g id="counties" transform="translate(-102.27759999999999,-168.477)" style="fill:#d0d0d0;stroke:#ffffff;stroke-width:0.17828999">
    <path id="c32007" d="m 201.52,187.4 2.0806,0.328 2.5156,0.506 4.4037,0.997 3.6157,0.715 4.0008,0.788 -4.3466,22.589 -3.9294,20.07 -3.5194,-0.674 -10.528,-2.22 -3.8724,-0.786 -3.9116,-0.844 -3.391,-0.788 -5.3522,-1.123 -2.8383,-0.586 -0.0553,-10.136 0.009,-2.232 0.0464,-0.642 1.5671,-7.328 -7.2224,-1.585 -7.2723,-1.611 5.0776,-22.568 6.4932,1.487 1.9291,0.442 24.5,5.201" inkscape:connector-curvature="0" style="stroke:#ffffff">
      <title id="title5911">Elko, NV</title>
    </path>
    <path id="c32033" d="m 179.29,226.95 5.3522,1.123 3.391,0.788 3.9116,0.844 3.8724,0.786 10.528,2.22 3.5194,0.674 -0.93244,4.799 -1.5992,8.26 -3.8243,19.694 -16.634,-3.286 -13.475,-14.263 1.3176,-6.212 0.16759,-0.497 0.71671,-0.53 0.42611,-0.411 0.44215,-0.523 0.62578,-1.276 1.5672,-5.836 0.65074,-5.792 -0.0232,-0.562" inkscape:connector-curvature="0" style="stroke:#ffffff">
      <title id="title5914">White Pine, NV</title>
    </path>
    <path id="c32003" d="m 162.45,301.2 2.3391,0.52 0.49742,-0.156 13.268,2.738 2.8918,0.587 1.3175,0.49 12.696,2.507 -0.72206,3.786 -0.0891,0.462 -0.73098,4.172 -0.44215,2.316 -0.77912,4.042 -2.3302,3.148 -0.2496,0.282 -0.0963,0.06 -0.016,0 -1.1161,-0.02 -0.36192,-0.04 -0.0963,-0.02 -0.23356,-0.178 -0.16046,-0.168 -0.4261,-0.676 -0.12837,-0.385 -0.0161,-0.192 -0.009,-0.05 -0.0321,-0.176 -0.22464,-0.563 -0.54556,-0.772 -0.2496,-0.234 -2.3391,-0.69 -1.059,-0.217 -1.1268,0 -2.0574,0.483 -0.18363,0.1 -0.24961,0.225 -0.016,0.146 -0.23356,2.25 -0.49742,6.588 -0.22464,4.027 0.24069,2.844 0.16759,1.348 0.025,0.675 -0.12837,2.805 -0.0232,0.513 -0.0981,0.458 -0.16758,0.548 -1.7205,2.875 -2.5138,-3.742 -6.8159,-10.198 -0.47246,-0.7 -1.2712,-1.896 -3.687,-5.537 -3.6157,-5.383 4.1131,-18.996" inkscape:connector-curvature="0" style="stroke:#ffffff">
      <title id="title5917">Clark, NV</title>
    </path>
    <path id="c32017" d="m 186.87,262.86 16.634,3.286 -0.46711,2.38 -1.847,9.658 -2.4265,12.367 -2.6119,13.757 -0.69176,3.584 -12.696,-2.507 -1.3175,-0.49 -2.8918,-0.587 -13.268,-2.738 -0.49742,0.156 -2.3391,-0.52 0.33696,-1.79 1.0287,-4.839 4.4536,-20.74 15.716,3.263 2.8847,-14.24" inkscape:connector-curvature="0" style="stroke:#ffffff">
      <title id="title5920">Lincoln, NV</title>
    </path>
    <path id="c32009" d="m 138.96,257.27 6.741,12.767 -5.2862,23.302 -9.2424,-13.876 -8.1887,-12.223 0.24069,0.121 1.1179,0.264 6.5164,-4.652 8.1014,-5.703" inkscape:connector-curvature="0" style="stroke:#ffffff">
      <title id="title5923">Esmeralda, NV</title>
    </path>
    <path id="c32023" d="m 139.1,243.03 1.6474,-0.09 4.9813,0.06 3.0451,0.128 12.616,2.871 12.006,2.594 13.475,14.263 -2.8847,14.24 -15.716,-3.263 -4.4536,20.74 -1.0287,4.839 -0.33696,1.79 -4.1131,18.996 -0.2086,-0.306 -2.6369,-3.953 -0.6347,-0.948 -4.9172,-7.385 -6.0671,-9.08 -1.15,-1.744 -1.9683,-2.926 -0.34409,-0.513 5.2862,-23.302 -13.138,-24.88 0.43324,-1.824 6.1081,-0.31" inkscape:connector-curvature="0" style="stroke:#ffffff">
      <title id="title5926">Nye, NV</title>
    </path>
    <path id="c32011" d="m 170.79,204.45 7.2224,1.585 -1.5671,7.328 -0.0464,0.642 -0.009,2.232 0.0553,10.136 2.8383,0.586 0.0232,0.562 -0.65074,5.792 -1.5672,5.836 -0.62578,1.276 -0.44215,0.523 -0.42611,0.411 -0.71671,0.53 -0.16759,0.497 -1.3176,6.212 -12.006,-2.594 0.32983,-1.198 0.98771,-4.122 1.7276,-7.651 1.6723,-7.6 -0.1034,-0.04 -0.0481,-0.03 1.7116,-7.297 2.6832,-12.432 0.44215,-1.181" inkscape:connector-curvature="0" style="stroke:#ffffff">
      <title id="title5929">Eureka, NV</title>
    </path>
    <path id="c32015" d="m 163.52,202.83 7.2723,1.611 -0.44215,1.181 -2.6832,12.432 -1.7116,7.297 0.0481,0.03 0.1034,0.04 -1.6723,7.6 -1.7276,7.651 -0.98771,4.122 -0.32983,1.198 -12.616,-2.871 -3.0451,-0.128 -4.9813,-0.06 -0.16937,-0.61 0.0963,-0.635 1.3276,-0.0585 0.38158,-1.7448 -0.0529,-2.7518 0.14263,-0.353 0.23355,-0.267 2.2821,-1.551 1.1731,-0.553 1.462,-0.285 0.13015,0.03 0.12123,-0.04 0.23178,-0.224 0.16937,-0.362 0.50634,-2.018 1.3496,-6.654 -0.61866,-1.485 6.8141,-10.913 1.5101,-2.427 3.8653,0.86 1.8168,-8.064" inkscape:connector-curvature="0" style="stroke:#ffffff">
      <title id="title5932">Lander, NV</title>
    </path>
    <path id="c32021" d="m 123.78,239.33 15.317,3.693 -6.1081,0.31 -0.43324,1.824 6.3969,12.113 -8.1014,5.703 -6.5164,4.652 -1.1179,-0.264 -0.24069,-0.121 -9.8183,-14.772 4.3377,1.072 0.56338,-2.234 1.3746,-5.65 0.13549,-2.031 -1.5172,-0.37 0.50634,-2.067 0.98771,-1.196 1.1963,-1.384 3.038,0.722" inkscape:connector-curvature="0" style="stroke:#ffffff">
      <title id="title5935">Mineral, NV</title>
    </path>
    <path id="c32005" d="m 102.52,233.09 2.0966,0.529 2.0093,0.838 0.0481,0.36 3.4552,0.861 4.106,1.084 -0.50634,2.092 -0.68462,0 -0.92353,-0.227 -0.49029,0.562 -0.7381,1.547 -0.16938,0.664 0.0892,2.103 0.16046,0.74 0.36905,1.35 -0.19968,2.225 -0.29061,1.216 -3.4302,-5.135 -4.2343,-6.35 -0.90926,-3.447 0.24247,-1.012" inkscape:connector-curvature="0" style="stroke:#ffffff">
      <title id="title5938">Douglas, NV</title>
    </path>
    <path id="c32510" d="m 102.81,231.9 5.4877,-0.626 0.28882,1.061 0.49029,0.465 1.4869,0.371 0.009,0.119 -0.37084,2.307 -0.0713,0.09 -3.4552,-0.861 -0.0481,-0.36 -2.0093,-0.838 -2.0966,-0.529 0.28882,-1.198" inkscape:connector-curvature="0" style="stroke:#ffffff">
      <title id="title5941">Carson City, NV</title>
    </path>
    <path id="c32019" d="m 119.36,224.98 1.9291,-1.214 0.47425,-0.186 -0.61866,1.698 -1.15,2.533 -0.73098,2.922 1.6474,2.86 1.0287,1.64 0.81121,1.197 1.2302,2.066 -0.20147,0.841 -3.038,-0.722 -1.1963,1.384 -0.98771,1.196 -0.50634,2.067 1.5172,0.37 -0.13549,2.031 -1.3746,5.65 -0.56338,2.234 -4.3377,-1.072 -2.307,-3.435 0.29061,-1.216 0.19968,-2.225 -0.36905,-1.35 -0.16046,-0.74 -0.0892,-2.103 0.16938,-0.664 0.7381,-1.547 0.49029,-0.562 0.92353,0.227 0.68462,0 0.50634,-2.092 -4.106,-1.084 0.0713,-0.09 0.37084,-2.307 -0.009,-0.119 -1.4869,-0.371 -0.49029,-0.465 -0.28882,-1.061 1.2141,-0.07 3.2858,-0.861 4.9421,-5.543 1.6224,0.184" inkscape:connector-curvature="0" style="stroke:#ffffff">
      <title id="title5944">Lyon, NV</title>
    </path>
    <path id="c32001" d="m 149.52,223.38 0.61866,1.485 -1.3496,6.654 -0.50634,2.018 -0.16937,0.362 -0.23178,0.224 -0.12123,0.04 -0.13015,-0.03 -1.462,0.285 -1.1731,0.553 -2.2821,1.551 -0.23355,0.267 -0.14263,0.353 0.0529,2.7518 -0.38158,1.7448 -1.3276,0.0585 -0.0963,0.635 0.16937,0.61 -1.6474,0.09 -15.317,-3.693 0.20147,-0.841 -1.2302,-2.066 -0.81121,-1.197 -1.0287,-1.64 -1.6474,-2.86 0.73098,-2.922 1.15,-2.533 0.61866,-1.698 -0.47425,0.186 -1.9291,1.214 0.43502,-1.07 0.52238,-2.417 -0.15333,-0.828 0.4582,-3.152 0.23356,-0.971 10.517,2.621 6.06,1.356 5.1988,1.222 6.8783,1.64" inkscape:connector-curvature="0" style="stroke:#ffffff">
      <title id="title5947">Churchill, NV</title>
    </path>
    <path id="c32027" d="m 156.33,212.47 -6.8141,10.913 -6.8783,-1.64 -5.1988,-1.222 -6.06,-1.356 -10.517,-2.621 -1.9451,-0.467 2.94,-11.659 0.43502,0.1 2.5388,-9.924 8.7664,2.161 -0.57765,2.364 19.228,4.53 -0.90748,3.914 5.6481,1.319 0.13728,0.06 -0.007,0.143 -0.78803,3.391" inkscape:connector-curvature="0" style="stroke:#ffffff">
      <title id="title5950">Pershing, NV</title>
    </path>
    <path id="c32029" d="m 117.74,224.79 -4.9421,5.543 -3.2858,0.861 -1.2141,0.07 1.3906,-1.576 0.72206,-2.596 -0.21751,-0.633 0.0642,-1.132 2.685,-0.332 1.3265,0.136 1.7829,0.05 0.82903,-0.129 0.85935,-0.264" inkscape:connector-curvature="0" style="stroke:#ffffff">
      <title id="title5953">Storey, NV</title>
    </path>
    <path id="c32031" d="m 129.81,171.16 0.58835,0.151 -0.81299,3.071 -1.503,5.986 -0.60974,4.035 -0.61152,2.443 -0.42611,1.028 -0.41719,0.45 -1.1,4.38 -0.42611,1.799 0.33697,0.08 -2.5388,9.924 -0.43502,-0.1 -2.94,11.659 1.9451,0.467 -0.23356,0.971 -0.4582,3.152 0.15333,0.828 -0.52238,2.417 -0.43502,1.07 -1.6224,-0.184 -0.85935,0.264 -0.82903,0.129 -1.7829,-0.05 -1.3265,-0.136 -2.685,0.332 -0.0642,1.132 0.21751,0.633 -0.72206,2.596 -1.3906,1.576 -5.4877,0.626 0.85935,-3.383 0.77911,-2.884 1.6402,-6.212 0.35301,-1.31 1.7347,-6.508 1.125,-4.277 0.009,-0.02 0.32983,-1.294 1.0358,-4.008 2.0646,-8.221 1.8328,-7.135 4.7014,-18.16 10.533,2.683" inkscape:connector-curvature="0" style="stroke:#ffffff">
      <title id="title5956">Washoe, NV</title>
    </path>
    <path id="c32013" d="m 130.4,171.31 9.0231,2.275 9.6186,2.211 19.43,4.418 0.12836,0.05 -6.8944,30.632 -3.8653,-0.86 -1.5101,2.427 0.78803,-3.391 0.007,-0.143 -0.13728,-0.06 -5.6481,-1.319 0.90748,-3.914 -19.228,-4.53 0.57765,-2.364 -8.7664,-2.161 -0.33697,-0.08 0.42611,-1.799 1.1,-4.38 0.41719,-0.45 0.42611,-1.028 0.61152,-2.443 0.60974,-4.035 1.503,-5.986 0.81299,-3.071" inkscape:connector-curvature="0" style="stroke:#ffffff">
      <title id="title5959">Humboldt, NV</title>
    </path>
    </g>
  </svg>
