<svg xmlns:dc="http://purl.org/dc/elements/1.1/" xmlns:cc="http://creativecommons.org/ns#" xmlns:rdf="http://www.w3.org/1999/02/22-rdf-syntax-ns#" xmlns:svg="http://www.w3.org/2000/svg" xmlns="http://www.w3.org/2000/svg" xmlns:sodipodi="http://sodipodi.sourceforge.net/DTD/sodipodi-0.dtd" xmlns:inkscape="http://www.inkscape.org/namespaces/inkscape" width="127.57082999999994" height="85.097" version="1.0" id="svg2" inkscape:version="0.91 r13725" sodipodi:docname="USA counties.svg">
  <defs id="defs9439"/>
  <sodipodi:namedview pagecolor="#ffffff" bordercolor="#666666" borderopacity="1" objecttolerance="10" gridtolerance="10" guidetolerance="10" inkscape:pageopacity="0" inkscape:pageshadow="2" inkscape:window-width="798" inkscape:window-height="828" id="namedview9437" showgrid="false" showguides="true" inkscape:zoom="0.64950808" inkscape:cx="494.98999" inkscape:cy="313.535" inkscape:window-x="-7" inkscape:window-y="0" inkscape:window-maximized="0" inkscape:current-layer="svg2"/>
  <metadata id="metadata4">
    <rdf:RDF>
      <cc:Work>
        <dc:format>image/svg+xml</dc:format>
        <dc:type rdf:resource="http://purl.org/dc/dcmitype/StillImage"/>
        <dc:title/>
        <cc:license rdf:resource="http://creativecommons.org/publicdomain/zero/1.0/"/>
        <dc:date>2019-10-06</dc:date>
        <dc:creator>
          <cc:Agent>
            <dc:title>U.S. Census Bureau, Abe.suleiman, Lokal_Profil</dc:title>
          </cc:Agent>
        </dc:creator>
        <dc:source>https://commons.wikimedia.org/wiki/File:Usa_counties_large.svg</dc:source>
      </cc:Work>
      <cc:License rdf:about="http://creativecommons.org/publicdomain/zero/1.0/">
        <cc:permits rdf:resource="http://creativecommons.org/ns#Reproduction"/>
        <cc:permits rdf:resource="http://creativecommons.org/ns#Distribution"/>
        <cc:permits rdf:resource="http://creativecommons.org/ns#DerivativeWorks"/>
      </cc:License>
    </rdf:RDF>
  </metadata>
  <style id="style6">
  /*
   * Below are Cascading Style Sheet (CSS) definitions in use in this file,
   * which allow easily changing how counties are displayed.
   *
   *
   * For the U.S. Census county codes (FIPS codes) used in this file to identify individual counties, see this link:
   * https://www2.census.gov/geo/docs/reference/codes/files/national_county.txt
   *
   * The county codes used in this file combine the 2-digit state code, which is in the second column of the file
   * linked above, and the 3-digit county code, which is in the third column of the file linked above. Each value
   * for the "id" attribute for each county is in the following form: "c[state_code][county-code]". For example,
   * for Loving Country in Texas, the state code is "48" and the county code is "301", so the id name for the
   * county is "c48301".
   *
   * County codes used in this file can also be found on Wikimedia Commons at this link:
   * https://commons.wikimedia.org/wiki/File_talk:Usa_counties_large.svg/county_codes
   *
   * Examples:
   *
   * To color two counties red (in this case Loving County and Dallas County in Texas) simply
   * go to the CSS insertion point and add:
   *
   * #c48301, #c48113 {fill:red}
   *
   * To color an entire state's counties (in the case New Mexico, with "35" being the state code) a green,
   * go to the CSS insertion point and add:
   *
   * path[id*='c35'] {fill:#34A853}
   *
   */
  #counties {fill:#d0d0d0;stroke:#000;stroke-width:.17829;} 
  #borders {fill:none;stroke:#221e1f;stroke-width:.89143;} 
  #separator {fill:none;stroke:#a9a9a9;stroke-width:2.3177309;}
 </style>
  <g id="counties" transform="translate(-388.38279000000006,-123.21)" style="fill:#d0d0d0;stroke:#ffffff;stroke-width:0.17828999">
    <path id="c46105" d="m 411.91,124.61 15.076,1.045 -0.67571,10.824 -0.62757,9.962 -15.548,-1.084 0.28883,-3.977 0.29774,-3.978 0.69888,-7.939 0.12124,0 0.36905,-4.86" inkscape:connector-curvature="0" style="stroke:#ffffff">
      <title id="title7102">Perkins, SD</title>
    </path>
    <path id="c46063" d="m 394.25,123.21 16.802,1.334 0.85934,0.06 -0.36905,4.86 -0.12124,0 -0.69888,7.939 -0.29774,3.978 -17.517,-1.389 1.2373,-15.326 0.10519,-1.453" inkscape:connector-curvature="0" style="stroke:#ffffff">
      <title id="title7105">Harding, SD</title>
    </path>
    <path id="c46033" d="m 390.01,171.16 11.225,0.843 11.369,0.868 -0.0464,0.337 -0.24247,0.869 -2.0253,2.499 -0.41623,0.70763 -1.2632,-0.50763 -0.64192,1.3764 -0.97336,0.0876 -0.21751,2.973 -17.492,-1.413 0.0481,-0.58 0.67571,-8.06" inkscape:connector-curvature="0" style="stroke:#ffffff">
      <title id="title7108">Custer, SD</title>
    </path>
    <path id="c46047" d="m 389.29,179.8 17.492,1.413 -0.81121,10.969 -8.4294,-0.651 -9.1586,-0.749 0.90748,-10.982" inkscape:connector-curvature="0" style="stroke:#ffffff">
      <title id="title7111">Fall River, SD</title>
    </path>
    <path id="c46102" d="m 421.43,177.05 -0.32805,5.166 0.46533,0.02 -0.12837,2.001 -0.353,6.01 0.45641,0.03 -0.2086,2.986 -11.877,-0.817 -3.4873,-0.265 0.81121,-10.969 0.21751,-2.973 0.97336,-0.0875 0.64192,-1.3764 1.2632,0.50763 0.41623,-0.70763 10.471,0.731 0.66679,-0.265" inkscape:connector-curvature="0" style="stroke:#ffffff">
      <title id="title7114">Oglala Lakota, SD</title>
    </path>
    <path id="c46007" d="m 436.13,185.13 -0.49207,9.03 -6.6608,-0.346 -4.179,-0.321 -3.4623,-0.226 0.2086,-2.986 -0.45641,-0.03 0.353,-6.01 14.689,0.893" inkscape:connector-curvature="0" style="stroke:#ffffff">
      <title id="title7117">Bennett, SD</title>
    </path>
    <path id="c46095" d="m 439.42,174.85 0.1141,-0.122 0.37619,-0.09 4.0735,3.1232 1.5568,0.35277 1.7823,-0.8403 1.9858,0.96646 1.1801,-0.0824 0.63928,-0.11477 0.15332,0.275 1.7918,0.151 -0.0571,7.474 -16.889,-0.818 0.49029,-8.92 0.23177,-0.522 0.13728,-0.195 1.2373,-0.698 0.82726,-0.138 0.27277,0.105 0.0963,0.09" inkscape:connector-curvature="0" style="stroke:#ffffff">
      <title id="title7120">Mellette, SD</title>
    </path>
    <path id="c46121" d="m 436.13,185.13 16.889,0.818 -0.1355,9.05 -1.3336,-0.07 -1.1981,-0.06 -3.2626,-0.154 -6.0742,-0.281 -5.3771,-0.282 0.49207,-9.03" inkscape:connector-curvature="0" style="stroke:#ffffff">
      <title id="title7123">Todd, SD</title>
    </path>
    <path id="c46123" d="m 453.07,178.47 0.47424,0.459 1.8741,0.46584 1.2106,-0.45105 2.5796,0.61256 1.9812,-0.78063 1.2723,-0.58812 0.68474,0.0384 -0.20147,5.601 1.4958,0.06 -0.43502,11.574 -11.129,-0.467 0.1355,-9.05 0.0571,-7.474" inkscape:connector-curvature="0" style="stroke:#ffffff">
      <title id="title7126">Tripp, SD</title>
    </path>
    <path id="c46053" d="m 468.37,184.03 -0.2169,0.87449 0.84464,0.69732 1.6275,0.0745 0.50353,0.67054 0.62422,0.99611 1.7298,2.5201 1.79,0.40089 0.2557,1.8255 1.6728,0.7826 1.2882,1.3912 2.2269,0.4656 0.65424,1.279 -12.671,-0.371 -4.6854,-0.168 0.43502,-11.574 3.9205,0.137" inkscape:connector-curvature="0" style="stroke:#ffffff">
      <title id="title7129">Gregory, SD</title>
    </path>
    <path id="c46015" d="m 474.84,174.18 1.9772,0.06 -0.0802,10.054 -8.3652,-0.273 0.0963,-0.114 0.1355,-0.239 0.0571,-0.21 -0.7025,-0.95933 0.0134,-1.2636 -0.45201,-0.54109 -0.82208,-0.22221 -0.59073,0.0702 -0.34783,-0.49658 0.32018,-0.37513 0.68454,-0.27392 0.0368,-1.6302 0.74527,-0.43586 0.62382,-0.77998 0.44163,-0.53708 -0.0967,-0.46984 -0.84804,-0.58529 0.0866,-0.97314 7.0869,0.192" inkscape:connector-curvature="0" style="stroke:#ffffff">
      <title id="title7132">Brule, SD</title>
    </path>
    <path id="c46003" d="m 484.69,174.39 0.0571,2.008 -0.12124,8.124 -6.4041,-0.174 -1.4851,-0.05 0.0802,-10.054 7.8732,0.146" inkscape:connector-curvature="0" style="stroke:#ffffff">
      <title id="title7135">Aurora, SD</title>
    </path>
    <path id="c46035" d="m 490.67,176.55 -0.11232,8.1 -2.4996,-0.03 -3.432,-0.09 0.12124,-8.124 5.9227,0.146" inkscape:connector-curvature="0" style="stroke:#ffffff">
      <title id="title7138">Davison, SD</title>
    </path>
    <path id="c46043" d="m 478.22,184.35 6.4041,0.174 3.432,0.09 -0.0713,6.949 -9.1622,-4.168 -0.27278,-0.08 -0.43502,0 0.025,-1.334 0.0802,-1.645" inkscape:connector-curvature="0" style="stroke:#ffffff">
      <title id="title7141">Douglas, SD</title>
    </path>
    <path id="c46023" d="m 468.37,184.03 8.3652,0.273 1.4851,0.05 -0.0802,1.645 -0.025,1.334 0.43502,0 0.27278,0.08 9.1622,4.168 0.66547,0.24547 -0.18409,0.44153 -0.0785,0.67708 -0.22093,1.3714 -0.1229,1.6655 0.37764,0.89312 -0.43924,1.3833 -0.0167,0.6933 -0.89896,0.88936 -0.24068,0.03 -2.3605,-1.07 -3.104,-2.784 -0.65424,-1.279 -2.2269,-0.4656 -1.2882,-1.3912 -1.6728,-0.7826 -0.2557,-1.8255 -1.79,-0.40089 -1.7298,-2.5201 -0.62422,-0.99611 -0.50353,-0.67054 -1.6275,-0.0746 -0.84464,-0.69732 0.2169,-0.87449 0.009,0" inkscape:connector-curvature="0" style="stroke:#ffffff">
      <title id="title7144">Charles Mix, SD</title>
    </path>
    <path id="c46009" d="m 488.47,192.25 7.6225,0.135 0.0255,6.7757 -0.65847,0.72603 -0.41893,-0.67338 -0.51858,-0.13525 -0.50899,0.68617 -0.56878,-0.0513 -0.51065,-0.57968 -0.79832,0.12645 -0.19682,0.62334 -0.43219,0.54489 -0.353,0.506 -0.47425,0.431 -0.22464,0.14 -0.85221,0.128 -0.27991,0.01 -0.29774,-0.05 -0.36192,-0.16 -1.8328,-1.582 0.24068,-0.03 0.89896,-0.88936 0.0167,-0.6933 0.43924,-1.3833 -0.37764,-0.89312 0.1229,-1.6655 0.22093,-1.3714 0.0785,-0.67708" inkscape:connector-curvature="0" style="stroke:#ffffff">
      <title id="title7147">Bon Homme, SD</title>
    </path>
    <path id="c46135" d="m 496.09,192.39 3.7629,0.05 4.2151,0.0254 0.0116,1.9734 -0.0142,6.6858 -0.96526,-0.68225 -0.0324,-0.828 -1.05,-0.1303 -1.05,-0.45096 -0.81062,0.17405 -0.81063,0.34897 -1.0448,-0.2426 -0.53431,0.18914 -0.91491,0.23824 -0.11689,-0.48611 -0.62025,-0.081 -0.0255,-6.7757" inkscape:connector-curvature="0" style="stroke:#ffffff">
      <title id="title7150">Yankton, SD</title>
    </path>
    <path id="c46067" d="m 488.06,184.62 2.4996,0.03 5.9459,0.103 3.4231,0.06 -0.0731,7.628 -3.7629,-0.05 -7.6225,-0.135 0.18409,-0.44153 -0.66547,-0.24547 0.0713,-6.949" inkscape:connector-curvature="0" style="stroke:#ffffff">
      <title id="title7153">Hutchinson, SD</title>
    </path>
    <path id="c46061" d="m 492.6,176.6 4.0168,0.1 -0.11232,8.051 -5.9459,-0.103 0.11232,-8.1 1.9291,0.06" inkscape:connector-curvature="0" style="stroke:#ffffff">
      <title id="title7156">Hanson, SD</title>
    </path>
    <path id="c46087" d="m 500.58,176.77 3.9776,0.06 -0.1034,8.044 -4.5249,-0.07 -3.4231,-0.06 0.11232,-8.051 3.9615,0.07" inkscape:connector-curvature="0" style="stroke:#ffffff">
      <title id="title7159">McCook, SD</title>
    </path>
    <path id="c46125" d="m 504.45,184.87 3.4142,0.02 -0.0891,9.628 -3.6963,-0.0813 -0.0116,-1.9734 -4.2151,-0.0254 0.0731,-7.628 4.5249,0.07" inkscape:connector-curvature="0" style="stroke:#ffffff">
      <title id="title7162">Turner, SD</title>
    </path>
    <path id="c46027" d="m 507.78,194.52 1.9861,0.02 -0.0802,8.782 -3.5212,-1.315 -2.0952,-0.88751 0.0142,-6.6858 3.6963,0.0813" inkscape:connector-curvature="0" style="stroke:#ffffff">
      <title id="title7165">Clay, SD</title>
    </path>
    <path id="c46127" d="m 515.64,194.58 -1.1642,4.019 -0.6757,1.801 -0.67393,3.084 0.44037,0.337 0.55447,0.515 0.43502,0.699 0.60975,1.606 0.60439,1.666 -3.2466,-0.829 -1.2052,-1.792 -0.0499,-0.209 0.009,-0.21 0.0642,-0.271 -0.0963,-0.385 -0.18541,-0.419 -1.3728,-0.869 0.0802,-8.782 5.8728,0.04" inkscape:connector-curvature="0" style="stroke:#ffffff">
      <title id="title7168">Union, SD</title>
    </path>
    <path id="c46083" d="m 507.87,184.89 5.4253,0.04 0.0718,1.388 1.1389,1.2892 0.0458,1.6821 -1.0214,0.0616 0.052,1.1311 0.37083,0.836 1.1981,0 0.15868,0.08 0.64361,2.314 -0.0481,0.158 -0.26565,0.708 -5.8728,-0.04 -1.9861,-0.02 0.0891,-9.628" inkscape:connector-curvature="0" style="stroke:#ffffff">
      <title id="title7171">Lincoln, SD</title>
    </path>
    <path id="c46099" d="m 508.54,176.87 7.2081,0.02 -0.0321,8.06 -2.4247,-0.02 -5.4253,-0.04 -3.4142,-0.02 0.1034,-8.044 3.9847,0.04" inkscape:connector-curvature="0" style="stroke:#ffffff">
      <title id="title7174">Minnehaha, SD</title>
    </path>
    <path id="c46085" d="m 464.33,167.89 0.6598,1.0993 -0.34931,0.8046 -0.0947,0.41711 0.29774,0.443 0.44215,0.442 0.46533,0.112 0.54734,0.07 0.36192,0.147 0.81121,0.747 0.36905,0.394 0.12124,0.32 -0.009,0.275 -0.0874,0.528 -0.11232,0.297 -0.0866,0.97414 0.84804,0.58529 0.0967,0.46984 -0.44163,0.53707 -0.62382,0.77999 -0.74527,0.43585 -0.0368,1.6302 -0.68454,0.27391 -0.32018,0.37514 0.34783,0.49658 0.59073,-0.0702 0.82208,0.22221 0.45201,0.54109 -0.0134,1.2636 0.7025,0.95933 -0.0571,0.21 -0.1355,0.239 -0.0963,0.114 -0.009,0 -3.9205,-0.137 -1.4958,-0.06 0.20147,-5.601 -0.68474,-0.0384 -1.2723,0.58812 -1.9812,0.78063 -2.5796,-0.61256 -1.2106,0.45105 -1.8741,-0.46584 -0.47424,-0.459 -1.7918,-0.151 0.10519,-2.468 -0.41897,-0.545 0.3227,-7.41 0.0321,-0.602 7.0637,0.297 0.0392,0.161 0.54556,1.084 0.57592,0.62163 1.2614,-0.20607 0.6818,-0.004 1.2656,0.79212 0.61892,-0.009 0.29774,-0.12 0.37975,-0.38111 -0.33853,-0.67001 -0.94963,-0.36611 -0.46943,-0.217 -0.0675,-0.40331 0.20803,-0.31836 0.4903,-0.3041 1.4067,0.635" inkscape:connector-curvature="0" style="stroke:#ffffff">
      <title id="title7177">Lyman, SD</title>
    </path>
    <path id="c46075" d="m 451.29,167.9 -0.3227,7.41 0.41897,0.545 -0.10519,2.468 -0.15332,-0.275 -0.63928,0.11477 -1.1801,0.0824 -1.9858,-0.96646 -1.7823,0.8403 -1.5568,-0.35277 -4.0735,-3.1232 -0.37619,0.09 -0.1141,0.122 0.18542,-3.529 0.49029,-3.977 11.195,0.554" inkscape:connector-curvature="0" style="stroke:#ffffff">
      <title id="title7180">Jones, SD</title>
    </path>
    <path id="c46071" d="m 424.04,170.42 15.564,0.9 -0.18542,3.529 -0.0963,-0.09 -0.27277,-0.106 -0.82726,0.138 -1.2373,0.699 -0.13728,0.194 -0.23177,0.522 -0.49029,8.92 -14.689,-0.893 0.12837,-2.001 -0.46533,-0.02 0.32805,-5.166 0.69888,0.345 0.71488,0 0.58835,-0.387 0.41719,-6.596 0.19255,0" inkscape:connector-curvature="0" style="stroke:#ffffff">
      <title id="title7183">Jackson, SD</title>
    </path>
    <path id="c46117" d="m 446.21,153.76 1.3407,0.796 0.0499,0.05 0.23356,0.706 0,0.314 -0.24247,0.955 -0.17651,0.46 -0.16046,0.248 -0.0642,0.515 0.0731,0.328 0.11232,0.193 0.18363,0.217 0.21038,0.147 0.23178,0.103 1.0768,0.266 0.32953,0.66825 -1.0694,0.38275 -0.11945,0.17 -0.0963,0.362 -0.025,0.256 0.0161,0.09 0.15332,0.208 0.46681,0.32522 1.2234,-0.31716 1.3233,0.53935 0.28123,1.9526 0.0642,0.06 0.35301,0.161 1.5261,0.442 0.58835,0.09 0.67393,0.01 0.2496,0.07 1.0519,0.355 1.7754,1.1586 0.99692,-0.005 0.22465,0.2 0.12123,0.314 -0.016,0.05 -0.78625,0.989 -7.0637,-0.297 -0.0321,0.602 -11.195,-0.554 -1.9683,-0.1 0.21573,-4.034 0.6347,-7.962 0.35479,-1.302 1.8399,0.635 0.54556,-0.154 0.25851,-0.433 1.0127,-0.403 1.3568,-0.216 0.89908,0.57269 0.9658,-0.19469" inkscape:connector-curvature="0" style="stroke:#ffffff">
      <title id="title7186">Stanley, SD</title>
    </path>
    <path id="c46055" d="m 430.41,157.34 0.92077,0.26172 1.5461,0.18156 0.95141,-0.73453 0.21005,-0.72426 1.4874,-0.32904 0.22723,-0.6391 2.5085,-0.22869 0.64313,-0.625 0.42611,-0.555 -0.35479,1.302 -0.6347,7.962 -0.21573,4.035 1.9683,0.1 -0.49029,3.977 -15.564,-0.9 0.50634,-8.035 0.1034,0 0.25048,-3.8505 1.2829,-0.27664 2.114,0.1089 z" inkscape:connector-curvature="0" style="stroke:#ffffff">
      <title id="title7189">Haakon, SD</title>
    </path>
    <path id="c46103" d="m 390.58,164.56 9.8985,0.82 17.51,1.286 -0.23397,-1.0805 0.82767,-1.0805 0.20218,-2.1052 0.7778,-0.627 0.37143,-1.6808 0.21751,-0.233 0.91545,-0.11187 0.44203,0.74797 0.59346,-0.0484 0.10555,-0.41431 0.8585,0.1312 1.2231,-1.4836 0.60261,-0.137 -0.24248,3.849 -0.1034,0 -0.50634,8.036 -0.19255,0 -0.41719,6.596 -0.58835,0.387 -0.71488,0 -0.69888,-0.345 -0.66679,0.265 -10.471,-0.731 2.0253,-2.499 0.24247,-0.869 0.0464,-0.337 -11.369,-0.868 -11.225,-0.843 0.57051,-6.606" inkscape:connector-curvature="0" style="stroke:#ffffff">
      <title id="title7192">Pennington, SD</title>
    </path>
    <path id="c46081" d="m 391.4,154.69 2.5317,-0.339 1.3746,-0.121 4.1291,0.346 -0.60975,6.324 -0.13728,1.663 1.9932,0.144 -0.20146,2.669 -9.8985,-0.82 0.0784,-0.898 0.73989,-8.968" inkscape:connector-curvature="0" style="stroke:#ffffff">
      <title id="title7195">Lawrence, SD</title>
    </path>
    <path id="c46019" d="m 410.42,141.38 -0.28883,3.977 -0.0232,0 -0.51524,7.055 -0.29774,2.926 -9.8593,-0.756 -4.1291,-0.346 -1.3746,0.121 -2.5317,0.339 0.80408,-9.788 0.69888,-4.917 17.517,1.389" inkscape:connector-curvature="0" style="stroke:#ffffff">
      <title id="title7198">Butte, SD</title>
    </path>
    <path id="c46093" d="m 425.68,146.44 -0.7702,12.102 -0.016,0 -0.60261,0.138 -1.2231,1.4836 -0.8585,-0.1302 -0.10555,0.41431 -0.59346,0.0484 -0.44203,-0.74797 -0.91545,0.11087 -0.21751,0.234 -0.37143,1.6798 -0.7778,0.627 -0.20218,2.1052 -0.82767,1.0805 0.23397,1.0805 -17.51,-1.285 0.20146,-2.669 -1.9932,-0.145 0.13728,-1.663 0.60975,-6.324 9.8593,0.756 0.29774,-2.926 0.51524,-7.055 0.0232,0 15.548,1.084" inkscape:connector-curvature="0" style="stroke:#ffffff">
      <title id="title7201">Meade, SD</title>
    </path>
    <path id="c46137" d="m 426.31,136.47 8.5489,0.513 -1.0751,9.941 -0.0571,1.027 5.9227,0.323 -0.31378,5.673 -0.42611,0.555 -0.64313,0.625 -2.5085,0.22869 -0.22723,0.6391 -1.4874,0.32904 -0.21005,0.72426 -0.95141,0.73453 -1.5461,-0.18156 -0.92077,-0.26172 -2.1119,1.03 -2.1119,-0.10927 -1.2789,0.27589 0.7702,-12.102 0.62757,-9.962" inkscape:connector-curvature="0" style="stroke:#ffffff">
      <title id="title7204">Ziebach, SD</title>
    </path>
    <path id="c46041" d="m 453.08,137.92 0.14025,1.1099 0.86351,1.0441 -0.007,0.137 -0.16225,0.459 -0.44215,0.513 -0.0802,0.12 -0.0713,0.194 0.12837,0.61 0.71493,1.069 0.0321,0.257 -0.42611,1.744 -0.82012,1.92 0.64394,1.2135 -0.16803,0.4239 -0.97242,-0.37644 -0.97257,0.15105 -0.23356,0.401 -0.0232,0.435 0.0713,1.148 0.041,0.25 0.2817,0.884 -0.025,0.176 -0.15333,0.234 -0.27278,0.296 -1.9059,1.695 -0.30308,0.122 -0.6044,-0.138 -0.40827,-0.144 -0.47425,-0.522 -0.25851,-0.443 -0.12837,-0.151 -0.19255,-0.186 -0.29774,-0.119 -0.0713,0 -0.20147,0.128 -0.16046,0.289 -0.0642,0.177 -0.0571,0.233 0.009,0.234 0.0553,0.144 0.10519,0.105 -0.9658,0.19469 -0.89908,-0.57269 -1.3568,0.216 -1.0127,0.403 -0.25851,0.433 -0.54556,0.154 -1.8399,-0.635 0.31378,-5.673 -5.9227,-0.323 0.0571,-1.027 1.0751,-9.941 18.226,0.932" inkscape:connector-curvature="0" style="stroke:#ffffff">
      <title id="title7207">Dewey, SD</title>
    </path>
    <path id="c46129" d="m 451.78,135.05 11.5,0.529 0.15333,0 -0.33874,7.988 -8.9268,-0.402 -0.71493,-1.069 -0.12837,-0.61 0.0713,-0.194 0.0802,-0.12 0.44215,-0.513 0.16225,-0.458 0.007,-0.138 -0.86351,-1.0436 -0.14025,-1.1094 -0.46431,-0.71989 -1.2227,-0.0932 -0.59827,-0.55116 0.71995,-0.91886 0.26204,-0.58585" inkscape:connector-curvature="0" style="stroke:#ffffff">
      <title id="title7210">Walworth, SD</title>
    </path>
    <path id="c46107" d="m 454.17,143.18 8.9268,0.402 2.1947,0.09 -0.28169,8.003 -1.6545,-0.07 -11.901,-0.507 -0.11233,-0.353 -0.041,-0.249 -0.0713,-1.148 0.0232,-0.435 0.23356,-0.401 0.97257,-0.15105 0.97242,0.37644 0.16803,-0.4239 -0.64394,-1.2135 0.82012,-1.92 0.42611,-1.744 -0.0321,-0.257" inkscape:connector-curvature="0" style="stroke:#ffffff">
      <title id="title7213">Potter, SD</title>
    </path>
    <path id="c46119" d="m 463.35,151.6 -0.34587,8.044 -13.926,-0.586 -1.0768,-0.266 -0.23178,-0.103 -0.21038,-0.147 -0.18363,-0.217 -0.11232,-0.193 -0.0731,-0.328 0.0642,-0.515 0.16046,-0.248 0.17651,-0.46 0.24247,-0.955 0,-0.314 -0.23356,-0.706 -0.0499,-0.05 -1.3407,-0.795 -0.10519,-0.106 -0.0553,-0.144 -0.009,-0.234 0.0571,-0.233 0.0642,-0.177 0.16046,-0.289 0.20147,-0.128 0.0713,0 0.29774,0.12 0.19255,0.185 0.12837,0.152 0.25851,0.442 0.47425,0.522 0.40827,0.144 0.6044,0.138 0.30308,-0.121 1.9059,-1.696 0.27278,-0.296 0.15333,-0.233 0.025,-0.177 -0.16937,-0.531 11.901,0.506" inkscape:connector-curvature="0" style="stroke:#ffffff">
      <title id="title7216">Sully, SD</title>
    </path>
    <path id="c46065" d="m 463.01,159.64 -0.0802,7.618 -0.4903,0.3041 -0.20803,0.31836 0.0675,0.40331 0.46943,0.217 0.94963,0.36611 0.33853,0.67001 -0.37975,0.38111 -0.29774,0.12 -0.61892,0.009 -1.2656,-0.79212 -0.6818,0.004 -1.2614,0.20607 -0.57592,-0.62163 -0.54556,-1.084 -0.0392,-0.161 0.78625,-0.989 0.016,-0.05 -0.12123,-0.314 -0.22465,-0.2 -0.99692,0.005 -1.7754,-1.1586 -1.0519,-0.355 -0.2496,-0.07 -0.67393,-0.01 -0.58835,-0.09 -1.5261,-0.442 -0.35301,-0.161 -0.0642,-0.06 -0.28123,-1.9526 -1.3233,-0.53935 -1.2234,0.31716 -0.46681,-0.32522 -0.15332,-0.208 -0.0161,-0.09 0.025,-0.257 0.0963,-0.362 0.11945,-0.169 1.0694,-0.38325 -0.32953,-0.66875 13.926,0.586" inkscape:connector-curvature="0" style="stroke:#ffffff">
      <title id="title7219">Hughes, SD</title>
    </path>
    <path id="c46017" d="m 464.33,167.89 4.5642,0.112 6.1456,0.152 -0.19968,6.026 -7.0869,-0.193 0.11232,-0.297 0.0874,-0.528 0.009,-0.275 -0.12124,-0.32 -0.36905,-0.394 -0.81121,-0.747 -0.36192,-0.147 -0.54734,-0.07 -0.46533,-0.112 -0.44215,-0.442 -0.29774,-0.443 0.0947,-0.41711 0.34931,-0.8046 -0.6598,-1.0993" inkscape:connector-curvature="0" style="stroke:#ffffff">
      <title id="title7222">Buffalo, SD</title>
    </path>
    <path id="c46073" d="m 475.04,168.16 3.7208,0.112 6.076,0.161 -0.14619,5.963 -7.8732,-0.146 -1.9772,-0.06 0.19968,-6.026" inkscape:connector-curvature="0" style="stroke:#ffffff">
      <title id="title7225">Jerauld, SD</title>
    </path>
    <path id="c46111" d="m 484.84,168.43 7.8749,0.208 0.0713,0 -0.18363,7.964 -1.9291,-0.06 -5.9227,-0.146 -0.0571,-2.008 0.14619,-5.963" inkscape:connector-curvature="0" style="stroke:#ffffff">
      <title id="title7228">Sanborn, SD</title>
    </path>
    <path id="c46097" d="m 500.69,168.78 -0.10519,7.995 -3.9615,-0.07 -4.0168,-0.1 0.18363,-7.964 7.8999,0.139" inkscape:connector-curvature="0" style="stroke:#ffffff">
      <title id="title7231">Miner, SD</title>
    </path>
    <path id="c46079" d="m 500.69,168.78 3.9598,0.03 3.9633,0.05 -0.066,8.01 -3.9847,-0.04 -3.9776,-0.06 0.10519,-7.995" inkscape:connector-curvature="0" style="stroke:#ffffff">
      <title id="title7234">Lake, SD</title>
    </path>
    <path id="c46101" d="m 515.8,168.88 -0.0481,8.003 -7.2081,-0.02 0.066,-8.01 7.1903,0.02" inkscape:connector-curvature="0" style="stroke:#ffffff">
      <title id="title7237">Moody, SD</title>
    </path>
    <path id="c46011" d="m 504.77,160.81 3.9776,0.02 7.1047,0.06 -0.0499,7.987 -7.1903,-0.02 -3.9633,-0.05 0.12124,-7.995" inkscape:connector-curvature="0" style="stroke:#ffffff">
      <title id="title7240">Brookings, SD</title>
    </path>
    <path id="c46057" d="m 508.82,154.83 -0.0731,6.002 -3.9776,-0.02 -5.969,-0.105 0.11232,-5.987 9.9074,0.113" inkscape:connector-curvature="0" style="stroke:#ffffff">
      <title id="title7243">Hamlin, SD</title>
    </path>
    <path id="c46077" d="m 498.8,160.71 5.969,0.105 -0.12124,7.995 -3.9598,-0.03 -7.8999,-0.139 -0.0713,0 0.16759,-8.042 5.9156,0.112" inkscape:connector-curvature="0" style="stroke:#ffffff">
      <title id="title7246">Kingsbury, SD</title>
    </path>
    <path id="c46005" d="m 490.88,158.54 2.0516,0.097 -0.0513,1.961 -0.16759,8.042 -7.8749,-0.208 -6.076,-0.161 0.20146,-10.077 11.917,0.346" inkscape:connector-curvature="0" style="stroke:#ffffff">
      <title id="title7249">Beadle, SD</title>
    </path>
    <path id="c46069" d="m 465.01,151.67 4.2593,0.16 -0.29774,8.043 0.20147,0 -0.27278,8.124 -4.5642,-0.112 -1.4067,-0.635 0.0802,-7.618 0.34587,-8.044 1.6545,0.07" inkscape:connector-curvature="0" style="stroke:#ffffff">
      <title id="title7252">Hyde, SD</title>
    </path>
    <path id="c46059" d="m 469.27,151.83 9.6988,0.305 0,6.058 -0.20146,10.077 -3.7208,-0.112 -6.1456,-0.152 0.27278,-8.124 -0.20147,0 0.29774,-8.043" inkscape:connector-curvature="0" style="stroke:#ffffff">
      <title id="title7255">Hand, SD</title>
    </path>
    <path id="c46045" d="m 463.43,135.59 15.853,0.587 -0.19255,7.98 -13.805,-0.49 -2.1947,-0.09 0.33874,-7.988" inkscape:connector-curvature="0" style="stroke:#ffffff">
      <title id="title7258">Edmunds, SD</title>
    </path>
    <path id="c46049" d="m 479.09,144.16 0.0802,0 -0.2086,7.971 -9.6988,-0.305 -4.2593,-0.16 0.28169,-8.003 13.805,0.49" inkscape:connector-curvature="0" style="stroke:#ffffff">
      <title id="title7261">Faulk, SD</title>
    </path>
    <path id="c46115" d="m 491.11,144.53 -0.0481,2.009 -0.1462,5.666 0,0.328 0.0891,0 -0.12836,5.994 -11.917,-0.345 0,-6.059 0.2086,-7.971 11.942,0.369" inkscape:connector-curvature="0" style="stroke:#ffffff">
      <title id="title7264">Spink, SD</title>
    </path>
    <path id="c46025" d="m 498.98,146.73 -0.0713,7.994 -0.11232,5.987 -5.9156,-0.112 0.0512,-1.961 -2.0516,-0.097 0.12836,-5.994 -0.0891,0 0,-0.328 0.1462,-5.666 7.9142,0.186" inkscape:connector-curvature="0" style="stroke:#ffffff">
      <title id="title7267">Clark, SD</title>
    </path>
    <path id="c46029" d="m 498.98,146.73 4.3556,0.06 5.5697,0.1 -0.0178,3.985 -0.0713,3.969 -9.9074,-0.113 0.0713,-7.994" inkscape:connector-curvature="0" style="stroke:#ffffff">
      <title id="title7270">Codington, SD</title>
    </path>
    <path id="c46039" d="m 515.89,150.9 -0.007,3.962 -0.025,4.018 -0.0143,2.017 -7.1047,-0.06 0.0731,-6.002 0.0713,-3.969 7.0067,0.03" inkscape:connector-curvature="0" style="stroke:#ffffff">
      <title id="title7273">Deuel, SD</title>
    </path>
    <path id="c46051" d="m 515.65,142.87 0.26565,1.326 -0.0178,6.702 -7.0067,-0.03 0.0178,-3.985 -5.5697,-0.1 0.0392,-3.361 3.5533,0.06 0.35011,-0.90393 8.3681,0.29693" inkscape:connector-curvature="0" style="stroke:#ffffff">
      <title id="title7276">Grant, SD</title>
    </path>
    <path id="c46037" d="m 491.31,136.53 9.7862,0.201 0.12836,0.66 2.2268,0.05 -0.11232,9.346 -4.3556,-0.06 -7.9142,-0.186 0.24068,-10.012" inkscape:connector-curvature="0" style="stroke:#ffffff">
      <title id="title7279">Day, SD</title>
    </path>
    <path id="c46109" d="m 514.22,128.88 -0.0891,1.004 0,0.05 -0.009,0.03 -0.0713,0.61 -0.0571,0.497 -0.0392,0.209 -0.016,0.114 -0.016,0.05 -0.016,0.03 -0.025,0.06 -1.125,1.671 -0.32805,0.33 -0.61866,0.337 -0.55625,0.362 -1.4691,1.18 -0.025,0.03 -0.0321,0.04 -0.025,0.02 -0.0553,0.128 -0.22464,0.771 0.0642,0.09 0.28883,0.369 1.125,1.503 1.1134,2.4603 1.2488,0.15868 1.5511,0.756 0.52951,0.426 0.30665,0.706 -8.3681,-0.29693 -0.35011,0.90393 -3.5533,-0.06 0.0731,-5.985 0.0874,-8.663 10.681,0.105" inkscape:connector-curvature="0" style="stroke:#ffffff">
      <title id="title7282">Roberts, SD</title>
    </path>
    <path id="c46091" d="m 503.54,128.78 -0.0874,8.663 -2.2268,-0.05 -0.12836,-0.66 -9.7862,-0.201 0.18364,-7.971 12.045,0.217" inkscape:connector-curvature="0" style="stroke:#ffffff">
      <title id="title7285">Marshall, SD</title>
    </path>
    <path id="c46013" d="m 479.52,128.2 11.498,0.345 0.47424,0.02 -0.18364,7.971 -0.19255,8.003 -11.942,-0.369 -0.0802,0 0.19255,-7.98 0.23356,-7.978" inkscape:connector-curvature="0" style="stroke:#ffffff">
      <title id="title7288">Brown, SD</title>
    </path>
    <path id="c46089" d="m 463.58,127.6 11.434,0.435 4.5089,0.16 -0.23356,7.979 -15.853,-0.587 -0.15333,0 0.29774,-7.978" inkscape:connector-curvature="0" style="stroke:#ffffff">
      <title id="title7291">McPherson, SD</title>
    </path>
    <path id="c46021" d="m 460.97,127.48 2.603,0.119 -0.29774,7.978 -11.5,-0.529 0.25852,-0.908 0.1765,-0.338 0.32092,-0.209 0.69175,0.26213 0.41072,-0.29213 0.33994,-0.87602 -0.61162,-0.5579 -0.0535,-0.81326 -0.6539,-1.2034 0.49772,-1.0293 -0.38036,-0.28613 -0.5631,-0.20289 0.032,-0.73698 -0.82101,0.1283 -0.3755,-0.97943 9.9252,0.483" inkscape:connector-curvature="0" style="stroke:#ffffff">
      <title id="title7294">Campbell, SD</title>
    </path>
    <path id="c46031" d="m 427.02,125.65 0.14261,0 0.25852,0.02 1.9362,0.121 2.3052,0.136 2.4283,0.153 2.0093,0.112 0.93244,0.06 6.2989,0.346 1.4548,0.08 1.9273,0.1 0.13015,0 0.36192,0.02 3.6478,0.185 0.19968,0 0.3755,0.97993 0.82101,-0.12805 -0.032,0.7371 0.5631,0.20302 0.38036,0.28613 -0.49772,1.0293 0.6539,1.2034 0.0535,0.81326 0.61162,0.5579 -0.33994,0.87602 -0.41072,0.29213 -0.69175,-0.26213 -0.32092,0.208 -0.1765,0.339 -0.25852,0.908 -0.26204,0.58572 -0.71995,0.91874 0.59827,0.55103 1.2227,0.0931 0.46431,0.71939 -18.226,-0.932 -8.5489,-0.514 0.67571,-10.823 0.0321,0" inkscape:connector-curvature="0" style="stroke:#ffffff">
      <title id="title7297">Corson, SD</title>
    </path>
    </g>
  </svg>
