<svg xmlns:dc="http://purl.org/dc/elements/1.1/" xmlns:cc="http://creativecommons.org/ns#" xmlns:rdf="http://www.w3.org/1999/02/22-rdf-syntax-ns#" xmlns:svg="http://www.w3.org/2000/svg" xmlns="http://www.w3.org/2000/svg" xmlns:sodipodi="http://sodipodi.sourceforge.net/DTD/sodipodi-0.dtd" xmlns:inkscape="http://www.inkscape.org/namespaces/inkscape" width="63.63026000000002" height="34.42508000000001" version="1.0" id="svg2" inkscape:version="0.91 r13725" sodipodi:docname="USA counties.svg">
  <defs id="defs9439"/>
  <sodipodi:namedview pagecolor="#ffffff" bordercolor="#666666" borderopacity="1" objecttolerance="10" gridtolerance="10" guidetolerance="10" inkscape:pageopacity="0" inkscape:pageshadow="2" inkscape:window-width="798" inkscape:window-height="828" id="namedview9437" showgrid="false" showguides="true" inkscape:zoom="0.64950808" inkscape:cx="494.98999" inkscape:cy="313.535" inkscape:window-x="-7" inkscape:window-y="0" inkscape:window-maximized="0" inkscape:current-layer="svg2"/>
  <metadata id="metadata4">
    <rdf:RDF>
      <cc:Work>
        <dc:format>image/svg+xml</dc:format>
        <dc:type rdf:resource="http://purl.org/dc/dcmitype/StillImage"/>
        <dc:title/>
        <cc:license rdf:resource="http://creativecommons.org/publicdomain/zero/1.0/"/>
        <dc:date>2019-10-06</dc:date>
        <dc:creator>
          <cc:Agent>
            <dc:title>U.S. Census Bureau, Abe.suleiman, Lokal_Profil</dc:title>
          </cc:Agent>
        </dc:creator>
        <dc:source>https://commons.wikimedia.org/wiki/File:Usa_counties_large.svg</dc:source>
      </cc:Work>
      <cc:License rdf:about="http://creativecommons.org/publicdomain/zero/1.0/">
        <cc:permits rdf:resource="http://creativecommons.org/ns#Reproduction"/>
        <cc:permits rdf:resource="http://creativecommons.org/ns#Distribution"/>
        <cc:permits rdf:resource="http://creativecommons.org/ns#DerivativeWorks"/>
      </cc:License>
    </rdf:RDF>
  </metadata>
  <style id="style6">
  /*
   * Below are Cascading Style Sheet (CSS) definitions in use in this file,
   * which allow easily changing how counties are displayed.
   *
   *
   * For the U.S. Census county codes (FIPS codes) used in this file to identify individual counties, see this link:
   * https://www2.census.gov/geo/docs/reference/codes/files/national_county.txt
   *
   * The county codes used in this file combine the 2-digit state code, which is in the second column of the file
   * linked above, and the 3-digit county code, which is in the third column of the file linked above. Each value
   * for the "id" attribute for each county is in the following form: "c[state_code][county-code]". For example,
   * for Loving Country in Texas, the state code is "48" and the county code is "301", so the id name for the
   * county is "c48301".
   *
   * County codes used in this file can also be found on Wikimedia Commons at this link:
   * https://commons.wikimedia.org/wiki/File_talk:Usa_counties_large.svg/county_codes
   *
   * Examples:
   *
   * To color two counties red (in this case Loving County and Dallas County in Texas) simply
   * go to the CSS insertion point and add:
   *
   * #c48301, #c48113 {fill:red}
   *
   * To color an entire state's counties (in the case New Mexico, with "35" being the state code) a green,
   * go to the CSS insertion point and add:
   *
   * path[id*='c35'] {fill:#34A853}
   *
   */
  #counties {fill:#d0d0d0;stroke:#000;stroke-width:.17829;} 
  #borders {fill:none;stroke:#221e1f;stroke-width:.89143;} 
  #separator {fill:none;stroke:#a9a9a9;stroke-width:2.3177309;}
 </style>
  <g id="counties" transform="translate(-901.86882,-143.74573999999996)" style="fill:#d0d0d0;stroke:#ffffff;stroke-width:0.17828999">
    <path id="c25027" d="m 924.77,152 0.0713,0.16 0.7861,0.65186 0.33271,0.88991 1.1698,-0.37536 -0.0598,-0.30677 2.0115,0.3056 0.27445,1.7834 0.74823,0.0913 -0.0188,-0.60805 1.5378,-0.35989 0.25851,0.476 -0.27868,1.0552 0.39814,0.19785 0.0642,1.284 -0.77666,0.41624 0.57698,0.23576 -0.51525,1.013 0.41336,0.2467 0.34567,0.42718 0.66153,-0.4978 0.99993,-0.31732 -0.0379,1.4198 -1.1208,0.56254 -0.26346,0.67535 0.14263,0.3595 0.44928,0.419 0.53129,0.175 0.78261,-0.42845 0.64726,0.65445 0.4885,3.206 -4.9011,1.503 -0.11232,-0.337 -4.2896,1.019 -0.7078,0.147 -0.56161,0.11 -0.73989,-2.949 -1.0768,0.289 -1.1731,-0.248 -0.0784,-0.29 0.007,-0.175 0.42432,-1.086 -0.2665,-1.3296 -1.0079,0.2894 -0.34215,-0.92105 -0.47833,0.15322 -0.29774,-1.182 0.23037,-0.984 -0.32667,-0.984 0.50892,-0.78078 -0.53554,-0.39781 -0.36862,-1.3734 0.26788,-0.41188 0.37234,-0.13335 -0.32397,-1.0386 -0.70693,-0.0637 -0.4603,-1.2645 5.8318,-1.263 0.49208,-0.11" inkscape:connector-curvature="0" style="stroke:#ffffff">
      <title id="title3544">Worcester, MA</title>
    </path>
    <path id="c25017" d="m 935.12,148.75 0.63827,1.535 -0.26693,0.3124 1.9054,0.7876 1.6274,-0.59954 0.7887,0.66473 -0.67083,0.18954 0.11786,0.85427 0.60493,-0.0342 0.0619,0.88222 0.3334,0.424 0.33339,0.424 -0.0963,0.618 -0.3851,0.867 0.16221,0.40251 -0.18747,0.35864 -0.45148,0.11863 -0.18292,-0.26678 -0.68997,0.441 0.1576,0.49287 0.162,0.097 -0.238,0.428 0.28894,0.145 -0.2832,0.64413 -0.81121,-0.634 -0.0481,-0.03 -0.41006,-0.04 -0.27991,0.04 -0.89321,0.602 0.21037,0.33 0.39224,0.513 0.22642,0.484 -0.45941,0.25689 0.0636,0.98911 -0.82547,0.738 -1.1107,0.82 -0.64725,-0.65445 -0.78262,0.42845 -0.53129,-0.175 -0.44928,-0.419 -0.14263,-0.3595 0.26346,-0.67535 1.1208,-0.56254 0.0379,-1.4198 -0.99993,0.31732 -0.66153,0.4978 -0.34567,-0.42718 -0.41336,-0.2467 0.51525,-1.012 -0.57698,-0.23626 0.77666,-0.41674 -0.0642,-1.284 -0.39814,-0.19785 0.27868,-1.0552 -0.25851,-0.476 -1.5378,0.35989 0.0188,0.60805 -0.74823,-0.0913 -0.27445,-1.7834 -2.0115,-0.3056 0.0598,0.30677 -1.1698,0.37536 -0.33271,-0.88991 -0.7861,-0.65186 -0.0713,-0.16 4.0649,-0.909 0.2496,-0.06 0.0713,-0.02 5.5465,-1.278 0.41541,-0.988" inkscape:connector-curvature="0" style="stroke:#ffffff">
      <title id="title3547">Middlesex, MA</title>
    </path>
    <path id="c25019" d="m 963.11,175.09 0.15155,-0.08 0.26743,-0.306 0.19255,-0.36 0.12836,-0.468 -0.0784,-0.465 -0.0909,-0.16 -0.1765,-0.163 -0.16225,-0.128 -0.0945,-0.08 -0.016,-0.09 0.29774,0.06 0.353,0.312 1.5261,1.729 0.0909,0.321 -0.0107,0.241 -0.007,0.05 -0.12124,0.16 -0.39401,0.298 -0.21751,0.1 -1.3639,0.314 -0.36905,0.07 -0.95027,-0.06 -1.6153,-0.321 -0.21573,-0.1 -0.15332,-0.128 -0.0892,-0.186 0.2496,-0.06 0.21751,0.05 0.0963,0.03 0.8433,-0.03 1.1963,-0.312 0.51525,-0.233" inkscape:connector-curvature="0" style="stroke:#ffffff">
      <title id="title3550">Nantucket, MA</title>
    </path>
    <path id="c25001" d="m 952.44,166.17 0.27482,-0.0425 0.33875,0.241 0.4885,0.272 0.44216,0.12484 1.0786,0.0578 0.64718,-0.04 1.1123,-0.33411 0.68939,0.26544 0.56977,-0.68173 1.1304,-0.72019 0.85935,-0.58 0.69879,-0.39566 0.17294,-0.378 0.27945,-0.16792 -0.20146,-0.666 -0.31379,-0.821 -0.14441,-0.45542 -0.52951,-0.755 -0.27631,-0.0504 -0.15994,0.31779 0.0881,0.93091 -0.42665,-0.98125 -0.51052,-1.721 -0.43154,-0.50496 -0.26743,-0.185 -0.29774,-0.113 -0.47424,-0.112 -0.11945,0.03 -0.22465,0.127 -0.12301,0.114 -0.0963,0.169 -0.0553,0.28 0.016,0.121 -0.94849,-0.369 -0.0553,-0.07 0.0642,-0.232 0.16937,-0.185 0.28882,-0.16 0.27991,-0.09 0.49564,-0.05 0.79694,0.04 0.62936,0.138 0.47959,0.208 0.55626,0.385 0.52951,0.53 0.66679,0.772 0.5313,0.763 0.82224,1.4552 0.37975,0.756 0.51848,1.5402 0.31735,1.101 0.0571,0.507 -0.17049,0.65017 -0.0392,1.8959 -0.35004,0.159 0.13489,-0.96978 -0.13602,-1.2333 -0.0392,-0.128 -0.082,-0.145 -0.4261,-0.201 -0.19969,-0.05 -0.12123,0.03 -3.3633,1.8146 -0.1649,0.7257 -0.47284,-0.44991 -1.14,0.25291 -0.10484,0.36167 -1.1114,0.66339 -0.59841,1.5205 -2.166,0.86578 -0.57454,0.71455 -0.62579,-0.06 0.55048,-1.1736 -0.45983,-2.215 -0.3656,-0.38681 0.3589,-0.45594 -0.35904,-0.20528 0.0649,-1.1777 1.1483,-1.1778" inkscape:connector-curvature="0" style="stroke:#ffffff">
      <title id="title3553">Barnstable, MA</title>
    </path>
    <path id="c25025" d="m 940.59,154.19 0.81299,0.322 0.0614,0.54745 0.82912,0.89955 -0.8363,0.13613 -0.11761,0.54798 0.43955,0.56889 -0.58388,0.085 -0.0713,0.89107 -1.037,1.1923 -1.2406,-0.84432 0.28321,-0.64417 0.222,0.112 0.409,-0.91 -0.021,-0.384 -0.392,0.126 -0.26896,0.48297 -0.16204,-0.0966 -0.15757,-0.49328 0.68997,-0.441 0.18292,0.26678 0.45148,-0.11863 0.18747,-0.35864 -0.16221,-0.40251 0.3851,-0.867 0.0963,-0.618" inkscape:connector-curvature="0" style="stroke:#ffffff">
      <title id="title3556">Suffolk, MA</title>
    </path>
    <path id="c25005" d="m 937.5,166.03 4.2914,-3.792 1.2926,2.819 0.92888,0.19484 0.98305,1.6032 -0.47137,0.82301 -0.40919,0.38793 0.45747,0.17127 0.0483,0.55921 1.6674,-0.61491 0.7089,0.6925 1.7918,2.758 -0.30487,-0.02 -0.76307,0.112 -0.312,0.411 -0.18721,0.242 -0.0303,0.06 0.0553,0.747 0.0784,0.273 0.25852,0.31434 -1.4509,1.2466 -0.88346,0.0403 -0.50487,0.61584 -0.72333,-2.1901 -0.2726,-0.23377 -0.004,-0.44474 -0.2822,-0.71326 -1.0476,-0.10782 0.10191,-0.31941 0.25202,-0.31374 -0.23415,-0.0256 -0.72635,-0.2237 -0.13843,0.20612 -0.75594,-0.68594 -1.1202,-0.26096 -0.17467,-0.015 -0.10331,-0.17553 -0.19594,-0.16113 -0.0893,-0.29768 -0.149,-0.22941 0.0644,-0.29768 -0.10639,-0.14793 0.005,-0.3997 -0.30268,-0.63866 -0.0296,-0.21621 -0.66294,0.32026 -0.54878,-2.0694" inkscape:connector-curvature="0" style="stroke:#ffffff">
      <title id="title3559">Bristol, MA</title>
    </path>
    <path id="c25023" d="m 943.38,157.78 0.18957,-0.75345 -0.44529,-0.2471 0.5065,-0.0892 0.70301,0.56078 0.59458,-0.0389 -0.249,0.49338 0.434,0.91951 0.639,-0.71815 0.073,-0.56657 1.1507,0.79669 2.0681,2.298 -0.18871,1.4397 -0.50578,0.60895 1.8684,0.82522 0.84376,-0.21105 0.97757,1.2902 0.28883,0.66 0.10697,1.117 -1.1483,1.1782 -0.0649,1.1782 -1.2855,-0.024 0.23801,0.86814 -0.52692,-0.0327 0.10913,1.247 -0.96244,-0.0733 0.49485,0.6303 -0.50346,0.49299 -1.7918,-2.758 -0.7089,-0.6925 -1.6674,0.61491 -0.0483,-0.55921 -0.45747,-0.17127 0.40919,-0.38793 0.47137,-0.82301 -0.98305,-1.6032 -0.92888,-0.19484 -1.2926,-2.819 2.1708,-2.1921 -0.57866,-2.2599" inkscape:connector-curvature="0" style="stroke:#ffffff">
      <title id="title3562">Plymouth, MA</title>
    </path>
    <path id="c25021" transform="translate(0,-0.10698)" d="m 939.74,156.82 0.021,0.38363 -0.409,0.90988 -0.222,-0.11155 -0.289,-0.14518 0.238,-0.42786 0.269,-0.48316 z m 2.4709,1.1749 -0.43164,-0.67383 0,-0.002 -0.58399,0.0859 -0.0703,0.89062 -0.70161,0.20344 -0.3355,0.98797 -1.2402,-0.84375 -0.8125,-0.63281 -0.0469,-0.0312 -0.41016,-0.0391 -0.28124,0.0391 -0.89258,0.60351 0.21093,0.32813 0.39258,0.51367 0.22461,0.48437 -0.45877,0.25694 0.0642,0.98916 -0.82617,0.73828 -1.1113,0.82031 0.49023,3.2051 1.918,-0.55887 0.18945,0.77567 4.291,-3.791 2.1699,-2.1934 -0.57812,-2.2598 -0.51953,-0.13281 z m 2.7188,-0.67187 -0.25,0.49414 0.43359,0.91992 0.64063,-0.71875 0.0723,-0.56641 z" inkscape:connector-curvature="0" style="stroke:#ffffff">
      <title id="title3565">Norfolk, MA</title>
    </path>
    <path id="c25009" d="m 941.4,143.75 0.11946,0.481 0.61865,1.478 0.96275,1.849 0.99663,0.442 0.71671,-0.0229 0.57555,-1.0743 0.22985,0.10289 0.22614,0.59815 0.42435,-0.14104 0.0963,0.54502 -0.40818,0.35288 -0.19546,1.1496 -0.22719,0.12664 -0.27433,-0.2391 -0.24307,0.37008 -1.7043,0.88681 -0.19732,0.36014 -0.71024,0.28513 0.25072,0.42241 0.5524,0.14568 0.11062,0.50477 -0.25521,0.0856 -0.39435,0.35508 -0.13426,0.44893 -0.4381,0.006 -0.12551,0.24107 0.21808,0.55585 0.48195,0.11827 0.0433,0.101 -0.56679,0.13501 -0.10221,-0.0735 -0.29129,-0.66367 -0.20204,0.34418 -0.15356,0.49107 -0.81299,-0.322 -0.66679,-0.848 -0.0619,-0.88222 -0.60493,0.0342 -0.11786,-0.85427 0.67083,-0.18954 -0.7887,-0.66473 -1.6274,0.59954 -1.9054,-0.7876 0.26693,-0.3124 -0.63827,-1.535 0.10698,-0.242 0.9469,-0.0475 -0.39716,-1.0555 0.35774,-0.71899 0.21751,-0.227 1.3523,-0.073 0.22913,-1.276 1.5493,-1.15 0.007,0 0.13193,-0.06 0.11232,-0.06 0.48851,-0.03 0.59191,0.30101 0.59191,-0.37101" inkscape:connector-curvature="0" style="stroke:#ffffff">
      <title id="title3568">Essex, MA</title>
    </path>
    <path id="c25013" d="m 922.18,163.79 -0.42432,1.086 -0.007,0.175 0.0784,0.29 1.1731,0.248 1.0768,-0.289 0.73989,2.949 -6.1794,1.464 -3.9788,0.93278 -0.049,0.89993 -0.82688,0.25166 -0.22757,-0.87968 -3.1779,0.74731 -0.73989,0.168 -0.62757,-1.132 -0.0802,-0.209 -0.19255,-1.022 0.62757,-0.04 -0.0499,-2.547 -0.32092,-1.382 0.59548,-0.901 0.96988,-0.16 0.2193,0.137 0.44928,1.494 -0.34628,0.75066 0.69888,0.355 0.12536,-0.55516 1.012,-0.24176 0.51046,0.76126 1.6492,-0.02 -0.26577,-0.64904 0.55813,-0.50575 0.21783,-1.1685 0.26939,-0.21152 0.14401,0.61239 -0.23212,0.57657 0.68134,0.32581 2.997,-1.239 0.35707,0.95095 0.57201,-0.19536 0.33917,-0.84015 1.6646,-0.98344" inkscape:connector-curvature="0" style="stroke:#ffffff">
      <title id="title3571">Hampden, MA</title>
    </path>
    <path id="c25015" d="m 920.09,161.99 0.47833,-0.15322 0.34215,0.92105 1.0079,-0.2894 0.2665,1.3296 -1.6646,0.98344 -0.33917,0.84015 -0.57201,0.19536 -0.35707,-0.95095 -2.997,1.239 -0.68134,-0.32581 0.23212,-0.57657 -0.14401,-0.61239 -0.26939,0.21152 -0.21783,1.1685 -0.55813,0.50575 0.26577,0.64904 -1.6492,0.02 -0.51046,-0.76126 -1.012,0.24176 -0.12536,0.55516 -0.69888,-0.355 0.34628,-0.75066 -0.44928,-1.494 -0.2193,-0.137 -0.96988,0.161 -0.59548,0.9 -0.0553,0.192 -0.36192,0.02 -0.69888,-0.321 -0.37797,-1.141 0,-0.201 0.93957,-0.02 -0.0713,-2.049 -0.11232,-1.4325 -0.21838,-0.41878 1.6709,-0.0637 0.33944,1.2376 0.73048,-0.0279 1.26,0.0629 0.18579,0.3201 0.74561,-0.46667 0.35117,1.0814 2.53,-1.2184 0.83352,-0.26309 0.16753,0.57774 1.8016,-0.784 0.98817,2.4977 0.44348,-1.1034" inkscape:connector-curvature="0" style="stroke:#ffffff">
      <title id="title3574">Hampshire, MA</title>
    </path>
    <path id="c25003" d="m 902.27,156.84 3.9847,-0.861 0.20346,0.96776 1.0701,-0.10621 -0.44844,0.82447 0.77439,0.2004 0.1843,2.2733 0.21838,0.41878 0.11232,1.4325 0.0713,2.049 -0.93957,0.02 0,0.201 0.37797,1.141 0.69888,0.321 0.36192,-0.02 0.0553,-0.192 0.32092,1.382 0.0499,2.547 -0.62757,0.04 0.19255,1.022 0.0802,0.209 0.62757,1.132 -7.2242,1.528 -0.16046,0.04 -0.3851,-0.779 0.25317,-10.141 0.14798,-5.648" inkscape:connector-curvature="0" style="stroke:#ffffff">
      <title id="title3577">Berkshire, MA</title>
    </path>
    <path id="c25011" d="m 915.55,153.99 2.8936,-0.618 0.4603,1.2645 0.70693,0.0637 0.32397,1.0386 -0.37234,0.13335 -0.26788,0.41188 0.36862,1.3734 0.53554,0.39781 -0.50892,0.78078 0.32667,0.984 -0.23037,0.984 0.29774,1.182 -0.44348,1.1034 -0.98817,-2.4977 -1.8016,0.784 -0.16753,-0.57774 -0.83352,0.26309 -2.53,1.2184 -0.35117,-1.0814 -0.74561,0.46667 -0.18579,-0.3201 -1.26,-0.0629 -0.73048,0.0279 -0.33944,-1.2376 -1.6709,0.0637 -0.1843,-2.2733 -0.77439,-0.2004 0.44844,-0.82447 -1.0701,0.10621 -0.20346,-0.96776 1.5279,-0.321 7.7698,-1.664" inkscape:connector-curvature="0" style="stroke:#ffffff">
      <title id="title3580">Franklin, MA</title>
    </path>
    <path id="c25007" d="m 956.26,174.17 0.21573,0.522 0.23177,0.965 -0.016,0.137 -4.2115,1.1838 -0.58442,0.56721 -0.23818,0.62581 -1.0628,-0.31784 -0.25373,-0.48179 1.0555,-0.25118 0.65075,-2.041 0.17829,-0.298 0.49742,-0.611 0.624,-0.681 0.0981,0 0.0891,0.1955 0.63015,-0.11154 0.45076,0.85295 0.84302,0.32467 0.47592,0.20556 z m -4.1383,-1.1594 -0.72745,0.89939 -0.66451,1.1249 -0.74329,0.24289 -0.40652,0.55782 -0.53132,0.34779 -0.73977,0.32005 -0.19698,-0.0109 0.18741,-0.39674 0.70483,-0.1876 0.39561,-0.56769 1.4035,-1.2495 0.14164,-0.45952 0.55104,-0.68289 0.62579,0.06" inkscape:connector-curvature="0" style="stroke:#ffffff">
      <title id="title3583">Dukes, MA</title>
    </path>
    </g>
  </svg>
