<svg xmlns:dc="http://purl.org/dc/elements/1.1/" xmlns:cc="http://creativecommons.org/ns#" xmlns:rdf="http://www.w3.org/1999/02/22-rdf-syntax-ns#" xmlns:svg="http://www.w3.org/2000/svg" xmlns="http://www.w3.org/2000/svg" xmlns:sodipodi="http://sodipodi.sourceforge.net/DTD/sodipodi-0.dtd" xmlns:inkscape="http://www.inkscape.org/namespaces/inkscape" width="155.60672" height="54.06146000000001" version="1.0" id="svg2" inkscape:version="0.91 r13725" sodipodi:docname="USA counties.svg">
  <defs id="defs9439"/>
  <sodipodi:namedview pagecolor="#ffffff" bordercolor="#666666" borderopacity="1" objecttolerance="10" gridtolerance="10" guidetolerance="10" inkscape:pageopacity="0" inkscape:pageshadow="2" inkscape:window-width="798" inkscape:window-height="828" id="namedview9437" showgrid="false" showguides="true" inkscape:zoom="0.64950808" inkscape:cx="494.98999" inkscape:cy="313.535" inkscape:window-x="-7" inkscape:window-y="0" inkscape:window-maximized="0" inkscape:current-layer="svg2"/>
  <metadata id="metadata4">
    <rdf:RDF>
      <cc:Work>
        <dc:format>image/svg+xml</dc:format>
        <dc:type rdf:resource="http://purl.org/dc/dcmitype/StillImage"/>
        <dc:title/>
        <cc:license rdf:resource="http://creativecommons.org/publicdomain/zero/1.0/"/>
        <dc:date>2019-10-06</dc:date>
        <dc:creator>
          <cc:Agent>
            <dc:title>U.S. Census Bureau, Abe.suleiman, Lokal_Profil</dc:title>
          </cc:Agent>
        </dc:creator>
        <dc:source>https://commons.wikimedia.org/wiki/File:Usa_counties_large.svg</dc:source>
      </cc:Work>
      <cc:License rdf:about="http://creativecommons.org/publicdomain/zero/1.0/">
        <cc:permits rdf:resource="http://creativecommons.org/ns#Reproduction"/>
        <cc:permits rdf:resource="http://creativecommons.org/ns#Distribution"/>
        <cc:permits rdf:resource="http://creativecommons.org/ns#DerivativeWorks"/>
      </cc:License>
    </rdf:RDF>
  </metadata>
  <style id="style6">
  /*
   * Below are Cascading Style Sheet (CSS) definitions in use in this file,
   * which allow easily changing how counties are displayed.
   *
   *
   * For the U.S. Census county codes (FIPS codes) used in this file to identify individual counties, see this link:
   * https://www2.census.gov/geo/docs/reference/codes/files/national_county.txt
   *
   * The county codes used in this file combine the 2-digit state code, which is in the second column of the file
   * linked above, and the 3-digit county code, which is in the third column of the file linked above. Each value
   * for the "id" attribute for each county is in the following form: "c[state_code][county-code]". For example,
   * for Loving Country in Texas, the state code is "48" and the county code is "301", so the id name for the
   * county is "c48301".
   *
   * County codes used in this file can also be found on Wikimedia Commons at this link:
   * https://commons.wikimedia.org/wiki/File_talk:Usa_counties_large.svg/county_codes
   *
   * Examples:
   *
   * To color two counties red (in this case Loving County and Dallas County in Texas) simply
   * go to the CSS insertion point and add:
   *
   * #c48301, #c48113 {fill:red}
   *
   * To color an entire state's counties (in the case New Mexico, with "35" being the state code) a green,
   * go to the CSS insertion point and add:
   *
   * path[id*='c35'] {fill:#34A853}
   *
   */
  #counties {fill:#d0d0d0;stroke:#000;stroke-width:.17829;} 
  #borders {fill:none;stroke:#221e1f;stroke-width:.89143;} 
  #separator {fill:none;stroke:#a9a9a9;stroke-width:2.3177309;}
 </style>
  <g id="counties" transform="translate(-629.69308,-324.638)" style="fill:#d0d0d0;stroke:#ffffff;stroke-width:0.17828999">
    <path id="c47163" d="m 782.03,325.08 -0.70884,0.875 -0.69418,0.21535 -0.19578,0.66977 -0.88474,1.0949 -1.56,1.53 -0.50285,-0.0558 -1.27,1.4982 -1.2219,-0.30377 -0.81347,0.72937 -0.8433,0.11 -0.28882,-0.08 -0.90927,-0.662 -0.63292,-0.128 -1.0947,0.346 -2.2571,0.444 -1.0127,0.159 -0.37636,-0.56038 1.1708,-1.1751 -0.0224,-2.1695 5.7141,-0.852 0.91461,-0.137 1.7686,-0.241 3.8474,-0.555 0.12837,-0.538 1.7454,-0.209" inkscape:connector-curvature="0" style="stroke:#ffffff">
      <title id="title7300">Sullivan, TN</title>
    </path>
    <path id="c47091" d="m 782.03,325.08 3.2698,-0.442 -0.47424,0.63 -0.0874,4.713 0.0695,1.095 -0.38332,0.129 -0.0339,0 -0.28704,0.01 -0.48138,-0.154 -0.1141,-0.263 -0.0963,0.06 -0.0232,0.02 -0.9164,0.627 -0.84508,0.947 -0.1355,0.369 -0.19255,0.555 -0.3227,0.123 -0.61152,-0.523 -1.2534,-1.305 -0.27991,-0.553 1.4227,-2.403 0,-0.07 -0.7078,-0.706 0.88474,-1.0949 0.19578,-0.66977 0.69418,-0.21535 0.70884,-0.875" inkscape:connector-curvature="0" style="stroke:#ffffff">
      <title id="title7303">Johnson, TN</title>
    </path>
    <path id="c47109" d="m 665.36,367.25 0.3851,8.919 -7.5754,0.603 -0.35479,-5.832 1.2583,-0.30378 0.13945,-0.38822 0.20859,-0.884 0.0847,-0.15275 0.86578,0.006 2.4e-4,-0.31108 -0.45363,-0.0472 -0.0852,-0.47122 0.85813,-0.70233 0.73464,-0.38977 1.1554,-0.14945 2.7787,0.10422" inkscape:connector-curvature="0" style="stroke:#ffffff">
      <title id="title7306">McNairy, TN</title>
    </path>
    <path id="c47023" d="m 660.33,362.84 0.91834,-0.23012 1.2193,1.6506 1.7757,0.54695 0.99329,-0.3257 0.0908,1.8913 0.0321,0.878 -2.7787,-0.10422 -1.1554,0.14945 -0.73464,0.38977 -0.85813,0.70233 0.0852,0.47122 0.45363,0.0472 -2.4e-4,0.31108 -0.86578,-0.006 -0.0847,0.15275 -0.20859,0.884 -0.13945,0.38822 -1.2583,0.30378 -0.38688,-1.72 -0.97345,-1.352 -0.0695,-1.002 0.65676,-0.0729 2.3598,-1.7484 0.94517,-1.7484 -0.0162,-0.4574" inkscape:connector-curvature="0" style="stroke:#ffffff">
      <title id="title7309">Chester, TN</title>
    </path>
    <path id="c47069" d="m 651.97,367.12 4.4108,-0.248 0.0695,1.002 0.97345,1.352 0.38688,1.72 0.35479,5.832 -0.68284,0.06 -3.6264,0.282 -3.3732,0.247 -0.40114,-9.312 -0.0247,-0.82926 1.9127,-0.10274" inkscape:connector-curvature="0" style="stroke:#ffffff">
      <title id="title7312">Hardeman, TN</title>
    </path>
    <path id="c47047" d="m 644.68,368.29 5.4003,-0.238 0.40114,9.311 -2.8847,0.204 -5.4484,0.353 -0.11232,-3.095 -0.18542,-3.004 -0.0802,-2.702 1.009,-0.76128 1.9007,-0.0677" inkscape:connector-curvature="0" style="stroke:#ffffff">
      <title id="title7315">Fayette, TN</title>
    </path>
    <path id="c47075" d="m 646.2,358.57 0.007,0.08 0.4584,0.25233 0.20146,0.209 0.46176,0.335 0.7916,0.371 0.38688,0 1.7916,0.70567 1.4067,0.537 0.26565,6.051 -1.9127,0.10324 0.0247,0.82976 -5.4003,0.238 -0.14139,-3.3856 -0.5206,-0.88088 0.14441,-0.07 0.41967,-0.46221 -0.11083,-1.8511 0.36391,-0.16915 0.16575,-1.0261 -0.007,-0.169 -0.23356,0 -0.016,-0.314 0.1034,-0.401 0.49921,-1.061 0.85043,0.06" inkscape:connector-curvature="0" style="stroke:#ffffff">
      <title id="title7318">Haywood, TN</title>
    </path>
    <path id="c47113" d="m 660.09,358.19 0.23356,4.654 0.0162,0.4574 -0.94517,1.7484 -2.3598,1.7484 -0.65676,0.0729 -4.4108,0.248 -0.26565,-6.051 1.0948,0.26489 1.7085,-2.485 -0.14142,-0.39891 3.8688,-0.153 1.8578,-0.106" inkscape:connector-curvature="0" style="stroke:#ffffff">
      <title id="title7321">Madison, TN</title>
    </path>
    <path id="c47033" d="m 648.99,354.14 1.0305,0.659 0.19077,1.243 0.18542,0.46 0.35657,0.6071 2.8841,0.49145 0.73157,0.84645 0.14142,0.39891 -1.7085,2.485 -1.0948,-0.26489 -1.4067,-0.537 -1.7916,-0.70567 -0.38688,0 -0.7916,-0.371 -0.46176,-0.335 -0.20146,-0.209 -0.4584,-0.25233 -0.007,-0.08 0.14441,-1.486 1.2059,-0.23048 0.17666,-0.735 1.2664,-1.3404 -0.005,-0.6341" inkscape:connector-curvature="0" style="stroke:#ffffff">
      <title id="title7324">Crockett, TN</title>
    </path>
    <path id="c47053" d="m 649.28,349.36 3.5678,-0.32393 -0.0164,-0.35907 0.69656,0.4413 1.162,0.86261 0.77171,0.61723 1.2101,0.43286 1.3496,0.981 0.21573,6.292 -3.8688,0.153 -0.73157,-0.84645 -2.8841,-0.49145 -0.35657,-0.6071 -0.18542,-0.46 -0.19077,-1.243 -1.0305,-0.659 -0.0888,-0.59007 0.59736,-0.0856 -0.10897,-2.8907 -0.10898,-1.2157" inkscape:connector-curvature="0" style="stroke:#ffffff">
      <title id="title7327">Gibson, TN</title>
    </path>
    <path id="c47017" d="m 660.85,349.74 5.8964,-0.47615 0.005,0.70215 0.5158,6.2804 0.63771,0.002 0.0339,0.675 -7.2224,0.394 -0.27456,0.259 -0.24069,0.312 -0.10519,0.297 -1.8578,0.106 -0.21573,-6.292 0.84973,-0.17198 -0.15003,-1.2075 2.1352,-0.2434 -0.007,-0.63616" inkscape:connector-curvature="0" style="stroke:#ffffff">
      <title id="title7330">Carroll, TN</title>
    </path>
    <path id="c47183" d="m 654.97,342.02 5.4895,-0.396 0.38332,8.125 0.007,0.63616 -2.1352,0.2434 0.15003,1.2075 -0.84973,0.17198 -1.3496,-0.981 -1.2101,-0.43286 -0.77171,-0.61723 -1.162,-0.86261 -0.69656,-0.4413 -0.1462,-4.314 0.0588,-0.07 0.34409,0.02 0.26387,0.07 0.25851,0.249 0.27991,0.03 1.2462,-0.506 -0.0642,-1.382 -0.29596,-0.731 0.19968,-0.02" inkscape:connector-curvature="0" style="stroke:#ffffff">
      <title id="title7333">Weakley, TN</title>
    </path>
    <path id="c47131" d="m 654.64,342.04 0.13728,0 0.29596,0.731 0.0642,1.382 -1.2462,0.506 -0.27991,-0.03 -0.25851,-0.249 -0.26387,-0.06 -0.34409,-0.02 -0.0588,0.07 0.1462,4.314 0.0164,0.35907 -3.5678,0.32393 -6.0421,0.241 1.0429,-1.0286 0.35,-2.3078 0.6165,-1.5616 0.0302,-1.988 9.3618,-0.675" inkscape:connector-curvature="0" style="stroke:#ffffff">
      <title id="title7336">Obion, TN</title>
    </path>
    <path id="c47095" d="m 645.28,342.71 -0.0302,1.988 -0.6165,1.5616 -0.35,2.3078 -1.0429,1.0286 0.0584,0.4055 -2.7131,0.4055 -0.70839,-1.3334 1.5491,0.10591 1.0591,-0.64787 -0.37303,-0.77035 -1.0891,-0.80804 0.87453,-0.14623 0.80635,-0.26951 0.003,-1.2674 -0.69118,-0.94016 -0.26479,-1.26 0.98949,-0.05 -0.0571,0.70638 0.47192,0.3608 0.63408,-0.33026 0.19546,-0.86002 1.2944,-0.184" inkscape:connector-curvature="0" style="stroke:#ffffff">
      <title id="title7339">Lake, TN</title>
    </path>
    <path id="c47045" d="m 643.24,349.6 6.0421,-0.241 0.10898,1.2157 0.10897,2.8907 -0.59736,0.0855 0.0888,0.59007 0.005,0.6341 -1.2664,1.3404 -0.17666,0.735 -1.2059,0.23048 -0.22999,-0.409 -0.15333,-0.194 -0.91639,-0.827 -1.5422,0.08 -1.9927,0.4781 -0.69881,1.0182 0.22507,-1.039 -0.45765,-0.43906 -0.89211,-0.45974 -0.0852,-0.56319 0.68122,-1.0357 0.14333,-1.2012 1.1969,-0.66454 0.14183,-0.83005 -1.1822,-0.58179 2.7131,-0.4055 -0.0584,-0.4055" inkscape:connector-curvature="0" style="stroke:#ffffff">
      <title id="title7342">Dyer, TN</title>
    </path>
    <path id="c47097" d="m 641.04,356.19 2.4669,-0.45687 1.5422,-0.08 0.91639,0.827 0.15333,0.194 0.22999,0.409 -0.14441,1.486 -0.85043,-0.06 -0.49921,1.061 -0.1034,0.401 0.016,0.314 0.23356,0 0.007,0.169 -0.16575,1.0261 -0.36391,0.16915 0.11083,1.8511 -0.41967,0.46221 -0.14441,0.07 -0.9622,-0.37554 -1.4869,-0.795 -2.5531,0.256 -0.55448,0.2 -0.43502,0.323 -0.95561,0.882 -0.3548,0.426 -0.28791,0.23887 -0.56238,-0.76956 1.4651,-0.91437 0.28585,-0.72818 -0.54169,-0.7075 -0.93477,0.45107 -0.58307,-1.142 0.69962,-0.62474 0.63755,0.0994 1.1194,-0.33327 0.4987,-0.58153 0.20906,-0.56085 1.2435,-0.18845 0.11767,-0.9926 -1.2014,-0.49515 0.21496,-0.66415 0.33517,-0.06 1.377,0.24826 z" inkscape:connector-curvature="0" style="stroke:#ffffff">
      <title id="title7345">Lauderdale, TN</title>
    </path>
    <path id="c47167" transform="translate(0,-0.10698)" d="m 641.57,362.96 -2.5527,0.25586 -0.55469,0.20117 -0.43555,0.32227 -0.95507,0.88086 -0.35352,0.42773 -0.28906,0.23242 0.25974,1.045 -1.3141,-0.25856 -0.31257,-0.56062 -0.71,0.0594 -0.12156,1.0781 0.57793,0.64889 -0.26013,1.9058 5.7537,-0.65625 0.12696,0.0195 0.98047,0.41016 0.36328,0.25586 1.0082,-0.76084 1.9,-0.0673 -0.14106,-3.3853 -0.52028,-0.88063 0,-0.002 -0.96171,-0.37662 z m -7.3103,6.2695 -0.77367,-0.59179 -0.35938,-0.98829 -0.51367,0.50391 -0.8418,0.28711 0.082,0.95508 0.33007,-0.0879 -0.002,-0.53125 0.58398,-0.2461 1.0469,0.89844 0.33594,-0.18555 z" inkscape:connector-curvature="0" style="stroke:#ffffff">
      <title id="title7348">Tipton, TN</title>
    </path>
    <path id="c47157" d="m 633.81,369.32 0.33666,-0.18554 6.1545,-0.701 0.12658,0.02 0.98058,0.41 0.36192,0.256 0.0802,2.702 0.18542,3.004 0.11232,3.095 -1.494,0.11 -10.929,0.669 -0.0321,-0.321 0.22464,-0.717 1.7422,-0.16275 0.58569,-1.8158 0.35021,-0.41971 1.0568,0.37181 0.59016,-0.46514 0.0595,-0.8249 -0.70142,-0.32742 0.54284,-0.86711 -0.15059,-0.62718 -0.53298,-0.566 -0.86517,0.0254 -0.26865,-0.41812 0.97029,-0.58638 0.14434,-0.75462 -0.1004,-0.41812 0.46921,-0.48046" inkscape:connector-curvature="0" style="stroke:#ffffff">
      <title id="title7351">Shelby, TN</title>
    </path>
    <path id="c47077" d="m 667.94,356.93 0.18541,4.809 -0.8219,1.934 0.10697,2.435 0.11946,-0.01 -2.2018,0.281 -0.0908,-1.8913 -0.99329,0.3257 -1.7757,-0.54695 -1.2193,-1.6506 -0.91834,0.23012 -0.23356,-4.654 0.10519,-0.297 0.24069,-0.312 0.27456,-0.259 7.2224,-0.394" inkscape:connector-curvature="0" style="stroke:#ffffff">
      <title id="title7354">Henderson, TN</title>
    </path>
    <path id="c47079" d="m 660.96,341.59 7.9783,-0.554 -0.11571,1.159 1.5402,1.886 -1.897,0.169 -0.025,0.03 -0.0731,0.763 0.041,0.362 0.40293,1.294 -1.4406,2.492 -0.624,0.779 -0.005,-0.70215 -5.8964,0.47615 -0.38332,-8.125 0.49742,-0.03" inkscape:connector-curvature="0" style="stroke:#ffffff">
      <title id="title7357">Henry, TN</title>
    </path>
    <path id="c47005" d="m 670.36,344.08 0.1765,0.153 0.74088,1.2904 0.0543,1.2096 0.7702,1.792 0.0752,0.91877 -1.2213,2.1199 0.0188,0.93513 -0.41971,0.34408 0.34291,0.82074 1.2772,-0.0372 0.22772,0.0989 -0.0191,0.63266 -0.12123,0.972 -0.0856,0.258 -0.29952,0.45 -0.0981,0.595 -0.97033,0.0845 -0.1814,-0.8 -0.81494,0.21604 -1.9146,0.12041 -0.63771,-0.002 -0.5158,-6.2804 0.624,-0.779 1.4406,-2.492 -0.40293,-1.294 -0.041,-0.362 0.0731,-0.763 0.025,-0.03 1.897,-0.169" inkscape:connector-curvature="0" style="stroke:#ffffff">
      <title id="title7360">Benton, TN</title>
    </path>
    <path id="c47039" d="m 667.9,356.25 1.9146,-0.12041 0.81494,-0.21604 0.1814,0.8 0.97033,-0.0845 -0.083,1.1542 -0.84132,0.96091 0.4227,1.0078 -0.26677,1.3647 1.3194,2.047 -0.0869,0.6635 -0.43171,0.51574 -0.56305,0.49932 0.27425,0.64708 0.33845,0.24268 0.62455,0.0949 0.0579,0.18675 -0.26373,0.27864 -0.67723,0.18675 -0.71394,-0.75555 -1.0615,0.90104 -0.73749,-0.18506 -0.52308,0.25908 -0.42296,-0.51051 -0.62205,-0.097 -0.11946,0.01 -0.10697,-2.435 0.8219,-1.934 -0.18541,-4.809 -0.0339,-0.675" inkscape:connector-curvature="0" style="stroke:#ffffff">
      <title id="title7363">Decatur, TN</title>
    </path>
    <path id="c47071" d="m 665.32,366.38 2.2018,-0.281 0.62205,0.097 0.42296,0.51051 0.52308,-0.25908 0.73749,0.18506 1.0615,-0.90104 0.71394,0.75555 0.0339,0.393 0.3981,0.26868 -0.0932,1.2513 0.65255,0.0924 0.50453,6.8346 -3.9954,0.578 -3.0523,0.251 -0.31379,0.02 -0.3851,-8.919 -0.0321,-0.878" inkscape:connector-curvature="0" style="stroke:#ffffff">
      <title id="title7366">Hardin, TN</title>
    </path>
    <path id="c47099" d="m 685.04,364.08 1.6563,0.114 -0.0392,0.617 -0.009,0.594 0.56161,6.163 0.10697,2.655 -7.1457,0.553 -0.24069,-9.163 0.75594,-0.07 1.5511,-0.642 -0.0749,-0.859 2.2749,-0.178 0.60261,0.217" inkscape:connector-curvature="0" style="stroke:#ffffff">
      <title id="title7369">Lawrence, TN</title>
    </path>
    <path id="c47181" d="m 677.13,363.9 1.347,0.0149 0.0552,0.84361 0.76205,-0.0339 0.64018,0.89236 0.24069,9.163 -7.0709,0.547 -0.50453,-6.8346 -0.65255,-0.0924 0.0932,-1.2513 -0.3981,-0.26868 -0.0339,-0.393 0.67721,-0.18675 0.26372,-0.27864 -0.0579,-0.18675 -0.62455,-0.0949 0.48219,-0.72079 2.013,-0.53143 1.2057,-0.53143 0.996,-0.2169 0.56614,0.16055" inkscape:connector-curvature="0" style="stroke:#ffffff">
      <title id="title7372">Wayne, TN</title>
    </path>
    <path id="c47101" d="m 683.77,359.21 -0.17115,0.977 0.0178,0.474 0.0642,0.289 0.27991,0.25 0.44928,0.08 0.50812,0.41 0.46355,0.932 -0.0624,0.834 -0.0553,0.273 -0.2193,0.346 -0.60261,-0.217 -2.2749,0.178 0.0749,0.859 -1.5511,0.642 -0.75594,0.07 -0.64018,-0.89236 -0.76205,0.0339 -0.0552,-0.84361 -1.347,-0.0149 0.21127,-0.75125 0.27639,-0.0241 -0.034,-1.0533 0.44352,-0.0115 0.23587,-0.58726 -0.28796,-0.5776 0.71493,-0.475 -0.004,-0.28935 0.51371,-0.43732 0.34461,-0.0462 0.39745,0.58792 0.93615,-0.15837 0.88951,0.32937 0.75415,-0.392 1.248,-0.795" inkscape:connector-curvature="0" style="stroke:#ffffff">
      <title id="title7375">Lewis, TN</title>
    </path>
    <path id="c47135" d="m 676.42,355.69 0.0145,0.87408 -0.0752,1.5617 0.448,0.27619 0.0145,0.26123 -0.47876,0.0968 -0.0154,0.93387 0.82168,0.41072 0.82169,0.7844 0.28796,0.5776 -0.23587,0.58726 -0.44352,0.0115 0.034,1.0533 -0.27639,0.0241 -0.21127,0.75125 -0.56614,-0.16055 -0.996,0.2169 -1.2057,0.53143 -2.013,0.53143 -0.48219,0.72079 -0.33845,-0.24268 -0.27425,-0.64708 0.56305,-0.49932 0.43171,-0.51574 0.0869,-0.6635 -1.3194,-2.047 0.26677,-1.3647 -0.4227,-1.0078 0.84132,-0.96091 0.083,-1.1542 0.0981,-0.595 2.2268,0.281 0.4582,-0.385 0.32805,-0.06 1.5279,-0.176" inkscape:connector-curvature="0" style="stroke:#ffffff">
      <title id="title7378">Perry, TN</title>
    </path>
    <path id="c47081" d="m 685.62,352.07 0.0303,2.525 -0.0747,2.949 -1.8026,1.672 -1.248,0.795 -0.75415,0.392 -0.88951,-0.32937 -0.93615,0.15837 -0.39745,-0.58792 -0.34461,0.0463 -0.51371,0.43732 0.004,0.28935 -0.71493,0.475 -0.82169,-0.7844 -0.82168,-0.41072 0.0154,-0.93388 0.47876,-0.0968 -0.0145,-0.26124 -0.448,-0.27618 0.0752,-1.5617 -0.0145,-0.87408 0.12859,-1.5781 0.16146,-0.21924 0.50123,-0.15349 0.7094,-0.44938 0.40256,-0.41649 0.70941,-0.022 0.54502,-0.56992 -0.1125,-0.44937 6.1473,0.233" inkscape:connector-curvature="0" style="stroke:#ffffff">
      <title id="title7381">Hickman, TN</title>
    </path>
    <path id="c47085" d="m 678.5,347.62 0.97166,4.21 0.1125,0.44937 -0.54502,0.56992 -0.70941,0.022 -0.40256,0.41649 -0.7094,0.44938 -0.50119,0.15349 -0.16147,0.21924 -0.12859,1.5781 -1.5279,0.176 -0.32805,0.06 -0.4582,0.385 -2.2268,-0.281 0.29952,-0.45 0.0856,-0.258 0.12123,-0.972 0.0191,-0.63266 -0.22773,-0.0989 -1.2772,0.0372 -0.34292,-0.82073 0.41972,-0.34409 -0.0188,-0.93513 1.2213,-2.1199 -0.0752,-0.91877 -0.7702,-1.792 2.1198,0.07 0.65253,-0.346 0.74881,0 3.2448,0.738 0.39402,0.419" inkscape:connector-curvature="0" style="stroke:#ffffff">
      <title id="title7384">Humphreys, TN</title>
    </path>
    <path id="c47083" d="m 677.63,343.29 0.14053,0.61191 1.3713,0.0141 0.0263,1.9761 -0.67703,1.7299 -0.39402,-0.419 -3.2448,-0.738 -0.74881,0 -0.65253,0.346 -2.1198,-0.07 -0.0543,-1.2096 -0.74088,-1.2904 1.9915,0.339 0.36192,0.02 0.54021,-0.03 0.35835,-0.06 0.3958,-0.123 0.49742,-0.248 0.32805,-0.232 0.25138,-0.226 2.3694,-0.378" inkscape:connector-curvature="0" style="stroke:#ffffff">
      <title id="title7387">Houston, TN</title>
    </path>
    <path id="c47161" d="m 675.23,337.24 0.96454,-0.111 1.437,6.162 -2.3694,0.378 -0.25138,0.226 -0.32805,0.232 -0.49742,0.248 -0.3958,0.123 -0.35835,0.06 -0.54021,0.03 -0.36192,-0.02 -1.9915,-0.339 -0.1765,-0.153 -1.5402,-1.886 0.11571,-1.159 0.46397,-0.85576 -1.1236,-3.2982 1.0715,-0.06 2.9881,0.06 -0.007,0.708 2.9007,-0.339" inkscape:connector-curvature="0" style="stroke:#ffffff">
      <title id="title7390">Stewart, TN</title>
    </path>
    <path id="c47125" d="m 685.78,336.16 0.30666,4.323 -2.7563,3.359 -4.1862,0.08 -1.3713,-0.0141 -0.14053,-0.61191 -1.437,-6.162 5.5608,-0.579 4.0239,-0.394" inkscape:connector-curvature="0" style="stroke:#ffffff">
      <title id="title7393">Montgomery, TN</title>
    </path>
    <path id="c47147" d="m 692.18,335.39 3.6656,0 -0.20471,1.221 -0.35424,0.62424 -0.42163,0.89376 -0.0173,0.79269 -0.489,0.72531 -0.40828,0.902 -1.0608,0.442 -0.47579,1.0308 -0.7136,0.15094 -0.95139,-0.58624 -0.71359,0.1985 -0.5787,-0.0935 -0.56311,0.48329 -0.59429,-0.67024 -0.5787,-0.0935 -1.6289,-0.93509 -0.30666,-4.323 0.98771,-0.114 5.4074,-0.649" inkscape:connector-curvature="0" style="stroke:#ffffff">
      <title id="title7396">Robertson, TN</title>
    </path>
    <path id="c47021" d="m 686.09,340.48 1.6289,0.93509 0.5787,0.0935 0.59429,0.67024 0.56311,-0.48329 0.5787,0.0935 0.1558,1.4113 -0.85828,1.4113 -0.15135,3.1313 -0.68043,0.68429 -0.30567,1.3897 -2.3676,0.12 0.14263,-3.286 -0.25673,-0.861 -0.37084,-0.271 0.49921,-0.772 0.0321,-0.619 -0.0571,-0.13 -0.42433,-0.159 -0.95027,-0.121 -1.1072,0.121 2.7563,-3.359 2e-5,0 z m -0.13728,3.783 -0.0892,0.113 0.23178,-0.104 -0.0535,-0.05 -0.0321,0.06 -0.0571,-0.02" inkscape:connector-curvature="0" style="stroke:#ffffff">
      <title id="title7399">Cheatham, TN</title>
    </path>
    <path id="c47043" d="m 679.15,343.92 4.1862,-0.08 1.1072,-0.121 0.95027,0.121 0.42433,0.159 0.0571,0.13 -0.0321,0.619 -0.49921,0.772 0.37084,0.271 0.25673,0.861 -0.14263,3.286 -0.21038,2.13 -6.1473,-0.233 -0.97166,-4.21 0.67703,-1.7299 -0.0263,-1.9761" inkscape:connector-curvature="0" style="stroke:#ffffff">
      <title id="title7402">Dickson, TN</title>
    </path>
    <path id="c47117" d="m 693.96,357.15 1.7579,-0.248 0.9164,0.472 -0.0161,4.518 0.0571,0.82 0.18364,0.466 0.90213,1.51 0.27813,0.03 0.0642,-0.03 -0.003,0.72483 -1.2823,0.52088 -1.0969,1.4294 -1.6346,0.0759 -0.34704,-1.1232 -1.2,-0.0478 -0.56954,-1.9946 -0.68079,-0.14046 0.12084,-1.0054 1.115,-1.0984 0.68539,-1.2936 0.43332,-3.2904 0.31614,-0.30226" inkscape:connector-curvature="0" style="stroke:#ffffff">
      <title id="title7405">Marshall, TN</title>
    </path>
    <path id="c47187" d="m 685.83,349.94 2.3676,-0.12 0.36906,1.277 0.24247,-0.03 1.6706,-1.63 2.6458,0.136 3.2448,1.26 0.0757,1.2767 0.20125,0.38183 0.13846,0.71152 0.10705,1.6064 -0.80354,0.0678 0.0286,0.61733 -0.66224,0.25623 0.26405,1.1511 -1.7579,0.248 -8.3117,-2.553 -0.0303,-2.525 0.21038,-2.13" inkscape:connector-curvature="0" style="stroke:#ffffff">
      <title id="title7408">Williamson, TN</title>
    </path>
    <path id="c47055" d="m 686.7,364.19 1.2307,-0.68617 1.3146,0.21572 0.89514,0.42545 1.1468,-0.015 0.68079,0.14046 0.56954,1.9946 1.2,0.0478 0.34704,1.1232 0.45998,6.274 -6.9924,0.49 -0.23177,0.02 -0.10697,-2.655 -0.56161,-6.163 0.009,-0.594 0.0392,-0.617" inkscape:connector-curvature="0" style="stroke:#ffffff">
      <title id="title7411">Giles, TN</title>
    </path>
    <path id="c47119" d="m 685.65,354.59 8.3117,2.553 -0.31614,0.30226 -0.43332,3.2904 -0.68539,1.2936 -1.115,1.0984 -0.12084,1.0054 -1.1468,0.015 -0.89514,-0.42545 -1.3146,-0.21572 -1.2307,0.68617 -1.6563,-0.114 0.2193,-0.346 0.0553,-0.273 0.0624,-0.834 -0.46355,-0.932 -0.50812,-0.41 -0.44928,-0.08 -0.27991,-0.25 -0.0642,-0.289 -0.0178,-0.474 0.17115,-0.977 1.8026,-1.672 0.0747,-2.949" inkscape:connector-curvature="0" style="stroke:#ffffff">
      <title id="title7414">Maury, TN</title>
    </path>
    <path id="c47103" d="m 703.88,369.63 0.30844,3.134 -8.6665,0.854 -0.97701,0.09 -0.45998,-6.274 1.6346,-0.0759 1.0969,-1.4294 1.2823,-0.52088 0.003,-0.72483 0.37357,-0.19833 0.87993,0.23013 0.21856,0.86889 1.5373,0.51029 0.43834,0.55657 0.19545,0.545 0.43834,-0.12594 0.5656,1.3316 0.29953,1.1003 z" inkscape:connector-curvature="0" style="stroke:#ffffff">
      <title id="title7417">Lincoln, TN</title>
    </path>
    <path id="c47127" d="m 704.33,362.95 0.11232,1.828 -0.50983,2.1638 -0.0518,2.6872 -0.83166,-0.12817 -0.29953,-1.0999 -0.5656,-1.3312 -0.43835,0.12632 -0.19545,-0.54462 -0.43836,-0.55618 -1.5373,-0.50991 -0.21856,-0.86851 0.45743,-0.2732 0.42834,0.0387 0.50624,0.66189 0.81773,0.10658 0.20426,-0.57507 2.5601,-1.7257" inkscape:connector-curvature="0" style="stroke:#ffffff">
      <title id="title7420">Moore, TN</title>
    </path>
    <path id="c47003" d="m 704.04,357.88 0.49244,3.6238 -0.20361,1.4522 -2.5601,1.7257 -0.20426,0.57507 -0.81773,-0.10658 -0.50624,-0.66189 -0.42834,-0.0387 -0.45743,0.2732 -0.87993,-0.23013 -0.37357,0.19833 -0.0642,0.03 -0.27813,-0.03 -0.90213,-1.51 -0.18364,-0.466 -0.0571,-0.82 0.0161,-4.518 0.0232,-0.376 0.26743,-0.05 1.462,-0.03 1.236,0.7403 2.0681,0.41527 0.482,-0.75482 0.79402,0.11625 1.0751,0.442" inkscape:connector-curvature="0" style="stroke:#ffffff">
      <title id="title7423">Bedford, TN</title>
    </path>
    <path id="c47149" d="m 697.97,347.58 0.80229,0.539 2.9417,1.775 0.30488,0.12 1.2213,0.298 1.7258,-0.04 -0.39045,5.875 -0.66486,0.43862 0.13178,1.2884 -1.0751,-0.442 -0.79402,-0.11625 -0.482,0.75482 -2.0681,-0.41527 -1.236,-0.7403 -1.462,0.03 -0.26743,0.05 -0.0232,0.376 -0.9164,-0.472 -0.26405,-1.1511 0.66224,-0.25623 -0.0286,-0.61733 0.80354,-0.0678 -0.10705,-1.6064 -0.13846,-0.71152 -0.20125,-0.38183 -0.0757,-1.2767 1.601,-3.245" inkscape:connector-curvature="0" style="stroke:#ffffff">
      <title id="title7426">Rutherford, TN</title>
    </path>
    <path id="c47037" d="m 690.03,341.79 0.71359,-0.1985 0.95139,0.58624 0.7136,-0.15094 0.47579,-1.0308 0.82502,0.851 0.11795,0.70959 1.426,0.81564 0.20039,0.84975 0.73069,0.17802 1.7793,3.184 -1.601,3.245 -3.2448,-1.26 -2.6458,-0.136 -1.6706,1.63 -0.24247,0.03 -0.36906,-1.277 0.30567,-1.3897 0.68043,-0.68429 0.15135,-3.1313 0.85828,-1.4113 -0.1558,-1.4113" inkscape:connector-curvature="0" style="stroke:#ffffff">
      <title id="title7429">Davidson, TN</title>
    </path>
    <path id="c47165" d="m 698.59,334.72 3.7922,-0.135 -0.0357,2.5832 0.2932,0.29625 -0.3289,0.66951 0.086,0.85035 -0.60468,0.0754 0.20391,1.7937 -0.352,0.61451 -0.22642,0.838 -0.83295,0.0342 0.009,-0.77436 -0.35196,-0.20107 -0.30142,0.59065 -0.0656,0.69172 -0.47038,-0.10224 -0.38321,-0.65422 -1.3615,1.0609 -0.14914,0.4439 -0.38447,-0.77489 -0.33885,0.13494 0.13083,0.71141 -0.73345,0.92508 -0.73069,-0.17802 -0.20039,-0.84975 -1.426,-0.81564 -0.11795,-0.70959 -0.82502,-0.851 1.0608,-0.442 0.40828,-0.902 0.489,-0.72531 0.0173,-0.79269 0.42162,-0.89376 0.35424,-0.62424 0.20471,-1.221 2.7492,-0.676" inkscape:connector-curvature="0" style="stroke:#ffffff">
      <title id="title7432">Sumner, TN</title>
    </path>
    <path id="c47189" d="m 704.45,342.38 1.913,4.686 1.1321,2.797 -2.5317,0.417 -1.7258,0.04 -1.2213,-0.298 -0.30488,-0.12 -2.9417,-1.775 -0.80229,-0.539 -1.7793,-3.184 0.73345,-0.92508 -0.13083,-0.71141 0.33885,-0.13494 0.38447,0.77489 0.14914,-0.4439 1.3615,-1.0609 0.38321,0.65422 0.47038,0.10224 0.0656,-0.69172 0.30142,-0.59065 0.35196,0.20107 -0.009,0.77436 0.83295,-0.0342 0.22642,-0.838 0.35033,0.11363 0.0621,0.74251 0.44204,0.0874 0.10143,-0.94764 0.52066,-0.0829 0.42894,0.49358 0.25862,-0.16151 0.63858,0.6639" inkscape:connector-curvature="0" style="stroke:#ffffff">
      <title id="title7435">Wilson, TN</title>
    </path>
    <path id="c47015" d="m 707.49,349.86 2.4892,1.9323 0.18693,0.60674 -1.3893,2.0858 -0.008,2.2452 -1.143,0.2671 -1.0368,-0.10467 -2.0206,-0.74043 0.39045,-5.875 2.5317,-0.417" inkscape:connector-curvature="0" style="stroke:#ffffff">
      <title id="title7438">Cannon, TN</title>
    </path>
    <path id="c47031" d="m 708.77,356.73 0.98012,1.7501 1.3519,1.1659 -0.0588,0.04 -0.0392,0.122 0.0642,1.711 0.21751,1.155 0.29596,0.266 -0.12837,0.745 -0.35122,1.241 -0.10519,0.209 -2.4087,-1.02 -2.2767,-0.21 -1.6884,0.593 -0.17651,0.186 -0.009,0.1 -0.11232,-1.828 0.20361,-1.4522 -0.49244,-3.6238 -0.13178,-1.2884 0.66486,-0.43862 2.0206,0.74043 1.0368,0.10467 1.143,-0.2671" inkscape:connector-curvature="0" style="stroke:#ffffff">
      <title id="title7441">Coffee, TN</title>
    </path>
    <path id="c47051" d="m 704.44,364.78 0.009,-0.1 0.17651,-0.186 1.6884,-0.593 2.2767,0.21 2.4087,1.02 0.91639,1.422 0.74702,5.392 -8.3349,0.811 -0.14085,0 -0.30844,-3.134 0.0518,-2.6872 0.50983,-2.1638" inkscape:connector-curvature="0" style="stroke:#ffffff">
      <title id="title7444">Franklin, TN</title>
    </path>
    <path id="c47115" d="m 711.92,366.56 0.84403,-0.61062 0.80925,0.45547 0.85788,0.0504 0.77879,-0.66159 -0.42161,-1.0852 2.7228,-0.98637 0.21751,0.323 1.5903,0.642 0.47603,0.119 0.75594,0.756 0.27991,0.403 0.27991,1.164 0.016,0.193 -0.15084,0.82629 0.7691,0.43099 -0.41748,1.044 -0.4629,0.0434 -0.0717,0.5692 -0.82323,1.024 -2.4746,0.257 -4.828,0.435 -0.74702,-5.392" inkscape:connector-curvature="0" style="stroke:#ffffff">
      <title id="title7447">Marion, TN</title>
    </path>
    <path id="c47153" d="m 719.36,357.73 -0.0681,0.86638 0.44563,0.18918 0.072,0.37599 3.7616,3.0614 -2.4514,5.094 -0.016,-0.193 -0.27991,-1.164 -0.27991,-0.403 -0.75594,-0.756 -0.47603,-0.119 -1.5903,-0.642 -0.21751,-0.323 0.17974,-0.61372 0.74872,-0.52389 0.17974,-0.98805 -0.43417,-0.0447 -0.0299,-0.31426 -0.62883,-0.23938 -0.0299,-1.2576 -1.4224,-0.80838 0.91461,-0.127 2.3784,-1.07" inkscape:connector-curvature="0" style="stroke:#ffffff">
      <title id="title7450">Sequatchie, TN</title>
    </path>
    <path id="c47061" d="m 716.07,358.93 1.4224,0.80838 0.0299,1.2576 0.62883,0.23938 0.0299,0.31426 0.43417,0.0447 -0.17974,0.98805 -0.74872,0.52389 -0.17974,0.61372 -2.7228,0.98637 0.42161,1.0852 -0.77879,0.66159 -0.85788,-0.0504 -0.80925,-0.45547 -0.84403,0.61062 -0.91639,-1.422 0.10519,-0.209 0.35122,-1.241 0.12837,-0.745 -0.29596,-0.266 -0.21751,-1.155 -0.0642,-1.711 0.0392,-0.122 0.0588,-0.04 0.83438,0.122 0.29061,0 1.1482,-0.378 0.9253,-0.2 1.7668,-0.267" inkscape:connector-curvature="0" style="stroke:#ffffff">
      <title id="title7453">Grundy, TN</title>
    </path>
    <path id="c47175" d="m 721.62,352.23 -0.0392,0.121 0.40115,0.442 0,0.03 -0.1334,0.98577 -2.4874,3.9222 -2.3784,1.07 -1.1268,-2.836 -0.37443,-3.103 1.4455,-0.27792 1.0893,-0.63414 1.9114,0.44824 1.3359,-0.64785 0.35639,0.47767" inkscape:connector-curvature="0" style="stroke:#ffffff">
      <title id="title7456">Van Buren, TN</title>
    </path>
    <path id="c47177" d="m 714.32,352.29 1.1683,0.57268 0.37443,3.103 1.1268,2.836 -0.91461,0.127 -1.7668,0.267 -0.9253,0.2 -1.1482,0.378 -0.29061,0 -0.83438,-0.122 -1.3519,-1.1659 -0.98012,-1.7501 0.008,-2.2452 1.3893,-2.0858 1.695,-0.55593 2.4496,0.44825" inkscape:connector-curvature="0" style="stroke:#ffffff">
      <title id="title7459">Warren, TN</title>
    </path>
    <path id="c47185" d="m 721.24,347.93 0.64754,1.4023 0.46889,0.37507 -0.18613,1.8935 -0.54341,0.62814 -0.35639,-0.47767 -1.3359,0.64785 -1.9114,-0.44824 -1.0893,0.63414 -1.4455,0.27792 -1.1683,-0.57268 0.26443,-0.66353 -0.48984,-2.4648 0.32072,-0.89994 -0.25343,-0.38209 0.007,-0.135 0.0802,-0.17 0.32983,-0.344 0.98236,-0.866 0.26387,-0.13 0.68284,-0.168 2.5638,0.401 0.90748,0.344 0.2817,0.22 0.0874,0.68719 0.89134,0.21081" inkscape:connector-curvature="0" style="stroke:#ffffff">
      <title id="title7462">White, TN</title>
    </path>
    <path id="c47041" d="m 710.88,345.52 0.81967,0.59 -0.0488,0.47553 0.4236,0.35307 0.4761,-0.45171 0.91347,0.33558 0.13737,0.67747 0.55725,0.38006 0.25343,0.38209 -0.32072,0.89994 0.48984,2.4648 -0.26443,0.66353 -2.4496,-0.44825 -1.695,0.55593 -0.18693,-0.60674 -2.4892,-1.9323 -1.1321,-2.797 4.516,-1.542" inkscape:connector-curvature="0" style="stroke:#ffffff">
      <title id="title7465">DeKalb, TN</title>
    </path>
    <path id="c47141" d="m 711.12,343.02 2.6761,0.191 1.1589,-0.353 0.56874,-0.275 0.12123,-0.175 0.52952,-0.909 0,-0.531 0.69805,-0.0527 0.85304,1.4197 1.849,0.29439 0.0139,0.41844 2.3001,0.76717 1.5672,0 0.36905,0.102 -0.85934,1.005 -1.535,0.03 -0.18364,0.136 -0.0107,2.836 -0.89134,-0.21081 -0.0874,-0.68719 -0.2817,-0.22 -0.90748,-0.344 -2.5638,-0.401 -0.68284,0.168 -0.26387,0.13 -0.98236,0.866 -0.32983,0.344 -0.0802,0.17 -0.007,0.135 -0.55725,-0.38006 -0.13737,-0.67747 -0.91347,-0.33558 -0.47609,0.45171 -0.42361,-0.35307 0.0488,-0.47553 -0.81968,-0.59 0.24069,-2.498" inkscape:connector-curvature="0" style="stroke:#ffffff">
      <title id="title7468">Putnam, TN</title>
    </path>
    <path id="c47169" d="m 707.21,339.07 -0.0522,0.68528 -1.3119,0.52975 -0.7987,1.1363 -0.59651,0.94967 -0.63858,-0.6639 -0.25862,0.16151 -0.42894,-0.49358 -0.52066,0.0829 -0.1014,0.94763 -0.44204,-0.0874 -0.0621,-0.74252 -0.35033,-0.11362 0.352,-0.61451 -0.20391,-1.7937 0.60468,-0.0754 -0.086,-0.85035 0.91275,0.08 0.3684,0.8265 0.39951,0.12664 3.2145,-0.0911" inkscape:connector-curvature="0" style="stroke:#ffffff">
      <title id="title7471">Trousdale, TN</title>
    </path>
    <path id="c47111" d="m 706.57,334.41 3.4392,-0.21 -0.16045,2.87 -0.0374,2.038 -2.6036,-0.03 -3.2145,0.0911 -0.39951,-0.12664 -0.3684,-0.8265 -0.91275,-0.08 0.32888,-0.66951 -0.29323,-0.29625 0.0357,-2.5832 4.1862,-0.177" inkscape:connector-curvature="0" style="stroke:#ffffff">
      <title id="title7474">Macon, TN</title>
    </path>
    <path id="c47159" d="m 707.21,339.07 2.6036,0.03 0.25268,3.2409 1.0542,0.67613 -0.24069,2.498 -4.516,1.542 -1.913,-4.686 0.59651,-0.94967 0.7987,-1.1363 1.3119,-0.52975 0.0522,-0.68528" inkscape:connector-curvature="0" style="stroke:#ffffff">
      <title id="title7477">Smith, TN</title>
    </path>
    <path id="c47087" d="m 709.85,337.07 0.8112,-0.508 2.3552,0.371 1.2373,0.303 0.93245,0.684 0.72384,0.724 0.26387,2.329 0,0.531 -0.52952,0.909 -0.12123,0.175 -0.56874,0.275 -1.1589,0.353 -2.6761,-0.191 -1.0542,-0.67613 -0.25268,-3.2409 0.0374,-2.038" inkscape:connector-curvature="0" style="stroke:#ffffff">
      <title id="title7480">Jackson, TN</title>
    </path>
    <path id="c47133" d="m 719.41,335.27 0.88446,0.23482 1.947,1.1603 0.28462,0.90321 0.21606,0.21768 0.23534,2.36 0.31379,0.821 0.70601,1.592 -0.54555,1.262 -1.5672,0 -2.3001,-0.76717 -0.0139,-0.41844 -1.849,-0.29439 -0.85304,-1.4197 -0.69805,0.0527 -0.26387,-2.329 1.0722,-2.3169 0.87584,0.0892 0.008,-0.38544 1.5469,-0.76191" inkscape:connector-curvature="0" style="stroke:#ffffff">
      <title id="title7483">Overton, TN</title>
    </path>
    <path id="c47027" d="m 719.32,333.06 0.0891,2.209 -1.5469,0.76191 -0.008,0.38544 -0.87584,-0.0892 -1.0722,2.3169 -0.72384,-0.724 -0.93245,-0.684 -1.2373,-0.303 -2.3552,-0.371 -0.8112,0.508 0.16045,-2.87 6.4201,-0.617 2.5406,-0.46 0.35301,-0.06" inkscape:connector-curvature="0" style="stroke:#ffffff">
      <title id="title7486">Clay, TN</title>
    </path>
    <path id="c47137" d="m 724.96,332.7 3.3589,-0.154 1.1892,1.698 -0.9158,0.22232 -0.53876,-0.5489 -0.41879,-0.24042 -0.62445,-0.189 -0.78981,-0.122 -0.71315,0.03 -1.1268,0.353 -0.68997,0.683 0.0656,0.46247 -0.48281,0.22253 -0.19433,0.449 0.10484,2.1338 -0.44359,0.0772 -0.21606,-0.21768 -0.28462,-0.90321 -1.947,-1.1603 -0.88446,-0.23482 -0.0891,-2.209 5.641,-0.354" inkscape:connector-curvature="0" style="stroke:#ffffff">
      <title id="title7489">Pickett, TN</title>
    </path>
    <path id="c47007" d="m 721.98,352.82 2.2161,-0.346 0.86825,0.09 0.88206,-0.34515 0.22291,0.55483 2.0382,-0.58868 -1.9522,3.408 -1.0697,1.374 -0.49742,1.92 0.5699,0.2624 -0.29712,0.4936 -0.20316,0.27427 -0.40546,-0.10145 -0.78202,2.3982 -3.7616,-3.0614 -0.072,-0.37599 -0.44563,-0.18918 0.0681,-0.86638 2.4874,-3.9222 0.1334,-0.98577" inkscape:connector-curvature="0" style="stroke:#ffffff">
      <title id="title7492">Bledsoe, TN</title>
    </path>
    <path id="c47049" d="m 729.51,334.25 1.6581,2.7292 -0.66865,0.74177 -1.7231,2.1867 -1.0884,-0.0347 -0.0999,1.2705 -0.54544,0.77748 0.26743,1.182 -2.2206,10e-4 -0.57541,0.70299 -0.69311,0.11453 -0.36905,-0.102 0.54555,-1.262 -0.70601,-1.592 -0.31379,-0.821 -0.23534,-2.36 0.44359,-0.0772 -0.10484,-2.1338 0.19433,-0.449 0.48281,-0.22253 -0.0656,-0.46247 0.68997,-0.683 1.1268,-0.353 0.71315,-0.03 0.78981,0.122 0.62445,0.189 0.41879,0.24042 0.53876,0.5489 0.9158,-0.22232" inkscape:connector-curvature="0" style="stroke:#ffffff">
      <title id="title7495">Fentress, TN</title>
    </path>
    <path id="c47035" d="m 723.82,343.92 0.69311,-0.11453 0.57541,-0.70299 2.2206,-0.001 1.207,1.3015 1.1187,0.33054 1.5895,1.5663 0.91277,2.0076 -1.6313,2.14 -2.2981,1.75 -2.0382,0.58868 -0.22291,-0.55483 -0.88206,0.34515 -0.86825,-0.09 -2.2161,0.346 0,-0.03 -0.40115,-0.442 0.0392,-0.121 0.54341,-0.62814 0.18613,-1.8935 -0.46889,-0.37507 -0.64754,-1.4023 0.0107,-2.836 0.18364,-0.136 1.535,-0.03 0.85934,-1.005" inkscape:connector-curvature="0" style="stroke:#ffffff">
      <title id="title7498">Cumberland, TN</title>
    </path>
    <path id="c47143" d="m 731.78,351.98 0.23177,0.36 0.0571,0.137 -0.0731,0.901 -0.38648,0.43544 -0.15312,-0.41564 -0.24921,-0.0313 -0.16684,0.4629 0.0116,1.1767 0.14216,0.35471 -0.0226,0.39589 -0.51674,0.31353 0.43042,0.54689 -0.15984,0.32725 -1.3129,-0.0297 -0.0775,0.51944 0.45787,0.40961 -0.15312,0.42172 -0.60611,0.46289 0.1203,0.49102 -0.32061,0.41015 -0.63633,-0.0428 -0.33605,-0.56399 -0.32232,0.0812 0.10351,0.70454 -0.52793,0.70454 -0.99446,-0.56424 -0.60156,0.2361 -0.16501,-0.47693 -0.58701,-0.0549 0.29712,-0.4936 -0.5699,-0.2624 0.49742,-1.92 1.0697,-1.374 1.9522,-3.408 2.2981,-1.75 0.31735,0.38375 0.66696,0.28386 -0.20705,0.84573 0.49215,0.0217" inkscape:connector-curvature="0" style="stroke:#ffffff">
      <title id="title7501">Rhea, TN</title>
    </path>
    <path id="c47121" d="m 733.99,354.24 -2.0378,3.5932 -1.5957,3.7038 -1.4299,1.623 -0.47613,-0.51548 -0.0317,-0.39808 -0.20635,-0.55814 -0.62834,-0.64546 -0.23544,0.21309 -0.25786,-0.0789 0.22235,-0.661 0.52793,-0.70454 -0.10351,-0.70454 0.32232,-0.0812 0.33605,0.56399 0.63633,0.0428 0.32061,-0.41015 -0.1203,-0.49102 0.60611,-0.46289 0.15312,-0.42172 -0.45787,-0.40961 0.0775,-0.51944 1.3129,0.0297 0.15984,-0.32725 -0.43042,-0.54689 0.51674,-0.31353 0.0226,-0.39589 -0.14216,-0.35471 -0.0116,-1.1767 0.16684,-0.4629 0.24921,0.0313 0.15312,0.41564 0.38648,-0.43544 0.0731,-0.901 -0.0571,-0.137 -0.23177,-0.36 0.62448,0.56425 0.48089,0.56425 0.76808,-0.61523 0.3373,1.7437" inkscape:connector-curvature="0" style="stroke:#ffffff">
      <title id="title7504">Meigs, TN</title>
    </path>
    <path id="c47065" d="m 727.31,360.51 -0.22235,0.661 0.25786,0.0789 0.23544,-0.21309 0.62834,0.64546 0.20635,0.55814 0.0317,0.39808 0.47613,0.51548 -0.75593,2.096 -0.11232,0.419 -0.16581,1.348 0.66323,1.817 0.78175,0.40145 -0.16845,0.87655 -0.057,0 -5.2969,0.665 -1.831,0.25 -2.0182,0.217 0.82323,-1.024 0.0717,-0.5692 0.4629,-0.0434 0.41748,-1.044 -0.7691,-0.43099 0.15084,-0.82629 2.4514,-5.094 0.78202,-2.3982 0.40546,0.10145 0.20316,-0.27427 0.58701,0.0549 0.16501,0.47693 0.60156,-0.2361 0.99446,0.56424" inkscape:connector-curvature="0" style="stroke:#ffffff">
      <title id="title7507">Hamilton, TN</title>
    </path>
    <path id="c47011" d="m 730.36,361.53 2.5992,1.2627 -0.22944,0.49127 0.51753,-0.023 0.30936,0.43004 0.19703,1.6144 -0.64231,1.9292 0.22701,0.10058 -0.43248,2.3338 -0.64005,0.08 -3.0933,0.362 0.16845,-0.87655 -0.78175,-0.40145 -0.66323,-1.817 0.16581,-1.348 0.11232,-0.419 0.75593,-2.096 1.4299,-1.623" inkscape:connector-curvature="0" style="stroke:#ffffff">
      <title id="title7510">Bradley, TN</title>
    </path>
    <path id="c47139" d="m 737.28,362.21 3.9883,1.352 0.0695,5.079 -5.5679,0.685 -2.8704,0.351 0.43248,-2.3338 -0.22701,-0.10058 0.64231,-1.9292 -0.19703,-1.6144 0.50812,-0.442 0.87717,-0.346 2.0164,-0.209 0.32805,-0.492" inkscape:connector-curvature="0" style="stroke:#ffffff">
      <title id="title7513">Polk, TN</title>
    </path>
    <path id="c47123" d="m 742.04,354.04 0.15333,0.253 1.9362,1.1 0.90926,-0.169 1.938,1.037 0.0214,0.02 -0.0214,0.09 -0.31557,0.506 -0.75415,4.122 -0.43502,0.594 -0.70424,0.579 -1.9808,0.05 -1.5154,1.334 -3.9883,-1.352 1.4459,-1.219 -0.16759,-1.567 -1.9023,-3.327 -0.77376,-1.229 -0.025,-0.249 -0.0784,-0.121 0.61865,-0.804 0.5313,-0.305 0.41541,-0.191 0.55881,0.12988 0.18465,0.54765 0.5413,-0.21485 0.34453,-0.49771 0.35683,-0.055 2.6048,0.763 0.10162,0.166 z" inkscape:connector-curvature="0" style="stroke:#ffffff">
      <title id="title7516">Monroe, TN</title>
    </path>
    <path id="c47107" d="m 734.64,354.17 1.141,0.328 0.0784,0.121 0.025,0.249 0.77376,1.229 1.9023,3.327 0.16759,1.567 -1.4459,1.219 -0.32805,0.492 -2.0164,0.209 -0.87717,0.346 -0.50812,0.442 -0.30936,-0.43004 -0.51753,0.023 0.22944,-0.49127 -2.5992,-1.2627 1.5957,-3.7038 2.0378,-3.5932 0.65075,-0.07" inkscape:connector-curvature="0" style="stroke:#ffffff">
      <title id="title7519">McMinn, TN</title>
    </path>
    <path id="c47145" d="m 735.39,353.47 -0.74524,0.701 -0.65075,0.07 -0.3373,-1.7437 -0.76807,0.61523 -0.4809,-0.56425 -0.62448,-0.56425 -0.49215,-0.0217 0.20705,-0.84573 -0.66696,-0.28386 -0.31735,-0.38375 1.6313,-2.14 2.669,-1.863 1.4192,-0.444 0.61152,-0.544 1.125,-1.133 1.6795,3.03 0.19433,0.287 -0.34588,-0.103 0.0812,0.56814 -0.396,-0.088 -0.47553,-0.008 -0.15742,1.3237 -0.51227,0.23093 0.005,1.1853 -1.1087,0.46951 -1.228,1.2449 -0.31557,1.004 z" inkscape:connector-curvature="0" style="stroke:#ffffff">
      <title id="title7522">Roane, TN</title>
    </path>
    <path id="c47129" d="m 735.83,341.91 -0.10025,0.65913 0.50578,0.20812 0.21453,0.46075 0.38365,0.01 0.44004,0.16478 0.15815,0.30572 0.53397,0.60275 -1.125,1.133 -0.61152,0.544 -1.4192,0.444 -2.669,1.863 -0.91277,-2.0076 -1.5895,-1.5663 -1.1187,-0.33054 -1.207,-1.3015 -0.26743,-1.182 0.54544,-0.77748 0.0999,-1.2705 1.0884,0.0347 1.7231,-2.1867 1.9202,2.112 0.85934,0.644 1.8792,0.704 0.66858,0.733" inkscape:connector-curvature="0" style="stroke:#ffffff">
      <title id="title7525">Morgan, TN</title>
    </path>
    <path id="c47151" d="m 728.46,332.54 9.435,-0.884 0.4056,0.77668 -0.025,1.179 -1.1534,0.32812 -0.35799,1.1235 0.25241,0.93852 0.60386,0.62408 -0.3025,0.14314 0.40039,2.3443 -0.80193,0.38361 0.0158,1.039 -0.57909,0.99656 -0.52272,0.37644 -0.66858,-0.733 -1.8792,-0.704 -0.85934,-0.644 -1.9202,-2.112 0.66865,-0.74177 -1.6581,-2.7292 -1.1892,-1.698 0.1355,0" inkscape:connector-curvature="0" style="stroke:#ffffff">
      <title id="title7528">Scott, TN</title>
    </path>
    <path id="c47013" d="m 742.88,331.09 1.9915,3.703 0.0314,0.24243 0.22499,0.34567 -0.38155,0.24243 -0.31702,-0.17053 -0.44928,2.3 -0.20146,0.392 -0.27278,0.323 -0.39708,-0.625 -0.78609,1.7268 -0.39708,-0.0238 -2.4129,0.15303 0.01,1.3024 -1.1751,-0.60732 -0.43244,0.25913 -0.9806,-0.11221 -0.0158,-1.039 0.80193,-0.38361 -0.40039,-2.3443 0.3025,-0.14314 -0.60386,-0.62408 -0.25241,-0.93852 0.35799,-1.1235 1.1534,-0.32812 0.025,-1.179 -0.4056,-0.77668 0.62757,-0.07 4.3556,-0.5" inkscape:connector-curvature="0" style="stroke:#ffffff">
      <title id="title7531">Campbell, TN</title>
    </path>
    <path id="c47001" d="m 743.5,338.46 1.3888,1.783 -0.0481,0 -0.32092,0.297 -1.8176,2.9256 0.5848,0.69505 -1.4351,1.2674 -0.83733,0.1427 -1.05,1.5662 -0.3227,0.21 -1.6795,-3.03 -0.53397,-0.60275 -0.15815,-0.30572 -0.44004,-0.16478 -0.38365,-0.01 -0.21453,-0.46075 -0.50578,-0.20812 0.10025,-0.65913 0.52272,-0.37644 0.57909,-0.99656 0.9806,0.11221 0.43244,-0.25913 1.1751,0.60732 -0.01,-1.3024 2.4129,-0.15303 0.39708,0.0238 0.78609,-1.7268 0.39708,0.625" inkscape:connector-curvature="0" style="stroke:#ffffff">
      <title id="title7534">Anderson, TN</title>
    </path>
    <path id="c47105" d="m 739.84,347.64 2.0485,1.881 0.34518,1.2649 -0.26941,0.99606 1.0942,1.2073 -1.0184,1.0537 -0.10162,-0.166 -2.6048,-0.763 -0.35683,0.055 -0.34453,0.49771 -0.5413,0.21485 -0.18465,-0.54765 -0.55881,-0.12988 -0.41541,0.191 -0.5313,0.305 -0.61865,0.804 -1.141,-0.328 0.74524,-0.701 0.31557,-1.004 1.228,-1.2449 1.1087,-0.46951 -0.005,-1.1853 0.51227,-0.23093 0.15742,-1.3237 0.47553,0.008 0.396,0.088 -0.0812,-0.56814 0.34588,0.103" inkscape:connector-curvature="0" style="stroke:#ffffff">
      <title id="title7537">Loudon, TN</title>
    </path>
    <path id="c47009" d="m 748.48,346.77 1.5671,2.71 0.78624,1.18 0.64184,0.305 0.36192,2.787 -5.0206,3.18 -0.15333,-0.05 0.31557,-0.506 0.0214,-0.09 -0.0214,-0.02 -1.938,-1.037 -0.90926,0.169 -1.9362,-1.1 -0.15333,-0.253 1.0184,-1.0537 -1.0942,-1.2073 0.26941,-0.99606 -0.34518,-1.2649 0.28169,-0.909 1.9849,-0.14614 0.60205,-1.1449 0.97879,0.07 1.1589,0.579 0.74579,0 0.8374,-1.198" inkscape:connector-curvature="0" style="stroke:#ffffff">
      <title id="title7540">Blount, TN</title>
    </path>
    <path id="c47155" d="m 757.32,345.41 1.5725,4.009 0.0802,0.437 -0.66679,0.977 -3.1896,2.525 -0.22643,0.146 -2.6262,0.271 -0.42607,0 -0.36192,-2.787 -0.64184,-0.305 -0.78624,-1.18 -1.5671,-2.71 0.65446,-0.87921 0.68486,-0.0282 1.0192,-1.4567 -0.5917,-1.3959 1.021,0.36 2.1026,1.1597 0.1951,0.47172 0.77362,0.23719 0.92997,-0.37259 2.0503,0.537" inkscape:connector-curvature="0" style="stroke:#ffffff">
      <title id="title7543">Sevier, TN</title>
    </path>
    <path id="c47093" d="m 748.78,340.25 1.437,1.768 -0.41567,-0.11229 -0.23063,0.20638 0.55062,0.61757 0.11888,0.27834 0.5917,1.3959 -1.0192,1.4567 -0.68486,0.0282 -0.65446,0.87921 -0.8374,1.198 -0.74579,0 -1.1589,-0.579 -0.97879,-0.07 -0.60205,1.1449 -1.9849,0.14614 -0.28169,0.909 -2.0485,-1.881 -0.19433,-0.287 0.3227,-0.21 1.05,-1.5662 0.83733,-0.1427 1.4351,-1.2674 -0.5848,-0.69505 1.8176,-2.9256 0.32092,-0.297 0.0481,0 0.39726,0.35467 3.4948,-0.35467" inkscape:connector-curvature="0" style="stroke:#ffffff">
      <title id="title7546">Knox, TN</title>
    </path>
    <path id="c47173" d="m 744.87,334.79 0.51346,-0.231 1.4688,-0.0265 1.2408,1.0537 0.0411,0.53879 0.54674,0.21731 0.20884,-0.56242 0.54438,0.18609 -0.0986,3.3182 -0.55032,0.97378 -3.4948,0.35467 -0.39726,-0.35467 -1.3888,-1.783 0.27278,-0.323 0.20146,-0.392 0.44928,-2.3 0.31702,0.17053 0.38155,-0.24243 -0.22499,-0.34567 -0.0314,-0.24243" inkscape:connector-curvature="0" style="stroke:#ffffff">
      <title id="title7549">Union, TN</title>
    </path>
    <path id="c47025" d="m 748.52,330.1 3.703,-0.41 1.0687,0.73004 0.86521,1.1371 0.60354,1.6459 -0.41408,0.51198 -0.89009,0.33676 -0.068,0.7985 -1.4501,0.59943 -0.42524,-0.0538 -0.673,0.0251 -0.63922,0.88098 -0.76621,-0.33896 -0.54438,-0.18609 -0.20884,0.56242 -0.54674,-0.21731 -0.0411,-0.53879 -1.2408,-1.0537 -1.4688,0.0265 -0.51346,0.231 -1.9915,-3.703 1.0358,-0.103 4.6052,-0.884" inkscape:connector-curvature="0" style="stroke:#ffffff">
      <title id="title7552">Claiborne, TN</title>
    </path>
    <path id="c47067" d="m 763.89,328.19 -2.0164,1.469 -0.47425,-0.06 -0.45121,-0.22816 -0.30919,0.28422 -0.57872,0.472 -2.2406,2.5157 0.0446,0.55464 -1.5353,0.68162 -1.9826,-0.161 0.41408,-0.51198 -0.60354,-1.6459 -0.86521,-1.1371 -1.0687,-0.73004 8.8626,-1.118 2.8044,-0.385" inkscape:connector-curvature="0" style="stroke:#ffffff">
      <title id="title7555">Hancock, TN</title>
    </path>
    <path id="c47057" d="m 754.34,333.71 1.9826,0.161 0.78803,2.362 -0.30567,0.7875 -0.94211,-0.45942 -1.5006,1.7876 -0.76027,1.0343 -1.6418,0.23302 -1.7439,2.402 -1.437,-1.768 0.55032,-0.97378 0.0986,-3.3182 0.76621,0.33896 0.63922,-0.88098 0.673,-0.0251 0.42524,0.0538 1.4501,-0.59943 0.068,-0.7985 0.89009,-0.33676" inkscape:connector-curvature="0" style="stroke:#ffffff">
      <title id="title7558">Grainger, TN</title>
    </path>
    <path id="c47063" d="m 760.42,336.89 -1.3354,1.613 -0.95562,2.371 -0.80258,-0.86896 -1.7009,-0.14061 -1.6645,0.0658 -0.35342,-0.5412 0.76027,-1.0343 1.5006,-1.7876 0.94211,0.45942 0.30567,-0.7875 0.82591,0.16275 0.71433,-1.3358 1.352,1.3424 0.41143,0.48158" inkscape:connector-curvature="0" style="stroke:#ffffff">
      <title id="title7561">Hamblen, TN</title>
    </path>
    <path id="c47089" d="m 758.13,340.87 -0.81121,4.533 -2.0503,-0.537 -0.92997,0.37259 -0.77362,-0.23719 -0.1951,-0.47172 -2.1026,-1.1597 -1.021,-0.36 -0.11888,-0.27834 -0.55062,-0.61757 0.23063,-0.20638 0.41567,0.11229 1.7439,-2.402 1.6418,-0.23302 0.35342,0.5412 1.6645,-0.0658 1.7009,0.14061 0.80258,0.86896" inkscape:connector-curvature="0" style="stroke:#ffffff">
      <title id="title7564">Jefferson, TN</title>
    </path>
    <path id="c47029" d="m 759.08,338.5 -0.0481,0.548 0.13015,0.146 0.72028,0.531 1.5992,0.858 2.0414,1.592 1.1874,1.069 -0.71136,3.625 -5.1133,2.544 -1.5725,-4.009 0.81121,-4.533 0.95562,-2.371" inkscape:connector-curvature="0" style="stroke:#ffffff">
      <title id="title7567">Cocke, TN</title>
    </path>
    <path id="c47171" d="m 773.92,334.74 1.2958,0.0813 0.42463,0.70361 0.75592,1.0961 -3.2787,2.442 -1.3086,2.395 -0.49475,0.11705 -0.64185,0.6687 -1.0464,-0.65527 0.20401,-1.2805 -0.0392,-1.318 1.0519,-1.383 0.71493,-0.257 0.42611,-0.05 0.79516,-0.514 0.57765,-0.859 0.56339,-1.189" inkscape:connector-curvature="0" style="stroke:#ffffff">
      <title id="title7570">Unicoi, TN</title>
    </path>
    <path id="c47073" d="m 767.91,327.62 0.0224,2.1695 -1.1708,1.1751 0.37636,0.56038 -0.32983,0.547 -1.9202,1.333 -0.88252,0.259 -0.33875,0.184 -0.93066,0.593 -0.41184,0.476 -0.34409,0.617 -0.42611,0.492 -0.77911,0.697 -0.20147,0.154 -0.15154,0.02 -0.41143,-0.48158 -1.352,-1.3424 -0.71432,1.3358 -0.82592,-0.16275 -0.78803,-2.362 1.5353,-0.68162 -0.0445,-0.55464 2.2406,-2.5157 0.57872,-0.472 0.30919,-0.28422 0.45121,0.22816 0.47425,0.06 2.0164,-1.469 4.0186,-0.571" inkscape:connector-curvature="0" style="stroke:#ffffff">
      <title id="title7573">Hawkins, TN</title>
    </path>
    <path id="c47059" d="m 766.81,332.07 1.264,-0.369 0.0535,0.16 0.41897,4.885 0.19255,1.27 1.0537,0.98 0.0392,1.318 -0.35122,-0.337 -0.27635,-0.175 -0.0874,0.01 -0.46711,0.337 -0.3227,0.233 -1.1553,1.141 -1.6224,1.519 -0.83082,0.21 -1.1874,-1.069 -2.0414,-1.592 -1.5992,-0.858 -0.72028,-0.531 -0.13015,-0.146 0.0481,-0.548 1.3354,-1.613 0.15154,-0.02 0.20147,-0.154 0.77911,-0.697 0.42611,-0.492 0.34409,-0.617 0.41184,-0.476 0.93066,-0.593 0.33875,-0.184 0.88252,-0.259 1.9202,-1.333" inkscape:connector-curvature="0" style="stroke:#ffffff">
      <title id="title7576">Greene, TN</title>
    </path>
    <path id="c47179" d="m 767.14,331.52 1.0127,-0.159 2.2571,-0.444 1.0947,-0.346 0.63292,0.128 0.90927,0.662 0.28882,0.08 0.8433,-0.11 -0.25673,3.407 -0.56339,1.189 -0.57765,0.859 -0.79516,0.514 -0.42611,0.05 -0.71493,0.257 -1.0519,1.383 -1.0537,-0.98 -0.19255,-1.27 -0.41897,-4.885 -0.0535,-0.16 -1.264,0.369 0.32983,-0.547" inkscape:connector-curvature="0" style="stroke:#ffffff">
      <title id="title7579">Washington, TN</title>
    </path>
    <path id="c47019" d="m 779.54,327.94 0.7078,0.706 0,0.07 -1.4227,2.403 0.27991,0.553 1.2534,1.305 0.61152,0.523 0.3227,-0.123 -2.1608,4.041 -2.7403,-0.793 -0.75592,-1.0961 -0.42463,-0.70361 -1.2958,-0.0813 0.25673,-3.407 0.81347,-0.72937 1.2219,0.30377 1.27,-1.4982 0.50285,0.0558 1.56,-1.53" inkscape:connector-curvature="0" style="stroke:#ffffff">
      <title id="title7582">Carter, TN</title>
    </path>
    </g>
  </svg>
