<svg xmlns:dc="http://purl.org/dc/elements/1.1/" xmlns:cc="http://creativecommons.org/ns#" xmlns:rdf="http://www.w3.org/1999/02/22-rdf-syntax-ns#" xmlns:svg="http://www.w3.org/2000/svg" xmlns="http://www.w3.org/2000/svg" xmlns:sodipodi="http://sodipodi.sourceforge.net/DTD/sodipodi-0.dtd" xmlns:inkscape="http://www.inkscape.org/namespaces/inkscape" width="30.185589999999934" height="63.25802" version="1.0" id="svg2" inkscape:version="0.91 r13725" sodipodi:docname="USA counties.svg">
  <defs id="defs9439"/>
  <sodipodi:namedview pagecolor="#ffffff" bordercolor="#666666" borderopacity="1" objecttolerance="10" gridtolerance="10" guidetolerance="10" inkscape:pageopacity="0" inkscape:pageshadow="2" inkscape:window-width="798" inkscape:window-height="828" id="namedview9437" showgrid="false" showguides="true" inkscape:zoom="0.64950808" inkscape:cx="494.98999" inkscape:cy="313.535" inkscape:window-x="-7" inkscape:window-y="0" inkscape:window-maximized="0" inkscape:current-layer="svg2"/>
  <metadata id="metadata4">
    <rdf:RDF>
      <cc:Work>
        <dc:format>image/svg+xml</dc:format>
        <dc:type rdf:resource="http://purl.org/dc/dcmitype/StillImage"/>
        <dc:title/>
        <cc:license rdf:resource="http://creativecommons.org/publicdomain/zero/1.0/"/>
        <dc:date>2019-10-06</dc:date>
        <dc:creator>
          <cc:Agent>
            <dc:title>U.S. Census Bureau, Abe.suleiman, Lokal_Profil</dc:title>
          </cc:Agent>
        </dc:creator>
        <dc:source>https://commons.wikimedia.org/wiki/File:Usa_counties_large.svg</dc:source>
      </cc:Work>
      <cc:License rdf:about="http://creativecommons.org/publicdomain/zero/1.0/">
        <cc:permits rdf:resource="http://creativecommons.org/ns#Reproduction"/>
        <cc:permits rdf:resource="http://creativecommons.org/ns#Distribution"/>
        <cc:permits rdf:resource="http://creativecommons.org/ns#DerivativeWorks"/>
      </cc:License>
    </rdf:RDF>
  </metadata>
  <style id="style6">
  /*
   * Below are Cascading Style Sheet (CSS) definitions in use in this file,
   * which allow easily changing how counties are displayed.
   *
   *
   * For the U.S. Census county codes (FIPS codes) used in this file to identify individual counties, see this link:
   * https://www2.census.gov/geo/docs/reference/codes/files/national_county.txt
   *
   * The county codes used in this file combine the 2-digit state code, which is in the second column of the file
   * linked above, and the 3-digit county code, which is in the third column of the file linked above. Each value
   * for the "id" attribute for each county is in the following form: "c[state_code][county-code]". For example,
   * for Loving Country in Texas, the state code is "48" and the county code is "301", so the id name for the
   * county is "c48301".
   *
   * County codes used in this file can also be found on Wikimedia Commons at this link:
   * https://commons.wikimedia.org/wiki/File_talk:Usa_counties_large.svg/county_codes
   *
   * Examples:
   *
   * To color two counties red (in this case Loving County and Dallas County in Texas) simply
   * go to the CSS insertion point and add:
   *
   * #c48301, #c48113 {fill:red}
   *
   * To color an entire state's counties (in the case New Mexico, with "35" being the state code) a green,
   * go to the CSS insertion point and add:
   *
   * path[id*='c35'] {fill:#34A853}
   *
   */
  #counties {fill:#d0d0d0;stroke:#000;stroke-width:.17829;} 
  #borders {fill:none;stroke:#221e1f;stroke-width:.89143;} 
  #separator {fill:none;stroke:#a9a9a9;stroke-width:2.3177309;}
 </style>
  <g id="counties" transform="translate(-911.9145599999999,-90.736)" style="fill:#d0d0d0;stroke:#ffffff;stroke-width:0.17828999">
    <path id="c33007" d="m 922.53,90.736 0.61865,1.767 3.3999,10.253 0.24068,0.772 3.0148,9.586 -0.23534,1.181 -3.1554,0.6777 -0.34945,2.4208 0.20206,1.2258 -0.42315,0.24557 -0.59353,-1.5541 -0.47862,-0.26719 -0.54756,-0.74977 -0.44689,0.15617 -0.65075,-0.708 -0.48315,-0.128 -1.6195,0.50533 -0.51642,-1.0113 -1.765,-0.298 -1.6509,-1.23 0.34409,0.03 0.51525,-0.378 0.041,-0.06 0.22464,-0.29 0.0945,-0.137 0.066,-0.104 0.79516,-1.398 0.0802,-0.137 0.18542,-0.515 -0.32106,-1.0665 0.53678,-0.93451 -0.41719,-0.673 -0.0713,-0.115 -0.40293,-0.499 -0.73811,-0.907 -0.60439,-0.596 -0.1355,-0.383 1.155,-4.1131 -1.1318,-1.5299 0.38688,-0.795 -0.1355,-1.366 0.3851,-4.154 1.2926,-1.688 0.17829,-0.127 0.34409,0.177 0.14442,0.287 0.0731,0.08 0.51525,0.257 0.8433,0.06 0.70602,-0.147 0.10519,-0.09 0.3851,-1.526" inkscape:connector-curvature="0" style="stroke:#ffffff">
      <title id="title5716">Coos, NH</title>
    </path>
    <path id="c33009" d="m 916.01,114.98 1.0768,-1.398 1.6509,1.23 1.765,0.298 0.51642,1.0113 1.6195,-0.50533 0.48315,0.128 0.65075,0.708 0.78981,1.139 1.1553,1.76 0.6668,3.487 -3.1093,1.35 0.9057,2.074 0.36192,0.65 0.62303,1.2126 -1.8673,0.95167 0.20478,1.5779 -0.91985,1.5779 -1.2235,0.37752 -1.0104,-0.93852 -0.47424,1.003 -0.42611,1.213 -1.0555,0.08 -1.8453,0.07 -1.872,-0.289 -1.9932,0.161 -0.36612,-0.42147 0.28888,-1.2862 -0.22848,-0.58191 0.4165,-0.84518 0.33092,-0.18948 0.57805,-1.0067 0.0553,-1.1591 -0.26783,-1.1591 0.62544,-1.2732 0.11229,-1.1971 -0.40087,-0.47492 0.32135,-1.6913 0.29371,-0.84564 -0.35248,-0.31348 0.0553,-1.1591 -0.27277,-0.217 -0.29953,-0.403 -0.52773,-1.84 0,-0.144 0.0553,-0.234 0.53843,-0.972 0.0499,-0.04 0.0838,-0.08 1.1125,-0.692 1.125,-0.707" inkscape:connector-curvature="0" style="stroke:#ffffff">
      <title id="title5719">Grafton, NH</title>
    </path>
    <path id="c33017" d="m 931.8,130.37 0.4557,-1.068 0.63087,1.2678 0.44305,-0.0229 0.38859,-0.59269 0.42836,0.006 0.23707,0.82303 0.35382,-0.63656 0.37154,-0.88595 0.27991,3.135 0.12302,0.513 0.15154,0.323 0.46712,0.649 0.29595,0.153 0.80586,0.401 1.9433,1.159 0.0499,0.06 0.624,2.507 -0.62065,0.0834 0.11432,0.90658 -1.0673,0.0234 -2.2537,0.72355 0.41006,-1.456 -4.4006,-1.791 0.12123,-0.289 0.79516,-1.913 -0.79516,-1.784 -0.65074,-1.568 0.29774,-0.722" inkscape:connector-curvature="0" style="stroke:#ffffff">
      <title id="title5722">Strafford, NH</title>
    </path>
    <path id="c33015" d="m 942.1,139.06 -0.69532,4.685 -0.59191,0.37101 -0.59191,-0.30101 -0.48851,0.03 -0.11232,0.06 -0.13193,0.06 -0.007,0 -1.5493,1.15 -0.22913,1.276 -1.3523,0.073 -0.21751,0.227 -0.35774,0.71899 0.39716,1.0555 -0.9469,0.0475 -2.0717,-0.40557 -0.70376,-1.0455 -0.75995,0.0564 -0.92532,-2.2728 1.2543,-0.62921 -0.75507,-1.0223 0.7702,-6.541 4.4006,1.791 -0.41006,1.456 2.2537,-0.72355 1.0673,-0.0234 -0.11432,-0.90658 0.62065,-0.0834 2.2482,0.901" inkscape:connector-curvature="0" style="stroke:#ffffff">
      <title id="title5725">Rockingham, NH</title>
    </path>
    <path id="c33005" d="m 913.2,144.24 0.47602,0.489 0.98771,-0.168 -0.13722,-0.8331 0.61143,-0.20422 2.7622,-1.1261 -0.14378,0.58779 0.0178,0.408 2.3201,-0.14235 0.30487,2.54 0.48547,1.402 0.91639,-0.218 1.3276,2.9967 0.54031,-0.0288 0.61157,2.1701 -5.8318,1.263 -2.8936,0.618 -1.8381,-1.478 -0.59742,-0.87938 -0.37658,-0.55571 0.37153,-1.0535 -0.25933,-0.9314 1.0153,-1.0528 -0.45882,-1.2846 0.16662,-1.4531 -0.37836,-1.0656" inkscape:connector-curvature="0" style="stroke:#ffffff">
      <title id="title5728">Cheshire, NH</title>
    </path>
    <path id="c33019" d="m 912.68,133.91 1.9932,-0.161 1.872,0.289 1.8453,-0.07 1.0555,-0.08 -0.58176,2.1721 -0.84754,0.003 -0.0126,0.4797 0.41229,0.28345 0.13396,0.42261 -0.41302,1.8886 0.75535,1.1579 0.37792,-0.15431 0.22349,1.0194 0.72385,0.653 -0.13015,1.437 -2.3201,0.14235 -0.0178,-0.408 0.14378,-0.58779 -2.7622,1.1261 -0.61143,0.20422 0.13722,0.8331 -0.98771,0.168 -0.47602,-0.489 -0.0642,-1.695 0.0731,-2.01 -0.40962,-0.26945 0.0655,-0.63055 -0.35096,0.0211 -0.44598,-3.685 -0.14681,-1.209 0.76546,-0.84795" inkscape:connector-curvature="0" style="stroke:#ffffff">
      <title id="title5731">Sullivan, NH</title>
    </path>
    <path id="c33011" d="m 920.22,141.81 1.5605,-0.95955 1.3398,1.5327 2.8898,-1.4114 0.89081,1.8619 2.0636,-0.70345 1.1821,0.79499 1.1146,0.26587 0.75507,1.0223 -1.2543,0.62921 0.92532,2.2728 0.75995,-0.0564 0.70376,1.0455 2.0717,0.40557 -0.10698,0.242 -0.41541,0.988 -5.5465,1.278 -0.0713,0.02 -0.2496,0.06 -4.0649,0.909 -0.49208,0.11 -0.61157,-2.1701 -0.54031,0.0288 -1.3276,-2.9967 -0.91639,0.218 -0.48547,-1.402 -0.30487,-2.54 0.13015,-1.437" inkscape:connector-curvature="0" style="stroke:#ffffff">
      <title id="title5734">Hillsborough, NH</title>
    </path>
    <path id="c33001" d="m 924.54,126.91 1.4138,0.885 4.0828,2.266 1.7615,0.313 -0.29774,0.722 0.65074,1.568 0.79516,1.784 -0.79516,1.913 -2.0831,-1.0193 -3.9287,-1.5716 -0.75416,0.62 -0.86466,-1.1433 -0.27856,0.19102 -0.75146,-0.48186 -0.0598,-0.37907 -0.84994,-0.35183 0.91985,-1.5779 -0.20478,-1.5779 1.8673,-0.95167 -0.62303,-1.2126" inkscape:connector-curvature="0" style="stroke:#ffffff">
      <title id="title5737">Belknap, NH</title>
    </path>
    <path id="c33013" d="m 922.58,132.23 0.84994,0.35183 0.0598,0.37907 0.75146,0.48186 0.27856,-0.19102 0.86466,1.1433 0.75416,-0.62 3.9287,1.5716 2.0831,1.0193 -0.12123,0.289 -0.7702,6.541 -1.1146,-0.26537 -1.1821,-0.79449 -2.0636,0.70295 -0.89081,-1.8624 -2.8898,1.4114 -1.3398,-1.5327 -1.5605,0.95955 -0.72385,-0.653 -0.22349,-1.0194 -0.37792,0.15431 -0.75535,-1.1579 0.41302,-1.8886 -0.13396,-0.42261 -0.41229,-0.28345 0.0126,-0.4797 0.84754,-0.003 0.58176,-2.1721 0.42611,-1.212 0.47424,-1.004 1.0104,0.93852 1.2235,-0.37752" inkscape:connector-curvature="0" style="stroke:#ffffff">
      <title id="title5740">Merrimack, NH</title>
    </path>
    <path id="c33003" d="m 929.8,113.11 3.284,10.872 2.0253,5.279 -0.37154,0.88595 -0.35382,0.63666 -0.23707,-0.82293 -0.42835,-0.006 -0.3886,0.59269 -0.44305,0.0229 -0.63087,-1.2678 -0.4557,1.068 -1.7615,-0.313 -4.0828,-2.266 -1.4138,-0.885 -0.36192,-0.65 -0.9057,-2.074 3.1093,-1.35 -0.6668,-3.487 -1.1553,-1.76 -0.78981,-1.139 0.44689,-0.15617 0.54756,0.74977 0.47862,0.26719 0.59353,1.5541 0.42315,-0.24557 -0.20206,-1.2258 0.34945,-2.4208 3.1554,-0.6777 0.23534,-1.181" inkscape:connector-curvature="0" style="stroke:#ffffff">
      <title id="title5743">Carroll, NH</title>
    </path>
    </g>
  </svg>
