<svg xmlns:dc="http://purl.org/dc/elements/1.1/" xmlns:cc="http://creativecommons.org/ns#" xmlns:rdf="http://www.w3.org/1999/02/22-rdf-syntax-ns#" xmlns:svg="http://www.w3.org/2000/svg" xmlns="http://www.w3.org/2000/svg" xmlns:sodipodi="http://sodipodi.sourceforge.net/DTD/sodipodi-0.dtd" xmlns:inkscape="http://www.inkscape.org/namespaces/inkscape" width="127.51720000000006" height="105.8329600000001" version="1.0" id="svg2" inkscape:version="0.91 r13725" sodipodi:docname="USA counties.svg">
  <defs id="defs9439"/>
  <sodipodi:namedview pagecolor="#ffffff" bordercolor="#666666" borderopacity="1" objecttolerance="10" gridtolerance="10" guidetolerance="10" inkscape:pageopacity="0" inkscape:pageshadow="2" inkscape:window-width="798" inkscape:window-height="828" id="namedview9437" showgrid="false" showguides="true" inkscape:zoom="0.64950808" inkscape:cx="494.98999" inkscape:cy="313.535" inkscape:window-x="-7" inkscape:window-y="0" inkscape:window-maximized="0" inkscape:current-layer="svg2"/>
  <metadata id="metadata4">
    <rdf:RDF>
      <cc:Work>
        <dc:format>image/svg+xml</dc:format>
        <dc:type rdf:resource="http://purl.org/dc/dcmitype/StillImage"/>
        <dc:title/>
        <cc:license rdf:resource="http://creativecommons.org/publicdomain/zero/1.0/"/>
        <dc:date>2019-10-06</dc:date>
        <dc:creator>
          <cc:Agent>
            <dc:title>U.S. Census Bureau, Abe.suleiman, Lokal_Profil</dc:title>
          </cc:Agent>
        </dc:creator>
        <dc:source>https://commons.wikimedia.org/wiki/File:Usa_counties_large.svg</dc:source>
      </cc:Work>
      <cc:License rdf:about="http://creativecommons.org/publicdomain/zero/1.0/">
        <cc:permits rdf:resource="http://creativecommons.org/ns#Reproduction"/>
        <cc:permits rdf:resource="http://creativecommons.org/ns#Distribution"/>
        <cc:permits rdf:resource="http://creativecommons.org/ns#DerivativeWorks"/>
      </cc:License>
    </rdf:RDF>
  </metadata>
  <style id="style6">
  /*
   * Below are Cascading Style Sheet (CSS) definitions in use in this file,
   * which allow easily changing how counties are displayed.
   *
   *
   * For the U.S. Census county codes (FIPS codes) used in this file to identify individual counties, see this link:
   * https://www2.census.gov/geo/docs/reference/codes/files/national_county.txt
   *
   * The county codes used in this file combine the 2-digit state code, which is in the second column of the file
   * linked above, and the 3-digit county code, which is in the third column of the file linked above. Each value
   * for the "id" attribute for each county is in the following form: "c[state_code][county-code]". For example,
   * for Loving Country in Texas, the state code is "48" and the county code is "301", so the id name for the
   * county is "c48301".
   *
   * County codes used in this file can also be found on Wikimedia Commons at this link:
   * https://commons.wikimedia.org/wiki/File_talk:Usa_counties_large.svg/county_codes
   *
   * Examples:
   *
   * To color two counties red (in this case Loving County and Dallas County in Texas) simply
   * go to the CSS insertion point and add:
   *
   * #c48301, #c48113 {fill:red}
   *
   * To color an entire state's counties (in the case New Mexico, with "35" being the state code) a green,
   * go to the CSS insertion point and add:
   *
   * path[id*='c35'] {fill:#34A853}
   *
   */
  #counties {fill:#d0d0d0;stroke:#000;stroke-width:.17829;} 
  #borders {fill:none;stroke:#221e1f;stroke-width:.89143;} 
  #separator {fill:none;stroke:#a9a9a9;stroke-width:2.3177309;}
 </style>
  <g id="counties" transform="translate(-264.69149999999996,-131.03015999999988)" style="fill:#d0d0d0;stroke:#ffffff;stroke-width:0.17828999">
    <path id="c56021" d="m 364.82,219.96 10.699,0.97312 -0.18363,2.028 10.235,0.921 -0.32805,3.948 -0.77911,9.033 -15.308,-1.296 -5.7302,-0.554 1.3946,-15.053" inkscape:connector-curvature="0" style="stroke:#ffffff">
      <title id="title9364">Laramie, WY</title>
    </path>
    <path id="c56015" d="m 387.62,199.74 -1.1892,14.054 -0.60261,7.002 -0.25852,3.082 -10.235,-0.921 0.18363,-2.028 1.9701,-22.03 2.8847,0.253 4.0721,0.308 3.1753,0.28" inkscape:connector-curvature="0" style="stroke:#ffffff">
      <title id="title9367">Goshen, WY</title>
    </path>
    <path id="c56039" d="m 278.08,138.28 6.2579,0.981 -0.28882,1.904 4.7335,0.722 -0.20752,0.52107 0.64528,0.40262 0.31686,-0.13803 0.44524,0.35842 -0.11868,0.29831 0.26671,0.35245 -0.56984,1.9971 0.14083,0.33883 0.38699,0.1956 -0.0394,0.47986 0.37032,0.23058 -0.0929,1.0415 0.28614,0.21241 -0.0455,0.473 0.26245,0.11765 0.52304,0.30717 0.1677,0.49669 -0.18764,0.094 0.13076,1.208 0.20183,0.28407 -0.34303,1.0421 0.0535,0.67505 0.95372,0.1065 -2.2265,15.332 -0.38527,1.9765 -4.7335,-0.717 -0.29596,1.977 -3.867,-0.602 -0.2086,1.285 -3.8216,-0.64184 0.15305,-1.3629 -1.8188,-0.32719 0.0754,-0.40807 -1.96,-0.36476 2.3097,-14.961 1.7686,-11.168 0.76106,-4.7192" inkscape:connector-curvature="0" style="stroke:#ffffff">
      <title id="title9370">Teton, WY</title>
    </path>
    <path id="c56023" d="m 273.24,169.13 1.96,0.36476 -0.0754,0.40807 1.8188,0.32719 -0.15305,1.3629 3.8216,0.64184 -0.41602,2.6902 -1.3408,7.6331 -0.61465,-0.093 -0.24273,1.6291 0.55184,0.0741 -0.90935,5.9794 0.80522,0.19258 -0.63706,3.8395 5.7308,1.0434 2.4261,0.58078 -0.4992,3.332 -0.37797,3.393 -1.3889,9.152 -16.884,-2.662 1.535,-9.644 1.8738,-11.679 1.8863,-11.557 1.1295,-7.0089" inkscape:connector-curvature="0" style="stroke:#ffffff">
      <title id="title9373">Lincoln, WY</title>
    </path>
    <path id="c56041" d="m 266.82,209.02 16.884,2.662 -1.9861,13.282 -7.7305,-1.109 -9.2959,-1.535 0.93244,-5.801 1.1963,-7.499" inkscape:connector-curvature="0" style="stroke:#ffffff">
      <title id="title9376">Uinta, WY</title>
    </path>
    <path id="c56035" d="m 290.1,168.31 4.9213,0.79957 -0.33858,2.2174 0.28638,0.0771 0.23037,-0.12974 0.36617,0.0324 0.0977,0.1429 -0.0249,0.44454 -0.0926,0.41073 0.21174,0.58823 -0.25136,0.60771 0.0614,0.38795 -0.0569,0.1851 0.10254,0.33766 -0.13468,0.36324 -0.0502,0.34634 0.21751,0.901 0.35823,0.39381 0.0202,0.52525 0.5554,0.89141 0.17045,-5.2e-4 0.29251,1.0228 -0.32715,0.11215 0.11412,0.29053 -0.0455,0.59097 0.56943,0.11683 0.54198,0.60196 0.31859,0.25091 0.0314,0.31474 0.30263,0.13922 0.54239,0.56536 0.0637,0.19836 0.38282,-0.0889 0.55835,1.3153 -0.0838,0.4582 0.21933,0.39438 0.26721,0.0912 0.52251,0.98477 0.60229,0.36247 0.15551,0.18694 -0.54658,0.17098 -0.13171,0.39438 0.27072,0.13921 0.33495,-0.0809 0.78174,0.79673 0.22326,0.50952 0.12751,0.55738 0.91426,0.15369 -0.80674,5.9774 0.46978,0.0894 -0.53843,3.9359 -7.6663,-1.069 -4.1862,-0.658 -5.0616,-0.858 -2.4261,-0.58078 -5.7308,-1.0434 0.63706,-3.8395 -0.80522,-0.19258 0.90935,-5.9794 -0.55184,-0.0741 0.24274,-1.6291 0.61464,0.093 1.3408,-7.6331 0.41602,-2.6902 0.2086,-1.285 3.867,0.602 0.29596,-1.977 4.7335,0.717 0.38532,-1.977" inkscape:connector-curvature="0" style="stroke:#ffffff">
      <title id="title9379">Sublette, WY</title>
    </path>
    <path id="c56029" d="m 299.36,134.06 8.5417,1.157 2.9899,0.548 0.32804,0.05 2.1305,0.289 4.9903,0.659 -0.39367,3.0048 0.44756,0.0779 -1.057,7.7613 0.28883,0.0637 -1.0454,8.1923 0.37619,0.05 -0.33428,1.9464 -3.9466,-0.60449 -0.21301,2.0622 -2.0564,-0.26446 -0.19961,1.977 -2.9399,-0.28662 -0.13515,1.9148 -3.0954,-0.35839 -0.6241,-0.0816 -0.14611,-0.49843 -0.31007,-0.38121 -0.40914,-0.096 0.021,-0.66376 -0.49516,-0.52613 0.021,-0.28527 -0.42635,-0.31968 -0.0307,-0.31969 -0.31996,-0.11953 -0.008,-0.24934 -0.17118,-0.20634 -0.45504,0.14635 -0.10236,0.23237 -0.283,-0.16333 -0.283,-0.46439 -0.23056,0.0519 -0.23916,0.22393 -0.21392,0.0919 -0.18473,-0.29459 -0.11591,-0.0279 -0.16752,0.49679 -0.63569,0.16356 -0.0963,0.15573 -0.0447,0.4482 -0.35437,0.41378 -0.0275,0.4482 0.0929,0.19015 -0.23393,0.12132 -0.77043,-0.0788 -0.58931,0.10917 -0.22803,0.35003 -0.65813,0.0576 -0.69378,-0.79603 -0.04,-0.34871 0.25244,0.0126 0.35566,-0.2799 -0.0887,-0.39406 0.20372,-0.34246 -0.22638,-0.0328 -0.26079,-0.30804 0.0606,-0.46666 -0.18031,-0.071 0.009,-0.2086 0.31861,-0.29462 -0.008,-0.2258 -0.35235,0.11828 -0.30074,0.0839 -0.54159,-0.10538 -0.43052,-0.32963 -0.72125,0.12256 -0.21965,-0.11943 -10e-4,-0.36375 -0.22407,-0.82109 -0.32416,-0.0825 0.42547,-2.9754 -0.95372,-0.1065 -0.0535,-0.67505 0.34303,-1.0421 -0.20183,-0.28407 -0.13076,-1.208 0.18764,-0.094 -0.1677,-0.49669 -0.52303,-0.30717 -0.26245,-0.11765 0.0455,-0.473 -0.28614,-0.21241 0.0929,-1.0415 -0.37033,-0.23058 0.0394,-0.47986 -0.38699,-0.1956 -0.14084,-0.33883 0.56985,-1.9971 -0.26671,-0.35245 0.11868,-0.29831 -0.44524,-0.35842 -0.31686,0.13803 -0.64528,-0.40262 0.20752,-0.52107 -4.7335,-0.722 0.28882,-1.904 -6.2579,-0.981 1.2322,-7.2638 2.7082,0.419 2.0004,0.408 0.70602,0.243 2.4194,0.378 0.041,0 5.3433,0.724 1.815,0.09 1.3514,0.21 3.6638,0.571" inkscape:connector-curvature="0" style="stroke:#ffffff">
      <title id="title9382">Park, WY</title>
    </path>
    <path id="c56037" d="m 285.97,195.8 5.0616,0.858 4.1862,0.658 7.6663,1.069 25.561,3.366 -0.56756,3.9303 0.39994,0.1027 -0.99663,7.975 -0.30487,1.904 -7.1208,-0.932 -0.78328,5.9544 0.24485,0.0626 -1.1731,9.105 -5.6891,-0.685 -13.667,-1.84 -2.6939,-0.392 -8.0176,-1.07 -0.66857,-0.1 -2.3944,-0.337 -2.4657,-0.353 -0.0178,0 -0.8112,-0.121 1.9861,-13.282 1.3889,-9.152 0.37797,-3.393 0.4992,-3.332" inkscape:connector-curvature="0" style="stroke:#ffffff">
      <title id="title9385">Sweetwater, WY</title>
    </path>
    <path id="c56013" d="m 330.57,173.15 1.037,0.16145 -0.0688,0.62028 0.38496,0.0679 -0.4582,3.955 -0.57211,3.9242 0.28807,0.0639 -1.0116,7.9568 -0.71841,-0.0911 -0.90635,7.9453 0.37984,0.04 -0.48137,3.959 -25.561,-3.366 0.53843,-3.9359 -0.46978,-0.0894 0.80674,-5.9774 -0.91426,-0.15369 -0.12751,-0.55738 -0.22326,-0.50952 -0.78174,-0.79673 -0.33495,0.0809 -0.27072,-0.13921 0.13171,-0.39438 0.54658,-0.17098 -0.15551,-0.18694 -0.60229,-0.36247 -0.52251,-0.98477 -0.26721,-0.0912 -0.21933,-0.39438 0.0838,-0.4582 -0.55835,-1.3153 -0.38282,0.0889 -0.0637,-0.19836 -0.54239,-0.56536 -0.30263,-0.13922 -0.0314,-0.31474 -0.31859,-0.25091 -0.54198,-0.60196 -0.56943,-0.11683 0.0455,-0.59097 -0.11412,-0.29053 0.32715,-0.11215 -0.29251,-1.0228 -0.17045,5.2e-4 -0.5554,-0.89141 -0.0202,-0.52525 -0.35823,-0.39381 -0.21751,-0.901 0.0502,-0.34634 0.13468,-0.36324 -0.10254,-0.33766 0.057,-0.1851 -0.0614,-0.38795 0.25136,-0.60771 -0.21174,-0.58823 0.0926,-0.41073 0.0249,-0.44454 -0.0977,-0.1429 -0.36617,-0.0324 -0.23037,0.12974 -0.28638,-0.0771 0.33858,-2.2174 -4.9211,-0.79905 1.8011,-12.356 0.32416,0.0835 0.22407,0.82009 10e-4,0.36375 0.21965,0.12043 0.72125,-0.12356 0.43052,0.32963 0.54159,0.10538 0.30074,-0.0839 0.35235,-0.11828 0.008,0.2258 -0.31861,0.29462 -0.009,0.2086 0.18031,0.071 -0.0605,0.46666 0.26079,0.30804 0.22638,0.0328 -0.20372,0.34246 0.0887,0.39406 -0.35566,0.2799 -0.25244,-0.0126 0.04,0.34871 0.69378,0.79603 0.65813,-0.0576 0.22803,-0.35003 0.58931,-0.10917 0.77043,0.0788 0.23393,-0.12133 -0.0929,-0.19015 0.0275,-0.4482 0.35437,-0.41378 0.0447,-0.4482 0.0963,-0.15573 0.63569,-0.16356 0.16752,-0.49679 0.11591,0.0279 0.18473,0.29459 0.21392,-0.0919 0.23916,-0.22393 0.23056,-0.0519 0.283,0.46439 0.283,0.16333 0.10236,-0.23237 0.45504,-0.14635 0.17118,0.20634 0.008,0.24934 0.31996,0.11953 0.0306,0.31969 0.42635,0.31968 -0.021,0.28527 0.49516,0.52613 -0.021,0.66376 0.40914,0.096 0.31007,0.38121 0.14611,0.49843 0.0455,0.12089 0.27762,0.12089 0.0344,0.0767 0.16706,0.0656 -0.0213,0.37283 0.35455,0.20701 -0.0413,0.26733 0.32357,0.0352 0.27934,0.96382 0.21301,0.43317 0.29927,0.3065 -0.25567,1.7213 2.0182,0.31833 1.8388,0.27524 -0.007,0.44664 1.8876,0.25235 -0.031,0.59235 1.9361,0.30092 -0.1105,0.96613 1.9052,0.23757 -0.0819,0.76171 1.9641,0.25145 -0.0726,0.65886 1.9068,0.27146 -0.0355,0.28914 3.0136,0.41428 0.0356,-0.27 9.2219,1.144 0.0892,-0.667" inkscape:connector-curvature="0" style="stroke:#ffffff">
      <title id="title9388">Fremont, WY</title>
    </path>
    <path id="c56017" d="m 316.62,157.86 0.93158,0.119 -0.23226,1.9847 0.98266,0.18762 -0.23471,1.9502 1.9684,0.28634 -0.20322,1.3656 1.9601,0.26849 -0.0523,0.60389 3.8388,0.58361 -0.21221,1.9803 3.866,0.49493 -0.19798,1.9305 1.9311,0.21978 -0.40114,3.318 -0.0892,0.667 -9.2219,-1.144 -0.0356,0.27 -3.0136,-0.41428 0.0355,-0.28914 -1.9068,-0.27146 0.0726,-0.65886 -1.9641,-0.25145 0.0819,-0.76171 -1.9052,-0.23757 0.1105,-0.96613 -1.9361,-0.30092 0.031,-0.59235 -1.8876,-0.25235 0.007,-0.44664 -1.8388,-0.27524 -2.0182,-0.31833 0.25567,-1.7213 -0.29927,-0.3065 -0.21301,-0.43317 -0.27934,-0.96382 -0.32357,-0.0352 0.0413,-0.26733 -0.35455,-0.20701 0.0213,-0.37283 -0.16706,-0.0656 -0.0344,-0.0767 -0.27762,-0.12089 -0.0454,-0.12089 0.6241,0.0816 3.0954,0.35839 0.13515,-1.9148 2.9399,0.28662 0.19961,-1.977 2.0564,0.26446 0.21301,-2.0622 3.9466,0.60449" inkscape:connector-curvature="0" style="stroke:#ffffff">
      <title id="title9391">Hot Springs, WY</title>
    </path>
    <path id="c56043" d="m 316.62,157.86 0.33428,-1.9464 19.214,2.443 3.5806,0.46928 0.29774,0.03 -0.83437,8.011 0.20992,0.0237 -0.72626,5.9528 0.0855,0.0307 -0.14855,1.3114 -7.031,-0.873 -1.037,-0.16145 0.40114,-3.318 -1.9311,-0.21978 0.19798,-1.9305 -3.866,-0.49493 0.21221,-1.9803 -3.8388,-0.58361 0.0523,-0.60389 -1.9601,-0.26849 0.20322,-1.3656 -1.9684,-0.28634 0.23471,-1.9502 -0.98266,-0.18762 0.23226,-1.9847 -0.93158,-0.119" inkscape:connector-curvature="0" style="stroke:#ffffff">
      <title id="title9394">Washakie, WY</title>
    </path>
    <path id="c56003" d="m 318.34,136.76 6.0029,0.813 5.7603,0.71258 0.0474,0.78957 -0.1531,0.65157 0.431,0.50964 -0.074,0.26845 -0.25473,0.62534 0.27688,0.37572 0.20534,0.55225 -0.0589,0.22845 0.19992,0.1127 -0.005,0.38788 -0.26018,0.031 0.0176,0.30409 0.6405,0.45602 0.4126,0.0306 0.19989,0.79028 -0.19514,0.41044 0.0935,0.24331 0.1847,-0.0757 0.71647,0.38006 -0.0736,0.2585 0.23028,0.31929 0.26066,-0.12133 0.0935,-0.13652 0.56453,0.0458 0.12393,-0.0606 0.15431,0.13697 0.1847,0.0458 0.39154,0.43081 0.35238,0.33941 -0.14901,0.5673 0.35238,0.17227 0.30679,-0.0252 0.0421,0.55236 0.77137,0.26369 0.22442,-0.11615 0.0573,0.2333 0.61944,0.2485 0.16365,0.78026 -0.0536,0.27343 0.13368,0.18493 0.45315,0.0164 0.13282,0.27267 -0.0978,0.24705 0.49159,0.54176 -0.0978,0.31111 -0.12344,0.0805 0.0559,0.17017 -0.085,0.36236 0.38908,0.0805 0.005,0.18298 0.28658,0.0933 0.0303,0.17017 0.29938,0.0933 0.31221,-0.0989 0.0246,-0.18534 0.25525,0.13499 -0.11634,0.25031 0.0887,0.46813 -0.10352,0.34 0.21681,0.12218 0.12712,-0.0957 0.15274,0.21187 -0.14638,0.38213 0.19737,0.0814 0.0216,0.15557 -0.16591,0.15168 -0.22841,0.0345 -0.0487,0.25713 0.14603,0.0438 0.0132,0.23128 0.24367,0.0867 -0.006,0.1883 0.20909,0.0696 -0.46024,3.6154 -3.5806,-0.46928 -19.214,-2.443 -0.37619,-0.05 1.0454,-8.1923 -0.28883,-0.0637 1.057,-7.7613 -0.44756,-0.0779 0.39367,-3.0048" inkscape:connector-curvature="0" style="stroke:#ffffff">
      <title id="title9397">Big Horn, WY</title>
    </path>
    <path id="c56033" d="m 356.44,141.53 3.6627,0.39692 -0.23085,2.6813 0.1479,0.0802 -0.83316,7.0393 -2.4417,-0.20967 -4.0739,-0.377 -0.009,0.1 -15.46,-1.9394 -0.16364,-0.78026 -0.61945,-0.24849 -0.0573,-0.2333 -0.22441,0.11614 -0.77138,-0.26369 -0.0421,-0.55236 -0.30679,0.0252 -0.35238,-0.17228 0.14901,-0.56729 -0.35238,-0.33941 -0.39154,-0.43081 -0.1847,-0.0458 -0.15431,-0.13697 -0.12393,0.0606 -0.56453,-0.0458 -0.0935,0.13652 -0.26066,0.12133 -0.23028,-0.31929 0.0736,-0.2585 -0.71647,-0.38006 -0.1847,0.0757 -0.0935,-0.24331 0.19514,-0.41044 -0.19989,-0.79028 -0.4126,-0.0306 -0.6405,-0.45602 -0.0176,-0.30409 0.26018,-0.031 0.005,-0.38788 -0.19992,-0.1127 0.0589,-0.22845 -0.20534,-0.55225 -0.27688,-0.37572 0.25473,-0.62534 0.074,-0.26845 -0.43099,-0.50963 0.15309,-0.65158 -0.0474,-0.78957 4.6035,0.56442 7.6592,0.94 0.85935,0.176 3.1022,0.378 10.109,1.182" inkscape:connector-curvature="0" style="stroke:#ffffff">
      <title id="title9400">Sheridan, WY</title>
    </path>
    <path id="c56019" d="m 339.75,158.82 0.46024,-3.6154 -0.20911,-0.0696 0.006,-0.18831 -0.24368,-0.0867 -0.0132,-0.23128 -0.14603,-0.0438 0.0487,-0.25714 0.2284,-0.0345 0.16589,-0.15168 -0.0216,-0.15558 -0.19738,-0.0814 0.14636,-0.38214 -0.15274,-0.21187 -0.12712,0.0956 -0.21681,-0.12217 0.10352,-0.34 -0.0887,-0.46814 0.11633,-0.2503 -0.25525,-0.13499 -0.0246,0.18534 -0.3122,0.0989 -0.29939,-0.0933 -0.0303,-0.17017 -0.28658,-0.0933 -0.005,-0.18298 -0.38909,-0.0805 0.085,-0.36236 -0.0559,-0.17017 0.12344,-0.0805 0.0978,-0.31111 -0.49159,-0.54176 0.0978,-0.24705 -0.13282,-0.27267 -0.45315,-0.0164 -0.13368,-0.18493 0.0535,-0.27343 15.46,1.9394 0.009,-0.1 4.0739,0.377 2.4416,0.21287 -0.0857,0.97996 -0.18307,-0.0148 -0.81788,8.0902 0.18773,0.0332 -0.73537,7.9853 -0.24962,0.003 -0.77078,7.4793 -0.7427,-0.0699 -8.4383,-0.852 -8.7355,-0.99814 0.0232,-0.176 0.14855,-1.3114 -0.0855,-0.0307 0.72626,-5.9528 -0.20992,-0.0237 0.83437,-8.011 -0.29774,-0.03" inkscape:connector-curvature="0" style="stroke:#ffffff">
      <title id="title9403">Johnson, WY</title>
    </path>
    <path id="c56025" d="m 331.61,173.31 7.031,0.873 -0.0232,0.176 8.7355,0.99814 8.4383,0.852 -0.0321,0.947 -0.5905,4.676 -1.1249,10.929 -0.17269,-0.0168 -0.76888,7.9065 -9.6056,-1.0767 -5.0544,-0.624 -9.5152,-1.157 -0.37984,-0.04 0.90635,-7.9453 0.71841,0.0911 1.0116,-7.9578 -0.28807,-0.0629 0.57211,-3.9242 0.4582,-3.955 -0.38496,-0.0679 0.0688,-0.62028" inkscape:connector-curvature="0" style="stroke:#ffffff">
      <title id="title9406">Natrona, WY</title>
    </path>
    <path id="c56007" d="m 328.92,197.79 9.5152,1.157 5.0544,0.624 9.6056,1.0767 0.0392,0 -1.3777,14.209 -0.77911,7.632 -0.16759,2.003 -2.3873,-0.227 -1.9522,-0.249 -0.69175,6.259 -0.27278,2.862 -9.1836,-1.115 -7.8928,-0.928 -10.293,-1.243 1.1731,-9.105 -0.24485,-0.0626 0.78328,-5.9544 7.1208,0.932 0.30487,-1.904 0.99663,-7.975 -0.39994,-0.1027 0.56756,-3.9303 0.48137,-3.959" inkscape:connector-curvature="0" style="stroke:#ffffff">
      <title id="title9409">Carbon, WY</title>
    </path>
    <path id="c56001" d="m 353.14,200.65 8.6945,0.99553 -0.066,0.561 -0.30558,-0.0614 -0.10349,0.67957 -0.6242,-0.0532 -0.187,1.6265 0.32568,0.0513 -0.0127,0.36084 3.5875,0.2852 0.0865,-0.71429 0.27172,0.0435 0.12015,-1.2363 0.3054,0.0267 0.097,-0.66803 0.28407,-0.002 0.058,-0.51948 0.74305,-0.0142 -0.73074,7.9279 0.14497,0.0465 -0.25039,3.1944 -0.49663,4.8243 -0.11965,-0.008 -0.13648,1.9622 -1.3946,15.053 -15.686,-1.607 -2.2339,-0.265 0.27278,-2.862 0.69175,-6.259 1.9522,0.249 2.3873,0.227 0.16759,-2.003 0.77911,-7.632 1.3777,-14.209" inkscape:connector-curvature="0" style="stroke:#ffffff">
      <title id="title9412">Albany, WY</title>
    </path>
    <path id="c56045" d="m 384.98,163.14 5.6802,0.515 -0.0784,0.898 -0.57051,6.606 -0.67571,8.06 -14.308,-1.175 -2.981,-0.256 0.71869,-7.5556 -0.12722,-0.0132 0.40291,-4.0548 0.11149,0.008 0.36863,-4.0548 z" inkscape:connector-curvature="0" style="stroke:#ffffff">
      <title id="title9415">Weston, WY</title>
    </path>
    <path id="c56011" d="m 375.16,143.29 1.1457,0.10895 15.903,1.503 -1.544,18.756 -5.6802,-0.516 -11.483,-1.0215 1.1023,-13.93 0.22653,-0.0313 0.2086,-2.2071 -0.20009,-0.0818 0.32099,-2.5714" inkscape:connector-curvature="0" style="stroke:#ffffff">
      <title id="title9418">Crook, WY</title>
    </path>
    <path id="c56005" d="m 360.1,141.93 3.0873,0.16008 11.967,1.201 -0.32099,2.5714 0.20009,0.0818 -0.2086,2.2071 -0.22653,0.0313 -1.1023,13.93 -0.36259,4.0582 -0.10546,-0.004 -0.39687,4.0582 0.13024,0.0149 -0.71567,7.5573 -15.517,-1.521 0.77078,-7.4793 0.24962,-0.002 0.73537,-7.9858 -0.18773,-0.0322 0.81788,-8.0912 0.18307,0.0158 0.0862,-0.98416 0.83272,-7.0393 -0.1479,-0.0802 0.23083,-2.6813" inkscape:connector-curvature="0" style="stroke:#ffffff">
      <title id="title9421">Campbell, WY</title>
    </path>
    <path id="c56009" d="m 356.53,176.29 15.517,1.5071 2.981,0.256 -0.2817,3.334 -0.99662,10.576 -0.16046,2.58 -0.36014,4.01 -3.1141,-0.314 -3.2216,-0.248 -0.4806,4.0268 -0.74305,0.0142 -0.058,0.51948 -0.28407,0.002 -0.097,0.66803 -0.3054,-0.0267 -0.12015,1.2363 -0.27172,-0.0435 -0.0865,0.71429 -3.5875,-0.2852 0.0127,-0.36084 -0.32568,-0.0513 0.187,-1.6265 0.6242,0.0532 0.10349,-0.67957 0.30558,0.0614 0.066,-0.561 -8.6945,-0.99553 -0.0392,0 0.76888,-7.9065 0.17269,0.0168 1.1249,-10.929 0.5905,-4.676 0.0321,-0.947 0.7427,0.0699" inkscape:connector-curvature="0" style="stroke:#ffffff">
      <title id="title9424">Converse, WY</title>
    </path>
    <path id="c56027" d="m 389.34,179.22 -0.95562,11.562 -0.75594,8.959 -3.1753,-0.28 -4.0721,-0.308 -2.8847,-0.253 -4.2634,-0.355 0.36014,-4.01 0.16046,-2.58 0.99662,-10.576 0.2817,-3.334 14.308,1.175" inkscape:connector-curvature="0" style="stroke:#ffffff">
      <title id="title9427">Niobrara, WY</title>
    </path>
    <path id="c56031" d="m 373.23,198.55 4.2634,0.355 -1.9701,22.03 -10.699,-0.97312 0.13648,-1.9622 0.11965,0.008 0.49663,-4.8243 0.25039,-3.1944 -0.14497,-0.0465 0.73074,-7.9279 0.4806,-4.0268 3.2216,0.248 3.1141,0.314" inkscape:connector-curvature="0" style="stroke:#ffffff">
      <title id="title9430">Platte, WY</title>
    </path>
    </g>
  </svg>
