<svg xmlns:dc="http://purl.org/dc/elements/1.1/" xmlns:cc="http://creativecommons.org/ns#" xmlns:rdf="http://www.w3.org/1999/02/22-rdf-syntax-ns#" xmlns:svg="http://www.w3.org/2000/svg" xmlns="http://www.w3.org/2000/svg" xmlns:sodipodi="http://sodipodi.sourceforge.net/DTD/sodipodi-0.dtd" xmlns:inkscape="http://www.inkscape.org/namespaces/inkscape" width="19.11932000000013" height="31.712260000000015" version="1.0" id="svg2" inkscape:version="0.91 r13725" sodipodi:docname="USA counties.svg">
  <defs id="defs9439"/>
  <sodipodi:namedview pagecolor="#ffffff" bordercolor="#666666" borderopacity="1" objecttolerance="10" gridtolerance="10" guidetolerance="10" inkscape:pageopacity="0" inkscape:pageshadow="2" inkscape:window-width="798" inkscape:window-height="828" id="namedview9437" showgrid="false" showguides="true" inkscape:zoom="0.64950808" inkscape:cx="494.98999" inkscape:cy="313.535" inkscape:window-x="-7" inkscape:window-y="0" inkscape:window-maximized="0" inkscape:current-layer="svg2"/>
  <metadata id="metadata4">
    <rdf:RDF>
      <cc:Work>
        <dc:format>image/svg+xml</dc:format>
        <dc:type rdf:resource="http://purl.org/dc/dcmitype/StillImage"/>
        <dc:title/>
        <cc:license rdf:resource="http://creativecommons.org/publicdomain/zero/1.0/"/>
        <dc:date>2019-10-06</dc:date>
        <dc:creator>
          <cc:Agent>
            <dc:title>U.S. Census Bureau, Abe.suleiman, Lokal_Profil</dc:title>
          </cc:Agent>
        </dc:creator>
        <dc:source>https://commons.wikimedia.org/wiki/File:Usa_counties_large.svg</dc:source>
      </cc:Work>
      <cc:License rdf:about="http://creativecommons.org/publicdomain/zero/1.0/">
        <cc:permits rdf:resource="http://creativecommons.org/ns#Reproduction"/>
        <cc:permits rdf:resource="http://creativecommons.org/ns#Distribution"/>
        <cc:permits rdf:resource="http://creativecommons.org/ns#DerivativeWorks"/>
      </cc:License>
    </rdf:RDF>
  </metadata>
  <style id="style6">
  /*
   * Below are Cascading Style Sheet (CSS) definitions in use in this file,
   * which allow easily changing how counties are displayed.
   *
   *
   * For the U.S. Census county codes (FIPS codes) used in this file to identify individual counties, see this link:
   * https://www2.census.gov/geo/docs/reference/codes/files/national_county.txt
   *
   * The county codes used in this file combine the 2-digit state code, which is in the second column of the file
   * linked above, and the 3-digit county code, which is in the third column of the file linked above. Each value
   * for the "id" attribute for each county is in the following form: "c[state_code][county-code]". For example,
   * for Loving Country in Texas, the state code is "48" and the county code is "301", so the id name for the
   * county is "c48301".
   *
   * County codes used in this file can also be found on Wikimedia Commons at this link:
   * https://commons.wikimedia.org/wiki/File_talk:Usa_counties_large.svg/county_codes
   *
   * Examples:
   *
   * To color two counties red (in this case Loving County and Dallas County in Texas) simply
   * go to the CSS insertion point and add:
   *
   * #c48301, #c48113 {fill:red}
   *
   * To color an entire state's counties (in the case New Mexico, with "35" being the state code) a green,
   * go to the CSS insertion point and add:
   *
   * path[id*='c35'] {fill:#34A853}
   *
   */
  #counties {fill:#d0d0d0;stroke:#000;stroke-width:.17829;} 
  #borders {fill:none;stroke:#221e1f;stroke-width:.89143;} 
  #separator {fill:none;stroke:#a9a9a9;stroke-width:2.3177309;}
 </style>
  <g id="counties" transform="translate(-875.6587400000001,-231.27973999999995)" style="fill:#d0d0d0;stroke:#ffffff;stroke-width:0.17828999">
    <path id="c10003" transform="translate(0,-0.10698)" d="m 879.7,231.28 -0.20704,0.0117 -0.21289,0.0254 -0.21484,0.0371 -0.21875,0.0508 -0.22266,0.0664 -0.22656,0.0801 -0.27734,0.1269 -0.25977,0.1387 -0.24414,0.1504 -0.22656,0.1621 -0.21094,0.1719 -0.1953,0.1816 -0.1797,0.1934 -0.1641,0.20311 -0.1485,0.21289 -0.1348,0.22071 -0.1211,0.23242 -0.1074,0.24023 -0.0938,0.25 -0.0801,0.25782 -0.0684,0.26562 -0.0547,0.27539 -0.17187,0.0508 0.1875,0.70117 0.0176,0.11914 0.0215,0.11719 0.0274,0.11133 0.0624,0.21484 0.0351,0.10547 0.0371,0.10742 0.0352,0.10938 1.166,4.3594 0.47461,1.7774 0.50586,1.7988 3.0742,-1.1035 0.2168,-0.80078 0.64648,-0.58594 -1.0996,-1.5059 -0.67578,-0.52929 -0.17969,-0.64258 0.16861,-1.7285 -1.028,-0.55275 -0.11514,-0.56255 0.078,-0.28513 0.15039,-0.375 0.41797,-0.39648 0.36328,-0.75782 0.19336,-0.90234 0.62109,-1.2891 0.58789,-0.70703 -0.1875,-0.0723 -0.1875,-0.0664 -0.18945,-0.0625 -0.19141,-0.0527 -0.19335,-0.0488 -0.19532,-0.0391 -0.19726,-0.0293 -0.19922,-0.0215 -0.20313,-0.01 z m 0.20791,4.8527 0.0845,0.46295 0.3073,-0.0308 -0.125,-0.561 z" inkscape:connector-curvature="0" style="stroke:#ffffff">
      <title id="title964">New Castle, DE</title>
    </path>
    <path id="c10005" d="m 882.38,259.09 -1.223,-4.356 2.4229,-0.633 1.0038,-0.909 0.0606,-0.346 0.29239,-0.69 1.3978,-0.996 1.3407,-0.747 0.14441,0.618 0.19255,0.232 1.601,1.28 0.9057,0.69 0.63648,0.248 0.47424,0.09 0.35301,-0.1 0.24782,-0.193 0.041,-0.137 0.44928,0.94 1.0768,3.145 0.78803,2.706 0.19255,0.786 -5.1008,1.115 -0.25852,0.06 -0.6757,0.153 -0.28348,0.05 -0.24425,0.05 -0.066,0.01 -0.895,0.167 -0.36727,0.07 -1.5671,0.3 -0.0642,0 -1.2284,0.209 -0.54021,0.09 -0.20682,-0.726 -0.19255,-0.657 -0.24068,-0.867 -0.46712,-1.665" inkscape:connector-curvature="0" style="stroke:#ffffff">
      <title id="title967">Sussex, DE</title>
    </path>
    <path id="c10001" d="m 878.23,244.3 3.0729,-1.103 0.21804,-0.80091 0.64563,-0.58712 1.519,0.9 0.77198,0.99 0.14441,0.208 0.42433,1.091 0.0499,0.378 -0.13823,0.62334 0.65485,2.2955 1.0003,0.46585 0.68265,0.57138 0.40346,1.076 -1.3407,0.747 -1.3978,0.996 -0.29239,0.69 -0.0606,0.346 -1.0038,0.909 -2.4229,0.633 -2.6101,-9.296 -0.32091,-1.133" inkscape:connector-curvature="0" style="stroke:#ffffff">
      <title id="title970">Kent, DE</title>
    </path>
    </g>
  </svg>
