<svg xmlns:dc="http://purl.org/dc/elements/1.1/" xmlns:cc="http://creativecommons.org/ns#" xmlns:rdf="http://www.w3.org/1999/02/22-rdf-syntax-ns#" xmlns:svg="http://www.w3.org/2000/svg" xmlns="http://www.w3.org/2000/svg" xmlns:sodipodi="http://sodipodi.sourceforge.net/DTD/sodipodi-0.dtd" xmlns:inkscape="http://www.inkscape.org/namespaces/inkscape" width="76.49840000000006" height="87.45736000000005" version="1.0" id="svg2" inkscape:version="0.91 r13725" sodipodi:docname="USA counties.svg">
  <defs id="defs9439"/>
  <sodipodi:namedview pagecolor="#ffffff" bordercolor="#666666" borderopacity="1" objecttolerance="10" gridtolerance="10" guidetolerance="10" inkscape:pageopacity="0" inkscape:pageshadow="2" inkscape:window-width="798" inkscape:window-height="828" id="namedview9437" showgrid="false" showguides="true" inkscape:zoom="0.64950808" inkscape:cx="494.98999" inkscape:cy="313.535" inkscape:window-x="-7" inkscape:window-y="0" inkscape:window-maximized="0" inkscape:current-layer="svg2"/>
  <metadata id="metadata4">
    <rdf:RDF>
      <cc:Work>
        <dc:format>image/svg+xml</dc:format>
        <dc:type rdf:resource="http://purl.org/dc/dcmitype/StillImage"/>
        <dc:title/>
        <cc:license rdf:resource="http://creativecommons.org/publicdomain/zero/1.0/"/>
        <dc:date>2019-10-06</dc:date>
        <dc:creator>
          <cc:Agent>
            <dc:title>U.S. Census Bureau, Abe.suleiman, Lokal_Profil</dc:title>
          </cc:Agent>
        </dc:creator>
        <dc:source>https://commons.wikimedia.org/wiki/File:Usa_counties_large.svg</dc:source>
      </cc:Work>
      <cc:License rdf:about="http://creativecommons.org/publicdomain/zero/1.0/">
        <cc:permits rdf:resource="http://creativecommons.org/ns#Reproduction"/>
        <cc:permits rdf:resource="http://creativecommons.org/ns#Distribution"/>
        <cc:permits rdf:resource="http://creativecommons.org/ns#DerivativeWorks"/>
      </cc:License>
    </rdf:RDF>
  </metadata>
  <style id="style6">
  /*
   * Below are Cascading Style Sheet (CSS) definitions in use in this file,
   * which allow easily changing how counties are displayed.
   *
   *
   * For the U.S. Census county codes (FIPS codes) used in this file to identify individual counties, see this link:
   * https://www2.census.gov/geo/docs/reference/codes/files/national_county.txt
   *
   * The county codes used in this file combine the 2-digit state code, which is in the second column of the file
   * linked above, and the 3-digit county code, which is in the third column of the file linked above. Each value
   * for the "id" attribute for each county is in the following form: "c[state_code][county-code]". For example,
   * for Loving Country in Texas, the state code is "48" and the county code is "301", so the id name for the
   * county is "c48301".
   *
   * County codes used in this file can also be found on Wikimedia Commons at this link:
   * https://commons.wikimedia.org/wiki/File_talk:Usa_counties_large.svg/county_codes
   *
   * Examples:
   *
   * To color two counties red (in this case Loving County and Dallas County in Texas) simply
   * go to the CSS insertion point and add:
   *
   * #c48301, #c48113 {fill:red}
   *
   * To color an entire state's counties (in the case New Mexico, with "35" being the state code) a green,
   * go to the CSS insertion point and add:
   *
   * path[id*='c35'] {fill:#34A853}
   *
   */
  #counties {fill:#d0d0d0;stroke:#000;stroke-width:.17829;} 
  #borders {fill:none;stroke:#221e1f;stroke-width:.89143;} 
  #separator {fill:none;stroke:#a9a9a9;stroke-width:2.3177309;}
 </style>
  <g id="counties" transform="translate(-714.08,-198.753)" style="fill:#d0d0d0;stroke:#ffffff;stroke-width:0.17828999">
    <path id="c39155" d="m 787.33,209.65 0.0428,0.25 1.3407,8.123 -8.1798,1.312 -0.8023,-4.889 -0.59547,-3.51 8.1941,-1.286" inkscape:connector-curvature="0" style="stroke:#ffffff">
      <title id="title6145">Trumbull, OH</title>
    </path>
    <path id="c39007" d="m 786.03,201.67 1.3086,7.987 -8.1941,1.286 -0.7809,-4.878 -0.49742,-3.197 7.686,-4.115 0.47781,2.917" inkscape:connector-curvature="0" style="stroke:#ffffff">
      <title id="title6148">Ashtabula, OH</title>
    </path>
    <path id="c39087" d="m 759.85,275.97 1.3264,-0.08 0.0856,1.52 1.6278,-0.15498 0.0509,0.64163 0.40633,0.0197 0.0732,1.3746 2.0722,-0.1802 0.30168,2.1952 1.3336,-0.135 -0.007,1.005 -0.007,0.05 -0.0802,1.648 -0.0321,0.167 -0.0321,0.153 -0.30947,0.47668 -0.82453,0.31568 -0.61454,-0.032 -1.491,0.81495 -1.032,0.4411 -0.63191,-0.19913 -1.383,-2.1153 -2.8668,-1.116 1.0911,-0.699 -0.42136,-1.0336 -0.13262,-0.87817 1.0668,-0.12298 -0.15483,-1.6556 0.66014,-0.1643 -0.075,-2.2553" inkscape:connector-curvature="0" style="stroke:#ffffff">
      <title id="title6151">Lawrence, OH</title>
    </path>
    <path id="c39145" d="m 748.4,273.65 0.79264,0.37665 0.38762,0.74635 3.7672,-0.398 3.416,-0.283 0.9574,-0.07 0.12462,2.1121 0.36742,-0.0461 1.6385,-0.114 0.075,2.2553 -0.66014,0.1643 0.15483,1.6556 -1.0668,0.12298 0.13261,0.87817 0.42137,1.0336 -1.0911,0.699 -0.0802,-0.04 -0.3851,-0.257 -0.0178,-0.03 -0.14442,-0.169 -0.11945,-0.255 -0.041,-0.09 -0.49921,-1.502 -0.16937,-0.724 0.0178,-0.278 -0.009,-0.01 0,-0.02 -0.0143,-0.163 -0.0339,-0.137 -0.007,-0.03 -0.009,-0.03 -0.0303,-0.06 -0.0481,-0.07 -0.0232,-0.04 -0.082,-0.09 -0.18364,-0.08 -0.1123,0 -0.48494,0.213 -1.4869,0.673 -0.31914,0.145 -1.3246,1.309 -0.30431,1.2179 -1.7073,0.25222 -0.72337,0.63486 -1.0751,-9.513" inkscape:connector-curvature="0" style="stroke:#ffffff">
      <title id="title6154">Scioto, OH</title>
    </path>
    <path id="c39001" d="m 748.4,273.65 1.0751,9.513 -1.018,-0.763 -0.0428,-0.01 -0.60083,-0.282 -0.0481,-0.02 -1.9148,-0.46 -0.72028,-0.177 -0.025,0 -0.15154,-0.02 -0.21929,0.05 -1.3978,0.612 -0.18542,0.128 -0.13728,0.225 -0.0963,0.811 -1.0269,0.121 -0.57943,-8.887 0.96657,0.0121 3.9827,-1.4741 1.2664,-0.10226 0.87302,0.72826" inkscape:connector-curvature="0" style="stroke:#ffffff">
      <title id="title6157">Adams, OH</title>
    </path>
    <path id="c39131" d="m 746.39,269.67 10.038,-0.697 0.33518,5.117 -3.416,0.283 -3.7672,0.398 -0.38762,-0.74635 -0.79264,-0.37665 -0.87302,-0.72826 -1.2664,0.10226 0.13015,-3.354" inkscape:connector-curvature="0" style="stroke:#ffffff">
      <title id="title6160">Pike, OH</title>
    </path>
    <path id="c39079" d="m 756.71,268.02 1.9932,-0.144 0.0431,0.39098 2.0144,-0.18398 0.10822,0.84332 1.9974,-0.14232 0.15154,2.387 0.1915,4.5604 -2.0296,0.16257 -1.3264,0.08 -1.6385,0.114 -0.36742,0.0461 -0.12462,-2.1121 -0.9574,0.07 -0.33518,-5.117 0.36583,-0.0263 -0.0859,-0.92975" inkscape:connector-curvature="0" style="stroke:#ffffff">
      <title id="title6163">Jackson, OH</title>
    </path>
    <path id="c39053" d="m 765.01,271.05 0.0267,0.338 4.0471,-0.353 0.0892,1.043 -0.35654,1.3438 -0.25498,0.35095 0.005,0 0.20486,0.71432 -0.0866,0.63721 -0.54204,0.58761 -0.51741,0.3752 -0.0418,0.46301 0.436,0.441 0.18931,0.57821 0.3162,0.42721 -0.1326,0.76881 0.58401,1.27 -0.15439,0.65961 -0.48075,0.29264 -0.95936,-0.0768 -0.25965,0.24121 -1.3336,0.135 -0.30168,-2.1952 -2.0722,0.18019 -0.0732,-1.3746 -0.40633,-0.0197 -0.0509,-0.64163 -1.6278,0.15498 -0.0856,-1.52 2.0296,-0.16257 -0.1915,-4.5604 2.0004,-0.114" inkscape:connector-curvature="0" style="stroke:#ffffff">
      <title id="title6166">Gallia, OH</title>
    </path>
    <path id="c39105" d="m 765.38,266.87 9.1675,-0.795 0.25733,0.95418 0.0805,1.1703 -0.46937,0.40138 -0.63156,0.0762 0.0874,0.313 0.19255,0.252 0.61309,0.40438 0.32542,0.52738 -0.29838,1.0002 0.42065,0.30488 0.0589,0.53743 -0.58984,0.19985 -0.71903,-0.39442 -0.15641,0.35294 -0.20808,1.0764 -0.89662,0.36071 -0.59427,-0.3921 -0.0642,-0.178 0.43812,-0.81403 -0.79983,-1.1684 -0.65553,0.11682 -0.009,0 -0.53115,-0.74639 -0.34364,-0.0586 -0.31868,0.89485 -0.50144,0.49415 -0.0553,0.32 -0.0892,-1.043 -4.0471,0.353 -0.0267,-0.338 -0.23238,-4.1306 0.59609,-0.0474" inkscape:connector-curvature="0" style="stroke:#ffffff">
      <title id="title6169">Meigs, OH</title>
    </path>
    <path id="c39163" d="m 756.44,264.3 1.995,-0.131 2.0396,-0.472 -0.0321,-0.612 3.9687,-0.296 0.13728,2.072 0.67393,-0.06 0.15511,2.066 -0.59609,0.0474 0.23238,4.1306 -2.0004,0.114 -0.15154,-2.387 -1.9974,0.14232 -0.10822,-0.84332 -2.0144,0.18398 -0.0431,-0.39098 -1.9932,0.144 -0.26565,-3.711" inkscape:connector-curvature="0" style="stroke:#ffffff">
      <title id="title6172">Vinton, OH</title>
    </path>
    <path id="c39167" d="m 781.18,255.07 0.30462,-0.0481 0.0754,0.5631 4.0236,-0.419 0.0802,0.731 -1.092,2.1562 -0.23267,0.42748 -0.70217,0.33358 -0.41144,0.61617 -0.16549,0.72393 -0.75571,-0.0273 -1.7216,1.514 -0.51657,-0.1381 -0.50444,-0.93337 -0.31833,-0.31636 -0.20147,-0.02 -0.33743,0.0942 -0.46015,0.84476 -0.93392,0.84113 0.0478,1.7264 -1.6012,0.10916 -0.36444,0.236 -0.11075,0.64826 -0.0306,0.451 -0.39508,0.20072 -0.1355,-1.44 -1.6955,0.192 -0.15899,-0.67497 -0.25967,0.0129 -0.0415,-0.30586 -0.30999,0.0129 -0.30843,-3.045 0.38109,-0.0631 -0.12182,-0.98017 1.9786,-0.0927 -0.0922,-1.1281 -0.35849,0.0257 -0.0331,-1.2464 0.41068,-0.24058 1.8307,-0.0927 1.9516,-0.37039 -0.17181,-1.368 0.28422,-0.0141 0.10272,0.31643 0.70734,-0.1068 0.0643,0.3507 0.29613,-0.0524 0.0543,0.29024 0.64051,-0.0854 0.0705,0.19966 1.2818,-0.15663 -0.0436,-0.25638" inkscape:connector-curvature="0" style="stroke:#ffffff">
      <title id="title6175">Washington, OH</title>
    </path>
    <path id="c39009" d="m 766.11,258.51 1.9701,-0.151 0.19749,2.1297 3.6731,-0.3467 0.30843,3.045 0.30999,-0.0129 0.0415,0.30586 0.25967,-0.0129 0.15899,0.67497 1.6955,-0.192 0.1355,1.44 -0.312,0.69 -9.1675,0.795 -0.15511,-2.066 -0.67393,0.06 -0.27277,-4.122 1.9932,-0.144 -0.16224,-2.09" inkscape:connector-curvature="0" style="stroke:#ffffff">
      <title id="title6178">Athens, OH</title>
    </path>
    <path id="c39073" d="m 762.03,256.8 0.0832,1.3861 2.1064,-0.0834 0.12578,0.57683 1.7656,-0.16856 0.16224,2.09 -1.9932,0.144 0.13549,2.05 -3.9687,0.296 0.0321,0.612 -2.0396,0.472 -1.995,0.131 -0.18363,-2.316 -0.12124,-2.001 0.005,-0.20643 1.9844,-0.12584 -0.0676,-1.089 2.0362,-0.2545 -0.0996,-1.3852 2.0325,-0.128" inkscape:connector-curvature="0" style="stroke:#ffffff">
      <title id="title6181">Hocking, OH</title>
    </path>
    <path id="c39141" d="m 746.92,262.15 4.5374,-0.392 0.3958,0.312 0.22464,0.242 4.1808,-0.322 0.18363,2.316 0.26565,3.711 0.0859,0.92975 -0.36583,0.0263 -10.038,0.697 -0.07,-1.1539 -0.64501,-0.023 -0.07,-0.84723 -0.10829,-2.0549 1.4227,-3.441" inkscape:connector-curvature="0" style="stroke:#ffffff">
      <title id="title6184">Ross, OH</title>
    </path>
    <path id="c39071" d="m 741.67,266.06 3.8225,-0.474 0.10829,2.0549 0.07,0.84723 0.64501,0.023 0.07,1.1539 -0.13015,3.354 -3.9827,1.4741 -0.96657,-0.0121 -3.5033,0.433 -0.55269,-5.208 0.54904,-0.0489 0.0698,0.60282 0.49154,-0.0298 0.21701,-0.87745 3.0923,-3.2927" inkscape:connector-curvature="0" style="stroke:#ffffff">
      <title id="title6187">Highland, OH</title>
    </path>
    <path id="c39015" d="m 734.99,269.84 2.2589,-0.13 0.55269,5.208 3.5033,-0.433 0.57943,8.887 -1.3906,-0.69 -1.5671,-1.622 -0.11232,-0.09 -0.21751,-0.08 -0.60975,-0.08 -2.6369,0.281 -0.36014,-11.25" inkscape:connector-curvature="0" style="stroke:#ffffff">
      <title id="title6190">Brown, OH</title>
    </path>
    <path id="c39025" d="m 734.75,269.84 0.24247,0 0.36014,11.25 -3.3019,-0.939 -0.16937,-1.054 -1.9522,-3.198 -0.0713,-3.552 0.4303,-0.69802 -0.71377,-0.074 0.70067,-1.526 4.475,-0.209" inkscape:connector-curvature="0" style="stroke:#ffffff">
      <title id="title6193">Clermont, OH</title>
    </path>
    <path id="c39061" d="m 728.57,269.76 1.7044,0.289 -0.70067,1.526 0.71377,0.074 -0.4303,0.69802 0.0713,3.552 -3.4873,-1.286 -2.0093,0.733 -3.5515,-0.305 -0.52951,-4.598 2.9007,-0.337 1.2944,-0.235 3.3447,-0.152 0.67927,0.04" inkscape:connector-curvature="0" style="stroke:#ffffff">
      <title id="title6196">Hamilton, OH</title>
    </path>
    <path id="c39027" d="m 739.78,262.3 1.6619,-0.0809 0.23505,3.843 -3.0923,3.2927 -0.21701,0.87745 -0.49154,0.0298 -0.0698,-0.60282 -0.54904,0.0489 -2.2589,0.13 -0.24247,0 -0.39223,-7.277 5.4164,-0.261" inkscape:connector-curvature="0" style="stroke:#ffffff">
      <title id="title6199">Clinton, OH</title>
    </path>
    <path id="c39165" d="m 731.94,262.65 2.4194,-0.09 0.39223,7.277 -4.475,0.209 -1.7044,-0.289 -0.3602,-5.7309 -0.55895,0.14163 -0.13274,-1.2317 4.4197,-0.284" inkscape:connector-curvature="0" style="stroke:#ffffff">
      <title id="title6202">Warren, OH</title>
    </path>
    <path id="c39017" d="m 725.53,263.17 1.9861,-0.23 0.13274,1.2317 0.55895,-0.14163 0.3602,5.7309 -0.67927,-0.04 -3.3447,0.152 -1.2944,0.235 -2.9007,0.337 -0.51346,-4.999 -0.12124,-1.043 5.915,-0.71071 -0.0992,-0.52129" inkscape:connector-curvature="0" style="stroke:#ffffff">
      <title id="title6205">Butler, OH</title>
    </path>
    <path id="c39135" d="m 724.49,255.63 1.043,7.535 0.0992,0.52129 -5.915,0.71071 -0.41897,-3.666 -0.48851,-4.386 5.6802,-0.715" inkscape:connector-curvature="0" style="stroke:#ffffff">
      <title id="title6208">Preble, OH</title>
    </path>
    <path id="c39113" d="m 725.53,255.48 4.6676,-0.658 -0.14442,0.282 0.10341,0.362 0.13015,0.218 1.8702,-0.1 0.0428,0.674 -0.003,0.4517 -0.54757,-0.0189 0.29223,5.9622 -4.4197,0.284 -1.9861,0.23 -1.043,-7.535 1.0376,-0.155" inkscape:connector-curvature="0" style="stroke:#ffffff">
      <title id="title6211">Montgomery, OH</title>
    </path>
    <path id="c39057" d="m 739.5,257.13 0.066,1.308 0.2086,3.865 -5.4164,0.261 -2.4194,0.09 -0.29223,-5.9622 0.54757,0.0189 0.003,-0.4517 1.2427,-0.06 0.75594,0.02 0.0551,0.39968 1.972,-0.22768 0.0303,0.577 1.6307,-0.0138 0.10217,0.37143 1.5137,-0.20365" inkscape:connector-curvature="0" style="stroke:#ffffff">
      <title id="title6214">Greene, OH</title>
    </path>
    <path id="c39047" d="m 739.57,258.44 7.0459,-0.433 0.30487,4.145 -1.4227,3.441 -3.8225,0.474 -0.23505,-3.843 -1.6619,0.0809 -0.2086,-3.865" inkscape:connector-curvature="0" style="stroke:#ffffff">
      <title id="title6217">Fayette, OH</title>
    </path>
    <path id="c39129" d="m 746.4,255.27 7.3436,-0.576 0.15333,2.296 0.26564,3.111 1.9683,-0.114 0.12124,2.001 -4.1808,0.322 -0.22464,-0.242 -0.3958,-0.312 -4.5374,0.392 -0.30487,-4.145 -0.20859,-2.733" inkscape:connector-curvature="0" style="stroke:#ffffff">
      <title id="title6220">Pickaway, OH</title>
    </path>
    <path id="c39045" d="m 754.01,251.27 5.5697,-0.571 0.14263,2.161 1.349,-0.06 0.21836,2.0274 0.59527,-0.0665 0.13728,2.033 -2.0325,0.128 0.0996,1.3852 -2.0362,0.2545 0.0676,1.089 -1.9844,0.12584 -0.005,0.20643 -1.9683,0.114 -0.26564,-3.111 -0.15333,-2.296 0.0664,-0.45816 0.34507,-0.0601 -0.16583,-2.1266 -0.32507,0.0363 -0.0862,-0.77313 0.43129,-0.0433" inkscape:connector-curvature="0" style="stroke:#ffffff">
      <title id="title6223">Fairfield, OH</title>
    </path>
    <path id="c39127" d="m 759.58,250.7 4.0257,-0.185 1.2813,-0.0561 0.18948,2.0365 1.6452,-0.16985 0.0985,1.0584 0.10724,1.0379 0.88221,-0.0147 0.2639,3.9528 -1.9701,0.151 -1.7656,0.16856 -0.12578,-0.57683 -2.1064,0.0834 -0.0832,-1.3861 -0.13728,-2.033 -0.59527,0.0665 -0.21836,-2.0274 -1.349,0.06 -0.14263,-2.161" inkscape:connector-curvature="0" style="stroke:#ffffff">
      <title id="title6226">Perry, OH</title>
    </path>
    <path id="c39111" d="m 781.04,248.95 1.9202,-0.234 4.0828,-0.362 1.2694,-0.144 0.23149,-0.046 -0.15898,0.3682 0.16258,0.75676 -0.62791,1.1185 0.7387,0.78355 0.0548,0.52195 -0.45062,0.20905 0.0735,1.3086 -0.35969,0.74303 -0.90124,0.14132 -1.4067,1.784 -0.0802,-0.731 -4.0236,0.419 -0.0754,-0.5631 -0.30462,0.0481 -0.32805,-2.321 -0.65788,0.09 -0.48494,-3.726 1.3265,-0.169" inkscape:connector-curvature="0" style="stroke:#ffffff">
      <title id="title6229">Monroe, OH</title>
    </path>
    <path id="c39121" d="m 780.8,247.03 0.23891,1.92 -1.3265,0.169 0.48494,3.726 0.65788,-0.09 0.32805,2.321 0.0435,0.25638 -1.2818,0.15663 -0.0705,-0.19966 -0.64051,0.0854 -0.0543,-0.29024 -0.29613,0.0524 -0.0643,-0.3507 -0.70734,0.1068 -0.10272,-0.31643 -0.28422,0.0141 0.17181,1.368 -1.9516,0.37039 -0.23855,-1.8436 -1.0077,0.0566 -0.26117,-1.9341 -0.98506,0.1471 -0.2389,-2.001 1.9843,-0.224 -0.16567,-1.3553 1.8724,-0.22256 -0.1073,-0.70082 1.5649,-0.18856 -0.19238,-0.60476 0.65075,-0.169 1.979,-0.255" inkscape:connector-curvature="0" style="stroke:#ffffff">
      <title id="title6232">Noble, OH</title>
    </path>
    <path id="c39115" d="m 766.82,253.38 6.6269,-0.633 0.98506,-0.1471 0.26117,1.9341 1.0077,-0.0566 0.23855,1.8436 -1.8307,0.0927 -0.41068,0.24058 0.0331,1.2464 0.35849,-0.0257 0.0922,1.1281 -1.9786,0.0927 0.12182,0.98017 -0.38109,0.0631 -3.6731,0.3467 -0.19749,-2.1297 -0.2639,-3.9528 -0.88221,0.0147 -0.10724,-1.0379" inkscape:connector-curvature="0" style="stroke:#ffffff">
      <title id="title6235">Morgan, OH</title>
    </path>
    <path id="c39119" d="m 763.57,244.59 8.1887,-0.877 0.54734,5.085 0.64896,-0.08 0.25852,2.034 0.2389,2.001 -6.6269,0.633 -0.0985,-1.0584 -1.6452,0.16985 -0.18948,-2.0365 -1.2813,0.0561 -0.12018,-0.80672 0.63362,-0.17856 -0.55444,-4.9427" inkscape:connector-curvature="0" style="stroke:#ffffff">
      <title id="title6238">Muskingum, OH</title>
    </path>
    <path id="c39013" d="m 786.11,241.3 3.1093,-0.451 0.24474,1.2712 -0.4838,0.77197 0.21775,0.31327 -0.0251,0.5696 -0.0787,0.54875 0.3009,0.95069 -0.32433,0.61574 0.32323,0.78321 -0.31317,0.25846 -0.61463,-0.0765 0.42373,0.8837 -0.34667,0.42593 -0.23149,0.046 -1.2694,0.144 -4.0828,0.362 -1.9202,0.234 -0.23891,-1.92 -0.6454,-5.032 5.9548,-0.699" inkscape:connector-curvature="0" style="stroke:#ffffff">
      <title id="title6241">Belmont, OH</title>
    </path>
    <path id="c39067" d="m 784.12,235.4 1.3175,-0.168 0.12837,0.997 -0.0553,0.144 0.5937,4.926 -5.9548,0.699 -2.0023,0.21936 -0.0944,-0.92536 -0.25674,-2.075 0.64362,-0.09 0.35301,-0.253 -0.34588,-2.79 5.6731,-0.685" inkscape:connector-curvature="0" style="stroke:#ffffff">
      <title id="title6244">Harrison, OH</title>
    </path>
    <path id="c39059" d="m 773.13,241.88 4.9243,-0.594 0.0944,0.92536 2.0023,-0.21936 0.6454,5.032 -1.979,0.254 -0.65075,0.17 0.19238,0.60476 -1.5649,0.18856 0.1073,0.70082 -1.8724,0.22256 0.16567,1.3553 -1.9843,0.224 -0.25852,-2.034 -0.64896,0.08 -0.54734,-5.085 0.62579,-0.08 0.14441,-0.1 -0.15155,-1.397 0.75594,-0.257" inkscape:connector-curvature="0" style="stroke:#ffffff">
      <title id="title6247">Guernsey, OH</title>
    </path>
    <path id="c39031" d="m 762.65,237.95 8.219,-0.956 0.20147,1.704 1.6616,-0.192 0.40293,3.382 -0.75594,0.257 0.15155,1.397 -0.14441,0.1 -0.62579,0.08 -8.1887,0.877 -0.11974,-1.6819 -0.27428,0.0489 -0.52773,-5.006" inkscape:connector-curvature="0" style="stroke:#ffffff">
      <title id="title6250">Coshocton, OH</title>
    </path>
    <path id="c39089" d="m 753.44,243.46 4.8138,-0.394 0.0392,0.435 1.9701,-0.169 2.9079,-0.378 0.27428,-0.0489 0.11974,1.6819 0.55444,4.9427 -0.63362,0.17856 0.12018,0.80672 -4.0257,0.185 -5.5697,0.571 -0.0475,-0.66351 0.24913,-0.0565 -0.45124,-3.603 -0.32091,-3.488" inkscape:connector-curvature="0" style="stroke:#ffffff">
      <title id="title6253">Licking, OH</title>
    </path>
    <path id="c39041" d="m 744.36,240.81 3.9544,-0.305 0.0434,0.34092 1.517,-0.0925 0.15171,1.2078 3.3156,-0.17918 0.0981,1.679 0.32091,3.488 -7.1119,0.579 -0.35301,-2.305 -1.3015,0.158 -0.44393,-2.988 -0.19077,-1.583" inkscape:connector-curvature="0" style="stroke:#ffffff">
      <title id="title6256">Delaware, OH</title>
    </path>
    <path id="c39049" d="m 753.76,246.95 0.45124,3.603 -0.24913,0.0565 0.0475,0.66351 -0.43129,0.0433 0.0862,0.77313 0.32507,-0.0363 0.16583,2.1266 -0.34507,0.0601 -0.0664,0.45816 -7.3436,0.576 -0.36352,-2.6485 -0.86631,-2.7628 1.0306,-0.0889 -0.0664,-1.3458 0.5767,-0.10669 -0.0632,-0.79231 7.1119,-0.579" inkscape:connector-curvature="0" style="stroke:#ffffff">
      <title id="title6259">Franklin, OH</title>
    </path>
    <path id="c39097" d="m 740.97,249.04 5.165,-0.613 0.0664,1.3458 -1.0306,0.0889 0.86631,2.7628 0.36352,2.6485 0.20859,2.733 -7.0459,0.433 -0.066,-1.308 1.0687,-0.0914 0.51444,-5.6806 -0.11053,-2.319" inkscape:connector-curvature="0" style="stroke:#ffffff">
      <title id="title6262">Madison, OH</title>
    </path>
    <path id="c39023" d="m 731.95,251.86 9.1372,-0.507 -0.51444,5.6806 -1.0687,0.0914 -1.5137,0.20365 -0.10217,-0.37143 -1.6307,0.0138 -0.0303,-0.577 -1.972,0.22768 -0.0551,-0.39968 -0.75594,-0.02 -1.2427,0.06 -0.0428,-0.674 -0.20859,-3.722" inkscape:connector-curvature="0" style="stroke:#ffffff">
      <title id="title6265">Clark, OH</title>
    </path>
    <path id="c39021" d="m 739.79,246.43 0.89812,-0.0913 0.28393,2.6963 0.11053,2.319 -9.1372,0.507 -0.29774,-5.408 4.0275,-0.21 0.0446,0.40934 4.0703,-0.22234" inkscape:connector-curvature="0" style="stroke:#ffffff">
      <title id="title6268">Champaign, OH</title>
    </path>
    <path id="c39109" d="m 724.63,249.11 7.135,-0.577 0.18364,3.332 0.20859,3.722 -1.8702,0.1 -0.13015,-0.218 -0.10341,-0.362 0.14442,-0.282 -4.6676,0.658 -0.90035,-6.37" inkscape:connector-curvature="0" style="stroke:#ffffff">
      <title id="title6271">Miami, OH</title>
    </path>
    <path id="c39149" d="m 724.16,245.49 -0.0796,-0.48789 1.6371,-0.28819 -0.30154,-2.3208 5.8309,-0.79409 0.40115,4.851 0.1141,2.076 -7.135,0.577 -0.47602,-3.608 0.01,0" inkscape:connector-curvature="0" style="stroke:#ffffff">
      <title id="title6274">Shelby, OH</title>
    </path>
    <path id="c39037" d="m 724.15,245.5 0.47602,3.608 0.90035,6.37 -1.0376,0.155 -5.6802,0.715 -0.2086,-2.034 -0.70958,-7.032 -0.11945,-0.977 6.3791,-0.805" inkscape:connector-curvature="0" style="stroke:#ffffff">
      <title id="title6277">Darke, OH</title>
    </path>
    <path id="c39107" d="m 722.86,237.95 1.0121,7.5752 0.29119,-0.0302 -0.01,0 -6.3791,0.805 -0.56874,-5.056 -0.42075,-3.583 5.9656,-0.69332 0.1086,0.97332" inkscape:connector-curvature="0" style="stroke:#ffffff">
      <title id="title6280">Mercer, OH</title>
    </path>
    <path id="c39011" d="m 723.87,237.82 2.9881,-0.396 0.0856,0.669 2.0088,-0.121 0.0152,0.28642 3.9094,-0.63242 0.31022,2.437 -2.117,0.3981 0.17368,1.1439 -5.8309,0.79409 0.30154,2.3208 -1.6371,0.28819 0.0796,0.48789 -0.29119,0.0302 -1.0121,-7.5752 1.0162,-0.127" inkscape:connector-curvature="0" style="stroke:#ffffff">
      <title id="title6283">Auglaize, OH</title>
    </path>
    <path id="c39091" d="m 733.19,240.06 0.72919,0.118 5.5412,-0.25 0.0392,0.121 0.2906,6.381 -4.0703,0.22234 -0.0446,-0.40934 -4.0275,0.21 -0.40115,-4.851 -0.17368,-1.1439 2.117,-0.3981" inkscape:connector-curvature="0" style="stroke:#ffffff">
      <title id="title6286">Logan, OH</title>
    </path>
    <path id="c39159" d="m 739.5,240.05 1.7436,-0.265 2.9081,-0.48962 0.21013,1.5106 0.19077,1.583 0.44393,2.988 1.3015,-0.158 0.35301,2.305 0.0632,0.79231 -0.5767,0.10669 -5.165,0.613 -0.28393,-2.6963 -0.89812,0.0913 -0.2906,-6.381" inkscape:connector-curvature="0" style="stroke:#ffffff">
      <title id="title6289">Union, OH</title>
    </path>
    <path id="c39101" d="m 750.25,233.9 0.16224,1.342 -1.6795,0.264 0.35361,3.5156 -0.85995,0.30837 0.0892,1.175 -3.9544,0.305 -0.21013,-1.5106 -2.9081,0.48962 -0.57586,-4.162 1.8884,-0.21125 -0.0453,-0.36667 3.4003,-0.50608 4.3395,-0.643" inkscape:connector-curvature="0" style="stroke:#ffffff">
      <title id="title6292">Marion, OH</title>
    </path>
    <path id="c39117" d="m 750.25,233.9 2.2268,-0.458 1.616,-0.15352 0.0692,0.8615 -0.35123,0.0643 0.1321,0.69268 0.40922,-0.0164 0.43175,1.9974 -0.45456,0.0538 0.0398,0.63064 0.30122,0.0555 0.37737,4.016 -1.7044,0.138 -3.3156,0.17918 -0.15171,-1.2078 -1.517,0.0925 -0.0434,-0.34092 -0.0892,-1.175 0.85995,-0.30837 -0.35361,-3.5156 1.6795,-0.264 -0.16224,-1.342" inkscape:connector-curvature="0" style="stroke:#ffffff">
      <title id="title6295">Morrow, OH</title>
    </path>
    <path id="c39083" d="m 761.65,235.47 0.78375,-0.29912 0.20752,2.7741 0.52773,5.006 -2.9079,0.378 -1.9701,0.169 -0.0392,-0.435 -4.8138,0.394 -0.0981,-1.679 1.7044,-0.138 -0.37737,-4.016 -0.30122,-0.0555 -0.0398,-0.63064 0.45456,-0.0538 4.91,-0.819 1.9594,-0.595" inkscape:connector-curvature="0" style="stroke:#ffffff">
      <title id="title6298">Knox, OH</title>
    </path>
    <path id="c39075" d="m 771.11,231.72 0.11232,0.765 -0.19433,0.192 0.51525,4.235 -0.67393,0.08 -8.219,0.956 -0.20752,-2.7741 -0.78375,0.29912 -0.27321,-2.2264 1.5515,-0.30561 8.1727,-1.221" inkscape:connector-curvature="0" style="stroke:#ffffff">
      <title id="title6301">Holmes, OH</title>
    </path>
    <path id="c39157" d="m 776.85,231.22 0.23355,1.949 0.98771,-0.11 0.72385,5.812 -0.35301,0.253 -0.64362,0.09 0.25674,2.075 -4.9243,0.594 -0.40293,-3.382 -1.6616,0.192 -0.20147,-1.704 0.67393,-0.08 -0.51525,-4.235 0.19433,-0.192 3.1653,-1.038 2.4668,-0.22301" inkscape:connector-curvature="0" style="stroke:#ffffff">
      <title id="title6304">Tuscarawas, OH</title>
    </path>
    <path id="c39019" d="m 780.52,228.86 2.7476,-0.55081 0.30095,1.8742 0.95051,-0.11777 0.236,1.0081 0.12604,0.98464 -1.1298,0.24849 0.33868,1.9476 -0.22426,0.0206 0.25207,1.1249 -5.6731,0.685 -0.37797,-3.022 -0.98771,0.11 -0.23355,-1.949 1.3175,-0.178 -0.20007,-1.6244 0.66215,-0.11182 -0.0199,-0.17678 1.9148,-0.273" inkscape:connector-curvature="0" style="stroke:#ffffff">
      <title id="title6307">Carroll, OH</title>
    </path>
    <path id="c39081" d="m 784.76,231.07 1.8038,-0.32598 0.14407,0.39996 1.5298,-0.11968 0.0346,0.27293 0.51482,0.42386 0.3323,0.39093 0.22254,0.55556 0.44508,0.50746 0.0944,0.56215 -0.16628,0.65819 0.10813,0.50727 -0.21234,0.35525 0.57434,0.41453 -0.006,0.55114 0.39221,0.72188 -0.21112,0.81295 0.11901,0.39177 -0.64368,0.61943 -0.15419,0.6422 -0.12005,0.7105 -0.34479,0.722 -3.1093,0.451 -0.5937,-4.926 0.0553,-0.144 -0.12837,-0.997 -1.3175,0.168 -0.25207,-1.1249 0.22426,-0.0206 -0.33868,-1.9476 1.1298,-0.24849 -0.12604,-0.98464" inkscape:connector-curvature="0" style="stroke:#ffffff">
      <title id="title6310">Jefferson, OH</title>
    </path>
    <path id="c39029" d="m 789.58,223.36 0.20324,1.105 0.79516,4.857 -0.58478,0.4255 -0.31983,0.31565 -0.37471,-0.0685 -0.61222,0.38434 -0.44758,0.64502 -1.5298,0.11968 -0.14407,-0.39996 -1.8038,0.32598 -0.236,-1.0081 -0.95051,0.11777 -0.30095,-1.8742 -2.7476,0.55081 -0.62757,-4.011 3.1202,-0.52679 -0.099,-0.83372 1.1972,-0.056 0.13897,0.71754 5.3237,-0.78603" inkscape:connector-curvature="0" style="stroke:#ffffff">
      <title id="title6313">Columbiana, OH</title>
    </path>
    <path id="c39151" d="m 774.36,223.72 5.2363,-0.812 0.93244,5.953 -1.9148,0.273 0.0199,0.17678 -0.66215,0.11182 0.20007,1.6244 -1.3175,0.178 -2.4668,0.22301 -3.1653,1.038 -0.93957,-6.406 3.8927,-0.52718 -0.35156,-1.7259 0.53627,-0.10691" inkscape:connector-curvature="0" style="stroke:#ffffff">
      <title id="title6316">Stark, OH</title>
    </path>
    <path id="c39169" d="m 769.33,224.48 0.68949,-0.11251 0.26078,1.7095 0.82725,5.641 -8.1727,1.221 -1.1517,-7.416 7.5469,-1.043" inkscape:connector-curvature="0" style="stroke:#ffffff">
      <title id="title6319">Wayne, OH</title>
    </path>
    <path id="c39005" d="m 760.83,224 0.19854,1.6013 0.75708,-0.0743 1.1517,7.416 -1.5515,0.30561 0.27321,2.2264 -1.9594,0.595 -0.61152,-3.938 -0.79713,0.0421 -0.32073,-1.7841 -0.54795,-0.18899 -0.15094,-1.38 -0.40827,-2.594 -0.25674,0.03 -0.298,-1.6708 1.7029,-0.23422 2.8187,-0.353" inkscape:connector-curvature="0" style="stroke:#ffffff">
      <title id="title6322">Ashland, OH</title>
    </path>
    <path id="c39139" d="m 751.6,226.91 4.9974,-0.652 0.25674,-0.03 0.40827,2.594 0.15094,1.38 0.54795,0.18899 0.32073,1.7841 0.79713,-0.0421 0.61152,3.938 -4.91,0.819 -0.43175,-1.9974 -0.40922,0.0164 -0.1321,-0.69268 0.35123,-0.0643 -0.0692,-0.8615 -1.616,0.15352 -0.87361,-6.533" inkscape:connector-curvature="0" style="stroke:#ffffff">
      <title id="title6325">Richland, OH</title>
    </path>
    <path id="c39033" d="m 751.6,226.91 0.87361,6.533 -2.2268,0.458 -4.3395,0.643 -0.92888,-6.662 4.828,-0.747 1.7936,-0.225" inkscape:connector-curvature="0" style="stroke:#ffffff">
      <title id="title6328">Crawford, OH</title>
    </path>
    <path id="c39175" d="m 739.73,228.62 5.2559,-0.74 0.92888,6.662 -3.4003,0.50608 0.0453,0.36667 -1.8884,0.21125 -0.35658,0.03 -0.11978,-0.30748 -0.87506,0.11548 -0.36192,-2.678 -0.34053,0.04 -0.29759,-1.8823 0.66882,-0.15645 -0.2045,-0.96082 0.36889,-0.0437 -0.11374,-1.0779 0.69063,-0.0897" inkscape:connector-curvature="0" style="stroke:#ffffff">
      <title id="title6331">Wyandot, OH</title>
    </path>
    <path id="c39065" d="m 732.36,233.6 6.2507,-0.772 0.34053,-0.04 0.36192,2.678 0.87506,-0.11548 0.11978,0.30748 0.35658,-0.03 0.57586,4.162 -1.7436,0.265 -0.0392,-0.121 -5.5412,0.25 -0.72919,-0.118 -0.82725,-6.461" inkscape:connector-curvature="0" style="stroke:#ffffff">
      <title id="title6334">Hardin, OH</title>
    </path>
    <path id="c39003" d="m 732.06,231.29 0.30309,2.307 0.51703,4.024 -3.9094,0.63242 -0.0152,-0.28642 -2.0088,0.121 -0.0856,-0.669 -2.9881,0.396 -0.33173,-2.8304 0.99134,-0.23716 -0.18715,-1.0565 3.9608,-0.48729 -0.0279,-1.0216 1.8395,-0.26691 -0.0172,-0.36023 1.9594,-0.265" inkscape:connector-curvature="0" style="stroke:#ffffff">
      <title id="title6337">Allen, OH</title>
    </path>
    <path id="c39063" d="m 731.32,225.61 7.8571,-0.997 0.54734,4.003 -0.69063,0.0897 0.11374,1.0779 -0.36889,0.0438 0.2045,0.96082 -0.66882,0.15645 0.29759,1.8823 -6.2507,0.772 -0.30309,-2.307 -0.73811,-5.682" inkscape:connector-curvature="0" style="stroke:#ffffff">
      <title id="title6340">Hancock, OH</title>
    </path>
    <path id="c39137" d="m 731.32,225.61 0.73811,5.682 -1.9594,0.265 0.0172,0.36023 -1.8395,0.26691 0.0279,1.0216 -3.9608,0.48729 -0.13196,-0.8291 -0.92579,0.17644 -0.31684,-2.2403 0.96136,-0.17734 -0.46038,-3.9687 1.9273,-0.251 5.9227,-0.793" inkscape:connector-curvature="0" style="stroke:#ffffff">
      <title id="title6343">Putnam, OH</title>
    </path>
    <path id="c39161" d="m 716.05,231.66 6.9175,-0.861 0.31684,2.2403 0.92579,-0.17644 0.13196,0.8291 0.18715,1.0565 -0.99134,0.23716 0.33173,2.8304 -1.0162,0.127 -0.1086,-0.97332 -5.9656,0.69332 -0.542,-4.468 -0.1872,-1.535" inkscape:connector-curvature="0" style="stroke:#ffffff">
      <title id="title6346">Van Wert, OH</title>
    </path>
    <path id="c39099" d="m 788.75,218.21 0.82904,5.151 -5.3237,0.78603 -0.13898,-0.71754 -1.1972,0.056 0.099,0.83372 -3.1202,0.52679 -0.30487,-1.942 1.4066,-0.22808 -0.45989,-3.3389 8.1798,-1.312 0.0303,0.185" inkscape:connector-curvature="0" style="stroke:#ffffff">
      <title id="title6349">Mahoning, OH</title>
    </path>
    <path id="c39133" d="m 773.12,215.47 6.6144,-1.022 0.8023,4.889 0.45989,3.3389 -1.4066,0.22808 -5.2363,0.812 -1.2409,-8.246 0.007,0" inkscape:connector-curvature="0" style="stroke:#ffffff">
      <title id="title6352">Portage, OH</title>
    </path>
    <path id="c39153" d="m 773.11,215.47 1.2409,8.246 -0.53627,0.10691 0.35156,1.7259 -3.8927,0.52718 -0.26078,-1.7095 -0.68949,0.11251 -0.9467,-6.615 2.0325,-0.321 -0.52238,-0.941 -0.29061,-0.649 3.514,-0.483" inkscape:connector-curvature="0" style="stroke:#ffffff">
      <title id="title6355">Summit, OH</title>
    </path>
    <path id="c39103" d="m 768.38,217.87 0.9467,6.615 -7.5469,1.043 -0.75708,0.0743 -0.19854,-1.6013 -0.21572,-1.686 1.4269,-0.31254 -0.24098,-1.3776 1.7686,-0.35274 -0.22088,-1.5384 1.7663,-0.31676 3.2716,-0.547" inkscape:connector-curvature="0" style="stroke:#ffffff">
      <title id="title6358">Medina, OH</title>
    </path>
    <path id="c39077" d="m 748.67,220.44 8.5078,-1.061 0.82904,4.974 -1.7029,0.23422 0.298,1.6708 -4.9974,0.652 -1.7936,0.225 -1.141,-6.695" inkscape:connector-curvature="0" style="stroke:#ffffff">
      <title id="title6361">Huron, OH</title>
    </path>
    <path id="c39147" d="m 748.81,221.23 1.0055,5.898 -4.828,0.747 -5.2559,0.74 -0.54734,-4.003 -0.2496,-2.007 9.8753,-1.375" inkscape:connector-curvature="0" style="stroke:#ffffff">
      <title id="title6364">Seneca, OH</title>
    </path>
    <path id="c39143" d="m 738.27,216.94 1.2783,-0.195 0.15154,1.006 4.598,-0.619 0.30271,0.19642 0.31617,-0.15059 0.28516,0.004 0.28747,0.38781 0.24415,-0.10616 -0.1526,-0.32443 0.26772,-0.0627 0.34282,0.38811 0.43736,0.12945 0.36674,-0.19696 1.123,-0.16312 0.68462,3.997 -9.8753,1.375 -0.65788,-5.666" inkscape:connector-curvature="0" style="stroke:#ffffff">
      <title id="title6367">Sandusky, OH</title>
    </path>
    <path id="c39173" d="m 737.89,214.22 0.37797,2.719 0.65788,5.666 0.2496,2.007 -7.8571,0.997 -0.76485,-5.657 0.49742,-0.06 1.6652,-1.422 0.46533,-0.867 2.0877,-2.991 2.6208,-0.387" inkscape:connector-curvature="0" style="stroke:#ffffff">
      <title id="title6370">Wood, OH</title>
    </path>
    <path id="c39069" d="m 730.35,218.28 0.2086,1.68 0.76485,5.657 -5.9227,0.793 -0.75772,-6.017 -1.9291,0.241 -0.16759,-1.323 7.8036,-1.031" inkscape:connector-curvature="0" style="stroke:#ffffff">
      <title id="title6373">Henry, OH</title>
    </path>
    <path id="c39125" d="m 723.47,226.66 0.46038,3.9687 -0.96136,0.17734 -6.9175,0.861 -0.72384,-6.06 5.9049,-0.731 0.18483,1.0224 1.9225,-0.24139 0.13014,1.003" inkscape:connector-curvature="0" style="stroke:#ffffff">
      <title id="title6376">Paulding, OH</title>
    </path>
    <path id="c39039" d="m 722.71,220.63 1.9291,-0.241 0.75772,6.017 -1.9273,0.251 -0.13014,-1.003 -1.9225,0.24139 -0.18483,-1.0224 -5.9049,0.731 -0.0499,-0.425 -0.43324,-3.56 7.866,-0.989" inkscape:connector-curvature="0" style="stroke:#ffffff">
      <title id="title6379">Defiance, OH</title>
    </path>
    <path id="c39055" d="m 772.34,210.41 1.6082,-0.255 -0.24069,-1.626 3.0421,-0.5918 -0.22299,-1.7188 1.8324,-0.15441 0.7809,4.878 0.59547,3.51 -6.6144,1.022 -0.7809,-5.064" inkscape:connector-curvature="0" style="stroke:#ffffff">
      <title id="title6382">Geauga, OH</title>
    </path>
    <path id="c39085" d="m 777.86,202.86 0.49742,3.197 -1.8324,0.15441 0.22299,1.7188 -3.0421,0.5918 0.24069,1.626 -1.6082,0.255 -1.6723,0.27473 -0.19796,-1.4207 0.6347,-1.086 0.78625,-0.916 0.52238,-0.564 1.0038,-0.916 3.6798,-2.434 0.76485,-0.481" inkscape:connector-curvature="0" style="stroke:#ffffff">
      <title id="title6385">Lake, OH</title>
    </path>
    <path id="c39035" d="m 770.47,209.26 0.19796,1.4207 1.6723,-0.27473 0.7809,5.064 -0.007,0 -3.514,0.483 0.29061,0.649 0.52238,0.941 -2.0325,0.321 -3.2716,0.547 -0.24069,-1.738 -1.6064,0.227 -0.48138,-3.559 0.11767,0.105 0.082,0.05 0.36906,0.113 1.0537,0.03 1.0785,-0.47651 1.1536,0.0505 0.0981,-0.05 0.42611,-0.37 1.1803,-1.087 0.49742,-0.544 0.85188,-1.5081 0.61186,-0.19086 0.16937,-0.205" inkscape:connector-curvature="0" style="stroke:#ffffff">
      <title id="title6388">Cuyahoga, OH</title>
    </path>
    <path id="c39093" d="m 762.78,213.34 0.48138,3.559 1.6064,-0.227 0.24069,1.738 -1.7663,0.31676 0.22088,1.5384 -1.7686,0.35274 0.24098,1.3776 -1.4269,0.31254 0.21572,1.686 -2.8187,0.353 -0.82904,-4.974 -0.57052,-3.303 1.3496,-0.36298 0.99604,-1.0335 2.6738,-1.5488 1.1547,0.21536" inkscape:connector-curvature="0" style="stroke:#ffffff">
      <title id="title6391">Lorain, OH</title>
    </path>
    <path id="c39043" d="m 750.52,215.41 1.5279,1.31 1.0929,0.512 0.80407,0.251 0.25673,0.03 0.30488,-0.04 0.32983,-0.168 0.46711,-0.313 1.3068,-0.927 0.57052,3.303 -8.5078,1.061 -0.54913,-3.2 -1.0367,0.15059 0.42548,-0.35862 0.73576,-0.39099 0.0887,-0.41173 0.4801,-0.0397 0.59943,0.55397 0.53137,-0.41611 1.245,0.0424 -0.71629,-0.63739 0.0434,-0.31436" inkscape:connector-curvature="0" style="stroke:#ffffff">
      <title id="title6394">Erie, OH</title>
    </path>
    <path id="c39123" d="m 742.04,213.54 1.8417,0.435 1.1306,1.0897 1.2242,0.43605 0.67003,-0.3658 0.50718,-0.57563 -0.12222,-0.65161 0.43099,-0.39379 0.74771,0.96015 1.4595,-0.0233 0.22999,0.66995 -2.5213,0.69032 -1.7936,0.51783 -0.12663,0.40182 -1.4174,0.40832 -4.598,0.619 -0.15154,-1.006 -1.2783,0.195 -0.37797,-2.719 4.1452,-0.688" inkscape:connector-curvature="0" style="stroke:#ffffff">
      <title id="title6397">Ottawa, OH</title>
    </path>
    <path id="c39095" d="m 731.68,212.59 5.2131,-0.884 -0.31781,0.53799 0.83573,0.44418 1.1621,-0.10227 0.3793,-0.45765 0.72724,0.49972 2.357,0.91103 -4.1452,0.688 -2.6208,0.387 -2.0877,2.991 -0.46533,0.867 -1.6652,1.422 -0.49742,0.06 -0.2086,-1.68 -0.64361,-5.343 1.9772,-0.346" inkscape:connector-curvature="0" style="stroke:#ffffff">
      <title id="title6400">Lucas, OH</title>
    </path>
    <path id="c39051" d="m 721.6,214.26 8.1014,-1.326 0.64361,5.343 -7.8036,1.031 -0.0964,-0.54124 -0.60819,0.12403 -0.29523,-2.3618 -0.37199,0.0178 -0.21847,-2.1827 0.64897,-0.104" inkscape:connector-curvature="0" style="stroke:#ffffff">
      <title id="title6403">Fulton, OH</title>
    </path>
    <path id="c39171" d="m 714.08,215.41 6.8712,-1.052 0.21847,2.1827 0.37199,-0.0178 0.29523,2.3618 0.60819,-0.12403 0.0964,0.54124 0.16759,1.323 -7.866,0.989 -0.28882,-2.394 -0.47425,-3.81" inkscape:connector-curvature="0" style="stroke:#ffffff">
      <title id="title6406">Williams, OH</title>
    </path>
    </g>
  </svg>
