<svg xmlns:dc="http://purl.org/dc/elements/1.1/" xmlns:cc="http://creativecommons.org/ns#" xmlns:rdf="http://www.w3.org/1999/02/22-rdf-syntax-ns#" xmlns:svg="http://www.w3.org/2000/svg" xmlns="http://www.w3.org/2000/svg" xmlns:sodipodi="http://sodipodi.sourceforge.net/DTD/sodipodi-0.dtd" xmlns:inkscape="http://www.inkscape.org/namespaces/inkscape" width="106.16402999999991" height="68.63897999999995" version="1.0" id="svg2" inkscape:version="0.91 r13725" sodipodi:docname="USA counties.svg">
  <defs id="defs9439"/>
  <sodipodi:namedview pagecolor="#ffffff" bordercolor="#666666" borderopacity="1" objecttolerance="10" gridtolerance="10" guidetolerance="10" inkscape:pageopacity="0" inkscape:pageshadow="2" inkscape:window-width="798" inkscape:window-height="828" id="namedview9437" showgrid="false" showguides="true" inkscape:zoom="0.64950808" inkscape:cx="494.98999" inkscape:cy="313.535" inkscape:window-x="-7" inkscape:window-y="0" inkscape:window-maximized="0" inkscape:current-layer="svg2"/>
  <metadata id="metadata4">
    <rdf:RDF>
      <cc:Work>
        <dc:format>image/svg+xml</dc:format>
        <dc:type rdf:resource="http://purl.org/dc/dcmitype/StillImage"/>
        <dc:title/>
        <cc:license rdf:resource="http://creativecommons.org/publicdomain/zero/1.0/"/>
        <dc:date>2019-10-06</dc:date>
        <dc:creator>
          <cc:Agent>
            <dc:title>U.S. Census Bureau, Abe.suleiman, Lokal_Profil</dc:title>
          </cc:Agent>
        </dc:creator>
        <dc:source>https://commons.wikimedia.org/wiki/File:Usa_counties_large.svg</dc:source>
      </cc:Work>
      <cc:License rdf:about="http://creativecommons.org/publicdomain/zero/1.0/">
        <cc:permits rdf:resource="http://creativecommons.org/ns#Reproduction"/>
        <cc:permits rdf:resource="http://creativecommons.org/ns#Distribution"/>
        <cc:permits rdf:resource="http://creativecommons.org/ns#DerivativeWorks"/>
      </cc:License>
    </rdf:RDF>
  </metadata>
  <style id="style6">
  /*
   * Below are Cascading Style Sheet (CSS) definitions in use in this file,
   * which allow easily changing how counties are displayed.
   *
   *
   * For the U.S. Census county codes (FIPS codes) used in this file to identify individual counties, see this link:
   * https://www2.census.gov/geo/docs/reference/codes/files/national_county.txt
   *
   * The county codes used in this file combine the 2-digit state code, which is in the second column of the file
   * linked above, and the 3-digit county code, which is in the third column of the file linked above. Each value
   * for the "id" attribute for each county is in the following form: "c[state_code][county-code]". For example,
   * for Loving Country in Texas, the state code is "48" and the county code is "301", so the id name for the
   * county is "c48301".
   *
   * County codes used in this file can also be found on Wikimedia Commons at this link:
   * https://commons.wikimedia.org/wiki/File_talk:Usa_counties_large.svg/county_codes
   *
   * Examples:
   *
   * To color two counties red (in this case Loving County and Dallas County in Texas) simply
   * go to the CSS insertion point and add:
   *
   * #c48301, #c48113 {fill:red}
   *
   * To color an entire state's counties (in the case New Mexico, with "35" being the state code) a green,
   * go to the CSS insertion point and add:
   *
   * path[id*='c35'] {fill:#34A853}
   *
   */
  #counties {fill:#d0d0d0;stroke:#000;stroke-width:.17829;} 
  #borders {fill:none;stroke:#221e1f;stroke-width:.89143;} 
  #separator {fill:none;stroke:#a9a9a9;stroke-width:2.3177309;}
 </style>
  <g id="counties" transform="translate(-785.5533700000001,-181.66400000000002)" style="fill:#d0d0d0;stroke:#ffffff;stroke-width:0.17828999">
    <path id="c42101" d="m 887.95,224.31 -1.109,1.616 -1.3086,2.433 -0.68641,0.981 -0.41942,-0.5625 -0.77813,0.10368 0.19551,-1.2287 -0.67564,-0.5625 0.82012,-1.109 -0.91461,-0.706 0.25579,-1.0067 2.223,0.48532 1.2634,-2.2997 0.78437,0.36635 0.34954,1.4896" inkscape:connector-curvature="0" style="stroke:#ffffff">
      <title id="title6748">Philadelphia, PA</title>
    </path>
    <path id="c42017" d="m 881.53,212.86 2.4657,1.005 1.3015,2.619 1.6706,1.013 0.1141,0.06 4.6355,3.561 -0.94224,0.79725 -0.70666,0.0544 -0.23559,0.74286 -1.8845,1.5945 -0.34954,-1.4896 -0.78437,-0.36635 -9.3922,-4.582 1.9594,-3.236 1.9612,-2.139 0.18721,0.362" inkscape:connector-curvature="0" style="stroke:#ffffff">
      <title id="title6751">Bucks, PA</title>
    </path>
    <path id="c42059" d="m 793.12,244.79 3.5408,-1.945 0.26677,0.24835 1.8548,-0.27835 0.48336,0.31627 1.0872,-0.20701 0.22155,-0.49394 0.33541,0.32201 -0.003,0.23829 0.20575,0.24777 0.21524,-0.25508 0.13934,0.077 1.767,0.92004 0.17223,1.7924 0.52911,1.1075 -0.26146,0.64403 0.79923,1.0427 -8.7503,1.462 -1.7026,0.274 -0.90035,-5.512" inkscape:connector-curvature="0" style="stroke:#ffffff">
      <title id="title6754">Greene, PA</title>
    </path>
    <path id="c42051" d="m 803.55,239.17 2.2839,-0.426 2.1979,0.66254 1.8204,-1.727 0.75403,0.2113 1.8836,0.93422 0.35751,0.72046 1.1004,-0.15752 -0.44215,1.187 -0.8023,2.322 -0.13728,1.125 0.84555,0.83577 -0.24294,1.8562 0.37084,0.249 -1.4637,0.264 -4.976,0.878 -2.6333,0.449 -0.79923,-1.0427 0.26146,-0.64403 -0.52911,-1.1075 -0.17223,-1.7924 -1.767,-0.92004 0.49133,-0.9695 0.60033,0.33853 0.63667,-0.64249 0.47921,-0.31548 -0.41703,-1.0301 0.56401,-0.1217 0.10376,-0.73939 -0.36858,-0.40026" inkscape:connector-curvature="0" style="stroke:#ffffff">
      <title id="title6757">Fayette, PA</title>
    </path>
    <path id="c42125" d="m 793.89,232.56 3.6014,2.805 4.7064,1.1119 -0.76089,0.49354 0.0824,0.46543 1.1365,0.35299 0.73338,-0.2489 0.0401,0.77641 -0.71713,0.20847 0.46855,0.62696 0.36892,0.0192 0.36858,0.40026 -0.10377,0.73939 -0.564,0.1217 0.41703,1.0301 -0.47921,0.31548 -0.63667,0.64249 -0.60033,-0.33853 -0.49133,0.9695 -0.13934,-0.077 -0.21524,0.25508 -0.20575,-0.24777 0.003,-0.23829 -0.3354,-0.32199 -0.22156,0.49395 -1.0872,0.20702 -0.48336,-0.31627 -1.8548,0.27835 -0.26677,-0.24835 -3.5408,1.945 -0.73633,-4.507 -0.88786,-5.474 -0.30488,-1.792 2.7064,-0.449" inkscape:connector-curvature="0" style="stroke:#ffffff">
      <title id="title6760">Washington, PA</title>
    </path>
    <path id="c42003" d="m 804.83,229.75 0.43541,2.1784 -0.93407,1.0934 0.0734,3.5345 -0.16046,0.408 -0.85221,0.578 -0.73338,0.2489 -1.1365,-0.35299 -0.0824,-0.46543 0.76089,-0.49354 -4.7064,-1.1119 -3.6014,-2.805 1.9077,-2.564 1.2676,-1.173 -0.29774,-1.374 7.8144,-1.2042 0.0613,0.87573 -1.1965,1.2815 0.10187,0.92645 0.64938,-0.0642 z" inkscape:connector-curvature="0" style="stroke:#ffffff">
      <title id="title6763">Allegheny, PA</title>
    </path>
    <path id="c42007" d="m 789.78,224.47 6.1295,-1.105 0.85934,4.09 0.29774,1.374 -1.2676,1.173 -1.9077,2.564 -2.7064,0.449 -0.60974,-3.688 -0.79516,-4.857" inkscape:connector-curvature="0" style="stroke:#ffffff">
      <title id="title6766">Beaver, PA</title>
    </path>
    <path id="c42073" d="m 796.14,218.28 -0.90347,1.825 0.67883,3.253 -6.1295,1.105 -0.20324,-1.105 -0.82904,-5.151 4.4215,-0.797 0.0714,0.25565 1.8488,-0.25565 1.0448,0.861" inkscape:connector-curvature="0" style="stroke:#ffffff">
      <title id="title6769">Lawrence, PA</title>
    </path>
    <path id="c42019" d="m 802.64,214.8 1.9433,11.442 -7.8108,1.213 -0.85934,-4.09 -0.67883,-3.253 0.90347,-1.825 1.2534,-2.612 5.1685,-0.916 0.0802,0.04" inkscape:connector-curvature="0" style="stroke:#ffffff">
      <title id="title6772">Butler, PA</title>
    </path>
    <path id="c42005" d="m 811.18,216.11 0.56517,3.175 0.55269,3.095 -2.0396,4.322 -0.97344,1.995 -0.73248,0.0892 -0.37706,0.19447 -1.1142,-0.67433 -0.23226,-0.52954 0.22846,-0.26626 -0.48259,0.0585 -0.21932,-0.26401 0.006,-0.50389 -0.38938,0.32543 -0.21168,-0.28668 -0.18535,-0.0958 -0.42972,-0.51637 -0.56135,0.0233 -8.8e-4,-0.001 -8.7e-4,-0.001 -8.8e-4,-0.001 -0.002,-0.002 -0.002,-0.002 -8.7e-4,-0.001 -1.9433,-11.442 0.44037,1.551 0.0571,0.209 0.40114,0.939 0.68924,0.29325 0.56986,0.59711 -0.36329,0.53276 0.4479,0.34152 0.51226,-0.59164 0.36192,0.06 0.51525,0.04 0.32092,-0.1 1.2373,-0.444 1.8488,-0.745 1.5083,-1.367" inkscape:connector-curvature="0" style="stroke:#ffffff">
      <title id="title6775">Armstrong, PA</title>
    </path>
    <path id="c42031" d="m 805.39,209.25 1.3068,-0.233 -0.19255,-1.131 0.7078,-0.13 2.5709,-0.33 0.36906,2.258 1.0358,6.429 -1.5083,1.367 -1.8488,0.745 -1.2373,0.444 -0.32092,0.1 -0.51525,-0.04 -0.36192,-0.06 -0.51226,0.59164 -0.4479,-0.34152 0.36329,-0.53276 -0.56986,-0.59711 -0.68924,-0.29325 -0.40114,-0.939 -0.0571,-0.209 -0.44037,-1.551 -0.0802,-0.04 0.44037,-1.968 0.28704,-0.603 0.3227,-0.483 -0.18211,-0.48033 0.96301,-0.25767 0.17828,-0.03 1.0109,-0.526 -0.19077,-1.157" inkscape:connector-curvature="0" style="stroke:#ffffff">
      <title id="title6778">Clarion, PA</title>
    </path>
    <path id="c42053" d="m 803.85,203.92 9.369,-1.654 0.62117,4.523 -0.30187,0.0822 -0.0722,-0.40587 -1.3273,0.24136 0.10709,0.64786 -0.49576,0.13114 0.28864,1.6513 -1.8898,0.544 -0.36906,-2.258 -2.5709,0.33 -0.7078,0.13 0.19255,1.131 -1.3068,0.233 -0.22642,-1.228 -0.78462,0.19958 -0.0355,-1.6156 -0.49029,-2.683" inkscape:connector-curvature="0" style="stroke:#ffffff">
      <title id="title6781">Forest, PA</title>
    </path>
    <path id="c42121" d="m 803.85,203.92 0.49029,2.683 0.0355,1.6156 0.78462,-0.19958 0.22642,1.228 0.19077,1.157 -1.0109,0.526 -0.17828,0.03 -0.96301,0.25767 0.18211,0.48033 -0.3227,0.483 -0.28704,0.603 -0.44037,1.968 -5.1685,0.916 -1.2373,-7.263 0.61152,-0.653 1.831,-2.394 3.5925,-0.972 -0.0321,-0.151 1.6955,-0.316" inkscape:connector-curvature="0" style="stroke:#ffffff">
      <title id="title6784">Venango, PA</title>
    </path>
    <path id="c42085" d="m 787.38,209.9 6.3206,-0.68528 2.453,-0.80872 1.2373,7.263 -1.2534,2.612 -1.0448,-0.861 -1.8488,0.25565 -0.0714,-0.25565 -4.4215,0.797 -0.0303,-0.185 -1.3407,-8.123" inkscape:connector-curvature="0" style="stroke:#ffffff">
      <title id="title6787">Mercer, PA</title>
    </path>
    <path id="c42039" d="m 801.27,199.08 0.8843,5.16 0.0321,0.151 -3.5925,0.972 -1.831,2.394 -0.61152,0.653 -2.453,0.80872 -6.3206,0.68528 -0.0428,-0.25 -1.3086,-7.987 10.237,-1.744 3.8189,-0.686 1.1874,-0.157" inkscape:connector-curvature="0" style="stroke:#ffffff">
      <title id="title6790">Crawford, PA</title>
    </path>
    <path id="c42049" d="m 800.72,195.67 0.55448,3.409 -1.1874,0.157 -3.8189,0.686 -10.237,1.744 -0.47781,-2.917 2.9542,-1.863 2.658,-2.2039 0.16985,-0.83144 0.38418,-0.43959 0.59542,-0.11077 0.0881,0.3557 3.0861,-2.525 1.6224,-1.189 0.098,0.61 0.44216,2.549 0.52951,3.011 2.2821,-0.394 0.25673,-0.05" inkscape:connector-curvature="0" style="stroke:#ffffff">
      <title id="title6793">Erie, PA</title>
    </path>
    <path id="c42129" d="m 809.29,228.7 -0.11946,0.301 0.24069,0.749 0.0428,0.04 1.1464,0.458 4.2254,0.257 0.75347,0.83909 0.80196,-0.24399 0.41401,-1.1654 1.1738,0.37029 -0.93066,2.778 -0.77198,1.5778 -0.75629,2.6763 -0.78768,0.4792 -0.77198,1.5778 -1.1004,0.15752 -0.35751,-0.72046 -1.8836,-0.93422 -0.75403,-0.2113 -1.8204,1.727 -2.1979,-0.66254 -2.2839,0.426 -0.36892,-0.0192 -0.46855,-0.62696 0.71713,-0.20847 -0.0401,-0.77641 0.85221,-0.578 0.16046,-0.408 -0.0734,-3.5345 0.93407,-1.0934 -0.43541,-2.1784 -0.62866,-0.48273 -0.64894,0.065 -0.10098,-0.92489 1.1974,-1.2799 -0.0604,-0.87417 0.56135,-0.0233 0.42972,0.51637 0.18535,0.0958 0.21168,0.28668 0.38938,-0.32543 -0.006,0.50389 0.21932,0.26401 0.48259,-0.0585 -0.22846,0.26626 0.23226,0.52954 1.1142,0.67433 0.37706,-0.19447 0.73248,-0.0892" inkscape:connector-curvature="0" style="stroke:#ffffff">
      <title id="title6796">Westmoreland, PA</title>
    </path>
    <path id="c42063" d="m 811.75,219.29 6.9978,-1.134 0.80942,4.122 -1.5885,8.03 -1.1738,-0.37029 -0.41401,1.1654 -0.80196,0.24399 -0.75347,-0.83909 -4.2254,-0.257 -1.1464,-0.458 -0.0428,-0.04 -0.24069,-0.749 0.11946,-0.301 0.97344,-1.995 2.0396,-4.322 -0.55269,-3.095" inkscape:connector-curvature="0" style="stroke:#ffffff">
      <title id="title6799">Indiana, PA</title>
    </path>
    <path id="c42065" d="m 810.15,209.68 1.8898,-0.544 0.33518,-0.355 1.8738,-0.547 4.1951,1.567 0.11783,0.79033 0.44377,-0.12233 0.12124,0.651 -0.9574,0.152 -0.28883,1.413 -0.009,0.05 0.0196,0.665 0.85756,4.75 -6.9978,1.134 -0.56517,-3.175 -1.0358,-6.429" inkscape:connector-curvature="0" style="stroke:#ffffff">
      <title id="title6802">Jefferson, PA</title>
    </path>
    <path id="c42123" d="m 809.91,194.04 2.3873,-0.403 0.24069,1.012 0.4582,2.557 -0.0464,0.239 -0.45998,0.1 0.73098,4.725 -9.369,1.654 -1.6955,0.316 -0.8843,-5.16 -0.55448,-3.409 9.1925,-1.629" inkscape:connector-curvature="0" style="stroke:#ffffff">
      <title id="title6805">Warren, PA</title>
    </path>
    <path id="c42083" d="m 822.51,191.72 1.6919,-0.336 1.6955,8.669 -3.5586,1.044 -0.92771,0.23492 -0.14909,-0.61451 -3.2788,0.65059 -2.6119,0.534 -2.1537,0.369 -0.73098,-4.725 0.45998,-0.1 0.0464,-0.239 -0.4582,-2.557 -0.24069,-1.012 0.7399,-0.129 4.6426,-0.902 4.8334,-0.889" inkscape:connector-curvature="0" style="stroke:#ffffff">
      <title id="title6808">McKean, PA</title>
    </path>
    <path id="c42023" d="m 822.34,201.1 3.5586,-1.044 3.0854,2.8478 1.14,-0.27675 0.43981,2.7869 -1.0727,3.4171 -2.4889,0.152 -0.36549,-2.127 -0.39642,0.0729 -0.27037,-1.8598 -2.8027,0.523 -0.82726,-4.492" inkscape:connector-curvature="0" style="stroke:#ffffff">
      <title id="title6811">Cameron, PA</title>
    </path>
    <path id="c42047" d="m 813.22,202.27 2.1537,-0.369 2.6119,-0.534 3.2788,-0.65059 0.14909,0.61451 0.92771,-0.23492 0.82726,4.492 2.8027,-0.523 0.27037,1.8598 0.39642,-0.0729 0.36549,2.127 -5.4823,0.611 -1.5101,0.307 0.0468,0.82587 -0.93107,0.40213 -0.12124,-0.651 -0.44377,0.12233 -0.11783,-0.79033 -4.1951,-1.567 -1.8738,0.547 -0.33518,0.355 -0.28864,-1.6513 0.49576,-0.13114 -0.10709,-0.64786 1.3273,-0.24136 0.0722,0.40587 0.30187,-0.0822 -0.62117,-4.523" inkscape:connector-curvature="0" style="stroke:#ffffff">
      <title id="title6814">Elk, PA</title>
    </path>
    <path id="c42033" d="m 827,208.98 2.4889,-0.152 1.207,1.26 -1.1102,1.3118 1.2778,1.4112 0.0232,0.549 -0.20681,1.43 -0.0909,0.103 -0.96275,0.396 -0.82012,0.722 -0.19255,0.216 -1.9362,4.024 0.0232,0.08 0.29952,0.369 0.24603,0.153 -7.6913,1.43 -0.80942,-4.122 -0.85756,-4.75 -0.0196,-0.665 0.009,-0.05 0.28883,-1.413 0.9574,-0.152 0.93107,-0.40213 -0.0468,-0.82587 1.5101,-0.307 5.4823,-0.611" inkscape:connector-curvature="0" style="stroke:#ffffff">
      <title id="title6817">Clearfield, PA</title>
    </path>
    <path id="c42013" d="m 827,220.69 4.1755,-0.931 -1.2765,1.205 -0.18541,0.346 -0.0642,0.266 0.97633,1.147 -0.0439,1.39 0.46755,0.619 0.4305,-0.76469 -10e-4,1.6877 0.53292,0.218 -0.2086,0.852 -1.1339,3.535 -0.11766,0.628 -0.17829,0.674 -2.9762,-0.74542 -0.0622,1.1972 -3.0109,-1.2548 0.65745,-1.0934 -0.29216,-1.7143 0.1096,-1.5682 0.80355,-1.0204 0.54788,-0.80122 -0.25563,-1.5317 0.58441,-0.0707 0.76702,-2.1161 -0.24603,-0.153" inkscape:connector-curvature="0" style="stroke:#ffffff">
      <title id="title6820">Blair, PA</title>
    </path>
    <path id="c42021" d="m 819.56,222.28 7.6913,-1.43 -0.76702,2.1161 -0.58441,0.0707 0.25563,1.5317 -0.54788,0.80122 -0.80355,1.0204 -0.1096,1.5682 0.29216,1.7143 -0.65745,1.0934 -0.29774,2.033 -1.5671,0.289 -2.2518,0.338 -0.34409,-0.488 -0.60261,-0.251 -2.225,0.401 0.93066,-2.778 1.5885,-8.03" inkscape:connector-curvature="0" style="stroke:#ffffff">
      <title id="title6823">Cambria, PA</title>
    </path>
    <path id="c42111" d="m 824.03,232.8 -0.66857,4.211 -0.40306,0.33882 1.077,5.9922 -0.40828,1.792 -10.084,1.841 -0.37084,-0.249 0.24294,-1.8562 -0.84555,-0.83577 0.13728,-1.125 0.8023,-2.322 0.44215,-1.187 0.77198,-1.5778 0.78768,-0.4792 0.75629,-2.6763 0.77198,-1.5778 2.225,-0.401 0.60261,0.251 0.34409,0.488 2.2518,-0.338 1.5671,-0.289" inkscape:connector-curvature="0" style="stroke:#ffffff">
      <title id="title6826">Somerset, PA</title>
    </path>
    <path id="c42009" d="m 824.33,230.76 3.0109,1.2548 0.0622,-1.1972 2.9762,0.74542 0.17829,-0.674 0.11766,-0.628 0.68098,1.6105 1.9951,1.0105 -0.22464,1.061 -0.8103,1.0206 0.41941,1.1177 -0.75015,5.0697 -0.48137,1.535 -0.48316,1.077 -7.3918,1.364 0.40828,-1.792 -1.077,-5.9922 0.40306,-0.33882 0.66857,-4.211 0.29774,-2.033" inkscape:connector-curvature="0" style="stroke:#ffffff">
      <title id="title6829">Bedford, PA</title>
    </path>
    <path id="c42057" d="m 833.35,232.88 1.125,0.547 2.7331,0.207 1.2302,0.715 -0.1765,0.194 -0.0981,0.168 -0.41719,1.143 -0.0731,1.301 -0.37797,2.218 -0.21572,0.811 -0.77912,1.913 -0.41897,0.748 -4.2094,0.795 -0.65253,0.121 0.48316,-1.077 0.48137,-1.535 0.75015,-5.0697 -0.41941,-1.1177 0.8103,-1.0206 0.22464,-1.061" inkscape:connector-curvature="0" style="stroke:#ffffff">
      <title id="title6832">Fulton, PA</title>
    </path>
    <path id="c42061" d="m 831.18,219.76 3.1272,0.523 1.5953,-1.3569 2.2807,0.0709 0.42967,-0.451 -0.11945,0.531 -0.29295,0.70549 0.34987,-0.005 -1.6585,2.4192 -0.2152,0.97041 0.3756,1.1036 -1.1164,2.6794 1.3131,0.47602 0.44928,-0.07 1.1393,-0.335 0.13015,-0.267 1.3407,2.458 -1.0812,1.7275 -0.78902,3.4075 -1.2302,-0.715 -2.7331,-0.207 -1.125,-0.547 -1.9951,-1.0105 -0.68098,-1.6105 1.1339,-3.535 0.2086,-0.852 -0.53292,-0.218 10e-4,-1.6877 -0.4305,0.76469 -0.46755,-0.619 0.0439,-1.39 -0.97633,-1.147 0.0642,-0.266 0.18541,-0.346 1.2765,-1.205" inkscape:connector-curvature="0" style="stroke:#ffffff">
      <title id="title6835">Huntingdon, PA</title>
    </path>
    <path id="c42055" d="m 840.31,229.22 0.42076,-0.697 0.1745,0.23313 0.0258,0.31035 -0.0922,0.28415 0.25316,0.0234 0.21383,0.75749 0.6202,-0.39612 0.20072,0.65262 -0.18542,0.287 0.46711,0.74 2.6119,2.981 0.68284,1.302 1.2213,5.061 -0.16759,0.03 -10.874,2.058 0.41897,-0.748 0.77912,-1.913 0.21572,-0.811 0.37797,-2.218 0.0731,-1.301 0.41719,-1.143 0.0981,-0.168 0.1765,-0.194 0.78902,-3.4075 1.0812,-1.7275" inkscape:connector-curvature="0" style="stroke:#ffffff">
      <title id="title6838">Franklin, PA</title>
    </path>
    <path id="c42087" d="m 843.48,214.82 0.29773,0.885 0.31231,2.4609 1.3654,-0.10593 -0.95562,0.65 -0.54556,0.411 -1.0466,0.9 -0.78798,0.8191 0.13308,0.68867 -1.7086,1.8288 0.14211,0.58801 -1.3926,1.8597 -0.32968,0.95678 -0.13015,0.267 -1.1393,0.335 -0.44928,0.07 -1.3131,-0.47602 1.1164,-2.6794 -0.3756,-1.1036 0.2152,-0.97041 1.6585,-2.4192 -0.34987,0.005 0.29295,-0.70549 0.11945,-0.531 4.8708,-3.73" inkscape:connector-curvature="0" style="stroke:#ffffff">
      <title id="title6841">Mifflin, PA</title>
    </path>
    <path id="c42105" d="m 834.18,189.47 2.2018,10.35 0.312,1.446 -6.5663,1.357 -1.14,0.27675 -3.0854,-2.8478 -1.6955,-8.669 7.6342,-1.44 2.3391,-0.473" inkscape:connector-curvature="0" style="stroke:#ffffff">
      <title id="title6844">Potter, PA</title>
    </path>
    <path id="c42035" d="m 836.69,201.27 0.17829,0.843 1.1892,1.147 2.0485,1.825 5.7462,4.035 0.33518,-0.07 0.12302,0.57 -3.079,1.928 -2.7314,1.141 -1.5832,-1.678 -0.26387,-0.521 -1.4768,-0.31699 -1.6434,0.0744 -0.8871,-1.228 -1.6902,0.19089 -0.39726,-1.4669 -0.41637,0.74257 -0.58161,0.21293 -0.0354,0.96921 -0.8271,0.42586 -1.207,-1.26 1.0727,-3.4171 -0.43981,-2.7869 6.5663,-1.357" inkscape:connector-curvature="0" style="stroke:#ffffff">
      <title id="title6847">Clinton, PA</title>
    </path>
    <path id="c42027" d="m 830.7,210.09 0.8271,-0.42586 0.0354,-0.96921 0.58161,-0.21293 0.41637,-0.74257 0.39726,1.4669 1.6902,-0.19089 0.8871,1.228 1.6434,-0.0744 1.4768,0.31699 0.26387,0.521 1.5832,1.678 2.7314,-1.141 3.079,-1.928 -0.78981,1.375 -0.86648,2.073 -1.1731,1.758 -4.8708,3.73 -0.42967,0.451 -2.2807,-0.0709 -1.5953,1.3569 -3.1272,-0.523 -4.1755,0.931 -0.29952,-0.369 -0.0232,-0.08 1.9362,-4.024 0.19255,-0.216 0.82012,-0.722 0.96275,-0.396 0.0909,-0.103 0.20681,-1.43 -0.0232,-0.549 -1.2778,-1.4112 1.1102,-1.3118" inkscape:connector-curvature="0" style="stroke:#ffffff">
      <title id="title6850">Centre, PA</title>
    </path>
    <path id="c42119" d="m 846.19,209.04 2.7189,-0.988 0.0214,-1.453 1.1179,0 0.28134,1.0749 0.6884,0.52019 0.0804,1.91 -0.0214,0.289 0.20146,0.408 0.56339,0.749 0.57587,0.428 0.45106,0.12 -0.57052,-0.03 -2.8772,0.96648 -0.21962,0.50541 -0.97342,-0.14789 -3.7583,1.89 -0.68819,0.415 -0.29773,-0.884 1.1731,-1.758 0.86648,-2.073 0.78981,-1.375 -0.12302,-0.57" inkscape:connector-curvature="0" style="stroke:#ffffff">
      <title id="title6853">Union, PA</title>
    </path>
    <path id="c42093" d="m 852.66,205.29 0.81566,0.40088 0.81566,-0.34088 0.78803,1.9714 0.8843,0.0836 0.29193,1.4223 1.0417,0.52266 0.14441,0.296 0.0321,1.494 -0.51454,0.22064 -0.38424,-0.73483 0.0356,-0.57558 -0.83303,-0.1268 -0.44144,-0.25243 -0.51524,0 -1.1696,0.564 -0.95918,0.385 -0.0392,-0.05 0.16758,-2.395 -0.16045,-2.884" inkscape:connector-curvature="0" style="stroke:#ffffff">
      <title id="title6856">Montour, PA</title>
    </path>
    <path id="c42117" d="m 845.55,187.15 2.7492,9.009 -0.0784,0.191 -1.1535,1.128 -3.8635,0.913 -6.8302,1.432 -2.2018,-10.35 10.735,-2.18 0.64361,-0.143" inkscape:connector-curvature="0" style="stroke:#ffffff">
      <title id="title6859">Tioga, PA</title>
    </path>
    <path id="c42081" d="m 848.3,196.16 1.0519,-0.07 1.9041,3.946 3.1432,1.77 0.79516,0.104 1.774,0.04 -1.8848,3.3023 -0.79846,0.0977 -0.81566,0.34088 -0.81566,-0.40088 -2.6119,1.315 -1.1179,0 -0.0214,1.453 -2.7189,0.988 -0.33518,0.07 -5.7462,-4.035 -2.0485,-1.825 -1.1892,-1.147 -0.17829,-0.843 -0.312,-1.446 6.8302,-1.432 3.8635,-0.912 1.1535,-1.129 0.0784,-0.191" inkscape:connector-curvature="0" style="stroke:#ffffff">
      <title id="title6862">Lycoming, PA</title>
    </path>
    <path id="c42131" d="m 860.75,192.25 0.0553,0.19 4.1149,-0.891 2.4746,-0.49 -0.12124,0.174 -0.45106,1.553 -0.21573,1.254 0.60261,0.288 -0.66679,1.999 -0.24782,0.187 -2.4764,1.414 -4.557,1.132 0.26743,-3.951 -0.0749,-2.491 1.2962,-0.36804" inkscape:connector-curvature="0" style="stroke:#ffffff">
      <title id="title6865">Wyoming, PA</title>
    </path>
    <path id="c42113" d="m 849.36,196.09 10.173,-0.977 -0.26743,3.951 -0.14442,1.657 -1.7242,0.47921 -0.42061,0.75079 -1.774,-0.04 -0.79516,-0.104 -3.1432,-1.77 -1.9041,-3.946" inkscape:connector-curvature="0" style="stroke:#ffffff">
      <title id="title6868">Sullivan, PA</title>
    </path>
    <path id="c42037" d="m 859.12,200.72 0.25139,1.847 0.11232,0.533 1.043,1.51 0.76754,-0.34593 0.43439,2.4186 0.84124,1.8083 -0.53843,0.911 -0.44393,0.856 0.009,1.938 -1.1089,0.85 -0.82588,-1.0332 -1.4629,0.371 -0.72431,-1.2438 -0.0321,-1.494 -0.14441,-0.296 -1.0417,-0.52266 -0.29193,-1.4223 -0.8843,-0.0836 -0.78803,-1.9714 0.79846,-0.0977 1.8848,-3.3023 0.42061,-0.75079 1.7242,-0.47921" inkscape:connector-curvature="0" style="stroke:#ffffff">
      <title id="title6871">Columbia, PA</title>
    </path>
    <path id="c42097" d="m 850.05,206.61 2.6119,-1.315 0.16045,2.884 -0.16758,2.395 0.0392,0.05 0.95918,-0.385 1.1696,-0.564 0.51524,0 0.44144,0.25243 0.83303,0.1268 -0.0356,0.57558 0.38424,0.73483 0.51454,-0.22064 0.72431,1.2438 1.4629,-0.371 0.82588,1.0332 -4.9011,3.801 -0.72207,0.225 -1.9861,1.318 -0.79695,0.313 -0.0802,0.03 -0.19968,-0.05 -0.27991,-0.303 0.12124,-0.274 0.1355,-0.161 0.64005,-1.141 0.13015,-0.296 0.0802,-0.306 0.0321,-0.401 -0.14442,-0.612 -0.30652,-1.0422 0.49194,-0.98079 0.16759,-1.061 -0.45106,-0.12 -0.57587,-0.428 -0.56339,-0.748 -0.20146,-0.409 0.0214,-0.289 -0.0804,-1.91 -0.68839,-0.52019 -0.28134,-1.0749" inkscape:connector-curvature="0" style="stroke:#ffffff">
      <title id="title6874">Northumberland, PA</title>
    </path>
    <path id="c42109" d="m 852.87,212.11 -0.16759,1.061 -0.49194,0.98079 0.30652,1.0422 0.14442,0.612 -0.0321,0.401 -0.0802,0.306 -0.13015,0.296 -0.64005,1.141 -0.1355,0.161 -1.2185,0.18027 -0.71567,-0.62384 -0.89116,0.12123 -0.3019,-0.28966 -0.66857,0.403 -2.3873,0.159 -1.3654,0.10593 -0.3123,-2.4609 0.68819,-0.416 3.7583,-1.89 0.97342,0.14789 0.21962,-0.50541 2.8772,-0.96648 0.57052,0.03" inkscape:connector-curvature="0" style="stroke:#ffffff">
      <title id="title6877">Snyder, PA</title>
    </path>
    <path id="c42067" d="m 851.64,218.11 -0.12124,0.274 -1.2561,0.88061 -2.5639,0.98121 0.16182,0.60049 -1.6387,1.1927 -2.4425,2.25 -1.2944,1.311 0.0548,0.62899 -0.79021,0.54851 -0.73544,1.1775 -0.28704,0.57 -0.42076,0.697 -1.3407,-2.458 0.32968,-0.95678 1.3926,-1.8597 -0.1421,-0.58801 1.7086,-1.8288 -0.13308,-0.68868 0.78798,-0.8191 1.0466,-0.9 0.54556,-0.411 0.95562,-0.65 2.3873,-0.159 0.66857,-0.403 0.3019,0.28966 0.89116,-0.12127 0.71567,0.62384 1.2185,-0.18027" inkscape:connector-curvature="0" style="stroke:#ffffff">
      <title id="title6880">Juniata, PA</title>
    </path>
    <path id="c42099" d="m 853.51,225.05 -0.96989,0.651 -0.76306,0.289 -5.0503,1.8551 -0.26956,-0.48808 -1.3356,1.1764 -0.008,-0.41327 0.68422,-1.0678 -0.86801,0.50311 -1.6722,2.2798 -0.55009,0.0917 -0.38177,0.74623 -0.20146,-0.287 -0.20072,-0.65261 -0.62021,0.39611 -0.21382,-0.7575 -0.25316,-0.0234 0.0922,-0.28414 -0.0258,-0.31037 -0.1745,-0.23312 0.28704,-0.57 0.73543,-1.1775 0.79022,-0.54851 -0.0548,-0.62899 1.2944,-1.311 2.4425,-2.25 1.6387,-1.1927 -0.16182,-0.60049 2.5639,-0.98121 1.2561,-0.88061 -0.13906,1.043 -0.41164,0.55295 0.3441,0.63163 -0.007,0.61391 0.73181,0.40274 0.046,0.64129 -0.99826,1.3196 0.52244,1.2301 1.3133,-0.31289 0.58788,0.54773" inkscape:connector-curvature="0" style="stroke:#ffffff">
      <title id="title6883">Perry, PA</title>
    </path>
    <path id="c42041" d="m 853.51,225.05 0.0508,1.211 1.3665,0.92499 -1.1337,0.56815 0.32328,1.2056 -1.9096,0.74458 -1.3325,2.0067 -0.43323,0.658 -0.62044,0.565 -1.2034,0.497 -1.9683,0.908 -0.94848,1.357 -0.68284,-1.302 -2.6119,-2.981 -0.46711,-0.74 0.18542,-0.287 0.20146,0.287 0.38177,-0.74623 0.55009,-0.0917 1.6722,-2.2798 0.86801,-0.50311 -0.68422,1.0678 0.008,0.41327 1.3356,-1.1764 0.26956,0.48808 5.0503,-1.8551 0.76306,-0.289 0.96989,-0.651" inkscape:connector-curvature="0" style="stroke:#ffffff">
      <title id="title6886">Cumberland, PA</title>
    </path>
    <path id="c42001" d="m 850.87,231.71 0.20147,0.02 0.65253,0.191 0.47944,0.63178 0.94864,0.0182 1.2623,1.603 0.0802,0.321 -0.40499,0.64023 0.53339,0.45977 -0.2817,1.036 0,0.1 0.49029,2.451 -3.7387,0.756 -4.1755,0.827 -1.2213,-5.061 0.94848,-1.357 1.9683,-0.908 1.2034,-0.497 0.62044,-0.565 0.43323,-0.658" inkscape:connector-curvature="0" style="stroke:#ffffff">
      <title id="title6889">Adams, PA</title>
    </path>
    <path id="c42133" d="m 854.93,227.19 0.57199,0.48225 1.3478,0.34734 0.30217,0.98817 0.60572,0.11124 1.0366,1.1019 0.58582,6e-5 1.1268,0.05 0.47246,-0.06 1.453,1.828 1.9246,0.75242 0.32071,0.9215 3.1801,2.5621 0.0481,0.185 -5.666,1.188 -3.7422,0.779 -3.6584,0.763 -0.49029,-2.451 0,-0.1 0.2817,-1.036 -0.53338,-0.45977 0.40501,-0.64023 -0.0802,-0.321 -1.2623,-1.603 -0.94864,-0.0182 -0.47944,-0.63178 -0.65253,-0.191 -0.20147,-0.02 1.3325,-2.0067 1.9096,-0.74458 -0.32328,-1.2056 1.1337,-0.56815" inkscape:connector-curvature="0" style="stroke:#ffffff">
      <title id="title6892">York, PA</title>
    </path>
    <path id="c42043" d="m 855.58,216.85 3.309,1.746 -2.0485,2.326 3.1575,5.948 0.057,-0.04 -1.353,1.0193 -0.95229,1.2697 -0.60572,-0.11124 -0.30217,-0.98817 -1.3478,-0.34734 -0.57199,-0.48225 -1.3665,-0.92499 -0.0508,-1.211 -0.58788,-0.54773 -1.3133,0.31289 -0.52244,-1.2301 0.99826,-1.3196 -0.046,-0.64129 -0.73181,-0.40274 0.007,-0.61391 -0.3441,-0.63163 0.41164,-0.55295 0.13906,-1.043 0.27991,0.303 0.19968,0.05 0.0802,-0.03 0.79695,-0.313 1.9861,-1.318 0.72207,-0.225" inkscape:connector-curvature="0" style="stroke:#ffffff">
      <title id="title6895">Dauphin, PA</title>
    </path>
    <path id="c42075" d="m 858.89,218.59 1.897,1.011 5.7765,3.045 -2.3694,1.936 -2.1216,0.852 -2.0164,1.391 -0.0571,0.04 -3.1575,-5.948 2.0485,-2.326" inkscape:connector-curvature="0" style="stroke:#ffffff">
      <title id="title6898">Lebanon, PA</title>
    </path>
    <path id="c42071" d="m 866.57,222.65 5.6036,3.038 -1.0537,0.907 0.34647,1.3708 -0.45879,2.3252 0.0642,0.587 0.0874,0.403 0.22464,0.617 -0.17472,1.246 -0.27456,1.012 -0.22642,0.603 -1.0109,1.302 -1.6795,0.363 -0.11233,0.02 -0.0482,-0.185 -3.1801,-2.5621 -0.32071,-0.9215 -1.9246,-0.75242 -1.453,-1.828 -0.47246,0.06 -1.1268,-0.05 -0.58582,-6e-5 -1.0366,-1.1019 0.95229,-1.2697 1.353,-1.0193 2.0164,-1.391 2.1216,-0.852 2.3694,-1.936" inkscape:connector-curvature="0" style="stroke:#ffffff">
      <title id="title6901">Lancaster, PA</title>
    </path>
    <path id="c42011" d="m 876.51,217.39 -1.831,5.268 -2.5067,3.024 -5.6036,-3.038 -5.7765,-3.045 2.1947,-0.926 0.81834,-0.208 0.34587,-0.177 2.7581,-1.895 0.5587,-0.12965 0.22759,-1.5334 1.5422,-1.214 7.2723,3.874" inkscape:connector-curvature="0" style="stroke:#ffffff">
      <title id="title6904">Berks, PA</title>
    </path>
    <path id="c42107" d="m 862.57,208.49 3.1219,0.63563 0.61496,-0.56563 2.3271,1.913 2.5883,1.234 -1.9843,1.81 -1.5422,1.214 -0.22759,1.5334 -0.5587,0.12965 -2.7581,1.895 -0.34587,0.177 -0.81834,0.208 -2.1947,0.926 -1.897,-1.011 -3.309,-1.746 4.9011,-3.801 1.1089,-0.85 -0.009,-1.938 0.44393,-0.856 0.53843,-0.911" inkscape:connector-curvature="0" style="stroke:#ffffff">
      <title id="title6907">Schuylkill, PA</title>
    </path>
    <path id="c42025" d="m 866.3,208.56 4.0079,-3.118 -0.21751,-0.451 -0.67392,-0.548 -0.0802,-0.483 0.007,-0.199 0.0499,-0.104 0.92531,-1.102 0.0695,-0.06 0.41006,-0.146 0.35301,0.201 0.54734,0.193 2.6921,2.298 -1.0145,1.239 2.2446,2.587 -2.1466,1.114 -2.2589,1.721 -2.5883,-1.234 -2.3271,-1.913" inkscape:connector-curvature="0" style="stroke:#ffffff">
      <title id="title6910">Carbon, PA</title>
    </path>
    <path id="c42079" d="m 859.26,199.06 4.557,-1.132 2.4764,-1.414 0.24782,-0.187 0.1355,0.405 0.41897,0.456 1.0144,0.376 1.018,0.213 1.3033,1.711 0.40828,1.589 0.14263,0.233 0.23534,0.123 0.55447,0.06 -0.61866,1.066 -0.35301,-0.201 -0.41006,0.146 -0.0695,0.06 -0.92531,1.102 -0.0499,0.104 -0.007,0.199 0.0802,0.483 0.67392,0.548 0.21751,0.451 -4.0079,3.118 -0.61496,0.56563 -3.1219,-0.63563 -0.84124,-1.8083 -0.43439,-2.4186 -0.76754,0.34593 -1.043,-1.51 -0.11232,-0.533 -0.25139,-1.848 0.14442,-1.656" inkscape:connector-curvature="0" style="stroke:#ffffff">
      <title id="title6913">Luzerne, PA</title>
    </path>
    <path id="c42069" d="m 867.39,191.06 4.3235,-0.933 2.2571,8.572 -0.27991,0.337 -0.67571,0.499 -1.2462,1.956 -0.55447,-0.06 -0.23534,-0.123 -0.14263,-0.233 -0.40828,-1.589 -1.3033,-1.711 -1.018,-0.213 -1.0144,-0.376 -0.41897,-0.456 -0.1355,-0.405 0.66679,-1.999 -0.60261,-0.288 0.21573,-1.254 0.45106,-1.553 0.12124,-0.174" inkscape:connector-curvature="0" style="stroke:#ffffff">
      <title id="title6916">Lackawanna, PA</title>
    </path>
    <path id="c42015" d="m 851.71,185.92 6.8534,-1.407 2.1858,7.742 -1.2962,0.36804 0.0749,2.491 -10.173,0.977 -1.0519,0.07 -2.7492,-9.009 6.1562,-1.23" inkscape:connector-curvature="0" style="stroke:#ffffff">
      <title id="title6919">Bradford, PA</title>
    </path>
    <path id="c42115" d="m 859.25,184.37 10.351,-2.243 2.1216,8.005 -4.3235,0.933 -2.4746,0.49 -4.1149,0.891 -0.0553,-0.19 -2.1858,-7.742 0.68106,-0.144" inkscape:connector-curvature="0" style="stroke:#ffffff">
      <title id="title6922">Susquehanna, PA</title>
    </path>
    <path id="c42127" d="m 869.6,182.12 2.0556,-0.456 0.3227,0.07 1.0127,0.713 0.30487,0.289 0.68278,1.5349 1.9612,-0.0389 2.7314,4.901 -1.2551,3.792 -1.2006,2.7523 -1.3196,0.19303 0.34683,0.69893 0.5849,0.10376 -0.37084,2.159 -2.4336,0.698 0.67571,-0.499 0.27991,-0.337 -2.2571,-8.572 -2.1216,-8.005" inkscape:connector-curvature="0" style="stroke:#ffffff">
      <title id="title6925">Wayne, PA</title>
    </path>
    <path id="c42103" d="m 878.67,189.14 0.45998,1.053 0.7381,0.723 0.52239,0.497 1.831,0.95 0.29774,0.137 1.3514,-0.07 0.75415,-0.08 1.3675,1.337 -1.0144,0.731 -0.48138,0.522 -0.41006,0.843 -0.0874,0.257 -0.20859,0.892 -0.0321,0.313 0.0713,0.07 0.0321,0.378 -0.1034,0.692 -0.47425,1.118 -0.68462,0.963 -0.23355,0.328 -0.57765,0.362 -1.2498,-1.0284 -1.2498,-0.0166 -0.016,-2.432 -3.8171,1.163 0.37084,-2.159 -0.5849,-0.10376 -0.34683,-0.69893 1.3196,-0.19303 1.2006,-2.7523 1.2551,-3.792" inkscape:connector-curvature="0" style="stroke:#ffffff">
      <title id="title6928">Pike, PA</title>
    </path>
    <path id="c42089" d="m 875.45,198.84 3.8171,-1.163 0.016,2.432 1.2498,0.0166 1.2498,1.0284 0.57765,-0.362 0.23355,-0.328 0.0963,0.119 -1.872,3.496 -1.2993,1.1995 -0.81024,1.4569 -1.6339,1.5341 -1.4537,0.60753 -2.2446,-2.587 1.0145,-1.239 -2.6921,-2.298 -0.54734,-0.193 0.61866,-1.066 1.2462,-1.956 2.4336,-0.698" inkscape:connector-curvature="0" style="stroke:#ffffff">
      <title id="title6931">Monroe, PA</title>
    </path>
    <path id="c42095" d="m 880.82,204.08 1.6313,1.922 0.0571,0.136 -0.009,0.135 -0.57765,1.771 -0.35123,0.486 -0.2603,0.04 -0.25673,-0.03 -0.1355,0.04 -0.29239,0.686 0.17829,1.387 0.42432,1.64 0.1141,0.209 -1.9612,2.139 -1.4279,-0.70913 0.18962,-0.97215 -1.2003,-1.0131 -0.65287,0.55536 -0.57052,-0.353 -0.77767,-1.2408 -0.36336,0.5348 -0.57052,-0.353 -0.22643,-0.285 -0.30487,-0.812 2.1466,-1.114 1.4537,-0.60753 1.6339,-1.5341 0.81024,-1.4569 1.2993,-1.1995" inkscape:connector-curvature="0" style="stroke:#ffffff">
      <title id="title6934">Northampton, PA</title>
    </path>
    <path id="c42077" d="m 873.48,209.99 0.30487,0.812 0.22643,0.285 0.57052,0.353 0.36336,-0.5348 0.77767,1.2408 0.57052,0.353 0.65287,-0.55536 1.2003,1.0131 -0.18962,0.97215 1.4279,0.70913 -1.9594,3.236 -0.91639,-0.479 -7.2723,-3.874 1.9843,-1.81 2.2589,-1.721" inkscape:connector-curvature="0" style="stroke:#ffffff">
      <title id="title6937">Lehigh, PA</title>
    </path>
    <path id="c42045" d="m 881.3,225.38 1.872,1.712 0.67564,0.5625 -0.19551,1.2287 0.77813,-0.10368 0.41942,0.5625 -2.0608,0.78553 -1.1384,1.4517 -0.18705,-0.0715 -0.18807,-0.0664 -0.18933,-0.0607 -0.19084,-0.0542 -0.19259,-0.0469 -0.19459,-0.039 -0.19681,-0.0303 -0.1993,-0.0209 -0.20201,-0.0107 -0.20497,1.6e-4 -0.20818,0.0118 -0.21162,0.0241 -0.21531,0.0372 -0.21925,0.051 -0.22341,0.0655 -0.22783,0.0807 -0.0761,-1.2318 2.9768,-4.8372" inkscape:connector-curvature="0" style="stroke:#ffffff">
      <title id="title6940">Delaware, PA</title>
    </path>
    <path id="c42091" d="m 877.42,217.87 9.3922,4.582 -1.2634,2.2997 -2.223,-0.48532 -0.25579,1.0067 0.91461,0.706 -0.82012,1.109 -1.872,-1.712 -1.9202,-0.442 -1.6973,-1.342 -0.18185,-0.241 -0.0571,-0.07 -1.7829,-0.729 -0.98058,0.11 1.831,-5.268 0.91639,0.479" inkscape:connector-curvature="0" style="stroke:#ffffff">
      <title id="title6943">Montgomery, PA</title>
    </path>
    <path id="c42029" d="m 874.68,222.66 0.98058,-0.11 1.7829,0.729 0.0571,0.07 0.18185,0.241 1.6973,1.342 1.9202,0.442 -2.9768,4.8391 0.0761,1.2338 -0.27807,0.1283 -0.26084,0.1396 -0.24395,0.1507 -0.22737,0.1615 -0.21114,0.1722 -0.1952,0.1826 -0.1797,0.1927 -0.1644,0.20271 -0.1495,0.21243 -0.135,0.22192 -0.1207,0.2312 -0.1068,0.24024 -0.0932,0.24906 -0.0799,0.25765 -0.067,0.26601 -0.0545,0.27415 -0.17142,0.0472 -5.9637,1.277 1.0109,-1.302 0.22642,-0.603 0.27456,-1.012 0.17472,-1.246 -0.22464,-0.617 -0.0874,-0.403 -0.0642,-0.587 0.45879,-2.3252 -0.34647,-1.3708 1.0537,-0.907 2.5067,-3.024" inkscape:connector-curvature="0" style="stroke:#ffffff">
      <title id="title6946">Chester, PA</title>
    </path>
    </g>
  </svg>
