<?xml version="1.0" encoding="utf-8" ?>
<svg baseProfile="full" fill="#d0d0d0" height="399.26579503341725" stroke="#ffffff" stroke-width="1" version="1.1" width="400.0" xmlns="http://www.w3.org/2000/svg" xmlns:ev="http://www.w3.org/2001/xml-events" xmlns:xlink="http://www.w3.org/1999/xlink">
	<defs />
	<g id="counties"><path d="M 254.7881076265136,216.4348497294332 L 258.5027123880973,216.80623652293306 L 262.0765940524441,212.42752223753175 L 263.79526710000005,209.45479932799495 L 290.5669032122678,209.46428053235982 L 290.48316354278916,228.04380774995167 L 290.439544550067,235.91241007972766 L 280.07806460633594,235.83219863078875 L 279.8142570771135,235.73398669920448 L 279.9070860252272,225.13764285173485 L 258.59781131878736,224.85094685374165 L 256.2642017732123,221.97408255786323 L 253.54355853677555,216.29766824833422 L 254.7881076265136,216.4348497294332 z" id="c12081" />
		<path d="M 225.17676102937187,28.855272558530004 L 234.18229705504964,29.577933028619995 L 234.45280198641183,29.599423139870552 L 247.7052801400757,30.5962029043421 L 257.500286647535,31.335706436697635 L 255.55156107432055,33.64042024373148 L 259.63930336510623,43.601172901088525 L 257.3822888980926,47.30949576424007 L 254.84027675354213,47.73547393035963 L 252.21965287529858,47.824627263877005 L 251.90637210124112,47.03747058137897 L 241.09912013679667,41.38014124523077 L 236.89736275280362,40.53169875507909 L 232.24055905236483,43.95875058578878 L 229.6030779261802,41.62681185799039 L 227.0889129295818,29.272585955910476 L 225.17676102937187,28.855272558530004 z" id="c12047" />
		<path d="M 290.439544550067,235.91241007972766 L 290.48316354278916,228.04380774995167 L 316.9598283484431,227.86013262864526 L 317.10178834041557,246.3598115666826 L 294.3902450797779,246.31540279348772 L 290.38229958274576,246.50354297533863 L 290.439544550067,235.91241007972766 z" id="c12027" />
		<path d="M 258.8489810250121,77.66074584949364 L 259.7914312402659,77.74418170125952 L 265.6566326673403,71.01574046804923 L 266.6500163826018,70.75765044432515 L 271.4831063607628,72.11284613784139 L 279.1520156251579,76.96664829512046 L 286.48416674809334,77.40555438441422 L 290.55660337882875,84.50964117421034 L 290.80207452781724,85.45454475171488 L 290.53499802200946,99.40838399650636 L 290.54766348616704,101.1808222503228 L 282.9431779253981,102.35924457679742 L 282.3263072035297,98.62477916406918 L 272.0264115378649,98.53826299570072 L 264.1010438256081,98.80664741686557 L 264.07551447188393,95.3349974574482 L 258.8766474961266,93.66677989636479 L 258.8489810250121,77.66074584949364 z" id="c12001" />
		<path d="M 258.59781131878736,224.85094685374165 L 279.9070860252272,225.13764285173485 L 279.8142570771135,235.73398669920448 L 280.07806460633594,235.83219863078875 L 290.439544550067,235.91241007972766 L 290.38229958274576,246.50354297533863 L 279.7036720418249,246.43868484401895 L 279.6776334336545,251.727289485623 L 273.5347065213119,251.6628500146175 L 269.0529020657031,243.61191284543236 L 265.6351158340236,235.85223619097 L 264.39999743305174,233.0430738721532 L 260.60902309905055,227.32766588911772 L 258.59781131878736,224.85094685374165 z" id="c12115" />
		<path d="M 273.5347065213119,251.6628500146175 L 279.6776334336545,251.727289485623 L 279.7036720418249,246.43868484401895 L 290.38229958274576,246.50354297533863 L 294.3902450797779,246.31540279348772 L 317.10178834041557,246.3598115666826 L 317.1068409600648,246.36871812937773 L 316.97784684565084,262.2956572516923 L 297.21444223666117,262.3047625003469 L 282.36023411219514,262.2679025677653 L 278.3047809398403,261.1277840092959 L 276.4895754286734,256.95861617058796 L 273.5347065213119,251.6628500146175 z" id="c12015" />
		<path d="M 317.1068409600648,246.36871812937773 L 333.05341188316027,246.3678412364111 L 332.9974263832727,241.02406754672384 L 338.3602288111288,240.95228425327346 L 338.2789119888066,235.6550840038398 L 350.5983690648281,235.78203986683278 L 353.9699033700145,237.99076686379615 L 353.697795039169,250.65242758617046 L 350.5662279500104,262.1294360366619 L 316.97784684565084,262.2956572516923 L 317.1068409600648,246.36871812937773 z" id="c12043" />
		<path d="M 316.97784684565084,262.2956572516923 L 350.5662279500104,262.1294360366619 L 353.697795039169,250.65242758617046 L 354.2660171848008,288.34451184419106 L 354.3822221451489,292.826981358652 L 333.2504305295574,293.3645614156926 L 332.9855583289955,277.44658070657704 L 317.1479282190119,277.744237798092 L 317.05787315884714,272.4984348526965 L 316.97784684565084,262.2956572516923 z" id="c12051" />
		<path d="M 318.58986096257837,90.23737203926612 L 329.1084914480211,89.9933831926155 L 335.07964525400206,87.23915473923613 L 337.59677857971116,94.1800503125203 L 340.85322539085945,101.89506874013907 L 338.06601412938005,102.88363255907969 L 338.4359155305659,111.62762198932144 L 324.3048918035044,112.00358569182772 L 324.0651918385366,103.64907423394585 L 323.38140506214637,103.72046923887189 L 321.1159216676641,103.85167835676437 L 318.7817684356546,97.6067357483155 L 318.58986096257837,90.23737203926612 z" id="c12035" />
		<path d="M 85.38692631256164,37.75466101688485 L 89.49277718099093,37.216437762557135 L 91.7574165206983,34.49566051969203 L 89.16059358656145,25.559977003659352 L 93.0001470816504,21.65942232582368 L 94.37104291512911,16.406910948591694 L 96.00894595556288,16.488324618945896 L 98.74264121716773,19.23941946912894 L 104.8424618961249,19.59110606717632 L 106.0060596647133,14.38861669602504 L 112.13522027631048,14.646047872139565 L 114.65902038107397,17.386658558706934 L 114.12538423444259,30.539505275802348 L 111.43057252641778,30.45578384530389 L 111.1018826436831,38.35829113635876 L 91.98318259954677,37.49702177287969 L 84.58726535789027,40.342461267286474 L 85.38692631256164,37.75466101688485 z" id="c12133" />
		<path d="M 290.80207452781724,85.45454475171488 L 290.55660337882875,84.50964117421034 L 290.8925907921815,84.48337346087345 L 296.67380231380145,82.7442429239484 L 298.25952739045084,79.96466166247329 L 303.3498580334937,77.36893392648041 L 315.5093299141355,77.11457322126701 L 318.47318130608915,81.96984810497435 L 318.5050114666953,84.25659282861324 L 318.58986096257837,90.23737203926612 L 318.7817684356546,97.6067357483155 L 321.1159216676641,103.85167835676437 L 323.38140506214637,103.72046923887189 L 322.7584354509424,104.83394592971747 L 310.35191300986116,108.24074911716276 L 307.14682790110277,105.43673382832138 L 305.2956614962867,98.41962577632948 L 301.7674996035985,96.40135795516743 L 293.2540277261042,97.57041942282758 L 290.53499802200946,99.40838399650636 L 290.80207452781724,85.45454475171488 z" id="c12107" />
		<path d="M 322.2413167114083,145.01379272901346 L 324.59773079275453,140.7250535016773 L 324.45849151910147,138.33642586447428 L 327.0916300062294,135.02621396128112 L 329.57383977444044,137.70844115812005 L 334.59186979036474,137.792344832829 L 336.9795317103536,140.7532064761178 L 343.0018852867032,138.89642256738858 L 343.3889497861071,142.7130547136832 L 347.38505278571347,150.94438321915726 L 339.84050541934664,151.03164877046763 L 329.2561769996482,151.23609825179764 L 324.60030244433,149.46321559097242 L 322.2312677265783,149.46718705496903 L 322.2413167114083,145.01379272901346 z" id="c12117" />
		<path d="M 243.49765462091776,82.12253041232199 L 245.06292955740543,77.92826590509067 L 246.4968725065438,77.77691091704129 L 247.23826335854872,74.16243298490188 L 248.11848478013638,72.70897473389184 L 251.4271871885363,71.46146212238713 L 253.00700290052853,71.71460403544974 L 253.09607583160877,73.59149619575483 L 258.8489810250121,77.66074584949364 L 258.8766474961266,93.66677989636479 L 253.59399383906944,93.77604218848515 L 252.7353808654208,92.41840446510939 L 248.32688391904134,92.42582021733915 L 244.06945575507953,91.97346232006284 L 243.14140102846832,92.30318315364393 L 243.49765462091776,82.12253041232199 z" id="c12041" />
		<path d="M 221.88239625983314,51.37247052463368 L 228.16779592325454,51.43087254596394 L 229.20310681765594,60.33290139134466 L 232.61561521887538,60.57961451689861 L 242.91259520011502,67.72050369665133 L 247.23826335854872,74.16243298490188 L 246.4968725065438,77.77691091704129 L 245.06292955740543,77.92826590509067 L 224.1129299395202,77.8163247133385 L 222.32401349368686,77.81977381187687 L 221.42275965473016,73.84415777564308 L 221.88239625983314,51.37247052463368 z" id="c12067" />
		<path d="M 113.76344518124817,74.33826524278112 L 115.57750889552224,69.65917090238366 L 115.34595982700633,69.46102901585282 L 115.81884979587154,52.74474577847354 L 130.18697740588644,53.21574113547026 L 127.99538812705835,59.676190324092715 L 129.99894519072436,63.89182798373815 L 134.55228770538298,67.1415477897612 L 133.00033971773885,70.7725778244632 L 133.51559389570383,78.66562353598327 L 129.82155004371037,78.77108173475386 L 123.37232661304971,85.07228516422363 L 121.74245022855322,84.3174966795875 L 116.8076086523878,85.47596338046164 L 114.33589563015711,79.42186777481132 L 113.76344518124817,74.33826524278112 z" id="c12045" />
		<path d="M 44.62598948782964,2.008486097038101 L 49.696916941898216,2.2721766750056163 L 56.18784417883663,2.6031690315043003 L 65.28681256947897,3.010749979689466 L 63.36922316750484,40.27054526889483 L 62.60613066044129,40.06833468842439 L 51.07529845620139,38.64155253639172 L 42.27635160896103,38.98800366756114 L 44.62598948782964,2.008486097038101 z" id="c12091" />
		<path d="M 353.4785911790289,199.37516038198854 L 354.1302818778811,198.5638679748708 L 373.42377573208483,198.3857723076595 L 376.6868251333622,196.0254804829379 L 380.2122621326853,203.2473834312167 L 383.1588554819121,211.80492024986268 L 383.95862831734087,214.2192812330123 L 364.43821545878257,214.3878821118275 L 359.2057913322012,214.42575061439223 L 359.1080983253311,209.33240301534195 L 354.0008755139774,209.43568357560477 L 353.4785911790289,199.37516038198854 z" id="c12061" />
		<path d="M 339.6613020929083,212.02282397988486 L 339.5528434324976,209.49449889951583 L 354.0008755139774,209.43568357560477 L 359.1080983253311,209.33240301534195 L 359.2057913322012,214.42575061439223 L 364.43821545878257,214.3878821118275 L 364.7691614239504,235.64442206597874 L 364.84624600215517,240.73219304093206 L 353.697795039169,250.65242758617046 L 353.9699033700145,237.99076686379615 L 350.5983690648281,235.78203986683278 L 348.94972838036716,235.08125308151378 L 345.47204336594007,226.5831474969424 L 342.0162592089948,225.40602940372025 L 335.723577329635,216.4268547003983 L 339.6613020929083,212.02282397988486 z" id="c12093" />
		<path d="M 290.8959601549567,56.23676624698568 L 308.61193878378145,55.96118466742298 L 310.27442685883113,55.998848238378045 L 310.2552741787633,60.17670207755141 L 309.8162926319759,65.76839043415218 L 314.44469489011595,70.13047001070002 L 315.5093299141355,77.11457322126701 L 303.3498580334937,77.36893392648041 L 298.25952739045084,79.96466166247329 L 296.67380231380145,82.7442429239484 L 290.8925907921815,84.48337346087345 L 291.05818317186026,82.76679238696684 L 290.8940812493122,58.878777831163404 L 290.8959601549567,56.23676624698568 z" id="c12019" />
		<path d="M 109.96672555495012,5.817615096157232 L 111.6350378373178,4.454349552205623 L 112.13996624557835,4.464204695674944 L 120.20412000042721,4.615618573085616 L 129.95066628008368,4.830992029525298 L 135.9143080002041,4.999511311410236 L 137.41135857346512,5.038034292908344 L 137.18747567235215,6.46037646301441 L 138.28286998459103,8.909746808467565 L 140.69106484081792,12.494563284680336 L 140.6938479992568,15.193149541011007 L 141.4366353675332,18.954990513068132 L 144.12963005131817,22.681531713853325 L 144.2970400928573,23.79096986983594 L 140.42612180152386,28.937557018612495 L 128.1486708619553,28.50865052640765 L 127.85483752836585,31.137311120195143 L 116.78010543049177,30.66248215268382 L 114.12538423444259,30.539505275802348 L 114.65902038107397,17.386658558706934 L 112.13522027631048,14.646047872139565 L 106.0060596647133,14.38861669602504 L 109.96672555495012,5.817615096157232 z" id="c12063" />
		<path d="M 278.3047809398403,261.1277840092959 L 282.36023411219514,262.2679025677653 L 297.21444223666117,262.3047625003469 L 316.97784684565084,262.2956572516923 L 317.05787315884714,272.4984348526965 L 317.1479282190119,277.744237798092 L 317.25241949067356,283.2124089046098 L 311.96929055780004,283.3217090462719 L 312.073024676711,289.56246011698255 L 307.27719225216737,289.61373150165696 L 303.31888925869873,289.6596393424741 L 301.8255140306673,288.80984689054685 L 297.6316467297055,282.40552263144804 L 295.8401525890235,281.4597846751047 L 292.73033358290274,281.47822837585585 L 289.41322462391923,283.2857558481573 L 286.6099275091544,282.42621985222235 L 283.679789148272,280.0123849648497 L 280.18478535639446,272.4798573902107 L 279.16950312704387,266.6051237472209 L 279.15888608402867,263.0875374313615 L 278.3047809398403,261.1277840092959 z" id="c12071" />
		<path d="M 295.921770790531,154.86946516938517 L 295.9153328444971,130.24057643784704 L 306.1280575091167,130.17529856762758 L 311.58931324233885,130.1973263643902 L 312.49378452883195,117.62110396566054 L 312.42145545863315,111.10972291941567 L 314.0002097474472,115.55747707995 L 318.2972047833667,117.12947480344302 L 319.8633622127391,121.87715353736519 L 327.71459668388604,128.68068231285423 L 327.0916300062294,135.02621396128112 L 324.45849151910147,138.33642586447428 L 324.59773079275453,140.7250535016773 L 312.2670038414272,140.71840402732442 L 311.62823554792027,141.8663277367524 L 311.73633158114507,155.16927516900998 L 311.77125478462233,167.18260312620362 L 301.08054750273607,166.3133440813658 L 295.74542492244024,167.32384468765176 L 295.921770790531,154.86946516938517 z" id="c12069" />
		<path d="M 258.04801442579713,158.82799106301584 L 258.5134661627995,155.18884736560653 L 257.92953281618674,150.50545026807993 L 257.9238748582093,146.16927234273103 L 271.2380153808912,146.19639971000856 L 271.26748085389727,147.94326445521114 L 279.4931134185888,147.86194470907543 L 278.86539980390796,148.55024898487284 L 282.40163308958546,153.63215648075413 L 290.5840739731655,156.69803037758192 L 290.5709087989728,159.2895020201816 L 279.98809780194296,159.2702703253638 L 279.9747671503675,161.9037631385474 L 256.65871997708183,161.90166585113565 L 258.04801442579713,158.82799106301584 z" id="c12053" />
		<path d="M 258.68694705306933,177.59846708232624 L 268.1370004140861,177.7223199666838 L 279.60467233174467,177.7857694100449 L 287.8285677206769,177.78681897444943 L 290.47878719815793,177.79208682726752 L 290.52559652982495,192.53137894815436 L 290.5457452073433,193.70453934899078 L 290.5669032122678,209.46428053235982 L 263.79526710000005,209.45479932799495 L 265.8844386393175,205.83710816636682 L 267.854334353478,204.79477813254346 L 270.3140110933257,202.0848702910932 L 269.4217644850787,199.552260969951 L 268.10120851333977,199.0920225832428 L 267.2229860548698,198.78576244463477 L 263.79351658653775,197.21197351155683 L 263.1236299502099,197.94005231516175 L 262.76681626705295,193.5564197793432 L 258.75004268515056,189.30408127581086 L 258.70787612248193,179.30764021083334 L 258.68694705306933,177.59846708232624 z" id="c12057" />
		<path d="M 123.37232661304971,85.07228516422363 L 129.82155004371037,78.77108173475386 L 133.51559389570383,78.66562353598327 L 133.00033971773885,70.7725778244632 L 134.55228770538298,67.1415477897612 L 135.55920061253283,64.60369757399259 L 159.8820228596462,65.36398814795737 L 160.91760509286533,67.15620913038994 L 163.90064789489693,66.00606034813326 L 170.4980400671641,68.62573540407485 L 170.8415781217874,70.86864692474408 L 170.0030313942641,72.4761078708739 L 166.07943804041167,72.02124213221776 L 163.66299148560572,70.66994646671526 L 160.1977922916709,71.46579273790083 L 157.98210472951766,72.7608194815021 L 158.5331092239672,77.46168805106161 L 156.4460948526362,78.87364960844687 L 151.74843684983637,80.15351829632344 L 147.20451974649285,84.32433167886435 L 141.8916599067701,86.39476634499272 L 132.907249398132,90.3186043811779 L 127.07757235087215,86.78578521651889 L 123.37232661304971,85.07228516422363 z" id="c12037" />
		<path d="M 311.62823554792027,141.8663277367524 L 312.2670038414272,140.71840402732442 L 324.59773079275453,140.7250535016773 L 322.2413167114083,145.01379272901346 L 322.2312677265783,149.46718705496903 L 324.60030244433,149.46321559097242 L 329.2561769996482,151.23609825179764 L 339.84050541934664,151.03164877046763 L 347.38505278571347,150.94438321915726 L 349.26495739575836,151.4231171368097 L 353.10762177368304,157.49031725802138 L 354.1546906648764,166.89923705951892 L 341.78794618707207,166.9666319181192 L 330.3220478615287,167.04570926740243 L 311.77125478462233,167.18260312620362 L 311.73633158114507,155.16927516900998 L 311.62823554792027,141.8663277367524 z" id="c12095" />
		<path d="M 290.5669032122678,209.46428053235982 L 316.9234206047275,209.40763883657038 L 316.9598283484431,227.86013262864526 L 290.48316354278916,228.04380774995167 L 290.5669032122678,209.46428053235982 z" id="c12049" />
		<path d="M 269.4976336873774,32.218962589877584 L 271.6158507771162,32.42916876842855 L 282.0729594290582,33.45549522437124 L 281.50274664717625,36.08351584848035 L 282.98429956422814,38.884752805471116 L 282.48997815420313,41.89115673868351 L 284.06738970898215,45.270169725950524 L 285.9886980030135,45.58853667049673 L 288.53080173554196,45.748777037401794 L 290.8184889394566,45.291663210597925 L 290.90738882661736,51.01874935350164 L 290.8959601549567,56.23676624698568 L 290.8940812493122,58.878777831163404 L 286.0101228230869,58.8758146504575 L 269.4519179726789,59.23445878405429 L 269.45936960682343,57.53655788333085 L 269.48660081502067,32.21816172004213 L 269.4976336873774,32.218962589877584 z" id="c12003" />
		<path d="M 231.83497646980865,110.0883183946174 L 237.44124195995067,106.49996940245792 L 241.52787713526212,99.203244716799 L 244.06945575507953,91.97346232006284 L 248.32688391904134,92.42582021733915 L 252.7353808654208,92.41840446510939 L 253.59399383906944,93.77604218848515 L 258.8766474961266,93.66677989636479 L 264.07551447188393,95.3349974574482 L 264.1010438256081,98.80664741686557 L 272.0264115378649,98.53826299570072 L 272.06068708662815,106.0149544556538 L 272.14888782185267,114.78989288627241 L 265.183955556606,114.81894162167455 L 265.09866293787206,125.06192978605975 L 261.0031031195693,127.18832651254395 L 255.74145529831478,125.85818788071595 L 253.42214363043942,127.64753768438965 L 253.22263052977826,127.3031123982533 L 253.22380946219056,124.43356280058484 L 249.85314551129258,121.71402430197008 L 251.1724215346564,120.78199167175624 L 249.69751618819686,118.12245346694328 L 244.40615119355803,117.45068280002678 L 240.7559646136524,116.86783113842533 L 239.66426016103307,120.03775416203672 L 237.70972464558037,119.69071643244642 L 236.38103462740526,115.6908572248785 L 236.63427428755395,112.61467819947859 L 234.9140474361494,111.33699178312315 L 231.83497646980865,110.0883183946174 z" id="c12075" />
		<path d="M 310.35191300986116,108.24074911716276 L 322.7584354509424,104.83394592971747 L 323.38140506214637,103.72046923887189 L 324.0651918385366,103.64907423394585 L 324.3048918035044,112.00358569182772 L 338.4359155305659,111.62762198932144 L 338.06601412938005,102.88363255907969 L 340.85322539085945,101.89506874013907 L 343.88437099519484,109.05818118224143 L 348.2254634490641,118.6670820402298 L 351.39125608152267,123.68756814170524 L 357.8811710776917,135.02557875362587 L 361.09537535649565,140.06376390465363 L 348.3227348480769,140.24757027731968 L 348.5977157085146,150.93430329337644 L 347.38505278571347,150.94438321915726 L 343.3889497861071,142.7130547136832 L 343.0018852867032,138.89642256738858 L 336.9795317103536,140.7532064761178 L 334.59186979036474,137.792344832829 L 329.57383977444044,137.70844115812005 L 327.0916300062294,135.02621396128112 L 327.71459668388604,128.68068231285423 L 319.8633622127391,121.87715353736519 L 318.2972047833667,117.12947480344302 L 314.0002097474472,115.55747707995 L 312.42145545863315,111.10972291941567 L 310.35191300986116,108.24074911716276 z" id="c12127" />
		<path d="M 265.183955556606,114.81894162167455 L 272.14888782185267,114.78989288627241 L 272.06068708662815,106.0149544556538 L 272.0264115378649,98.53826299570072 L 282.3263072035297,98.62477916406918 L 282.9431779253981,102.35924457679742 L 290.54766348616704,101.1808222503228 L 290.53499802200946,99.40838399650636 L 293.2540277261042,97.57041942282758 L 301.7674996035985,96.40135795516743 L 305.2956614962867,98.41962577632948 L 307.14682790110277,105.43673382832138 L 310.35191300986116,108.24074911716276 L 312.42145545863315,111.10972291941567 L 312.49378452883195,117.62110396566054 L 311.58931324233885,130.1973263643902 L 306.1280575091167,130.17529856762758 L 295.9153328444971,130.24057643784704 L 276.9518668054441,130.19888499578354 L 276.9421555913577,130.09982384500807 L 276.95298189698417,129.997077319712 L 276.93295783707174,129.92687933989683 L 276.9233168394127,129.8216059249418 L 276.8960356927235,129.7883008234849 L 276.8762349582198,129.67431519538934 L 276.8631436468238,129.65069772727807 L 276.77012510978403,129.60599912681957 L 276.74551567709875,129.56594527262826 L 276.73999010652926,129.5098987303572 L 276.7549403780727,129.4527005325505 L 276.7343920127908,129.42146330199836 L 276.6357143014433,129.41197097209246 L 276.5708934259548,129.35624720767828 L 276.55239335028347,129.35257844780307 L 276.5441722973512,129.41160379599552 L 276.4989918494013,129.42836957989297 L 276.45736124769763,129.4073277079366 L 276.44556839164943,129.37508792903952 L 276.47481162619715,129.3287253970589 L 276.44594425693595,129.29529331616652 L 276.39705412086425,129.3112038875576 L 276.3461274702076,129.29592608776306 L 276.3422735409723,129.25061960638644 L 276.25263948663064,129.21297918880552 L 276.19998307258965,129.17145875130174 L 276.12597024264176,129.08578908395808 L 276.05727206305266,129.0922331278763 L 276.0014157861448,129.07693879002883 L 275.9792694191077,129.01197887329764 L 275.91283212244275,128.9877879899377 L 275.88215986973717,128.93770143295575 L 275.87347779040715,128.89443171219818 L 275.81372426697493,128.8702585201065 L 275.77539675487895,128.92111597916173 L 275.7368227358889,128.85273112887666 L 275.70190143465777,128.82434477672282 L 275.605344381114,128.8002460384567 L 275.5684889360476,128.72523042261625 L 275.5254470282524,128.6811984314737 L 275.46026118918803,128.64777815547473 L 275.3829792986319,128.5428497199016 L 275.35525663477966,128.53860791880257 L 275.3013790973194,128.57470084273695 L 275.1471422989393,128.58269562643807 L 275.09990131868693,128.54329257778411 L 275.01311512619094,128.53489502368677 L 274.962614158467,128.50440785424212 L 274.910205069521,128.43796719211196 L 274.798681184901,128.33208538991266 L 274.64619050845283,128.32541656380266 L 274.5897274943347,128.3036540167977 L 274.52248570579957,128.21653770080528 L 274.464085648085,128.2044787822368 L 274.3451527493763,128.20176446617128 L 274.3122724767429,128.1854393531087 L 274.2835510216289,128.1444581385803 L 274.2861855386517,128.06340338731857 L 274.2276858757942,128.0153341055109 L 274.2242254696186,127.9852867894354 L 274.28911154648006,127.9564142261667 L 274.3008442855255,127.9344956313187 L 274.29955907014903,127.90397249636877 L 274.2502537183123,127.86678816615596 L 268.1720668525742,124.61497256499266 L 265.09866293787206,125.06192978605975 L 265.183955556606,114.81894162167455 z" id="c12083" />
		<path d="M 364.84624600215517,240.73219304093206 L 364.7691614239504,235.64442206597874 L 385.92627054815097,235.38580160561776 L 385.91843209134885,231.9052750062442 L 390.59483714862,231.88258852208926 L 393.0846660283456,237.49914382147753 L 393.9331385211634,240.97307719462685 L 395.14690911477857,243.31507845177308 L 397.0596395802196,249.43158175434579 L 393.8872499474014,250.31718817984193 L 370.2020707466752,250.54634299490735 L 353.697795039169,250.65242758617046 L 364.84624600215517,240.73219304093206 z" id="c12085" />
		<path d="M 290.90738882661736,51.01874935350164 L 291.5198906292401,50.414224200699 L 302.3049926747821,39.309191002245775 L 306.7019161448724,35.47729638611031 L 308.0231119773228,32.998732051482726 L 314.0416309879683,32.1534172207316 L 313.83654424343626,34.03555645401874 L 317.3522849801613,35.86185118884044 L 319.61053171779577,33.444868512302435 L 323.31498018467704,36.90288211700977 L 323.4717034838956,37.47184970554128 L 324.2704726063287,38.354588790425225 L 325.0686705833016,46.91712252808606 L 326.25041604449683,52.16590201116607 L 322.9745358808096,52.21897865149217 L 323.18329641444956,61.07390170808573 L 310.2552741787633,60.17670207755141 L 310.27442685883113,55.998848238378045 L 308.61193878378145,55.96118466742298 L 290.8959601549567,56.23676624698568 L 290.90738882661736,51.01874935350164 z" id="c12031" />
		<path d="M 348.5977157085146,150.93430329337644 L 348.3227348480769,140.24757027731968 L 361.09537535649565,140.06376390465363 L 365.43550044736526,146.8520775130592 L 368.86558897868014,151.64883411265197 L 372.09791308858934,159.9503548593648 L 368.78901901387763,162.9218612968349 L 367.82434153518653,167.41965182122783 L 368.0211633177049,172.16804347838206 L 368.8375976219278,176.9690564977201 L 371.1914871899875,184.73496197365876 L 376.6868251333622,196.0254804829379 L 373.42377573208483,198.3857723076595 L 354.1302818778811,198.5638679748708 L 354.1546906648764,166.89923705951892 L 353.10762177368304,157.49031725802138 L 349.26495739575836,151.4231171368097 L 347.38505278571347,150.94438321915726 L 348.5977157085146,150.93430329337644 z" id="c12009" />
		<path d="M 276.9518668054441,130.19888499578354 L 295.9153328444971,130.24057643784704 L 295.921770790531,154.86946516938517 L 295.74542492244024,167.32384468765176 L 295.72548355667465,169.51029843899516 L 290.50633354150483,169.2766703428163 L 290.5709087989728,159.2895020201816 L 290.5840739731655,156.69803037758192 L 282.40163308958546,153.63215648075413 L 278.86539980390796,148.55024898487284 L 279.4931134185888,147.86194470907543 L 284.49917257537885,140.31278798782216 L 276.9518668054441,130.19888499578354 z" id="c12119" />
		<path d="M 151.42566447445444,47.70841914800341 L 173.8132418056608,48.01247912532019 L 176.1203776293445,49.8127169543655 L 184.79788533085542,50.01544290058178 L 184.57485397558463,60.54653049722042 L 182.0070331578143,61.011728798448 L 179.1396607843817,62.008934421604515 L 177.6383882133932,61.2805127528107 L 173.316497920267,62.860409050838435 L 169.24582160003385,65.70778053816079 L 170.4845814118882,68.53781964917741 L 170.4980400671641,68.62573540407485 L 163.90064789489693,66.00606034813326 L 160.91760509286533,67.15620913038994 L 159.8820228596462,65.36398814795737 L 157.45985971924554,64.18608568259825 L 153.4334859749783,58.140945764130635 L 151.42566447445444,47.70841914800341 z" id="c12129" />
		<path d="M 316.9234206047275,209.40763883657038 L 318.7295662470032,209.41445605485606 L 339.5528434324976,209.49449889951583 L 339.6613020929083,212.02282397988486 L 335.723577329635,216.4268547003983 L 342.0162592089948,225.40602940372025 L 345.47204336594007,226.5831474969424 L 348.94972838036716,235.08125308151378 L 350.5983690648281,235.78203986683278 L 338.2789119888066,235.6550840038398 L 338.3602288111288,240.95228425327346 L 332.9974263832727,241.02406754672384 L 333.05341188316027,246.3678412364111 L 317.1068409600648,246.36871812937773 L 317.10178834041557,246.3598115666826 L 316.9598283484431,227.86013262864526 L 316.9234206047275,209.40763883657038 z" id="c12055" />
		<path d="M 218.9856434426918,87.20193445899552 L 221.5000919918377,87.25411424877387 L 224.1129299395202,77.8163247133385 L 245.06292955740543,77.92826590509067 L 243.49765462091776,82.12253041232199 L 243.14140102846832,92.30318315364393 L 244.06945575507953,91.97346232006284 L 241.52787713526212,99.203244716799 L 237.44124195995067,106.49996940245792 L 231.83497646980865,110.0883183946174 L 231.6425009933784,110.01019441900259 L 231.36121847380824,106.72940038504467 L 229.9688928886377,103.71490600418382 L 227.98300230025012,101.35592504267908 L 225.12201256795348,101.03853654515092 L 224.45221743482284,99.16446826796336 L 219.54409327457773,95.82329423527958 L 219.41134403774421,91.46061684822358 L 218.9856434426918,87.20193445899552 z" id="c12029" />
		<path d="M 2.4970028302771037,2.7972729595517154 L 2.279045481980515,0.0 L 2.2846744509101757,0.0002734697512178542 L 6.415393560945618,0.1994668119369494 L 11.29933659151974,0.4097872089122298 L 17.215776616696747,0.6751957524672838 L 24.953666438220342,1.0031129941962358 L 18.324566944197333,5.149038365348906 L 16.705898180463457,9.8086301510281 L 16.626330429554447,17.097318316124205 L 18.624702275937953,18.114154711055566 L 18.88942793197055,24.20970006254264 L 21.30317536289592,27.715680138107665 L 25.58492900214916,31.248207744079004 L 24.871241966085574,36.05541208828259 L 19.855060036798204,38.00881094565845 L 19.593704523620925,41.9109063091631 L 17.58593062623756,42.06938265994033 L 14.88145676016924,41.80148364702935 L 9.558665004135598,42.802409420603716 L 4.343452309381159,43.56219068540717 L 7.994458881336661,39.88098380409128 L 9.241146162631127,36.359815577597125 L 12.753275404250317,34.50095159447345 L 10.294261945644308,33.1323063251346 L 8.867744125301245,30.021711061909674 L 9.687431316323508,27.46956087851442 L 11.428287688724897,24.27322304030381 L 11.634389711880322,21.082468257877743 L 9.537998621271742,18.83206174548991 L 5.424648152401789,15.865228486103582 L 4.538333341690422,14.051670865780146 L 0.0,7.860685297374714 L 2.4970028302771037,2.7972729595517154 z" id="c12033" />
		<path d="M 247.54679580366644,177.4767067090258 L 252.6783452315054,173.27653981525157 L 254.45115931331074,168.41849839689078 L 256.30023061890086,162.69427487045343 L 256.65871997708183,161.90166585113565 L 279.9747671503675,161.9037631385474 L 279.98809780194296,159.2702703253638 L 290.5709087989728,159.2895020201816 L 290.50633354150483,169.2766703428163 L 287.8143324865297,172.50455520041496 L 287.8285677206769,177.78681897444943 L 279.60467233174467,177.7857694100449 L 268.1370004140861,177.7223199666838 L 258.68694705306933,177.59846708232624 L 247.558733798145,177.59500004065077 L 247.54679580366644,177.4767067090258 z" id="c12101" />
		<path d="M 355.00491928170703,322.88498332926633 L 354.9835503864035,320.20241645053034 L 354.90234097140836,309.7077799265755 L 365.4151355661133,309.6507328201248 L 365.42965280708046,310.9707449577575 L 384.688932462228,310.7347581930058 L 386.3969624359252,309.90137081308967 L 391.2449206475309,309.7112565059538 L 396.21018969245995,309.6312624701837 L 396.1083722664516,313.07357396721625 L 396.32928759367223,315.5780170601685 L 396.33769750428746,315.6733401646071 L 396.62667015271944,318.9479691022021 L 395.91822812753895,322.3053532691699 L 394.2983059797023,328.1956433807599 L 393.08274592030045,327.03200749010773 L 390.1925328192583,324.2095856673143 L 388.24273833825146,328.7068353545333 L 386.3327811355545,331.4500814314835 L 385.70869093190566,335.92914947175444 L 385.6011059082224,336.32513119954075 L 384.49870450724376,340.3796980593874 L 386.0176384771372,344.93888107719425 L 390.12805913252805,342.94051745065565 L 393.2675084390224,336.9155486481027 L 394.02900970191797,341.06494064234676 L 390.3303961541507,348.0576847095401 L 388.56005686876097,347.0399914815915 L 382.69306175069664,349.774062034667 L 381.4615495024974,352.03698478303386 L 381.4837622072099,353.2066385956841 L 380.18331297661166,354.26093172021007 L 378.43722198001575,354.0442215297442 L 376.6837295957041,354.99620954610936 L 376.15137893484206,356.1604183942919 L 376.01127810582284,356.5099883805782 L 373.42889213514405,356.14218245176716 L 367.50754853842966,357.2460372968194 L 364.23300405519143,359.482983625776 L 362.19786576438946,359.8090135786015 L 358.64403135939267,357.513960069505 L 356.1228763057375,358.04939040576136 L 355.20445895145883,346.81410232712886 L 355.00491928170703,322.88498332926633 z" id="c12086" />
		<path d="M 116.78010543049177,30.66248215268382 L 127.85483752836585,31.137311120195143 L 128.1486708619553,28.50865052640765 L 140.42612180152386,28.937557018612495 L 137.29293318261378,33.78436344565194 L 137.51664565574197,38.80172100121232 L 134.25581165938237,44.11377616492698 L 134.63515642587706,46.53965332619604 L 130.18697740588644,53.21574113547026 L 115.81884979587154,52.74474577847354 L 116.78010543049177,30.66248215268382 z" id="c12013" />
		<path d="M 301.8255140306673,288.80984689054685 L 303.31888925869873,289.6596393424741 L 307.27719225216737,289.61373150165696 L 312.073024676711,289.56246011698255 L 311.96929055780004,283.3217090462719 L 317.25241949067356,283.2124089046098 L 317.1479282190119,277.744237798092 L 332.9855583289955,277.44658070657704 L 333.2504305295574,293.3645614156926 L 354.3822221451489,292.826981358652 L 354.90234097140836,309.7077799265755 L 354.9835503864035,320.20241645053034 L 323.94397417781977,320.5366527616235 L 322.2830239108357,319.7114648150083 L 314.49392948744065,315.09350625289886 L 313.10601110965405,316.0885418530694 L 311.34233504715064,317.3521730743798 L 308.3657275690027,314.3112762121575 L 306.69904410049423,308.6977360782826 L 303.88692296955793,299.5462773635562 L 301.9305731929218,288.97009668553096 L 301.8255140306673,288.80984689054685 z" id="c12021" />
		<path d="M 353.697795039169,250.65242758617046 L 370.2020707466752,250.54634299490735 L 393.8872499474014,250.31718817984193 L 397.0596395802196,249.43158175434579 L 399.15290121095586,256.11402009815765 L 399.67631868811435,259.37616382373596 L 399.90021196555483,260.7708644678203 L 400.0,261.39234221136326 L 399.89159348088094,267.1546699284914 L 399.93109369501553,269.0326289304743 L 399.97236673627515,270.9961697241904 L 399.8223655757323,273.59251266847446 L 399.2535218332511,277.20863918707107 L 398.71898958168913,282.2326425228505 L 398.03923988659386,288.6064895620239 L 396.7332755343244,288.2121697627179 L 392.9095542780474,288.2667272059496 L 391.06535850641734,288.29014220955804 L 388.5713049309215,287.497776779603 L 385.98505113801343,287.9648390089797 L 354.2660171848008,288.34451184419106 L 353.697795039169,250.65242758617046 z" id="c12099" />
		<path d="M 340.3598070438417,386.32215926067823 L 346.3803673643337,382.53747668269307 L 356.87691845359404,377.6839992454509 L 369.7963779969596,368.2030921962774 L 374.91881539570284,362.8145672853937 L 375.75942902037076,359.1138419946195 L 376.01127810582284,356.5099883805782 L 376.15137893484206,356.1604183942919 L 376.6837295957041,354.99620954610936 L 378.43722198001575,354.0442215297442 L 380.18331297661166,354.26093172021007 L 381.4837622072099,353.2066385956841 L 381.4615495024974,352.03698478303386 L 382.69306175069664,349.774062034667 L 388.56005686876097,347.0399914815915 L 390.3303961541507,348.0576847095401 L 390.0007187141782,348.680181733743 L 383.57265451681326,359.23058100071484 L 376.07084957620026,368.5986891737836 L 367.66546494991076,376.71809760370985 L 350.40921903425834,386.4112982502027 L 342.8729456638135,388.77862403762157 L 340.3598070438417,386.32215926067823 z M 323.94397417781977,320.5366527616235 L 354.9835503864035,320.20241645053034 L 355.00491928170703,322.88498332926633 L 355.20445895145883,346.81410232712886 L 356.1228763057375,358.04939040576136 L 355.1759311218911,358.25025391749534 L 352.9719790845098,360.2591480085407 L 347.8384915124024,361.257117594331 L 343.9850739966423,361.6826626968509 L 340.5345631336254,357.8347629790612 L 338.9407261182192,354.05526564375305 L 340.1577304711892,348.8064332318808 L 340.2022692060806,344.29750124010945 L 336.80347802368726,338.4487193104151 L 335.00290559982477,332.7857714825306 L 332.27922841241747,328.308540444627 L 328.65999595630825,326.52009578555686 L 327.1196547922772,322.1127949191147 L 323.94397417781977,320.5366527616235 z M 303.86567785376144,395.00372515464136 L 307.1874424687941,389.88868689791775 L 311.5287661759137,387.10699112782953 L 316.35354437005395,384.8526434505411 L 317.0901631741842,383.66541066039287 L 324.10193015753885,380.2035866102369 L 331.7374450254124,383.6757245041758 L 335.1674765184991,388.5516526015724 L 329.7271418661874,390.7632918951545 L 326.4418027023655,391.6360818878131 L 324.12142090593835,390.49249905493497 L 320.07720962227233,391.80003371912636 L 315.7880783172495,393.50959974482515 L 310.837557242748,395.59792380330435 L 303.8211157965941,396.4067695831037 L 303.86567785376144,395.00372515464136 z M 292.6633347577481,396.5582900001322 L 294.37237683824696,394.29125356595404 L 300.72171799723895,394.08062779553114 L 297.96095583543234,399.26579503341725 L 291.93605141106366,399.2316907249141 L 292.6633347577481,396.5582900001322 z M 283.1208324739879,394.64486271794544 L 285.54545390429394,391.76766852817866 L 288.710089167805,393.7238726743319 L 287.92969613436304,397.14598132367297 L 283.59006352459016,397.37170780828325 L 283.1208324739879,394.64486271794544 z" id="c12087" />
		<path d="M 228.16779592325454,51.43087254596394 L 231.11597110645434,44.57327663914464 L 232.24055905236483,43.95875058578878 L 236.89736275280362,40.53169875507909 L 241.09912013679667,41.38014124523077 L 251.90637210124112,47.03747058137897 L 251.79139880734195,68.20169616230386 L 253.48752536339993,69.4610822822758 L 251.4271871885363,71.46146212238713 L 248.11848478013638,72.70897473389184 L 247.23826335854872,74.16243298490188 L 242.91259520011502,67.72050369665133 L 232.61561521887538,60.57961451689861 L 229.20310681765594,60.33290139134466 L 228.16779592325454,51.43087254596394 z" id="c12121" />
		<path d="M 310.2552741787633,60.17670207755141 L 323.18329641444956,61.07390170808573 L 322.9745358808096,52.21897865149217 L 326.25041604449683,52.16590201116607 L 330.850931926696,72.51464481529298 L 331.83610073023397,74.44337886181943 L 332.306971415085,78.11921571567422 L 332.5962350681684,80.37538002668434 L 335.07964525400206,87.23915473923613 L 329.1084914480211,89.9933831926155 L 318.58986096257837,90.23737203926612 L 318.5050114666953,84.25659282861324 L 318.47318130608915,81.96984810497435 L 315.5093299141355,77.11457322126701 L 314.44469489011595,70.13047001070002 L 309.8162926319759,65.76839043415218 L 310.2552741787633,60.17670207755141 z" id="c12109" />
		<path d="M 287.8143324865297,172.50455520041496 L 290.50633354150483,169.2766703428163 L 295.72548355667465,169.51029843899516 L 295.74542492244024,167.32384468765176 L 301.08054750273607,166.3133440813658 L 311.77125478462233,167.18260312620362 L 311.7904543918543,172.16311247644563 L 317.11581462114674,172.45647830090795 L 318.9179135429966,179.47900481383152 L 322.5535182727053,179.44215675412963 L 322.5936249348232,182.9563222441691 L 328.4412232586636,182.9397878392289 L 326.70873646644196,187.3506608850795 L 322.3986391213554,184.96218613892017 L 324.5311679739393,187.95872639175784 L 330.51496943713903,192.74704824672608 L 330.90159863013696,196.35121692945356 L 335.94153254206685,198.79059598471275 L 339.3212047095999,205.4376464500566 L 339.5528434324976,209.49449889951583 L 318.7295662470032,209.41445605485606 L 316.9234206047275,209.40763883657038 L 290.5669032122678,209.46428053235982 L 290.5457452073433,193.70453934899078 L 290.52559652982495,192.53137894815436 L 290.47878719815793,177.79208682726752 L 287.8285677206769,177.78681897444943 L 287.8143324865297,172.50455520041496 z" id="c12105" />
		<path d="M 188.96257611369714,61.21749567263708 L 193.1496482739152,51.866153172696684 L 196.24436965455467,50.23160010653311 L 198.19843954591423,48.43914716130936 L 216.60004117065756,48.66517022306106 L 216.53968964501254,51.31118247262316 L 221.88239625983314,51.37247052463368 L 221.42275965473016,73.84415777564308 L 222.32401349368686,77.81977381187687 L 224.1129299395202,77.8163247133385 L 221.5000919918377,87.25411424877387 L 218.9856434426918,87.20193445899552 L 218.95867191497067,86.93184746415936 L 215.35206095099576,85.1968096848079 L 212.52333126037385,83.68039899266361 L 210.18572942299593,79.7719571547525 L 208.03562664426244,75.54293398640867 L 205.23986608608837,71.78412981581616 L 199.53902921932487,68.16938409813677 L 192.10179045885027,64.30141458318612 L 188.96257611369714,61.21749567263708 z" id="c12123" />
		<path d="M 277.3763238999882,70.10949261990291 L 279.83947805035217,65.80380080563522 L 285.75787404665897,60.87414469082419 L 286.0101228230869,58.8758146504575 L 290.8940812493122,58.878777831163404 L 291.05818317186026,82.76679238696684 L 290.8925907921815,84.48337346087345 L 290.55660337882875,84.50964117421034 L 286.48416674809334,77.40555438441422 L 279.1520156251579,76.96664829512046 L 271.4831063607628,72.11284613784139 L 277.3763238999882,70.10949261990291 z" id="c12007" />
		<path d="M 198.97433883180486,44.33835701805724 L 203.47631392227183,40.62638960219423 L 202.74771935623522,36.19638407133554 L 209.74822925831066,31.813059651293052 L 209.41596173574425,27.605145215177366 L 215.2411249497739,28.04169466834184 L 222.65522811743864,28.650415329160012 L 225.17676102937187,28.855272558530004 L 227.0889129295818,29.272585955910476 L 229.6030779261802,41.62681185799039 L 232.24055905236483,43.95875058578878 L 231.11597110645434,44.57327663914464 L 228.16779592325454,51.43087254596394 L 221.88239625983314,51.37247052463368 L 216.53968964501254,51.31118247262316 L 216.60004117065756,48.66517022306106 L 198.19843954591423,48.43914716130936 L 198.97433883180486,44.33835701805724 z" id="c12079" />
		<path d="M 251.4271871885363,71.46146212238713 L 253.48752536339993,69.4610822822758 L 251.79139880734195,68.20169616230386 L 251.90637210124112,47.03747058137897 L 252.21965287529858,47.824627263877005 L 254.84027675354213,47.73547393035963 L 257.3822888980926,47.30949576424007 L 259.63930336510623,43.601172901088525 L 255.55156107432055,33.64042024373148 L 257.500286647535,31.335706436697635 L 263.00553915583373,31.744084984606125 L 269.48660081502067,32.21816172004213 L 269.45936960682343,57.53655788333085 L 269.4519179726789,59.23445878405429 L 263.24003351390303,67.98929006144036 L 265.6566326673403,71.01574046804923 L 259.7914312402659,77.74418170125952 L 258.8489810250121,77.66074584949364 L 253.09607583160877,73.59149619575483 L 253.00700290052853,71.71460403544974 L 251.4271871885363,71.46146212238713 z" id="c12023" />
		<path d="M 84.58726535789027,40.342461267286474 L 91.98318259954677,37.49702177287969 L 111.1018826436831,38.35829113635876 L 111.43057252641778,30.45578384530389 L 114.12538423444259,30.539505275802348 L 116.78010543049177,30.66248215268382 L 115.81884979587154,52.74474577847354 L 115.34595982700633,69.46102901585282 L 113.46149096338956,67.84758108096042 L 110.2324903457352,67.0649398755853 L 105.93149932829299,62.99099444742601 L 104.450411648034,61.13719099671059 L 99.50628097518525,58.528198185785854 L 93.66312440050862,53.41293368167826 L 84.15441689522304,47.609271835800534 L 84.58726535789027,40.342461267286474 z" id="c12005" />
		<path d="M 311.77125478462233,167.18260312620362 L 330.3220478615287,167.04570926740243 L 341.78794618707207,166.9666319181192 L 354.1546906648764,166.89923705951892 L 354.1302818778811,198.5638679748708 L 353.4785911790289,199.37516038198854 L 354.0008755139774,209.43568357560477 L 339.5528434324976,209.49449889951583 L 339.3212047095999,205.4376464500566 L 335.94153254206685,198.79059598471275 L 330.90159863013696,196.35121692945356 L 330.51496943713903,192.74704824672608 L 324.5311679739393,187.95872639175784 L 322.3986391213554,184.96218613892017 L 326.70873646644196,187.3506608850795 L 328.4412232586636,182.9397878392289 L 322.5936249348232,182.9563222441691 L 322.5535182727053,179.44215675412963 L 318.9179135429966,179.47900481383152 L 317.11581462114674,172.45647830090795 L 311.7904543918543,172.16311247644563 L 311.77125478462233,167.18260312620362 z" id="c12097" />
		<path d="M 65.28681256947897,3.010749979689466 L 66.5185398427952,3.064817658909005 L 75.7669071502285,3.4433221450994673 L 83.68676093737801,3.755643377102085 L 82.92169453717841,21.217690354622317 L 93.0001470816504,21.65942232582368 L 89.16059358656145,25.559977003659352 L 91.7574165206983,34.49566051969203 L 89.49277718099093,37.216437762557135 L 85.38692631256164,37.75466101688485 L 84.58726535789027,40.342461267286474 L 84.15441689522304,47.609271835800534 L 83.957394133519,47.48872529154976 L 79.30907868958661,45.339984354010966 L 72.4494026589033,42.66793118851668 L 63.36922316750484,40.27054526889483 L 65.28681256947897,3.010749979689466 z" id="c12131" />
		<path d="M 253.42214363043942,127.64753768438965 L 255.74145529831478,125.85818788071595 L 261.0031031195693,127.18832651254395 L 265.09866293787206,125.06192978605975 L 268.1720668525742,124.61497256499266 L 274.2502537183123,127.86678816615596 L 274.29955907014903,127.90397249636877 L 274.3008442855255,127.9344956313187 L 274.28911154648006,127.9564142261667 L 274.2242254696186,127.9852867894354 L 274.2276858757942,128.0153341055109 L 274.2861855386517,128.06340338731857 L 274.2835510216289,128.1444581385803 L 274.3122724767429,128.1854393531087 L 274.3451527493763,128.20176446617128 L 274.464085648085,128.2044787822368 L 274.52248570579957,128.21653770080528 L 274.5897274943347,128.3036540167977 L 274.64619050845283,128.32541656380266 L 274.798681184901,128.33208538991266 L 274.910205069521,128.43796719211196 L 274.962614158467,128.50440785424212 L 275.01311512619094,128.53489502368677 L 275.09990131868693,128.54329257778411 L 275.1471422989393,128.58269562643807 L 275.3013790973194,128.57470084273695 L 275.35525663477966,128.53860791880257 L 275.3829792986319,128.5428497199016 L 275.46026118918803,128.64777815547473 L 275.5254470282524,128.6811984314737 L 275.5684889360476,128.72523042261625 L 275.605344381114,128.8002460384567 L 275.70190143465777,128.82434477672282 L 275.7368227358889,128.85273112887666 L 275.77539675487895,128.92111597916173 L 275.81372426697493,128.8702585201065 L 275.87347779040715,128.89443171219818 L 275.88215986973717,128.93770143295575 L 275.91283212244275,128.9877879899377 L 275.9792694191077,129.01197887329764 L 276.0014157861448,129.07693879002883 L 276.05727206305266,129.0922331278763 L 276.12597024264176,129.08578908395808 L 276.19998307258965,129.17145875130174 L 276.25263948663064,129.21297918880552 L 276.3422735409723,129.25061960638644 L 276.3461274702076,129.29592608776306 L 276.39705412086425,129.3112038875576 L 276.44594425693595,129.29529331616652 L 276.47481162619715,129.3287253970589 L 276.44556839164943,129.37508792903952 L 276.45736124769763,129.4073277079366 L 276.4989918494013,129.42836957989297 L 276.5441722973512,129.41160379599552 L 276.55239335028347,129.35257844780307 L 276.5708934259548,129.35624720767828 L 276.6357143014433,129.41197097209246 L 276.7343920127908,129.42146330199836 L 276.7549403780727,129.4527005325505 L 276.73999010652926,129.5098987303572 L 276.74551567709875,129.56594527262826 L 276.77012510978403,129.60599912681957 L 276.8631436468238,129.65069772727807 L 276.8762349582198,129.67431519538934 L 276.8960356927235,129.7883008234849 L 276.9233168394127,129.8216059249418 L 276.93295783707174,129.92687933989683 L 276.95298189698417,129.997077319712 L 276.9421555913577,130.09982384500807 L 276.9518668054441,130.19888499578354 L 284.49917257537885,140.31278798782216 L 279.4931134185888,147.86194470907543 L 271.26748085389727,147.94326445521114 L 271.2380153808912,146.19639971000856 L 257.9238748582093,146.16927234273103 L 257.9237691694084,146.0875613548845 L 255.61151192348692,144.5504307206703 L 255.60040924135674,139.763567687326 L 254.7091449418852,136.75004171255796 L 256.92597044257843,133.4184826682028 L 255.0862120175665,130.51848761595588 L 253.42214363043942,127.64753768438965 z" id="c12017" />
		<path d="M 83.68676093737801,3.755643377102085 L 91.04388458959895,4.0360128247426825 L 98.53542950983606,4.183245128408616 L 107.39410829705642,4.369833238206312 L 111.6350378373178,4.454349552205623 L 109.96672555495012,5.817615096157232 L 106.0060596647133,14.38861669602504 L 104.8424618961249,19.59110606717632 L 98.74264121716773,19.23941946912894 L 96.00894595556288,16.488324618945896 L 94.37104291512911,16.406910948591694 L 93.0001470816504,21.65942232582368 L 82.92169453717841,21.217690354622317 L 83.68676093737801,3.755643377102085 z" id="c12059" />
		<path d="M 184.79788533085542,50.01544290058178 L 185.01981226598508,40.31967549530841 L 186.80901248424271,37.98363018254483 L 190.19890388840486,35.104607085711834 L 188.79135892909989,26.034887086411242 L 198.5092363772902,26.77199734816215 L 202.53483422272626,27.081902383891773 L 209.41596173574425,27.605145215177366 L 209.74822925831066,31.813059651293052 L 202.74771935623522,36.19638407133554 L 203.47631392227183,40.62638960219423 L 198.97433883180486,44.33835701805724 L 198.19843954591423,48.43914716130936 L 196.24436965455467,50.23160010653311 L 193.1496482739152,51.866153172696684 L 188.96257611369714,61.21749567263708 L 188.52883469005403,60.79099915590532 L 185.26690988452611,60.42095516730814 L 184.57485397558463,60.54653049722042 L 184.79788533085542,50.01544290058178 z" id="c12065" />
		<path d="M 151.37930340674183,45.71994305455114 L 155.05595251159684,42.47306595145207 L 161.76599907658678,38.80873588250902 L 167.77431146162064,37.555949935389556 L 169.31552099716924,31.607933869560654 L 174.30193317494954,24.988714417345076 L 182.6668851668574,25.561941468323592 L 184.81566649977498,25.728615040060625 L 188.79135892909989,26.034887086411242 L 190.19890388840486,35.104607085711834 L 186.80901248424271,37.98363018254483 L 185.01981226598508,40.31967549530841 L 184.79788533085542,50.01544290058178 L 176.1203776293445,49.8127169543655 L 173.8132418056608,48.01247912532019 L 151.42566447445444,47.70841914800341 L 151.37930340674183,45.71994305455114 z" id="c12073" />
		<path d="M 247.558733798145,177.59500004065077 L 258.68694705306933,177.59846708232624 L 258.70787612248193,179.30764021083334 L 258.75004268515056,189.30408127581086 L 262.76681626705295,193.5564197793432 L 263.1236299502099,197.94005231516175 L 262.0383937817154,199.11907890782132 L 260.0859655461648,201.33084761529 L 259.94831499397833,204.1743018582746 L 258.46229163086167,206.12044520387235 L 255.6187292114748,210.62756358442724 L 254.10721217422528,211.36282461573168 L 253.84125298924658,207.4092371527602 L 253.44414536289966,204.2225115853785 L 251.10639312123845,200.57152420108488 L 248.11292228412006,196.77030097913877 L 248.44975928065568,191.77525750225865 L 249.15545583681853,186.84246398835975 L 249.1649180586962,186.77627865811394 L 247.9837636674586,181.8032256898195 L 247.558733798145,177.59500004065077 z" id="c12103" />
		<path d="M 364.43821545878257,214.3878821118275 L 383.95862831734087,214.2192812330123 L 387.49705712864227,224.88148868647593 L 390.59483714862,231.88258852208926 L 385.91843209134885,231.9052750062442 L 385.92627054815097,235.38580160561776 L 364.7691614239504,235.64442206597874 L 364.43821545878257,214.3878821118275 z" id="c12111" />
		<path d="M 16.705898180463457,9.8086301510281 L 18.324566944197333,5.149038365348906 L 24.953666438220342,1.0031129941962358 L 25.00581704543403,1.005287724587529 L 37.2269970491707,1.6426182891384857 L 42.217324429558666,1.8816642495547098 L 44.62598948782964,2.008486097038101 L 42.27635160896103,38.98800366756114 L 39.63320433294594,39.08952705835648 L 36.00835504605379,39.657950101694524 L 23.516353904278798,41.599321023798566 L 19.593704523620925,41.9109063091631 L 19.855060036798204,38.00881094565845 L 24.871241966085574,36.05541208828259 L 25.58492900214916,31.248207744079004 L 21.30317536289592,27.715680138107665 L 18.88942793197055,24.20970006254264 L 18.624702275937953,18.114154711055566 L 16.626330429554447,17.097318316124205 L 16.705898180463457,9.8086301510281 z" id="c12113" />
		<path d="M 140.42612180152386,28.937557018612495 L 144.2970400928573,23.79096986983594 L 144.12963005131817,22.681531713853325 L 144.19367056495193,22.685885342959683 L 146.82307822408032,22.864026146076153 L 164.4536245304629,24.298334110363744 L 169.33923229549407,24.642918607562905 L 174.30193317494954,24.988714417345076 L 169.31552099716924,31.607933869560654 L 167.77431146162064,37.555949935389556 L 161.76599907658678,38.80873588250902 L 155.05595251159684,42.47306595145207 L 148.11338242262377,37.987436646073334 L 148.16432371117753,34.43128463394767 L 142.91850984058811,33.42962523413846 L 142.9940286444163,29.052535484907892 L 140.42612180152386,28.937557018612495 z" id="c12039" />
		<path d="M 130.18697740588644,53.21574113547026 L 134.63515642587706,46.53965332619604 L 134.25581165938237,44.11377616492698 L 137.51664565574197,38.80172100121232 L 137.29293318261378,33.78436344565194 L 140.42612180152386,28.937557018612495 L 142.9940286444163,29.052535484907892 L 142.91850984058811,33.42962523413846 L 148.16432371117753,34.43128463394767 L 148.11338242262377,37.987436646073334 L 155.05595251159684,42.47306595145207 L 151.37930340674183,45.71994305455114 L 151.42566447445444,47.70841914800341 L 153.4334859749783,58.140945764130635 L 157.45985971924554,64.18608568259825 L 159.8820228596462,65.36398814795737 L 135.55920061253283,64.60369757399259 L 134.55228770538298,67.1415477897612 L 129.99894519072436,63.89182798373815 L 127.99538812705835,59.676190324092715 L 130.18697740588644,53.21574113547026 z" id="c12077" />
		<path d="M 263.24003351390303,67.98929006144036 L 269.4519179726789,59.23445878405429 L 286.0101228230869,58.8758146504575 L 285.75787404665897,60.87414469082419 L 279.83947805035217,65.80380080563522 L 277.3763238999882,70.10949261990291 L 271.4831063607628,72.11284613784139 L 266.6500163826018,70.75765044432515 L 265.6566326673403,71.01574046804923 L 263.24003351390303,67.98929006144036 z" id="c12125" />
		<path d="M 290.8184889394566,45.291663210597925 L 291.35297672632095,45.184727199126556 L 291.2885928827112,43.18736725719244 L 292.0097792197483,40.52526468414627 L 292.52549189689574,35.47050932784066 L 292.6646334587974,31.216097639334265 L 290.9021502059292,27.967147372437676 L 291.3043211446616,25.74540297552498 L 291.78328171369697,22.228370338157504 L 293.74625059674054,20.09294433359101 L 296.44330689332077,17.59677012481579 L 298.38083452464844,17.95923374515876 L 298.5695796542935,17.994506417544947 L 300.3278036867753,19.68581045678599 L 303.45726443757644,19.846601565167248 L 305.8114000876624,20.819147906604663 L 307.4373764473233,22.274632125398107 L 310.7707151232868,22.566825042192264 L 312.5980175232159,23.468562831577728 L 316.33098199210934,24.300156596446804 L 318.07149548177557,23.82480594204912 L 319.1694283163132,23.845604773200225 L 322.461916735298,24.627919381550225 L 323.336270950082,25.329044602094847 L 322.54787183973707,31.190103865682786 L 323.04312639915975,35.91568501871094 L 323.31498018467704,36.90288211700977 L 319.61053171779577,33.444868512302435 L 317.3522849801613,35.86185118884044 L 313.83654424343626,34.03555645401874 L 314.0416309879683,32.1534172207316 L 308.0231119773228,32.998732051482726 L 306.7019161448724,35.47729638611031 L 302.3049926747821,39.309191002245775 L 291.5198906292401,50.414224200699 L 290.90738882661736,51.01874935350164 L 290.8184889394566,45.291663210597925 z" id="c12089" />
		<path d="M 354.2660171848008,288.34451184419106 L 385.98505113801343,287.9648390089797 L 388.5713049309215,287.497776779603 L 391.06535850641734,288.29014220955804 L 392.9095542780474,288.2667272059496 L 396.7332755343244,288.2121697627179 L 398.03923988659386,288.6064895620239 L 397.57651789586555,292.9357849214496 L 396.4576000192676,302.3603526957313 L 396.4135466921622,302.7306939851087 L 396.28892741154067,306.96346165589307 L 396.21425563986554,309.4936234499511 L 396.21018969245995,309.6312624701837 L 391.2449206475309,309.7112565059538 L 386.3969624359252,309.90137081308967 L 384.688932462228,310.7347581930058 L 365.42965280708046,310.9707449577575 L 365.4151355661133,309.6507328201248 L 354.90234097140836,309.7077799265755 L 354.3822221451489,292.826981358652 L 354.2660171848008,288.34451184419106 z" id="c12011" />
	</g>
</svg>