<svg xmlns:dc="http://purl.org/dc/elements/1.1/" xmlns:cc="http://creativecommons.org/ns#" xmlns:rdf="http://www.w3.org/1999/02/22-rdf-syntax-ns#" xmlns:svg="http://www.w3.org/2000/svg" xmlns="http://www.w3.org/2000/svg" xmlns:sodipodi="http://sodipodi.sourceforge.net/DTD/sodipodi-0.dtd" xmlns:inkscape="http://www.inkscape.org/namespaces/inkscape" width="145.20692999999994" height="80.24019000000004" version="1.0" id="svg2" inkscape:version="0.91 r13725" sodipodi:docname="USA counties.svg">
  <defs id="defs9439"/>
  <sodipodi:namedview pagecolor="#ffffff" bordercolor="#666666" borderopacity="1" objecttolerance="10" gridtolerance="10" guidetolerance="10" inkscape:pageopacity="0" inkscape:pageshadow="2" inkscape:window-width="798" inkscape:window-height="828" id="namedview9437" showgrid="false" showguides="true" inkscape:zoom="0.64950808" inkscape:cx="494.98999" inkscape:cy="313.535" inkscape:window-x="-7" inkscape:window-y="0" inkscape:window-maximized="0" inkscape:current-layer="svg2"/>
  <metadata id="metadata4">
    <rdf:RDF>
      <cc:Work>
        <dc:format>image/svg+xml</dc:format>
        <dc:type rdf:resource="http://purl.org/dc/dcmitype/StillImage"/>
        <dc:title/>
        <cc:license rdf:resource="http://creativecommons.org/publicdomain/zero/1.0/"/>
        <dc:date>2019-10-06</dc:date>
        <dc:creator>
          <cc:Agent>
            <dc:title>U.S. Census Bureau, Abe.suleiman, Lokal_Profil</dc:title>
          </cc:Agent>
        </dc:creator>
        <dc:source>https://commons.wikimedia.org/wiki/File:Usa_counties_large.svg</dc:source>
      </cc:Work>
      <cc:License rdf:about="http://creativecommons.org/publicdomain/zero/1.0/">
        <cc:permits rdf:resource="http://creativecommons.org/ns#Reproduction"/>
        <cc:permits rdf:resource="http://creativecommons.org/ns#Distribution"/>
        <cc:permits rdf:resource="http://creativecommons.org/ns#DerivativeWorks"/>
      </cc:License>
    </rdf:RDF>
  </metadata>
  <style id="style6">
  /*
   * Below are Cascading Style Sheet (CSS) definitions in use in this file,
   * which allow easily changing how counties are displayed.
   *
   *
   * For the U.S. Census county codes (FIPS codes) used in this file to identify individual counties, see this link:
   * https://www2.census.gov/geo/docs/reference/codes/files/national_county.txt
   *
   * The county codes used in this file combine the 2-digit state code, which is in the second column of the file
   * linked above, and the 3-digit county code, which is in the third column of the file linked above. Each value
   * for the "id" attribute for each county is in the following form: "c[state_code][county-code]". For example,
   * for Loving Country in Texas, the state code is "48" and the county code is "301", so the id name for the
   * county is "c48301".
   *
   * County codes used in this file can also be found on Wikimedia Commons at this link:
   * https://commons.wikimedia.org/wiki/File_talk:Usa_counties_large.svg/county_codes
   *
   * Examples:
   *
   * To color two counties red (in this case Loving County and Dallas County in Texas) simply
   * go to the CSS insertion point and add:
   *
   * #c48301, #c48113 {fill:red}
   *
   * To color an entire state's counties (in the case New Mexico, with "35" being the state code) a green,
   * go to the CSS insertion point and add:
   *
   * path[id*='c35'] {fill:#34A853}
   *
   */
  #counties {fill:#d0d0d0;stroke:#000;stroke-width:.17829;} 
  #borders {fill:none;stroke:#221e1f;stroke-width:.89143;} 
  #separator {fill:none;stroke:#a9a9a9;stroke-width:2.3177309;}
 </style>
  <g id="counties" transform="translate(-748.5230700000001,-249.86)" style="fill:#d0d0d0;stroke:#ffffff;stroke-width:0.17828999">
    <path id="c51153" d="m 849.45,261.02 0.57668,0.003 0.31735,0.6049 0.19286,0.003 -0.0161,0.30123 0.28474,-0.0411 0.33661,-0.0826 0.19138,-0.15519 0.24325,0.14563 0.0358,0.25974 0.34809,0.15435 0.006,0.2166 0.19248,0.36182 0.1925,-0.17759 0.47257,0.40331 -0.0461,0.27884 0.22361,0.18547 0.14063,-0.12572 0.0323,-0.18143 0.62357,0.0364 0.053,0.31649 0.13515,0.004 0.27,-0.23467 1.131,0.60557 0.41523,0.38773 -0.68478,3.5996 -1.2738,-0.16011 -1.6169,-1.1017 -0.69128,-0.10425 -0.55562,0.98098 -0.77062,-0.86792 -3.7672,-4.814 -0.0571,-0.248 0.0623,-0.49721 -0.03,-0.46029 0.33001,0.23197 0.25617,-1.7433 0.74077,0.37708 0.64846,0.60783 0.71307,0.14632 z m 2.1776,1.6893 0.0492,-0.25359 5.3e-4,-0.17754 -0.19412,-0.19977 -0.23356,-0.002 -0.28469,0.007 -0.16425,0.18853 0.0709,0.0763 -0.0341,0.15335 -0.33937,0.39075 -0.08,0.27143 -0.0789,0.0999 -0.13537,0.0957 0.0693,0.48407 0.41308,0.22627 0.0771,-0.17608 -0.31274,-0.4698 0.13647,-0.13777 0.39038,0.11614 0.23804,0.0653 0.24962,-0.26741 -0.0118,-0.61071 z" inkscape:connector-curvature="0" style="stroke:#ffffff">
      <title id="title10">Prince William, VA</title>
    </path>
    <path id="c51685" d="m 850.8,262.27 0.0709,0.0766 0.31723,0.0248 0.005,0.17325 0.25994,0.0428 0.174,0.12079 0.0493,-0.25359 5.3e-4,-0.17754 -0.19412,-0.20035 -0.23357,-0.002 -0.28468,0.007 z" inkscape:connector-curvature="0" style="stroke:#ffffff">
      <title id="title13">Manassas Park, VA</title>
    </path>
    <path id="c51001" transform="translate(0,-0.10698)" d="m 893.73,271.13 -0.69531,0.23632 -0.3868,1.0431 -0.43814,1.0538 -0.75918,1.4351 0.81124,-0.0207 -0.005,0.17592 -0.74013,0.18202 1.0267,0.34145 0.62795,-2.5775 z m -2.6621,4.1973 -0.3142,-0.19362 -2.5e-4,-0.54661 0.20507,-1.4648 -0.0488,-0.38867 0.63476,-0.43945 0.0254,-0.45313 -4.5742,1.5566 0,0.002 -0.58984,1.1504 -0.8613,0.46617 -0.16994,0.53528 1.2191,-0.11919 -0.0843,0.93219 -0.0137,0.2793 -0.30273,0.90429 -0.084,0.16602 -0.28907,0.38672 -0.63101,-0.35388 -0.64751,0.63081 0.31496,0.26218 0.27936,-0.286 0.31021,0.2978 -0.45999,0.6776 -1.1973,3.5684 -0.16406,0.57227 -0.10938,0.88281 0.0215,0.1211 0.10351,0.19336 1.7383,-0.51758 1.0137,0.41015 0.0957,0.9336 -0.0606,0.24023 -0.0371,0.18945 0.0938,0.21094 0.2246,-0.2207 0.22266,-0.35938 0.91406,-0.18945 0.0137,-0.23437 -0.68555,-0.16407 0.32226,-1.1289 0.3086,0.19726 0.043,0.33203 0.21484,0.14649 -0.16211,0.31054 0.20508,0.15626 0.13281,-0.38086 0.13867,0.0547 0.0391,0.54883 0.48242,0.37891 -0.0742,-0.19922 0.50781,-0.49024 0.24024,-1.6211 -0.28711,-3.0098 0.0625,-0.4414 0.53125,-2.4297 0.32031,-0.84765 0.24805,-0.51563 0.0664,-0.10352 0.0723,-0.11132 0.0723,-0.11524 0.11133,-0.13672 0.0566,-0.0605 0.0469,-0.0606 0.14648,-0.10156 z m -3.209,9.8027 0.0254,0.006 -0.0254,-0.01 z m -7.2168,-9.5664 -0.93164,0.19531 0.0527,0.15039 0.11133,0.50196 0.31836,0.31836 0.48437,-0.13672 0.0469,-0.44141 -0.0312,-0.43164 z" inkscape:connector-curvature="0" style="stroke:#ffffff">
      <title id="title3655">Accomack, VA</title>
    </path>
    <path id="c51131" transform="translate(0,-0.10698)" d="m 885.38,284.15 -1.7383,0.51758 0,0.002 -0.0781,0.67187 -0.0586,0.52148 -0.0801,1.584 -0.0859,2.4434 -0.008,0.33008 0.0566,0.67382 0.11133,0.72461 0.47461,1.1328 1.0273,1.5664 0.0273,0.50586 0.57618,-0.14648 0.13086,-0.0508 -0.26172,-0.91602 -0.31446,-3.7188 0.67578,-1.7832 1.1426,-0.4375 -0.56445,-0.47071 -0.006,-1.1894 -0.12109,-0.0801 -0.0723,-0.16797 0.0254,-0.0605 0.10547,-0.0703 0.14453,-0.24024 -0.0957,-0.93164 z m 3.5176,1.4316 -0.91601,0.40821 0.36864,0.41437 -0.13896,2.202 -0.46082,1.3662 0.6577,-1.0019 0.58711,-2.844 -0.01,-0.37696 z m -1.4833,4.7717 -0.0499,0.70197 0.15645,0.19035 0.13257,-0.24056 z m 0.47544,1.2615 -0.51953,-0.0566 -0.30859,0.59375 -0.41407,1.0566 -0.38671,1.2188 0.0488,-0.0195 0.14258,-0.12891 0.13086,-0.17383 0.0273,-0.0508 0.78906,-1.2207 0.006,-0.0195 0.20117,-0.35547 0.18164,-0.33789 z m -1.4941,-2.9238 -0.52539,0.19922 -0.25586,1.7031 0.29883,0.15039 -0.38672,1.418 0.42383,1.6836 0.34961,-1.502 0.008,-0.98047 0.4043,-0.36914 -0.64258,-0.54687 z" inkscape:connector-curvature="0" style="stroke:#ffffff">
      <title id="title8434">Northampton, VA</title>
    </path>
    <path id="c51027" d="m 776.31,304.3 0.61561,0.23406 -0.0558,0.36194 -0.8112,0.731 -0.0481,0.153 0.12837,0.344 1.2983,0.74333 0.25279,1.4587 1.5119,1.317 0.007,0 0.2086,0.107 2.0432,0.738 -0.35657,0.988 -1.7829,1.15 -0.63873,0.96565 -1.4419,0.29635 -0.19968,0.152 -0.12123,0.378 -0.0321,0.314 0.007,0.52 -0.16045,0.275 -0.68284,0.49 -1.166,0.161 -0.1355,-0.03 -0.46006,-1.6197 -1.4004,-1.4576 -0.60597,-1.6521 -1.2544,-0.77665 5.2809,-6.347" inkscape:connector-curvature="0" style="stroke:#ffffff">
      <title id="title8437">Buchanan, VA</title>
    </path>
    <path id="c51185" d="m 787.68,307.13 3.0126,2.066 -0.84897,0.62456 0.48528,0.9216 -1.2508,0.83793 1.3847,0.315 -0.0795,0.79609 -1.1672,0.87977 -1.0208,0.23132 -0.41416,0.44051 -0.5815,0.10582 0.48165,0.5914 -0.45564,0.48114 -0.1628,-0.48106 -0.52701,0.25705 -0.92307,0.53843 -1.0875,1.0317 -0.97788,0.61151 -0.6125,-0.88653 -1.2565,0.56976 -2.9939,-3.4774 0.63873,-0.96565 1.7829,-1.15 0.35657,-0.988 1.2034,0.715 2.1056,-0.417 0.0571,-0.03 0.78803,-0.724 0.0143,-0.02 1.3182,-1.3973 0.73081,-1.4797" inkscape:connector-curvature="0" style="stroke:#ffffff">
      <title id="title8440">Tazewell, VA</title>
    </path>
    <path id="c51173" d="m 788.93,316.1 1.2693,1.3358 -0.008,0.29126 1.543,2.3739 -1.8408,0.70569 -1.167,0.82819 -1.645,0.52325 0.31504,0.79887 -1.4459,0.952 -0.22642,0.146 -1.9932,-3.342 -2.9649,-2.821 0.91639,-0.829 1.2565,-0.56976 0.6125,0.88653 0.97788,-0.61151 1.0875,-1.0317 0.92307,-0.53843 0.52701,-0.25705 0.1628,0.48106 0.45564,-0.48114 1.2444,1.159" inkscape:connector-curvature="0" style="stroke:#ffffff">
      <title id="title8443">Smyth, VA</title>
    </path>
    <path id="c51520" d="m 776.3,326.39 -1.7686,0.241 0.54063,-0.43926 0.35363,-0.23238 0.74243,-0.46757 0.58196,-0.21826 0.27803,0.20265 -0.72805,0.91682" inkscape:connector-curvature="0" style="stroke:#ffffff">
      <title id="title8446">Bristol, VA</title>
    </path>
    <path id="c51191" d="m 780.76,317.89 2.9649,2.821 1.9932,3.342 0.22642,-0.146 0.10303,0.54948 -0.75556,0.18152 -3.2698,0.442 -1.7454,0.209 -0.12837,0.538 -3.8474,0.555 0.72805,-0.91682 -0.27803,-0.20265 -0.58196,0.21826 -0.74243,0.46757 -0.35363,0.23238 -0.54063,0.43926 -0.91461,0.137 -1.0715,-2.514 2.4519,-1.8258 1.4161,-0.66946 -0.24612,-0.54902 0.21157,-0.54901 1.8958,-1.1466 0.11318,0.15429 0.64315,-0.15887 0.98041,-0.49613 0.74772,-1.1155" inkscape:connector-curvature="0" style="stroke:#ffffff">
      <title id="title8449">Washington, VA</title>
    </path>
    <path id="c51167" d="m 778.69,313.59 2.9939,3.4774 -0.91639,0.829 -0.74772,1.1155 -0.98041,0.49613 -0.64315,0.15887 -0.11318,-0.15429 -1.8958,1.1466 -0.21157,0.54901 0.24612,0.54902 -1.4161,0.66946 -2.4519,1.8258 -1.9023,-3.633 1.9281,-0.8883 -0.81912,-1.4817 2.997,-2.098 0.1355,0.03 1.166,-0.161 0.68284,-0.49 0.16045,-0.275 -0.007,-0.52 0.0321,-0.314 0.12123,-0.378 0.19968,-0.152 1.4419,-0.29635" inkscape:connector-curvature="0" style="stroke:#ffffff">
      <title id="title8452">Russell, VA</title>
    </path>
    <path id="c51720" d="m 766.8,319.61 0.0326,0.39466 -0.38481,0.0394 -0.0812,0.25284 0.18658,0.34511 -0.56566,0.19751 -0.21181,-0.56806 0.36521,-0.63317 z" inkscape:connector-curvature="0" style="stroke:#ffffff">
      <title id="title8455">Norton, VA</title>
    </path>
    <path id="c51195" d="m 766.94,313.55 0.32096,1.8008 1.2459,1.7712 0.0705,0.46611 0.30521,-0.003 2.0374,0.98785 0.18749,0.31137 0.27278,-0.128 0.38057,-0.51208 0.81912,1.4817 -1.9281,0.8883 -2.5717,0.37805 -1.399,0.1616 -0.98308,1.6136 -1.0901,-0.24622 -0.30487,0.537 -0.17314,0.41077 -1.2862,-0.92163 -0.93508,-1.2501 0.0731,-1.742 0.78697,-0.72913 1.6249,-0.9805 -0.13475,-1.9525 2.4796,-2.2039 0.20147,-0.137 z m -0.79197,6.0874 -0.36521,0.63317 0.21181,0.56806 0.56566,-0.19751 -0.18658,-0.34511 0.0812,-0.25284 0.38481,-0.0394 -0.0326,-0.39466 z" inkscape:connector-curvature="0" style="stroke:#ffffff">
      <title id="title8458">Wise, VA</title>
    </path>
    <path id="c51051" d="m 771.03,310.64 1.2544,0.77665 0.60597,1.6521 1.4004,1.4576 0.46006,1.6197 -2.997,2.098 -0.38057,0.51208 -0.27278,0.128 -0.18749,-0.31137 -2.0374,-0.98785 -0.30521,0.003 -0.0705,-0.46611 -1.2459,-1.7712 -0.32096,-1.8008 0.70601,-0.507 2.7153,-1.531 0.6757,-0.872" inkscape:connector-curvature="0" style="stroke:#ffffff">
      <title id="title8461">Dickenson, VA</title>
    </path>
    <path id="c51169" d="m 764.13,323.47 0.17314,-0.41077 0.30487,-0.537 1.0901,0.24622 0.98308,-1.6136 1.399,-0.1616 2.5717,-0.37805 1.9023,3.633 1.0715,2.514 -5.7141,0.852 -4.0186,0.571 -2.8044,0.385 0.41719,-1.969 0.71671,-0.65 1.3548,-0.7803 -0.31729,-0.43099 0.86992,-1.2719" inkscape:connector-curvature="0" style="stroke:#ffffff">
      <title id="title8464">Scott, VA</title>
    </path>
    <path id="c51105" d="m 764.13,323.47 -0.86993,1.2719 0.3173,0.43099 -1.3548,0.7803 -0.71671,0.65 -0.41719,1.969 -8.8626,1.118 -3.703,0.41 3.703,-1.987 1.1023,-0.35985 3.4643,-2.0042 1.1061,-0.0851 0.71417,-2.6722 1.7333,-0.0851 1.1845,-0.94749 0.37797,-0.661 0.93508,1.2501 1.2862,0.92163" inkscape:connector-curvature="0" style="stroke:#ffffff">
      <title id="title8467">Lee, VA</title>
    </path>
    <path id="c51021" d="m 790.69,309.2 2.0984,-1.2713 2.0984,-0.75374 -0.34005,0.57787 2.266,1.7611 0.38869,-0.37086 0.30618,0.28913 -0.34004,0.34413 0.49868,0.37162 -1.1826,1.0145 0.41238,0.8495 -2.1056,0.998 -1.1112,0.81652 -0.40782,-0.23852 -0.89825,0.34892 -0.99873,-0.45492 -1.0091,0.837 -1.4423,1.784 -1.2444,-1.159 -0.48165,-0.5914 0.5815,-0.10582 0.41416,-0.44051 1.0208,-0.23132 1.1672,-0.87977 0.0795,-0.79609 -1.3847,-0.315 1.2508,-0.83793 -0.48528,-0.9216 0.84897,-0.62456" inkscape:connector-curvature="0" style="stroke:#ffffff">
      <title id="title8470">Bland, VA</title>
    </path>
    <path id="c51077" d="m 795.27,318.67 2.3932,2.729 -0.12302,0.161 -0.0681,0.24356 0.097,0.19041 0.24335,0.006 0.15894,0.14168 -0.005,0.35532 0.26702,-0.006 0.0414,-0.63785 1.8641,1.7034 -1.166,0.121 -8.228,0.997 -5.9227,0.596 0.47424,-0.63 0.75556,-0.18152 -0.10303,-0.54948 1.4459,-0.952 -0.31504,-0.79887 1.645,-0.52325 1.167,-0.82819 1.8408,-0.70569 2.9224,-0.51141 0.0208,-0.44143 0.59429,-0.48094" inkscape:connector-curvature="0" style="stroke:#ffffff">
      <title id="title8473">Grayson, VA</title>
    </path>
    <path id="c51640" d="m 797.66,321.4 0.007,0 0.17006,-0.13619 0.0871,-0.32068 0.49884,-0.19788 0.29845,0.10563 -0.32341,0.63384 -0.0937,0.22328 -0.033,0.15331 -0.0414,0.63785 -0.26702,0.006 0.005,-0.35531 -0.15894,-0.14169 -0.24335,-0.005 -0.097,-0.19141 0.0681,-0.24356 0.12302,-0.161" inkscape:connector-curvature="0" style="stroke:#ffffff">
      <title id="title8476">Galax, VA</title>
    </path>
    <path id="c51197" d="m 800.72,315.96 -5.4464,2.7132 -0.59429,0.48094 -0.0208,0.44143 -2.9224,0.51141 -1.543,-2.3739 0.008,-0.29126 -1.2693,-1.3358 1.4423,-1.784 1.0091,-0.837 0.99873,0.45492 0.89825,-0.34892 0.40782,0.23852 1.1112,-0.81652 2.1056,-0.998 0.54113,0.97259 3.2742,2.9724" inkscape:connector-curvature="0" style="stroke:#ffffff">
      <title id="title8479">Wythe, VA</title>
    </path>
    <path id="c51071" d="m 798.35,304.75 2.2339,-1.677 0.18542,-0.147 1.8078,-1.429 0.86112,1.237 1.1642,2.346 -1.1107,1.276 -1.7419,0.83901 -1.0207,0.737 -1.1784,0.737 -0.95759,0.54771 -0.92605,0.92629 -0.49868,-0.37163 0.34004,-0.34412 -0.30618,-0.28913 -0.38869,0.37086 -2.266,-1.7611 0.34005,-0.57787 1.2898,-0.64 0.91603,-0.95628 -0.78276,-0.69156 0.30493,-0.52892 -0.061,-0.64074 z" inkscape:connector-curvature="0" style="stroke:#ffffff">
      <title id="title8482">Giles, VA</title>
    </path>
    <path id="c51750" d="m 802.77,310.84 -0.11624,-0.0315 -0.19209,-0.22018 -0.11092,-0.17499 -0.0731,-0.264 0.066,-0.258 0.30294,-0.22027 0.31702,-0.21381 0.17651,-0.03 0.27645,0.16231 0.10949,-0.2104 0.18825,-0.12852 0.14417,0.1 0.11252,0.28584 -0.22174,0.28505 -0.60472,0.26706 0.0361,0.38859 -0.41062,0.26966" inkscape:connector-curvature="0" style="stroke:#ffffff">
      <title id="title8485">Radford, VA</title>
    </path>
    <path id="c51155" d="m 801.75,307.2 -0.0357,0.98995 0.55939,0.51714 0.48837,-0.44681 0.74344,-0.27676 0.0952,0.30774 -0.60625,0.20148 -0.27825,0.33827 0.34999,0.42535 0.25661,-0.0745 0.186,0.03 0.205,0.034 -0.2167,0.20705 -0.0911,0.1518 -0.26599,-0.17714 -0.17651,0.03 -0.31702,0.21381 -0.30294,0.22027 -0.066,0.258 0.0731,0.264 0.11092,0.17499 0.19209,0.22018 0.11624,0.0315 0.15941,0.26146 0.37196,0.0383 0.0744,0.58029 0.47818,1.2446 -1.421,1.471 -0.8853,1.3361 -0.83517,0.1829 -3.2742,-2.9724 -0.54113,-0.97259 -0.41238,-0.8495 1.1826,-1.0145 0.92605,-0.92629 0.95759,-0.54771 1.1784,-0.737 1.0207,-0.737" inkscape:connector-curvature="0" style="stroke:#ffffff">
      <title id="title8488">Pulaski, VA</title>
    </path>
    <path id="c51610" d="m 856.18,259.04 -0.16201,0.14077 -0.35053,-0.082 -0.29585,0.0509 -0.0985,-0.48275 0.28646,0.0454 0.62041,0.32861" inkscape:connector-curvature="0" style="stroke:#ffffff">
      <title id="title8491">Falls Church, VA</title>
    </path>
    <path id="c51013" d="m 856.36,257.45 0.66857,0.546 0.80408,0.353 0.47246,0.918 0.0344,0.31187 -0.78669,0.0514 0.0224,0.30242 -0.66985,-0.39767 -0.73049,-0.49345 -0.62041,-0.32773 0.80553,-1.2649" inkscape:connector-curvature="0" style="stroke:#ffffff">
      <title id="title8494">Arlington, VA</title>
    </path>
    <path id="c51035" d="m 802.44,314.44 3.8974,4.596 0.11503,0.80065 -0.86563,0.44405 -0.11053,0.29143 -0.25673,0.123 -0.17413,-0.28259 -0.58894,0.0275 -0.2086,0.01 -0.098,0.05 -0.24604,0.922 -0.082,0.42 0.41184,1.067 -4.0917,0.643 -1.8641,-1.7034 0.033,-0.15431 0.0938,-0.22228 0.3234,-0.63384 -0.29845,-0.10563 -0.49884,0.19788 -0.0871,0.32068 -0.17005,0.13619 -0.007,0 -2.3932,-2.729 5.4464,-2.7132 0.83517,-0.1829 0.8853,-1.3361" inkscape:connector-curvature="0" style="stroke:#ffffff">
      <title id="title8497">Carroll, VA</title>
    </path>
    <path id="c51089" d="m 820.52,320.56 -5.6499,0.951 -0.47424,0.08 -0.20146,-1.535 -0.32984,-1.013 -0.13549,-0.24 -0.27278,-0.296 -0.47425,-0.878 -0.0148,-1.0873 -0.22407,-0.23872 0.19968,-0.234 0.6971,-0.265 0.4968,0.143 0.0676,-0.99569 3.719,0.13929 0.23011,-0.20424 0.6192,0.10893 0.283,-0.64068 1.1114,-0.54882 0.31711,-0.4405 0.0358,7.1947 z m -4.0965,-2.4419 0.92899,0.1366 0.0624,0.331 0.57005,-0.0703 -0.0209,-0.22739 -0.32575,-0.33488 -0.008,-0.7313 -0.93779,-0.0432 -0.0947,0.26889 z" inkscape:connector-curvature="0" style="stroke:#ffffff">
      <title id="title8500">Henry, VA</title>
    </path>
    <path id="c51141" d="m 809.81,314.69 2.9587,0.15683 0.86962,0.95561 -0.6971,0.265 -0.19968,0.234 0.22407,0.23872 0.0148,1.0873 0.47425,0.878 0.27278,0.296 0.13549,0.24 0.32984,1.013 0.20146,1.535 -7.0209,0.988 -3.1414,0.337 -0.41184,-1.067 0.082,-0.42 0.24604,-0.922 0.098,-0.05 0.2086,-0.01 0.58894,-0.0275 0.17413,0.28259 0.25673,-0.123 0.11053,-0.29143 0.86563,-0.44405 -0.11503,-0.80065 0.23602,-1.0163 0.96918,-0.18957 -0.0448,-1.3439 0.53918,-0.19618 0.2584,-0.53936 1.5163,-1.0571" inkscape:connector-curvature="0" style="stroke:#ffffff">
      <title id="title8503">Patrick, VA</title>
    </path>
    <path id="c51063" d="m 810.81,308.55 0.7972,2.0107 -0.39571,1.7664 -0.52506,0.14229 -0.87893,2.2162 -1.5163,1.0571 -0.2584,0.53936 -0.53918,0.19618 0.0448,1.3439 -0.96918,0.18957 -0.23602,1.0163 -3.8974,-4.596 1.421,-1.471 1.2623,-0.399 0.54729,-0.65058 0.80235,0.0296 0.8112,-0.481 0.0481,-0.139 0.85399,-1.291 1.7668,-1.111 0.86112,-0.369" inkscape:connector-curvature="0" style="stroke:#ffffff">
      <title id="title8506">Floyd, VA</title>
    </path>
    <path id="c51121" d="m 807.57,303.98 0.62935,1.171 1.059,1.088 0.64362,2.296 0.0481,0.385 -1.7668,1.111 -0.85399,1.291 -0.0481,0.139 -0.8112,0.481 -0.80235,-0.0296 -0.54729,0.65058 -1.2623,0.399 -0.47818,-1.2446 -0.0744,-0.58029 -0.37196,-0.0383 -0.15941,-0.26146 0.41062,-0.26966 -0.0361,-0.38859 0.60472,-0.26706 0.22174,-0.28505 -0.11252,-0.28584 -0.14453,-0.1 -0.205,-0.0338 -0.186,-0.0305 -0.25663,0.0697 -0.34999,-0.42535 0.27825,-0.33827 0.60625,-0.20148 -0.0952,-0.30774 -0.74344,0.27676 -0.48837,0.44681 -0.55939,-0.51714 0.0357,-0.98995 1.7419,-0.83901 1.1107,-1.276 1.7486,-1.4725 1.2145,0.37253" inkscape:connector-curvature="0" style="stroke:#ffffff">
      <title id="title8509">Montgomery, VA</title>
    </path>
    <path id="c51775" d="m 811.68,303.86 -0.0481,0.105 0.40924,0.25874 -0.0486,0.33545 0.2621,0.17565 -0.0841,0.38871 -0.32381,0.12239 0.15154,0.266 -0.36787,-0.10515 -0.44776,0.12566 -0.33236,-0.53127 -0.36786,-0.10515 -0.28432,0.009 0.59455,-0.31918 0.45259,-0.47204 0.43483,-0.2501" inkscape:connector-curvature="0" style="stroke:#ffffff">
      <title id="title8512">Salem, VA</title>
    </path>
    <path id="c51067" d="m 815.45,305.36 1.2778,-0.24558 0.29068,0.674 0.91209,-0.0351 0.23901,0.75015 0.79668,-0.0271 1.0505,1.1626 0.69623,1.2558 -0.22836,4.4724 -0.31711,0.4405 -1.1114,0.54882 -0.283,0.64068 -0.6192,-0.10893 -0.23011,0.20424 -3.719,-0.13929 -0.0676,0.99569 -0.4968,-0.143 -0.86962,-0.95561 -2.9587,-0.15683 0.87893,-2.2162 0.52506,-0.14229 0.39571,-1.7664 -0.7972,-2.0107 0.61048,-0.91121 0.78729,-0.38079 0.54254,-0.23802 0.56463,0.64602 0.40114,0.07 0.14441,-0.08 0.62936,-0.717 0.95562,-1.583" inkscape:connector-curvature="0" style="stroke:#ffffff">
      <title id="title8515">Franklin Co., VA</title>
    </path>
    <path id="c51019" d="m 821.21,295.14 0.22494,0.3451 0.34728,-0.2429 0.53687,0.30479 1.0003,1.5266 0.93265,0.31959 0.57901,-0.2429 0.49473,-0.11651 0.8887,0.75162 -0.47834,0.15616 -0.22557,0.15616 -0.24662,0.38789 -0.45728,-0.0756 0.13461,0.58425 0.41488,0.092 -0.17494,0.42905 0.49271,0.20508 -0.32883,1.0266 -2.0308,7.231 -0.7776,-0.0197 -0.11279,0.14929 0.25115,0.30569 -0.017,0.20703 0.47351,0.26407 -0.34775,0.36843 -0.8839,-0.60691 -0.48058,-0.22637 -0.18398,0.42387 -0.52987,0.0436 -0.69623,-1.2558 -1.0505,-1.1626 -0.79668,0.0271 -0.23901,-0.75015 -0.91209,0.0351 -0.29068,-0.674 -1.2778,0.24558 -0.33697,-1.904 0.76797,-0.8778 0.0358,-0.3305 0.12519,-0.44546 -0.57222,-0.15708 -0.11513,-0.38564 0.39133,-0.26452 1.5279,-1.847 0.18364,-0.183 0.31557,-0.1 0.13549,0.04 0.25852,0.194 0.32983,0.335 0.60974,0.04 0.0874,-0.03 0.0892,-0.07 0.15201,-0.27181 -0.15456,-0.32291 0.35639,-0.55283 0.31807,-0.0546 0.51013,-0.9108 0.43348,-0.39125 0.48303,-0.56077 -0.40467,-0.86137 0.24053,-0.29861 0,-3e-5 -10e-6,-4e-5 0,-3e-5 -10e-6,-3e-5 0,-7e-5 -10e-6,-4e-5 0,-1e-4 -10e-6,-3e-5 0,-1e-4 -1e-5,-4e-5 0,-6e-5 -10e-6,-4e-5 0,-7e-5 -10e-6,-3e-5 0,-4e-5 -10e-6,-3e-5 0,-7e-5 -1e-5,-3e-5 0,-3e-5 -10e-6,-3e-5 0,-6e-5 -10e-6,-3e-5 z" inkscape:connector-curvature="0" style="stroke:#ffffff">
      <title id="title8518">Bedford Co., VA</title>
    </path>
    <path id="c51161" d="m 810.43,301.86 4.3786,1.2464 0.30297,0.34646 0.33697,1.904 -0.95562,1.583 -0.62936,0.717 -0.14441,0.08 -0.40114,-0.07 -0.56464,-0.64602 -0.54253,0.23802 -0.78729,0.38079 -0.61048,0.91121 -0.86112,0.369 -0.0481,-0.385 -0.64362,-2.296 -1.059,-1.088 -0.62935,-1.171 0.17115,-0.29 0.79516,-0.764 1.125,-0.472 0.76685,-0.59782 -2e-5,0.002 z m 1.2537,2.002 -0.43483,0.25014 -0.45259,0.47204 -0.59455,0.31918 0.28432,-0.009 0.36786,0.10515 0.33236,0.53127 0.44776,-0.12566 0.36787,0.10515 0.0571,0.105 0.47158,-0.28905 1.0302,0.67836 0.021,-0.34063 0.45539,0.0268 0.24012,-0.587 -0.16833,-0.74101 0.41756,-0.25049 -0.0892,-0.273 -0.0802,-0.07 -0.44215,-0.24 -0.76815,0.0374 -0.41389,-0.22144 -0.47771,0.4666 -0.53222,-0.0375 -0.0392,0.08" inkscape:connector-curvature="0" style="stroke:#ffffff">
      <title id="title8521">Roanoke Co., VA</title>
    </path>
    <path id="c51005" d="m 808.92,289.39 0.54062,0.17451 0.36686,-0.52051 1.1981,-0.06 0.041,0.02 0.90748,1.14 0.29645,0.23032 2.3669,-0.22033 1.3243,0.69189 0.43922,-0.83388 0.94195,-0.0292 -0.92595,2.5772 -2.6868,-0.425 -0.43145,0.514 0.0481,0.103 -0.0874,0.33 -0.21751,0.403 -0.61866,0.947 -1.3906,1.519 -0.32983,0.306 -0.36727,-0.1 -1.6402,1.637 -1.1642,-0.273 -0.3227,-0.216 -1.585,-1.239 1.2947,-3.536 2.0018,-3.132 3e-5,-0.002 4e-5,-0.002 3e-5,-0.002 z m 1.4942,3.195 0.098,0.69134 -0.13016,0.51516 0.32947,0.23465 0.29444,-0.1682 -0.0158,-0.56834 -0.23275,-0.42385 -0.13916,-0.35731 -0.20402,0.0766" inkscape:connector-curvature="0" style="stroke:#ffffff">
      <title id="title8524">Alleghany, VA</title>
    </path>
    <path id="c51045" d="m 810.7,296.25 -0.16759,0.241 0.1355,0.314 1.3514,1.646 -1.0127,2.554 -0.58279,0.85918 -0.76685,0.59782 -1.125,0.472 -0.79516,0.764 -0.17115,0.29 -1.2145,-0.37253 -1.7486,1.4725 -1.1642,-2.346 0.86531,-0.79473 0.77148,-0.56734 0.0758,-0.28319 0.71269,-0.38118 0.35996,-0.37137 0.17587,-0.51549 -0.20625,-0.12356 -0.27483,0.33694 -0.48918,-0.13554 0.32403,-0.25313 -0.19841,-0.51441 0.61483,-0.583 1.0358,-1.254 0.3227,0.216 1.1642,0.273 1.6402,-1.637 0.36727,0.1" inkscape:connector-curvature="0" style="stroke:#ffffff">
      <title id="title8527">Craig, VA</title>
    </path>
    <path id="c51023" d="m 816.42,292.55 0.0106,0.34108 -0.0767,0.35564 0.3599,0.67582 0.1416,0.26831 -0.14949,0.64672 2.1956,1.2379 -0.0331,0.38475 1.5952,0.79777 -0.51013,0.9108 -0.31807,0.0546 -0.35639,0.55283 0.15456,0.32291 -0.15201,0.27181 -0.0892,0.07 -0.0874,0.03 -0.60974,-0.04 -0.32983,-0.335 -0.25852,-0.194 -0.13549,-0.04 -0.31557,0.1 -0.18364,0.183 -1.5279,1.847 -0.39133,0.26452 0.11512,0.38564 0.57223,0.15708 -0.12519,0.44546 -0.0358,0.3305 -0.76797,0.8778 -0.30297,-0.34646 -4.3786,-1.2464 0.58279,-0.85918 1.0127,-2.554 -1.3514,-1.646 -0.1355,-0.314 0.16759,-0.241 0.32983,-0.306 1.3906,-1.519 0.61866,-0.947 0.21751,-0.403 0.0874,-0.33 -0.0481,-0.103 0.43145,-0.514 2.6868,0.425" inkscape:connector-curvature="0" style="stroke:#ffffff">
      <title id="title8530">Botetourt, VA</title>
    </path>
    <path id="c51009" d="m 825.17,290.06 0.52893,-0.18557 0.39576,0.19582 0.24289,0.30166 0.49109,-0.0885 0.31469,0.18199 0.27676,1.3299 1.3939,0.24804 0.23624,0.2605 0.33031,0.0606 1.5584,2.6134 0.61903,0.006 -0.51677,0.65026 0.007,0.43373 -0.39752,0.37143 -0.45981,-0.25156 0.24512,0.58287 -0.40902,0.27138 -0.29892,0.32494 -0.29737,0.72256 -0.48266,0.11431 9.8e-4,0.30656 -0.41676,-0.0101 0.22595,0.68129 -0.38755,0.009 -0.53952,-0.34901 -0.15684,0.27283 -0.92219,-0.97086 -0.53952,-0.34902 -0.88869,-0.75162 -0.49474,0.11651 -0.579,0.2429 -0.93267,-0.31958 -1.0003,-1.5266 -0.53687,-0.3048 -0.34728,0.24291 -0.22494,-0.3451 0.21038,0 0.39223,-0.323 0.56517,-0.563 0.29596,-0.402 0.37975,-1.782 0.23712,-0.796 0.17115,-0.378 0.39402,-0.65 0.17472,-0.193 0.73988,0.42341 0.40116,-0.42341" inkscape:connector-curvature="0" style="stroke:#ffffff">
      <title id="title8533">Amherst, VA</title>
    </path>
    <path id="c51163" d="m 818.53,284.58 2.9079,1.511 3.0683,1.478 0.57052,0.443 0.36268,0.87024 -0.26638,1.1848 -0.40116,0.42341 -0.73988,-0.42341 -0.17472,0.193 -0.39402,0.65 -0.17115,0.378 -0.23712,0.796 -0.37975,1.782 -0.29596,0.402 -0.56517,0.563 -0.39223,0.323 -0.21038,0 -0.24053,0.29861 0.40467,0.86137 -0.48303,0.56077 -0.43348,0.39125 -1.5952,-0.79777 0.0331,-0.38475 -2.1956,-1.2379 0.14949,-0.64672 -0.1416,-0.26831 -0.3599,-0.67582 0.0767,-0.35564 -0.0106,-0.34108 0.92595,-2.5772 -0.94195,0.0292 0.64198,-1.7056 1.298,-2.2743 -0.34213,-0.0873 0.53263,-1.3558 -3e-5,-0.002 -2e-5,-0.002 -3e-5,-0.002 z m 2.3424,6.6986 -0.48778,-0.16244 -0.20743,0.16994 -0.0876,0.18664 0.0262,0.273 0.20041,0.15086 z m 0.86075,0.99356 0.17931,0.51002 -0.12825,0.31508 0.21114,0.17641 0.25622,-0.35667 0.3692,-0.58702 -0.0401,-0.70265 -0.2936,0.0204 -0.24129,0.35441 z" inkscape:connector-curvature="0" style="stroke:#ffffff">
      <title id="title8536">Rockbridge, VA</title>
    </path>
    <path id="c51017" d="m 812.3,281.46 0.8843,0.412 0.83617,0.314 2.6511,0.07 0.95027,0.264 -0.21051,0.84254 0.90481,-0.57896 0.90481,0.0334 -0.69163,1.761 -0.53263,1.3558 0.34213,0.0873 -1.298,2.2743 -0.64198,1.7056 -0.43922,0.83388 -1.3243,-0.69189 -2.3669,0.22033 -0.29645,-0.23032 -0.90748,-1.14 -0.041,-0.02 -1.1981,0.06 -0.36686,0.52051 -0.54062,-0.17451 1.2444,-2.836 0.49043,-0.94408 -0.32339,-1.6039 1.3262,-1.6039 0.64439,-0.94408" inkscape:connector-curvature="0" style="stroke:#ffffff">
      <title id="title8539">Bath, VA</title>
    </path>
    <path id="c51091" d="m 820.22,276.61 -0.029,0.31827 0.34933,0.34462 -0.46881,0.44081 -0.85111,2.4172 0.15254,0.66057 -0.51447,0.7884 -0.66991,0.0423 -0.12586,0.46197 -0.43675,0.43088 -0.95027,-0.264 -2.6511,-0.07 -0.83617,-0.314 -0.8843,-0.412 -0.43324,-0.875 0,-0.03 0.009,-0.08 1.1,-1.71 0.47425,-1.688 0.0891,-1.625 0.0303,-1.904 1.7775,0.426 0.36192,0.161 0.33697,0.337 1.0911,1.617 3.079,0.522" inkscape:connector-curvature="0" style="stroke:#ffffff">
      <title id="title8542">Highland, VA</title>
    </path>
    <path id="c51079" d="m 834.72,273.75 0.35301,-1.336 0.55242,0.64232 0.38099,1.7896 2.1085,1.8424 0.75023,-0.17529 -1.0911,2.25 -5.5715,-1.157 1.5752,-1.6379 0.94221,-2.2181" inkscape:connector-curvature="0" style="stroke:#ffffff">
      <title id="title8545">Greene, VA</title>
    </path>
    <path id="c51165" d="m 823.27,267.84 0.82271,-1.9097 2.4631,1.2747 4.6497,2.876 -0.47246,2.291 1.4174,0.729 1.3407,0.542 0.27991,0.09 0.95027,0.02 -0.94221,2.2181 -1.5752,1.6379 0.20899,0.66062 -0.52951,0.0804 -0.59543,0.687 -0.30532,0.476 -2.8972,-1.7218 -0.33443,0.08 -6.2889,-3.0492 1.8078,-6.976 0,-0.003 z m 4.7806,6.0793 0.20325,0.29547 -0.007,0.18742 0.30699,-0.15856 0.0274,0.27954 0.206,0.0893 0.0158,0.42592 -0.44418,0.20786 -0.532,0.14932 -0.0417,0.47131 -0.40759,0.0981 -0.0856,-0.13608 0.17785,-0.53857 -0.15879,-0.27512 -0.17707,-0.10357 0.154,-0.47009 0.2027,-0.0331 0.20281,-0.73208 z" inkscape:connector-curvature="0" style="stroke:#ffffff">
      <title id="title8548">Rockingham, VA</title>
    </path>
    <path id="c51015" d="m 820.22,276.61 1.2462,-1.799 6.2889,3.0492 0.33443,-0.08 2.8972,1.7218 -0.11232,0.644 -0.10341,1.164 0.2086,0.882 0,0.211 -0.24247,0.426 -0.67571,0.586 -0.1596,0.44522 -0.40792,0.20123 0.0118,0.67632 -0.25982,0.22062 -0.02,0.29046 0.26001,0.0483 -0.0645,0.29705 0.0653,0.34032 -0.38918,0.089 -0.0431,0.13231 -0.33362,0.0633 -0.82036,1.4478 -0.85281,-0.13137 -0.11731,-0.4126 -0.45261,0.0633 -0.24709,0.26882 -1.1507,0.55184 -0.57052,-0.443 -3.0683,-1.478 -2.9079,-1.511 0.69163,-1.761 -0.90481,-0.0334 -0.90481,0.57896 0.21051,-0.84254 0.43675,-0.43088 0.12586,-0.46197 0.66991,-0.0423 0.51447,-0.7884 -0.15254,-0.66057 0.85111,-2.4172 0.46881,-0.44081 -0.34933,-0.34462 0.029,-0.31827 z m 4.817,4.5104 -0.20468,0.34959 -0.0499,0.403 0.14278,0.39012 0.44563,0.2374 0.273,-0.19239 0.50025,0.14847 0.33697,-0.351 0.0928,-0.35861 0.002,-0.42939 -0.2173,-0.15616 0.19283,-0.2107 -0.46422,-0.23753 -0.2221,0.27815 z m 3.1301,2.5804 -0.0887,-0.32134 0.19231,-0.29134 0.0639,-0.33329 0.53842,-0.2383 0.60441,-0.084 0.11868,0.37542 0.18862,0.0624 -0.17014,0.37457 0.0782,0.28188 -0.41828,-0.0292 -0.51329,0.57391 -0.23291,-0.29447 z" inkscape:connector-curvature="0" style="stroke:#ffffff">
      <title id="title8551">Augusta, VA</title>
    </path>
    <path id="c51125" d="m 830.06,283.42 4.2024,5.9057 -0.25467,0.40689 0.49697,0.36734 0.33873,-0.14695 -0.0705,0.30748 -0.22541,0.47744 0.36047,0.44317 -0.0945,0.17979 -0.25408,0.0281 -0.38178,-0.38685 -0.20618,0.16382 0.10507,0.3873 -0.38976,0.2995 0.0492,0.71452 -1.3954,0.0282 -0.38177,0.53095 0.3844,0.41924 -0.3259,0.47509 0.32055,0.28354 0.0104,0.38706 -0.12671,0.43656 -0.0946,0.22345 -0.30968,-0.39617 -0.25478,0.0242 -0.61903,-0.006 -1.5584,-2.6134 -0.33031,-0.0606 -0.23624,-0.2605 -1.3939,-0.24804 -0.27676,-1.3299 -0.31469,-0.18199 -0.49109,0.0885 -0.24289,-0.30166 -0.39576,-0.19582 -0.52893,0.18557 0.26638,-1.1848 -0.36268,-0.87024 1.1507,-0.55184 0.24709,-0.26882 0.45261,-0.0633 0.11731,0.4126 0.85281,0.13137 0.82036,-1.4478 0.33362,-0.0633 0.043,-0.13231 0.38918,-0.089 -0.0653,-0.34032 0.0645,-0.29705 -0.26001,-0.0483 0.02,-0.29046 0.25982,-0.22062 -0.0118,-0.67632 0.40792,-0.20123 0.1596,-0.44522" inkscape:connector-curvature="0" style="stroke:#ffffff">
      <title id="title8554">Nelson, VA</title>
    </path>
    <path id="c51029" d="m 842.2,289.58 0.0713,1.285 -1.191,3.4 -1.4594,4.0811 -0.8831,0.16697 -0.78552,-0.15291 -0.7513,-0.90577 -0.20797,-0.12692 -0.20798,0.51164 -0.53229,-0.31265 -0.15712,-0.33544 -0.46862,-0.0551 -3.2762,-2.4486 -0.0104,-0.38706 -0.32055,-0.28354 0.3259,-0.47509 -0.3844,-0.41922 0.38177,-0.53095 1.3954,-0.0282 -0.0492,-0.71452 0.38975,-0.29951 -0.10506,-0.38729 0.20618,-0.16382 0.38178,0.38685 0.25408,-0.0281 0.0945,-0.17979 -0.36047,-0.44316 0.22541,-0.47745 0.0705,-0.30748 0.0571,-0.152 0.36193,-0.28349 0.8326,-0.24 0.43566,-0.30787 0.63406,0.10787 0.0892,-0.08 0.025,-0.09 -0.0499,-0.716 0.27121,0.0674 0.42537,0.57732 1.1487,0.37574 0.79296,-0.0748 0.75738,0.25716 0.5558,-0.0156 0.35422,0.19788 0.66322,0.005" inkscape:connector-curvature="0" style="stroke:#ffffff">
      <title id="title8557">Buckingham, VA</title>
    </path>
    <path id="c51011" d="m 837.2,297.46 -0.0492,1.1124 0.15155,0.26138 -0.4754,0.4361 -0.7383,1.8138 -0.28015,0.35297 -0.29988,0.0372 -0.1716,0.45164 -0.40842,0.10628 -0.4479,0.0175 -0.13213,0.20495 -0.21107,0.49111 -0.33972,-0.0863 -0.7278,-0.0873 -0.0182,-0.59133 -0.59652,-0.0987 -0.61794,0.22261 -0.0514,-0.63035 -0.45833,-0.26622 -1.8904,-3.121 0.29737,-0.72256 0.29892,-0.32495 0.40901,-0.27137 -0.24512,-0.58287 0.45982,0.25156 0.39752,-0.37143 -0.007,-0.43373 0.51677,-0.65026 0.25478,-0.0242 0.30968,0.39617 0.0946,-0.22345 0.12671,-0.43656 3.2762,2.4486 0.46862,0.0551 0.15712,0.33544 0.53229,0.31265 0.20797,-0.51164 0.20798,0.12692" inkscape:connector-curvature="0" style="stroke:#ffffff">
      <title id="title8560">Appomattox, VA</title>
    </path>
    <path id="c51031" d="m 828.38,299.19 0.38755,-0.009 -0.22595,-0.6813 0.41676,0.0101 -9.8e-4,-0.30656 0.48266,-0.11431 1.8904,3.121 0.45833,0.26622 0.0514,0.63035 0.61794,-0.22261 0.59652,0.0987 0.0182,0.59133 0.7278,0.0873 -0.56347,4.399 -1.3148,-0.37493 -0.49512,0.4897 -0.88814,-0.12789 -0.84322,-0.38598 -0.47624,0.0977 -0.22094,-0.29739 -0.36825,0.20414 -0.29589,0.25237 -0.21485,-0.0123 -0.21485,-0.18114 -0.21485,0.40977 -0.21485,-0.26556 -0.0306,-0.98621 -0.24431,-0.0394 -0.13577,0.15349 0.0391,0.28011 -0.18921,0.0248 -0.1289,-0.30079 -0.29171,-0.35507 -0.2676,0.16347 -0.0334,0.44318 -0.34694,0.0935 -0.65031,-0.26931 -0.37965,-0.22305 -0.0782,0.30755 -0.54223,0.18097 0.23062,0.34186 -0.50499,0.35391 0.05,0.66187 -0.64942,0.28802 2.0308,-7.231 0.90391,0.27923 0.7218,-0.28935 0.28017,-0.57326 0.65872,-0.3209 0.46285,-0.66131" inkscape:connector-curvature="0" style="stroke:#ffffff">
      <title id="title8563">Campbell, VA</title>
    </path>
    <path id="c51083" d="m 829.69,306.66 0.84322,0.38636 0.88814,0.12789 0.49512,-0.4897 1.3148,0.37494 0.21787,0.19731 -0.0487,0.71818 1.4708,-0.40305 0.61251,0.61397 0.14276,-0.76643 0.28294,-0.10909 -0.16846,-0.26941 0.12962,-0.2103 0.21279,0.14978 0.0395,0.30593 0.47741,0.99431 -0.38393,0.3818 1.4345,1.1857 0.47743,0.26696 -0.32651,0.51579 0.41999,0.3818 -0.17255,0.57398 0.42082,0.38256 -0.42138,0.6314 1.0345,0.87823 0.71977,0.62279 1.4258,0.55491 0.0138,0.13403 -1.534,-0.47694 -0.73296,-0.62628 -0.80085,0.44629 0.0952,2.3174 -0.2986,0.22315 0.25209,0.72683 -1.1161,0.217 -6.1723,1.116 -1.453,0.257 0.20769,-12.328" inkscape:connector-curvature="0" style="stroke:#ffffff">
      <title id="title8566">Halifax, VA</title>
    </path>
    <path id="c51143" d="m 823.92,307.03 0.50499,-0.35391 -0.23062,-0.34186 0.54223,-0.18097 0.0782,-0.30755 0.37965,0.22305 0.65031,0.26931 0.34694,-0.0935 0.0334,-0.44318 0.2676,-0.16349 0.29171,0.35507 0.1289,0.30079 0.18921,-0.0248 -0.0391,-0.28011 0.13577,-0.1535 0.24431,0.0395 0.0306,0.98621 0.21485,0.26556 0.21485,-0.40977 0.21485,0.18114 0.21485,0.0123 0.29589,-0.25237 0.36825,-0.20414 0.22094,0.29739 0.47624,-0.0977 -0.20769,12.328 -2.2428,0.412 -0.16036,-0.39474 0.23909,-0.27032 0.46417,-0.14706 -0.0603,-0.27936 -0.44368,0.10154 -0.14502,-0.44981 -0.63465,-0.0726 -0.19816,-0.55503 -0.54453,-0.0646 -0.36074,1.0037 -0.2344,-0.16795 -1.0384,-0.0646 -0.32492,0.51459 0.45723,0.36286 0.63624,0.0356 -0.19063,0.46607 0.24109,0.38672 -0.73097,0.136 -3.6959,0.618 -0.0358,-7.1947 0.22836,-4.4724 0.52987,-0.0436 0.18398,-0.42387 0.48058,0.22637 0.8839,0.60691 0.34775,-0.36843 -0.47351,-0.26407 0.017,-0.20703 -0.25115,-0.30569 0.11279,-0.14929 0.77753,0.0213 0.64938,-0.28721 z" inkscape:connector-curvature="0" style="stroke:#ffffff">
      <title id="title8569">Pittsylvania, VA</title>
    </path>
    <path id="c51690" d="m 816.69,317.17 0.93779,0.0431 0.008,0.7313 0.32575,0.33488 0.0209,0.22739 -0.57005,0.0703 -0.0624,-0.331 -0.92899,-0.1366 0.17413,-0.67055 z" inkscape:connector-curvature="0" style="stroke:#ffffff">
      <title id="title8572">Martinsville, VA</title>
    </path>
    <path id="c51590" d="m 827.24,319.4 -2.2981,0.408 -0.24109,-0.38672 0.19063,-0.46607 -0.63624,-0.0356 -0.45723,-0.36286 0.32492,-0.51459 1.0384,0.0646 0.2344,0.16795 0.36074,-1.0037 0.54453,0.0646 0.19816,0.55503 0.63465,0.0726 0.14502,0.44981 0.44367,-0.10154 0.0603,0.27936 -0.46417,0.14706 -0.23909,0.27032 0.16036,0.39474" inkscape:connector-curvature="0" style="stroke:#ffffff">
      <title id="title8575">Danville, VA</title>
    </path>
    <path id="c51680" d="m 828.38,299.19 -0.46285,0.66131 -0.65872,0.3209 -0.28017,0.57326 -0.7218,0.28935 -0.90391,-0.27923 0.32883,-1.0266 -0.49272,-0.20508 0.17495,-0.42905 -0.41488,-0.092 -0.13461,-0.58425 0.45728,0.0756 0.24663,-0.38788 0.22556,-0.15617 0.47834,-0.15616 0.53952,0.34902 0.92219,0.97086 0.15684,-0.27283 0.53952,0.34901" inkscape:connector-curvature="0" style="stroke:#ffffff">
      <title id="title8578">Lynchburg, VA</title>
    </path>
    <path id="c51770" d="m 811.68,303.86 0.0392,-0.08 0.53222,0.0375 0.47771,-0.4666 0.41389,0.22144 0.76815,-0.0374 0.44215,0.24 0.0802,0.07 0.0892,0.273 -0.41756,0.25049 0.16833,0.74101 -0.24012,0.587 -0.45539,-0.0268 -0.0209,0.34063 -1.0302,-0.67835 -0.47159,0.28904 -0.0571,-0.105 -0.15154,-0.266 0.32381,-0.12239 0.0841,-0.38871 -0.2621,-0.17565 0.0486,-0.33545 -0.40923,-0.25874 0.0481,-0.105" inkscape:connector-curvature="0" style="stroke:#ffffff">
      <title id="title8581">Roanoke, VA</title>
    </path>
    <path id="c51530" d="m 822.29,291.65 0.2936,-0.0204 0.0401,0.70265 -0.3692,0.58702 -0.25622,0.35667 -0.21114,-0.17641 0.12825,-0.31508 -0.17931,-0.51002 0.31265,-0.27007 z" inkscape:connector-curvature="0" style="stroke:#ffffff">
      <title id="title8584">Buena Vista, VA</title>
    </path>
    <path id="c51580" d="m 810.62,292.51 0.13916,0.35731 0.23275,0.42385 0.0158,0.56834 -0.29444,0.1682 -0.32947,-0.23465 0.13016,-0.51516 -0.0979,-0.69134 z" inkscape:connector-curvature="0" style="stroke:#ffffff">
      <title id="title8587">Covington, VA</title>
    </path>
    <path id="c51678" d="m 820.87,291.28 -0.55625,0.618 -0.20041,-0.15086 -0.0262,-0.273 0.0876,-0.18664 0.20743,-0.16994 0.48778,0.16244" inkscape:connector-curvature="0" style="stroke:#ffffff">
      <title id="title8590">Lexington, VA</title>
    </path>
    <path id="c51820" d="m 828.76,284.08 0.51329,-0.57391 0.41828,0.0292 -0.0782,-0.28188 0.17014,-0.37457 -0.18862,-0.0624 -0.11868,-0.37542 -0.60441,0.084 -0.53842,0.2383 -0.0639,0.33329 -0.19231,0.29134 0.0887,0.32134 0.36122,0.0762 z" inkscape:connector-curvature="0" style="stroke:#ffffff">
      <title id="title8593">Waynesboro, VA</title>
    </path>
    <path id="c51790" d="m 826.09,280.71 0.46422,0.23753 -0.19283,0.2107 0.2173,0.15616 -0.002,0.42939 -0.0928,0.35861 -0.33697,0.351 -0.50025,-0.14847 -0.273,0.19239 -0.44563,-0.2374 -0.14278,-0.39012 0.0499,-0.403 0.20468,-0.34959 0.82806,-0.12906 z" inkscape:connector-curvature="0" style="stroke:#ffffff">
      <title id="title8596">Staunton, VA</title>
    </path>
    <path id="c51540" d="m 836.5,281.81 0.10469,0.38112 0.19826,-0.0383 0.14059,0.36566 0.0703,0.33831 -0.28519,0.29534 -0.26566,-0.0172 -0.0801,0.20581 -0.31581,0.0146 -0.21751,0 -0.083,-0.22456 -0.0321,-0.192 0.0571,-0.28775 0.0643,-0.38187 0.30092,-0.31363 z" inkscape:connector-curvature="0" style="stroke:#ffffff">
      <title id="title8599">Charlottesville, VA</title>
    </path>
    <path id="c51660" d="m 827.49,274.41 -0.2027,0.0331 -0.154,0.47009 0.17707,0.10357 0.15879,0.27512 -0.17785,0.53857 0.0856,0.13608 0.40759,-0.0981 0.0417,-0.47131 0.532,-0.14932 0.44418,-0.20786 -0.0158,-0.42592 -0.206,-0.0893 -0.0274,-0.27954 -0.30699,0.15856 0.007,-0.18742 -0.20325,-0.29547 -0.35719,-0.24299 z" inkscape:connector-curvature="0" style="stroke:#ffffff">
      <title id="title8602">Harrisonburg, VA</title>
    </path>
    <path id="c51003" d="m 832.21,277.6 5.5715,1.157 3.0737,0.633 -1.1945,3.225 -2.4283,5.5755 0.0499,0.716 -0.025,0.09 -0.0892,0.08 -0.63406,-0.10787 -0.43566,0.30787 -0.8326,0.24 -0.36193,0.28349 -0.0571,0.152 -0.33873,0.14695 -0.49697,-0.36734 0.25467,-0.40689 -4.2024,-5.9057 0.67571,-0.586 0.24247,-0.426 0,-0.211 -0.2086,-0.882 0.10341,-1.164 0.11232,-0.644 0.30532,-0.476 0.59543,-0.687 0.52951,-0.0804 -0.20899,-0.66062 1.2e-4,-0.002 z m 3.6487,4.6613 -0.0643,0.38187 -0.0571,0.28775 0.0321,0.192 0.083,0.22456 0.21751,0 0.31581,-0.0146 0.0801,-0.20581 0.26566,0.0172 0.28519,-0.29535 -0.0703,-0.33831 -0.14059,-0.36566 -0.19826,0.0383 -0.10469,-0.38112 -0.34322,0.14556 z" inkscape:connector-curvature="0" style="stroke:#ffffff">
      <title id="title8605">Albemarle, VA</title>
    </path>
    <path id="c51065" d="m 839.66,282.62 4.7389,1.485 -1.0198,3.898 -0.7747,0.7915 -0.40378,0.7915 -0.66322,-0.005 -0.35422,-0.19788 -0.5558,0.0156 -0.75738,-0.25716 -0.79296,0.0749 -1.1487,-0.37574 -0.42537,-0.57732 -0.27121,-0.0674 2.4283,-5.5755" inkscape:connector-curvature="0" style="stroke:#ffffff">
      <title id="title8608">Fluvanna, VA</title>
    </path>
    <path id="c51049" d="m 842.6,288.79 0.7747,-0.7915 0.96095,0.44375 0.45755,0.28478 -0.31079,0.6822 0.82848,0.36427 -0.0974,4.6189 -0.97295,0.72838 -0.57879,1.7877 -1.6238,1.7166 -0.51753,0.16443 -0.56137,0.12059 -0.73672,-0.49315 -0.60521,-0.0694 1.4594,-4.0811 1.191,-3.4 -0.0713,-1.285 z" inkscape:connector-curvature="0" style="stroke:#ffffff">
      <title id="title8611">Cumberland, VA</title>
    </path>
    <path id="c51147" d="m 843.66,296.91 0.37975,1.625 0.61866,4.033 -0.74539,0.5206 -1.6368,0.31602 -0.13165,0.40369 -1.1107,0.43293 -0.30852,-0.14869 -0.29118,0.0247 -0.56854,-0.46072 -0.20451,-0.46071 -0.9499,-0.2527 -0.41253,0.33668 -1.1042,-0.55721 -0.0988,-0.3492 -0.5495,-0.15852 -0.27475,0.25011 -0.17074,-0.0966 -0.0166,-1.2873 0.7383,-1.8138 0.4754,-0.4361 -0.15155,-0.26138 0.0492,-1.1124 0.7513,0.90577 0.78552,0.15291 0.8831,-0.16697 0.60521,0.0694 0.73672,0.49314 0.56137,-0.12059 0.51753,-0.16443 1.6238,-1.7166" inkscape:connector-curvature="0" style="stroke:#ffffff">
      <title id="title8614">Prince Edward, VA</title>
    </path>
    <path id="c51037" d="m 833.8,302.66 0.33972,0.0863 0.21107,-0.49111 0.13213,-0.20496 0.4479,-0.0175 0.40842,-0.10628 0.1716,-0.45164 0.29988,-0.0372 0.28015,-0.35297 0.0166,1.2873 0.17074,0.0966 0.27475,-0.25011 0.5495,0.15852 0.0988,0.3492 1.1042,0.55721 0.41253,-0.33668 0.9499,0.2527 0.20451,0.46071 0.56854,0.46072 0.29118,-0.0247 0.30852,0.14869 -0.0558,4.347 -1.8961,4.8836 -1.0345,-0.87823 0.42138,-0.6314 -0.42082,-0.38256 0.17255,-0.57398 -0.41999,-0.3818 0.32651,-0.51579 -0.47743,-0.26696 -1.4345,-1.1857 0.38393,-0.3818 -0.47741,-0.99431 -0.0395,-0.30593 -0.21279,-0.14978 -0.12962,0.2103 0.16846,0.26941 -0.28294,0.10909 -0.14276,0.76643 -0.61251,-0.61397 -1.4708,0.40305 0.0487,-0.71818 -0.21787,-0.19731 0.56347,-4.399" inkscape:connector-curvature="0" style="stroke:#ffffff">
      <title id="title8617">Charlotte, VA</title>
    </path>
    <path id="c51117" d="m 849.85,309.53 0.76396,5.4968 -4.9974,0.957 -2.3944,0.481 -4.9992,0.933 -0.25219,-0.72683 0.2986,-0.22315 -0.0952,-2.3136 0.80085,-0.44629 0.73296,0.62628 1.534,0.47694 -0.0138,-0.13403 -1.4258,-0.55491 -0.71977,-0.62279 1.8961,-4.8877 1.5322,0.49331 1.0041,-0.14133 0.34128,0.24726 0.173,-0.27164 1.6803,0.62561 2.6037,0.13014 0.0813,-0.29775 1.4551,0.15267" inkscape:connector-curvature="0" style="stroke:#ffffff">
      <title id="title8620">Mecklenburg, VA</title>
    </path>
    <path id="c51570" d="m 858.85,297.13 -0.0915,-0.56614 -0.38077,-0.29431 0.0537,-0.28936 0.36534,0.0188 0.27131,-0.17204 0.20102,0.0476 0.10726,-0.17115 -0.0589,-0.17823 0.0619,-0.0869 0.11656,0.0459 0.10094,0.19821 -0.0465,0.2416 -0.1402,0.14003 -0.0392,0.13 0.12251,0.49424 -0.32281,0.17393 -0.0956,0.14536 -0.0966,0.0303 -0.12837,0.09" inkscape:connector-curvature="0" style="stroke:#ffffff">
      <title id="title8623">Colonial Heights, VA</title>
    </path>
    <path id="c51111" d="m 849.3,303.98 0.55358,5.5432 -1.4551,-0.15267 -0.0813,0.29776 -2.6037,-0.13015 -1.6803,-0.62561 -0.17299,0.27163 -0.34128,-0.24724 -1.0041,0.14132 -1.5322,-0.49307 0.0558,-4.347 1.1107,-0.43292 0.13164,-0.4037 1.6368,-0.31602 0.74538,-0.5206 0.82391,0.84337 0.41162,-0.061 0.34513,0.21829 0.27863,0.51088 0.68893,-0.0578 0.978,0.43283 z" inkscape:connector-curvature="0" style="stroke:#ffffff">
      <title id="title8626">Lunenburg, VA</title>
    </path>
    <path id="c51670" d="m 860.01,295.13 0.59123,-0.1699 0.21809,-0.0665 0.18685,-0.17815 0.15283,0.25217 0.36727,0.15265 -0.13563,0.35389 -0.54188,0.35389 -0.13491,0.32009 -0.18373,-0.11931 -0.22987,0.20219 -0.11657,-0.79594 -0.17368,-0.29607" inkscape:connector-curvature="0" style="stroke:#ffffff">
      <title id="title8629">Hopewell, VA</title>
    </path>
    <path id="c51510" transform="translate(0,-0.10698)" d="m 858.34,259.68 -0.78727,0.0527 0.0234,0.30078 -0.66992,-0.39649 -0.36761,0.45797 0.10905,0.6963 0.96418,-0.32514 0.83149,0.14548 -0.01,-0.10156 z" inkscape:connector-curvature="0" style="stroke:#ffffff">
      <title id="title8632">Alexandria, VA</title>
    </path>
    <path id="c51139" d="m 834.71,264.3 2.0936,1.0924 -0.48769,0.72773 -0.0523,0.89098 0.34219,0.0747 -0.0874,0.60874 0.17398,0.44042 -0.26137,0.44042 -1.355,3.831 -0.35301,1.336 -0.95027,-0.02 -0.27991,-0.09 -1.3407,-0.542 -1.4174,-0.729 0.47246,-2.291 0.56517,-2.032 0.4992,-1.316 0.74524,0.159 0.52951,-0.69 1.1637,-1.8974" inkscape:connector-curvature="0" style="stroke:#ffffff">
      <title id="title8635">Page, VA</title>
    </path>
    <path id="c51171" d="m 835.23,260.05 -0.24567,0.79205 0.77898,0.57156 -0.34943,1.5184 -0.69962,1.3757 -1.1637,1.8974 -0.52951,0.69 -0.74524,-0.159 -0.4992,1.316 -0.56517,2.032 -4.6497,-2.876 0.96914,-2.8846 0.38773,-0.38263 0.16213,-0.57755 0.47482,-0.19207 0.0905,0.55151 0.67694,-0.69487 0.21626,-0.77995 0.43149,-0.61665 0.42026,0.25996 0.57439,-1.3902 -0.29825,-0.14899 0.33335,-0.75587 1.7939,0.54158 -0.0173,-0.71741 0.60597,-0.94888 0.45135,-0.0764 0.6391,-0.30835 0.25257,0.46471 -0.27753,0.49784 0.68327,0.42053 0.098,0.57514" inkscape:connector-curvature="0" style="stroke:#ffffff">
      <title id="title8638">Shenandoah, VA</title>
    </path>
    <path id="c51043" d="m 838.99,253.18 4.1634,2.1934 -0.42343,0.80679 0.10826,0.6517 -0.3459,0.23079 -0.1951,0.53631 -0.83757,1.0016 -0.70065,0.84886 -1.0531,-0.49862 -0.66843,0.28405 -1.0716,-0.37375 0.12382,-0.55136 -0.22255,-0.28581 0.61611,-0.69709 -0.0997,-0.32764 0.60651,-3.8192" inkscape:connector-curvature="0" style="stroke:#ffffff">
      <title id="title8641">Clarke, VA</title>
    </path>
    <path id="c51840" d="m 837.13,255.27 0.39155,0.29869 -0.48139,1.2103 -0.4186,-0.15722 0.0523,-0.70644 -0.23353,-0.078 0.1107,-0.54431 0.30649,-0.0408 z" inkscape:connector-curvature="0" style="stroke:#ffffff">
      <title id="title8644">Winchester, VA</title>
    </path>
    <path id="c51069" d="m 832.74,249.86 2.2953,1.1844 3.9526,2.1407 -0.60651,3.8192 0.0997,0.32764 -0.61611,0.69709 0.22255,0.28581 -0.12382,0.55136 -0.17143,0.45857 -2.5659,0.72462 -0.098,-0.57514 -0.68327,-0.42053 0.27753,-0.49784 -0.25257,-0.46471 -0.6391,0.30835 -0.45135,0.0764 -0.60597,0.94888 0.0173,0.71741 -1.7939,-0.54158 0.50308,-0.97514 0.53719,-0.34477 0.37023,-0.40441 0.0602,-0.45211 0.46564,-0.65484 -0.40511,-0.28764 -0.0341,-0.20332 -0.21958,-0.13586 0.42129,-1.1478 -0.40511,-0.10213 0.15146,-0.16959 0.13458,-0.55749 0.48961,-0.85345 0.18668,-0.86704 -0.42405,-0.0357 0.16539,-0.7579 -0.33981,-0.3889 z m 3.8088,5.4383 -0.1107,0.54431 0.23352,0.078 -0.0523,0.70644 0.4186,0.15722 0.48139,-1.2103 -0.39155,-0.29869 -0.2725,-0.0178 z" inkscape:connector-curvature="0" style="stroke:#ffffff">
      <title id="title8647">Frederick, VA</title>
    </path>
    <path id="c51187" d="m 837.96,258.86 1.0716,0.37375 0.66843,-0.28405 1.0531,0.49862 -0.45682,1.2233 -0.35085,0.21712 -0.10598,0.40758 0.32438,0.61 -0.94085,0.28348 -0.19425,0.58239 -0.58064,0.96489 -0.13813,0.96488 -0.70032,0.63137 -0.80916,0.06 -2.0936,-1.0924 0.69962,-1.3757 0.34943,-1.5184 -0.77898,-0.57156 0.24567,-0.79205 2.5659,-0.72462 0.17143,-0.45857" inkscape:connector-curvature="0" style="stroke:#ffffff">
      <title id="title8650">Warren, VA</title>
    </path>
    <path id="c51157" d="m 836.8,265.4 0.80916,-0.06 0.70032,-0.63137 0.13813,-0.96489 0.58064,-0.96488 0.7097,0.4426 0.0749,0.17355 0.4004,0.0754 0.55732,0.3445 0.38484,0.0495 0.26941,0.81906 0.16359,0.43426 0.49066,0.43426 0.76128,0.218 0.34766,-0.09 -1.6242,1.976 -1.8399,2.795 -1.0109,-0.06 -2.2856,-1.806 0.26137,-0.44042 -0.17398,-0.44042 0.0874,-0.60874 -0.34219,-0.0747 0.0523,-0.89098 L 836.8,265.402" inkscape:connector-curvature="0" style="stroke:#ffffff">
      <title id="title8653">Rappahannock, VA</title>
    </path>
    <path id="c51113" d="m 836.43,268.58 2.2856,1.806 2.9943,2.5518 -0.29299,0.89619 0.7075,0.65798 -0.24534,0.2411 0.20969,0.22598 -0.43372,0.79429 -0.49179,0.14383 -0.90119,1.1539 -0.51787,0.25956 -0.41334,-0.34445 -0.0533,-0.26315 -0.41049,-0.19302 -0.75023,0.17529 -2.1085,-1.8424 -0.38099,-1.7896 -0.55242,-0.64232 1.355,-3.831" inkscape:connector-curvature="0" style="stroke:#ffffff">
      <title id="title8656">Madison, VA</title>
    </path>
    <path id="c51109" d="m 840.85,279.39 1.8891,-0.70445 2.6447,0.21545 2.0937,-0.12405 1.9096,0.92306 0.14904,0.38224 1.0466,0.39375 -0.70602,6.718 -0.58525,-0.4446 -1.205,0.0397 -0.41006,-0.7914 -0.82886,-1.0309 -0.97339,-0.0192 -0.36775,-0.42054 -1.112,-0.42706 -4.7389,-1.485 1.1945,-3.225" inkscape:connector-curvature="0" style="stroke:#ffffff">
      <title id="title8659">Louisa, VA</title>
    </path>
    <path id="c51075" d="m 852.94,287.16 0.0544,0.83425 0.0171,1.0767 0.65122,0.8156 -0.50516,0.61043 -0.87547,-0.52845 -0.58249,-0.008 -0.64411,-0.34071 -0.68163,0.22692 -0.3561,-9.5e-4 -0.0824,-0.39193 -1.5799,-0.73374 -0.1801,-0.35937 -0.32659,-10e-4 -0.4393,0.58503 0.0894,0.36515 0.2877,0.27477 -0.16752,0.48692 -0.58389,0 -0.51981,-0.30026 -1.0081,0.15548 -0.19255,-0.168 -0.82848,-0.36427 0.31079,-0.6822 -0.45755,-0.28478 -0.96095,-0.44375 1.0198,-3.898 1.112,0.42706 0.36775,0.42054 0.97339,0.0192 0.82886,1.0309 0.41006,0.7914 1.205,-0.0397 0.58525,0.4446 2.4436,0.13421 0.61579,-0.16421" inkscape:connector-curvature="0" style="stroke:#ffffff">
      <title id="title8662">Goochland, VA</title>
    </path>
    <path id="c51137" d="m 838.87,276.51 0.41049,0.19302 0.0533,0.26315 0.41334,0.34445 0.51787,-0.25956 0.90119,-1.1539 0.49179,-0.14383 0.43372,-0.79429 0.83247,-0.29039 0.76676,-0.91461 1.3514,-0.892 0.95561,-0.331 0.41006,-0.10625 1.0178,0.20586 -0.13202,-0.58263 0.34435,0.058 0.84152,0.257 0.28348,0.146 -0.18815,0.76792 -3.1886,5.6271 -2.6447,-0.21545 -1.8891,0.70445 -3.0737,-0.633 1.0911,-2.25" inkscape:connector-curvature="0" style="stroke:#ffffff">
      <title id="title8665">Orange, VA</title>
    </path>
    <path id="c51007" d="m 845.21,294.39 0.0974,0.37908 0.3958,-0.04 0.46355,-0.29 0.64718,-0.58 0.73811,-0.499 1.1464,-0.103 0.48316,0.07 0.0802,0.06 0.58656,0.481 0.36906,0.612 -0.32092,0.06 -0.0321,0.04 0.0891,0.779 0.0963,0.394 0.44206,0.15831 0.17777,0.35486 0.5169,-0.0958 0.41116,0.15903 -0.0863,0.56603 0.72324,0.27466 0.17211,0.29486 0.41417,0.069 0.52369,-0.86191 0.30296,0.25641 0.46724,-0.23641 0.41897,0.565 -0.10533,0.52095 -0.45289,0.2727 -0.91628,1.183 -0.80044,0.1734 -8.2208,-0.866 -0.37975,-1.625 0.57879,-1.7877 0.97295,-0.72838" inkscape:connector-curvature="0" style="stroke:#ffffff">
      <title id="title8668">Amelia, VA</title>
    </path>
    <path id="c51145" d="m 851.12,293.11 -0.0658,0.97773 -0.83087,0.39175 -0.36906,-0.612 -0.58656,-0.481 -0.0802,-0.06 -0.48316,-0.07 -1.1464,0.103 -0.73811,0.499 -0.64718,0.58 -0.46355,0.29 -0.3958,0.04 -0.0974,-0.37908 0.0974,-4.6189 0.19255,0.168 1.0081,-0.15548 0.51981,0.30026 0.58389,0 0.16752,-0.48692 -0.2877,-0.27477 -0.0894,-0.36515 0.4393,-0.58503 0.32659,10e-4 0.1801,0.35937 1.5799,0.73374 0.0824,0.39193 0.3561,9.5e-4 0.68163,-0.22692 0.64411,0.34071 0.58249,0.008 0.8754,0.52588 z" inkscape:connector-curvature="0" style="stroke:#ffffff">
      <title id="title8671">Powhatan, VA</title>
    </path>
    <path id="c51135" d="m 844.04,298.54 8.2208,0.866 -0.29785,0.66987 -0.54126,0.17534 -0.38166,0.41473 -0.41755,0.16449 0.71292,3.4894 -1.0988,0.35519 -0.94075,-0.68699 -1.111,0.47153 -0.97801,-0.43283 -0.68893,0.0578 -0.27863,-0.51088 -0.34513,-0.21829 -0.41162,0.061 -0.82391,-0.84337 z" inkscape:connector-curvature="0" style="stroke:#ffffff">
      <title id="title8674">Nottoway, VA</title>
    </path>
    <path id="c51025" d="m 849.3,303.98 0.94075,0.68699 1.0988,-0.35519 2.2709,-0.0449 1.4362,1.1646 1.0123,0.2676 0.8433,4.108 -1.2623,4.234 -2.3855,0.456 -2.6369,0.523 -0.76396,-5.4968 -0.55358,-5.5432" inkscape:connector-curvature="0" style="stroke:#ffffff">
      <title id="title8677">Brunswick, VA</title>
    </path>
    <path id="c51053" d="m 854.54,297.25 0.58974,-0.3169 0.54008,0.5437 0.43292,0.0656 0.21777,0.28074 0.38328,-0.13302 0.34886,0.1983 0.34886,-0.33131 0.95384,-0.0521 0.12969,0.76381 0.51382,0.0596 0.0424,0.40301 0.4088,-0.22139 0.8112,4.041 -3.432,3.393 -0.7702,-0.242 -1.0123,-0.2676 -1.4362,-1.1646 -2.2709,0.0449 -0.71292,-3.4894 0.41755,-0.16449 0.38166,-0.41473 0.54126,-0.17534 0.29785,-0.66987 0.80044,-0.1734 0.91628,-1.183 0.45289,-0.2727 0.10533,-0.52095" inkscape:connector-curvature="0" style="stroke:#ffffff">
      <title id="title8680">Dinwiddie, VA</title>
    </path>
    <path id="c51595" d="m 859.59,309.88 -0.21179,0.0554 -0.006,0.20964 -0.28602,0.0296 -0.003,0.10672 -0.25789,-0.0407 -0.2199,-0.484 -0.0232,-0.155 0.11945,-0.20214 0.59582,-0.12215 0.0304,-0.205 0.0891,-0.01 z" inkscape:connector-curvature="0" style="stroke:#ffffff">
      <title id="title8683">Emporia, VA</title>
    </path>
    <path id="c51081" d="m 860.97,309.15 -1.0602,1.0327 0.46982,-0.0215 0.36696,0.32561 0.61125,-0.13724 1.0612,0.46703 0.19982,0.55703 0.30268,0.42847 0.15853,0.30312 1.0313,0.26677 -8.4775,1.672 1.2623,-4.234 -0.8433,-4.108 0.7702,0.242 0.40269,0.0437 0.63113,0.3422 0.55068,-0.19256 0.5991,0.0173 0.61524,-0.41853 0.21425,3.3179 1.1339,0.1 0,-0.003 z m -1.6471,-0.0754 -0.0304,0.205 -0.59582,0.12215 -0.11945,0.20214 0.0232,0.155 0.2199,0.484 0.25789,0.0407 0.003,-0.10672 0.28602,-0.0296 0.006,-0.20964 0.21179,-0.0554 -0.1733,-0.81743 z" inkscape:connector-curvature="0" style="stroke:#ffffff">
      <title id="title8686">Greensville, VA</title>
    </path>
    <path id="c51735" d="m 877.68,296.13 -0.39575,-0.51556 10e-4,-0.36671 0.0105,-0.26907 0.44847,-0.0702 0.0168,0.37263 0.31364,-0.10694 -0.11405,-0.43074 0.36785,-0.10755 0.12684,0.33804 0.50424,0.40971 0.0316,-0.22486 0.62014,0.36334 -0.10126,0.13731 -0.33645,0.16036 -0.20035,0.017 -0.26299,0.17137 -0.31471,-0.13729 -0.17747,-0.0655 -0.33034,0.12053 -0.002,0.003 -0.2061,0.20085" inkscape:connector-curvature="0" style="stroke:#ffffff">
      <title id="title8689">Poquoson, VA</title>
    </path>
    <path id="c51620" d="m 869.88,307.19 0.71699,1.4302 -0.009,0.04 -0.6816,-0.32802 -0.34463,0.0137 0.0867,-0.31585 -0.23934,0.006 -0.0656,-0.22403 0.21563,-0.14982 -0.0539,-0.31703 0.37468,-0.15" inkscape:connector-curvature="0" style="stroke:#ffffff">
      <title id="title8692">Franklin, VA</title>
    </path>
    <path id="c51175" d="m 869.88,307.19 -0.37468,0.15 0.0539,0.31703 -0.21563,0.14982 0.0656,0.22403 0.23934,-0.006 -0.0867,0.31585 0.34463,-0.0137 0.6816,0.32802 0.009,-0.04 0.23355,0.06 -0.045,1.1785 -0.27684,0.61176 0.30004,0.37171 0.1252,0.18203 -4.4518,0.836 -2.3623,0.516 -1.0313,-0.26677 -0.15853,-0.30312 -0.30268,-0.42847 -0.19982,-0.55703 -1.0612,-0.46703 -0.61125,0.13724 -0.36696,-0.32561 -0.46982,0.0215 1.0602,-1.0327 7.4649,-7.096 1.6153,-1.551 0.007,0.81429 0.98403,0.9686 -0.5589,2.7858 -0.61033,2.1172" inkscape:connector-curvature="0" style="stroke:#ffffff">
      <title id="title8695">Southampton, VA</title>
    </path>
    <path id="c51650" d="m 877.68,296.13 0.28389,-0.0432 0.043,0.11068 0.45062,0.002 0.14092,0.19592 0.24671,0.0254 -0.034,0.20547 -0.3342,0.25968 0.0359,0.42909 0.13863,0.15152 0.0551,-0.15425 -0.0197,-0.13271 0.26448,-0.37985 -0.0433,-0.24482 0.13843,-0.0598 -0.0106,-0.26093 0.17001,-0.0588 0.12639,0.30102 0.13638,0.10464 -0.002,-0.14152 -0.0586,-0.28381 0.22865,-0.12286 0.0873,-0.17277 0.19702,0.0584 0.0972,0.41809 -0.12791,1.2603 0.0405,0.3655 -0.16201,0.32012 -0.2022,0.0858 -0.0236,-0.16106 0.19232,-0.27924 -0.025,-0.25806 -0.1016,0.0182 -0.0481,0.20178 -0.10076,0.16062 -0.29762,0.0244 -0.0979,-0.0128 -0.0876,0.28677 -0.3522,0.20886 -0.30221,0.20398 -0.20038,-0.19549 -0.17604,0.23047 -0.51865,-0.63914 -0.16572,0.10326 -0.31175,-0.29837 0.008,-0.53255 -0.13763,-0.31348 0.16474,-0.37805 0.61302,-0.22669 0.0813,-0.38177" inkscape:connector-curvature="0" style="stroke:#ffffff">
      <title id="title8698">Hampton, VA</title>
    </path>
    <path id="c51830" d="m 871.88,294.2 -0.28341,-0.0263 -0.32193,0.10714 -0.25691,-0.0757 -0.19968,-0.17 -0.0909,-0.185 -0.0302,-0.23963 0.17191,-0.10182 -0.24408,-0.46393 0.16083,-0.16209 0.29939,0.55453 0.34548,-0.0251 0.091,-0.28969 0.21494,0.0221 0.0609,0.47319 0.0348,0.21319 0.20905,0.0319 0.0298,0.23357 z" inkscape:connector-curvature="0" style="stroke:#ffffff">
      <title id="title8701">Williamsburg, VA</title>
    </path>
    <path id="c51700" d="m 873.64,294.5 0.35939,-0.0284 0.10461,-0.18345 2.4752,2.32 0.4037,0.12672 -0.16473,0.37805 0.13762,0.31348 -0.008,0.53255 0.31176,0.29837 0.16571,-0.10326 0.51866,0.63914 0.17603,-0.23047 0.20038,0.19549 -0.24001,0.46003 -0.0998,0.40649 -0.34109,-0.10284 -0.3609,-0.53011 0.0135,-0.2841 -0.2311,-0.11532 -0.18441,-0.29164 -0.40317,-0.22995 -0.24243,0.0132 -0.67227,-0.31796 -0.1089,-0.2265 0.10511,-0.14571 -0.0247,-0.26655 -0.10607,0.0276 -0.14218,0.13758 -0.19282,-0.0329 10e-4,-0.132 -0.41034,-0.46973 -0.13044,0.0424 10e-4,0.16328 0.44995,0.46577 -0.002,0.16699 -0.18641,0.0107 -0.16985,-0.059 -0.0727,-0.20257 -0.62844,-0.37894 -0.33298,-0.008 -0.15333,-0.146 0.15964,-1.1348 0.10614,-0.22396 0.30554,-0.17966 -0.3148,-0.41228 -0.0711,-0.2572" inkscape:connector-curvature="0" style="stroke:#ffffff">
      <title id="title8704">Newport News, VA</title>
    </path>
    <path id="c51740" d="m 878.49,300.94 0.36099,-0.0539 -0.009,-0.60333 0.57432,-0.067 0.10816,0.86592 0.27934,0.30322 -0.0726,0.24505 0.48107,-0.0347 0.0658,0.18383 0.30731,-0.022 0.14368,0.23236 0.13206,0.31734 0.12536,0.47221 -1.5183,0.58072 -0.55669,-0.58856 0.0443,-0.46836 0.0616,-0.25912 -0.29383,-0.36731 -0.52586,0.0536 0.20098,-0.34052 0.0917,-0.4498" inkscape:connector-curvature="0" style="stroke:#ffffff">
      <title id="title8707">Portsmouth, VA</title>
    </path>
    <path id="c51199" d="m 870.79,292.88 -0.17542,-0.26967 -0.0806,-0.27643 -0.33785,0.0267 -0.0714,-0.42342 0.25014,-0.45099 0.51363,0.0886 0.55957,-0.28804 0.31991,0.0916 0.12162,0.30207 0.37863,0.24232 0.16943,0.36679 0.84205,0.60875 0.16831,0.007 0.0684,0.20988 0.59645,-0.006 0.30944,0.28714 0.38474,0.2463 0.27545,0.0881 0.24328,0.17837 0.49934,0.129 0.87248,-0.40786 0.11276,-0.20511 0.46645,-0.17625 0.014,0.25906 -0.29403,0.12234 -0.20797,0.18375 0.007,0.14377 0.2852,-0.11538 0.21095,0.18934 0.0431,0.29603 0.0339,0.23137 -0.19583,-0.0641 -0.22995,-0.16511 -0.3546,0.12061 0.0444,0.0991 0.34946,-0.11938 0.13758,0.13976 0.007,0.29598 -0.158,0.13184 -0.1013,0.27238 0.0425,0.13462 -0.29839,0.0352 0.0656,0.10614 0.35872,-0.0431 0.0253,-0.21545 0.2206,-0.0466 -10e-4,0.36671 0.39575,0.51556 -0.0813,0.38177 -0.61302,0.22669 -0.4037,-0.12672 -2.4752,-2.32 -0.10461,0.18345 -0.35939,0.0284 -0.11509,-0.1522 -0.16056,-0.36009 -0.35545,0.23109 -0.47889,-0.0158 -0.25246,-0.18654 -0.10954,-0.29698 -0.13552,-0.0956 -0.23027,-0.006 -0.0606,-0.46915 -0.21494,-0.0221 -0.091,0.28969 -0.34548,0.0251 -0.29939,-0.55453" inkscape:connector-curvature="0" style="stroke:#ffffff">
      <title id="title8710">York, VA</title>
    </path>
    <path id="c51095" d="m 869.61,289.43 0.73653,0.72985 0.52765,0.29728 0.57496,0.82952 -0.55957,0.28804 -0.51363,-0.0886 -0.25014,0.45099 0.0714,0.42342 0.33785,-0.0267 0.0806,0.27643 0.17542,0.26967 -0.16083,0.16209 0.24408,0.46393 -0.17191,0.10182 0.0302,0.23963 0.0909,0.185 0.19968,0.17 0.25691,0.0757 0.32193,-0.10714 0.28341,0.0263 0.19103,-0.10365 -0.0299,-0.23358 -0.20913,-0.0319 -0.035,-0.21322 0.23026,0.006 0.13552,0.0957 0.10954,0.29712 0.25246,0.18667 0.47889,0.0158 0.35545,-0.23105 0.16056,0.36012 0.11509,0.15224 0.0711,0.2572 0.3148,0.41228 -0.30554,0.17966 -0.10614,0.22396 -0.23668,-0.15261 -0.1091,-0.31579 -0.33646,-0.35907 -0.33097,-0.17082 -0.79047,0.0975 -0.1023,0.23771 -0.6097,0.13114 -0.26483,0.0459 -0.0361,0.0973 0.31669,0.1253 -0.0651,0.27747 -0.25821,0.0218 -0.38324,-0.36018 -0.4997,-0.44626 -0.4886,-0.0988 -0.8308,0.18009 0.008,-0.24925 -0.1521,-0.2915 -0.0902,-0.41234 0.17933,-0.0329 0.10172,-0.19162 -0.30192,-0.11485 -0.0656,-0.11346 0.12286,-0.12773 -0.24242,-0.15648 -0.25338,-0.74104 0.0256,-0.33187 -0.25569,0.0244 -0.1534,0.32197 -0.19989,0.15459 -0.0649,-0.11629 0.12105,-0.29298 0.0745,-0.48826 0.0707,-0.25416 -0.27363,8.3e-4 -0.0744,-0.18666 0.16777,-0.0265 0.0701,-0.003 -0.007,-0.35749 -0.007,-0.27999 0.36914,-0.48435 0.6907,-0.0733 1.0136,0.0881 0.14681,-0.71503" inkscape:connector-curvature="0" style="stroke:#ffffff">
      <title id="title8713">James City, VA</title>
    </path>
    <path id="c51181" d="m 871.19,296.56 0.25646,0.0615 0.3132,-0.17265 0.1082,-0.59121 0.10191,-0.1799 -0.0534,-0.2153 0.13667,-0.18427 0.48747,0.35776 -0.0866,0.31351 0.13112,0.58211 -0.15453,1.8585 -2.3738,2.1174 -1.6153,1.551 -0.48316,-1.223 -0.20216,-0.82512 0.0745,-0.27063 -0.067,-0.1757 -0.27622,-0.0284 -0.25555,0.18967 -0.97081,-0.30222 -0.0738,0.2341 -0.49237,0.0285 -0.12249,-0.40614 -0.42765,0.0562 -0.29818,-0.23044 -0.57318,0.003 -0.21044,-0.13473 1.218,-2.1137 0.75693,-0.37256 0.0911,-0.52051 0.10371,-0.14952 0.30957,-0.44584 0.27802,0.0242 0.39822,0.0712 0.93062,0.52843 0.50991,-0.2799 1.281,-0.26255 0.0421,0.36757 0.33734,-0.0322 0.23517,0.30901 0.30268,0.0961 z" inkscape:connector-curvature="0" style="stroke:#ffffff">
      <title id="title8716">Surry, VA</title>
    </path>
    <path id="c51183" d="m 864.06,298.98 0.21044,0.13473 0.57318,-0.003 0.29818,0.23044 0.42765,-0.0562 0.12249,0.40614 0.49237,-0.0285 0.0738,-0.2341 0.97081,0.30222 0.25555,-0.18967 0.27622,0.0284 0.067,0.1757 -0.0745,0.27063 0.20216,0.82512 0.48316,1.223 -7.4649,7.096 -1.1339,-0.1 -0.21425,-3.3179 -0.61524,0.41853 -0.5991,-0.0173 -0.55068,0.19256 -0.63113,-0.3422 -0.40269,-0.0437 3.432,-3.393 3.8011,-3.576" inkscape:connector-curvature="0" style="stroke:#ffffff">
      <title id="title8719">Sussex, VA</title>
    </path>
    <path id="c51149" d="m 861.7,295.02 0.18734,-0.11813 -0.0163,-0.25341 0.25414,0.11564 0.20368,-0.0516 0.069,0.31292 0.21797,0.11974 0.21685,-0.0743 0.19031,-0.27806 0.21984,-0.007 0.0863,-0.12749 0.19739,-0.0115 0.23023,7.4e-4 0.30006,-0.1655 0.15153,-0.255 0.12113,0.11379 0.17417,0.64161 0.52365,0.22335 0.1734,-0.15782 0.12036,-0.35625 0.22691,-0.28669 0.20211,-0.17778 0.0531,-0.12878 0.26266,0.0733 -0.0419,0.30956 0.25598,0.28193 0.19549,0.53427 -0.19297,0.0801 -0.19889,0.20086 0.0412,0.39083 -0.0911,0.52051 -0.75693,0.37256 -1.218,2.1137 -3.8011,3.576 -0.8112,-4.041 0.18582,-0.23202 0.46878,0.0766 0.28098,-0.15708 -0.0682,-0.31922 0.2465,-0.27185 -0.55166,-0.38409 -0.0308,-0.29426 -0.42106,-0.20573 -0.0955,-0.51474 0.19175,-0.22748 0.0962,-0.2119 -0.0837,-0.60056 0.14191,-0.0742 0.19543,0.0395 0.17367,0.29607 0.11658,0.79594 0.22987,-0.20219 0.18373,0.11931 0.13491,-0.32009 0.54188,-0.35389 0.13563,-0.35389 z" inkscape:connector-curvature="0" style="stroke:#ffffff">
      <title id="title8722">Prince George, VA</title>
    </path>
    <path id="c51730" d="m 859.56,296.72 0.42109,0.20573 0.0308,0.29427 0.55164,0.38408 -0.24652,0.27185 0.0682,0.31921 -0.28103,0.15709 -0.46878,-0.0766 -0.18582,0.23202 -0.4088,0.22139 -0.0424,-0.40301 -0.51382,-0.0596 -0.12969,-0.76381 0.49354,-0.3727 0.12837,-0.09 0.0966,-0.0303 0.0958,-0.14212 z" inkscape:connector-curvature="0" style="stroke:#ffffff">
      <title id="title8725">Petersburg, VA</title>
    </path>
    <path id="c51087" d="m 852.94,287.16 0.5939,-0.0933 0.89233,0.20517 0.89843,-0.56259 1.0663,0.25806 1.027,1.7097 2.9569,0.71254 0.37797,0.03 1.2149,1.0083 -0.5135,2.0583 0.31734,0.31272 -0.26149,0.28425 -0.22043,-0.22942 -0.18246,-0.0112 0.0358,0.34941 -0.2822,0.0777 0.0815,0.35221 -0.12415,0.29979 -0.53211,-0.0233 -0.13629,-0.28716 0.14661,-0.68095 -0.2822,-0.0872 -0.2382,0.6901 -0.50208,0.0964 -0.27119,-0.21698 -0.2382,0.14584 -0.4691,-0.72825 -0.51857,-0.0356 0.009,-0.54683 -0.0338,-0.44746 -0.16435,-0.58735 0.0315,-0.40083 0.47912,0.0934 -0.0326,-0.78268 -0.52685,-0.30707 -0.14449,-0.51223 -0.37282,0.0213 -0.23294,-0.37964 -0.67124,0.23584 0.2,0.39873 -0.48179,0.11517 -0.67159,-0.23242 -0.0993,0.47157 0.33339,0.0628 -0.038,0.13098 -1.2409,0.43804 -0.96185,-0.0819 0.50516,-0.61043 -0.65122,-0.8156 -0.0171,-1.0767 -0.0544,-0.83425" inkscape:connector-curvature="0" style="stroke:#ffffff">
      <title id="title8728">Henrico, VA</title>
    </path>
    <path id="c51041" d="m 854.12,290.58 0.24523,0.42083 0.45614,-0.0775 0.28437,-0.22566 0.16314,0.23129 0.27504,-0.12308 0.29958,0.83885 0.34619,0.54042 0.42461,0.0908 0.4246,-0.15166 0.34563,-0.0422 0.40215,0.17672 -0.009,0.54683 0.51858,0.0356 0.46909,0.72825 0.2382,-0.14584 0.27119,0.21698 0.50208,-0.0964 0.2382,-0.6901 0.2822,0.0872 -0.14661,0.68095 0.13629,0.28715 0.53211,0.0233 0.12415,-0.2998 -0.0815,-0.3522 0.2822,-0.0777 0.20459,0.25721 -0.29019,0.64143 -0.18388,0.31868 -0.24642,0.11474 -0.0282,0.42503 -0.59123,0.1699 -0.19554,-0.0392 -0.14196,0.0743 0.0837,0.60062 -0.0963,0.21193 -0.19175,0.2275 0.0955,0.51476 -0.39079,0.14269 0.32273,-0.17214 -0.12258,-0.49245 0.0392,-0.13 0.1402,-0.14003 0.0465,-0.2416 -0.10094,-0.19821 -0.11656,-0.0459 -0.0619,0.0869 0.0589,0.17823 -0.10726,0.17115 -0.20102,-0.0476 -0.27131,0.17204 -0.36534,-0.0188 -0.0537,0.28936 0.38077,0.29431 0.0915,0.57166 -0.49354,0.3727 -0.95384,0.0521 -0.34886,0.33131 -0.34886,-0.1983 -0.38328,0.13302 -0.21777,-0.28074 -0.43292,-0.0656 -0.54008,-0.5437 -0.58974,0.3169 -0.41897,-0.565 -0.46724,0.23641 -0.30296,-0.25641 -0.52369,0.86191 -0.41417,-0.069 -0.17211,-0.29486 -0.72324,-0.27466 0.0863,-0.56603 -0.41116,-0.15903 -0.5169,0.0958 -0.17777,-0.35486 -0.44206,-0.15831 -0.0963,-0.394 -0.0891,-0.779 0.0321,-0.04 0.32092,-0.06 0.83087,-0.39175 0.0658,-0.97773 2.0361,-2.6095 z" inkscape:connector-curvature="0" style="stroke:#ffffff">
      <title id="title8731">Chesterfield, VA</title>
    </path>
    <path id="c51036" d="m 861.97,290.44 0.16349,0.20466 0.16554,-0.12394 0.39805,0.25065 0.19547,-0.10578 0.18901,0.24297 0.24067,0.16546 0.33756,0.21714 0.32463,-0.12517 0.26005,0.0686 0.0589,0.19997 0.62726,-0.12941 0.0783,0.27747 0.34954,0.0321 0.1558,-0.17462 0.44642,-0.11649 0.0331,0.23872 0.34065,0.006 0.16628,-0.1684 0.1017,0.10286 -0.0662,0.40641 0.14198,0.005 0.14198,-0.33129 0.16135,0.005 0.0645,0.24997 0.18073,0.18539 0.21903,-0.29902 -0.0746,0.48826 -0.12105,0.29298 0.0649,0.11629 0.19989,-0.15459 0.1534,-0.32197 0.25569,-0.0244 -0.0256,0.33187 0.25338,0.74104 -0.18859,0.21573 0.0537,0.18608 0.15547,0.087 -0.0459,0.24807 0.10448,0.49623 0.0852,0.10885 -0.0425,0.16483 -0.22366,0.0729 -0.0219,0.19452 -0.21588,0.04 -0.0588,0.30017 -0.43615,-0.0445 -0.36733,-0.22111 -0.55806,-0.45153 -0.24498,-0.58321 -0.44467,-0.21059 -0.32157,0.33143 -0.56188,0.68487 -0.21478,-0.13128 -0.0621,-0.62699 0.0677,-0.31913 -0.45887,0.33591 -0.2861,0.0564 -0.26615,0.20175 -0.95259,0.14918 -0.36304,-0.20423 -0.79804,0.24387 -0.21135,0.11249 -0.0954,-0.27308 -0.1185,-0.25466 0.29019,-0.64143 -0.20459,-0.25721 -0.0358,-0.34941 0.18246,0.0112 0.22043,0.22942 0.26149,-0.28425 -0.31734,-0.31272 0.5135,-2.0583" inkscape:connector-curvature="0" style="stroke:#ffffff">
      <title id="title8734">Charles City, VA</title>
    </path>
    <path id="c51127" d="m 862.14,287.31 0.45905,-0.14114 0.11633,0.1214 0.23084,-0.0504 4.6e-4,0.33382 0.33255,0.15059 0.19558,-0.23704 0.63878,0.13157 0.11793,0.25074 0.22032,0.35277 0.18849,-0.0882 0.37002,0.14873 0.17951,-0.19486 -0.0629,-0.34839 0.10196,-0.0531 0.15552,0.31711 -0.0205,0.13847 -0.11197,0.21321 0.0418,0.18622 0.67949,0.16378 0.0909,-0.63082 0.23817,-0.23615 0.32955,0.32524 0.26458,-0.0357 0.19868,-0.26423 -0.0516,-0.49462 0.10887,-0.10368 0.0776,0.60211 -0.2186,0.34349 0.0979,0.33664 0.26733,-0.0469 0.27673,0.0166 0.16819,-0.52976 0.22242,-0.19113 0.24754,0.35727 0.16257,0.16197 0.0345,0.55861 0.83225,0.27338 0.28909,0.27528 -0.14681,0.71504 -1.0136,-0.0881 -0.69069,0.0733 -0.36914,0.48433 0.007,0.27999 0.007,0.35749 -0.0701,0.003 -0.16778,0.0265 0.0744,0.18672 0.27359,-7.9e-4 -0.0707,0.25416 -0.21903,0.29902 -0.18073,-0.18539 -0.0645,-0.24997 -0.16135,-0.005 -0.14198,0.33129 -0.14198,-0.005 0.0662,-0.40641 -0.1017,-0.10286 -0.16628,0.1684 -0.34065,-0.006 -0.0331,-0.23872 -0.44642,0.11649 -0.1558,0.17462 -0.34954,-0.0321 -0.0783,-0.27747 -0.62726,0.12941 -0.0589,-0.19997 -0.26005,-0.0686 -0.32463,0.12517 -0.33756,-0.21714 -0.24067,-0.16546 -0.18901,-0.24297 -0.19547,0.10578 -0.39805,-0.25065 -0.16554,0.12394 -0.16349,-0.20466 -1.2149,-1.0083 0.38146,-0.61337 0.48986,-0.8196 0.53469,-0.0158 -0.0181,-0.67228" inkscape:connector-curvature="0" style="stroke:#ffffff">
      <title id="title8737">New Kent, VA</title>
    </path>
    <path id="c51760" d="m 857.78,292.26 -0.40215,-0.17672 -0.34563,0.0422 -0.4246,0.15163 -0.42461,-0.0908 -0.34619,-0.54042 -0.29958,-0.83885 -0.27504,0.12308 -0.16314,-0.23129 -0.28437,0.22566 -0.45614,0.0775 -0.24523,-0.42083 1.2409,-0.43804 0.038,-0.13098 -0.33339,-0.0628 0.0993,-0.47157 0.67159,0.23242 0.48179,-0.11517 -0.2,-0.39873 0.67124,-0.23584 0.23294,0.37964 0.37282,-0.0214 0.14449,0.51224 0.52685,0.30707 0.0326,0.78268 -0.47912,-0.0934 -0.0315,0.40083 0.16436,0.58735 0.0338,0.44746" inkscape:connector-curvature="0" style="stroke:#ffffff">
      <title id="title8740">Richmond, VA</title>
    </path>
    <path id="c51630" d="m 853.58,273.36 -0.32982,0.32839 -0.70598,-0.0697 -0.18727,-0.52097 -0.33089,-0.0458 0.0627,-0.36036 0.38952,-0.13309 0.35722,0.15936 0.30744,-0.11335 0.21543,0.19153 0.19064,0.22966 0.031,0.3344" inkscape:connector-curvature="0" style="stroke:#ffffff">
      <title id="title8743">Fredericksburg, VA</title>
    </path>
    <path id="c51600" d="m 853.61,259.79 0.003,-0.11212 0.49827,-0.0764 0.0846,0.66683 -0.2555,0.0217 -0.014,0.10082 -0.54676,0.15328 -0.14346,-0.2347 -0.24277,-0.14533 0.089,-0.37654 z" inkscape:connector-curvature="0" style="stroke:#ffffff">
      <title id="title8746">Fairfax, VA</title>
    </path>
    <path id="c51683" d="m 851.19,262.54 0.25994,0.0428 0.0118,0.611 -0.24962,0.26683 -0.23804,-0.0654 -0.39038,-0.11613 -0.13647,0.13777 0.31274,0.4698 -0.0771,0.17608 -0.41308,-0.22627 -0.0693,-0.48407 0.13538,-0.0957 0.0788,-0.0999 0.08,-0.27143 0.33937,-0.39075 0.0341,-0.1531 0.31723,0.025 z" inkscape:connector-curvature="0" style="stroke:#ffffff">
      <title id="title8749">Manassas, VA</title>
    </path>
    <path id="c51107" d="m 844.21,250.72 0.68998,-0.08 1.0666,0.374 0.95554,-0.24477 0.66202,0.83411 1.5822,0.53266 -0.14874,0.87899 -0.55727,0.23701 -0.0731,0.193 -0.007,0.105 -0.0428,0.289 -0.0214,0.208 0.005,0.02 0.12302,0.392 0.10162,0.136 0.0107,0 0.11232,0.08 1.1393,0.765 0.0339,0.01 0.63292,0.04 0.86113,-0.04 0.83616,-0.09 -2.7294,5.6652 -0.34389,-0.78315 -0.7131,-0.14627 -0.64848,-0.60778 -0.74079,-0.37703 -5.543,-0.50086 0.83757,-1.0016 0.1951,-0.53631 0.3459,-0.23079 -0.10826,-0.6517 0.42343,-0.80679 1.0626,-4.66" inkscape:connector-curvature="0" style="stroke:#ffffff">
      <title id="title8752">Loudoun, VA</title>
    </path>
    <path id="c51061" d="m 841.46,258.6 5.543,0.50086 -0.2562,1.7433 -0.33003,-0.23192 0.0299,0.46034 -0.0624,0.49726 0.0571,0.248 3.7672,4.814 0.77062,0.86792 -1.3694,2.6331 0.11022,1.022 -0.79647,-0.16047 -0.66279,0.2038 -0.21892,0.22024 -0.20247,-0.17431 -0.4162,-0.27295 -0.12028,-0.5031 -0.66018,-0.56391 -0.42873,-0.72582 -0.626,-0.29839 -0.7082,-0.73404 -0.14926,-0.99707 -0.23276,-0.6461 -0.21892,-0.19075 -0.21415,0.14659 -0.21156,-0.20932 0.0281,-0.32304 -0.32202,-0.3062 -0.36448,0.0538 -0.34766,0.09 -0.76128,-0.218 -0.49066,-0.43426 -0.16359,-0.43426 -0.26941,-0.81906 -0.38484,-0.0495 -0.55732,-0.3445 -0.4004,-0.0754 -0.0749,-0.17355 -0.7097,-0.4426 0.19425,-0.58239 0.94085,-0.28348 -0.32437,-0.61 0.10597,-0.40758 0.35085,-0.21712 0.45682,-1.2233 0.70065,-0.84886" inkscape:connector-curvature="0" style="stroke:#ffffff">
      <title id="title8755">Fauquier, VA</title>
    </path>
    <path id="c51047" d="m 843.19,265.68 0.36448,-0.0538 0.32202,0.3062 -0.0281,0.32304 0.21156,0.20932 0.21415,-0.14659 0.21892,0.19075 0.23276,0.6461 0.14926,0.99707 0.7082,0.73404 0.626,0.29839 0.42873,0.72582 0.66018,0.56391 0.12028,0.5031 0.4162,0.27295 0.20247,0.17431 0.21892,-0.22024 0.66279,-0.2038 0.79647,0.16047 0.48138,0.9 -0.29675,0.22994 -0.10925,-0.40288 -0.67174,0.51119 -0.35925,0.11275 -0.28348,-0.146 -0.84152,-0.257 -0.34435,-0.058 0.13202,0.58263 -1.0178,-0.20586 -0.41006,0.10625 -0.95561,0.331 -1.3514,0.892 -0.76676,0.91461 -0.83247,0.29039 -0.20969,-0.22598 0.24534,-0.2411 -0.7075,-0.65798 0.29299,-0.89619 -2.9943,-2.5518 1.0109,0.06 1.8399,-2.795 1.6242,-1.976" inkscape:connector-curvature="0" style="stroke:#ffffff">
      <title id="title8758">Culpeper, VA</title>
    </path>
    <path id="c51177" d="m 850.2,272.06 0.37154,0.24846 0.0825,0.42034 0.13499,0.0695 0.35374,-0.44608 0.88717,0.70159 0.33089,0.0458 0.18727,0.52097 0.70598,0.0697 0.32982,-0.32839 1.5244,0.593 -3.6478,6.75 -0.87539,-0.224 -1.0466,-0.39375 -0.14904,-0.38224 -1.9096,-0.92306 -2.0937,0.12405 3.1886,-5.6271 0.18815,-0.76792 0.35925,-0.11275 0.67174,-0.51119 0.10925,0.40288 0.29675,-0.22994" inkscape:connector-curvature="0" style="stroke:#ffffff">
      <title id="title8761">Spotsylvania, VA</title>
    </path>
    <path id="c51085" d="m 850.58,280.48 0.87539,0.224 0.35578,0.6262 0.68356,0.21599 0.16904,-0.16346 0.16903,0.0586 0.28871,0.57999 0.26403,0.13579 0.26893,-0.11094 1.034,0.58006 0.56507,-0.32071 0.61444,0.61707 -0.12592,0.20988 0.17726,0.61787 0.25129,0.0503 -0.0942,0.32173 0.43638,0.0133 0.0415,0.50682 0.42404,0.075 0.53584,-0.37443 0.36178,-0.0423 0.1592,0.3285 -0.10231,0.35253 0.10353,0.11417 0.51526,-0.13503 0.0277,0.125 -0.28651,0.17918 0.0169,0.24418 0.28773,-0.24338 0.16403,0.0475 -0.0418,0.23169 0.22389,0.27151 0.16589,0.0224 0.12758,-0.26102 0.18121,-0.0235 0.19653,0.19865 0.11992,-0.0848 -0.1712,-0.27634 0.13524,-0.1078 0.12512,0.089 0.11172,0.1161 0.0581,0.22335 -0.15642,0.30763 0.18833,0.2157 0.16343,-0.0949 0.22472,-0.0872 0.0255,0.18093 0.1481,0.0813 0.0945,-0.11019 0.0179,-0.2098 0.21624,-0.0579 0.086,0.29449 -0.0902,0.2792 0.10897,0.18723 0.24687,-0.0656 0.21624,-0.32605 0.93351,0.015 -0.28311,0.99196 0.0181,0.67228 -0.53469,0.0158 -0.48986,0.8196 -0.38146,0.61337 -0.37797,-0.03 -2.9569,-0.71254 -1.027,-1.7097 -1.0663,-0.25806 -0.89843,0.56259 -0.89233,-0.20517 -0.5939,0.0933 -0.61579,0.16421 -2.4436,-0.13421 0.70602,-6.718" inkscape:connector-curvature="0" style="stroke:#ffffff">
      <title id="title8764">Hanover, VA</title>
    </path>
    <path id="c51101" d="m 860.08,281.41 0.19255,-0.169 0.39122,0.23046 -0.0367,0.32325 0.40049,0.0206 0.64715,1.1529 0.40283,-0.0229 -0.0681,0.5601 0.50373,0.10043 -0.0344,0.48162 0.19957,0.0599 0.30047,-0.041 0.51348,0.50839 0.43501,-0.0858 0.27805,0.26175 0.44621,-0.0634 0.21079,0.32898 0.24441,0.0263 0.63681,-0.28765 0.25562,0.40745 0.009,0.41866 0.15472,0.0375 0.39016,-0.18675 0.51349,0.46351 -0.13678,0.3627 0.25563,0.0263 0.15179,-0.17219 0.30607,0.24091 0.29937,-0.01 -0.0751,0.31302 0.42443,-0.0148 0.0721,0.30017 0.21302,0.0553 0.16617,0.10849 0.14414,0.33272 -0.0801,0.32151 -0.16082,0.20705 -0.20249,0.0724 -0.14939,-0.29568 -0.21245,-0.16683 -0.36583,0.24831 -0.1203,0.26625 -0.17264,0.12161 -0.11205,-0.11433 0.20602,-0.37096 -0.0881,-0.39273 -0.23919,-0.32438 -0.45381,0.26573 0.19114,0.48338 -0.24357,0.0749 -0.13423,-0.29868 -0.20483,-0.0348 -0.52708,0.43331 -0.0731,0.39511 -0.19684,-0.0413 0.0781,-0.33377 -0.14905,-0.34681 -0.21161,-0.18557 -0.42386,0.17356 0.0899,0.25687 -0.35218,0.0111 0.007,-0.37765 -0.30303,-0.0278 -0.16676,0.13468 -0.63878,-0.13157 -0.19558,0.23704 -0.33255,-0.15059 -4.6e-4,-0.33382 -0.23084,0.0504 -0.11633,-0.1214 -0.45905,0.14114 0.28311,-0.99196 -0.93351,-0.015 -0.21623,0.32605 -0.24688,0.0656 -0.10897,-0.18723 0.0902,-0.27919 -0.086,-0.29449 -0.21623,0.0579 -0.0179,0.2098 -0.0945,0.11019 -0.1481,-0.0813 -0.0255,-0.18093 -0.22471,0.0872 -0.16343,0.0949 -0.18833,-0.2157 0.15642,-0.30763 -0.0581,-0.22335 -0.11172,-0.1161 -0.12512,-0.089 -0.13525,0.1078 0.17121,0.27634 -0.11992,0.0848 -0.19654,-0.19865 -0.18121,0.0235 -0.12758,0.26102 -0.16589,-0.0224 -0.22389,-0.27151 0.0418,-0.23169 -0.16403,-0.0475 -0.28772,0.24338 -0.0169,-0.24418 0.28651,-0.17918 -0.0277,-0.125 -0.51526,0.13503 -0.10353,-0.11417 0.10231,-0.35253 -0.1592,-0.3285 -0.36178,0.0423 0.56287,-0.79236 0.94002,-1.5878 -0.0261,-0.71372 0.55472,0.0155 0.11109,0.25563 0.41447,-0.11275" inkscape:connector-curvature="0" style="stroke:#ffffff">
      <title id="title8767">King William, VA</title>
    </path>
    <path id="c51097" d="m 860.08,281.41 -0.20762,-1.0722 0.0225,-0.58271 0.54795,-0.32184 0.62114,-0.10229 0.3012,0.0787 0.3012,-0.34558 0.0597,0.64047 0.468,0.31879 0.21649,0.0235 0.25315,0.35352 0.16565,0.61598 -0.24992,0.18947 0.0344,0.17854 0.38922,0.0361 0.19237,0.42981 0.3236,0.11265 0.21424,-0.11701 0.35641,0.20015 0.43056,-0.0738 0.17843,0.9032 0.6177,-0.36736 0.64863,0.22036 0.51316,-0.50713 0.82203,-0.0545 0.12886,0.40992 0.62524,0.34659 0.3378,0.20678 0.28154,0.90282 1.1823,1.3571 0.90803,0.71924 0.22213,1.5233 0.0713,0.192 0.46711,0.491 0.0909,0.217 0,0.111 -0.0428,0.192 -0.14441,0.314 -0.80779,0.39918 -0.22348,-0.10495 -0.53732,-0.67188 -0.79013,-0.49609 -0.0641,-0.22041 -0.19793,-0.25848 0.0801,-0.32151 -0.14415,-0.33272 -0.16656,-0.10849 -0.21302,-0.0553 -0.0721,-0.30017 -0.42443,0.0148 0.0751,-0.31302 -0.29937,0.01 -0.30607,-0.24091 -0.15179,0.17219 -0.25562,-0.0263 0.13677,-0.36265 -0.51349,-0.46355 -0.39016,0.18671 -0.15472,-0.0375 -0.009,-0.4187 -0.25562,-0.40749 -0.63681,0.28761 -0.24441,-0.0263 -0.21078,-0.32902 -0.44622,0.0634 -0.27805,-0.26175 -0.43501,0.0858 -0.51348,-0.50839 -0.30047,0.041 -0.19957,-0.0599 0.0344,-0.48162 -0.50373,-0.10043 0.068,-0.5601 -0.40283,0.0229 -0.64715,-1.1529 -0.40049,-0.0206 0.0367,-0.32325 -0.39122,-0.23046 -0.19255,0.169" inkscape:connector-curvature="0" style="stroke:#ffffff">
      <title id="title8770">King and Queen, VA</title>
    </path>
    <path id="c51119" d="m 869.45,282.43 0.33181,0.22467 0.83741,-0.0548 0.15259,0.36988 0.26693,0.0232 0.28906,0.47015 0.22129,0.69496 0.20186,0.15821 -0.58403,-0.11207 -0.0718,0.19971 0.65353,0.0728 -0.0333,0.23853 0.49812,0.26377 0.55179,0.26433 1.8921,-0.36546 0.20336,0.53644 0.70956,0.11834 0.83267,-0.16693 0.22783,0.16278 0.73833,-0.0401 -0.16604,0.48948 -0.33584,-0.13888 0.0671,0.45599 -0.3568,-0.0894 -0.5119,0.1218 -0.61058,0.12547 -0.13218,0.38767 -0.31526,-0.0146 -0.1366,0.15205 -0.70076,-0.40305 -0.22839,0.17968 -0.47029,-0.27357 -0.21001,0.0704 -0.23532,-0.0693 -0.33493,-0.0804 -0.13572,0.20734 -0.33493,-0.20214 -0.40133,-0.33494 -0.30173,0.20735 -0.4456,-0.13574 -0.31279,-0.0318 -0.90803,-0.71924 -1.1823,-1.3571 -0.28154,-0.90282 1.0627,-0.70374" inkscape:connector-curvature="0" style="stroke:#ffffff">
      <title id="title8773">Middlesex, VA</title>
    </path>
    <path id="c51073" d="m 874.99,287.2 -0.0442,0.55841 0.15502,0.65802 0.16266,0.48511 -0.21378,0.34051 0.22099,0.0213 0.66425,0.10197 0.34837,0.79755 -0.58298,-0.14478 -0.5602,-0.23117 -0.57057,-0.24305 0.0292,0.25069 0.46309,0.16892 -0.0404,0.61441 0.63454,-0.0524 0.6645,0.26873 0.12576,0.49762 -0.60871,-0.10289 -0.28991,-0.0206 0.24794,0.31784 0.20602,0.13378 0.47745,-0.0904 0.65369,0.26363 -0.16202,0.72952 -0.46382,0.22623 -0.82764,0.36663 -0.60131,0.11623 -0.42861,-0.45578 -0.31441,-0.0852 -1.0288,-0.73731 -0.10432,-0.34308 -0.39725,-0.15217 -1.1254,-0.89077 -0.0735,-0.16135 -0.50126,-0.0192 -0.48804,-0.83835 0.80779,-0.39918 0.14441,-0.314 0.0428,-0.192 0,-0.111 -0.0909,-0.217 -0.46711,-0.491 -0.0713,-0.192 -0.22213,-1.5233 0.31279,0.0318 0.4456,0.13574 0.30173,-0.20734 0.40133,0.33494 0.33493,0.20213 0.13572,-0.20734 0.33493,0.0804 0.23532,0.0693 0.43005,0.34231 0.36383,-0.006 0.42578,0.1419 0.50799,0.17654" inkscape:connector-curvature="0" style="stroke:#ffffff">
      <title id="title8776">Gloucester, VA</title>
    </path>
    <path id="c51103" d="m 870.52,281.08 1.6403,-1.089 0.47175,-0.066 0.40642,0.2327 0.42766,-0.0141 0.27832,-0.15409 0.34365,0.56462 0.409,0.35927 0.35299,-0.0421 0.23164,0.13525 0.17565,0.79798 -0.067,0.48061 0.35041,0.13002 0.69741,0.39936 0.0435,0.24379 -0.24678,0.11218 0.27638,0.25353 0.0615,0.39926 0.22882,-0.0438 0.3494,-0.28778 0.57238,0.52472 -0.085,0.21015 -0.22329,0.0953 -0.17956,-0.16133 -0.0964,-0.19332 -0.22605,0.32128 -0.62333,-0.0837 -0.13229,0.2806 -0.56248,-0.30339 -0.35047,0.0975 -0.154,-0.15945 -0.384,-0.0477 0.10157,-0.26432 0.25271,0.0117 0.0161,-0.23804 -0.24673,-0.0475 -0.14159,-0.19203 -0.12844,0.22856 -0.13502,0.39942 -0.17213,0.0245 -0.0341,-0.21869 -0.24442,-0.0478 0.005,-0.13983 0.16302,-0.18583 0.10388,-0.22526 -0.15242,-0.13326 -0.0473,-0.24498 0.26707,-0.17593 0.0634,-0.21535 0.14878,-0.18907 0.0502,-0.2285 -0.27838,0.0147 -0.12066,0.36952 -0.33095,0.0804 0.0402,0.2421 -0.11095,0.0384 -0.12408,-0.1785 -0.24895,-10e-4 -0.17666,-0.19163 -0.10437,-0.40193 -0.30152,-0.001 0.0194,0.47788 0.21651,0.0507 0.0194,0.19529 0.24279,-0.008 0.27566,0.32672 -0.0924,0.0507 0.25594,0.26758 -0.154,0.18228 0.0497,0.36628 -0.154,0.0574 0.24031,0.22827 -0.30515,0.21514 -0.65489,-0.36385 -0.31167,-0.96162 -0.44617,-0.10539 -0.29887,-0.39031 -0.0396,-0.44393 -0.20587,-0.51191 -0.34769,0.0873 -0.66879,-0.24021 0.25913,-0.36089" inkscape:connector-curvature="0" style="stroke:#ffffff">
      <title id="title8779">Lancaster, VA</title>
    </path>
    <path id="c51159" d="m 863.86,275.73 0.10032,-0.22832 0.32379,-0.40107 0.37901,0.0207 0.0293,0.27461 1.0731,0.87824 0.29996,-0.15262 0.84972,0.5331 -0.009,0.63321 0.23042,0.0692 0.43227,-0.0898 0.65316,0.18634 0.61635,-0.12659 0.52431,0.25078 0.43756,0.30323 0.91485,0.1873 0.58169,0.66325 0.0925,0.71968 0.77072,0.5293 -1.6403,1.089 -0.24067,-0.062 -0.23111,-0.0262 -0.14578,0.35611 -0.4934,-0.25363 -8.7e-4,-0.15757 -0.11682,-0.13127 -0.15191,0.26094 -0.25052,0.0369 -0.33861,-0.22249 -0.16041,-0.05 -0.12217,-0.3239 -0.18072,-0.0572 -0.10215,-0.28517 -0.12137,-0.18486 0.31229,-0.20953 -0.11551,-0.0946 -0.18633,0.0588 -0.29917,0.29896 -0.18137,-0.5184 -0.75268,-0.43233 -0.21642,0.0537 -0.18497,-0.20652 -0.27082,0.0279 -0.35738,-0.32705 0.02,-0.28136 -0.0804,-0.19616 -0.16248,-0.149 -0.16062,0.18128 -0.15349,-0.18156 -0.34669,-0.0302 -0.14719,-0.4809 -0.23912,-0.46423 -0.15777,-0.41836 -0.62202,-0.54289 z" inkscape:connector-curvature="0" style="stroke:#ffffff">
      <title id="title8782">Richmond Co., VA</title>
    </path>
    <path id="c51057" d="m 863.63,276.43 0.54029,0.90513 -0.15412,0.33982 0.26058,0.24205 -0.13129,0.37621 0.25193,0.17617 0.64259,-0.0179 -0.0934,0.39495 0.16016,0.11245 0.18999,0.062 0.52001,0.41159 0.52663,0.11117 0.004,0.21497 0.26973,0.20861 0.26605,-0.0529 0.4647,0.61802 0.27121,0.24997 0.072,0.21664 1.0077,0.94908 0.55078,0.0543 0.22452,0.26716 -0.0209,0.15657 -1.0627,0.70374 -0.3378,-0.20678 -0.62524,-0.34659 -0.12886,-0.40992 -0.82203,0.0545 -0.51316,0.50713 -0.64863,-0.22036 -0.6177,0.36736 -0.17843,-0.9032 -0.43056,0.0738 -0.35641,-0.20015 -0.21424,0.11701 -0.3236,-0.11265 -0.19237,-0.42981 -0.38922,-0.0361 -0.0344,-0.17854 0.24992,-0.18947 -0.16565,-0.61598 -0.25315,-0.35352 -0.21648,-0.0235 -0.46802,-0.31879 -0.0597,-0.64047 -0.22891,-0.42975 -0.072,-0.14531 -0.22559,-0.10986 -0.65093,0.16188 -0.14289,-0.15713 0.0428,-0.40402 -0.93781,-0.73484 0.33821,-0.66395 -0.0753,-0.45128 0.62177,-0.12046 -0.0281,-0.26224 0.0478,-0.4265 0.14307,-0.002 0.0766,0.28108 0.32151,-0.0393 0.0191,-0.24755 0.21768,0.0667 0.11612,0.74822 0.31832,0.0622 0.2578,0.28445 0.27136,0.0153 0.27066,-0.43538 0.32202,0.22124 z" inkscape:connector-curvature="0" style="stroke:#ffffff">
      <title id="title8785">Essex, VA</title>
    </path>
    <path id="c51033" d="m 855.65,273.64 0.36088,0.30866 0.2835,0.15046 0.14162,-0.23644 0.10294,0.0344 0.0642,0.34392 0.2835,-0.12037 -0.0871,-0.42345 0.33849,-0.2171 0.55774,0.0666 0.033,0.26171 -0.34098,0.11983 -0.0186,0.18432 0.21783,0.14603 -0.15618,0.58453 0.4378,0.0924 0.0251,-0.32035 0.16696,-0.0688 0.17985,0.1504 0.2964,0.16608 0.26267,0.2533 0.12024,0.12178 0.19131,0.0186 0.34748,-0.2497 0.25032,0.18885 0.19716,0.37775 0.39808,0.17408 0.028,0.2617 -0.62178,0.11991 0.0753,0.45074 -0.33822,0.6634 0.9378,0.7343 -0.0429,0.40348 0.14288,0.15699 0.65093,-0.16202 0.22559,0.10973 0.072,0.14518 0.2289,0.4292 -0.3012,0.34558 -0.3012,-0.0787 -0.62114,0.10229 -0.54795,0.32184 -0.0225,0.58271 0.20762,1.0722 -0.41447,0.11275 -0.11109,-0.25563 -0.55472,-0.0155 0.0261,0.71372 -0.94002,1.5878 -0.46538,0.71437 -0.63333,0.45242 -0.42404,-0.075 -0.0415,-0.50682 -0.43638,-0.0133 0.0942,-0.32173 -0.25129,-0.0503 -0.17726,-0.61787 0.12592,-0.20988 -0.61444,-0.61707 -0.56507,0.32071 -1.034,-0.58005 -0.26893,0.11091 -0.26403,-0.13578 -0.28872,-0.58 -0.16903,-0.0586 -0.16903,0.16346 -0.68355,-0.21599 -0.35579,-0.6262 3.6478,-6.75 0.54162,-0.31246" inkscape:connector-curvature="0" style="stroke:#ffffff">
      <title id="title8788">Caroline, VA</title>
    </path>
    <path id="c51059" d="m 852.18,255.35 1.0064,0.4202 0.64609,0.20048 0.0221,0.69265 0.4,0.31474 0.38243,-0.002 0.2418,0.0599 0.84824,-0.0808 0.63731,0.49051 -0.80566,1.2654 -0.28633,-0.0468 0.0985,0.48275 0.29584,-0.0508 0.35054,0.082 0.162,-0.14077 0.73049,0.49345 -0.36779,0.45825 0.10887,0.69657 0.96403,-0.32431 0.83191,0.14448 -0.43324,2.004 -0.52377,0.31006 -0.23019,0.63032 -0.57715,0.0254 0.87291,0.80824 -0.64743,0.0716 0.0342,0.36513 -0.54558,0.17955 -0.2842,-0.31254 0.27983,-0.28704 -0.20778,-0.24396 -0.38142,0.2287 -0.41523,-0.38773 -1.131,-0.60557 -0.27,0.23467 -0.13515,-0.004 -0.053,-0.31649 -0.62357,-0.0364 -0.0323,0.18143 -0.14063,0.12572 -0.22361,-0.18547 0.0461,-0.27884 -0.47257,-0.40331 -0.1925,0.17759 -0.19248,-0.36182 -0.006,-0.2166 -0.34809,-0.15435 -0.0358,-0.25974 -0.24325,-0.14563 -0.19138,0.15519 -0.33661,0.0826 -0.28474,0.0411 0.0161,-0.30124 -0.19286,-0.003 -0.31735,-0.60489 -0.57668,-0.003 z m 0.81811,4.8044 0.24277,0.14533 0.14346,0.2347 0.54676,-0.15328 0.014,-0.10082 0.2555,-0.0217 -0.0846,-0.66683 -0.49827,0.0764 -0.003,0.11212 -0.52734,-0.002 z" inkscape:connector-curvature="0" style="stroke:#ffffff">
      <title id="title8791">Fairfax Co., VA</title>
    </path>
    <path id="c51179" d="m 850.2,272.06 -0.48138,-0.9 -0.11022,-1.022 1.3694,-2.6331 0.55562,-0.98098 0.69128,0.10425 1.6169,1.1017 1.2738,0.16011 0.0524,1.2807 0.33698,1.1054 -0.2279,-0.0284 -0.92027,-0.68009 -0.0978,0.0675 0.65457,0.66756 1.1407,0.58103 -0.27577,0.39685 -0.93124,0.14723 0.0103,0.13486 0.67098,0.12176 -0.10386,1.0892 0.2254,0.86896 -0.54162,0.31246 -1.5244,-0.593 -0.031,-0.3344 -0.19064,-0.22966 -0.21543,-0.19153 -0.30744,0.11335 -0.35722,-0.15936 -0.38952,0.13309 -0.0627,0.36036 -0.88717,-0.70159 -0.35374,0.44608 -0.13499,-0.0695 -0.0825,-0.42034 -0.37155,-0.24846" inkscape:connector-curvature="0" style="stroke:#ffffff">
      <title id="title8794">Stafford, VA</title>
    </path>
    <path id="c51099" d="m 855.53,271.68 1.3018,0.0265 0.71999,-0.41298 0.69534,-0.19945 0.27947,-0.63244 1.0085,-0.20581 0.38035,-0.84402 0.24877,-0.18421 0.69869,0.50282 0.18165,1.0228 -0.13526,0.32668 -0.57133,-0.0295 -0.17222,0.26953 -0.002,0.26637 0.21174,-0.14609 0.36584,-0.0407 0.43925,0.22365 0.38558,0.21399 -0.14565,0.21279 -0.36489,0.10961 0.009,0.23859 -0.33721,0.10639 0.32793,1.7298 -0.12279,0.35403 -0.15909,0.21941 -0.33286,-0.0773 -0.22219,0.22087 -0.2393,0.0504 -0.1544,-0.30823 -0.23084,0.21664 -0.25276,-0.16409 -0.37172,0.24007 -0.43146,-0.12518 -0.29639,-0.1661 -0.17985,-0.1504 -0.16696,0.0688 -0.0251,0.32035 -0.4378,-0.0924 0.15618,-0.58453 -0.21783,-0.14603 0.0186,-0.18433 0.34098,-0.11983 -0.033,-0.26171 -0.55774,-0.0666 -0.33849,0.2171 0.0871,0.42345 -0.28349,0.12037 -0.0643,-0.34392 -0.10294,-0.0344 -0.14162,0.23644 -0.2835,-0.15046 -0.36088,-0.30866 -0.2254,-0.86896 0.10386,-1.0892" inkscape:connector-curvature="0" style="stroke:#ffffff">
      <title id="title8797">King George, VA</title>
    </path>
    <path id="c51193" d="m 861.56,271.84 0.74772,0.28986 0.18255,1.0887 -0.54322,0.22819 0.0363,0.10238 0.35312,-0.0817 0.35986,-0.15597 0.70044,0.10304 -0.0415,0.49443 0.14551,0.007 0.15598,-0.379 0.48742,0.34096 0.95368,-0.0361 0.96211,-0.27977 0.5267,0.59394 0.33477,0.0263 0.17332,0.38212 0.22244,0.19018 0.20791,-0.13447 -0.11732,-0.33789 -0.0482,-0.81009 0.24738,0.0155 0.99007,0.6927 -0.21192,-0.62429 0.54642,-0.0481 0.37479,0.38161 -0.2839,0.37482 1.6457,0.49198 0.10494,0.24745 0.30491,0.27767 -0.27313,0.1304 -0.31974,-0.26007 -0.14355,0.34589 0.19501,0.16236 0.005,0.22401 -0.29495,0.32583 -0.29495,0.42707 -0.46983,0.22458 -0.12007,0.73081 -0.52431,-0.25078 -0.61635,0.12659 -0.65316,-0.18634 -0.43227,0.0898 -0.23042,-0.0692 0.009,-0.63321 -0.84972,-0.5331 -0.29995,0.15262 -1.0731,-0.87824 -0.0292,-0.27461 -0.37901,-0.0207 -0.32379,0.40107 -0.10032,0.22832 -0.29908,0.31377 -0.31997,-0.0615 -0.46638,-0.0125 -0.21434,-0.14385 -0.01,-0.20567 -0.27027,-0.0345 -0.19732,0.0902 -0.004,0.10808 -0.22037,0.22134 -0.15617,-0.13263 -0.25363,-0.0282 -0.0741,-0.55815 -0.12826,-0.54544 -0.31884,-0.15136 0.12279,-0.35403 -0.32793,-1.7298 0.33721,-0.10639 -0.009,-0.23859 0.36489,-0.10961 0.14565,-0.21279" inkscape:connector-curvature="0" style="stroke:#ffffff">
      <title id="title8800">Westmoreland, VA</title>
    </path>
    <path id="c51133" d="m 870.55,275.88 1.6743,0.004 -0.43306,0.53123 0.24303,0.15166 0.57115,-0.1858 0.83805,0.32828 0.80784,0.0917 1.1644,0.35452 1.1882,0.48217 0.12362,0.5039 0.009,1.325 -0.27739,0.18083 -0.32918,-0.21215 -0.64364,-0.62965 -0.25581,0.16236 -0.4316,-0.0387 -0.60008,-0.21954 -0.43528,0.011 -0.0535,0.1363 0.53275,0.0909 0.24243,0.1725 0.76831,0.0968 0.20733,-0.0666 0.30243,0.34164 0.22056,0.65307 0.43724,0.0587 0.0471,0.21518 -0.25893,0.23523 0.23703,0.6495 -0.34394,0.17704 -0.0441,0.27273 0.37393,0.2658 0.0406,0.45569 -0.92471,-0.0739 -0.35041,-0.13002 0.067,-0.48061 -0.17564,-0.79797 -0.23165,-0.13526 -0.35299,0.0421 -0.40899,-0.35927 -0.34366,-0.56462 -0.27831,0.15409 -0.42766,0.0141 -0.40643,-0.2327 -0.47175,0.066 -0.77072,-0.5293 -0.0925,-0.71968 -0.58169,-0.66325 -0.91485,-0.1873 -0.43756,-0.30323 0.12007,-0.73081 0.46983,-0.22458 0.29495,-0.42707 0.29495,-0.32583" inkscape:connector-curvature="0" style="stroke:#ffffff">
      <title id="title8803">Northumberland, VA</title>
    </path>
    <path id="c51115" d="m 874.99,287.2 0.48966,-0.11677 0.15287,-0.20267 0.12716,-0.0905 -0.0555,-0.1924 0.64028,-0.0439 0.12017,0.31614 0.44746,0.003 0.26584,0.12782 0.0122,0.15526 -0.381,0.0301 0.0331,0.12614 0.37202,0.0145 0.29293,-0.012 -0.006,-0.40802 -0.0711,-0.57386 0.43252,0.062 0.76733,0.73256 -0.21936,0.0917 -0.38146,-0.19974 -0.28722,0.12399 0.24544,0.23505 -0.17031,0.19261 -0.31812,0.009 0.16742,0.37937 0.27585,-0.2546 0.184,0.0788 0.47063,0.0165 0.029,-0.34063 0.28821,0.25022 -0.0133,0.46256 0.35624,0.79557 -0.24896,0.37493 -0.11067,0.51747 -0.007,0.83359 0.16678,0.12849 -0.14402,0.40693 -0.24891,-0.0796 0.089,-0.24621 -0.71424,-0.52559 -0.45307,-0.27844 -0.0861,-0.83301 -0.27011,-0.16029 -0.0243,-0.36201 -0.18999,0.0874 -0.0358,0.37811 0.19219,0.12708 0.2985,0.27756 -0.10734,0.1851 -0.22555,0.0244 -0.40493,-0.1477 -0.28777,-0.12248 -0.15166,-0.29627 3.9e-4,-0.47673 -0.47396,-0.0239 0.0666,0.29542 -0.40896,0.0367 -0.11326,-0.46037 -0.007,-0.006 -0.25709,-0.20458 -0.15502,-0.65802 0.0442,-0.55841" inkscape:connector-curvature="0" style="stroke:#ffffff">
      <title id="title8806">Mathews, VA</title>
    </path>
    <path id="c51710" d="m 882.32,299.72 -0.1296,0.75227 0.24131,0.35045 0.29716,0.2991 -0.15359,0.74358 -0.64812,-0.13731 -0.46413,0.45013 -0.60322,0.1256 -0.13206,-0.31734 0.48793,-0.15022 0.0207,-0.20619 -0.32105,0.0342 -0.40243,-0.1109 -0.10292,-0.26452 -0.42213,-0.16563 0.18894,-0.23527 -0.0451,-0.35456 0.32302,-0.0879 0.37516,0.29448 0.0951,-0.20146 -0.30607,-0.20819 -0.40741,-0.10755 -0.30913,0.14165 -0.27862,-0.082 -0.21153,-1.2149 0.2076,-0.0215 0.0396,0.21332 0.41694,-0.0487 0.0565,0.21447 0.44796,-0.16893 -0.0472,-0.23451 -0.52757,0.0902 -0.0689,-0.18656 0.61064,-0.0867 0.83874,0.46432 0.49804,0.0527 0.38607,-0.0153 0.0492,0.37974" inkscape:connector-curvature="0" style="stroke:#ffffff">
      <title id="title8809">Norfolk, VA</title>
    </path>
    <path id="c51093" d="m 869.88,307.19 0.61033,-2.1172 0.5589,-2.7858 -0.984,-0.96859 -0.007,-0.81429 2.3738,-2.1174 0.15453,-1.8585 0.3971,0.591 0.0222,0.38738 -0.0643,0.54338 0.0814,0.47887 0.45199,0.24854 0.81217,-0.16386 0.41495,0.1572 -0.0231,0.35457 -0.43751,0.1755 -0.082,0.27173 0.4027,-0.17345 0.27339,-0.12173 0.44313,-0.12677 0.77629,0.59418 0.60543,0.10593 0.12142,0.38155 -0.40001,-0.002 0.20905,0.33053 -0.0172,0.25945 -0.41637,0.31 -0.0713,0.04 -5.2559,7.506 -0.23355,-0.06 -0.71699,-1.4302" inkscape:connector-curvature="0" style="stroke:#ffffff">
      <title id="title8812">Isle of Wight, VA</title>
    </path>
    <path id="c51800" d="m 878.49,300.94 -0.0917,0.4498 -0.20098,0.34052 -0.31112,1.4368 0.67046,6.1274 -0.90213,0.193 -6.8519,1.3485 -0.30011,-0.37625 0.27684,-0.61176 0.045,-1.1785 5.2559,-7.506 0.0713,-0.04 0.52037,-0.0764 0.26588,-0.23463 -0.0136,0.55094 -0.26872,0.18873 -0.2384,0.668 -0.25307,0.56499 -0.25228,0.0829 0.099,0.30229 0.26887,0.0722 -0.0971,-0.26506 0.35662,-0.17422 0.19074,-0.30356 -0.0806,-0.11792 0.11438,-0.1199 0.0229,-0.25304 0.24998,-0.0375 0.0563,-0.32278 0.52066,-0.27756 0.058,-0.3731 0.29687,-0.10477 0.52163,0.0409" inkscape:connector-curvature="0" style="stroke:#ffffff">
      <title id="title8815">Suffolk, VA</title>
    </path>
    <path id="c51550" d="m 881.93,301.73 0.71061,1.3212 1.2363,0.11395 0.71082,0.65484 0.49066,0.098 0.33611,0.32985 -0.0348,0.3762 -0.8075,0.5153 0.60264,2.7566 -3.4213,0.722 -3.1949,0.675 -0.67046,-6.1274 0.31112,-1.4368 0.52586,-0.0536 0.29383,0.36731 -0.0616,0.25912 -0.0443,0.46837 0.55668,0.58857 1.5183,-0.58071 -0.12536,-0.4722 0.6032,-0.12559 z" inkscape:connector-curvature="0" style="stroke:#ffffff">
      <title id="title8818">Chesapeake, VA</title>
    </path>
    <path id="c51810" d="m 889.09,307.06 -0.906,0.19401 -0.0581,-0.37546 0.3387,-0.12564 0.33947,-0.25978 0.0269,0.27585 z m -1.8727,-1.8343 0.32568,1.1747 0.028,0.53876 0.28798,0.38382 -0.58,0.12397 -0.23614,-0.49079 -0.69498,-0.46415 -0.0539,0.14114 0.35485,0.49183 0.21019,0.41197 -1.686,0.36179 -0.60264,-2.7566 0.8075,-0.5153 0.0348,-0.3762 -0.33611,-0.32985 -0.49066,-0.098 -0.71082,-0.65484 -1.2363,-0.11395 -0.71061,-1.3212 0.64812,0.13731 0.15359,-0.74358 -0.29716,-0.2991 -0.24131,-0.35046 0.12975,-0.75259 0.23237,0.15114 0.37788,0.52197 0.31649,-0.19212 -0.54779,-0.48595 -0.0551,-0.36347 0.43163,-0.003 0.82128,0.17187 -0.26181,0.77602 0.21412,7.9e-4 -0.0897,0.43699 0.29417,-0.16197 -0.0833,-0.69169 0.25055,-0.0158 0.24245,0.17589 0.05,0.55651 0.20999,-0.0581 0.003,-0.25599 0.15866,-0.22679 -0.24789,-0.1266 -0.0721,-0.29759 -0.47245,0.0123 -0.0657,-0.24598 0.49782,-0.17645 0.26221,-0.39804 0.45609,-0.10784 0.5347,0.15034 0.13672,0.36498 0.78635,1.8788 0.60015,1.123 0.62477,0.94994 0.73443,1.1319 0.68956,1.3525 0.23791,0.56336 0.16812,0.68258 -0.20373,0.0422 -0.16209,-0.2897 -0.0927,-0.45606 -0.19662,-0.38018 -0.10534,-0.27836 -0.49051,-0.72729 -0.27737,-0.30953 -0.0173,0.29473 -0.0827,0.27123 -0.37022,-0.35583 -0.0682,-0.47045 0.31133,-0.23362 -0.3354,-0.1859 -0.40397,0.18217 0.0412,0.58987 z" inkscape:connector-curvature="0" style="stroke:#ffffff">
      <title id="title8821">Virginia Beach, VA</title>
    </path>
    </g>
  </svg>
