<svg xmlns:dc="http://purl.org/dc/elements/1.1/" xmlns:cc="http://creativecommons.org/ns#" xmlns:rdf="http://www.w3.org/1999/02/22-rdf-syntax-ns#" xmlns:svg="http://www.w3.org/2000/svg" xmlns="http://www.w3.org/2000/svg" xmlns:sodipodi="http://sodipodi.sourceforge.net/DTD/sodipodi-0.dtd" xmlns:inkscape="http://www.inkscape.org/namespaces/inkscape" width="124.17188000000007" height="144.6030000000003" version="1.0" id="svg2" inkscape:version="0.91 r13725" sodipodi:docname="USA counties.svg">
  <defs id="defs9439"/>
  <sodipodi:namedview pagecolor="#ffffff" bordercolor="#666666" borderopacity="1" objecttolerance="10" gridtolerance="10" guidetolerance="10" inkscape:pageopacity="0" inkscape:pageshadow="2" inkscape:window-width="798" inkscape:window-height="828" id="namedview9437" showgrid="false" showguides="true" inkscape:zoom="0.64950808" inkscape:cx="494.98999" inkscape:cy="313.535" inkscape:window-x="-7" inkscape:window-y="0" inkscape:window-maximized="0" inkscape:current-layer="svg2"/>
  <metadata id="metadata4">
    <rdf:RDF>
      <cc:Work>
        <dc:format>image/svg+xml</dc:format>
        <dc:type rdf:resource="http://purl.org/dc/dcmitype/StillImage"/>
        <dc:title/>
        <cc:license rdf:resource="http://creativecommons.org/publicdomain/zero/1.0/"/>
        <dc:date>2019-10-06</dc:date>
        <dc:creator>
          <cc:Agent>
            <dc:title>U.S. Census Bureau, Abe.suleiman, Lokal_Profil</dc:title>
          </cc:Agent>
        </dc:creator>
        <dc:source>https://commons.wikimedia.org/wiki/File:Usa_counties_large.svg</dc:source>
      </cc:Work>
      <cc:License rdf:about="http://creativecommons.org/publicdomain/zero/1.0/">
        <cc:permits rdf:resource="http://creativecommons.org/ns#Reproduction"/>
        <cc:permits rdf:resource="http://creativecommons.org/ns#Distribution"/>
        <cc:permits rdf:resource="http://creativecommons.org/ns#DerivativeWorks"/>
      </cc:License>
    </rdf:RDF>
  </metadata>
  <style id="style6">
  /*
   * Below are Cascading Style Sheet (CSS) definitions in use in this file,
   * which allow easily changing how counties are displayed.
   *
   *
   * For the U.S. Census county codes (FIPS codes) used in this file to identify individual counties, see this link:
   * https://www2.census.gov/geo/docs/reference/codes/files/national_county.txt
   *
   * The county codes used in this file combine the 2-digit state code, which is in the second column of the file
   * linked above, and the 3-digit county code, which is in the third column of the file linked above. Each value
   * for the "id" attribute for each county is in the following form: "c[state_code][county-code]". For example,
   * for Loving Country in Texas, the state code is "48" and the county code is "301", so the id name for the
   * county is "c48301".
   *
   * County codes used in this file can also be found on Wikimedia Commons at this link:
   * https://commons.wikimedia.org/wiki/File_talk:Usa_counties_large.svg/county_codes
   *
   * Examples:
   *
   * To color two counties red (in this case Loving County and Dallas County in Texas) simply
   * go to the CSS insertion point and add:
   *
   * #c48301, #c48113 {fill:red}
   *
   * To color an entire state's counties (in the case New Mexico, with "35" being the state code) a green,
   * go to the CSS insertion point and add:
   *
   * path[id*='c35'] {fill:#34A853}
   *
   */
  #counties {fill:#d0d0d0;stroke:#000;stroke-width:.17829;} 
  #borders {fill:none;stroke:#221e1f;stroke-width:.89143;} 
  #separator {fill:none;stroke:#a9a9a9;stroke-width:2.3177309;}
 </style>
  <g id="counties" transform="translate(-162.00827999999998,-304.29299999999967)" style="fill:#d0d0d0;stroke:#ffffff;stroke-width:0.17828999">
    <path id="c04015" d="m 196.15,304.3 20.635,3.84 6.4451,1.143 -1.7686,3.839 -1.1963,3.022 -0.0802,0.217 -0.94849,2.972 -0.0481,0.298 0,0.369 0.21751,0.676 0.19968,0.322 -0.25673,1.5 -0.21751,0.396 -0.58656,0.69 -0.23356,0.194 -0.27278,0.09 -4.2914,1.279 -0.79516,0.169 -0.80407,0.09 -0.15155,-0.05 -1.0768,0.137 -1.9522,0.747 -2.7813,1.24 -1.2854,2.626 -2.1056,10.157 -5.0616,27.531 -0.41898,0.36 -0.15154,0.07 -0.20147,0.03 -5.3015,-0.6705 -1.5197,1.0485 -7.4007,-3.327 -0.8843,-1.545 -1.0216,-1.138 -1.1731,-1.407 -1.1874,-4.999 -0.0642,-0.925 -1.2783,-2.008 -1.0127,-2.635 -0.0161,-0.121 0.0321,-0.321 0.57765,-2.557 1.7205,-2.875 0.16758,-0.548 0.0981,-0.458 0.0232,-0.513 0.12837,-2.805 -0.025,-0.675 -0.16759,-1.348 -0.24069,-2.844 0.22464,-4.027 0.49742,-6.588 0.23356,-2.25 0.016,-0.146 0.24961,-0.225 0.18363,-0.1 2.0574,-0.483 1.1268,0 1.059,0.217 2.3391,0.69 0.2496,0.234 0.54556,0.772 0.22464,0.563 0.0321,0.176 0.009,0.05 0.0161,0.192 0.12837,0.385 0.4261,0.676 0.16046,0.168 0.23356,0.178 0.0963,0.02 0.36192,0.04 1.1161,0.02 0.016,0 0.0963,-0.06 0.2496,-0.282 2.3302,-3.148 0.77912,-4.042 0.44215,-2.316 0.73098,-4.172 0.0891,-0.462 0.72206,-3.786 0.69176,-3.584" inkscape:connector-curvature="0" style="stroke:#ffffff">
      <title id="title529">Mohave, AZ</title>
    </path>
    <path id="c04012" d="m 182.74,365.31 7.4007,3.327 1.5197,-1.0485 5.3015,0.6705 0.20147,-0.03 0.15154,-0.07 0.41898,-0.36 -1.3425,7.247 -2.603,14.126 -11.724,-2.209 0.37797,-1.977 -5.8175,-1.093 -1.9291,9.827 -1.9433,-0.328 -2.7652,-0.547 -1.6723,-0.28 -0.312,-0.138 -0.88609,-0.62 -0.40115,-1.068 -0.0143,-0.04 1.1321,-6.975 1.9273,-0.476 2.3142,-2.731 0.74881,-2.603 0.54555,-2.724 0.10519,-0.747 0.49029,-1.76 0.53843,-0.933 1.7276,-2.442 2.3694,-0.908 1.6242,-0.666 2.4104,-1.391 0.041,-0.03 0.0642,-0.997" inkscape:connector-curvature="0" style="stroke:#ffffff">
      <title id="title532">La Paz, AZ</title>
    </path>
    <path id="c04003" d="m 270.38,423.77 1.2712,0.167 -3.4962,24.959 -7.3116,-1.059 -20.05,-2.942 1.5511,-9.03 2.4354,-15.857 5.3754,0.836 14.135,2.041 6.0903,0.885" inkscape:connector-curvature="0" style="stroke:#ffffff">
      <title id="title535">Cochise, AZ</title>
    </path>
    <path id="c04023" d="m 223.59,440.01 0.353,-2.168 3.9223,0.626 0.73989,-4.644 5.9708,0.82 7.7769,1.223 -1.5511,9.03 -10.013,-1.551 -2.3213,-0.539 -4.8779,-2.797" inkscape:connector-curvature="0" style="stroke:#ffffff">
      <title id="title538">Santa Cruz, AZ</title>
    </path>
    <path id="c04019" d="m 211.65,412.76 7.7947,1.316 4.2735,0.845 7.2242,1.18 0.6347,0.09 3.013,0.307 5.9798,0.829 4.5303,0.699 -0.312,1.975 -2.4354,15.857 -7.7769,-1.223 -5.9708,-0.82 -0.73989,4.644 -3.9223,-0.626 -0.353,2.168 -0.92353,-0.528 -2.9328,-1.697 -23.199,-13.379 -4.6444,-2.642 -3.6977,-2.219 1.9451,-10.576 21.512,3.795" inkscape:connector-curvature="0" style="stroke:#ffffff">
      <title id="title541">Pima, AZ</title>
    </path>
    <path id="c04011" d="m 267.08,394.71 0.40115,-0.804 0.15333,-0.13 2.6351,-1.517 5.6749,0.77 -4.2914,30.904 -1.2712,-0.167 -1.815,-2.653 0.0392,-0.312 0.41897,-0.908 0.25674,-1.158 0,-1.045 -0.43324,-1.687 -1.0376,-2.3 -0.28882,-0.05 -2.3231,-5.811 1.8809,-13.129" inkscape:connector-curvature="0" style="stroke:#ffffff">
      <title id="title544">Greenlee, AZ</title>
    </path>
    <path id="c04009" d="m 259.33,395.57 1.141,1.068 1.9219,0.433 1.8809,-1.173 2.8116,-1.188 -1.8809,13.129 2.3231,5.811 0.28882,0.05 1.0376,2.3 0.43324,1.687 0,1.045 -0.25674,1.158 -0.41897,0.908 -0.0392,0.312 1.815,2.653 -6.0903,-0.885 -14.135,-2.041 -5.3754,-0.836 0.312,-1.975 0.041,0 0.39401,-2.532 1.2534,-8.283 0.73098,-4.709 0.19255,-2.227 0.39401,-1.688 0.19255,-0.305 0.66858,-0.346 1.3978,-0.433 0.52951,-0.07 2.8455,-0.314 3.1896,0.465 0.37797,-2.539 2.0236,0.516" inkscape:connector-curvature="0" style="stroke:#ffffff">
      <title id="title547">Graham, AZ</title>
    </path>
    <path id="c04001" d="m 286.18,319.2 -3.1735,22.867 -4.5089,32.626 -2.5459,18.337 -5.6749,-0.77 -2.6351,1.517 -0.15333,0.13 -0.40115,0.804 -2.8116,1.188 -1.8809,1.173 -1.9219,-0.433 -1.141,-1.068 0.56339,-3.803 0.69888,-0.915 1.519,-8.629 2.4265,-16.01 1.5992,-10.066 0.95562,-5.015 0.48315,-3.309 -3.1896,-0.475 4.5392,-30.601 17.253,2.452" inkscape:connector-curvature="0" style="stroke:#ffffff">
      <title id="title550">Apache, AZ</title>
    </path>
    <path id="c04017" d="m 268.92,316.75 -4.5392,30.601 3.1896,0.475 -0.48315,3.309 -0.95562,5.015 -1.5992,10.066 -2.4265,16.01 -1.519,8.629 -0.69888,0.915 -0.56339,3.803 -2.0236,-0.516 1.4388,-9.666 -14.063,-2.147 10.744,-68.671 4.6052,0.697 2.94,0.58 5.9548,0.9" inkscape:connector-curvature="0" style="stroke:#ffffff">
      <title id="title553">Navajo, AZ</title>
    </path>
    <path id="c04007" d="m 245.62,377.23 -0.94136,6.01 14.063,2.147 -1.8168,12.205 -3.1896,-0.465 -2.8455,0.314 -0.52951,0.07 -1.3978,0.433 -0.66858,0.346 -0.19255,0.305 -0.39401,1.688 -0.19255,2.227 -0.29596,0 -3.3839,0.644 -1.9772,1.365 -0.0232,0.104 0.11232,0.451 -0.0481,0.16 -1.109,1.092 -0.28882,0 -0.0571,-0.03 -2.1466,-6.547 -0.16759,-1.858 -0.42611,-1.854 -0.3851,-1.487 -1.3675,-5.167 -0.5616,0.321 -0.47425,0.4 -2.8205,-4.483 -0.24781,-4.082 -0.11411,-0.345 -0.0481,-0.08 -0.3851,-0.176 -0.55447,0.06 0.85935,-1.344 0,-1.149 -0.10519,-0.394 -0.29596,-0.577 -3.9455,-0.667 -0.12124,-0.218 0.007,-0.06 0.66145,-1.694 1.3247,-3.229 0.26565,-0.107 1.4049,-0.415 0.45998,-0.323 0.0321,-0.03 0.10341,-0.754 5.3361,1.54 4.0489,2.767 3.063,2.409 1.7757,0.458" inkscape:connector-curvature="0" style="stroke:#ffffff">
      <title id="title556">Gila, AZ</title>
    </path>
    <path id="c04021" d="m 237.32,394.58 0.3851,1.487 0.42611,1.854 0.16759,1.858 2.1466,6.547 0.0571,0.03 0.28882,0 1.109,-1.091 0.0481,-0.161 -0.11232,-0.451 0.0232,-0.103 1.9772,-1.366 3.3839,-0.644 0.29596,0 -0.73098,4.709 -1.2534,8.283 -0.39401,2.532 -0.041,0 -4.5303,-0.699 -5.9798,-0.829 -3.013,-0.307 -0.6347,-0.09 -7.2242,-1.181 -4.2735,-0.845 -7.7947,-1.315 0.68284,-3.957 2.2411,-12.872 0.17651,-0.995 0.0802,0.04 1.7044,2.106 2.0966,0.529 2.5959,0.46 4.8851,0.78 0.62044,-3.957 0.40114,-1.975 6.2115,1.047 3.9776,0.609" inkscape:connector-curvature="0" style="stroke:#ffffff">
      <title id="title559">Pinal, AZ</title>
    </path>
    <path id="c04027" d="m 193.79,389.17 -3.6567,19.799 -1.9451,10.576 -0.32092,-0.2 -25.859,-15.541 0.63649,-2.766 0.0553,-0.09 0.16759,-0.06 0.32983,0.07 0.82012,-0.756 0.77911,-1.132 2.0182,0.152 2.6672,-1.655 0.83438,-1.173 0.16937,-0.587 0.18542,-1.511 -0.57052,-1.332 -0.0553,-0.06 -0.0571,-0.07 2.7652,0.548 1.9433,0.328 1.9291,-9.827 5.8175,1.093 -0.37797,1.977 11.724,2.209" inkscape:connector-curvature="0" style="stroke:#ffffff">
      <title id="title562">Yuma, AZ</title>
    </path>
    <path id="c04013" d="m 196.39,375.04 11,1.976 8.285,4.211 0.75593,-0.458 1.141,-1.437 0.0802,-0.316 0.77911,-1.189 0.27278,0.08 7.7056,2.394 4.3324,0.724 0.55447,-0.06 0.3851,0.177 0.0481,0.08 0.11411,0.344 0.24781,4.083 2.8205,4.482 0.47425,-0.4 0.5616,-0.321 1.3675,5.167 -3.9776,-0.61 -6.2115,-1.046 -0.40114,1.975 -0.62044,3.956 -4.8851,-0.779 -2.5959,-0.46 -2.0966,-0.529 -1.7044,-2.106 -0.0802,-0.04 -0.17651,0.995 -2.2411,12.872 -0.68284,3.956 -21.512,-3.795 6.2596,-33.925" inkscape:connector-curvature="0" style="stroke:#ffffff">
      <title id="title565">Maricopa, AZ</title>
    </path>
    <path id="c04005" d="m 243.49,312.7 11.933,1.872 -9.8022,62.661 -1.7757,-0.458 -3.063,-2.409 -4.0489,-2.767 -5.3361,-1.54 0.68462,-3.771 0.61687,-3.76 -0.74702,-0.128 -3.2377,-0.571 -0.0571,-0.9 0.54734,-3.174 -4.4197,-0.627 -0.6347,-0.06 -5.2559,-0.884 0.67393,-4.001 -1.6866,-1.929 -9.0802,-5.721 -3.1646,-3.247 -1.5671,-0.845 -0.71671,-0.16 -0.28883,-0.04 -0.26565,0.02 2.1056,-10.157 1.2854,-2.626 2.7813,-1.24 1.9522,-0.747 1.0768,-0.137 0.15155,0.05 0.80407,-0.09 0.79516,-0.169 4.2914,-1.279 0.27278,-0.09 0.23356,-0.194 0.58656,-0.69 0.21751,-0.396 0.25673,-1.5 -0.19968,-0.322 -0.21751,-0.676 0,-0.369 0.0481,-0.298 0.94849,-2.972 0.0802,-0.217 1.1963,-3.022 1.7686,-3.839 20.257,3.414" inkscape:connector-curvature="0" style="stroke:#ffffff">
      <title id="title568">Coconino, AZ</title>
    </path>
    <path id="c04025" d="m 202.8,340.26 0.26565,-0.02 0.28883,0.04 0.71671,0.16 1.5671,0.845 3.1646,3.247 9.0802,5.721 1.6866,1.929 -0.67393,4.001 5.2559,0.884 0.6347,0.06 4.4197,0.627 -0.54734,3.174 0.0571,0.9 3.2377,0.571 0.74702,0.128 -0.61687,3.76 -0.68462,3.771 -0.10341,0.754 -0.0321,0.03 -0.45998,0.323 -1.4049,0.415 -0.26565,0.107 -1.3247,3.229 -0.66145,1.694 -0.007,0.06 0.12124,0.218 3.9455,0.667 0.29596,0.577 0.10519,0.394 0,1.149 -0.85935,1.344 -4.3324,-0.724 -7.7056,-2.394 -0.27278,-0.08 -0.77911,1.189 -0.0802,0.315 -1.141,1.437 -0.75593,0.459 -8.285,-4.211 -11,-1.976 1.3425,-7.247 5.0616,-27.531" inkscape:connector-curvature="0" style="stroke:#ffffff">
      <title id="title571">Yavapai, AZ</title>
    </path>
    </g>
  </svg>
