<svg xmlns:dc="http://purl.org/dc/elements/1.1/" xmlns:cc="http://creativecommons.org/ns#" xmlns:rdf="http://www.w3.org/1999/02/22-rdf-syntax-ns#" xmlns:svg="http://www.w3.org/2000/svg" xmlns="http://www.w3.org/2000/svg" xmlns:sodipodi="http://sodipodi.sourceforge.net/DTD/sodipodi-0.dtd" xmlns:inkscape="http://www.inkscape.org/namespaces/inkscape" width="186.59643000000003" height="118.31700000000001" version="1.0" id="svg2" inkscape:version="0.91 r13725" sodipodi:docname="USA counties.svg">
  <defs id="defs9439"/>
  <sodipodi:namedview pagecolor="#ffffff" bordercolor="#666666" borderopacity="1" objecttolerance="10" gridtolerance="10" guidetolerance="10" inkscape:pageopacity="0" inkscape:pageshadow="2" inkscape:window-width="798" inkscape:window-height="828" id="namedview9437" showgrid="false" showguides="true" inkscape:zoom="0.64950808" inkscape:cx="494.98999" inkscape:cy="313.535" inkscape:window-x="-7" inkscape:window-y="0" inkscape:window-maximized="0" inkscape:current-layer="svg2"/>
  <metadata id="metadata4">
    <rdf:RDF>
      <cc:Work>
        <dc:format>image/svg+xml</dc:format>
        <dc:type rdf:resource="http://purl.org/dc/dcmitype/StillImage"/>
        <dc:title/>
        <cc:license rdf:resource="http://creativecommons.org/publicdomain/zero/1.0/"/>
        <dc:date>2019-10-06</dc:date>
        <dc:creator>
          <cc:Agent>
            <dc:title>U.S. Census Bureau, Abe.suleiman, Lokal_Profil</dc:title>
          </cc:Agent>
        </dc:creator>
        <dc:source>https://commons.wikimedia.org/wiki/File:Usa_counties_large.svg</dc:source>
      </cc:Work>
      <cc:License rdf:about="http://creativecommons.org/publicdomain/zero/1.0/">
        <cc:permits rdf:resource="http://creativecommons.org/ns#Reproduction"/>
        <cc:permits rdf:resource="http://creativecommons.org/ns#Distribution"/>
        <cc:permits rdf:resource="http://creativecommons.org/ns#DerivativeWorks"/>
      </cc:License>
    </rdf:RDF>
  </metadata>
  <style id="style6">
  /*
   * Below are Cascading Style Sheet (CSS) definitions in use in this file,
   * which allow easily changing how counties are displayed.
   *
   *
   * For the U.S. Census county codes (FIPS codes) used in this file to identify individual counties, see this link:
   * https://www2.census.gov/geo/docs/reference/codes/files/national_county.txt
   *
   * The county codes used in this file combine the 2-digit state code, which is in the second column of the file
   * linked above, and the 3-digit county code, which is in the third column of the file linked above. Each value
   * for the "id" attribute for each county is in the following form: "c[state_code][county-code]". For example,
   * for Loving Country in Texas, the state code is "48" and the county code is "301", so the id name for the
   * county is "c48301".
   *
   * County codes used in this file can also be found on Wikimedia Commons at this link:
   * https://commons.wikimedia.org/wiki/File_talk:Usa_counties_large.svg/county_codes
   *
   * Examples:
   *
   * To color two counties red (in this case Loving County and Dallas County in Texas) simply
   * go to the CSS insertion point and add:
   *
   * #c48301, #c48113 {fill:red}
   *
   * To color an entire state's counties (in the case New Mexico, with "35" being the state code) a green,
   * go to the CSS insertion point and add:
   *
   * path[id*='c35'] {fill:#34A853}
   *
   */
  #counties {fill:#d0d0d0;stroke:#000;stroke-width:.17829;} 
  #borders {fill:none;stroke:#221e1f;stroke-width:.89143;} 
  #separator {fill:none;stroke:#a9a9a9;stroke-width:2.3177309;}
 </style>
  <g id="counties" transform="translate(-213.50357,-26.588)" style="fill:#d0d0d0;stroke:#ffffff;stroke-width:0.17828999">
    <path id="c30091" d="m 400.1,53.675 -0.69176,8.292 -0.45819,5.545 -8.9518,-0.779 0.18541,-1.977 -2.1121,-0.27454 0.29532,-1.8795 -3.3108,-0.312 0.18542,-1.961 -1.0038,-0.105 0.27278,-5.923 0.19434,-2 15.395,1.374" inkscape:connector-curvature="0" style="stroke:#ffffff">
      <title id="title4810">Sheridan, MT</title>
    </path>
    <path id="c30085" d="m 385.05,62.29 3.3108,0.312 -0.29532,1.8795 2.1121,0.27454 -0.18541,1.977 8.9518,0.779 -0.71493,8.936 -2.9489,-1.022 -3.038,-1.767 -6.5075,-1.638 -0.90926,0.369 -0.41006,0.546 -0.49742,0.378 -0.32983,0.167 -1.8881,0 -1.15,-0.224 -0.87539,-0.635 -1.3175,-0.257 -1.15,-0.05 -2.8116,-0.04 -0.76307,0.03 -0.83616,0.458 -2.4104,0.738 0.4992,-4.731 0.60083,0.06 0.80407,-7.795 12.76,1.262" inkscape:connector-curvature="0" style="stroke:#ffffff">
      <title id="title4813">Roosevelt, MT</title>
    </path>
    <path id="c30031" d="m 283.34,103.94 4.3948,0.708 -0.2817,1.125 -0.53842,3.214 -0.11946,1.19 -0.25851,1.656 -0.33518,2.016 -0.7809,4.6656 -1.1117,-0.0991 -0.0382,0.61656 -0.17333,0.88713 -0.98847,-0.11843 -0.49984,3.5943 -1.9291,-0.305 -0.77198,3.945 -0.2817,1.719 -0.312,2.266 -1.2322,7.2638 -0.76106,4.7192 -1.3086,-1.214 -0.18542,-0.548 -0.71493,-2.064 -1.3193,-2.587 -0.77198,-0.763 0.60439,-3.632 1.6955,-9.957 0.46533,-0.642 0.95562,-5.907 -2.9489,-0.49 -1.0911,-1.519 -0.62757,-1.118 -0.74703,-0.802 -0.58656,-0.433 -0.62757,-0.371 2.4425,-0.417 3.432,-2.179 0.93957,-0.859 0.21573,-1.519 0.56338,-0.924 1.0697,-1.366 0.70602,-0.256 2.3142,0.247 1.544,0.257" inkscape:connector-curvature="0" style="stroke:#ffffff">
      <title id="title4816">Gallatin, MT</title>
    </path>
    <path id="c30057" d="m 263.82,111.04 0.0892,0.03 0.31378,-0.02 0.5206,-0.387 0.46711,-0.866 0.0874,-0.442 0.18542,-0.17 0.39401,-0.135 1.0358,-0.07 1.3746,0.346 1.7757,1.246 0.0731,0.119 -0.025,0.25 0.62757,0.371 0.58656,0.433 0.74703,0.802 0.62757,1.118 1.0911,1.519 2.9489,0.49 -0.95562,5.907 -0.46533,0.642 -1.6955,9.957 -0.60439,3.632 -1.831,0.69 -4.8458,-0.795 0.27456,-1.639 -1.9451,-0.321 -2.619,-0.515 0.0516,-0.94913 -1.5154,-0.30387 -0.0392,-2.017 0.33696,-1.986 -2.2981,-0.401 0.10273,-1.9491 -1.7251,-0.38987 1.0287,-5.921 0.0624,-1.022 -0.4582,-1.221 -0.48851,-0.144 -0.43502,0.1 -0.26386,0.144 -0.29774,-0.04 -0.47425,-0.346 -0.80407,-1.037 -0.0392,-0.12 0.007,-1.164 0.64183,-2.027 1.5529,-0.594 0.7702,-0.337 0.39402,-0.289 0.19255,-0.185 1.1339,-0.619 4.3306,0.619" inkscape:connector-curvature="0" style="stroke:#ffffff">
      <title id="title4819">Madison, MT</title>
    </path>
    <path id="c30007" d="m 273.31,93.556 2.3784,0.09 0.59369,-3.522 0.62044,-0.754 0.0874,-0.05 0.26565,-0.05 1.3264,0.667 0.72784,2.5544 1.3589,1.1344 -0.59535,2.1111 1.2585,1.0856 0.27239,1.7561 1.5216,-0.32933 1.4032,1.5639 -1.9888,2.2739 0.65383,0.77507 0.14463,1.0719 -1.544,-0.256 -2.3142,-0.248 -0.70602,0.256 -1.0697,1.366 -0.56338,0.924 -0.21573,1.519 -0.93957,0.859 -3.432,2.179 0.80408,-4.894 -1.9612,-0.337 1.913,-11.748" inkscape:connector-curvature="0" style="stroke:#ffffff">
      <title id="title4822">Broadwater, MT</title>
    </path>
    <path id="c30043" d="m 264.54,95.5 0.6044,0.233 0.59369,-0.137 1.0376,-0.514 0.0392,-0.06 -0.0481,-0.369 2.521,-0.33744 0.24241,-1.4056 3.785,0.643 -1.913,11.748 1.9612,0.337 -0.80408,4.894 -2.4425,0.417 0.025,-0.25 -0.0731,-0.119 -1.7757,-1.247 -1.3746,-0.345 -1.0358,0.07 -0.39401,0.135 -0.18542,0.169 -0.0874,0.443 -0.46711,0.866 -0.5206,0.387 -0.31378,0.02 -0.0892,-0.03 -2.7242,-2.257 -0.45642,-1.047 0.15155,-4.796 0.007,-0.442 -0.83439,-2.064 -0.5723,-0.193 0.63649,-1.915 0.009,-0.577 0.0624,-0.346 0.58657,-0.489 2.4675,-0.772 1.3817,-0.643" inkscape:connector-curvature="0" style="stroke:#ffffff">
      <title id="title4825">Jefferson, MT</title>
    </path>
    <path id="c30093" d="m 259.39,100.24 0.5723,0.193 0.83439,2.064 -0.007,0.442 -0.15155,4.796 0.45642,1.047 2.7242,2.257 -4.3306,-0.619 -1.1339,0.619 -0.19255,0.185 -0.39402,0.289 -0.7702,0.337 -1.5529,0.594 -0.67392,-2.257 -0.54734,-1.086 -0.56161,-0.546 -2.5638,-1.333 -1.0198,-1.23 1.0358,-0.104 0.7078,-0.346 0.93244,-0.586 0.18542,-0.177 -0.0297,-1.267 0.82482,0.086 0.79516,-1.181 1.2615,0.14801 0.26462,-1.917 1.9522,-0.02 1.3817,-0.392" inkscape:connector-curvature="0" style="stroke:#ffffff">
      <title id="title4828">Silver Bow, MT</title>
    </path>
    <path id="c30023" d="m 260.03,98.327 -0.63649,1.915 -1.3817,0.392 -1.9522,0.02 -0.26462,1.917 -1.2615,-0.14801 -0.79516,1.181 -0.82482,-0.086 0.0297,1.267 -0.18542,0.177 -0.93244,0.586 -0.7078,0.346 -1.0358,0.104 0.0161,-0.266 -0.15154,-0.239 -0.11233,-0.05 -1.1179,-0.275 -0.60261,0.131 -2.2589,1.083 -0.27278,0.33 -0.64383,0.7117 -0.51325,-1.3777 -0.10519,-1.215 -0.40115,-1.72 -0.0802,-0.143 -0.0642,0 -0.1765,0.02 -0.0161,-0.03 1.3657,-0.707 1.3657,-0.352 1.3071,-0.66603 0.4526,-2.019 0.36192,-1.961 3.8974,0.699 0.1765,-0.979 7.5219,1.364" inkscape:connector-curvature="0" style="stroke:#ffffff">
      <title id="title4831">Deer Lodge, MT</title>
    </path>
    <path id="c30001" d="m 243.6,102.98 0.1765,-0.02 0.0642,0 0.0802,0.143 0.40115,1.72 0.10519,1.215 0.51325,1.3777 0.64383,-0.7117 0.27278,-0.329 2.2589,-1.084 0.60261,-0.131 1.1179,0.275 0.11233,0.05 0.15154,0.239 -0.0161,0.266 1.0198,1.23 2.5638,1.333 0.56161,0.546 0.54734,1.086 0.67392,2.257 -0.64183,2.027 -0.007,1.164 0.0392,0.12 0.80407,1.037 0.47425,0.346 0.29774,0.04 0.26386,-0.144 0.43502,-0.1 0.48851,0.144 0.4582,1.221 -0.0624,1.022 -1.0287,5.921 1.7252,0.38597 -0.10275,1.953 2.2981,0.401 -0.33696,1.986 0.0392,2.017 1.5154,0.30003 -0.0517,0.95297 2.619,0.515 1.9451,0.321 -0.27456,1.639 4.8458,0.795 -2.7795,3.191 -2.0895,-0.06 -3.2395,-0.923 -4.475,-0.459 -2.4425,0.917 -5.7462,-1.43 -1.084,0.257 -0.6347,0.674 -0.23356,0.362 -0.19255,0.859 -0.009,0.06 -0.16046,0.25 -0.32983,0.183 -0.41719,-0.151 -1.3086,-1.464 -0.44393,-0.642 -0.19077,-1.086 0.0232,-2.868 0.0642,-0.05 0.0963,-0.177 0,-0.176 -0.46712,-2.001 -0.35122,-1.102 -0.30666,-0.474 -0.68283,-0.763 -0.57052,-0.449 -0.54734,0.135 -2.6672,-3.712 -2.5156,-9.353 -0.0232,-1.8 0.041,-1.366 0.2086,-0.378 0.0143,-0.683 -0.18364,-1.824 -0.0891,-0.288 -1.5582,-2.202 -0.32983,-0.346 0.32983,0.02 0.5313,-0.09 5.0865,-2.25 1.0038,-0.53 0.57052,-0.403 0.50634,-0.948" inkscape:connector-curvature="0" style="stroke:#ffffff">
      <title id="title4834">Beaverhead, MT</title>
    </path>
    <path id="c30081" d="m 241.77,85.778 -0.8843,2.899 0.24068,3.713 0.0553,2.266 -0.81834,2.09 0.0963,3.068 1.166,2.179 0.97166,0.804 0.98058,0.151 0.0161,0.03 -0.50634,0.948 -0.57052,0.403 -1.0038,0.53 -5.0865,2.249 -0.5313,0.09 -0.32983,-0.02 -1.4138,0.811 -1.9843,1.736 -3.1503,1.446 -0.65966,-0.103 -0.14441,-0.562 -1.1803,-1.865 -0.20147,-0.09 -0.6347,-0.16 -0.7078,-0.1 -0.0481,-0.06 0.0161,-0.08 0.28169,-1.558 0.56161,-3.077 4.4839,-11.186 1.4067,-3.125 0.93957,-2.163 0.55626,-1.574 0.0963,-0.507 -0.0571,-0.265 -0.0874,-0.09 8.1317,1.174" inkscape:connector-curvature="0" style="stroke:#ffffff">
      <title id="title4837">Ravalli, MT</title>
    </path>
    <path id="c30039" d="m 250.68,83.455 1.447,1.3931 0.5213,1.3219 0.4582,0.492 0.89856,-0.226 0.24247,-0.113 0.16046,0.05 -1.0127,5.779 -0.8843,4.813 -0.1765,0.979 -3.8974,-0.699 -0.36192,1.961 -0.4526,2.019 -1.3071,0.66603 -1.3657,0.352 -1.3657,0.707 -0.98058,-0.151 -0.97166,-0.804 -1.166,-2.179 -0.0963,-3.068 0.81834,-2.09 -0.0553,-2.266 -0.24068,-3.713 0.8843,-2.899 0.52238,0.16 1.9683,0.369 0.29319,-1.0896 1.7886,0.33457 0.43562,-0.76914 0.79165,0.01414 0.21929,-1.189 1.0209,0.15464 0.0952,-0.62864 1.7686,0.321" inkscape:connector-curvature="0" style="stroke:#ffffff">
      <title id="title4840">Granite, MT</title>
    </path>
    <path id="c30049" d="m 260.19,59.131 0.21751,4.363 -0.15333,1.679 0.0642,0.218 0.52238,1.182 0.50634,0.795 0.5616,0.314 0.12124,0.02 1.815,-0.241 1.7686,-0.369 0.0802,0.02 1.7526,1.446 0.12836,0.474 -0.0802,0.112 -0.016,0.514 0.0232,0.05 1.7365,1.237 1.0358,0.385 1.6171,0.225 0.99484,-0.05 -1.2052,7.295 1.4548,1.432 0.5937,0.506 0.33875,0.04 0.0553,-0.08 1.2854,0.209 -0.82012,4.855 2.0592,0.353 0.48405,0.956 -0.62035,0.956 1.9434,1.1927 0.12906,0.71934 -1.3264,-0.667 -0.26565,0.05 -0.0874,0.05 -0.62044,0.754 -0.59369,3.521 -2.3784,-0.09 -3.785,-0.643 -0.24241,1.4056 -2.521,0.33744 0.0481,0.369 -0.0392,0.06 -1.0376,0.514 -0.59369,0.137 -0.6044,-0.233 0.2086,-0.651 0.66679,-3.263 -0.19968,-1.437 -1.2862,-0.10855 0.13799,-1.1055 -1.954,-0.314 0.54021,-3.061 -2.0753,-0.353 -0.17651,0.02 -1.8167,-0.33 1.3264,-7.48 0.0481,-0.305 -3.9205,-0.699 -0.13728,-0.08 1.2462,-6.911 -0.28169,0 -0.43324,-1.784 -0.15332,-0.924 0.18541,-2.853 0.0392,-0.176 1.8863,-0.36737 0.31551,-2.8476 0.82725,-0.875 0.65967,-0.467" inkscape:connector-curvature="0" style="stroke:#ffffff">
      <title id="title4843">Lewis and Clark, MT</title>
    </path>
    <path id="c30077" d="m 251.33,65.72 4.9421,0.997 0.15332,0.924 0.43324,1.784 0.28169,0 -1.2462,6.911 0.13728,0.08 3.9205,0.699 -0.0481,0.305 -1.3264,7.48 1.8167,0.33 0.17651,-0.02 2.0753,0.353 -0.54021,3.061 1.954,0.314 -0.13799,1.1055 1.2862,0.10855 0.19968,1.437 -0.66679,3.263 -0.2086,0.651 -1.3817,0.643 -2.4675,0.772 -0.58657,0.489 -0.0624,0.346 -0.009,0.577 -7.5219,-1.364 0.8843,-4.813 1.0127,-5.779 -0.16046,-0.05 -0.24247,0.113 -0.89856,0.226 -0.4582,-0.492 -0.5213,-1.3219 -1.447,-1.3931 1.437,-7.818 -2.5317,-0.451 1.7526,-9.466" inkscape:connector-curvature="0" style="stroke:#ffffff">
      <title id="title4846">Powell, MT</title>
    </path>
    <path id="c30047" d="m 248.75,65.246 -4.8387,-0.932 0.51347,7.682 0.0321,0.137 -0.37797,1.953 -1.9184,0.65 -3.9312,-0.756 0.20146,-0.98 0.50633,-3.953 -1.3175,-0.257 -0.37796,-0.169 -0.12837,-0.144 -0.33696,-0.628 0.39401,-1.1 0.36192,-0.57 0.0802,-0.02 0.12837,0.07 0.37618,-0.555 0.0571,-2.307 -0.0874,-0.128 -0.33875,-0.152 -0.96453,-0.185 -2.619,-0.515 0.31379,-3.302 0.19968,-0.972 1.9451,0.385 0.37797,-1.913 -0.0232,-0.683 0.18364,-1.301 6.9264,1.333 0.0891,-0.616 -0.0321,-0.17 -0.0731,-0.1 -0.11054,-0.02 -0.025,-0.537 0.29596,-0.274 0.40293,-0.257 2.168,0.433 2.628,4.122 0.0321,0.122 0.25851,3.961 -0.016,0.563 -0.0731,0.353 -0.88252,1.728" inkscape:connector-curvature="0" style="stroke:#ffffff">
      <title id="title4849">Lake, MT</title>
    </path>
    <path id="c30063" d="m 248.75,65.246 2.578,0.474 -1.7526,9.466 2.5317,0.451 -1.437,7.818 -1.7686,-0.321 -0.0952,0.62864 -1.0209,-0.15464 -0.21929,1.189 -0.79165,-0.01414 -0.43561,0.76914 -1.7886,-0.33457 -0.2932,1.0896 -1.9683,-0.369 -0.52238,-0.16 -8.1317,-1.173 -0.0731,-0.07 -0.28169,-0.233 -0.82725,-0.112 -0.41006,0.08 -0.24961,0.1 -0.36192,0.1 -1.7116,-0.36 -0.0321,-0.03 -0.86826,-2.177 0.12123,-0.627 1.9393,0.18896 0.22334,-2.229 1.6795,-3.312 0.22306,-1.293 -0.94691,-0.201 -0.38689,-1.2272 -1.0109,-1.0713 0.12009,-1.4612 -1.5179,-0.83726 0.11945,-0.634 1.7365,0.208 0.87539,0.378 1.125,0.626 1.831,1.358 0.50812,0.516 0.28882,0.795 0.81121,0.82 0.23355,0.16 0.32983,0.122 1.1072,-0.195 3.9312,0.756 1.9184,-0.65 0.37797,-1.953 -0.0321,-0.137 -0.51347,-7.682 4.8387,0.932" inkscape:connector-curvature="0" style="stroke:#ffffff">
      <title id="title4852">Missoula, MT</title>
    </path>
    <path id="c30061" d="m 216.15,60.393 0.55447,0.965 0.35301,0.408 0.75594,0.258 0.62757,0.209 2.0877,0.362 0.5313,-0.137 0.12836,0.02 1.7187,0.314 0.48316,0.24 3.0844,2.17 0.67571,0.587 0.0642,0.515 -0.27991,1.373 1.7597,1.383 0.68997,0.136 -0.11945,0.634 1.5179,0.83726 -0.12009,1.4612 1.0109,1.0713 0.38689,1.2272 0.94691,0.201 -0.22306,1.293 -1.6795,3.312 -0.22334,2.229 -1.9393,-0.18896 -0.12123,0.627 -0.68997,0 -0.10341,-0.03 -0.22464,-0.06 -2.316,-3.093 -0.0713,-0.195 0,-0.01 -0.30666,-2.323 -0.40114,-0.74 -0.73989,-1.382 -1.3086,-3.054 -1.3978,-3.148 -0.26565,-0.194 -1.2213,-0.489 -0.8433,-0.41 -0.26565,-0.234 -0.33696,-0.288 -2.4604,-3.4 -0.0161,-0.569 0,-0.02 0.29774,-1.849" inkscape:connector-curvature="0" style="stroke:#ffffff">
      <title id="title4855">Mineral, MT</title>
    </path>
    <path id="c30089" d="m 214.62,44.073 1.6153,1.084 0.89144,-0.266 1.7757,-0.779 1.2551,2.564 0.87539,4.685 0.83617,1.157 0.16046,0.129 2.7955,1.133 1.5671,-0.354 0.75415,-0.876 0.16225,-1.23 2.1858,0.451 0.26387,0.392 -0.5937,2.91 1.9612,0.394 1.3175,0.225 2.619,0.499 -0.37797,1.92 -0.19968,0.972 -0.31379,3.302 2.619,0.515 0.96453,0.185 0.33875,0.152 0.0874,0.128 -0.0571,2.307 -0.37618,0.555 -0.12837,-0.07 -0.0802,0.02 -0.36192,0.57 -0.39401,1.1 0.33696,0.628 0.12837,0.144 0.37796,0.17 1.3175,0.256 -0.50633,3.953 -0.20146,0.98 -1.1072,0.195 -0.32983,-0.121 -0.23355,-0.161 -0.81121,-0.82 -0.28882,-0.795 -0.50812,-0.515 -1.831,-1.359 -1.125,-0.626 -0.87539,-0.378 -1.7365,-0.208 -0.68997,-0.136 -1.7597,-1.383 0.27991,-1.373 -0.0642,-0.515 -0.67571,-0.587 -3.0844,-2.17 -0.48316,-0.24 -1.7187,-0.314 -0.12836,-0.02 -0.5313,0.137 -2.0877,-0.362 -0.62757,-0.209 -0.75594,-0.258 -0.35301,-0.408 -0.55447,-0.965 0.44215,-1.005 0.52238,-1.325 0.007,-1.287 0,-0.09 -0.007,-0.03 -0.025,-0.06 -0.0232,-0.08 -3.0933,-6.301 -0.47425,-0.843 1.1161,-5.311" inkscape:connector-curvature="0" style="stroke:#ffffff">
      <title id="title4858">Sanders, MT</title>
    </path>
    <path id="c30053" d="m 215.99,37.685 2.3712,-11.097 11.965,2.546 6.6358,1.327 1.2213,0.24 -0.0232,3.167 0.66679,2.66 0,0.06 -0.81833,1.993 -3.7708,-0.749 -0.0553,1.304 0.25673,0.715 -1.5261,7.753 -2.266,-0.458 -0.35301,-0.06 -0.40293,1.936 -0.40115,2.749 -2.1858,-0.451 -0.16225,1.23 -0.75415,0.876 -1.5671,0.354 -2.7955,-1.133 -0.16046,-0.129 -0.83617,-1.157 -0.87539,-4.685 -1.2551,-2.564 -1.7757,0.779 -0.89144,0.266 -1.6153,-1.084 1.3746,-6.388" inkscape:connector-curvature="0" style="stroke:#ffffff">
      <title id="title4861">Lincoln, MT</title>
    </path>
    <path id="c30029" d="m 248.1,32.67 0.27991,3.929 0.63648,0.449 3.1266,-0.06613 0.15031,2.4141 -0.61773,3.3289 3.5987,1.7581 -0.0802,0.36 -0.10341,0.242 -0.37797,1.309 1.3222,1.3 0.86744,0.34921 0.20604,0.8866 -1.4061,0.34921 0.37618,0.845 1.3354,2.385 -0.14441,0.949 0.0392,0.128 1.4067,0.965 0.0963,0.06 0.11232,0.04 1.3496,0.417 0.15333,-0.03 1.1647,2.7477 0.21031,1.7046 -1.6085,-0.36231 -0.65967,0.467 -0.82725,0.875 -0.31551,2.8476 -1.8863,0.36737 -0.0392,0.176 -0.18541,2.853 -4.9421,-0.997 -2.578,-0.474 0.88252,-1.727 0.0731,-0.353 0.016,-0.564 -0.25851,-3.961 -0.0321,-0.122 -2.628,-4.122 -2.168,-0.433 -0.40293,0.257 -0.29596,0.274 0.025,0.537 0.11054,0.02 0.0731,0.1 0.0321,0.17 -0.0891,0.616 -6.9264,-1.333 -0.18364,1.301 0.0232,0.683 -0.37797,1.913 -1.9451,-0.385 0.37797,-1.92 -2.619,-0.499 -1.3175,-0.225 -1.9612,-0.394 0.5937,-2.91 -0.26387,-0.392 0.40115,-2.749 0.40293,-1.936 0.35301,0.06 2.266,0.458 1.5261,-7.753 -0.25673,-0.715 0.0553,-1.304 3.7708,0.749 0.81833,-1.993 0,-0.06 -0.66679,-2.66 0.0232,-3.167 9.9092,1.969" inkscape:connector-curvature="0" style="stroke:#ffffff">
      <title id="title4864">Flathead, MT</title>
    </path>
    <path id="c30035" d="m 274.48,49.537 -0.41719,-0.169 -0.57052,-0.145 -4.9582,-0.859 -0.68463,3.824 -0.0642,0.06 -11.715,-2.12 -0.37618,-0.845 1.4061,-0.34921 -0.20604,-0.8866 -0.86744,-0.34921 -1.3222,-1.3 0.37797,-1.309 0.10341,-0.242 0.0802,-0.36 -3.5987,-1.7581 0.61773,-3.3289 -0.15031,-2.4141 -3.1266,0.06613 -0.63648,-0.449 -0.27991,-3.929 1.478,0.288 4.1701,0.829 8.6861,1.591 1.6082,0.281 12.318,2.186 -1.872,11.692" inkscape:connector-curvature="0" style="stroke:#ffffff">
      <title id="title4867">Glacier, MT</title>
    </path>
    <path id="c30051" d="m 290.3,40.184 7.9784,1.261 -0.41006,1.872 -1.2052,7.811 -0.5937,3.221 -0.71493,4.566 -1.0929,-0.169 -0.30487,1.943 -8.9286,-1.405 0.3227,-1.961 2.0556,0.33 1.2534,-7.802 1.3425,-7.788 0.29774,-1.879" inkscape:connector-curvature="0" style="stroke:#ffffff">
      <title id="title4870">Liberty, MT</title>
    </path>
    <path id="c30101" d="m 274.48,49.537 1.872,-11.692 5.1275,0.876 1.3906,0.24 3.8314,0.635 3.5925,0.588 -0.29774,1.879 -1.3425,7.788 -1.2534,7.802 -2.0556,-0.33 -3.9455,-0.651 0.49743,-2.924 -1.9281,-0.19714 0.0561,-0.77586 -1.4388,-0.587 -1.478,-0.281 0.19345,-0.84631 -2.7002,-1.2597 -0.12123,-0.264" inkscape:connector-curvature="0" style="stroke:#ffffff">
      <title id="title4873">Toole, MT</title>
    </path>
    <path id="c30073" d="m 256.07,50.124 11.715,2.12 0.0642,-0.06 0.68463,-3.824 4.9582,0.859 0.57052,0.145 0.41719,0.169 0.12123,0.264 2.7002,1.2597 -0.19345,0.84631 1.478,0.281 1.4388,0.587 -0.0561,0.77586 1.9281,0.19714 -0.49743,2.924 3.9455,0.651 -0.3227,1.961 -0.52238,3.263 -8.8466,-1.416 0.16045,-0.923 -0.56005,-0.13852 0.14269,-0.96528 -2.3376,-0.59324 0.18403,-1.172 -12.824,-2.298 -0.15333,0.03 -1.3496,-0.417 -0.11232,-0.04 -0.0963,-0.06 -1.4067,-0.965 -0.0392,-0.128 0.14441,-0.949 -1.3354,-2.385" inkscape:connector-curvature="0" style="stroke:#ffffff">
      <title id="title4876">Pondera, MT</title>
    </path>
    <path id="c30099" d="m 260.42,55.041 12.824,2.298 -0.18403,1.172 2.3376,0.59324 -0.14268,0.96528 0.56004,0.13852 -0.16045,0.923 8.8466,1.416 -1.0769,6.509 -3.9776,-0.652 -0.32092,1.954 -3.9526,-0.669 -0.7078,2.323 -1.5832,-0.506 -0.99484,0.05 -1.6171,-0.225 -1.0358,-0.385 -1.7365,-1.237 -0.0232,-0.05 0.016,-0.514 0.0802,-0.112 -0.12836,-0.474 -1.7526,-1.446 -0.0802,-0.02 -1.7686,0.369 -1.815,0.241 -0.12124,-0.02 -0.5616,-0.314 -0.50634,-0.795 -0.52238,-1.182 -0.0642,-0.218 0.15333,-1.679 -0.21751,-4.363 1.6085,0.36231 -0.21031,-1.7046 -1.1647,-2.7477" inkscape:connector-curvature="0" style="stroke:#ffffff">
      <title id="title4879">Teton, MT</title>
    </path>
    <path id="c30013" d="m 272.88,71.506 1.5832,0.506 0.7078,-2.323 3.9526,0.669 0.32092,-1.954 3.9776,0.652 6.6786,1.059 -0.52951,0.667 -0.32983,0.33 -0.53843,0.811 -0.0963,0.275 0.0713,0.183 1.6125,1.6209 2.3152,1.0619 -0.19973,1.2631 1.9041,0.98 -0.19255,1.295 -1.9843,-0.314 -0.51346,1.116 -0.20147,1.303 -0.29774,3.52 1.9772,0.313 -0.4582,3.905 -0.30487,1.961 -0.30665,0.266 -1.7367,-0.61129 0.23548,-1.0057 -2.0093,-2.562 -0.16045,-0.138 -2.5398,-0.70573 0.37897,-1.0213 -1.5091,-0.41721 -0.32584,1.2394 -5.5426,-0.99218 -0.32983,1.961 -1.847,-0.304 -2.0592,-0.353 0.82012,-4.855 -1.2854,-0.209 -0.0553,0.08 -0.33875,-0.04 -0.5937,-0.506 -1.4548,-1.432 1.2052,-7.295" inkscape:connector-curvature="0" style="stroke:#ffffff">
      <title id="title4882">Cascade, MT</title>
    </path>
    <path id="c30059" d="m 276.65,86.115 1.847,0.304 0.32983,-1.961 5.5426,0.99218 0.32583,-1.2394 1.5091,0.41721 -0.37897,1.0213 2.5398,0.70573 0.16045,0.138 2.0093,2.562 -0.23548,1.0057 1.7367,0.61129 -0.0232,0.513 0.0642,0.257 0.12837,0.273 0.16046,0.217 2.3391,2.452 1.4299,0.02 1.4548,-0.266 -0.65967,4.34 -0.65788,3.487 -0.4992,3.264 -0.11945,0.819 -7.9159,-1.407 -4.3948,-0.708 -0.14463,-1.0719 -0.65383,-0.77507 1.9888,-2.2739 -1.4032,-1.5639 -1.5216,0.32933 -0.27239,-1.7561 -1.2585,-1.0856 0.59535,-2.1111 -1.3589,-1.1344 -0.72784,-2.5544 -0.12906,-0.71934 -1.9434,-1.1927 0.62035,-0.956 -0.48405,-0.956" inkscape:connector-curvature="0" style="stroke:#ffffff">
      <title id="title4885">Meagher, MT</title>
    </path>
    <path id="c30067" d="m 287.73,104.64 7.9159,1.407 -0.34588,1.125 -1.1981,7.914 1.141,0.169 -0.57765,4.154 -0.79516,5.169 -0.25852,0.569 -0.59369,4.002 2.644,0.417 4.2504,0.731 -0.55448,3.762 -3.6638,-0.57 -1.3514,-0.211 -1.815,-0.09 -5.3433,-0.724 -0.041,0 -2.4194,-0.378 -0.70602,-0.242 -2.0004,-0.409 -2.7082,-0.419 0.312,-2.266 0.2817,-1.718 0.77198,-3.946 1.9291,0.305 0.49984,-3.5943 0.98847,0.11843 0.17333,-0.88713 0.0382,-0.61656 1.1117,0.0991 0.7809,-4.6656 0.33518,-2.016 0.25851,-1.656 0.11946,-1.189 0.53842,-3.215 0.2817,-1.125" inkscape:connector-curvature="0" style="stroke:#ffffff">
      <title id="title4888">Park, MT</title>
    </path>
    <path id="c30041" d="m 298.28,41.445 19.005,2.797 -0.58656,2.947 -0.37797,2.027 -0.6668,4.732 -1.0929,6.147 -0.74702,3.536 -0.98949,-0.09 -1.9843,-0.28 0.29774,-2.002 -1.7724,-0.19848 0.23019,-1.9785 -11.942,-1.808 -0.30487,1.952 -1.9932,-0.312 0.71493,-4.566 0.5937,-3.221 1.2052,-7.811 0.41006,-1.872" inkscape:connector-curvature="0" style="stroke:#ffffff">
      <title id="title4891">Hill, MT</title>
    </path>
    <path id="c30015" d="m 295.35,58.915 1.9932,0.312 0.30487,-1.952 11.942,1.808 -0.23019,1.9785 1.7724,0.19848 -0.29774,2.002 1.9843,0.28 0.98949,0.09 -1.3496,8.936 -0.62757,-0.289 -1.544,0.08 -1.7668,0.337 -0.90035,0.754 0.009,0.524 -0.53842,2.241 -0.0481,0.105 -0.41719,0.314 -4.9029,1.79 -0.78803,-0.11 -6.6216,-1.006 -1.9041,-0.98 0.19973,-1.2631 -2.3152,-1.0619 -1.6125,-1.6209 -0.0713,-0.184 0.0963,-0.274 0.53843,-0.811 0.32983,-0.33 0.52951,-0.667 -6.6786,-1.059 1.0769,-6.509 0.52238,-3.263 8.9286,1.405 0.30487,-1.943 1.0929,0.169" inkscape:connector-curvature="0" style="stroke:#ffffff">
      <title id="title4894">Chouteau, MT</title>
    </path>
    <path id="c30045" d="m 294.31,77.307 6.6216,1.006 -0.19968,1.299 1.284,0.64061 -0.13589,0.79839 -0.13764,1.0732 1.9134,0.59984 0.0259,0.82176 1.8797,0.34844 -0.0799,0.6225 1.7739,0.18863 -0.93066,6.4387 -0.28583,0.71882 -0.43463,0.19803 -0.12628,0.94426 -0.87027,0.05147 1.3306,1.5479 -0.12881,1.1535 -1.1571,-0.162 -0.68997,-0.49 -0.9895,-0.779 -0.14441,-0.186 -0.32983,-0.233 -1.3336,-0.127 -0.79516,0 -2.7884,0.353 -1.4548,0.266 -1.4299,-0.02 -2.3391,-2.451 -0.16046,-0.218 -0.12837,-0.272 -0.0642,-0.257 0.0232,-0.514 0.30665,-0.265 0.30487,-1.961 0.4582,-3.905 -1.9772,-0.314 0.29774,-3.519 0.20147,-1.303 0.51346,-1.116 1.9843,0.313 0.19255,-1.294" inkscape:connector-curvature="0" style="stroke:#ffffff">
      <title id="title4897">Judith Basin, MT</title>
    </path>
    <path id="c30107" d="m 305.81,95.758 5.6018,0.802 -0.42611,3.03 -1.3175,7.705 -3.9776,-0.57 -9.9252,-1.493 0.4992,-3.264 0.65788,-3.487 0.65967,-4.34 2.7884,-0.353 0.79516,0 1.3336,0.127 0.32983,0.233 0.14441,0.186 0.9895,0.779 0.68997,0.49 1.1571,0.162" inkscape:connector-curvature="0" style="stroke:#ffffff">
      <title id="title4900">Wheatland, MT</title>
    </path>
    <path id="c30097" d="m 295.77,105.23 9.9252,1.493 -0.2817,1.977 0.91475,0.0401 -0.42446,2.0489 2.972,0.442 -0.27278,1.245 -0.21518,1.355 -0.9905,-0.13598 -0.19867,1.3375 -0.974,-0.15353 -0.52238,1.961 -0.53843,3.962 -1.9683,-0.282 -0.22584,1.002 -1.8958,-0.31005 -0.22138,1.0652 -1.8913,-0.36619 -0.58657,3.954 -2.0984,-0.314 -0.60975,4.017 -2.644,-0.417 0.59369,-4.002 0.25852,-0.569 0.79516,-5.169 0.57765,-4.154 -1.141,-0.169 1.1981,-7.914 0.34588,-1.125 0.11945,-0.819" inkscape:connector-curvature="0" style="stroke:#ffffff">
      <title id="title4903">Sweet Grass, MT</title>
    </path>
    <path id="c30009" d="m 316.66,122.37 0.77912,-0.451 0.27278,-0.05 -0.0874,0.586 -0.16938,0.321 -0.12836,0.202 -0.0642,0.01 0.44216,1.553 0.81833,1.478 0.85221,0.112 -0.69175,0.626 -0.53843,1.872 -0.40114,2.999 9.2085,1.148 -0.1355,0.298 -2.4746,4.492 -6.0029,-0.813 -4.9903,-0.659 -2.1305,-0.289 -0.32804,-0.05 -2.9899,-0.547 -8.5417,-1.157 0.55448,-3.762 1.7276,0.259 0.68284,-2.083 0.99448,0.0509 0.51739,-1.5219 1.2676,-1.164 0.75594,-0.563 2.1216,-0.715 2.6351,0.378 1.1981,-1.196 0.10341,-0.756 0.54734,-0.555 2.0574,-0.483 0.16759,0.05 0.48316,0.339 0.36905,0.08 0.31379,0.04 0.80407,-0.09" inkscape:connector-curvature="0" style="stroke:#ffffff">
      <title id="title4906">Carbon, MT</title>
    </path>
    <path id="c30095" d="m 316.98,110.33 -0.28169,1.881 -0.22465,2.049 -0.59369,6.341 0.24069,0.699 0.53842,1.068 -0.80407,0.09 -0.31379,-0.04 -0.36905,-0.08 -0.48316,-0.339 -0.16759,-0.05 -2.0574,0.483 -0.54734,0.555 -0.10341,0.756 -1.1981,1.196 -2.6351,-0.378 -2.1216,0.715 -0.75594,0.563 -1.2676,1.165 -0.51744,1.5103 -0.99443,-0.0403 -0.68284,2.083 -1.7276,-0.259 -4.2504,-0.731 0.60975,-4.016 2.0984,0.313 0.58657,-3.954 1.8913,0.36619 0.22138,-1.0652 1.8958,0.31005 0.22584,-1.002 1.9683,0.282 0.53843,-3.962 0.52238,-1.961 0.974,0.15353 0.19867,-1.3375 0.9905,0.13598 0.21518,-1.355 0.27278,-1.244 0.31557,-1.985 7.7929,1.084" inkscape:connector-curvature="0" style="stroke:#ffffff">
      <title id="title4909">Stillwater, MT</title>
    </path>
    <path id="c30037" d="m 317.56,96.102 -0.39401,2.926 0.18363,1.029 1.0376,2.202 1.3336,5.1 -0.44928,3.281 -2.291,-0.307 -7.7929,-1.084 -0.31557,1.984 -2.972,-0.442 0.42446,-2.0489 -0.91475,-0.0401 0.2817,-1.977 3.9776,0.57 1.3175,-7.705 0.42611,-3.03 0.18542,-1.301 5.9619,0.843" inkscape:connector-curvature="0" style="stroke:#ffffff">
      <title id="title4912">Golden Valley, MT</title>
    </path>
    <path id="c30027" d="m 312.46,72.567 1.6955,0.675 1.8328,-0.604 0.41541,-0.28 4.6622,-0.06 0.25674,0.05 0.57051,0.369 0.57052,1.358 0.69889,0.45 0.34587,0.322 0.44929,0.642 0.0232,0.154 -0.0553,0.119 0.36192,0.653 1.2284,0.722 4.8387,1.865 0.16759,0.02 0.24961,-0.07 0.20859,-0.265 -0.57052,4.009 -0.26386,2.074 -0.35479,0.119 -3.9366,-0.49 -2.1448,0.547 -0.5313,1.913 -0.26564,1.953 2.0004,0.273 -0.82726,5.922 -0.57765,1.936 -5.9459,-0.836 -5.9619,-0.843 -0.18542,1.301 -5.6018,-0.802 0.12881,-1.1535 -1.3306,-1.5479 0.87027,-0.05147 0.12628,-0.94426 0.43463,-0.19803 0.28583,-0.71882 0.93066,-6.4387 -1.7739,-0.18863 0.0799,-0.6225 -1.8797,-0.34844 -0.0259,-0.82176 -1.9134,-0.59984 0.13764,-1.0732 0.13589,-0.79839 -1.284,-0.64061 0.19968,-1.299 0.78803,0.11 4.9029,-1.79 0.41719,-0.313 0.0481,-0.106 0.53842,-2.241 -0.009,-0.524 0.90035,-0.754 1.7668,-0.337 1.544,-0.08 0.62757,0.289" inkscape:connector-curvature="0" style="stroke:#ffffff">
      <title id="title4915">Fergus, MT</title>
    </path>
    <path id="c30005" d="m 313.81,63.631 0.74702,-3.536 1.0929,-6.147 0.6668,-4.732 0.37797,-2.027 0.58656,-2.947 1.5992,0.225 4.9082,0.708 0.90927,0.135 0.0874,0 6.8551,0.924 0.8433,0.112 3.8171,0.497 -0.0802,0.635 -0.2086,1.294 -0.81299,3.825 -0.95679,-0.15867 -1.533,6.7557 -0.61777,-0.168 -0.13015,0.33 -0.97166,4.692 -0.72385,5.488 -3.6157,0.788 -0.2086,-0.08 -3.3518,-0.434 -0.19968,1.172 -0.42611,3.079 -0.57052,-1.359 -0.57051,-0.369 -0.25674,-0.05 -4.6622,0.06 -0.41541,0.28 -1.8328,0.604 -1.6955,-0.675 1.3496,-8.936" inkscape:connector-curvature="0" style="stroke:#ffffff">
      <title id="title4918">Blaine, MT</title>
    </path>
    <path id="c30071" d="m 322.46,74.07 0.42611,-3.079 0.19968,-1.172 3.3518,0.433 0.2086,0.08 3.6157,-0.788 0.72385,-5.488 0.97166,-4.693 0.13015,-0.329 0.61776,0.168 1.533,-6.7557 0.95679,0.15867 0.81299,-3.825 0.2086,-1.294 0.0802,-0.635 16.071,1.985 -0.63471,1.913 -0.82725,6.942 -0.12196,2.1347 -1.9658,0.75184 -0.26265,1.9893 1.1202,0.14544 -0.41006,1.6738 -1.6706,-0.211 -0.8112,2.22 -1.0697,7.536 -0.49742,4.051 -0.17828,0.731 -0.30487,0.626 -0.0785,0.1 -0.10519,0.05 -0.77198,-0.121 -1.3336,-0.715 -0.18542,-0.06 -0.6347,-0.08 -0.94849,0.444 -0.68283,1.013 -0.56161,0.617 -1.8007,1.874 -0.66679,0.08 -0.0963,-0.03 0.10519,-0.845 -0.11232,-1.478 -0.0802,-0.417 -0.59548,-0.475 -0.13728,-0.07 -1.9433,-0.305 -0.50634,0.06 -0.65966,-0.02 -1.503,-0.121 -0.35301,-0.07 -0.10519,-0.08 -0.20859,0.265 -0.24961,0.07 -0.16759,-0.02 -4.8387,-1.864 -1.2284,-0.722 -0.36192,-0.653 0.0553,-0.119 -0.0232,-0.154 -0.44929,-0.642 -0.34587,-0.322 -0.69889,-0.45" inkscape:connector-curvature="0" style="stroke:#ffffff">
      <title id="title4921">Phillips, MT</title>
    </path>
    <path id="c30069" d="m 330.98,78.682 0.10519,0.08 0.35301,0.07 1.503,0.122 0.65966,0.02 0.50634,-0.06 1.9433,0.305 0.13728,0.07 0.59548,0.475 0.0802,0.417 0.11232,1.478 -0.10519,0.845 -1.1321,2.081 -0.34588,2.307 -0.65074,8.445 0.007,0.136 0.0571,0.07 0.5313,0.538 0.0874,0.05 0.7381,2.298 -6.9425,-0.836 -1.7508,-0.128 -3.9615,-0.523 0.57765,-1.936 0.82726,-5.922 -2.0004,-0.273 0.26564,-1.953 0.5313,-1.913 2.1448,-0.547 3.9366,0.49 0.35479,-0.119 0.26386,-2.074 0.57052,-4.009" inkscape:connector-curvature="0" style="stroke:#ffffff">
      <title id="title4924">Petroleum, MT</title>
    </path>
    <path id="c30065" d="m 317.56,96.102 5.9459,0.836 3.9615,0.523 1.7508,0.128 6.9425,0.836 -0.007,6.003 -0.29774,2.289 -2.3142,-0.29 -1.4851,1.166 -0.36192,0.619 -0.13729,1.005 -4.6123,-0.603 -1.4138,0.457 -0.31378,2.355 -5.9459,-0.786 0.44928,-3.281 -1.3336,-5.1 -1.0376,-2.202 -0.18363,-1.029 0.39401,-2.926" inkscape:connector-curvature="0" style="stroke:#ffffff">
      <title id="title4927">Musselshell, MT</title>
    </path>
    <path id="c30111" d="m 336.16,104.43 0.6347,0.409 0.29774,0.37 1.3336,2.837 1.503,4.202 -0.40115,1.993 -0.36192,1.02 -2.5887,-0.321 -0.28317,1.3152 -1.8456,-0.2472 -0.15477,0.7364 -0.60117,-0.1564 -0.11232,0.643 -0.70602,0.53 -2.6529,-0.282 -0.67392,2.587 -0.78803,6.051 -4.122,0.804 -2.0574,-0.273 -3.1985,-0.506 -0.85221,-0.112 -0.81833,-1.478 -0.44216,-1.553 0.0642,-0.01 0.12836,-0.202 0.16938,-0.321 0.0874,-0.586 -0.27278,0.05 -0.77912,0.451 -0.53842,-1.068 -0.24069,-0.699 0.59369,-6.341 0.22465,-2.049 0.28169,-1.881 2.291,0.307 5.9459,0.786 0.31378,-2.355 1.4138,-0.457 4.6123,0.603 0.13729,-1.005 0.36192,-0.619 1.4851,-1.166 2.3142,0.29 0.29774,-2.289" inkscape:connector-curvature="0" style="stroke:#ffffff">
      <title id="title4930">Yellowstone, MT</title>
    </path>
    <path id="c30003" d="m 347.82,120.29 -0.10519,0.877 0.0321,3.416 1.0376,0.289 1.5422,0.183 0.3227,0.122 -0.82725,7.336 -0.3375,0.0127 -0.22589,1.2403 -0.50634,2.603 3.9526,0.548 2.0022,0.176 1.9291,0.154 -0.20147,4.282 -10.109,-1.182 -3.1022,-0.378 -0.85935,-0.177 -7.6592,-0.939 -4.6035,-0.56442 -5.7603,-0.71258 2.4746,-4.492 0.1355,-0.298 -9.2085,-1.148 0.40114,-2.999 0.53843,-1.872 0.69175,-0.626 3.1985,0.506 2.0574,0.273 4.122,-0.804 0.78803,-6.051 0.67392,-2.587 2.6529,0.282 0.70602,-0.53 0.11232,-0.643 0.60117,0.1564 0.15477,-0.7364 1.8456,0.2472 0.28317,-1.3152 2.5887,0.321 1.3817,0.17 -0.24069,1.968 3.9598,0.474 0.73989,1.086 1.0127,1.123 1.8078,0.209" inkscape:connector-curvature="0" style="stroke:#ffffff">
      <title id="title4933">Big Horn, MT</title>
    </path>
    <path id="c30103" d="m 336.79,104.84 8.9197,1.069 -0.2989,1.962 2.3795,0.288 -0.75052,5.7632 1.4815,0.29479 -0.69889,6.075 -1.8078,-0.209 -1.0127,-1.123 -0.73989,-1.086 -3.9598,-0.474 0.24069,-1.968 -1.3817,-0.17 0.36192,-1.02 0.40115,-1.993 -1.503,-4.202 -1.3336,-2.837 -0.29774,-0.37" inkscape:connector-curvature="0" style="stroke:#ffffff">
      <title id="title4936">Treasure, MT</title>
    </path>
    <path id="c30087" d="m 335.43,96.127 6.6858,0.827 0.312,-0.08 0.60439,0 0.53665,0.06 10.31,1.206 0.56161,0.29 1.1589,0.241 8.219,0.875 -0.57765,0.28 -0.74702,5.265 -0.64361,2.603 -0.57052,5.32 -0.009,0.594 -0.36014,1.301 -0.48315,0.619 -0.86648,7.948 -0.67571,-0.06 -0.39401,3.735 -0.7078,4.14 -0.13337,2.1445 -0.57978,-0.0875 -0.4261,3.897 -1.9291,-0.153 -2.0022,-0.176 -3.9526,-0.548 0.50634,-2.603 0.22589,-1.2403 0.3375,-0.0127 0.82725,-7.337 -0.3227,-0.121 -1.5422,-0.183 -1.0376,-0.289 -0.0321,-3.416 0.10519,-0.877 0.69889,-6.075 -1.4815,-0.29479 0.75052,-5.7632 -2.3795,-0.288 0.2989,-1.962 -8.9197,-1.07 -0.6347,-0.408 0.007,-6.003 -0.7381,-2.298" inkscape:connector-curvature="0" style="stroke:#ffffff">
      <title id="title4939">Rosebud, MT</title>
    </path>
    <path id="c30033" d="m 361.36,73.74 0.93244,0.105 -0.46313,1.9845 1.7468,0.19952 -0.91225,7.9105 -0.78451,-0.03846 -0.15029,3.733 1.9915,0.208 -0.41541,3.946 1.3086,0.144 -0.77198,7.296 -0.0321,0.322 -8.219,-0.875 -1.1589,-0.241 -0.56161,-0.29 -10.31,-1.206 -0.53665,-0.06 -0.60439,0 -0.312,0.08 -6.6858,-0.828 -0.0874,-0.05 -0.5313,-0.538 -0.0571,-0.07 -0.007,-0.136 0.65074,-8.445 0.34588,-2.307 1.1321,-2.081 0.0963,0.03 0.66679,-0.08 1.8007,-1.874 0.56161,-0.617 0.68283,-1.012 0.94849,-0.444 0.6347,0.08 0.18542,0.06 1.3336,0.715 0.77198,0.121 0.10519,-0.05 0.0785,-0.1 0.30487,-0.626 0.17828,-0.731 2.5156,0.997 3.3982,0.424 0.23356,0 1.462,-0.05 0.38689,-0.05 0.27277,-0.08 3.9526,-2.138 2.6529,-3.528 0.78803,-0.177 0.48137,0.362" inkscape:connector-curvature="0" style="stroke:#ffffff">
      <title id="title4942">Garfield, MT</title>
    </path>
    <path id="c30019" d="m 368.63,50.677 16.073,1.624 -0.19434,2 -0.27278,5.923 1.0038,0.105 -0.18542,1.961 -12.76,-1.262 -3.8321,-0.10121 1.1239,-6.1428 -1.9915,-0.208 0.21572,-1.962 0.47603,-0.627 0.34409,-1.31" inkscape:connector-curvature="0" style="stroke:#ffffff">
      <title id="title4945">Daniels, MT</title>
    </path>
    <path id="c30105" d="m 368.63,50.677 -0.34409,1.31 -0.47603,0.627 -0.21572,1.962 1.9915,0.208 -1.1239,6.1428 3.8321,0.10121 -0.80407,7.795 -0.60083,-0.06 -0.4992,4.732 -1.1892,0.03 -4.7406,-1.021 -0.22464,-0.104 -0.39402,-0.41 -1.8328,-0.626 -0.10519,0.05 -0.0945,0.105 -0.21751,0.297 -0.21751,0.562 -0.007,1.375 -0.48137,-0.362 -0.78803,0.176 -2.6529,3.529 -3.9526,2.137 -0.27277,0.08 -0.38689,0.05 -1.462,0.05 -0.23356,0 -3.3982,-0.425 -2.5156,-0.996 0.49742,-4.051 1.0697,-7.536 0.8112,-2.22 1.6706,0.211 0.41006,-1.6738 -1.1202,-0.14544 0.26265,-1.9893 1.9658,-0.75184 0.12196,-2.1347 0.82725,-6.943 0.63471,-1.913 16.256,1.84" inkscape:connector-curvature="0" style="stroke:#ffffff">
      <title id="title4948">Valley, MT</title>
    </path>
    <path id="c30055" d="m 380.55,73.249 -0.12659,1.487 -0.28169,2.668 -0.64183,0.265 -0.16938,1.76 -2.0022,-0.193 -0.70799,6.2599 -0.64184,-0.16157 -0.68977,7.6816 -6.6947,-0.667 -0.19968,2.002 -0.67571,-0.06 -1.3264,-0.146 0.20859,-2 -1.9843,-0.209 -1.3086,-0.144 0.41541,-3.946 -1.9915,-0.208 0.15029,-3.733 0.78451,0.03846 0.91225,-7.9105 -1.7468,-0.19952 0.46313,-1.9845 -0.93244,-0.105 0.007,-1.375 0.21751,-0.561 0.21751,-0.298 0.0945,-0.105 0.10519,-0.05 1.8328,0.626 0.39402,0.41 0.22464,0.104 4.7406,1.021 1.1892,-0.03 2.4104,-0.738 0.83616,-0.458 0.76307,-0.03 2.8116,0.04 1.15,0.05 1.3175,0.257 0.87539,0.634" inkscape:connector-curvature="0" style="stroke:#ffffff">
      <title id="title4951">McCone, MT</title>
    </path>
    <path id="c30079" d="m 364.62,91.932 1.9843,0.209 -0.20859,2 1.3264,0.146 0.67571,0.06 0.19968,-2.002 6.6947,0.667 1.2765,0.13 -0.46533,4.654 2.0164,0.19 -0.17722,1.3412 2.0564,0.17977 0.29774,0.344 0.28883,0.491 -0.0553,0.538 6.6858,0.635 -0.41719,4.009 -0.0642,0.66 -1.9861,-0.185 -0.0874,0.987 -1.9932,-0.176 -0.41719,0.955 -1.7365,0.5 -4.0346,-0.402 -3.2466,-1.005 -0.55269,-0.731 -0.79516,-1.416 -0.26564,-2.023 -0.45107,-2.058 -3.3268,-0.987 -3.9936,-0.419 0.77198,-7.296" inkscape:connector-curvature="0" style="stroke:#ffffff">
      <title id="title4954">Prairie, MT</title>
    </path>
    <path id="c30075" d="m 359.56,123.48 19.364,2 -0.73098,7.884 -0.28882,2.056 -0.82725,-0.07 -0.77198,8.051 -1.1457,-0.10895 -11.967,-1.201 -3.0873,-0.16008 -3.6627,-0.39692 0.20147,-4.282 0.4261,-3.898 0.57978,0.0875 0.13337,-2.1445 0.7078,-4.14 0.39401,-3.735 0.67571,0.06" inkscape:connector-curvature="0" style="stroke:#ffffff">
      <title id="title4957">Powder River, MT</title>
    </path>
    <path id="c30017" d="m 363.85,99.228 3.9936,0.419 3.3268,0.987 0.45107,2.058 0.26564,2.023 0.79516,1.416 0.55269,0.731 3.2466,1.005 4.0346,0.402 1.7365,-0.5 0.41719,-0.955 1.9932,0.176 -0.28169,2.981 -2.7403,-0.257 -0.22465,2.452 0.0161,0.948 0.16759,0.491 -0.38332,4.033 -0.85399,-0.08 -0.74703,7.988 -0.69175,-0.06 -19.364,-2 0.86648,-7.948 0.48315,-0.619 0.36014,-1.301 0.009,-0.594 0.57052,-5.32 0.64361,-2.603 0.74702,-5.265 0.57765,-0.28 0.0321,-0.322" inkscape:connector-curvature="0" style="stroke:#ffffff">
      <title id="title4960">Custer, MT</title>
    </path>
    <path id="c30011" d="m 381.21,117.64 4.122,0.394 1.7579,0.361 -0.26952,1.5801 1.1467,0.1639 1.1316,0.1502 -0.32752,1.8668 1.3817,0.185 2.7082,0.209 -0.16938,1.984 1.4459,0.128 -1.2373,15.326 -0.69888,4.917 -15.903,-1.503 0.77198,-8.051 0.82725,0.07 0.28882,-2.056 0.73098,-7.884 0.69175,0.06 0.74703,-7.988 0.85399,0.08" inkscape:connector-curvature="0" style="stroke:#ffffff">
      <title id="title4963">Carter, MT</title>
    </path>
    <path id="c30025" d="m 384.66,106.99 0.0874,-0.987 1.9861,0.185 0.0642,-0.66 2.9881,0.264 0.98058,0.419 -0.0571,0.667 4.8868,0.417 -0.19255,2.3 -0.51525,5.955 -0.64183,7.657 -0.10519,1.453 -1.4459,-0.128 0.16938,-1.984 -2.7082,-0.209 -1.3817,-0.185 0.32752,-1.8668 -1.1316,-0.1502 -1.1467,-0.1639 0.26952,-1.5801 -1.7579,-0.361 -4.122,-0.394 0.38332,-4.033 -0.16759,-0.491 -0.0161,-0.948 0.22465,-2.452 2.7403,0.257 0.28169,-2.981" inkscape:connector-curvature="0" style="stroke:#ffffff">
      <title id="title4966">Fallon, MT</title>
    </path>
    <path id="c30109" d="m 397.07,90.06 -0.13728,1.535 -1.3336,15.7 -4.8868,-0.417 0.0571,-0.667 -0.98058,-0.419 -2.9881,-0.264 0.41719,-4.009 1.6866,0.151 1.0608,-0.569 0.36193,-0.297 1.535,-2.202 0.41897,-0.802 0.15155,-1.826 -0.0392,-1.334 -0.041,-0.337 -0.12837,-0.508 -1.6757,-2.3497 0.55786,-0.92025 4.5249,0.411 0.0874,-0.997 1.3514,0.121" inkscape:connector-curvature="0" style="stroke:#ffffff">
      <title id="title4969">Wibaux, MT</title>
    </path>
    <path id="c30021" d="m 379.33,79.429 -0.20146,1.977 4.0008,0.385 -0.19968,1.984 6.0029,0.564 -0.22099,1.8039 1.2978,0.28508 -0.36193,3.969 1.453,0.128 -0.55786,0.92025 1.6757,2.3497 0.12837,0.508 0.041,0.337 0.0392,1.334 -0.15155,1.826 -0.41897,0.802 -1.535,2.202 -0.36193,0.297 -1.0608,0.569 -1.6866,-0.151 -6.6858,-0.635 0.0553,-0.539 -0.28883,-0.49 -0.29774,-0.344 -2.0564,-0.17977 0.17722,-1.3412 -2.0164,-0.19 0.46533,-4.654 -1.2765,-0.13 0.68977,-7.6816 0.64184,0.16157 0.70799,-6.2599 2.0022,0.193" inkscape:connector-curvature="0" style="stroke:#ffffff">
      <title id="title4972">Dawson, MT</title>
    </path>
    <path id="c30083" d="m 398.23,76.448 -1.1642,13.612 -1.3514,-0.121 -0.0874,0.997 -4.5249,-0.411 -1.453,-0.128 0.36193,-3.969 -1.2978,-0.28508 0.22099,-1.8039 -6.0029,-0.564 0.19968,-1.984 -4.0008,-0.385 0.20146,-1.977 0.16938,-1.76 0.64183,-0.265 0.28169,-2.668 0.12659,-1.487 1.15,0.225 1.8881,0 0.32983,-0.168 0.49742,-0.377 0.41006,-0.546 0.90926,-0.369 6.5075,1.638 3.038,1.767 2.9489,1.022" inkscape:connector-curvature="0" style="stroke:#ffffff">
      <title id="title4975">Richland, MT</title>
    </path>
    </g>
  </svg>
